<?xml version="1.0" encoding="utf-8"?>
<!-- Generator: Adobe Illustrator 25.0.1, SVG Export Plug-In . SVG Version: 6.00 Build 0)  -->
<svg version="1.1" id="Layer_1" xmlns="http://www.w3.org/2000/svg" xmlns:xlink="http://www.w3.org/1999/xlink" x="0px" y="0px"
	 width="1063px" height="227px" viewBox="0 0 1063 227" enable-background="new 0 0 1063 227" xml:space="preserve">
<g id="Warstwa_x0020_1">
	<g id="_628000800">
		<path fill="#008DCC" d="M322.8,147.1v-1c-2-17.3-10.2-33.6-23.4-44.8c-13.2-12.2-30.5-19.3-48.9-19.3c-27.5,0-51.9,15.3-64.1,38.7
			V4.6c0-2-2-4.1-4.1-4.1c-2,0-4.1,2-4.1,4.1v141.5c0,1,1,2,1,3.1h1c1,1,2,2,4.1,1c1,0,2-2,2-3.1c4.1-32.6,31.6-57,64.1-57
			c33.6,0,61.1,24.4,64.1,57c0,2,2,4.1,4.1,4.1C320.7,150.2,322.8,149.1,322.8,147.1z"/>
		<path fill="#323883" d="M638.4,220.4L638.4,220.4v-11.2v-1c-2-17.3-10.2-34.6-23.4-46.8c-14.3-12.2-31.6-19.3-49.9-19.3
			c-18.3,0-36.7,6.1-49.9,19.3c-14.3,12.2-22.4,28.5-23.4,46.8l0,0l-1,12.2c0,2,2,4.1,4.1,4.1s4.1-2,4.1-4.1v-11.2
			c3.1-33.6,32.6-59.1,66.2-59.1c33.6,0,62.1,25.5,65.2,59.1v12.2c1,2,2,4.1,5.1,3.1C637.4,224.5,638.4,223.5,638.4,220.4z"/>
		<path fill="#C6156B" d="M839,89.1c0,2-1,4.1-4.1,4.1H710.7c-2,0-4.1-2-4.1-4.1c0-2,2-4.1,4.1-4.1h124.2C838,85,839,87,839,89.1z"
			/>
		<path fill="#D01E43" d="M876.7,85c0-2-1-4.1-4.1-4.1c-2,0-4.1,2-4.1,4.1v136.4c0,2,2,4.1,4.1,4.1c3.1,0,4.1-2,4.1-4.1V85z"/>
		<path fill="#C6156B" d="M774.8,103.3c0-2-2-4.1-4.1-4.1s-4.1,2-4.1,4.1v119.1c0,2,2,4.1,4.1,4.1s4.1-2,4.1-4.1V103.3z"/>
		<path fill="#008DCC" d="M154.8,222.4c0-1,0-1-1-2L88.6,87c-1-2-4.1-2-6.1-2c-2,1-2,4.1-1,6.1l65.2,133.4c1,2,4.1,2,6.1,1
			C153.7,225.5,154.8,223.5,154.8,222.4z"/>
		<path fill="#008DCC" d="M74.3,89.1c0-1-1-3.1-3.1-4.1c-1,0-4.1,0-5.1,2L0,220.4c0,1,0,1,0,2c0,1,1,3.1,2,3.1c2,1,5.1,1,6.1-1
			L73.3,91.1C74.3,90.1,74.3,90.1,74.3,89.1z"/>
		<path fill="#B31869" d="M680.2,85c0-3.1-2-4.1-4.1-4.1c-2,0-4.1,1-4.1,4.1v136.4c0,2,2,4.1,4.1,4.1c2,0,4.1-2,4.1-4.1V85z"/>
		<path fill="#0071B9" d="M457.2,85c0-3.1-1-4.1-4.1-4.1c-2,0-4.1,1-4.1,4.1v136.4c0,2,2,4.1,4.1,4.1c3.1,0,4.1-2,4.1-4.1V85z"/>
		<path fill="#F08124" d="M1063,160.3c0-2-2-3.1-4.1-3.1c-2-1-4.1,1-4.1,3.1c-3.1,33.6-31.6,59.1-65.2,59.1s-62.1-25.5-65.2-59.1
			c0-2-2-4.1-4.1-3.1c-2,0-4.1,2-4.1,4.1c2,17.3,10.2,34.6,23.4,46.8c14.3,12.2,31.6,18.3,49.9,18.3s35.6-6.1,49.9-18.3
			c13.2-12.2,21.4-29.5,23.4-46.8C1063,161.4,1063,161.4,1063,160.3z"/>
		<path fill="#F08124" d="M1063,147.1c0-1,0-1,0-1c-2-17.3-11.2-33.6-24.4-45.8s-30.5-18.3-48.9-18.3c-37.7,0-69.2,27.5-73.3,64.1
			c0,2,2,4.1,4.1,5.1c2,0,4.1-2,4.1-4.1c4.1-32.6,31.6-58,65.2-58s61.1,25.5,65.2,58c0,2,2,4.1,4.1,3.1
			C1061,150.2,1063,149.1,1063,147.1z"/>
		<path fill="#008DCC" d="M322.8,160.3c0-2-1-4.1-4.1-4.1c-2,0-4.1,2-4.1,4.1c-3.1,32.6-30.5,57-64.1,57s-61.1-24.4-64.1-57
			c0-2-2-4.1-4.1-4.1c-2,0-4.1,2-4.1,5.1c2,17.3,10.2,33.6,23.4,45.8c13.2,12.2,30.5,18.3,48.9,18.3s35.6-6.1,48.9-18.3
			c13.2-12.2,21.4-28.5,23.4-45.8V160.3z"/>
	</g>
</g>
</svg>
