<?xml version="1.0" encoding="utf-8"?>
<!-- Generator: Adobe Illustrator 25.0.1, SVG Export Plug-In . SVG Version: 6.00 Build 0)  -->
<svg version="1.1"
	 id="svg6" inkscape:version="1.0.1 (3bc2e813f5, 2020-09-07)" sodipodi:docname="Alteryx-aa.svg" xmlns:cc="http://creativecommons.org/ns#" xmlns:dc="http://purl.org/dc/elements/1.1/" xmlns:inkscape="http://www.inkscape.org/namespaces/inkscape" xmlns:rdf="http://www.w3.org/1999/02/22-rdf-syntax-ns#" xmlns:sodipodi="http://sodipodi.sourceforge.net/DTD/sodipodi-0.dtd" xmlns:svg="http://www.w3.org/2000/svg"
	 xmlns="http://www.w3.org/2000/svg" xmlns:xlink="http://www.w3.org/1999/xlink" x="0px" y="0px" viewBox="0 0 250 130"
	 style="enable-background:new 0 0 250 130;" xml:space="preserve">
<style type="text/css">
	.st0{fill-rule:evenodd;clip-rule:evenodd;fill:#0093D0;}
</style>
<sodipodi:namedview  bordercolor="#666666" borderopacity="1" gridtolerance="10" guidetolerance="10" id="namedview8" inkscape:current-layer="svg6" inkscape:cx="125" inkscape:cy="38" inkscape:document-rotation="0" inkscape:pageopacity="0" inkscape:pageshadow="2" inkscape:window-height="1017" inkscape:window-maximized="1" inkscape:window-width="1920" inkscape:window-x="-8" inkscape:window-y="-8" inkscape:zoom="4.168" objecttolerance="10" pagecolor="#ffffff" showgrid="false">
	</sodipodi:namedview>
<path id="path4" class="st0" d="M55.6,0c0.4,0,0.6,0,0.8,0.2c0.2,0.1,0.4,0.4,0.7,1L57.2,48l0.2,0.7c0.1,0.4,0.3,0.9,0.4,1.1
	c0.1,0.2,0.3,0.7,0.5,0.9c0.2,0.3,0.5,0.6,0.6,0.8c0.2,0.2,0.5,0.4,0.7,0.5s0.6,0.3,0.9,0.4c0.3,0.1,0.9,0.2,1.3,0.3
	c0.6,0.1,1.1,0.1,1.7,0c0.5,0,1.4-0.2,1.9-0.3s1.3-0.3,1.8-0.5c0.6-0.2,0.9-0.2,1.2-0.2c0.2,0,0.5,0.1,0.7,0.2
	c0.2,0.1,0.4,0.3,0.5,0.5s0.3,0.9,0.5,1.6c0.2,0.7,0.4,1.6,0.4,1.9c0.1,0.5,0,0.6-0.2,0.9c-0.1,0.2-0.4,0.5-0.6,0.6
	c-0.2,0.2-0.9,0.4-1.6,0.7c-0.7,0.2-1.5,0.5-1.9,0.6S65,59,64.5,59c-0.7,0.1-1.6,0.2-2.7,0.2c-1,0-2,0-2.5-0.1
	c-0.5,0-1.2-0.2-1.7-0.3c-0.4-0.1-1.2-0.3-1.7-0.5s-1.2-0.5-1.6-0.6s-0.9-0.5-1.2-0.7s-0.8-0.6-1.1-1c-0.3-0.3-0.7-0.8-0.9-1.1
	s-0.5-0.8-0.7-1.2s-0.4-1-0.5-1.4s-0.3-1.1-0.3-1.5c-0.1-0.5-0.2-1.3-0.2-2c0-0.8-0.1-9-0.1-23.2c0-18.7,0-22,0.1-22.2
	c0.1-0.1,0.4-0.5,0.7-0.8s0.9-0.8,1.2-1c0.4-0.3,0.9-0.7,1.3-0.9c0.4-0.2,1-0.5,1.5-0.7C54.9,0.1,55.2,0,55.6,0z M86.5,2.7
	c0.2,0,0.4,0.1,0.5,0.1s0.3,0.2,0.4,0.3s0.3,0.4,0.4,0.7c0.1,0.4,0.1,1.5,0.1,14.4h4.8c4.2,0,4.9,0,5.1,0.2c0.2,0.1,0.4,0.3,0.7,0.7
	v2.1c0,2,0,2.1-0.2,2.4c-0.1,0.1-0.3,0.3-0.4,0.4c-0.2,0.2-0.4,0.2-5.2,0.2c-4.6,0-4.9,0-4.9,0.2c0,0.1-0.1,5.1-0.1,11.2
	c-0.1,7.7-0.1,11.3,0,11.9c0.1,0.5,0.1,1.1,0.2,1.4c0.1,0.3,0.2,0.8,0.3,1c0.1,0.3,0.3,0.7,0.4,0.9c0.2,0.2,0.5,0.6,0.7,0.8
	s0.7,0.5,1,0.7c0.3,0.1,0.8,0.3,1.2,0.4c0.3,0.1,1,0.1,1.5,0.1s1.3-0.1,2-0.2c0.6-0.1,1.6-0.3,2.2-0.5s1.3-0.3,1.4-0.3
	s0.5,0.1,0.7,0.2c0.2,0.1,0.4,0.3,0.6,0.5c0.1,0.2,0.3,0.5,0.4,0.7s0.2,0.8,0.3,1.2c0.1,0.5,0.3,1.1,0.3,1.4c0.1,0.4,0.1,0.7,0,0.9
	s-0.2,0.5-0.3,0.6c-0.1,0.2-0.5,0.4-0.7,0.5c-0.3,0.2-1,0.4-1.5,0.6c-0.6,0.2-1.5,0.4-2,0.6c-0.5,0.1-1.5,0.3-2.1,0.4
	c-0.9,0.1-1.6,0.1-3,0.1c-1.2,0-2.1-0.1-2.6-0.2c-0.4-0.1-1.1-0.2-1.6-0.4c-0.4-0.1-1.1-0.3-1.5-0.5s-1-0.5-1.4-0.7s-0.9-0.7-1.3-1
	c-0.3-0.3-0.8-0.8-1-1.1s-0.6-0.8-0.8-1.2c-0.2-0.4-0.5-1-0.6-1.3s-0.3-1-0.4-1.4s-0.2-1.1-0.3-1.4c-0.1-0.4-0.1-1.9-0.1-3.3
	c0-1.5,0-6.4,0.1-11.8c0.1-5,0.2-9.5,0.2-10.9h-2.6c-2.5,0-2.6,0-2.9-0.2c-0.2-0.1-0.4-0.3-0.6-0.5c0.1-0.1,0.1-0.4,0.1-2
	c0-1.2,0-2,0.1-2.3c0.1-0.2,0.2-0.5,0.3-0.6c0.1-0.1,0.3-0.3,0.5-0.4c0.3-0.1,0.6-0.1,5.4-0.1l0.1-1.8c0-1,0.1-3.3,0.1-5.1
	s0.1-3.7,0.1-5.1l0.7-0.7c0.4-0.4,1.1-0.9,1.5-1.2s1.1-0.7,1.5-0.9s1-0.4,1.3-0.5C86,2.7,86.2,2.7,86.5,2.7z M16.5,15.9
	c1.5,0,2.9,0.1,3.6,0.2c0.6,0.1,1.6,0.2,2.2,0.3s1.3,0.2,1.6,0.3c0.3,0.1,1.2,0.3,1.9,0.5c0.8,0.2,1.8,0.5,2.3,0.7s1.2,0.4,1.7,0.6
	c0.4,0.2,1,0.5,1.3,0.7s0.6,0.5,0.8,0.7c0.1,0.2,0.3,0.6,0.4,0.8c0.1,0.3,0.1,4.1,0.1,15c0,10,0,14.7,0.1,15c0,0.3,0.2,0.7,0.3,0.8
	c0.1,0.2,0.3,0.4,0.5,0.5c0.3,0.2,0.5,0.2,1.3,0.2c0.7,0,1.3-0.1,2.3-0.3c0.9-0.2,1.5-0.3,1.7-0.2c0.2,0,0.5,0.1,0.7,0.2
	c0.2,0.1,0.4,0.3,0.6,0.4c0.1,0.2,0.3,0.4,0.4,0.6c0.1,0.2,0.3,0.8,0.4,1.5c0.2,0.7,0.3,1.4,0.3,1.8c0,0.4,0,0.7-0.1,0.9
	c-0.1,0.3-0.3,0.5-0.5,0.8c-0.2,0.2-0.7,0.5-1,0.7s-1,0.4-1.4,0.5s-1.1,0.3-1.6,0.4c-0.5,0.1-1.3,0.2-1.8,0.3c-0.6,0.1-1.2,0.1-2,0
	c-0.6,0-1.4-0.2-1.8-0.3s-1-0.3-1.3-0.4c-0.3-0.1-0.7-0.3-0.9-0.4c-0.2-0.1-0.5-0.4-0.8-0.6c-0.3-0.2-0.7-0.7-1-1s-0.6-0.9-0.7-1.2
	s-0.3-0.6-0.4-0.5c0,0-0.4,0.3-0.8,0.6s-1.1,0.8-1.5,1c-0.4,0.3-1.1,0.7-1.6,0.9s-1.2,0.6-1.7,0.7c-0.5,0.2-1.3,0.4-1.8,0.6
	s-1.4,0.3-1.9,0.4c-0.7,0.1-1.6,0.2-2.6,0.2c-0.9,0-1.9,0-2.3-0.1c-0.4-0.1-1.1-0.2-1.6-0.3c-0.4-0.1-1.1-0.3-1.6-0.4
	c-0.4-0.1-1.2-0.5-1.6-0.7C6,58,5.3,57.5,5,57.3c-0.3-0.3-0.9-0.8-1.2-1.1c-0.3-0.4-0.8-1-1.1-1.4s-0.6-1.1-0.8-1.5
	s-0.4-1.1-0.5-1.4c-0.1-0.4-0.2-1.1-0.3-1.6C1,49.5,1,48.8,1,47.2s0.1-2.2,0.2-2.9c0.1-0.5,0.3-1.2,0.4-1.6c0.1-0.4,0.4-1,0.6-1.4
	s0.5-0.9,0.7-1.2s0.7-0.9,1.2-1.4c0.4-0.4,1.1-1,1.5-1.3s1.1-0.7,1.6-0.9s1.3-0.5,1.7-0.7c0.4-0.1,1.2-0.4,1.7-0.5s1.2-0.3,1.7-0.3
	c0.5-0.1,1.2-0.2,1.6-0.2c0.4,0,1.9-0.1,3.2-0.2c1.4,0,3.6-0.1,7.6-0.2v-11L24,23.2c-0.4-0.2-1.1-0.5-1.5-0.6s-1.4-0.4-2-0.5
	s-1.5-0.3-2-0.3c-0.5-0.1-1.8-0.1-2.9-0.1c-1.4,0-2.3,0-3.1,0.1c-0.6,0.1-1.8,0.3-2.7,0.4c-0.9,0.2-1.9,0.3-2.3,0.3
	c-0.3,0-0.7,0-0.8-0.1c-0.2-0.1-0.4-0.3-0.6-0.4c-0.2-0.2-0.4-0.7-0.6-1.5c-0.2-0.6-0.4-1.3-0.4-1.5c0-0.3,0-0.5,0.1-0.8
	c0.1-0.2,0.3-0.5,0.5-0.7s0.6-0.4,0.8-0.5c0.3-0.1,1.1-0.3,1.9-0.5s2-0.4,2.7-0.5s1.6-0.2,2.1-0.3S15.2,15.8,16.5,15.9z M14.6,40.3
	c-0.6,0.1-1.4,0.2-1.9,0.4c-0.4,0.1-1.1,0.3-1.4,0.5c-0.3,0.2-0.8,0.5-1.1,0.7s-0.6,0.6-0.8,0.9S9.1,43.6,8.9,44
	c-0.1,0.3-0.3,1-0.4,1.5c-0.1,0.7-0.1,1.3-0.1,2.2c0,0.8,0.1,1.6,0.2,2C8.8,50,9,50.6,9.2,51c0.2,0.5,0.5,0.8,0.8,1.2
	c0.3,0.3,0.7,0.6,1.1,0.8c0.3,0.2,0.9,0.4,1.3,0.5c0.4,0.1,1.1,0.2,1.7,0.3c0.7,0.1,1.3,0.1,2,0c0.6,0,1.4-0.2,1.9-0.3
	s1.3-0.3,1.8-0.4c0.5-0.1,1.3-0.4,1.8-0.6c0.5-0.2,1.1-0.5,1.4-0.6c0.3-0.2,0.9-0.5,1.3-0.7l0.7-0.5V39.8c-1,0-3.1,0.1-5.4,0.2
	C17.5,40.1,15.2,40.3,14.6,40.3z M125.1,16.4c1,0,2.1,0,2.6,0.1c0.4,0,1.3,0.2,1.8,0.3c0.6,0.1,1.4,0.4,1.8,0.5
	c0.4,0.2,1.1,0.4,1.4,0.6s0.9,0.5,1.2,0.7s0.9,0.6,1.3,0.9c0.4,0.3,0.9,0.8,1.2,1.1c0.3,0.3,0.7,0.8,0.9,1.1
	c0.2,0.3,0.6,0.8,0.8,1.1s0.6,1,0.8,1.5s0.5,1.2,0.7,1.6c0.1,0.5,0.4,1.1,0.4,1.5s0.2,1.1,0.3,1.6s0.2,1.4,0.3,2
	c0.1,0.7,0.1,2.1,0.1,4.3c0,2.8-0.1,3.3-0.2,3.6c-0.1,0.2-0.2,0.4-0.3,0.5s-0.3,0.3-0.4,0.3c-0.2,0.1-2.1,0.1-24.1,0.1l0.1,1.9
	c0,1.1,0.1,2.3,0.2,2.8s0.2,1.3,0.3,1.7c0.1,0.4,0.3,1.2,0.5,1.6c0.2,0.4,0.5,1.1,0.7,1.5s0.7,1,0.9,1.3c0.3,0.3,0.7,0.7,1,0.9
	s0.8,0.5,1.1,0.7c0.3,0.2,1,0.5,1.5,0.6c0.5,0.2,1.3,0.4,1.9,0.5c0.9,0.2,1.3,0.2,3.3,0.2c1.9,0,2.5,0,3.4-0.2
	c0.6-0.1,1.8-0.3,2.6-0.5s2.1-0.5,2.8-0.6c1.2-0.2,1.4-0.3,1.7-0.2s0.5,0.2,0.8,0.5s0.4,0.5,0.5,0.9c0.1,0.3,0.3,0.9,0.4,1.5
	c0.1,0.6,0.3,1.3,0.3,1.6c0,0.4,0,0.6-0.1,0.8c-0.1,0.1-0.3,0.4-0.4,0.5s-0.6,0.4-0.9,0.6s-1,0.4-1.5,0.6c-0.5,0.2-1.4,0.5-1.9,0.6
	s-1.4,0.3-1.9,0.4c-0.5,0.1-1.4,0.2-2,0.3s-1.7,0.2-2.5,0.2s-2.1,0-2.9,0s-1.9-0.1-2.5-0.2c-0.6-0.1-1.5-0.2-2-0.4
	c-0.5-0.1-1.4-0.3-1.9-0.5s-1.2-0.5-1.7-0.6c-0.4-0.2-1.1-0.5-1.5-0.8s-1.1-0.7-1.4-1c-0.4-0.3-1-0.8-1.5-1.3
	c-0.4-0.4-1-1.1-1.3-1.5s-0.7-1-1-1.4c-0.2-0.4-0.7-1.2-0.9-1.8c-0.3-0.6-0.7-1.6-0.9-2.3s-0.5-1.7-0.6-2.2s-0.3-1.5-0.4-2.2
	s-0.2-1.8-0.3-2.5c-0.1-0.8-0.1-2.2-0.1-3.9c0-1.6,0.1-3.1,0.2-3.8c0.1-0.6,0.2-1.7,0.3-2.3c0.1-0.7,0.3-1.7,0.5-2.3
	c0.2-0.6,0.4-1.5,0.6-2s0.6-1.4,0.8-2c0.3-0.6,0.7-1.4,1-1.8s0.7-1,0.9-1.4c0.3-0.4,0.7-0.9,1-1.2c0.3-0.3,0.9-0.9,1.3-1.3
	s1.1-0.9,1.5-1.1c0.4-0.3,1.1-0.7,1.7-0.9c0.5-0.3,1.4-0.6,1.9-0.8c0.5-0.2,1.3-0.4,1.8-0.5s1.2-0.2,1.5-0.3
	C123.1,16.5,124.1,16.4,125.1,16.4z M122,22.6c-0.3,0.1-0.8,0.3-1.2,0.5s-0.8,0.5-1.2,0.7c-0.3,0.3-0.8,0.7-1,0.9
	c-0.2,0.3-0.5,0.6-0.7,0.9c-0.2,0.2-0.4,0.8-0.7,1.1c-0.2,0.4-0.5,1.1-0.7,1.7c-0.2,0.5-0.4,1.3-0.5,1.8s-0.2,1.2-0.3,1.6
	c-0.1,0.4-0.1,1.2-0.2,1.8l-0.1,1.1H133c0.1-0.4,0.1-1.4,0.1-2.6c0-1.5-0.1-2.4-0.2-3c-0.1-0.4-0.3-1.2-0.4-1.7
	c-0.2-0.5-0.5-1.2-0.7-1.6c-0.3-0.5-0.6-0.9-1.1-1.4s-0.9-0.8-1.4-1.1c-0.4-0.2-0.9-0.5-1.3-0.6c-0.3-0.1-1-0.3-1.4-0.3
	c-0.5-0.1-1.2-0.1-2-0.1c-0.7,0-1.5,0.1-1.8,0.1C122.8,22.4,122.3,22.5,122,22.6L122,22.6z M168.2,18c0.8,0,1.6,0.1,1.9,0.1
	c0.3,0,0.6,0.1,0.7,0.2c0.1,0.1,0.3,0.3,0.4,0.5c0.1,0.2,0.2,0.5,0.2,0.6c0,0.2-0.1,1.2-0.3,2.4c-0.2,1.4-0.4,2.2-0.5,2.4
	c-0.1,0.2-0.3,0.4-0.6,0.5c-0.4,0.2-0.4,0.2-1.5,0c-0.8-0.1-1.4-0.1-2-0.1c-0.5,0-1.2,0.1-1.5,0.2c-0.4,0.1-0.9,0.3-1.3,0.5
	s-0.8,0.4-1.1,0.6c-0.2,0.1-0.7,0.5-1.1,0.8c-0.4,0.3-0.9,0.8-1.1,1c-0.3,0.3-0.7,0.7-1.3,1.5v14.3c0,10.5,0,14.4-0.1,14.7
	s-0.2,0.5-0.4,0.8c-0.2,0.2-0.4,0.4-0.7,0.5s-1,0.1-5.4,0.1l-0.3-0.2c-0.2-0.1-0.4-0.4-0.5-0.6c-0.2-0.3-0.2-0.5-0.2-19.4
	c0-10.5,0-19.2,0-19.3c0-0.2,0.2-0.4,0.4-0.6s0.5-0.4,0.6-0.5c0.2-0.1,1-0.1,2.6-0.1c2,0,2.4,0,2.7,0.1s0.5,0.3,0.6,0.4
	c0.1,0.2,0.2,0.4,0.3,0.6s0.1,0.7,0.1,1.1s0,0.8,0,0.9s0.3-0.1,1-0.8c0.5-0.5,1.3-1.1,1.7-1.4s1-0.6,1.4-0.8c0.3-0.2,1-0.4,1.4-0.6
	c0.5-0.1,1.2-0.3,1.6-0.4C166.6,18,167.2,17.9,168.2,18L168.2,18z M222.1,18.6c2.5,0,2.6,0,3,0.2c0.2,0.1,0.5,0.3,0.6,0.5
	s2.1,3.1,4.3,6.5s4.1,6.2,4.1,6.2s1.9-2.8,4.1-6.1c2.2-3.4,4.1-6.3,4.3-6.5c0.1-0.2,0.4-0.4,1.1-0.8h2.6c2.1,0,2.7,0,2.9,0.1
	s0.4,0.3,0.6,0.4c0.2,0.2,0.2,0.3,0.2,0.7c0,0.2-0.1,0.5-0.1,0.7c-0.1,0.1-2.7,4.2-5.8,9s-5.7,8.8-5.7,8.8s2.8,4.4,6.2,9.6
	s6.3,9.6,6.3,9.7c0,0.1,0.1,0.4,0.1,0.7s-0.1,0.5-0.1,0.7c-0.1,0.1-0.3,0.3-0.4,0.3c-0.2,0.1-1,0.1-3,0.1c-1.8,0-2.9,0-3.1-0.1
	c-0.2-0.1-0.5-0.2-0.6-0.3c-0.2-0.2-0.6-0.6-1.4-1.8c-0.6-0.9-2.6-4-4.5-7s-3.5-5.4-3.5-5.4s-2.1,3-4.5,6.8c-2.6,4-4.6,7-4.8,7.2
	s-0.5,0.4-0.8,0.5c-0.4,0.1-0.8,0.1-3.2,0.1c-2.1,0-2.8,0-3-0.1c-0.1-0.1-0.4-0.2-0.5-0.4s-0.2-0.4-0.2-0.7c0-0.2,0.1-0.5,0.1-0.7
	c0.1-0.2,2.9-4.5,6.4-9.8c3.4-5.2,6.2-9.5,6.2-9.5s-2.5-3.9-5.6-8.7s-5.7-8.9-5.8-9.1s-0.2-0.5-0.2-0.7s0.1-0.4,0.1-0.5
	c0.1-0.1,0.2-0.3,0.3-0.4s0.3-0.2,0.5-0.2C219.5,18.6,220.2,18.6,222.1,18.6L222.1,18.6z M178.5,18.8h3.2c3.1,0,3.2,0,3.5,0.2
	c0.2,0.1,0.4,0.3,0.5,0.5c0.1,0.1,2.4,6.7,5.1,14.6c3.3,9.4,5,14.3,5,14.2s2.3-6.5,5.1-14.2s5.1-14.2,5.2-14.4
	c0.1-0.2,0.3-0.5,0.8-0.9h2.9c2.2,0,2.9,0,3.1,0.1c0.1,0.1,0.3,0.2,0.4,0.4c0.1,0.2,0.1,0.4,0,0.6c0,0.2-3.7,10.3-8.2,22.3
	c-4.5,12.1-8.4,22.4-8.6,23c-0.2,0.6-0.6,1.4-0.8,1.8s-0.6,1.2-0.9,1.7c-0.3,0.5-0.8,1.2-1,1.6c-0.3,0.4-0.9,1.1-1.4,1.6
	s-1.2,1.1-1.6,1.4c-0.4,0.3-1.2,0.8-1.8,1.1c-0.6,0.3-1.4,0.6-1.8,0.8s-1.1,0.3-1.7,0.4c-0.6,0.1-1.5,0.3-2.1,0.3
	c-0.7,0.1-1.8,0.1-3,0.1s-2.1-0.1-2.6-0.2s-0.8-0.2-1-0.3c-0.1-0.1-0.3-0.4-0.3-0.7c-0.1-0.4-0.1-0.7-0.1-1.3c0-0.5,0.1-1.2,0.2-1.7
	c0.1-0.4,0.2-1,0.3-1.2s0.2-0.5,0.4-0.6c0.1-0.1,0.4-0.3,0.5-0.3s0.9,0,1.6,0.1c0.9,0.1,1.8,0.1,2.5,0.1c0.6,0,1.5-0.1,1.9-0.2
	c0.5-0.1,1.2-0.3,1.6-0.5c0.4-0.2,0.9-0.4,1.1-0.6c0.3-0.2,0.8-0.6,1.1-1c0.4-0.4,0.9-1,1.1-1.4c0.2-0.4,0.6-1,0.8-1.4
	s0.9-2.1,1.6-3.7c0.7-1.6,1.2-3,1.2-3.1s-3.2-8.6-7.1-19c-6-15.8-7.1-19-7.1-19.3s0.1-0.5,0.2-0.6L178.5,18.8z"/>
<g id="text6" transform="matrix(1 0 0 1 73.9538 107.4883)">
	<path id="path13" d="M16.1,0h-2.5l-1.7-4.9H4.4L2.7,0H0.3l6.4-17.4h3.1L16.1,0z M11.2-6.9l-3.1-8.6L5.1-6.9H11.2z"/>
	<path id="path15" d="M29.5,0h-2.2v-7.5c0-0.6,0-1.2-0.1-1.7c-0.1-0.5-0.2-0.9-0.4-1.2c-0.2-0.3-0.5-0.6-0.8-0.7
		c-0.4-0.2-0.8-0.2-1.4-0.2c-0.6,0-1.2,0.1-1.9,0.4c-0.7,0.3-1.3,0.7-1.9,1.1V0h-2.2v-13.1h2.2v1.5c0.7-0.6,1.4-1,2.1-1.3
		s1.5-0.5,2.3-0.5c1.4,0,2.5,0.4,3.2,1.3s1.1,2.1,1.1,3.7V0z"/>
	<path id="path17" d="M43.9,0h-2.2v-1.4c-0.2,0.1-0.5,0.3-0.8,0.6c-0.3,0.2-0.6,0.4-1,0.6c-0.4,0.2-0.8,0.3-1.3,0.4
		c-0.5,0.1-1,0.2-1.7,0.2c-1.2,0-2.2-0.4-3-1.2s-1.2-1.8-1.2-3c0-1,0.2-1.8,0.6-2.4c0.4-0.6,1-1.1,1.8-1.5C36.1-8,37-8.2,38.1-8.4
		s2.3-0.2,3.6-0.3V-9c0-0.5-0.1-0.9-0.3-1.2c-0.2-0.3-0.4-0.6-0.8-0.8c-0.3-0.2-0.7-0.3-1.1-0.4s-0.9-0.1-1.4-0.1
		c-0.6,0-1.2,0.1-1.9,0.2c-0.7,0.1-1.4,0.4-2.2,0.7H34v-2.2c0.4-0.1,1.1-0.2,1.9-0.4c0.8-0.1,1.6-0.2,2.4-0.2c0.9,0,1.7,0.1,2.4,0.2
		c0.7,0.1,1.3,0.4,1.8,0.8c0.5,0.4,0.9,0.8,1.1,1.4c0.3,0.6,0.4,1.3,0.4,2.1V0z M41.7-3.2v-3.6c-0.7,0-1.5,0.1-2.4,0.2
		c-0.9,0.1-1.6,0.2-2.2,0.3c-0.6,0.2-1.1,0.5-1.5,0.8c-0.4,0.4-0.6,0.9-0.6,1.6c0,0.8,0.2,1.3,0.7,1.7c0.5,0.4,1.1,0.6,2.1,0.6
		c0.8,0,1.5-0.1,2.1-0.4C40.6-2.4,41.2-2.8,41.7-3.2z"/>
	<path id="path19" d="M50.4,0h-2.2v-18.2h2.2V0z"/>
	<path id="path21" d="M66.1-13.1L58.4,4.8h-2.4l2.4-5.5l-5.2-12.5h2.4l4,9.7l4.1-9.7H66.1z"/>
	<path id="path23" d="M75.8-0.1c-0.4,0.1-0.9,0.2-1.4,0.3c-0.5,0.1-0.9,0.1-1.3,0.1c-1.3,0-2.4-0.4-3-1.1s-1-1.9-1-3.5v-7h-1.5v-1.9
		H69v-3.8h2.2v3.8h4.5v1.9h-4.5v6c0,0.7,0,1.2,0,1.6c0,0.4,0.1,0.7,0.3,1.1C71.8-2.3,72-2,72.3-1.9c0.3,0.1,0.8,0.2,1.4,0.2
		c0.4,0,0.7-0.1,1.1-0.2c0.4-0.1,0.7-0.2,0.8-0.3h0.1L75.8-0.1z"/>
	<path id="path25" d="M80.8-15.3h-2.5v-2.3h2.5V-15.3z M80.6,0h-2.2v-13.1h2.2V0z"/>
	<path id="path27" d="M94.7-0.8C94-0.5,93.3-0.2,92.6,0c-0.7,0.2-1.4,0.3-2.1,0.3c-0.9,0-1.8-0.1-2.6-0.4c-0.8-0.3-1.5-0.7-2-1.3
		c-0.6-0.6-1-1.3-1.3-2.1s-0.5-1.9-0.5-3c0-2.1,0.6-3.8,1.8-5c1.2-1.2,2.7-1.8,4.7-1.8c0.8,0,1.5,0.1,2.2,0.3c0.7,0.2,1.4,0.5,2,0.8
		v2.4h-0.1c-0.7-0.5-1.4-0.9-2.1-1.2c-0.7-0.3-1.4-0.4-2.1-0.4c-1.3,0-2.2,0.4-3,1.3c-0.7,0.8-1.1,2.1-1.1,3.7
		c0,1.6,0.4,2.8,1.1,3.6c0.7,0.8,1.7,1.3,3,1.3c0.4,0,0.9-0.1,1.4-0.2s0.9-0.3,1.2-0.5c0.3-0.2,0.6-0.3,0.9-0.5
		c0.3-0.2,0.5-0.3,0.7-0.5h0.1V-0.8z"/>
	<path id="path29" d="M106.9-3.8c0,1.2-0.5,2.2-1.5,2.9c-1,0.8-2.3,1.1-4,1.1c-1,0-1.9-0.1-2.7-0.3c-0.8-0.2-1.5-0.5-2-0.8v-2.5h0.1
		c0.7,0.5,1.5,0.9,2.3,1.3c0.9,0.3,1.7,0.5,2.4,0.5c1,0,1.7-0.2,2.3-0.5s0.8-0.8,0.8-1.5c0-0.5-0.1-0.9-0.4-1.2s-0.9-0.5-1.7-0.7
		c-0.3-0.1-0.7-0.2-1.2-0.2c-0.5-0.1-1-0.2-1.4-0.3c-1.1-0.3-2-0.8-2.4-1.3c-0.5-0.6-0.7-1.3-0.7-2.2c0-0.5,0.1-1,0.3-1.5
		c0.2-0.5,0.6-0.9,1-1.3c0.4-0.4,1-0.7,1.7-0.9c0.7-0.2,1.4-0.3,2.3-0.3c0.8,0,1.6,0.1,2.4,0.3c0.8,0.2,1.5,0.4,2,0.7v2.4h-0.1
		c-0.6-0.4-1.2-0.8-2.1-1c-0.8-0.3-1.6-0.4-2.4-0.4c-0.8,0-1.5,0.2-2,0.5c-0.6,0.3-0.8,0.8-0.8,1.4c0,0.5,0.2,0.9,0.5,1.2
		c0.3,0.3,0.9,0.5,1.6,0.7c0.4,0.1,0.9,0.2,1.4,0.3c0.5,0.1,0.9,0.2,1.3,0.3c1,0.2,1.8,0.6,2.4,1.2C106.6-5.5,106.9-4.7,106.9-3.8z"
		/>
</g>
</svg>
