<?xml version="1.0" encoding="utf-8"?>
<!-- Generator: Adobe Illustrator 25.0.1, SVG Export Plug-In . SVG Version: 6.00 Build 0)  -->
<svg version="1.1"
	 id="svg6" xmlns:cc="http://creativecommons.org/ns#" xmlns:dc="http://purl.org/dc/elements/1.1/" xmlns:inkscape="http://www.inkscape.org/namespaces/inkscape" xmlns:rdf="http://www.w3.org/1999/02/22-rdf-syntax-ns#" xmlns:sodipodi="http://sodipodi.sourceforge.net/DTD/sodipodi-0.dtd" xmlns:svg="http://www.w3.org/2000/svg"
	 xmlns="http://www.w3.org/2000/svg" xmlns:xlink="http://www.w3.org/1999/xlink" x="0px" y="0px" viewBox="0 0 250 130"
	 style="enable-background:new 0 0 250 130;" xml:space="preserve">
<style type="text/css">
	.st0{fill-rule:evenodd;clip-rule:evenodd;fill:#0093D0;}
</style>
<sodipodi:namedview  bordercolor="#666666" borderopacity="1" gridtolerance="10" guidetolerance="10" id="namedview8" inkscape:current-layer="svg6" inkscape:cx="125" inkscape:cy="38" inkscape:document-rotation="0" inkscape:pageopacity="0" inkscape:pageshadow="2" inkscape:window-height="1017" inkscape:window-maximized="1" inkscape:window-width="1920" inkscape:window-x="-8" inkscape:window-y="-8" inkscape:zoom="4.168" objecttolerance="10" pagecolor="#ffffff" showgrid="false">
	</sodipodi:namedview>
<path id="path4" class="st0" d="M55.6,0c0.4,0,0.6,0,0.8,0.2c0.2,0.1,0.4,0.4,0.7,1l0.1,46.8l0.2,0.7c0.1,0.4,0.3,0.9,0.4,1.1
	c0.1,0.2,0.3,0.7,0.5,0.9c0.2,0.3,0.5,0.6,0.6,0.8c0.2,0.2,0.5,0.4,0.7,0.5c0.2,0.1,0.6,0.3,0.9,0.4c0.3,0.1,0.9,0.2,1.3,0.3
	c0.6,0.1,1.1,0.1,1.7,0c0.5,0,1.4-0.2,1.9-0.3c0.5-0.1,1.3-0.3,1.8-0.5c0.6-0.2,0.9-0.2,1.2-0.2c0.2,0,0.5,0.1,0.7,0.2
	c0.2,0.1,0.4,0.3,0.5,0.5c0.1,0.2,0.3,0.9,0.5,1.6c0.2,0.7,0.4,1.6,0.4,1.9c0.1,0.5,0,0.6-0.2,0.9c-0.1,0.2-0.4,0.5-0.6,0.6
	c-0.2,0.2-0.9,0.4-1.6,0.7c-0.7,0.2-1.5,0.5-1.9,0.6c-0.4,0.1-1.2,0.3-1.7,0.3c-0.7,0.1-1.6,0.2-2.7,0.2c-1,0-2,0-2.5-0.1
	c-0.5,0-1.2-0.2-1.7-0.3c-0.4-0.1-1.2-0.3-1.7-0.5c-0.5-0.2-1.2-0.5-1.6-0.6s-0.9-0.5-1.2-0.7c-0.3-0.2-0.8-0.6-1.1-1
	c-0.3-0.3-0.7-0.8-0.9-1.1c-0.2-0.3-0.5-0.8-0.7-1.2c-0.2-0.4-0.4-1-0.5-1.4c-0.1-0.4-0.3-1.1-0.3-1.5c-0.1-0.5-0.2-1.3-0.2-2
	c0-0.8-0.1-9-0.1-23.2c0-18.7,0-22,0.1-22.2c0.1-0.1,0.4-0.5,0.7-0.8s0.9-0.8,1.2-1c0.4-0.3,0.9-0.7,1.3-0.9c0.4-0.2,1-0.5,1.5-0.7
	C54.9,0.1,55.2,0,55.6,0z M86.5,2.7c0.2,0,0.4,0.1,0.5,0.1c0.1,0,0.3,0.2,0.4,0.3c0.1,0.1,0.3,0.4,0.4,0.7c0.1,0.4,0.1,1.5,0.1,14.4
	l4.8,0c4.2,0,4.9,0,5.1,0.2c0.2,0.1,0.4,0.3,0.7,0.7v2.1c0,2,0,2.1-0.2,2.4c-0.1,0.1-0.3,0.3-0.4,0.4c-0.2,0.2-0.4,0.2-5.2,0.2
	c-4.6,0-4.9,0-4.9,0.2c0,0.1-0.1,5.1-0.1,11.2c-0.1,7.7-0.1,11.3,0,11.9c0.1,0.5,0.1,1.1,0.2,1.4c0.1,0.3,0.2,0.8,0.3,1
	c0.1,0.3,0.3,0.7,0.4,0.9c0.2,0.2,0.5,0.6,0.7,0.8s0.7,0.5,1,0.7c0.3,0.1,0.8,0.3,1.2,0.4c0.3,0.1,1,0.1,1.5,0.1
	c0.5,0,1.3-0.1,2-0.2c0.6-0.1,1.6-0.3,2.2-0.5c0.6-0.2,1.3-0.3,1.4-0.3s0.5,0.1,0.7,0.2c0.2,0.1,0.4,0.3,0.6,0.5
	c0.1,0.2,0.3,0.5,0.4,0.7s0.2,0.8,0.3,1.2c0.1,0.5,0.3,1.1,0.3,1.4c0.1,0.4,0.1,0.7,0,0.9c-0.1,0.2-0.2,0.5-0.3,0.6
	c-0.1,0.2-0.5,0.4-0.7,0.5c-0.3,0.2-1,0.4-1.5,0.6c-0.6,0.2-1.5,0.4-2,0.6c-0.5,0.1-1.5,0.3-2.1,0.4c-0.9,0.1-1.6,0.1-3,0.1
	c-1.2,0-2.1-0.1-2.6-0.2c-0.4-0.1-1.1-0.2-1.6-0.4c-0.4-0.1-1.1-0.3-1.5-0.5s-1-0.5-1.4-0.7c-0.4-0.2-0.9-0.7-1.3-1
	c-0.3-0.3-0.8-0.8-1-1.1c-0.2-0.3-0.6-0.8-0.8-1.2c-0.2-0.4-0.5-1-0.6-1.3c-0.1-0.3-0.3-1-0.4-1.4c-0.1-0.4-0.2-1.1-0.3-1.4
	c-0.1-0.4-0.1-1.9-0.1-3.3c0-1.5,0-6.4,0.1-11.8c0.1-5,0.2-9.5,0.2-10.9h-2.6c-2.5,0-2.6,0-2.9-0.2c-0.2-0.1-0.4-0.3-0.6-0.5
	C74,23.5,74,23.2,74,21.6c0-1.2,0-2,0.1-2.3c0.1-0.2,0.2-0.5,0.3-0.6c0.1-0.1,0.3-0.3,0.5-0.4c0.3-0.1,0.6-0.1,5.4-0.1l0.1-1.8
	c0-1,0.1-3.3,0.1-5.1c0-1.8,0.1-3.7,0.1-5.1l0.7-0.7c0.4-0.4,1.1-0.9,1.5-1.2c0.4-0.3,1.1-0.7,1.5-0.9c0.4-0.2,1-0.4,1.3-0.5
	C86,2.7,86.2,2.7,86.5,2.7z M16.5,15.9c1.5,0,2.9,0.1,3.6,0.2c0.6,0.1,1.6,0.2,2.2,0.3s1.3,0.2,1.6,0.3c0.3,0.1,1.2,0.3,1.9,0.5
	c0.8,0.2,1.8,0.5,2.3,0.7c0.5,0.2,1.2,0.4,1.7,0.6c0.4,0.2,1,0.5,1.3,0.7s0.6,0.5,0.8,0.7c0.1,0.2,0.3,0.6,0.4,0.8
	c0.1,0.3,0.1,4.1,0.1,15c0,10,0,14.7,0.1,15c0,0.3,0.2,0.7,0.3,0.8c0.1,0.2,0.3,0.4,0.5,0.5c0.3,0.2,0.5,0.2,1.3,0.2
	c0.7,0,1.3-0.1,2.3-0.3c0.9-0.2,1.5-0.3,1.7-0.2c0.2,0,0.5,0.1,0.7,0.2c0.2,0.1,0.4,0.3,0.6,0.4c0.1,0.2,0.3,0.4,0.4,0.6
	c0.1,0.2,0.3,0.8,0.4,1.5c0.2,0.7,0.3,1.4,0.3,1.8c0,0.4,0,0.7-0.1,0.9c-0.1,0.3-0.3,0.5-0.5,0.8c-0.2,0.2-0.7,0.5-1,0.7
	c-0.3,0.2-1,0.4-1.4,0.5c-0.4,0.1-1.1,0.3-1.6,0.4c-0.5,0.1-1.3,0.2-1.8,0.3c-0.6,0.1-1.2,0.1-2,0c-0.6,0-1.4-0.2-1.8-0.3
	s-1-0.3-1.3-0.4c-0.3-0.1-0.7-0.3-0.9-0.4c-0.2-0.1-0.5-0.4-0.8-0.6c-0.3-0.2-0.7-0.7-1-1c-0.3-0.3-0.6-0.9-0.7-1.2
	c-0.1-0.3-0.3-0.6-0.4-0.5c0,0-0.4,0.3-0.8,0.6c-0.4,0.3-1.1,0.8-1.5,1c-0.4,0.3-1.1,0.7-1.6,0.9c-0.5,0.2-1.2,0.6-1.7,0.7
	c-0.5,0.2-1.3,0.4-1.8,0.6s-1.4,0.3-1.9,0.4c-0.7,0.1-1.6,0.2-2.6,0.2c-0.9,0-1.9,0-2.3-0.1c-0.4-0.1-1.1-0.2-1.6-0.3
	c-0.4-0.1-1.1-0.3-1.6-0.4c-0.4-0.1-1.2-0.5-1.6-0.7C6,58,5.3,57.5,5,57.3c-0.3-0.3-0.9-0.8-1.2-1.1c-0.3-0.4-0.8-1-1.1-1.4
	c-0.3-0.4-0.6-1.1-0.8-1.5c-0.2-0.4-0.4-1.1-0.5-1.4c-0.1-0.4-0.2-1.1-0.3-1.6C1,49.5,1,48.8,1,47.2c0-1.6,0.1-2.2,0.2-2.9
	c0.1-0.5,0.3-1.2,0.4-1.6c0.1-0.4,0.4-1,0.6-1.4s0.5-0.9,0.7-1.2c0.2-0.3,0.7-0.9,1.2-1.4c0.4-0.4,1.1-1,1.5-1.3
	c0.4-0.3,1.1-0.7,1.6-0.9c0.5-0.2,1.3-0.5,1.7-0.7c0.4-0.1,1.2-0.4,1.7-0.5c0.5-0.1,1.2-0.3,1.7-0.3c0.5-0.1,1.2-0.2,1.6-0.2
	c0.4,0,1.9-0.1,3.2-0.2c1.4,0,3.6-0.1,7.6-0.2v-11L24,23.2c-0.4-0.2-1.1-0.5-1.5-0.6s-1.4-0.4-2-0.5c-0.6-0.1-1.5-0.3-2-0.3
	c-0.5-0.1-1.8-0.1-2.9-0.1c-1.4,0-2.3,0-3.1,0.1c-0.6,0.1-1.8,0.3-2.7,0.4c-0.9,0.2-1.9,0.3-2.3,0.3c-0.3,0-0.7,0-0.8-0.1
	c-0.2-0.1-0.4-0.3-0.6-0.4c-0.2-0.2-0.4-0.7-0.6-1.5c-0.2-0.6-0.4-1.3-0.4-1.5c0-0.3,0-0.5,0.1-0.8c0.1-0.2,0.3-0.5,0.5-0.7
	c0.2-0.2,0.6-0.4,0.8-0.5c0.3-0.1,1.1-0.3,1.9-0.5s2-0.4,2.7-0.5c0.7-0.1,1.6-0.2,2.1-0.3S15.2,15.8,16.5,15.9z M14.6,40.3
	c-0.6,0.1-1.4,0.2-1.9,0.4c-0.4,0.1-1.1,0.3-1.4,0.5c-0.3,0.2-0.8,0.5-1.1,0.7c-0.3,0.2-0.6,0.6-0.8,0.9S9.1,43.6,8.9,44
	c-0.1,0.3-0.3,1-0.4,1.5c-0.1,0.7-0.1,1.3-0.1,2.2c0,0.8,0.1,1.6,0.2,2C8.8,50,9,50.6,9.2,51c0.2,0.5,0.5,0.8,0.8,1.2
	c0.3,0.3,0.7,0.6,1.1,0.8c0.3,0.2,0.9,0.4,1.3,0.5c0.4,0.1,1.1,0.2,1.7,0.3c0.7,0.1,1.3,0.1,2,0c0.6,0,1.4-0.2,1.9-0.3
	c0.5-0.1,1.3-0.3,1.8-0.4c0.5-0.1,1.3-0.4,1.8-0.6c0.5-0.2,1.1-0.5,1.4-0.6c0.3-0.2,0.9-0.5,1.3-0.7l0.7-0.5V39.8
	c-1,0-3.1,0.1-5.4,0.2C17.5,40.1,15.2,40.3,14.6,40.3z M125.1,16.4c1,0,2.1,0,2.6,0.1c0.4,0,1.3,0.2,1.8,0.3
	c0.6,0.1,1.4,0.4,1.8,0.5c0.4,0.2,1.1,0.4,1.4,0.6s0.9,0.5,1.2,0.7c0.3,0.2,0.9,0.6,1.3,0.9c0.4,0.3,0.9,0.8,1.2,1.1
	c0.3,0.3,0.7,0.8,0.9,1.1c0.2,0.3,0.6,0.8,0.8,1.1s0.6,1,0.8,1.5c0.2,0.5,0.5,1.2,0.7,1.6c0.1,0.5,0.4,1.1,0.4,1.5s0.2,1.1,0.3,1.6
	c0.1,0.5,0.2,1.4,0.3,2c0.1,0.7,0.1,2.1,0.1,4.3c0,2.8-0.1,3.3-0.2,3.6c-0.1,0.2-0.2,0.4-0.3,0.5s-0.3,0.3-0.4,0.3
	c-0.2,0.1-2.1,0.1-24.1,0.1l0.1,1.9c0,1.1,0.1,2.3,0.2,2.8c0.1,0.5,0.2,1.3,0.3,1.7c0.1,0.4,0.3,1.2,0.5,1.6
	c0.2,0.4,0.5,1.1,0.7,1.5c0.2,0.4,0.7,1,0.9,1.3c0.3,0.3,0.7,0.7,1,0.9c0.3,0.2,0.8,0.5,1.1,0.7c0.3,0.2,1,0.5,1.5,0.6
	c0.5,0.2,1.3,0.4,1.9,0.5c0.9,0.2,1.3,0.2,3.3,0.2c1.9,0,2.5,0,3.4-0.2c0.6-0.1,1.8-0.3,2.6-0.5c0.8-0.2,2.1-0.5,2.8-0.6
	c1.2-0.2,1.4-0.3,1.7-0.2c0.3,0.1,0.5,0.2,0.8,0.5c0.3,0.3,0.4,0.5,0.5,0.9c0.1,0.3,0.3,0.9,0.4,1.5c0.1,0.6,0.3,1.3,0.3,1.6
	c0,0.4,0,0.6-0.1,0.8c-0.1,0.1-0.3,0.4-0.4,0.5s-0.6,0.4-0.9,0.6s-1,0.4-1.5,0.6c-0.5,0.2-1.4,0.5-1.9,0.6c-0.5,0.1-1.4,0.3-1.9,0.4
	c-0.5,0.1-1.4,0.2-2,0.3c-0.6,0.1-1.7,0.2-2.5,0.2c-0.8,0-2.1,0-2.9,0c-0.8,0-1.9-0.1-2.5-0.2c-0.6-0.1-1.5-0.2-2-0.4
	c-0.5-0.1-1.4-0.3-1.9-0.5c-0.5-0.2-1.2-0.5-1.7-0.6c-0.4-0.2-1.1-0.5-1.5-0.8s-1.1-0.7-1.4-1c-0.4-0.3-1-0.8-1.5-1.3
	c-0.4-0.4-1-1.1-1.3-1.5c-0.3-0.4-0.7-1-1-1.4c-0.2-0.4-0.7-1.2-0.9-1.8c-0.3-0.6-0.7-1.6-0.9-2.3s-0.5-1.7-0.6-2.2
	s-0.3-1.5-0.4-2.2c-0.1-0.7-0.2-1.8-0.3-2.5c-0.1-0.8-0.1-2.2-0.1-3.9c0-1.6,0.1-3.1,0.2-3.8c0.1-0.6,0.2-1.7,0.3-2.3
	c0.1-0.7,0.3-1.7,0.5-2.3c0.2-0.6,0.4-1.5,0.6-2s0.6-1.4,0.8-2c0.3-0.6,0.7-1.4,1-1.8s0.7-1,0.9-1.4c0.3-0.4,0.7-0.9,1-1.2
	c0.3-0.3,0.9-0.9,1.3-1.3c0.4-0.4,1.1-0.9,1.5-1.1c0.4-0.3,1.1-0.7,1.7-0.9c0.5-0.3,1.4-0.6,1.9-0.8c0.5-0.2,1.3-0.4,1.8-0.5
	c0.5-0.1,1.2-0.2,1.5-0.3C123.1,16.5,124.1,16.4,125.1,16.4z M122,22.6c-0.3,0.1-0.8,0.3-1.2,0.5s-0.8,0.5-1.2,0.7
	c-0.3,0.3-0.8,0.7-1,0.9c-0.2,0.3-0.5,0.6-0.7,0.9c-0.2,0.2-0.4,0.8-0.7,1.1c-0.2,0.4-0.5,1.1-0.7,1.7c-0.2,0.5-0.4,1.3-0.5,1.8
	c-0.1,0.5-0.2,1.2-0.3,1.6c-0.1,0.4-0.1,1.2-0.2,1.8l-0.1,1.1l17.6,0c0.1-0.4,0.1-1.4,0.1-2.6c0-1.5-0.1-2.4-0.2-3
	c-0.1-0.4-0.3-1.2-0.4-1.7c-0.2-0.5-0.5-1.2-0.7-1.6c-0.3-0.5-0.6-0.9-1.1-1.4c-0.5-0.5-0.9-0.8-1.4-1.1c-0.4-0.2-0.9-0.5-1.3-0.6
	c-0.3-0.1-1-0.3-1.4-0.3c-0.5-0.1-1.2-0.1-2-0.1c-0.7,0-1.5,0.1-1.8,0.1C122.8,22.4,122.3,22.5,122,22.6L122,22.6z M168.2,18
	c0.8,0,1.6,0.1,1.9,0.1c0.3,0,0.6,0.1,0.7,0.2c0.1,0.1,0.3,0.3,0.4,0.5c0.1,0.2,0.2,0.5,0.2,0.6c0,0.2-0.1,1.2-0.3,2.4
	c-0.2,1.4-0.4,2.2-0.5,2.4c-0.1,0.2-0.3,0.4-0.6,0.5c-0.4,0.2-0.4,0.2-1.5,0c-0.8-0.1-1.4-0.1-2-0.1c-0.5,0-1.2,0.1-1.5,0.2
	c-0.4,0.1-0.9,0.3-1.3,0.5s-0.8,0.4-1.1,0.6c-0.2,0.1-0.7,0.5-1.1,0.8c-0.4,0.3-0.9,0.8-1.1,1c-0.3,0.3-0.7,0.7-1.3,1.5v14.3
	c0,10.5,0,14.4-0.1,14.7c-0.1,0.3-0.2,0.5-0.4,0.8c-0.2,0.2-0.4,0.4-0.7,0.5c-0.3,0.1-1,0.1-5.4,0.1l-0.3-0.2
	c-0.2-0.1-0.4-0.4-0.5-0.6c-0.2-0.3-0.2-0.5-0.2-19.4c0-10.5,0-19.2,0-19.3c0-0.2,0.2-0.4,0.4-0.6c0.2-0.2,0.5-0.4,0.6-0.5
	c0.2-0.1,1-0.1,2.6-0.1c2,0,2.4,0,2.7,0.1c0.3,0.1,0.5,0.3,0.6,0.4c0.1,0.2,0.2,0.4,0.3,0.6c0.1,0.2,0.1,0.7,0.1,1.1
	c0,0.4,0,0.8,0,0.9c0,0.1,0.3-0.1,1-0.8c0.5-0.5,1.3-1.1,1.7-1.4s1-0.6,1.4-0.8c0.3-0.2,1-0.4,1.4-0.6c0.5-0.1,1.2-0.3,1.6-0.4
	C166.6,18,167.2,17.9,168.2,18L168.2,18z M222.1,18.6c2.5,0,2.6,0,3,0.2c0.2,0.1,0.5,0.3,0.6,0.5c0.1,0.2,2.1,3.1,4.3,6.5
	c2.2,3.4,4.1,6.2,4.1,6.2c0,0,1.9-2.8,4.1-6.1c2.2-3.4,4.1-6.3,4.3-6.5c0.1-0.2,0.4-0.4,1.1-0.8l2.6,0c2.1,0,2.7,0,2.9,0.1
	c0.2,0.1,0.4,0.3,0.6,0.4c0.2,0.2,0.2,0.3,0.2,0.7c0,0.2-0.1,0.5-0.1,0.7c-0.1,0.1-2.7,4.2-5.8,9c-3.1,4.8-5.7,8.8-5.7,8.8
	c0,0,2.8,4.4,6.2,9.6c3.4,5.2,6.3,9.6,6.3,9.7c0,0.1,0.1,0.4,0.1,0.7c0,0.3-0.1,0.5-0.1,0.7c-0.1,0.1-0.3,0.3-0.4,0.3
	c-0.2,0.1-1,0.1-3,0.1c-1.8,0-2.9,0-3.1-0.1c-0.2-0.1-0.5-0.2-0.6-0.3c-0.2-0.2-0.6-0.6-1.4-1.8c-0.6-0.9-2.6-4-4.5-7
	c-1.9-3-3.5-5.4-3.5-5.4c0,0-2.1,3-4.5,6.8c-2.6,4-4.6,7-4.8,7.2c-0.2,0.2-0.5,0.4-0.8,0.5c-0.4,0.1-0.8,0.1-3.2,0.1
	c-2.1,0-2.8,0-3-0.1c-0.1-0.1-0.4-0.2-0.5-0.4c-0.1-0.2-0.2-0.4-0.2-0.7c0-0.2,0.1-0.5,0.1-0.7c0.1-0.2,2.9-4.5,6.4-9.8
	c3.4-5.2,6.2-9.5,6.2-9.5c0,0-2.5-3.9-5.6-8.7c-3.1-4.8-5.7-8.9-5.8-9.1c-0.1-0.2-0.2-0.5-0.2-0.7c0-0.2,0.1-0.4,0.1-0.5
	c0.1-0.1,0.2-0.3,0.3-0.4c0.1-0.1,0.3-0.2,0.5-0.2C219.5,18.6,220.2,18.6,222.1,18.6L222.1,18.6z M178.5,18.8h3.2
	c3.1,0,3.2,0,3.5,0.2c0.2,0.1,0.4,0.3,0.5,0.5c0.1,0.1,2.4,6.7,5.1,14.6c3.3,9.4,5,14.3,5,14.2c0-0.1,2.3-6.5,5.1-14.2
	c2.8-7.7,5.1-14.2,5.2-14.4c0.1-0.2,0.3-0.5,0.8-0.9l2.9,0c2.2,0,2.9,0,3.1,0.1c0.1,0.1,0.3,0.2,0.4,0.4c0.1,0.2,0.1,0.4,0,0.6
	c0,0.2-3.7,10.3-8.2,22.3c-4.5,12.1-8.4,22.4-8.6,23c-0.2,0.6-0.6,1.4-0.8,1.8s-0.6,1.2-0.9,1.7c-0.3,0.5-0.8,1.2-1,1.6
	c-0.3,0.4-0.9,1.1-1.4,1.6c-0.5,0.5-1.2,1.1-1.6,1.4c-0.4,0.3-1.2,0.8-1.8,1.1c-0.6,0.3-1.4,0.6-1.8,0.8s-1.1,0.3-1.7,0.4
	c-0.6,0.1-1.5,0.3-2.1,0.3c-0.7,0.1-1.8,0.1-3,0.1c-1.2,0-2.1-0.1-2.6-0.2c-0.5-0.1-0.8-0.2-1-0.3c-0.1-0.1-0.3-0.4-0.3-0.7
	c-0.1-0.4-0.1-0.7-0.1-1.3c0-0.5,0.1-1.2,0.2-1.7c0.1-0.4,0.2-1,0.3-1.2c0.1-0.2,0.2-0.5,0.4-0.6c0.1-0.1,0.4-0.3,0.5-0.3
	c0.1,0,0.9,0,1.6,0.1c0.9,0.1,1.8,0.1,2.5,0.1c0.6,0,1.5-0.1,1.9-0.2c0.5-0.1,1.2-0.3,1.6-0.5c0.4-0.2,0.9-0.4,1.1-0.6
	c0.3-0.2,0.8-0.6,1.1-1c0.4-0.4,0.9-1,1.1-1.4c0.2-0.4,0.6-1,0.8-1.4c0.2-0.4,0.9-2.1,1.6-3.7c0.7-1.6,1.2-3,1.2-3.1
	c0-0.1-3.2-8.6-7.1-19c-6-15.8-7.1-19-7.1-19.3c0-0.3,0.1-0.5,0.2-0.6L178.5,18.8z"/>
<g id="text16">
	<path id="path10" d="M49.3,98.3c0,1.4-0.3,2.7-0.9,3.8c-0.6,1.1-1.4,2-2.4,2.7c-0.7,0.4-1.5,0.8-2.4,0.9c-0.9,0.2-2,0.3-3.4,0.3
		h-3.9V90.5h3.9c1.5,0,2.7,0.1,3.6,0.3c0.9,0.2,1.7,0.5,2.3,0.9c1.1,0.7,1.9,1.5,2.5,2.6C49,95.5,49.3,96.8,49.3,98.3z M47.1,98.3
		c0-1.2-0.2-2.2-0.6-3.1c-0.4-0.8-1.1-1.5-1.9-2c-0.6-0.3-1.3-0.6-1.9-0.7c-0.7-0.1-1.5-0.2-2.5-0.2h-1.9v12h1.9
		c1,0,1.9-0.1,2.6-0.2c0.7-0.1,1.4-0.4,2-0.8c0.8-0.5,1.3-1.1,1.7-1.9C46.9,100.5,47.1,99.5,47.1,98.3z"/>
	<path id="path12" d="M61.5,106h-1.9v-1.2c-0.2,0.1-0.4,0.3-0.7,0.5c-0.3,0.2-0.6,0.4-0.9,0.5c-0.3,0.2-0.7,0.3-1.1,0.4
		c-0.4,0.1-0.9,0.2-1.5,0.2c-1,0-1.9-0.3-2.7-1c-0.7-0.7-1.1-1.6-1.1-2.7c0-0.9,0.2-1.6,0.6-2.1c0.4-0.5,0.9-1,1.6-1.3
		c0.7-0.3,1.6-0.5,2.6-0.6c1-0.1,2.1-0.2,3.2-0.3v-0.3c0-0.4-0.1-0.8-0.2-1.1c-0.2-0.3-0.4-0.5-0.7-0.7c-0.3-0.2-0.6-0.3-1-0.3
		s-0.8-0.1-1.2-0.1c-0.5,0-1.1,0.1-1.7,0.2c-0.6,0.1-1.3,0.3-2,0.6h-0.1v-2c0.4-0.1,0.9-0.2,1.7-0.3c0.7-0.1,1.4-0.2,2.1-0.2
		c0.8,0,1.5,0.1,2.1,0.2c0.6,0.1,1.1,0.4,1.6,0.7c0.4,0.3,0.8,0.7,1,1.2s0.3,1.1,0.3,1.9L61.5,106z M59.6,103.2v-3.2
		c-0.6,0-1.3,0.1-2.1,0.2c-0.8,0.1-1.4,0.2-1.9,0.3c-0.6,0.2-1,0.4-1.4,0.8c-0.3,0.3-0.5,0.8-0.5,1.4c0,0.7,0.2,1.2,0.6,1.5
		c0.4,0.3,1,0.5,1.8,0.5c0.7,0,1.3-0.1,1.9-0.4C58.6,103.9,59.1,103.6,59.6,103.2z"/>
	<path id="path14" d="M71.3,105.9c-0.4,0.1-0.8,0.2-1.2,0.2c-0.4,0.1-0.8,0.1-1.2,0.1c-1.2,0-2.1-0.3-2.7-1
		c-0.6-0.6-0.9-1.7-0.9-3.1v-6.2H64v-1.6h1.3v-3.3h2v3.3h4v1.6h-4v5.3c0,0.6,0,1.1,0,1.4c0,0.3,0.1,0.7,0.3,1
		c0.2,0.3,0.4,0.5,0.6,0.6c0.3,0.1,0.7,0.2,1.2,0.2c0.3,0,0.7,0,1-0.1c0.3-0.1,0.6-0.2,0.8-0.2h0.1L71.3,105.9z"/>
	<path id="path16" d="M82.7,106h-1.9v-1.2c-0.2,0.1-0.4,0.3-0.7,0.5c-0.3,0.2-0.6,0.4-0.9,0.5c-0.3,0.2-0.7,0.3-1.1,0.4
		c-0.4,0.1-0.9,0.2-1.5,0.2c-1,0-1.9-0.3-2.7-1c-0.7-0.7-1.1-1.6-1.1-2.7c0-0.9,0.2-1.6,0.6-2.1c0.4-0.5,0.9-1,1.6-1.3
		c0.7-0.3,1.6-0.5,2.6-0.6s2.1-0.2,3.2-0.3v-0.3c0-0.4-0.1-0.8-0.2-1.1c-0.2-0.3-0.4-0.5-0.7-0.7c-0.3-0.2-0.6-0.3-1-0.3
		c-0.4-0.1-0.8-0.1-1.2-0.1c-0.5,0-1.1,0.1-1.7,0.2c-0.6,0.1-1.3,0.3-2,0.6h-0.1v-2c0.4-0.1,0.9-0.2,1.7-0.3
		c0.7-0.1,1.4-0.2,2.1-0.2c0.8,0,1.5,0.1,2.1,0.2c0.6,0.1,1.1,0.4,1.6,0.7c0.4,0.3,0.8,0.7,1,1.2s0.3,1.1,0.3,1.9V106z M80.8,103.2
		v-3.2c-0.6,0-1.3,0.1-2.1,0.2c-0.8,0.1-1.4,0.2-1.9,0.3c-0.6,0.2-1,0.4-1.4,0.8c-0.3,0.3-0.5,0.8-0.5,1.4c0,0.7,0.2,1.2,0.6,1.5
		c0.4,0.3,1,0.5,1.8,0.5c0.7,0,1.3-0.1,1.9-0.4C79.8,103.9,80.3,103.6,80.8,103.2z"/>
	<path id="path18" d="M108,106h-2.1V92.7l-4.3,9.1h-1.2l-4.3-9.1V106h-1.9V90.5H97l4.1,8.6l4-8.6h2.9L108,106z"/>
	<path id="path20" d="M121,106h-1.9v-1.2c-0.2,0.1-0.4,0.3-0.7,0.5c-0.3,0.2-0.6,0.4-0.9,0.5c-0.3,0.2-0.7,0.3-1.1,0.4
		c-0.4,0.1-0.9,0.2-1.5,0.2c-1,0-1.9-0.3-2.7-1c-0.7-0.7-1.1-1.6-1.1-2.7c0-0.9,0.2-1.6,0.6-2.1c0.4-0.5,0.9-1,1.6-1.3
		c0.7-0.3,1.6-0.5,2.6-0.6c1-0.1,2.1-0.2,3.2-0.3v-0.3c0-0.4-0.1-0.8-0.2-1.1c-0.2-0.3-0.4-0.5-0.7-0.7c-0.3-0.2-0.6-0.3-1-0.3
		s-0.8-0.1-1.2-0.1c-0.5,0-1.1,0.1-1.7,0.2c-0.6,0.1-1.3,0.3-2,0.6h-0.1v-2c0.4-0.1,0.9-0.2,1.7-0.3c0.7-0.1,1.4-0.2,2.1-0.2
		c0.8,0,1.5,0.1,2.1,0.2c0.6,0.1,1.1,0.4,1.6,0.7c0.4,0.3,0.8,0.7,1,1.2s0.3,1.1,0.3,1.9L121,106z M119.1,103.2v-3.2
		c-0.6,0-1.3,0.1-2.1,0.2c-0.8,0.1-1.4,0.2-1.9,0.3c-0.6,0.2-1,0.4-1.4,0.8c-0.3,0.3-0.5,0.8-0.5,1.4c0,0.7,0.2,1.2,0.6,1.5
		c0.4,0.3,1,0.5,1.8,0.5c0.7,0,1.3-0.1,1.9-0.4C118.1,103.9,118.6,103.6,119.1,103.2z"/>
	<path id="path22" d="M134.5,106h-2v-6.6c0-0.5,0-1-0.1-1.5c-0.1-0.5-0.2-0.8-0.3-1.1c-0.2-0.3-0.4-0.5-0.7-0.6
		c-0.3-0.1-0.8-0.2-1.3-0.2c-0.5,0-1.1,0.1-1.7,0.4c-0.6,0.3-1.1,0.6-1.7,1v8.7h-2V94.4h2v1.3c0.6-0.5,1.2-0.9,1.9-1.2
		c0.7-0.3,1.3-0.4,2-0.4c1.3,0,2.2,0.4,2.9,1.1s1,1.8,1,3.3L134.5,106z"/>
	<path id="path24" d="M147.3,106h-1.9v-1.2c-0.2,0.1-0.4,0.3-0.7,0.5c-0.3,0.2-0.6,0.4-0.9,0.5c-0.3,0.2-0.7,0.3-1.1,0.4
		c-0.4,0.1-0.9,0.2-1.5,0.2c-1,0-1.9-0.3-2.7-1c-0.7-0.7-1.1-1.6-1.1-2.7c0-0.9,0.2-1.6,0.6-2.1c0.4-0.5,0.9-1,1.6-1.3
		c0.7-0.3,1.6-0.5,2.6-0.6c1-0.1,2.1-0.2,3.2-0.3v-0.3c0-0.4-0.1-0.8-0.2-1.1c-0.2-0.3-0.4-0.5-0.7-0.7c-0.3-0.2-0.6-0.3-1-0.3
		s-0.8-0.1-1.2-0.1c-0.5,0-1.1,0.1-1.7,0.2c-0.6,0.1-1.3,0.3-2,0.6h-0.1v-2c0.4-0.1,0.9-0.2,1.7-0.3c0.7-0.1,1.4-0.2,2.1-0.2
		c0.8,0,1.5,0.1,2.1,0.2c0.6,0.1,1.1,0.4,1.6,0.7c0.4,0.3,0.8,0.7,1,1.2c0.2,0.5,0.3,1.1,0.3,1.9V106z M145.4,103.2v-3.2
		c-0.6,0-1.3,0.1-2.1,0.2c-0.8,0.1-1.4,0.2-1.9,0.3c-0.6,0.2-1,0.4-1.4,0.8c-0.3,0.3-0.5,0.8-0.5,1.4c0,0.7,0.2,1.2,0.6,1.5
		c0.4,0.3,1,0.5,1.8,0.5c0.7,0,1.3-0.1,1.9-0.4C144.4,103.9,144.9,103.6,145.4,103.2z"/>
	<path id="path26" d="M160.5,104.7c0,2-0.4,3.4-1.3,4.3c-0.9,0.9-2.3,1.4-4.1,1.4c-0.6,0-1.2,0-1.8-0.1c-0.6-0.1-1.2-0.2-1.7-0.4v-2
		h0.1c0.3,0.1,0.8,0.3,1.5,0.5c0.7,0.2,1.4,0.3,2.1,0.3c0.7,0,1.2-0.1,1.7-0.2c0.4-0.2,0.8-0.4,1-0.7c0.2-0.3,0.4-0.6,0.5-1
		c0.1-0.4,0.2-0.8,0.2-1.3v-1.1c-0.6,0.5-1.2,0.8-1.7,1.1c-0.5,0.2-1.2,0.3-2.1,0.3c-1.4,0-2.5-0.5-3.3-1.5c-0.8-1-1.2-2.4-1.2-4.3
		c0-1,0.1-1.9,0.4-2.6c0.3-0.7,0.7-1.4,1.2-1.9c0.5-0.5,1-0.9,1.6-1.1c0.6-0.3,1.3-0.4,1.9-0.4c0.7,0,1.2,0.1,1.7,0.2
		c0.5,0.1,0.9,0.3,1.4,0.6l0.1-0.5h1.8V104.7z M158.6,102.8v-6.3c-0.5-0.2-1-0.4-1.5-0.5c-0.4-0.1-0.9-0.2-1.3-0.2
		c-1.1,0-1.9,0.4-2.5,1.1c-0.6,0.7-0.9,1.8-0.9,3.1c0,1.3,0.2,2.3,0.7,3c0.5,0.7,1.2,1,2.3,1c0.6,0,1.1-0.1,1.7-0.3
		C157.6,103.5,158.1,103.2,158.6,102.8z"/>
	<path id="path28" d="M174.1,100.4h-8.6c0,0.7,0.1,1.3,0.3,1.9c0.2,0.5,0.5,1,0.9,1.3c0.4,0.3,0.8,0.6,1.3,0.8
		c0.5,0.2,1,0.2,1.6,0.3c0.8,0,1.6-0.2,2.4-0.5c0.8-0.3,1.4-0.6,1.7-0.9h0.1v2.1c-0.7,0.3-1.3,0.5-2,0.7s-1.4,0.3-2.2,0.3
		c-1.9,0-3.4-0.5-4.5-1.6c-1.1-1-1.6-2.5-1.6-4.5c0-1.9,0.5-3.4,1.6-4.5c1-1.1,2.4-1.7,4.1-1.7c1.6,0,2.8,0.5,3.6,1.4
		c0.9,0.9,1.3,2.2,1.3,3.9L174.1,100.4z M172.2,98.9c0-1-0.3-1.8-0.8-2.4c-0.5-0.6-1.3-0.8-2.3-0.8c-1,0-1.9,0.3-2.5,0.9
		c-0.6,0.6-1,1.4-1.1,2.3L172.2,98.9z"/>
	<path id="path30" d="M194.1,106h-2v-6.6c0-0.5,0-1-0.1-1.4c0-0.5-0.1-0.8-0.3-1.1c-0.2-0.3-0.4-0.5-0.7-0.7
		c-0.3-0.2-0.7-0.2-1.3-0.2c-0.5,0-1.1,0.1-1.6,0.4c-0.5,0.3-1.1,0.6-1.6,1c0,0.2,0,0.3,0.1,0.6c0,0.2,0,0.4,0,0.6v7.4h-2v-6.6
		c0-0.5,0-1-0.1-1.5c0-0.5-0.1-0.8-0.3-1.1c-0.2-0.3-0.4-0.5-0.7-0.7c-0.3-0.2-0.7-0.2-1.3-0.2c-0.5,0-1.1,0.1-1.6,0.4
		c-0.5,0.3-1.1,0.6-1.6,1v8.7h-2V94.4h2v1.3c0.6-0.5,1.2-0.9,1.8-1.2c0.6-0.3,1.3-0.4,1.9-0.4c0.8,0,1.5,0.2,2,0.5
		c0.6,0.3,1,0.8,1.2,1.4c0.8-0.7,1.5-1.1,2.2-1.4c0.7-0.3,1.4-0.4,2.1-0.4c1.3,0,2.2,0.4,2.8,1.2c0.6,0.8,0.9,1.9,0.9,3.2V106z"/>
	<path id="path32" d="M207.6,100.4H199c0,0.7,0.1,1.3,0.3,1.9c0.2,0.5,0.5,1,0.9,1.3c0.4,0.3,0.8,0.6,1.3,0.8c0.5,0.2,1,0.2,1.6,0.3
		c0.8,0,1.6-0.2,2.4-0.5c0.8-0.3,1.4-0.6,1.7-0.9h0.1v2.1c-0.7,0.3-1.3,0.5-2,0.7c-0.7,0.2-1.4,0.3-2.2,0.3c-1.9,0-3.4-0.5-4.5-1.6
		c-1.1-1-1.6-2.5-1.6-4.5c0-1.9,0.5-3.4,1.6-4.5c1-1.1,2.4-1.7,4.1-1.7c1.6,0,2.8,0.5,3.6,1.4c0.9,0.9,1.3,2.2,1.3,3.9V100.4z
		 M205.7,98.9c0-1-0.3-1.8-0.8-2.4c-0.5-0.6-1.3-0.8-2.3-0.8c-1,0-1.9,0.3-2.5,0.9c-0.6,0.6-1,1.4-1.1,2.3L205.7,98.9z"/>
	<path id="path34" d="M220.3,106h-2v-6.6c0-0.5,0-1-0.1-1.5c-0.1-0.5-0.2-0.8-0.3-1.1c-0.2-0.3-0.4-0.5-0.8-0.6
		c-0.3-0.1-0.8-0.2-1.3-0.2c-0.5,0-1.1,0.1-1.7,0.4c-0.6,0.3-1.1,0.6-1.7,1v8.7h-2V94.4h2v1.3c0.6-0.5,1.2-0.9,1.9-1.2
		c0.7-0.3,1.3-0.4,2-0.4c1.3,0,2.2,0.4,2.9,1.1c0.7,0.8,1,1.8,1,3.3L220.3,106z"/>
	<path id="path36" d="M230.1,105.9c-0.4,0.1-0.8,0.2-1.2,0.2c-0.4,0.1-0.8,0.1-1.2,0.1c-1.2,0-2.1-0.3-2.7-1
		c-0.6-0.6-0.9-1.7-0.9-3.1v-6.2h-1.3v-1.6h1.3v-3.3h2v3.3h4v1.6h-4v5.3c0,0.6,0,1.1,0,1.4c0,0.3,0.1,0.7,0.3,1
		c0.2,0.3,0.4,0.5,0.6,0.6c0.3,0.1,0.7,0.2,1.2,0.2c0.3,0,0.7,0,1-0.1c0.3-0.1,0.6-0.2,0.8-0.2h0.1L230.1,105.9z"/>
</g>
</svg>
