<?xml version="1.0" encoding="UTF-8" standalone="no"?>
<svg
   xmlns:dc="http://purl.org/dc/elements/1.1/"
   xmlns:cc="http://creativecommons.org/ns#"
   xmlns:rdf="http://www.w3.org/1999/02/22-rdf-syntax-ns#"
   xmlns:svg="http://www.w3.org/2000/svg"
   xmlns="http://www.w3.org/2000/svg"
   xmlns:sodipodi="http://sodipodi.sourceforge.net/DTD/sodipodi-0.dtd"
   xmlns:inkscape="http://www.inkscape.org/namespaces/inkscape"
   id="b0a3f584-7121-47a7-bbce-42a37658ecd5"
   width="18"
   height="18"
   viewBox="0 0 18 18"
   version="1.1"
   sodipodi:docname="azure-data-share.svg"
   inkscape:version="1.0.1 (3bc2e813f5, 2020-09-07)">
  <metadata
     id="metadata46">
    <rdf:RDF>
      <cc:Work
         rdf:about="">
        <dc:format>image/svg+xml</dc:format>
        <dc:type
           rdf:resource="http://purl.org/dc/dcmitype/StillImage" />
      </cc:Work>
    </rdf:RDF>
  </metadata>
  <sodipodi:namedview
     pagecolor="#ffffff"
     bordercolor="#666666"
     borderopacity="1"
     objecttolerance="10"
     gridtolerance="10"
     guidetolerance="10"
     inkscape:pageopacity="0"
     inkscape:pageshadow="2"
     inkscape:window-width="1920"
     inkscape:window-height="1017"
     id="namedview44"
     showgrid="false"
     inkscape:zoom="47.222222"
     inkscape:cx="9"
     inkscape:cy="11.541176"
     inkscape:window-x="-8"
     inkscape:window-y="-8"
     inkscape:window-maximized="1"
     inkscape:current-layer="b0a3f584-7121-47a7-bbce-42a37658ecd5" />
  <defs
     id="defs17">
    <linearGradient
       id="b388ec63-3e86-45d0-b039-f7d6e0e76592"
       x1="0.5"
       y1="9.99"
       x2="11.43"
       y2="9.99"
       gradientUnits="userSpaceOnUse">
      <stop
         offset="0"
         stop-color="#005ba1"
         id="stop2" />
      <stop
         offset="0.07"
         stop-color="#0060a9"
         id="stop4" />
      <stop
         offset="0.36"
         stop-color="#0071c8"
         id="stop6" />
      <stop
         offset="0.52"
         stop-color="#0078d4"
         id="stop8" />
      <stop
         offset="0.64"
         stop-color="#0074cd"
         id="stop10" />
      <stop
         offset="0.82"
         stop-color="#006abb"
         id="stop12" />
      <stop
         offset="1"
         stop-color="#005ba1"
         id="stop14" />
    </linearGradient>
  </defs>
  <title
     id="title19">Icon-storage-98</title>
  <g
     id="g41"
     transform="matrix(0.8031805,0,0,0.8031805,1.728998,-0.60653885)">
    <polygon
       points="13.06,8.97 11.17,8.97 11.17,9.77 13.08,9.77 15.27,14.27 16,13.91 13.78,9.35 16,4.79 15.27,4.43 "
       fill="#949494"
       id="polygon21" />
    <path
       d="m 15.63,6.14 a 1.45,1.45 0 0 1 -0.81,-0.24 1.47,1.47 0 0 1 -0.68,-1 1.53,1.53 0 0 1 1.49,-1.87 1.51,1.51 0 0 1 0.82,0.24 1.54,1.54 0 0 1 0.67,1 1.53,1.53 0 0 1 -1.49,1.86 z"
       fill="#ffffff"
       id="path23" />
    <path
       d="m 15.63,3.42 a 1.2,1.2 0 0 1 0.64,0.19 1.17,1.17 0 0 1 0.52,0.74 1.19,1.19 0 0 1 -0.15,0.9 1.21,1.21 0 0 1 -1,0.55 A 1.18,1.18 0 0 1 15,5.62 1.2,1.2 0 0 1 14.47,4.87 1.2,1.2 0 0 1 15.63,3.42 m 0,-0.68 a 1.87,1.87 0 1 0 1,0.29 1.85,1.85 0 0 0 -1,-0.29 z"
       fill="#32bedd"
       id="path25" />
    <path
       d="m 15.63,15.62 a 1.45,1.45 0 0 1 -0.81,-0.24 1.51,1.51 0 0 1 -0.48,-2.1 1.52,1.52 0 0 1 2.11,-0.48 1.53,1.53 0 0 1 -0.82,2.82 z"
       fill="#ffffff"
       id="path27" />
    <path
       d="m 15.63,12.9 a 1.2,1.2 0 0 1 0.64,0.19 1.17,1.17 0 0 1 0.52,0.74 1.19,1.19 0 0 1 -0.15,0.9 1.21,1.21 0 0 1 -1,0.55 A 1.18,1.18 0 0 1 15,15.1 1.2,1.2 0 0 1 14.47,14.35 1.2,1.2 0 0 1 15.63,12.9 m 0,-0.68 a 1.87,1.87 0 1 0 1,0.29 1.85,1.85 0 0 0 -1,-0.29 z"
       fill="#32bedd"
       id="path29" />
    <g
       id="g39">
      <path
         d="M 6,5.72 C 3,5.72 0.5,4.83 0.5,3.74 v 10.52 c 0,1.09 2.41,2 5.39,2 H 6 c 3,0 5.47,-0.88 5.47,-2 V 3.74 C 11.43,4.83 9,5.72 6,5.72 Z"
         fill="url(#b388ec63-3e86-45d0-b039-f7d6e0e76592)"
         id="path31"
         style="fill:url(#b388ec63-3e86-45d0-b039-f7d6e0e76592)" />
      <path
         d="m 11.43,3.74 c 0,1.09 -2.45,2 -5.47,2 C 2.94,5.74 0.5,4.83 0.5,3.74 0.5,2.65 3,1.76 6,1.76 c 3,0 5.47,0.88 5.47,2"
         fill="#e8e8e8"
         id="path33" />
      <path
         d="M 10.15,3.58 C 10.15,4.27 8.28,4.83 5.96,4.83 3.64,4.83 1.77,4.27 1.77,3.58 1.77,2.89 3.65,2.32 6,2.32 c 2.35,0 4.19,0.56 4.19,1.26"
         fill="#50e6ff"
         id="path35" />
      <path
         d="M 6,3.87 A 10.12,10.12 0 0 0 2.69,4.34 9.67,9.67 0 0 0 6,4.83 9.78,9.78 0 0 0 9.32,4.34 10.14,10.14 0 0 0 6,3.87 Z"
         fill="#198ab3"
         id="path37" />
    </g>
  </g>
  <g
     aria-label="Data Share"
     id="text50"
     style="font-size:13.3333px;line-height:1.25;font-family:sans-serif">
    <path
       d="m 3.4866752,14.51255 q 0,0.264324 -0.1158856,0.479168 -0.1145835,0.214844 -0.3059899,0.333333 -0.1328127,0.08203 -0.2968754,0.11849 Q 2.6051636,15.48 2.3382362,15.48 H 1.8486523 v -1.938805 h 0.4843756 q 0.2838545,0 0.4505214,0.04167 0.167969,0.04036 0.2838545,0.111979 0.1979169,0.123698 0.3085942,0.329428 0.1106772,0.205729 0.1106772,0.488281 z m -0.2695316,-0.0039 q 0,-0.227865 -0.079427,-0.384115 -0.079427,-0.15625 -0.2369795,-0.246094 -0.1145834,-0.0651 -0.2434899,-0.08984 -0.1289064,-0.02604 -0.3085941,-0.02604 H 2.1064651 v 1.496096 h 0.2421878 q 0.1861982,0 0.3242192,-0.02734 0.1393231,-0.02734 0.2552086,-0.101562 0.1445315,-0.09245 0.2161461,-0.24349 0.072917,-0.151042 0.072917,-0.377605 z"
       style="font-size:2.66667px"
       id="path52" />
    <path
       d="M 5.0140209,15.48 H 4.770531 v -0.154949 q -0.032552,0.02214 -0.088542,0.0625 -0.054688,0.03906 -0.106771,0.0625 -0.061198,0.02995 -0.1406251,0.04948 -0.079427,0.02083 -0.1861982,0.02083 -0.1966148,0 -0.3333338,-0.130208 -0.1367189,-0.130209 -0.1367189,-0.332032 0,-0.165365 0.070313,-0.266927 0.071615,-0.102865 0.2031253,-0.161459 0.1328126,-0.05859 0.3190108,-0.07943 0.1861982,-0.02083 0.3997401,-0.03125 V 14.4813 q 0,-0.08333 -0.029948,-0.138021 -0.028646,-0.05469 -0.083333,-0.08594 -0.052083,-0.02995 -0.1250002,-0.04036 -0.072917,-0.01042 -0.1523439,-0.01042 -0.096354,0 -0.214844,0.02604 -0.1184898,0.02474 -0.244792,0.07292 h -0.013021 v -0.248698 q 0.071615,-0.01953 0.2070316,-0.04297 0.1354168,-0.02344 0.2669274,-0.02344 0.153646,0 0.2669274,0.02604 0.1145835,0.02474 0.1979169,0.08594 0.082031,0.0599 0.1250002,0.154948 0.042969,0.09505 0.042969,0.235677 z M 4.770531,15.121926 v -0.404948 q -0.1119793,0.0065 -0.2643233,0.01953 -0.1510418,0.01302 -0.2395836,0.03776 -0.1054689,0.02995 -0.1705731,0.09375 -0.065104,0.0625 -0.065104,0.173177 0,0.125 0.075521,0.188802 0.075521,0.0625 0.2304691,0.0625 0.1289064,0 0.2356774,-0.04948 0.1067709,-0.05078 0.1979169,-0.121094 z"
       style="font-size:2.66667px"
       id="path54" />
    <path
       d="m 6.2405851,15.466979 q -0.069011,0.01823 -0.1510419,0.02995 -0.080729,0.01172 -0.1445314,0.01172 -0.2226566,0 -0.3385421,-0.119791 Q 5.4905841,15.269062 5.4905841,15.004739 V 14.2313 H 5.3252193 v -0.205729 h 0.1653648 v -0.41797 h 0.244792 v 0.41797 h 0.505209 V 14.2313 h -0.505209 v 0.662761 q 0,0.114584 0.00521,0.179688 0.00521,0.0638 0.036458,0.119792 0.028646,0.05208 0.078125,0.07682 0.050781,0.02344 0.153646,0.02344 0.059896,0 0.1250002,-0.01693 0.065104,-0.01823 0.09375,-0.02995 h 0.013021 z"
       style="font-size:2.66667px"
       id="path56" />
    <path
       d="M 7.6663677,15.48 H 7.4228778 v -0.154949 q -0.032552,0.02214 -0.088542,0.0625 -0.054688,0.03906 -0.106771,0.0625 -0.061198,0.02995 -0.1406252,0.04948 -0.079427,0.02083 -0.1861981,0.02083 -0.1966149,0 -0.3333338,-0.130208 -0.1367189,-0.130209 -0.1367189,-0.332032 0,-0.165365 0.070313,-0.266927 0.071615,-0.102865 0.2031252,-0.161459 0.1328127,-0.05859 0.3190108,-0.07943 0.1861982,-0.02083 0.3997401,-0.03125 V 14.4813 q 0,-0.08333 -0.029948,-0.138021 -0.028646,-0.05469 -0.083334,-0.08594 -0.052083,-0.02995 -0.1250001,-0.04036 -0.072917,-0.01042 -0.152344,-0.01042 -0.096354,0 -0.214844,0.02604 -0.1184897,0.02474 -0.244792,0.07292 h -0.013021 v -0.248698 q 0.071615,-0.01953 0.2070315,-0.04297 0.1354168,-0.02344 0.2669274,-0.02344 0.1536461,0 0.2669275,0.02604 0.1145834,0.02474 0.1979169,0.08594 0.082031,0.0599 0.1250001,0.154948 0.042969,0.09505 0.042969,0.235677 z M 7.4228778,15.121926 v -0.404948 q -0.1119793,0.0065 -0.2643232,0.01953 -0.1510419,0.01302 -0.2395837,0.03776 -0.1054688,0.02995 -0.1705731,0.09375 -0.065104,0.0625 -0.065104,0.173177 0,0.125 0.075521,0.188802 0.075521,0.0625 0.230469,0.0625 0.1289065,0 0.2356774,-0.04948 0.106771,-0.05078 0.1979169,-0.121094 z"
       style="font-size:2.66667px"
       id="path58" />
    <path
       d="m 10.503611,14.926613 q 0,0.113282 -0.05338,0.223959 -0.05208,0.110677 -0.147136,0.1875 -0.104167,0.08333 -0.24349,0.130209 -0.138021,0.04687 -0.3333337,0.04687 -0.2096357,0 -0.3776047,-0.03906 -0.1666668,-0.03906 -0.3398441,-0.115885 v -0.322917 h 0.018229 q 0.1471357,0.122396 0.3398442,0.188802 0.1927086,0.06641 0.3619797,0.06641 0.2395836,0 0.3723965,-0.08984 0.134115,-0.08984 0.134115,-0.239583 0,-0.128907 -0.0638,-0.190105 -0.0625,-0.0612 -0.1914061,-0.09505 -0.097656,-0.02604 -0.2122399,-0.04297 -0.1132814,-0.01693 -0.2408857,-0.04297 -0.2578128,-0.05469 -0.382813,-0.186199 -0.1236981,-0.132812 -0.1236981,-0.345052 0,-0.24349 0.2057295,-0.398438 0.2057294,-0.15625 0.522136,-0.15625 0.2044274,0 0.3750003,0.03906 0.170573,0.03906 0.302084,0.09635 v 0.304687 h -0.01823 q -0.110677,-0.09375 -0.291667,-0.154948 -0.179688,-0.0625 -0.3684903,-0.0625 -0.2070316,0 -0.3333338,0.08594 -0.1250002,0.08594 -0.1250002,0.221354 0,0.121094 0.0625,0.190105 0.0625,0.06901 0.2200524,0.105469 0.083333,0.01823 0.2369795,0.04427 0.153646,0.02604 0.2604173,0.05339 0.216146,0.05729 0.325521,0.173177 0.109375,0.115886 0.109375,0.324219 z"
       style="font-size:2.66667px"
       id="path60" />
    <path
       d="m 12.114291,15.48 h -0.244792 v -0.828127 q 0,-0.10026 -0.01172,-0.1875 -0.01172,-0.08854 -0.04297,-0.138021 -0.03255,-0.05469 -0.09375,-0.08073 -0.0612,-0.02734 -0.158854,-0.02734 -0.100261,0 -0.209636,0.04948 -0.109375,0.04948 -0.209636,0.126303 V 15.48 h -0.244792 v -2.026045 h 0.244792 v 0.733074 q 0.114584,-0.09505 0.23698,-0.148438 0.122396,-0.05339 0.251302,-0.05339 0.235677,0 0.359375,0.141927 0.123699,0.141927 0.123699,0.408855 z"
       style="font-size:2.66667px"
       id="path62" />
    <path
       d="m 13.715855,15.48 h -0.24349 v -0.154949 q -0.03255,0.02214 -0.08854,0.0625 -0.05469,0.03906 -0.106771,0.0625 -0.0612,0.02995 -0.140625,0.04948 -0.07943,0.02083 -0.186198,0.02083 -0.196615,0 -0.333334,-0.130208 -0.136719,-0.130209 -0.136719,-0.332032 0,-0.165365 0.07031,-0.266927 0.07161,-0.102865 0.203125,-0.161459 0.132813,-0.05859 0.319011,-0.07943 0.186198,-0.02083 0.39974,-0.03125 V 14.4813 q 0,-0.08333 -0.02995,-0.138021 -0.02865,-0.05469 -0.08333,-0.08594 -0.05208,-0.02995 -0.125001,-0.04036 -0.07292,-0.01042 -0.152344,-0.01042 -0.09635,0 -0.214844,0.02604 -0.118489,0.02474 -0.244792,0.07292 h -0.01302 v -0.248698 q 0.07161,-0.01953 0.207031,-0.04297 0.135417,-0.02344 0.266928,-0.02344 0.153646,0 0.266927,0.02604 0.114583,0.02474 0.197917,0.08594 0.08203,0.0599 0.125,0.154948 0.04297,0.09505 0.04297,0.235677 z m -0.24349,-0.358074 v -0.404948 q -0.111979,0.0065 -0.264323,0.01953 -0.151042,0.01302 -0.239584,0.03776 -0.105469,0.02995 -0.170573,0.09375 -0.0651,0.0625 -0.0651,0.173177 0,0.125 0.07552,0.188802 0.07552,0.0625 0.230469,0.0625 0.128906,0 0.235677,-0.04948 0.106771,-0.05078 0.197917,-0.121094 z"
       style="font-size:2.66667px"
       id="path64" />
    <path
       d="m 15.094763,14.292498 h -0.01302 q -0.05469,-0.01302 -0.106771,-0.01823 -0.05078,-0.0065 -0.121094,-0.0065 -0.113281,0 -0.21875,0.05078 -0.105469,0.04948 -0.203126,0.128906 V 15.48 h -0.244792 v -1.454429 h 0.244792 v 0.214844 q 0.145834,-0.117188 0.256511,-0.165365 0.11198,-0.04948 0.227865,-0.04948 0.0638,0 0.09245,0.0039 0.02865,0.0026 0.08594,0.01172 z"
       style="font-size:2.66667px"
       id="path66" />
    <path
       d="m 16.542681,14.778176 h -1.071616 q 0,0.134114 0.04037,0.234375 0.04036,0.09896 0.110677,0.162761 0.06771,0.0625 0.160157,0.09375 0.09375,0.03125 0.205729,0.03125 0.148438,0 0.298178,-0.05859 0.151041,-0.0599 0.214844,-0.117188 h 0.01302 v 0.266928 q -0.123699,0.05208 -0.252605,0.08724 -0.128906,0.03516 -0.270834,0.03516 -0.361979,0 -0.565105,-0.195313 -0.203125,-0.196615 -0.203125,-0.557292 0,-0.356772 0.194011,-0.566407 0.195313,-0.209636 0.513021,-0.209636 0.294272,0 0.453126,0.171875 0.160156,0.171875 0.160156,0.488282 z M 16.3044,14.590675 q -0.0013,-0.192708 -0.09766,-0.298177 -0.09505,-0.105469 -0.290365,-0.105469 -0.196614,0 -0.313802,0.115886 -0.115886,0.115885 -0.131511,0.28776 z"
       style="font-size:2.66667px"
       id="path68" />
  </g>
</svg>
