<?xml version="1.0" encoding="UTF-8" standalone="no"?>
<svg
   xmlns:dc="http://purl.org/dc/elements/1.1/"
   xmlns:cc="http://creativecommons.org/ns#"
   xmlns:rdf="http://www.w3.org/1999/02/22-rdf-syntax-ns#"
   xmlns:svg="http://www.w3.org/2000/svg"
   xmlns="http://www.w3.org/2000/svg"
   xmlns:sodipodi="http://sodipodi.sourceforge.net/DTD/sodipodi-0.dtd"
   xmlns:inkscape="http://www.inkscape.org/namespaces/inkscape"
   id="bcf59632-8add-4163-98ab-f4b84940e447"
   width="18"
   height="18"
   viewBox="0 0 18 18"
   version="1.1"
   sodipodi:docname="azure-stream-analytics.svg"
   inkscape:version="1.0.1 (3bc2e813f5, 2020-09-07)">
  <metadata
     id="metadata28">
    <rdf:RDF>
      <cc:Work
         rdf:about="">
        <dc:format>image/svg+xml</dc:format>
        <dc:type
           rdf:resource="http://purl.org/dc/dcmitype/StillImage" />
      </cc:Work>
    </rdf:RDF>
  </metadata>
  <sodipodi:namedview
     pagecolor="#ffffff"
     bordercolor="#666666"
     borderopacity="1"
     objecttolerance="10"
     gridtolerance="10"
     guidetolerance="10"
     inkscape:pageopacity="0"
     inkscape:pageshadow="2"
     inkscape:window-width="1920"
     inkscape:window-height="1017"
     id="namedview26"
     showgrid="false"
     inkscape:zoom="47.222222"
     inkscape:cx="9"
     inkscape:cy="10.899281"
     inkscape:window-x="-8"
     inkscape:window-y="-8"
     inkscape:window-maximized="1"
     inkscape:current-layer="bcf59632-8add-4163-98ab-f4b84940e447" />
  <defs
     id="defs11">
    <linearGradient
       id="bf1f93aa-5175-40a2-82a6-8b8653d30d7a"
       x1="11.08"
       y1="31.2"
       x2="11.08"
       y2="15.71"
       gradientTransform="matrix(1,0,0,0.99,0,-14.32)"
       gradientUnits="userSpaceOnUse">
      <stop
         offset="0"
         stop-color="#949494"
         id="stop2" />
      <stop
         offset="0.33"
         stop-color="#9b9b9b"
         id="stop4" />
      <stop
         offset="0.82"
         stop-color="#aeafb0"
         id="stop6" />
      <stop
         offset="1"
         stop-color="#b6b8b9"
         id="stop8" />
    </linearGradient>
  </defs>
  <title
     id="title13">Icon-analytics-147</title>
  <g
     id="g23"
     transform="matrix(0.73702078,0,0,0.73702078,2.2034676,-0.71695055)">
    <path
       d="M 18,9.69 V 7.9 L 17.9,7.81 16.06,7.19 15.59,6 16.5,4.12 16.6,3.91 16,3.3 15.3,2.61 15.06,2.73 13.26,3.64 12.05,3.3 11.27,1.3 H 9.48 L 9.39,1.39 8.77,3.22 7.51,3.69 5.43,2.69 4.15,3.94 4.27,4.18 5.23,6 A 6,6 0 0 1 8.43,5.14 6.26,6.26 0 0 1 12,6.28 3.32,3.32 0 0 1 12.36,6.54 v 0 a 3.25,3.25 0 0 1 0.93,1.35 v 0 A 3,3 0 0 1 13.5,9 a 3.23,3.23 0 0 1 -3.25,3.23 3.27,3.27 0 0 1 -1.87,-0.59 6.31,6.31 0 0 1 -4,1.75 l -0.19,0.39 1.28,1.29 0.26,-0.07 1.8,-1 1.24,0.51 0.79,2.16 h 1.8 L 11.43,16.42 12.07,14.51 13.29,14 15.4,15 16.67,13.74 16.55,13.5 15.62,11.71 16,10.46 Z"
       fill="url(#bf1f93aa-5175-40a2-82a6-8b8653d30d7a)"
       id="path15"
       style="fill:url(#bf1f93aa-5175-40a2-82a6-8b8653d30d7a)" />
    <path
       d="m 4,10.65 v 0 A 3.6,3.6 0 0 1 1.44,9.6 0.46,0.46 0 1 1 2.09,9 2.65,2.65 0 0 0 4,9.73 v 0 A 2.62,2.62 0 0 0 5.88,9 3.55,3.55 0 0 1 8.43,8 3.64,3.64 0 0 1 11,9 0.46,0.46 0 1 1 10.35,9.65 2.69,2.69 0 0 0 8.46,8.87 v 0 A 2.61,2.61 0 0 0 6.58,9.65 3.61,3.61 0 0 1 4,10.65 Z"
       fill="#50e6ff"
       id="path17" />
    <path
       d="m 4,8.82 v 0 A 1.79,1.79 0 0 1 2.74,8.3 0.46,0.46 0 0 1 3.39,7.65 0.84,0.84 0 0 0 4,7.9 v 0 a 1.08,1.08 0 0 0 0.6,-0.25 5.46,5.46 0 0 1 7.67,0 A 0.46,0.46 0 0 1 11.62,8.3 4.55,4.55 0 0 0 5.21,8.3 1.94,1.94 0 0 1 4,8.82 Z"
       fill="#50e6ff"
       id="path19" />
    <path
       d="m 4,12.48 a 5.41,5.41 0 0 1 -3.87,-1.59 0.47,0.47 0 0 1 0,-0.64 0.47,0.47 0 0 1 0.66,0 4.47,4.47 0 0 0 3.21,1.32 4.5,4.5 0 0 0 3.2,-1.33 1.94,1.94 0 0 1 1.21,-0.49 1.83,1.83 0 0 1 1.25,0.52 0.46,0.46 0 0 1 0,0.65 0.47,0.47 0 0 1 -0.66,0 0.83,0.83 0 0 0 -0.59,-0.25 v 0 A 1,1 0 0 0 7.81,10.93 5.41,5.41 0 0 1 4,12.48 Z"
       fill="#32bedd"
       id="path21" />
  </g>
  <g
     aria-label="Stream
Analytics"
     id="text32"
     style="font-size:2.66667px;line-height:1.25;font-family:sans-serif">
    <path
       d="m 5.2161404,13.232496 q 0,0.113281 -0.053385,0.223958 -0.052083,0.110678 -0.1471356,0.187501 -0.1041668,0.08333 -0.2434899,0.130208 -0.138021,0.04687 -0.3333337,0.04687 -0.2096357,0 -0.3776047,-0.03906 -0.1666669,-0.03906 -0.3398442,-0.115886 v -0.322917 h 0.018229 q 0.1471356,0.122396 0.3398442,0.188802 0.1927086,0.06641 0.3619796,0.06641 0.2395837,0 0.3723964,-0.08984 0.1341147,-0.08984 0.1341147,-0.239584 0,-0.128906 -0.063802,-0.190104 -0.0625,-0.0612 -0.1914064,-0.09505 -0.097656,-0.02604 -0.2122399,-0.04297 -0.1132814,-0.01693 -0.2408857,-0.04297 -0.2578129,-0.05469 -0.382813,-0.186198 -0.1236981,-0.132813 -0.1236981,-0.345053 0,-0.24349 0.2057294,-0.398438 0.2057295,-0.15625 0.5221361,-0.15625 0.2044274,0 0.3750005,0.03906 0.1705731,0.03906 0.3020837,0.09635 v 0.304688 h -0.018229 q -0.1106772,-0.09375 -0.291667,-0.154948 -0.1796877,-0.0625 -0.3684901,-0.0625 -0.2070315,0 -0.3333337,0.08594 -0.1250002,0.08594 -0.1250002,0.221355 0,0.121094 0.0625,0.190104 0.0625,0.06901 0.2200524,0.105469 0.083333,0.01823 0.2369794,0.04427 0.1536461,0.02604 0.260417,0.05339 0.2161461,0.05729 0.3255213,0.173178 0.1093751,0.115885 0.1093751,0.324219 z"
       style="font-size:2.66667px;text-align:center;text-anchor:middle"
       id="path36" />
    <path
       d="m 6.3658815,13.772861 q -0.069011,0.01823 -0.1510419,0.02995 -0.080729,0.01172 -0.1445314,0.01172 -0.2226565,0 -0.3385421,-0.119792 Q 5.6158805,13.574944 5.6158805,13.310621 V 12.537182 H 5.4505157 v -0.205729 h 0.1653648 v -0.417969 h 0.244792 v 0.417969 h 0.505209 v 0.205729 h -0.505209 v 0.662762 q 0,0.114583 0.00521,0.179687 0.00521,0.0638 0.036458,0.119792 0.028646,0.05208 0.078125,0.07682 0.050781,0.02344 0.1536461,0.02344 0.059896,0 0.1250001,-0.01693 0.065104,-0.01823 0.09375,-0.02995 h 0.013021 z"
       style="font-size:2.66667px;text-align:center;text-anchor:middle"
       id="path38" />
    <path
       d="m 7.569008,12.59838 h -0.013021 q -0.054687,-0.01302 -0.1067709,-0.01823 -0.050781,-0.0065 -0.1210939,-0.0065 -0.1132814,0 -0.2187503,0.05078 -0.1054689,0.04948 -0.2031253,0.128907 v 1.032553 h -0.244792 v -1.454429 h 0.244792 v 0.214844 q 0.1458336,-0.117188 0.2565108,-0.165365 0.1119793,-0.04948 0.2278649,-0.04948 0.063802,0 0.092448,0.0039 0.028646,0.0026 0.085938,0.01172 z"
       style="font-size:2.66667px;text-align:center;text-anchor:middle"
       id="path40" />
    <path
       d="M 9.0169266,13.084058 H 7.9453107 q 0,0.134115 0.040365,0.234375 0.040365,0.09896 0.1106773,0.162761 0.067708,0.0625 0.1601564,0.09375 0.09375,0.03125 0.2057294,0.03125 0.1484377,0 0.2981775,-0.05859 0.1510419,-0.05989 0.214844,-0.117187 h 0.013021 v 0.266927 q -0.1236981,0.05208 -0.2526045,0.08724 -0.1289064,0.03516 -0.2708337,0.03516 -0.3619796,0 -0.5651049,-0.195313 -0.2031252,-0.196614 -0.2031252,-0.557292 0,-0.356771 0.1940106,-0.566407 0.1953128,-0.209636 0.5130215,-0.209636 0.2942712,0 0.4531256,0.171876 0.1601564,0.171875 0.1601564,0.488282 z m -0.2382815,-0.1875 q -0.0013,-0.192709 -0.097656,-0.298178 -0.095052,-0.105468 -0.2903649,-0.105468 -0.1966149,0 -0.3138025,0.115885 -0.1158856,0.115886 -0.1315106,0.287761 z"
       style="font-size:2.66667px;text-align:center;text-anchor:middle"
       id="path42" />
    <path
       d="m 10.51823,13.785882 h -0.24349 v -0.154948 q -0.03255,0.02214 -0.08854,0.0625 -0.05469,0.03906 -0.106771,0.0625 -0.0612,0.02995 -0.1406255,0.04948 -0.079427,0.02083 -0.1861981,0.02083 -0.1966148,0 -0.3333338,-0.130209 -0.1367189,-0.130208 -0.1367189,-0.332032 0,-0.165364 0.070313,-0.266927 0.071615,-0.102865 0.2031253,-0.161459 0.1328126,-0.05859 0.3190108,-0.07943 0.1861986,-0.02083 0.3997396,-0.03125 v -0.03776 q 0,-0.08333 -0.02995,-0.138021 -0.02865,-0.05469 -0.08333,-0.08594 -0.05208,-0.02995 -0.125,-0.04036 -0.072917,-0.01042 -0.152344,-0.01042 -0.096354,0 -0.2148441,0.02604 -0.1184897,0.02474 -0.2447919,0.07292 h -0.013021 v -0.248698 q 0.071615,-0.01953 0.2070315,-0.04297 0.1354169,-0.02344 0.2669275,-0.02344 0.1536459,0 0.2669269,0.02604 0.114584,0.02474 0.197917,0.08594 0.08203,0.0599 0.125001,0.154948 0.04297,0.09505 0.04297,0.235678 z M 10.27474,13.427809 V 13.02286 q -0.111979,0.0065 -0.264323,0.01953 -0.1510416,0.01302 -0.2395834,0.03776 -0.1054689,0.02995 -0.1705732,0.09375 -0.065104,0.0625 -0.065104,0.173177 0,0.125001 0.075521,0.188803 0.075521,0.0625 0.2304691,0.0625 0.1289064,0 0.2356778,-0.04948 0.106771,-0.05078 0.197916,-0.121094 z"
       style="font-size:2.66667px;text-align:center;text-anchor:middle"
       id="path44" />
    <path
       d="m 13.111984,13.785882 h -0.244792 v -0.828126 q 0,-0.09375 -0.0091,-0.18099 -0.0078,-0.08724 -0.03516,-0.139323 -0.02995,-0.05599 -0.08594,-0.08464 -0.05599,-0.02864 -0.161458,-0.02864 -0.102865,0 -0.20573,0.05208 -0.102865,0.05078 -0.205729,0.130209 0.0039,0.02995 0.0065,0.07031 0.0026,0.03906 0.0026,0.07813 v 0.930991 h -0.244792 v -0.828126 q 0,-0.09635 -0.0091,-0.182292 -0.0078,-0.08724 -0.03516,-0.139323 -0.02995,-0.05599 -0.08594,-0.08333 -0.05599,-0.02864 -0.161459,-0.02864 -0.10026,0 -0.201823,0.04948 -0.10026,0.04948 -0.200521,0.126302 v 1.085939 h -0.244792 v -1.454429 h 0.244792 v 0.161459 q 0.114583,-0.09505 0.227865,-0.148438 0.114583,-0.05339 0.24349,-0.05339 0.148437,0 0.251302,0.0625 0.104167,0.0625 0.154948,0.173178 0.148438,-0.125 0.270834,-0.179688 0.122396,-0.05599 0.261719,-0.05599 0.239584,0 0.352865,0.145834 0.114584,0.144531 0.114584,0.404948 z"
       style="font-size:2.66667px;text-align:center;text-anchor:middle"
       id="path46" />
    <path
       d="M 4.2421808,17.11922 H 3.9674409 L 3.7773365,16.578854 H 2.9387938 L 2.7486893,17.11922 h -0.261719 l 0.70573,-1.938805 H 3.5364508 Z M 3.6979093,16.3575 3.3580651,15.405676 3.0169189,16.3575 Z"
       style="font-size:2.66667px;text-align:center;text-anchor:middle"
       id="path48" />
    <path
       d="m 5.7330682,17.11922 h -0.244792 v -0.828126 q 0,-0.100261 -0.011719,-0.187501 -0.011719,-0.08854 -0.042969,-0.138021 -0.032552,-0.05469 -0.09375,-0.08073 -0.061198,-0.02734 -0.1588544,-0.02734 -0.1002605,0 -0.2096356,0.04948 -0.1093752,0.04948 -0.2096357,0.126303 v 1.085939 h -0.244792 v -1.454429 h 0.244792 v 0.161458 q 0.1145834,-0.09505 0.2369794,-0.148437 0.122396,-0.05339 0.2513024,-0.05339 0.2356774,0 0.3593755,0.141927 0.1236981,0.141928 0.1236981,0.408855 z"
       style="font-size:2.66667px;text-align:center;text-anchor:middle"
       id="path50" />
    <path
       d="M 7.3346328,17.11922 H 7.0911429 v -0.154949 q -0.032552,0.02214 -0.088542,0.0625 -0.054688,0.03906 -0.106771,0.0625 -0.061198,0.02995 -0.1406252,0.04948 -0.079427,0.02083 -0.1861981,0.02083 -0.1966149,0 -0.3333338,-0.130208 -0.1367189,-0.130209 -0.1367189,-0.332032 0,-0.165365 0.070313,-0.266927 0.071615,-0.102865 0.2031252,-0.161459 0.1328127,-0.05859 0.3190108,-0.07943 0.1861982,-0.02083 0.3997401,-0.03125 v -0.03776 q 0,-0.08333 -0.029948,-0.138021 -0.028646,-0.05469 -0.083333,-0.08594 -0.052083,-0.02995 -0.1250001,-0.04036 -0.072917,-0.01042 -0.152344,-0.01042 -0.096354,0 -0.214844,0.02604 -0.1184897,0.02474 -0.244792,0.07292 h -0.013021 v -0.248698 q 0.071615,-0.01953 0.2070315,-0.04297 0.1354168,-0.02344 0.2669274,-0.02344 0.1536461,0 0.2669274,0.02604 0.1145835,0.02474 0.197917,0.08594 0.082031,0.0599 0.1250001,0.154948 0.042969,0.09505 0.042969,0.235677 z M 7.0911429,16.761146 v -0.404948 q -0.1119793,0.0065 -0.2643232,0.01953 -0.1510419,0.01302 -0.2395837,0.03776 -0.1054688,0.02995 -0.1705731,0.09375 -0.065104,0.0625 -0.065104,0.173177 0,0.125 0.075521,0.188802 0.075521,0.0625 0.230469,0.0625 0.1289064,0 0.2356774,-0.04948 0.106771,-0.05078 0.1979169,-0.121094 z"
       style="font-size:2.66667px;text-align:center;text-anchor:middle"
       id="path52" />
    <path
       d="m 8.0533836,17.11922 h -0.244792 v -2.026045 h 0.244792 z"
       style="font-size:2.66667px;text-align:center;text-anchor:middle"
       id="path54" />
    <path
       d="M 9.7955735,15.664791 8.9466141,17.655679 H 8.684895 L 8.9557287,17.048907 8.3763009,15.664791 h 0.2656253 l 0.4466152,1.078126 0.4505214,-1.078126 z"
       style="font-size:2.66667px;text-align:center;text-anchor:middle"
       id="path56" />
    <path
       d="m 10.871096,17.106199 q -0.06901,0.01823 -0.151042,0.02995 -0.08073,0.01172 -0.144532,0.01172 -0.222656,0 -0.338542,-0.119791 -0.115885,-0.119792 -0.115885,-0.384115 V 15.87052 H 9.9557299 v -0.205729 h 0.1653651 v -0.41797 h 0.244792 v 0.41797 h 0.505209 v 0.205729 h -0.505209 v 0.662761 q 0,0.114584 0.0052,0.179688 0.0052,0.0638 0.03646,0.119792 0.02865,0.05208 0.07813,0.07682 0.05078,0.02344 0.153646,0.02344 0.0599,0 0.125001,-0.01693 0.0651,-0.01823 0.09375,-0.02995 h 0.01302 z"
       style="font-size:2.66667px;text-align:center;text-anchor:middle"
       id="path58" />
    <path
       d="m 11.42969,15.421301 h -0.276042 v -0.253907 h 0.276042 z m -0.01563,1.697919 h -0.244792 v -1.454429 h 0.244792 z"
       style="font-size:2.66667px;text-align:center;text-anchor:middle"
       id="path60" />
    <path
       d="m 12.973963,17.028074 q -0.122396,0.05859 -0.233073,0.09115 -0.109375,0.03255 -0.233073,0.03255 -0.157553,0 -0.289063,-0.04557 -0.131511,-0.04687 -0.225261,-0.140625 -0.09505,-0.09375 -0.147135,-0.23698 -0.05208,-0.143229 -0.05208,-0.334636 0,-0.356771 0.195313,-0.559896 0.196615,-0.203126 0.51823,-0.203126 0.125,0 0.244792,0.03516 0.121094,0.03516 0.221354,0.08594 v 0.272136 h -0.01302 q -0.111979,-0.08724 -0.231771,-0.134115 -0.11849,-0.04687 -0.231771,-0.04687 -0.208334,0 -0.329427,0.140625 -0.119792,0.139324 -0.119792,0.410157 0,0.263021 0.117187,0.404949 0.11849,0.140625 0.332032,0.140625 0.07422,0 0.151042,-0.01953 0.07682,-0.01953 0.138021,-0.05078 0.05339,-0.02734 0.10026,-0.05729 0.04688,-0.03125 0.07422,-0.05339 h 0.01302 z"
       style="font-size:2.66667px;text-align:center;text-anchor:middle"
       id="path62" />
    <path
       d="m 14.326829,16.699948 q 0,0.199219 -0.165365,0.326824 -0.164063,0.127604 -0.449219,0.127604 -0.161459,0 -0.296876,-0.03776 -0.134114,-0.03906 -0.22526,-0.08463 v -0.27474 h 0.01302 q 0.115885,0.08724 0.257812,0.139323 0.141928,0.05078 0.272136,0.05078 0.161459,0 0.252605,-0.05208 0.09115,-0.05208 0.09115,-0.164063 0,-0.08594 -0.04948,-0.130208 -0.04948,-0.04427 -0.190104,-0.07552 -0.05208,-0.01172 -0.136719,-0.02734 -0.08333,-0.01563 -0.152344,-0.03385 -0.191406,-0.05078 -0.272136,-0.148438 -0.07943,-0.09896 -0.07943,-0.242188 0,-0.08984 0.03646,-0.169271 0.03776,-0.07943 0.113281,-0.141927 0.07292,-0.0612 0.184896,-0.09635 0.113281,-0.03646 0.252605,-0.03646 0.130208,0 0.263021,0.03255 0.134114,0.03125 0.222656,0.07682 v 0.26172 h -0.01302 q -0.09375,-0.06901 -0.227865,-0.115886 -0.134114,-0.04818 -0.263021,-0.04818 -0.134114,0 -0.226562,0.05208 -0.09245,0.05078 -0.09245,0.152344 0,0.08984 0.05599,0.135417 0.05469,0.04557 0.177084,0.07422 0.06771,0.01563 0.151042,0.03125 0.08463,0.01563 0.140625,0.02865 0.170573,0.03906 0.263021,0.134115 0.09245,0.09635 0.09245,0.255208 z"
       style="font-size:2.66667px;text-align:center;text-anchor:middle"
       id="path64" />
  </g>
</svg>
