<?xml version="1.0" encoding="UTF-8" standalone="no"?>
<!-- Generator: Adobe Illustrator 17.1.0, SVG Export Plug-In . SVG Version: 6.00 Build 0)  -->

<svg
   xmlns:dc="http://purl.org/dc/elements/1.1/"
   xmlns:cc="http://creativecommons.org/ns#"
   xmlns:rdf="http://www.w3.org/1999/02/22-rdf-syntax-ns#"
   xmlns:svg="http://www.w3.org/2000/svg"
   xmlns="http://www.w3.org/2000/svg"
   xmlns:sodipodi="http://sodipodi.sourceforge.net/DTD/sodipodi-0.dtd"
   xmlns:inkscape="http://www.inkscape.org/namespaces/inkscape"
   version="1.1"
   id="Layer_1"
   x="0px"
   y="0px"
   width="700"
   height="400"
   viewBox="0 0 700 400"
   enable-background="new 0 0 50 50"
   xml:space="preserve"
   sodipodi:docname="azure-data-factory-svg-twitter.svg"
   inkscape:version="0.92.4 (5da689c313, 2019-01-14)"><metadata
   id="metadata17"><rdf:RDF><cc:Work
       rdf:about=""><dc:format>image/svg+xml</dc:format><dc:type
         rdf:resource="http://purl.org/dc/dcmitype/StillImage" /><dc:title></dc:title></cc:Work></rdf:RDF></metadata><defs
   id="defs15" /><sodipodi:namedview
   pagecolor="#ffffff"
   bordercolor="#666666"
   borderopacity="1"
   objecttolerance="10"
   gridtolerance="10"
   guidetolerance="10"
   inkscape:pageopacity="0"
   inkscape:pageshadow="2"
   inkscape:window-width="1600"
   inkscape:window-height="837"
   id="namedview13"
   showgrid="false"
   inkscape:zoom="1"
   inkscape:cx="335.23727"
   inkscape:cy="184.99999"
   inkscape:window-x="-8"
   inkscape:window-y="-8"
   inkscape:window-maximized="1"
   inkscape:current-layer="Layer_1" />
<path
   d="m 496.48,220.18637 v 0 -63.04609 l -71.24,62.00401 h -1.56 v -62.00401 l -71.24,62.00401 v 0 V 89.40481 C 352.44,78.46293 328,67.52104 295.76,67.52104 263.52,67.52104 237,77.94188 237,89.40481 V 326.99999 H 497 Z M 295.76,99.82565 c -23.4,0 -42.12,-5.73146 -42.12,-11.98397 0,-6.2525 18.72,-11.98396 42.12,-11.98396 23.4,0 42.12,5.21042 42.12,11.98396 -0.52,6.25251 -19.24,11.98397 -42.12,11.98397 z m 122.72,184.96994 h -28.6 v -28.65732 h 28.6 z m -50.44,0 h -28.6 v -28.65732 h 28.6 z m 72.8,0 v -28.65732 h 28.6 v 28.65732 z"
   id="path2"
   inkscape:connector-curvature="0"
   style="fill:#59b4d9;stroke-width:5.20520782" />
<rect
   x="237"
   y="87.84169"
   width="57.720001"
   height="239.15831"
   id="rect4"
   style="fill:#3999c6;stroke-width:5.20520782" />
<path
   d="m 351.92,87.84168 c 0,11.46293 -26,20.84169 -57.72,20.84169 -31.72,0 -57.2,-9.37876 -57.2,-20.84169 C 237,76.37876 263,67 294.72,67 c 31.72,0 57.2,8.85772 57.2,20.84168"
   id="path6"
   inkscape:connector-curvature="0"
   style="fill:#ffffff;stroke-width:5.20520782" />
<path
   d="m 340.48,86.27856 c 0,7.81563 -20.28,13.54709 -45.76,13.54709 -25.48,0 -45.76,-5.73146 -45.76,-13.54709 0,-7.81563 20.28,-13.5471 45.76,-13.5471 25.48,0 45.76,6.25251 45.76,13.5471"
   id="path8"
   inkscape:connector-curvature="0"
   style="fill:#7fba00;stroke-width:5.20520782" />
<path
   d="m 330.6,94.61523 c 6.24,-2.08417 9.36,-5.21042 9.36,-8.33667 0,-7.81563 -20.28,-13.5471 -45.76,-13.5471 -25.48,0 -45.76,6.25251 -45.76,13.5471 0.52,3.12625 4.16,6.2525 9.88,8.33667 8.32,-3.12625 21.32,-5.21042 36.4,-5.21042 14.56,0 27.56,2.08417 35.88,5.21042"
   id="path10"
   inkscape:connector-curvature="0"
   style="fill:#b8d432;stroke-width:5.20520782" />
</svg>