<?xml version="1.0" encoding="UTF-8" standalone="no"?>
<svg
   xmlns:dc="http://purl.org/dc/elements/1.1/"
   xmlns:cc="http://creativecommons.org/ns#"
   xmlns:rdf="http://www.w3.org/1999/02/22-rdf-syntax-ns#"
   xmlns:svg="http://www.w3.org/2000/svg"
   xmlns="http://www.w3.org/2000/svg"
   xmlns:sodipodi="http://sodipodi.sourceforge.net/DTD/sodipodi-0.dtd"
   xmlns:inkscape="http://www.inkscape.org/namespaces/inkscape"
   role="img"
   viewBox="13 268.5 624 250"
   version="1.1"
   id="svg18"
   sodipodi:docname="azure-databricks-stream.svg"
   width="624"
   height="250"
   inkscape:version="1.0.1 (3bc2e813f5, 2020-09-07)">
  <metadata
     id="metadata24">
    <rdf:RDF>
      <cc:Work
         rdf:about="">
        <dc:format>image/svg+xml</dc:format>
        <dc:type
           rdf:resource="http://purl.org/dc/dcmitype/StillImage" />
        <dc:title>Databricks logo</dc:title>
      </cc:Work>
    </rdf:RDF>
  </metadata>
  <defs
     id="defs22" />
  <sodipodi:namedview
     pagecolor="#ffffff"
     bordercolor="#666666"
     borderopacity="1"
     objecttolerance="10"
     gridtolerance="10"
     guidetolerance="10"
     inkscape:pageopacity="0"
     inkscape:pageshadow="2"
     inkscape:window-width="1920"
     inkscape:window-height="1017"
     id="namedview20"
     showgrid="false"
     inkscape:zoom="1.6698718"
     inkscape:cx="312"
     inkscape:cy="57"
     inkscape:window-x="-8"
     inkscape:window-y="-8"
     inkscape:window-maximized="1"
     inkscape:current-layer="text15"
     inkscape:document-rotation="0" />
  <title
     id="title2">Databricks logo</title>
  <style
     id="style4">svg {enable-background:new 0 0 652 652}</style>
  <style
     id="style6">.st2{fill:#f0562c}</style>
  <path
     fill="#dc2327"
     d="m 265.28605,294.28344 -0.11322,0.11321 v 14.60518 l 15.51092,8.03852 -15.51092,8.0385 v 14.7184 l 41.89082,21.85116 h 4.3023 l 41.89081,-21.85116 v -14.7184 l -15.51092,-8.0385 15.51092,-8.03852 v -14.60518 l -0.11322,-0.11321 -43.92874,-22.53047 z"
     id="path10"
     style="stroke-width:1.13219" />
  <path
     d="m 309.2148,331.98517 -28.53105,-14.94482 -15.51092,8.0385 44.04197,22.98335 44.04196,-22.98335 -15.51092,-8.0385 z"
     class="st2"
     id="path12"
     style="stroke-width:1.13219" />
  <path
     d="M 265.17283,294.39665 309.2148,317.38 353.25676,294.39665 309.2148,271.75297 Z"
     class="st2"
     id="path14"
     style="stroke-width:1.13219" />
  <path
     fill="#444545"
     d="m 178.11382,401.30492 h 0.21183 c 0,0 -0.21183,-2.40083 -0.21183,-2.68328 v -18.99479 h -5.71962 v -4.87228 h 11.65107 v 54.08928 h 5.43718 v 4.87227 h -9.95638 l -0.84735,-5.50778 h -0.28245 c 0,0 -3.67186,6.07268 -12.56905,6.07268 -9.74453,0 -17.08825,-6.56698 -17.08825,-19.06541 0,-12.21598 7.90861,-18.99479 17.15887,-18.99479 9.39147,0.0706 12.21598,5.0841 12.21598,5.0841 m 0,21.88992 v -16.59397 c -1.05919,-1.55348 -4.16615,-5.29595 -11.08619,-5.29595 -5.93145,0 -12.42781,4.37798 -12.42781,13.98131 0,9.60331 5.86085,14.05191 12.49842,14.05191 4.4486,0 8.96781,-2.11838 11.01558,-6.1433 m 41.66145,4.37799 c 0,0 -3.24819,6.70819 -14.05192,6.70819 -7.62616,0 -12.71027,-4.5192 -12.71027,-10.6625 0,-6.84943 6.49636,-10.45067 16.87642,-10.45067 h 9.32087 v -3.10696 c 0,-6.35513 -3.67186,-9.03842 -10.38006,-9.03842 -6.42575,0 -9.67393,3.10696 -9.67393,7.20249 v 0.77674 h -5.43718 v -1.83593 c 0,-5.36656 4.73105,-11.01557 15.25233,-11.01557 9.95639,0 16.17029,4.44859 16.17029,14.05192 v 18.50051 h 4.4486 v 4.87227 h -8.82657 l -0.70613,-6.1433 h -0.28245 z m -0.63552,-10.09761 h -8.9678 c -6.49636,0 -11.36864,1.90653 -11.36864,6.1433 0,3.67185 3.38941,6.00207 8.12046,6.00207 8.54413,0 12.21598,-6.42575 12.21598,-6.42575 z m 22.66666,-30.50466 v 9.88577 h 11.7217 v 4.73105 h -11.7217 v 19.91276 c 0,5.22533 2.33022,7.76739 6.1433,7.76739 4.09553,0 6.63759,-1.20042 6.63759,-1.20042 v 5.01349 c 0,0 -3.03635,1.27104 -7.62617,1.27104 -7.13187,0 -11.15679,-4.09554 -11.15679,-12.49844 v -20.26582 h -5.64902 v -4.73105 h 5.64902 l 1.05918,-9.88577 z m 43.0737,40.60227 c 0,0 -3.24818,6.70819 -14.05191,6.70819 -7.62616,0 -12.71027,-4.5192 -12.71027,-10.6625 0,-6.84943 6.49636,-10.45067 16.87641,-10.45067 h 9.32087 v -3.10696 c 0,-6.35513 -3.67185,-9.03842 -10.38006,-9.03842 -6.42574,0 -9.67393,3.10696 -9.67393,7.20249 v 0.77674 h -5.43717 v -1.83593 c 0,-5.36656 4.73105,-11.01557 15.25233,-11.01557 9.95638,0 16.17029,4.44859 16.17029,14.05192 v 18.50051 h 4.4486 v 4.87227 h -8.9678 l -0.70613,-6.1433 h -0.14123 z m -0.63551,-10.09761 h -8.96781 c -6.49636,0 -11.36863,1.90653 -11.36863,6.1433 0,3.67185 3.38941,6.00207 8.12045,6.00207 8.54413,0 12.21599,-6.42575 12.21599,-6.42575 z m 21.2544,10.73312 -0.91797,5.50778 h -4.5192 v -54.08927 h -5.43717 v -4.87228 h 11.36863 v 23.86707 c 0,0.28245 -0.21184,2.68328 -0.21184,2.68328 h 0.21184 c 0,0 3.31879,-5.0841 12.35721,-5.0841 9.17964,0 17.08826,6.77881 17.08826,18.99479 0,12.49843 -7.34372,19.06541 -17.01765,19.06541 -8.9678,0 -12.63966,-6.07268 -12.63966,-6.07268 z m 0.49429,-21.67808 v 16.59397 c 1.97715,4.02492 6.56697,6.1433 11.08619,6.1433 6.56696,0 12.42781,-4.51921 12.42781,-14.05192 0,-9.67393 -6.42574,-13.9813 -12.35721,-13.9813 -6.77881,0 -10.02699,3.67186 -11.15679,5.29595 m 58.32603,-4.23676 c -0.84735,-0.28245 -2.33022,-0.5649 -4.16615,-0.5649 -9.17963,0 -11.08618,10.94496 -11.08618,10.94496 v 16.2409 h 6.00207 v 4.87227 h -17.44131 v -4.87227 h 5.43717 V 401.7286 h -5.43717 v -4.87227 h 9.95638 l 0.5649,9.39148 h 0.21184 c 0,0 1.83593,-9.95639 11.86292,-9.95639 1.6947,0 3.10695,0.21185 4.02492,0.42368 v 5.5784 z m 16.80581,26.55035 h 5.29595 v 4.87227 H 369.7565 v -4.87227 h 5.43717 V 401.7286 h -5.43717 v -4.87227 h 11.36863 z m -3.24819,-38.69573 c -2.54205,0 -4.58981,-2.04776 -4.58981,-4.73103 0,-2.54206 2.04776,-4.58983 4.58981,-4.58983 2.61267,0 4.73105,2.04777 4.73105,4.58983 0,2.68327 -2.11838,4.73103 -4.73105,4.73103 m 16.24091,25.13811 c 0,9.67393 6.21391,14.05191 13.27517,14.05191 8.61475,0 12.07477,-4.02492 12.07477,-4.02492 l 2.04776,4.30737 c 0,0 -4.09553,4.73105 -14.5462,4.73105 -11.01557,0 -18.78296,-6.77881 -18.78296,-19.06541 0,-12.85151 7.06126,-18.99481 18.35929,-18.99481 11.58047,0 15.74661,6.35515 15.74661,13.20457 v 1.97715 h -5.43717 v -1.20041 c 0,-5.50779 -3.17757,-9.03842 -10.38006,-9.03842 -7.34372,0 -12.35721,3.74247 -12.35721,14.05192 m 41.9439,-3.03635 h 9.17965 l 8.82657,-10.6625 h -4.58982 v -4.73105 h 16.73519 v 4.73105 h -5.71962 l -10.73312,13.06333 11.29803,14.40498 h 5.649 v 4.73104 h -8.9678 l -12.99272,-16.87642 h -8.68536 v 11.93354 h 5.29595 v 4.94288 h -16.8058 v -4.94288 h 5.57839 v -49.217 h -5.57839 v -4.87228 h 11.50985 z m 38.83695,9.53271 v 0.84734 c 0,3.81309 3.17757,6.77882 9.88577,6.77882 6.77881,0 9.81516,-2.18899 9.81516,-5.86085 0,-3.81308 -4.87228,-5.08411 -10.23884,-6.00207 -6.63758,-1.20041 -14.05191,-2.89512 -14.05191,-10.94496 0,-6.35514 6.00207,-10.38005 14.26375,-10.38005 10.94496,0 14.96988,4.5192 14.96988,10.0976 v 2.68328 h -5.50779 v -1.62409 c 0,-3.9543 -2.61266,-6.28452 -9.17964,-6.28452 -4.30737,0 -8.61474,1.76531 -8.61474,5.649 0,4.37799 5.22533,5.15473 10.59189,6.1433 6.99066,1.34165 13.69885,3.46003 13.69885,10.73313 0,5.93145 -4.44859,10.6625 -15.53478,10.6625 -11.36863,0 -15.60538,-5.08411 -15.60538,-10.30944 v -2.33022 h 5.50778 z"
     id="path16"
     style="stroke-width:0.706126" />
  <g
     aria-label="SQL Analytics"
     id="text15"
     style="font-size:42.6667px;line-height:1.25;font-family:sans-serif">
    <g
       aria-label="Structured Streaming"
       id="text28"
       style="font-size:42.6667px;line-height:1.25;font-family:sans-serif">
      <path
         d="m 121.75058,487.80708 q 0,1.8125 -0.85417,3.58334 -0.83333,1.77083 -2.35416,3 -1.66667,1.33333 -3.89584,2.08333 -2.20834,0.75001 -5.33334,0.75001 -3.35417,0 -6.04167,-0.62501 -2.66667,-0.625 -5.437503,-1.85416 v -5.16667 h 0.291667 q 2.354166,1.95833 5.437506,3.02083 3.08333,1.0625 5.79167,1.0625 3.83334,0 5.95834,-1.4375 2.14583,-1.4375 2.14583,-3.83333 0,-2.06251 -1.02083,-3.04167 -1,-0.97917 -3.0625,-1.52084 -1.56251,-0.41666 -3.39584,-0.6875 -1.8125,-0.27083 -3.85417,-0.6875 -4.125,-0.875 -6.125,-2.97917 -1.979172,-2.125 -1.979172,-5.52084 0,-3.89583 3.291672,-6.375 3.29167,-2.5 8.35417,-2.5 3.27084,0 6,0.625 2.72917,0.625 4.83334,1.54167 v 4.875 h -0.29167 q -1.77083,-1.5 -4.66667,-2.47917 -2.875,-1 -5.89583,-1 -3.31251,0 -5.33334,1.375 -2,1.375 -2,3.54167 0,1.9375 1,3.04167 1,1.10417 3.52083,1.6875 1.33334,0.29167 3.79167,0.70834 2.45834,0.41666 4.16667,0.85416 3.45834,0.91667 5.20834,2.77084 1.75,1.85417 1.75,5.1875 z"
         style="font-size:42.6667px"
         id="path34" />
      <path
         d="m 140.14643,496.45292 q -1.10417,0.29167 -2.41667,0.47917 -1.29167,0.1875 -2.3125,0.1875 -3.5625,0 -5.41667,-1.91667 -1.85417,-1.91667 -1.85417,-6.14584 v -12.37501 h -2.64583 v -3.29167 h 2.64583 v -6.6875 h 3.91667 v 6.6875 h 8.08334 v 3.29167 h -8.08334 v 10.60418 q 0,1.83333 0.0833,2.875 0.0833,1.02083 0.58334,1.91667 0.45833,0.83333 1.25,1.22917 0.8125,0.375 2.45833,0.375 0.95834,0 2,-0.27084 1.04167,-0.29166 1.50001,-0.47916 h 0.20833 z"
         style="font-size:42.6667px"
         id="path36" />
      <path
         d="m 159.39644,477.66124 h -0.20833 q -0.875,-0.20833 -1.70833,-0.29167 -0.8125,-0.10416 -1.9375,-0.10416 -1.81251,0 -3.50001,0.8125 -1.6875,0.79166 -3.25,2.0625 v 16.52084 H 144.8756 V 473.3904 h 3.91667 v 3.43751 q 2.33334,-1.875 4.10417,-2.64584 1.79167,-0.79167 3.64584,-0.79167 1.02083,0 1.47916,0.0625 0.45834,0.0417 1.375,0.1875 z"
         style="font-size:42.6667px"
         id="path38" />
      <path
         d="m 182.37563,496.66125 h -3.91667 v -2.58333 q -1.97917,1.5625 -3.79167,2.39583 -1.81251,0.83334 -4.00001,0.83334 -3.66667,0 -5.70833,-2.22917 -2.04167,-2.25 -2.04167,-6.58334 V 473.3904 h 3.91667 v 13.25001 q 0,1.77084 0.16666,3.04167 0.16667,1.25 0.70834,2.14584 0.5625,0.91667 1.45833,1.33333 0.89584,0.41667 2.60417,0.41667 1.52083,0 3.3125,-0.79167 1.8125,-0.79167 3.37501,-2.02083 V 473.3904 h 3.91667 z"
         style="font-size:42.6667px"
         id="path40" />
      <path
         d="m 207.29231,495.20292 q -1.95833,0.9375 -3.72917,1.45833 -1.75,0.52084 -3.72917,0.52084 -2.52083,0 -4.625,-0.72917 -2.10417,-0.75 -3.60417,-2.25 -1.52083,-1.5 -2.35417,-3.79167 -0.83333,-2.29167 -0.83333,-5.35417 0,-5.70834 3.125,-8.95834 3.14584,-3.25 8.29167,-3.25 2.00001,0 3.91667,0.5625 1.93751,0.5625 3.54167,1.375 v 4.35417 h -0.20833 q -1.79167,-1.39584 -3.70834,-2.14584 -1.89583,-0.75 -3.70833,-0.75 -3.33334,0 -5.27084,2.25 -1.91667,2.22917 -1.91667,6.56251 0,4.20834 1.875,6.47917 1.89584,2.25 5.31251,2.25 1.1875,0 2.41667,-0.3125 1.22916,-0.3125 2.20833,-0.8125 0.85417,-0.4375 1.60417,-0.91667 0.75,-0.5 1.1875,-0.85416 h 0.20833 z"
         style="font-size:42.6667px"
         id="path42" />
      <path
         d="m 224.3965,496.45292 q -1.10417,0.29167 -2.41667,0.47917 -1.29167,0.1875 -2.3125,0.1875 -3.56251,0 -5.41667,-1.91667 -1.85417,-1.91667 -1.85417,-6.14584 v -12.37501 h -2.64584 v -3.29167 h 2.64584 v -6.6875 h 3.91667 v 6.6875 h 8.08334 v 3.29167 h -8.08334 v 10.60418 q 0,1.83333 0.0833,2.875 0.0833,1.02083 0.58333,1.91667 0.45834,0.83333 1.25,1.22917 0.81251,0.375 2.45834,0.375 0.95833,0 2,-0.27084 1.04167,-0.29166 1.5,-0.47916 h 0.20834 z"
         style="font-size:42.6667px"
         id="path44" />
      <path
         d="m 248.41734,496.66125 h -3.91667 v -2.58333 q -1.97917,1.5625 -3.79167,2.39583 -1.8125,0.83334 -4,0.83334 -3.66667,0 -5.70834,-2.22917 -2.04167,-2.25 -2.04167,-6.58334 V 473.3904 h 3.91667 v 13.25001 q 0,1.77084 0.16667,3.04167 0.16667,1.25 0.70833,2.14584 0.56251,0.91667 1.45834,1.33333 0.89583,0.41667 2.60417,0.41667 1.52083,0 3.3125,-0.79167 1.8125,-0.79167 3.375,-2.02083 V 473.3904 h 3.91667 z"
         style="font-size:42.6667px"
         id="path46" />
      <path
         d="m 270.64654,477.66124 h -0.20834 q -0.875,-0.20833 -1.70833,-0.29167 -0.8125,-0.10416 -1.9375,-0.10416 -1.8125,0 -3.50001,0.8125 -1.6875,0.79166 -3.25,2.0625 v 16.52084 h -3.91667 V 473.3904 h 3.91667 v 3.43751 q 2.33334,-1.875 4.10417,-2.64584 1.79167,-0.79167 3.64584,-0.79167 1.02083,0 1.47917,0.0625 0.45833,0.0417 1.375,0.1875 z"
         style="font-size:42.6667px"
         id="path48" />
      <path
         d="m 293.81322,485.43208 h -17.14585 q 0,2.14583 0.64583,3.75 0.64584,1.58334 1.77084,2.60417 1.08333,1 2.5625,1.5 1.5,0.5 3.29167,0.5 2.375,0 4.77084,-0.9375 2.41667,-0.95833 3.4375,-1.875 h 0.20833 v 4.27084 q -1.97917,0.83333 -4.04167,1.39583 -2.0625,0.5625 -4.33333,0.5625 -5.79167,0 -9.04168,-3.125 -3.25,-3.14584 -3.25,-8.91667 0,-5.70834 3.10417,-9.06251 3.125,-3.35417 8.20834,-3.35417 4.70834,0 7.25,2.75 2.56251,2.75 2.56251,7.81251 z m -3.81251,-3 q -0.0208,-3.08334 -1.5625,-4.77084 -1.52083,-1.6875 -4.64583,-1.6875 -3.14584,0 -5.02084,1.85417 -1.85417,1.85417 -2.10417,4.60417 z"
         style="font-size:42.6667px"
         id="path50" />
      <path
         d="m 318.62574,496.66125 h -3.91667 v -2.4375 q -1.6875,1.45834 -3.52084,2.27084 -1.83333,0.8125 -3.97917,0.8125 -4.16667,0 -6.625,-3.20834 -2.43751,-3.20833 -2.43751,-8.89584 0,-2.95833 0.83334,-5.27083 0.85417,-2.31251 2.29167,-3.93751 1.41666,-1.58333 3.29167,-2.41667 1.89583,-0.83333 3.91667,-0.83333 1.83333,0 3.25,0.39583 1.41667,0.375 2.97917,1.1875 v -10.08334 h 3.91667 z m -3.91667,-5.72917 v -13.35417 q -1.58334,-0.70834 -2.83334,-0.97917 -1.25,-0.27083 -2.72917,-0.27083 -3.29167,0 -5.125,2.29166 -1.83334,2.29167 -1.83334,6.50001 0,4.14584 1.41667,6.3125 1.41667,2.14584 4.54167,2.14584 1.66667,0 3.375,-0.72917 1.70834,-0.75 3.18751,-1.91667 z"
         style="font-size:42.6667px"
         id="path52" />
      <path
         d="m 364.18827,487.80708 q 0,1.8125 -0.85417,3.58334 -0.83334,1.77083 -2.35417,3 -1.66667,1.33333 -3.89584,2.08333 -2.20833,0.75001 -5.33333,0.75001 -3.35417,0 -6.04168,-0.62501 -2.66666,-0.625 -5.4375,-1.85416 v -5.16667 h 0.29167 q 2.35417,1.95833 5.4375,3.02083 3.08334,1.0625 5.79167,1.0625 3.83334,0 5.95834,-1.4375 2.14584,-1.4375 2.14584,-3.83333 0,-2.06251 -1.02084,-3.04167 -1,-0.97917 -3.0625,-1.52084 -1.5625,-0.41666 -3.39584,-0.6875 -1.8125,-0.27083 -3.85417,-0.6875 -4.125,-0.875 -6.125,-2.97917 -1.97917,-2.125 -1.97917,-5.52084 0,-3.89583 3.29167,-6.375 3.29167,-2.5 8.35417,-2.5 3.27084,0 6.00001,0.625 2.72917,0.625 4.83333,1.54167 v 4.875 h -0.29166 q -1.77084,-1.5 -4.66667,-2.47917 -2.87501,-1 -5.89584,-1 -3.3125,0 -5.33334,1.375 -2,1.375 -2,3.54167 0,1.9375 1,3.04167 1,1.10417 3.52084,1.6875 1.33333,0.29167 3.79167,0.70834 2.45833,0.41666 4.16667,0.85416 3.45833,0.91667 5.20833,2.77084 1.75001,1.85417 1.75001,5.1875 z"
         style="font-size:42.6667px"
         id="path54" />
      <path
         d="m 382.58411,496.45292 q -1.10417,0.29167 -2.41667,0.47917 -1.29167,0.1875 -2.3125,0.1875 -3.5625,0 -5.41667,-1.91667 -1.85417,-1.91667 -1.85417,-6.14584 v -12.37501 h -2.64583 v -3.29167 h 2.64583 v -6.6875 h 3.91667 v 6.6875 h 8.08334 v 3.29167 h -8.08334 v 10.60418 q 0,1.83333 0.0833,2.875 0.0833,1.02083 0.58334,1.91667 0.45833,0.83333 1.25,1.22917 0.8125,0.375 2.45833,0.375 0.95834,0 2.00001,-0.27084 1.04166,-0.29166 1.5,-0.47916 h 0.20833 z"
         style="font-size:42.6667px"
         id="path56" />
      <path
         d="m 401.83414,477.66124 h -0.20833 q -0.875,-0.20833 -1.70834,-0.29167 -0.8125,-0.10416 -1.9375,-0.10416 -1.8125,0 -3.5,0.8125 -1.6875,0.79166 -3.25,2.0625 v 16.52084 H 387.3133 V 473.3904 h 3.91667 v 3.43751 q 2.33333,-1.875 4.10417,-2.64584 1.79167,-0.79167 3.64583,-0.79167 1.02084,0 1.47917,0.0625 0.45834,0.0417 1.375,0.1875 z"
         style="font-size:42.6667px"
         id="path58" />
      <path
         d="m 425.00082,485.43208 h -17.14584 q 0,2.14583 0.64583,3.75 0.64584,1.58334 1.77084,2.60417 1.08333,1 2.5625,1.5 1.5,0.5 3.29167,0.5 2.375,0 4.77083,-0.9375 2.41667,-0.95833 3.43751,-1.875 h 0.20833 v 4.27084 q -1.97917,0.83333 -4.04167,1.39583 -2.0625,0.5625 -4.33334,0.5625 -5.79167,0 -9.04167,-3.125 -3.25,-3.14584 -3.25,-8.91667 0,-5.70834 3.10417,-9.06251 3.125,-3.35417 8.20834,-3.35417 4.70833,0 7.25,2.75 2.5625,2.75 2.5625,7.81251 z m -3.8125,-3 q -0.0208,-3.08334 -1.5625,-4.77084 -1.52083,-1.6875 -4.64584,-1.6875 -3.14583,0 -5.02083,1.85417 -1.85417,1.85417 -2.10417,4.60417 z"
         style="font-size:42.6667px"
         id="path60" />
      <path
         d="m 449.02168,496.66125 h -3.89584 v -2.47916 q -0.52083,0.35416 -1.41667,1 -0.875,0.625 -1.70833,1 -0.97917,0.47916 -2.25,0.79167 -1.27084,0.33333 -2.97917,0.33333 -3.14584,0 -5.33334,-2.08334 -2.1875,-2.08333 -2.1875,-5.3125 0,-2.64584 1.125,-4.27084 1.14583,-1.64583 3.25,-2.58333 2.125,-0.9375 5.10417,-1.27084 2.97917,-0.33333 6.39584,-0.5 v -0.60416 q 0,-1.33334 -0.47917,-2.20834 -0.45833,-0.875 -1.33333,-1.375 -0.83334,-0.47917 -2,-0.64583 -1.16667,-0.16667 -2.4375,-0.16667 -1.54167,0 -3.43751,0.41667 -1.89583,0.39583 -3.91667,1.16666 h -0.20833 v -3.97917 q 1.14583,-0.3125 3.3125,-0.6875 2.16667,-0.375 4.27084,-0.375 2.45833,0 4.27084,0.41667 1.83333,0.39583 3.16666,1.375 1.31251,0.95834 2.00001,2.47917 0.6875,1.52083 0.6875,3.77084 z m -3.89584,-5.72917 v -6.47917 q -1.79167,0.10417 -4.22917,0.3125 -2.41667,0.20834 -3.83334,0.60417 -1.6875,0.47917 -2.72916,1.5 -1.04167,1 -1.04167,2.77084 0,2 1.20833,3.02083 1.20834,1 3.6875,1 2.06251,0 3.77084,-0.79166 1.70834,-0.81251 3.16667,-1.93751 z"
         style="font-size:42.6667px"
         id="path62" />
      <path
         d="m 490.52169,496.66125 h -3.91667 v -13.25 q 0,-1.50001 -0.14584,-2.89584 -0.125,-1.39583 -0.5625,-2.22917 -0.47916,-0.89583 -1.375,-1.35417 -0.89583,-0.45833 -2.58333,-0.45833 -1.64584,0 -3.29167,0.83333 -1.64584,0.8125 -3.29167,2.08334 0.0625,0.47917 0.10417,1.125 0.0417,0.625 0.0417,1.25 v 14.89584 h -3.91667 v -13.25 q 0,-1.54167 -0.14583,-2.91667 -0.125,-1.39584 -0.5625,-2.22917 -0.47917,-0.89584 -1.375,-1.33334 -0.89583,-0.45833 -2.58334,-0.45833 -1.60416,0 -3.22917,0.79167 -1.60416,0.79166 -3.20833,2.02083 v 17.37501 h -3.91667 V 473.3904 H 460.48 v 2.58334 q 1.83333,-1.52083 3.64584,-2.375 1.83333,-0.85417 3.89583,-0.85417 2.375,0 4.02084,1 1.66667,1 2.47917,2.77084 2.375,-2 4.33333,-2.87501 1.95834,-0.89583 4.18751,-0.89583 3.83333,0 5.64583,2.33334 1.83334,2.3125 1.83334,6.47917 z"
         style="font-size:42.6667px"
         id="path64" />
      <path
         d="m 502.2717,469.49457 h -4.41667 v -4.06251 h 4.41667 z m -0.25,27.16668 h -3.91667 V 473.3904 h 3.91667 z"
         style="font-size:42.6667px"
         id="path66" />
      <path
         d="m 529.23005,496.66125 h -3.91667 v -13.25 q 0,-1.60417 -0.1875,-3.00001 -0.1875,-1.41666 -0.6875,-2.20833 -0.52083,-0.875 -1.5,-1.29167 -0.97917,-0.4375 -2.54167,-0.4375 -1.60417,0 -3.35417,0.79167 -1.75,0.79166 -3.35417,2.02083 v 17.37501 H 509.7717 V 473.3904 h 3.91667 v 2.58334 q 1.83334,-1.52083 3.79167,-2.375 1.95834,-0.85417 4.02084,-0.85417 3.77083,0 5.75,2.27084 1.97917,2.27083 1.97917,6.54167 z"
         style="font-size:42.6667px"
         id="path68" />
      <path
         d="m 555.64675,494.01542 q 0,5.91667 -2.6875,8.68751 -2.68751,2.77083 -8.27084,2.77083 -1.85417,0 -3.62501,-0.27083 -1.75,-0.25 -3.45833,-0.72917 v -4 h 0.20833 q 0.95834,0.375 3.04167,0.91667 2.08334,0.5625 4.16667,0.5625 2,0 3.3125,-0.47917 1.3125,-0.47917 2.04167,-1.33334 0.72917,-0.8125 1.04167,-1.95833 0.3125,-1.14583 0.3125,-2.5625 v -2.125 q -1.77084,1.41666 -3.39584,2.125 -1.60417,0.6875 -4.10417,0.6875 -4.16667,0 -6.625,-3 -2.4375,-3.02084 -2.4375,-8.50001 0,-3 0.83333,-5.16667 0.85417,-2.1875 2.3125,-3.77084 1.35417,-1.47917 3.29167,-2.29167 1.9375,-0.83333 3.85417,-0.83333 2.02084,0 3.375,0.41667 1.375,0.39583 2.89584,1.22916 l 0.25,-1 h 3.66667 z m -3.91667,-3.75 v -12.68751 q -1.5625,-0.70834 -2.91667,-1 -1.33333,-0.3125 -2.66667,-0.3125 -3.22917,0 -5.08334,2.16666 -1.85416,2.16667 -1.85416,6.29168 0,3.91667 1.375,5.9375 1.375,2.02084 4.5625,2.02084 1.70833,0 3.41667,-0.64584 1.72917,-0.66667 3.16667,-1.77083 z"
         style="font-size:42.6667px"
         id="path70" />
    </g>
  </g>
</svg>
