<?xml version="1.0" encoding="UTF-8" standalone="no"?>
<svg
   xmlns:dc="http://purl.org/dc/elements/1.1/"
   xmlns:cc="http://creativecommons.org/ns#"
   xmlns:rdf="http://www.w3.org/1999/02/22-rdf-syntax-ns#"
   xmlns:svg="http://www.w3.org/2000/svg"
   xmlns="http://www.w3.org/2000/svg"
   xmlns:sodipodi="http://sodipodi.sourceforge.net/DTD/sodipodi-0.dtd"
   xmlns:inkscape="http://www.inkscape.org/namespaces/inkscape"
   id="a96792b7-ce28-4ca3-9767-4e065ef4820f"
   width="18"
   height="18"
   viewBox="0 0 18 18"
   version="1.1"
   sodipodi:docname="azure-sql.svg"
   inkscape:version="1.0.1 (3bc2e813f5, 2020-09-07)">
  <metadata
     id="metadata41">
    <rdf:RDF>
      <cc:Work
         rdf:about="">
        <dc:format>image/svg+xml</dc:format>
        <dc:type
           rdf:resource="http://purl.org/dc/dcmitype/StillImage" />
      </cc:Work>
    </rdf:RDF>
  </metadata>
  <sodipodi:namedview
     pagecolor="#ffffff"
     bordercolor="#666666"
     borderopacity="1"
     objecttolerance="10"
     gridtolerance="10"
     guidetolerance="10"
     inkscape:pageopacity="0"
     inkscape:pageshadow="2"
     inkscape:window-width="1920"
     inkscape:window-height="1017"
     id="namedview39"
     showgrid="false"
     inkscape:zoom="47.222222"
     inkscape:cx="11.773534"
     inkscape:cy="8.1529412"
     inkscape:window-x="-8"
     inkscape:window-y="-8"
     inkscape:window-maximized="1"
     inkscape:current-layer="a96792b7-ce28-4ca3-9767-4e065ef4820f" />
  <defs
     id="defs24">
    <linearGradient
       id="ef16bf9d-a8b6-4181-b6cd-66fc5203f956"
       x1="2.59"
       y1="10.16"
       x2="15.41"
       y2="10.16"
       gradientUnits="userSpaceOnUse"
       gradientTransform="matrix(0.77535099,0,0,0.77535099,2.0006643,-0.12061669)">
      <stop
         offset="0"
         stop-color="#005ba1"
         id="stop2" />
      <stop
         offset="0.07"
         stop-color="#0060a9"
         id="stop4" />
      <stop
         offset="0.36"
         stop-color="#0071c8"
         id="stop6" />
      <stop
         offset="0.52"
         stop-color="#0078d4"
         id="stop8" />
      <stop
         offset="0.64"
         stop-color="#0074cd"
         id="stop10" />
      <stop
         offset="0.82"
         stop-color="#006abb"
         id="stop12" />
      <stop
         offset="1"
         stop-color="#005ba1"
         id="stop14" />
    </linearGradient>
    <radialGradient
       id="bf3846c3-4d74-4743-ab9a-f334c248bd92"
       cx="9.36"
       cy="10.57"
       r="7.07"
       gradientUnits="userSpaceOnUse"
       gradientTransform="matrix(0.77535099,0,0,0.77535099,2.0006643,-0.12061669)">
      <stop
         offset="0"
         stop-color="#f2f2f2"
         id="stop17" />
      <stop
         offset="0.58"
         stop-color="#eee"
         id="stop19" />
      <stop
         offset="1"
         stop-color="#e6e6e6"
         id="stop21" />
    </radialGradient>
  </defs>
  <title
     id="title26">Icon-databases-130</title>
  <path
     d="m 8.9788235,3.8646875 c -2.7447426,0 -4.97,-0.775351 -4.97,-1.7988144 v 9.5833389 c 0,0.984695 2.1864898,1.783308 4.9002185,1.798814 h 0.069782 c 2.744742,0 4.969999,-0.775351 4.969999,-1.798814 V 2.0658731 c 0,1.0002029 -2.225257,1.7988144 -4.9699995,1.7988144 z"
     fill="url(#ef16bf9d-a8b6-4181-b6cd-66fc5203f956)"
     id="path28"
     style="fill:url(#ef16bf9d-a8b6-4181-b6cd-66fc5203f956);stroke-width:0.775351" />
  <path
     d="m 13.948823,2.0658731 c 0,1.0002029 -2.225258,1.7988144 -4.9699995,1.7988144 -2.7447426,0 -4.97,-0.775351 -4.97,-1.7988144 0,-1.0234633 2.2252574,-1.79881428 4.97,-1.79881428 2.7447415,0 4.9699995,0.77535098 4.9699995,1.79881428"
     fill="#e8e8e8"
     id="path30"
     style="stroke-width:0.775351" />
  <path
     d="m 12.79355,1.9185565 c 0,0.6357877 -1.713526,1.1475195 -3.8147265,1.1475195 -2.1012012,0 -3.814727,-0.5117318 -3.814727,-1.1475195 0,-0.6357879 1.7135258,-1.13976601 3.814727,-1.13976601 2.1012005,0 3.8147265,0.51173161 3.8147265,1.13976601"
     fill="#50e6ff"
     id="path32"
     style="stroke-width:0.775351" />
  <path
     d="M 8.9788235,2.2054364 A 8.9553042,8.9553042 0 0 0 5.9627081,2.6473865 8.8545086,8.8545086 0 0 0 8.9788235,3.066076 8.6451638,8.6451638 0 0 0 11.994939,2.6163724 9.1801561,9.1801561 0 0 0 8.9788235,2.2054364 Z"
     fill="#198ab3"
     id="path34"
     style="stroke-width:0.775351" />
  <path
     d="M 12.002692,8.7183849 V 6.0821914 h -0.697816 v 3.2021997 h 1.907363 V 8.7183849 Z M 6.4666862,7.4235487 A 1.4188923,1.4188923 0 0 1 6.0712572,7.1831898 0.34115445,0.34115445 0 0 1 5.9782151,6.9350776 0.26361934,0.26361934 0 0 1 6.0945177,6.7024722 0.52723869,0.52723869 0 0 1 6.4201652,6.6094301 1.2560686,1.2560686 0 0 1 7.1955162,6.8342818 V 6.16748 A 2.0004057,2.0004057 0 0 0 6.4201652,6.0434239 1.2715757,1.2715757 0 0 0 5.5750326,6.3070432 0.8373791,0.8373791 0 0 0 5.2493851,6.9971056 c 0,0.3954291 0.2481124,0.7055695 0.7753511,0.9381747 A 2.2330109,2.2330109 0 0 1 6.5054538,8.2144067 0.32564743,0.32564743 0 0 1 6.6217564,8.462519 0.29463339,0.29463339 0 0 1 6.4977003,8.7028779 0.62803432,0.62803432 0 0 1 6.1487923,8.7881664 1.2870827,1.2870827 0 0 1 5.3036597,8.462519 V 9.1835955 A 1.6825117,1.6825117 0 0 0 6.1332853,9.3696797 1.4576599,1.4576599 0 0 0 7.0481995,9.1138139 0.8373791,0.8373791 0 0 0 7.3040653,8.4082444 0.81411856,0.81411856 0 0 0 7.1102275,7.8654988 1.8763494,1.8763494 0 0 0 6.4666862,7.4235487 Z M 10.529525,8.6563568 A 1.8143213,1.8143213 0 0 0 10.785391,7.6794144 1.7988143,1.7988143 0 0 0 10.529525,6.8575425 1.4033853,1.4033853 0 0 0 9.9867794,6.2760291 1.5507021,1.5507021 0 0 0 9.2114288,6.0744379 1.6359907,1.6359907 0 0 0 8.3740497,6.2837827 1.4421528,1.4421528 0 0 0 7.8080435,6.8575425 1.9073634,1.9073634 0 0 0 7.6064522,7.7414426 1.7522933,1.7522933 0 0 0 7.7925365,8.5167935 1.3646178,1.3646178 0 0 0 8.3275286,9.0905534 1.5972231,1.5972231 0 0 0 9.1028797,9.3231586 L 9.7696814,10.09851 H 10.707856 L 9.7541744,9.2456235 A 1.3878783,1.3878783 0 0 0 10.529525,8.6563568 Z M 9.7541744,8.462519 A 0.72882995,0.72882995 0 0 1 9.1649077,8.7338919 0.71332294,0.71332294 0 0 1 8.575641,8.4547655 1.1785336,1.1785336 0 0 1 8.3507892,7.6794144 1.1862871,1.1862871 0 0 1 8.575641,6.9040635 0.77535101,0.77535101 0 0 1 9.1804147,6.6171836 0.67455538,0.67455538 0 0 1 9.7619284,6.9040635 1.2560686,1.2560686 0 0 1 9.9712724,7.6794144 1.1320125,1.1320125 0 0 1 9.7541744,8.462519 Z"
     fill="url(#bf3846c3-4d74-4743-ab9a-f334c248bd92)"
     id="path36"
     style="fill:url(#bf3846c3-4d74-4743-ab9a-f334c248bd92);stroke-width:0.775351" />
  <g
     aria-label="SQL Database"
     id="text45"
     style="font-size:2px;line-height:1.25;font-family:sans-serif">
    <path
       d="m 3.221365,14.853196 q 0,0.08496 -0.040039,0.167969 -0.039063,0.08301 -0.1103516,0.140625 -0.078125,0.0625 -0.1826171,0.09766 -0.1035157,0.03516 -0.25,0.03516 -0.1572266,0 -0.2832032,-0.0293 -0.125,-0.0293 -0.2548828,-0.08692 v -0.242187 h 0.013672 q 0.1103516,0.0918 0.2548828,0.141602 0.1445313,0.0498 0.2714844,0.0498 0.1796875,0 0.2792969,-0.06738 0.1005859,-0.06738 0.1005859,-0.179687 0,-0.09668 -0.047852,-0.142578 -0.046875,-0.0459 -0.1435547,-0.07129 -0.073242,-0.01953 -0.1591796,-0.03223 -0.084961,-0.0127 -0.1806641,-0.03223 -0.1933594,-0.04102 -0.2871094,-0.139649 -0.092773,-0.09961 -0.092773,-0.258789 0,-0.182617 0.1542969,-0.298828 0.1542968,-0.117188 0.3916015,-0.117188 0.1533203,0 0.28125,0.0293 0.1279297,0.0293 0.2265625,0.07227 v 0.228516 h -0.013672 q -0.083008,-0.07031 -0.21875,-0.116211 -0.1347656,-0.04687 -0.2763671,-0.04687 -0.1552735,0 -0.25,0.06445 -0.09375,0.06445 -0.09375,0.166015 0,0.09082 0.046875,0.142579 0.046875,0.05176 0.165039,0.0791 0.0625,0.01367 0.1777344,0.0332 0.1152344,0.01953 0.1953125,0.04004 0.1621094,0.04297 0.2441406,0.129883 0.082031,0.08691 0.082031,0.243164 z"
       style="font-size:2px"
       id="path51" />
    <path
       d="m 4.8287868,15.624681 q -0.058594,0.01465 -0.1162109,0.02051 -0.056641,0.0068 -0.1162109,0.0068 -0.1699219,0 -0.2734375,-0.09375 -0.1025391,-0.09277 -0.1113282,-0.266601 -0.023437,0.0039 -0.045898,0.0049 -0.021484,0.002 -0.041992,0.002 -0.1533203,0 -0.2792969,-0.05078 -0.125,-0.05078 -0.2128906,-0.147461 -0.087891,-0.09668 -0.1357422,-0.237304 -0.046875,-0.140625 -0.046875,-0.321289 0,-0.177735 0.046875,-0.31836 0.046875,-0.141601 0.1367188,-0.242187 0.085937,-0.0957 0.2128906,-0.146485 0.1279297,-0.05078 0.2783203,-0.05078 0.15625,0 0.2802735,0.05176 0.125,0.05078 0.211914,0.145508 0.088867,0.09766 0.1357422,0.239258 0.047852,0.141601 0.047852,0.321289 0,0.266601 -0.109375,0.449218 -0.1083985,0.182618 -0.2919922,0.25586 0.00391,0.111328 0.052734,0.172851 0.048828,0.06152 0.1777343,0.06152 0.040039,0 0.094727,-0.01269 0.055664,-0.01172 0.079102,-0.02149 h 0.026367 z M 4.5983181,14.541673 q 0,-0.283203 -0.1269531,-0.436524 -0.1269532,-0.154297 -0.3466797,-0.154297 -0.2216797,0 -0.3486328,0.154297 -0.1259766,0.153321 -0.1259766,0.436524 0,0.286133 0.1289063,0.438476 0.1289062,0.151367 0.3457031,0.151367 0.2167969,0 0.3447265,-0.151367 0.1289063,-0.152343 0.1289063,-0.438476 z"
       style="font-size:2px"
       id="path53" />
    <path
       d="M 6.0260525,15.268235 H 5.1061306 V 13.814134 H 5.29949 v 1.282226 h 0.7265625 z"
       style="font-size:2px"
       id="path55" />
    <path
       d="m 8.1510525,14.542649 q 0,0.198242 -0.086914,0.359375 -0.085937,0.161133 -0.2294922,0.25 -0.099609,0.06152 -0.2226562,0.08887 -0.1220703,0.02734 -0.3222657,0.02734 H 6.9225368 v -1.454101 h 0.3632813 q 0.2128906,0 0.3378906,0.03125 0.1259766,0.03027 0.2128906,0.08398 0.1484375,0.09277 0.2314454,0.24707 0.083008,0.154297 0.083008,0.366211 z M 7.948904,14.53972 q 0,-0.170899 -0.05957,-0.288086 -0.05957,-0.117188 -0.1777344,-0.184571 -0.085937,-0.04883 -0.1826171,-0.06738 -0.09668,-0.01953 -0.2314454,-0.01953 H 7.1158962 v 1.122071 h 0.1816406 q 0.1396485,0 0.2431641,-0.02051 0.1044922,-0.02051 0.1914063,-0.07617 0.1083984,-0.06934 0.1621093,-0.182617 0.054687,-0.113282 0.054687,-0.283203 z"
       style="font-size:2px"
       id="path57" />
    <path
       d="M 9.2965603,15.268235 H 9.1139431 v -0.116211 q -0.024414,0.0166 -0.066406,0.04687 -0.041016,0.0293 -0.080078,0.04687 -0.045898,0.02246 -0.1054687,0.03711 -0.05957,0.01563 -0.1396485,0.01563 -0.1474609,0 -0.25,-0.09766 -0.102539,-0.09766 -0.102539,-0.249023 0,-0.124023 0.052734,-0.200195 0.053711,-0.07715 0.1523438,-0.121094 0.099609,-0.04394 0.2392578,-0.05957 0.1396484,-0.01563 0.2998047,-0.02344 v -0.02832 q 0,-0.0625 -0.022461,-0.103516 -0.021484,-0.04101 -0.0625,-0.06445 -0.039063,-0.02246 -0.09375,-0.03027 -0.054687,-0.0078 -0.1142579,-0.0078 -0.072266,0 -0.1611328,0.01953 -0.088867,0.01856 -0.1835937,0.05469 h -0.00977 v -0.186524 q 0.053711,-0.01465 0.1552734,-0.03223 0.1015625,-0.01758 0.2001953,-0.01758 0.1152344,0 0.2001953,0.01953 0.085937,0.01855 0.1484375,0.06445 0.061523,0.04492 0.09375,0.116211 0.032227,0.07129 0.032227,0.176758 z M 9.1139431,14.999681 V 14.69597 q -0.083984,0.0049 -0.1982422,0.01465 -0.1132812,0.0098 -0.1796875,0.02832 -0.079102,0.02246 -0.1279297,0.07031 -0.048828,0.04687 -0.048828,0.129883 0,0.09375 0.056641,0.141601 0.056641,0.04687 0.1728516,0.04687 0.09668,0 0.1767578,-0.03711 0.080078,-0.03809 0.1484375,-0.09082 z"
       style="font-size:2px"
       id="path59" />
    <path
       d="m 10.216482,15.25847 q -0.05176,0.01367 -0.113281,0.02246 -0.06055,0.0088 -0.1083985,0.0088 -0.1669922,0 -0.2539063,-0.08984 -0.086914,-0.08984 -0.086914,-0.288086 V 14.331712 H 9.5299587 v -0.154297 h 0.1240235 v -0.313477 h 0.1835937 v 0.313477 h 0.3789061 v 0.154297 H 9.8375759 v 0.49707 q 0,0.08594 0.00391,0.134766 0.00391,0.04785 0.027344,0.08984 0.021484,0.03906 0.058594,0.05762 0.038086,0.01758 0.1152343,0.01758 0.04492,0 0.09375,-0.0127 0.04883,-0.01367 0.07031,-0.02246 h 0.0098 z"
       style="font-size:2px"
       id="path61" />
    <path
       d="m 11.285818,15.268235 h -0.182617 v -0.116211 q -0.02441,0.0166 -0.06641,0.04687 -0.04102,0.0293 -0.08008,0.04687 -0.0459,0.02246 -0.105469,0.03711 -0.05957,0.01563 -0.139649,0.01563 -0.147461,0 -0.25,-0.09766 -0.102539,-0.09766 -0.102539,-0.249023 0,-0.124023 0.05274,-0.200195 0.05371,-0.07715 0.152343,-0.121094 0.09961,-0.04394 0.239258,-0.05957 0.139649,-0.01563 0.299805,-0.02344 v -0.02832 q 0,-0.0625 -0.02246,-0.103516 -0.02148,-0.04101 -0.0625,-0.06445 -0.03906,-0.02246 -0.09375,-0.03027 -0.05469,-0.0078 -0.114258,-0.0078 -0.07226,0 -0.161133,0.01953 -0.08887,0.01856 -0.183593,0.05469 h -0.0098 v -0.186524 q 0.05371,-0.01465 0.155273,-0.03223 0.101563,-0.01758 0.200196,-0.01758 0.115234,0 0.200195,0.01953 0.08594,0.01855 0.148438,0.06445 0.06152,0.04492 0.09375,0.116211 0.03223,0.07129 0.03223,0.176758 z M 11.103201,14.999681 V 14.69597 q -0.08398,0.0049 -0.198242,0.01465 -0.113282,0.0098 -0.179688,0.02832 -0.0791,0.02246 -0.127929,0.07031 -0.04883,0.04687 -0.04883,0.129883 0,0.09375 0.05664,0.141601 0.05664,0.04687 0.172852,0.04687 0.09668,0 0.176757,-0.03711 0.08008,-0.03809 0.148438,-0.09082 z"
       style="font-size:2px"
       id="path63" />
    <path
       d="m 12.599295,14.714524 q 0,0.136719 -0.03906,0.246094 -0.03809,0.109375 -0.103515,0.183594 -0.06934,0.07715 -0.152344,0.116211 -0.08301,0.03809 -0.182617,0.03809 -0.09277,0 -0.16211,-0.02246 -0.06934,-0.02149 -0.136719,-0.05859 l -0.01172,0.05078 h -0.171875 v -1.519531 h 0.183593 v 0.542969 q 0.07715,-0.06348 0.164063,-0.103516 0.08691,-0.04102 0.195312,-0.04102 0.19336,0 0.304688,0.148438 0.112305,0.148437 0.112305,0.418945 z m -0.189453,0.0049 q 0,-0.195312 -0.06445,-0.295898 -0.06445,-0.101563 -0.208007,-0.101563 -0.08008,0 -0.16211,0.03516 -0.08203,0.03418 -0.152344,0.08887 v 0.625 q 0.07813,0.03516 0.13379,0.04883 0.05664,0.01367 0.127929,0.01367 0.152344,0 0.238281,-0.09961 0.08691,-0.100586 0.08691,-0.314453 z"
       style="font-size:2px"
       id="path65" />
    <path
       d="m 13.733084,15.268235 h -0.182617 v -0.116211 q -0.02441,0.0166 -0.06641,0.04687 -0.04101,0.0293 -0.08008,0.04687 -0.0459,0.02246 -0.105469,0.03711 -0.05957,0.01563 -0.139648,0.01563 -0.147461,0 -0.25,-0.09766 -0.102539,-0.09766 -0.102539,-0.249023 0,-0.124023 0.05273,-0.200195 0.05371,-0.07715 0.152344,-0.121094 0.09961,-0.04394 0.239258,-0.05957 0.139648,-0.01563 0.299805,-0.02344 v -0.02832 q 0,-0.0625 -0.02246,-0.103516 -0.02149,-0.04101 -0.0625,-0.06445 -0.03906,-0.02246 -0.09375,-0.03027 -0.05469,-0.0078 -0.114258,-0.0078 -0.07227,0 -0.161133,0.01953 -0.08887,0.01856 -0.183594,0.05469 h -0.0098 v -0.186524 q 0.05371,-0.01465 0.155273,-0.03223 0.101563,-0.01758 0.200195,-0.01758 0.115235,0 0.200196,0.01953 0.08594,0.01855 0.148437,0.06445 0.06152,0.04492 0.09375,0.116211 0.03223,0.07129 0.03223,0.176758 z M 13.550467,14.999681 V 14.69597 q -0.08399,0.0049 -0.198243,0.01465 -0.113281,0.0098 -0.179687,0.02832 -0.0791,0.02246 -0.12793,0.07031 -0.04883,0.04687 -0.04883,0.129883 0,0.09375 0.05664,0.141601 0.05664,0.04687 0.172851,0.04687 0.09668,0 0.176758,-0.03711 0.08008,-0.03809 0.148438,-0.09082 z"
       style="font-size:2px"
       id="path67" />
    <path
       d="m 14.865896,14.953782 q 0,0.149414 -0.124023,0.245117 -0.123047,0.0957 -0.336914,0.0957 -0.121094,0 -0.222657,-0.02832 -0.100585,-0.0293 -0.168945,-0.06348 v -0.206055 h 0.0098 q 0.08691,0.06543 0.193359,0.104492 0.106445,0.03809 0.204102,0.03809 0.121093,0 0.189453,-0.03906 0.06836,-0.03906 0.06836,-0.123046 0,-0.06445 -0.03711,-0.09766 -0.03711,-0.0332 -0.142578,-0.05664 -0.03906,-0.0088 -0.102539,-0.02051 -0.0625,-0.01172 -0.114258,-0.02539 -0.143555,-0.03809 -0.204102,-0.111328 -0.05957,-0.07422 -0.05957,-0.18164 0,-0.06738 0.02734,-0.126954 0.02832,-0.05957 0.08496,-0.106445 0.05469,-0.0459 0.138672,-0.07227 0.08496,-0.02734 0.189453,-0.02734 0.09766,0 0.197265,0.02441 0.100586,0.02344 0.166992,0.05762 v 0.196289 h -0.0098 q -0.07031,-0.05176 -0.170899,-0.08691 -0.100586,-0.03613 -0.197265,-0.03613 -0.100586,0 -0.169922,0.03906 -0.06934,0.03809 -0.06934,0.114257 0,0.06738 0.04199,0.101563 0.04102,0.03418 0.132813,0.05566 0.05078,0.01172 0.113281,0.02344 0.06348,0.01172 0.105469,0.02148 0.127929,0.0293 0.197265,0.100586 0.06934,0.07226 0.06934,0.191406 z"
       style="font-size:2px"
       id="path69" />
    <path
       d="m 16.041677,14.741868 h -0.80371 q 0,0.100586 0.03027,0.175781 0.03027,0.07422 0.08301,0.122071 0.05078,0.04687 0.120117,0.07031 0.07031,0.02344 0.154297,0.02344 0.111328,0 0.223633,-0.04395 0.113281,-0.04492 0.161132,-0.08789 h 0.0098 v 0.200195 q -0.09277,0.03906 -0.189453,0.06543 -0.09668,0.02637 -0.203125,0.02637 -0.271484,0 -0.423828,-0.146485 -0.152344,-0.14746 -0.152344,-0.417968 0,-0.267578 0.145508,-0.424805 0.146484,-0.157227 0.384766,-0.157227 0.220703,0 0.339843,0.128907 0.120117,0.128906 0.120117,0.366211 z m -0.17871,-0.140625 q -9.77e-4,-0.144531 -0.07324,-0.223633 -0.07129,-0.0791 -0.217773,-0.0791 -0.147461,0 -0.235352,0.08691 -0.08691,0.08691 -0.09863,0.21582 z"
       style="font-size:2px"
       id="path71" />
  </g>
</svg>
