<?xml version="1.0" encoding="UTF-8" standalone="no"?>
<svg
   xmlns:dc="http://purl.org/dc/elements/1.1/"
   xmlns:cc="http://creativecommons.org/ns#"
   xmlns:rdf="http://www.w3.org/1999/02/22-rdf-syntax-ns#"
   xmlns:svg="http://www.w3.org/2000/svg"
   xmlns="http://www.w3.org/2000/svg"
   xmlns:sodipodi="http://sodipodi.sourceforge.net/DTD/sodipodi-0.dtd"
   xmlns:inkscape="http://www.inkscape.org/namespaces/inkscape"
   id="b6c98345-0c39-4f6f-b933-5283deff5690"
   width="18"
   height="18"
   viewBox="0 0 18 18"
   version="1.1"
   sodipodi:docname="azure-data-explorer.svg"
   inkscape:version="1.0.1 (3bc2e813f5, 2020-09-07)">
  <metadata
     id="metadata41">
    <rdf:RDF>
      <cc:Work
         rdf:about="">
        <dc:format>image/svg+xml</dc:format>
        <dc:type
           rdf:resource="http://purl.org/dc/dcmitype/StillImage" />
      </cc:Work>
    </rdf:RDF>
  </metadata>
  <sodipodi:namedview
     pagecolor="#ffffff"
     bordercolor="#666666"
     borderopacity="1"
     objecttolerance="10"
     gridtolerance="10"
     guidetolerance="10"
     inkscape:pageopacity="0"
     inkscape:pageshadow="2"
     inkscape:window-width="1920"
     inkscape:window-height="1017"
     id="namedview39"
     showgrid="false"
     inkscape:zoom="47.222222"
     inkscape:cx="9"
     inkscape:cy="11.541176"
     inkscape:window-x="-8"
     inkscape:window-y="-8"
     inkscape:window-maximized="1"
     inkscape:current-layer="b6c98345-0c39-4f6f-b933-5283deff5690"
     inkscape:document-rotation="0" />
  <defs
     id="defs22">
    <linearGradient
       id="ea6f59fb-306a-4655-8ef5-c9678451765c"
       x1="1.3"
       y1="8.6"
       x2="17.5"
       y2="8.6"
       gradientUnits="userSpaceOnUse">
      <stop
         offset="0.1"
         stop-color="#54aef0"
         id="stop2" />
      <stop
         offset="1"
         stop-color="#1988d9"
         id="stop4" />
    </linearGradient>
    <linearGradient
       id="a331b263-1cab-4091-811f-6e285c35c115"
       x1="0.5"
       y1="13.7"
       x2="8.11"
       y2="13.7"
       gradientTransform="rotate(45,4.3041064,13.702819)"
       gradientUnits="userSpaceOnUse">
      <stop
         offset="0"
         stop-color="#b3b2b3"
         id="stop7" />
      <stop
         offset="1"
         stop-color="#979797"
         id="stop9" />
    </linearGradient>
    <linearGradient
       id="ef7d2642-0773-456f-ac58-3a1abd750919"
       x1="0.5"
       y1="10.08"
       x2="5.72"
       y2="10.08"
       gradientTransform="rotate(45,3.1146699,10.080139)"
       gradientUnits="userSpaceOnUse">
      <stop
         offset="0"
         stop-color="#b3b2b3"
         id="stop12" />
      <stop
         offset="1"
         stop-color="#979797"
         id="stop14" />
    </linearGradient>
    <linearGradient
       id="a156353f-4d63-4962-9d1c-839eceb7590b"
       x1="5.28"
       y1="14.89"
       x2="10.49"
       y2="14.89"
       gradientTransform="rotate(45,7.8805992,14.894251)"
       gradientUnits="userSpaceOnUse">
      <stop
         offset="0"
         stop-color="#b3b2b3"
         id="stop17" />
      <stop
         offset="1"
         stop-color="#979797"
         id="stop19" />
    </linearGradient>
  </defs>
  <title
     id="title24">Icon-analytics-145</title>
  <g
     id="g36"
     transform="matrix(0.69407401,0,0,0.69407401,2.7786048,-0.14374929)">
    <path
       d="m 1.47,1.47 15.06,15.06 a 0.57,0.57 0 0 0 1,-0.4 V 1.07 A 0.57,0.57 0 0 0 16.93,0.5 H 1.87 a 0.57,0.57 0 0 0 -0.4,0.97 z"
       fill="url(#ea6f59fb-306a-4655-8ef5-c9678451765c)"
       id="path26"
       style="fill:url(#ea6f59fb-306a-4655-8ef5-c9678451765c)" />
    <path
       id="f582129e-1fd7-440c-a5c4-799b0a032e7c"
       d="m 5.53,5.53 6.94,6.94 5,-5 V 1.07 A 0.57,0.57 0 0 0 16.93,0.5 h -6.37 z"
       fill="#50e6ff" />
    <rect
       id="b55df55b-2ac6-4f92-ba84-9d8becd854da"
       x="-0.38"
       y="12.85"
       width="9.3699999"
       height="1.7"
       rx="0.27000001"
       transform="rotate(-45,4.3071739,13.70591)"
       fill="url(#a331b263-1cab-4091-811f-6e285c35c115)"
       style="fill:url(#a331b263-1cab-4091-811f-6e285c35c115)" />
    <rect
       id="a1d88672-156d-4d85-8ddb-d3d546338b0e"
       x="0.12"
       y="9.2299995"
       width="5.9899998"
       height="1.7"
       rx="0.27000001"
       transform="rotate(-45,3.1065999,10.083204)"
       fill="url(#ef7d2642-0773-456f-ac58-3a1abd750919)"
       style="fill:url(#ef7d2642-0773-456f-ac58-3a1abd750919)" />
    <rect
       id="a50d2abb-ca8f-44bb-a92d-5a79f17e98d0"
       x="4.8899999"
       y="14.04"
       width="5.9899998"
       height="1.7"
       rx="0.27000001"
       transform="rotate(-45,7.8765703,14.887418)"
       fill="url(#a156353f-4d63-4962-9d1c-839eceb7590b)"
       style="fill:url(#a156353f-4d63-4962-9d1c-839eceb7590b)" />
    <rect
       id="abef2dbd-e94f-4bb4-9503-d2b3cf2041a9"
       x="9.1899996"
       y="4.75"
       width="1.7"
       height="1.7"
       rx="0.38"
       transform="rotate(-45,10.040113,5.6012489)"
       fill="#ffffff" />
    <rect
       id="a157044f-57ca-43a1-b77d-760bafa34854"
       x="11.59"
       y="2.3499999"
       width="1.7"
       height="1.7"
       rx="0.38"
       transform="rotate(-45,12.435149,3.1991926)"
       fill="#ffffff" />
    <rect
       id="b637d7ff-a1d5-4533-b34f-12a87620ff68"
       x="11.59"
       y="7.1500001"
       width="1.7"
       height="1.7"
       rx="0.38"
       transform="rotate(-45,12.44217,7.9962846)"
       fill="#ffffff" />
    <path
       id="f613147f-9647-4c5d-a52a-663abb19234f"
       d="m 13.91,5.33 0.66,-0.66 a 0.38,0.38 0 0 1 0.54,0 l 0.66,0.66 a 0.38,0.38 0 0 1 0,0.54 l -0.66,0.66 a 0.38,0.38 0 0 1 -0.54,0 L 13.91,5.87 a 0.38,0.38 0 0 1 0,-0.54"
       fill="#ffffff" />
  </g>
  <g
     aria-label="Data  Explorer"
     id="text45"
     style="font-size:2.66667px;line-height:1.25;font-family:sans-serif"
     transform="translate(0,0.31764706)">
    <path
       d="m 7.13012,13.157256 q 0,0.264323 -0.1158856,0.479167 -0.1145835,0.214844 -0.30599,0.333334 -0.1328126,0.08203 -0.2968753,0.11849 -0.1627607,0.03646 -0.4296881,0.03646 H 5.492097 v -1.938804 h 0.4843757 q 0.2838545,0 0.4505214,0.04167 0.1679689,0.04036 0.2838545,0.11198 0.1979169,0.123698 0.3085941,0.329427 0.1106773,0.20573 0.1106773,0.488282 z m -0.2695316,-0.0039 q 0,-0.227865 -0.079427,-0.384115 -0.079427,-0.15625 -0.2369795,-0.246094 -0.1145835,-0.0651 -0.2434899,-0.08984 -0.1289064,-0.02604 -0.3085941,-0.02604 h -0.242188 v 1.496096 h 0.2421878 q 0.1861981,0 0.3242191,-0.02734 0.1393231,-0.02734 0.2552087,-0.101563 0.1445314,-0.09245 0.2161461,-0.243489 0.072917,-0.151042 0.072917,-0.377605 z"
       style="font-size:2.66667px;text-align:center;text-anchor:middle"
       id="path49" />
    <path
       d="M 8.6574657,14.124705 H 8.4139758 v -0.154948 q -0.032552,0.02214 -0.088542,0.0625 -0.054688,0.03906 -0.106771,0.0625 -0.061198,0.02995 -0.1406252,0.04948 -0.079427,0.02083 -0.1861981,0.02083 -0.1966148,0 -0.3333338,-0.130209 Q 7.421787,13.904653 7.421787,13.70283 q 0,-0.165365 0.070313,-0.266928 0.071615,-0.102864 0.2031253,-0.161458 0.1328126,-0.05859 0.3190108,-0.07943 0.1861981,-0.02083 0.3997401,-0.03125 v -0.03776 q 0,-0.08333 -0.029948,-0.138021 -0.028646,-0.05469 -0.083333,-0.08594 -0.052083,-0.02995 -0.1250002,-0.04036 -0.072917,-0.01042 -0.1523439,-0.01042 -0.096354,0 -0.214844,0.02604 -0.1184898,0.02474 -0.244792,0.07292 h -0.013021 v -0.248699 q 0.071615,-0.01953 0.2070315,-0.04297 0.1354169,-0.02344 0.2669275,-0.02344 0.153646,0 0.2669274,0.02604 0.1145835,0.02474 0.1979169,0.08594 0.082031,0.0599 0.1250002,0.154948 0.042969,0.09505 0.042969,0.235678 z M 8.4139758,13.766632 v -0.404948 q -0.1119793,0.0065 -0.2643233,0.01953 -0.1510418,0.01302 -0.2395836,0.03776 -0.1054689,0.02995 -0.1705732,0.09375 -0.065104,0.0625 -0.065104,0.173178 0,0.125 0.075521,0.188802 0.075521,0.0625 0.2304691,0.0625 0.1289064,0 0.2356774,-0.04948 0.1067709,-0.05078 0.1979169,-0.121094 z"
       style="font-size:2.66667px;text-align:center;text-anchor:middle"
       id="path51" />
    <path
       d="m 9.8840298,14.111684 q -0.069011,0.01823 -0.1510418,0.02995 -0.080729,0.01172 -0.1445315,0.01172 -0.2226565,0 -0.3385421,-0.119792 Q 9.1340289,13.913768 9.1340289,13.649444 V 12.876006 H 8.9686641 v -0.20573 h 0.1653648 v -0.417969 h 0.244792 v 0.417969 h 0.5052089 v 0.20573 H 9.3788209 v 0.662761 q 0,0.114584 0.00521,0.179688 0.00521,0.0638 0.036458,0.119792 0.028646,0.05208 0.078125,0.07682 0.050781,0.02344 0.153646,0.02344 0.059896,0 0.1250002,-0.01693 0.065104,-0.01823 0.09375,-0.02995 h 0.013021 z"
       style="font-size:2.66667px;text-align:center;text-anchor:middle"
       id="path53" />
    <path
       d="m 11.309813,14.124705 h -0.24349 v -0.154948 q -0.03255,0.02214 -0.08854,0.0625 -0.05469,0.03906 -0.106771,0.0625 -0.0612,0.02995 -0.140625,0.04948 -0.07943,0.02083 -0.186198,0.02083 -0.196615,0 -0.333334,-0.130209 -0.136719,-0.130208 -0.136719,-0.332031 0,-0.165365 0.07031,-0.266928 0.07161,-0.102864 0.203126,-0.161458 0.132812,-0.05859 0.319011,-0.07943 0.186198,-0.02083 0.39974,-0.03125 v -0.03776 q 0,-0.08333 -0.02995,-0.138021 -0.02865,-0.05469 -0.08333,-0.08594 -0.05208,-0.02995 -0.125,-0.04036 -0.07292,-0.01042 -0.152344,-0.01042 -0.09635,0 -0.214844,0.02604 -0.11849,0.02474 -0.244792,0.07292 h -0.01302 v -0.248699 q 0.07161,-0.01953 0.207032,-0.04297 0.135417,-0.02344 0.266927,-0.02344 0.153646,0 0.266928,0.02604 0.114583,0.02474 0.197917,0.08594 0.08203,0.0599 0.125,0.154948 0.04297,0.09505 0.04297,0.235678 z m -0.24349,-0.358073 v -0.404948 q -0.11198,0.0065 -0.264324,0.01953 -0.151041,0.01302 -0.239583,0.03776 -0.105469,0.02995 -0.170573,0.09375 -0.0651,0.0625 -0.0651,0.173178 0,0.125 0.07552,0.188802 0.07552,0.0625 0.230469,0.0625 0.128907,0 0.235678,-0.04948 0.106771,-0.05078 0.197917,-0.121094 z"
       style="font-size:2.66667px;text-align:center;text-anchor:middle"
       id="path55" />
    <path
       d="M 4.8221743,17.458043 H 3.5448289 v -1.938805 h 1.2773454 v 0.229167 H 3.8026418 v 0.531251 h 1.0195325 v 0.229167 H 3.8026418 v 0.720053 h 1.0195325 z"
       style="font-size:2.66667px;text-align:center;text-anchor:middle"
       id="path57" />
    <path
       d="M 6.4706139,17.458043 H 6.1620197 L 5.7492588,16.899448 5.3338937,17.458043 H 5.048737 L 5.6164461,16.732782 5.0539454,16.003614 h 0.3085941 l 0.4101568,0.54948 0.4114589,-0.54948 h 0.2864587 l -0.5716153,0.716147 z"
       style="font-size:2.66667px;text-align:center;text-anchor:middle"
       id="path59" />
    <path
       d="m 8.0695743,16.71325 q 0,0.177084 -0.050781,0.324219 -0.050781,0.145834 -0.1432293,0.247397 -0.085938,0.09635 -0.2031253,0.149739 -0.1158855,0.05208 -0.246094,0.05208 -0.1132814,0 -0.2057295,-0.02474 -0.091146,-0.02474 -0.1861981,-0.07682 v 0.609376 h -0.244792 v -1.990888 h 0.244792 v 0.152344 q 0.097656,-0.08203 0.2187503,-0.136719 0.1223959,-0.05599 0.260417,-0.05599 0.2630211,0 0.4088546,0.199219 0.1471357,0.197917 0.1471357,0.550782 z m -0.2526045,0.0065 q 0,-0.263021 -0.089844,-0.39323 -0.089844,-0.130208 -0.276042,-0.130208 -0.1054689,0 -0.2122399,0.04557 -0.1067709,0.04557 -0.2044273,0.119791 v 0.82422 q 0.1041668,0.04687 0.1783856,0.0638 0.075521,0.01693 0.1705732,0.01693 0.2044273,0 0.3190108,-0.138021 0.1145835,-0.138021 0.1145835,-0.408854 z"
       style="font-size:2.66667px;text-align:center;text-anchor:middle"
       id="path61" />
    <path
       d="M 8.6984812,17.458043 H 8.4536893 v -2.026044 h 0.2447919 z"
       style="font-size:2.66667px;text-align:center;text-anchor:middle"
       id="path63" />
    <path
       d="m 10.422442,16.731479 q 0,0.35547 -0.182292,0.561199 -0.182292,0.20573 -0.4882818,0.20573 -0.3085942,0 -0.4908861,-0.20573 -0.1809898,-0.205729 -0.1809898,-0.561199 0,-0.355469 0.1809898,-0.561198 0.1822919,-0.207032 0.4908861,-0.207032 0.3059898,0 0.4882818,0.207032 0.182292,0.205729 0.182292,0.561198 z m -0.252605,0 q 0,-0.282552 -0.110677,-0.419271 -0.110677,-0.138021 -0.3072918,-0.138021 -0.199219,0 -0.3098962,0.138021 -0.1093752,0.136719 -0.1093752,0.419271 0,0.273438 0.1106772,0.415366 0.1106773,0.140625 0.3085942,0.140625 0.1953127,0 0.3059898,-0.139323 0.111979,-0.140625 0.111979,-0.416668 z"
       style="font-size:2.66667px;text-align:center;text-anchor:middle"
       id="path65" />
    <path
       d="m 11.708902,16.270541 h -0.01302 q -0.05469,-0.01302 -0.106771,-0.01823 -0.05078,-0.0065 -0.121094,-0.0065 -0.113281,0 -0.21875,0.05078 -0.105469,0.04948 -0.203125,0.128907 v 1.032553 H 10.80135 v -1.454429 h 0.244792 v 0.214844 q 0.145833,-0.117188 0.25651,-0.165365 0.11198,-0.04948 0.227865,-0.04948 0.0638,0 0.09245,0.0039 0.02865,0.0026 0.08594,0.01172 z"
       style="font-size:2.66667px;text-align:center;text-anchor:middle"
       id="path67" />
    <path
       d="m 13.15682,16.756219 h -1.071616 q 0,0.134115 0.04037,0.234375 0.04036,0.09896 0.110677,0.162761 0.06771,0.0625 0.160156,0.09375 0.09375,0.03125 0.20573,0.03125 0.148438,0 0.298177,-0.05859 0.151042,-0.0599 0.214844,-0.117187 h 0.01302 v 0.266927 q -0.123698,0.05208 -0.252604,0.08724 -0.128907,0.03516 -0.270834,0.03516 -0.36198,0 -0.565105,-0.195313 -0.203125,-0.196614 -0.203125,-0.557292 0,-0.356771 0.194011,-0.566407 0.195312,-0.209636 0.513021,-0.209636 0.294271,0 0.453126,0.171876 0.160156,0.171875 0.160156,0.488281 z m -0.238281,-0.1875 q -0.0013,-0.192709 -0.09766,-0.298178 -0.09505,-0.105468 -0.290365,-0.105468 -0.196615,0 -0.313802,0.115885 -0.115886,0.115886 -0.131511,0.287761 z"
       style="font-size:2.66667px;text-align:center;text-anchor:middle"
       id="path69" />
    <path
       d="m 14.435468,16.270541 h -0.01302 q -0.05469,-0.01302 -0.106771,-0.01823 -0.05078,-0.0065 -0.121094,-0.0065 -0.113281,0 -0.21875,0.05078 -0.105469,0.04948 -0.203125,0.128907 v 1.032553 h -0.244792 v -1.454429 h 0.244792 v 0.214844 q 0.145833,-0.117188 0.25651,-0.165365 0.11198,-0.04948 0.227865,-0.04948 0.0638,0 0.09245,0.0039 0.02865,0.0026 0.08594,0.01172 z"
       style="font-size:2.66667px;text-align:center;text-anchor:middle"
       id="path71" />
  </g>
</svg>
