<?xml version="1.0" encoding="UTF-8" standalone="no"?>
<svg
   xmlns:dc="http://purl.org/dc/elements/1.1/"
   xmlns:cc="http://creativecommons.org/ns#"
   xmlns:rdf="http://www.w3.org/1999/02/22-rdf-syntax-ns#"
   xmlns:svg="http://www.w3.org/2000/svg"
   xmlns="http://www.w3.org/2000/svg"
   xmlns:sodipodi="http://sodipodi.sourceforge.net/DTD/sodipodi-0.dtd"
   xmlns:inkscape="http://www.inkscape.org/namespaces/inkscape"
   id="b5b638e5-1de7-4378-8f50-7c3738e5874c"
   width="18"
   height="18"
   viewBox="0 0 18 18"
   version="1.1"
   sodipodi:docname="azure-logic-app.svg"
   inkscape:version="1.0.1 (3bc2e813f5, 2020-09-07)">
  <metadata
     id="metadata33">
    <rdf:RDF>
      <cc:Work
         rdf:about="">
        <dc:format>image/svg+xml</dc:format>
        <dc:type
           rdf:resource="http://purl.org/dc/dcmitype/StillImage" />
      </cc:Work>
    </rdf:RDF>
  </metadata>
  <sodipodi:namedview
     pagecolor="#ffffff"
     bordercolor="#666666"
     borderopacity="1"
     objecttolerance="10"
     gridtolerance="10"
     guidetolerance="10"
     inkscape:pageopacity="0"
     inkscape:pageshadow="2"
     inkscape:window-width="1920"
     inkscape:window-height="1017"
     id="namedview31"
     showgrid="false"
     inkscape:zoom="47.222222"
     inkscape:cx="9"
     inkscape:cy="10.694118"
     inkscape:window-x="-8"
     inkscape:window-y="-8"
     inkscape:window-maximized="1"
     inkscape:current-layer="b5b638e5-1de7-4378-8f50-7c3738e5874c" />
  <defs
     id="defs12">
    <linearGradient
       id="e20ae4ca-8128-4625-bcc6-863bc1bc51d9"
       x1="5.05"
       y1="10.55"
       x2="5.05"
       y2="13.48"
       gradientUnits="userSpaceOnUse">
      <stop
         offset="0"
         stop-color="#76bc2d"
         id="stop2" />
      <stop
         offset="1"
         stop-color="#5e9624"
         id="stop4" />
    </linearGradient>
    <linearGradient
       id="b6fa89de-29eb-462e-97de-5bdbdaeb090e"
       x1="12.84"
       y1="10.57"
       x2="12.84"
       y2="13.5"
       gradientUnits="userSpaceOnUse">
      <stop
         offset="0"
         stop-color="#76bc2d"
         id="stop7" />
      <stop
         offset="1"
         stop-color="#5e9624"
         id="stop9" />
    </linearGradient>
  </defs>
  <title
     id="title14">Icon-integration-204</title>
  <g
     id="g28"
     transform="matrix(0.8653017,0,0,0.8653017,0.99911381,-1.5844022)">
    <path
       d="M 3.19,15.6 A 2.49,2.49 0 0 1 1.66,15.22 1.7,1.7 0 0 1 1.21,13.86 V 10.33 C 1.21,9.75 0.98,9.44 0.5,9.44 V 8.56 c 0.48,0 0.71,-0.31 0.71,-0.92 V 4.17 A 1.79,1.79 0 0 1 1.66,2.78 2.29,2.29 0 0 1 3.19,2.4 V 3.29 C 2.68,3.29 2.4,3.56 2.4,4.14 v 3.4 C 2.4,8.32 2.17,8.8 1.66,9 a 1.42,1.42 0 0 1 0.74,1.46 v 3.37 a 1.25,1.25 0 0 0 0.17,0.68 0.74,0.74 0 0 0 0.58,0.2 v 0.89 z"
       fill="#949494"
       id="path16" />
    <path
       d="m 14.81,2.4 a 2.49,2.49 0 0 1 1.53,0.38 1.7,1.7 0 0 1 0.45,1.36 v 3.53 c 0,0.58 0.23,0.89 0.71,0.89 v 0.88 c -0.48,0 -0.71,0.31 -0.71,0.92 v 3.43 a 1.8,1.8 0 0 1 -0.45,1.4 2.28,2.28 0 0 1 -1.53,0.41 v -0.89 c 0.51,0 0.79,-0.27 0.79,-0.85 v -3.4 C 15.6,9.68 15.83,9.2 16.34,9 A 1.42,1.42 0 0 1 15.6,7.54 V 4.17 A 1.25,1.25 0 0 0 15.43,3.49 0.74,0.74 0 0 0 14.85,3.29 Z"
       fill="#949494"
       id="path18" />
    <path
       d="M 9.41,8.35 V 7.08 H 8.51 V 8.35 A 0.18,0.18 0 0 1 8.33,8.53 H 5 A 0.36,0.36 0 0 0 4.64,8.89 v 1.65 h 0.9 V 9.63 A 0.18,0.18 0 0 1 5.71,9.45 h 6.54 a 0.18,0.18 0 0 1 0.18,0.18 v 0.93 h 0.89 V 8.89 A 0.36,0.36 0 0 0 12.97,8.53 H 9.59 A 0.18,0.18 0 0 1 9.41,8.35 Z"
       fill="#005ba1"
       id="path20" />
    <path
       d="M 10.61,3.21 H 7.25 A 0.38,0.38 0 0 0 6.87,3.58 v 3.36 a 0.37,0.37 0 0 0 0.38,0.37 h 3.36 A 0.37,0.37 0 0 0 11,6.94 V 3.58 A 0.38,0.38 0 0 0 10.61,3.21 Z M 10.29,6.38 A 0.25,0.25 0 0 1 10.04,6.62 H 7.81 A 0.25,0.25 0 0 1 7.56,6.38 V 4.15 A 0.25,0.25 0 0 1 7.81,3.9 H 10 a 0.25,0.25 0 0 1 0.25,0.25 z"
       fill="#0078d4"
       id="path22" />
    <rect
       x="3.5799999"
       y="10.55"
       width="2.9400001"
       height="2.9400001"
       rx="0.27000001"
       fill="url(#e20ae4ca-8128-4625-bcc6-863bc1bc51d9)"
       id="rect24"
       style="fill:url(#e20ae4ca-8128-4625-bcc6-863bc1bc51d9)" />
    <rect
       x="11.38"
       y="10.57"
       width="2.9400001"
       height="2.9400001"
       rx="0.27000001"
       fill="url(#b6fa89de-29eb-462e-97de-5bdbdaeb090e)"
       id="rect26"
       style="fill:url(#b6fa89de-29eb-462e-97de-5bdbdaeb090e)" />
  </g>
  <g
     aria-label="Logic App"
     id="text37"
     style="font-size:2.66667px;line-height:1.25;font-family:sans-serif">
    <path
       d="M 3.8799223,15.352941 H 2.6533582 v -1.938805 h 0.2578129 v 1.709638 h 0.9687512 z"
       style="font-size:2.66667px"
       id="path39" />
    <path
       d="m 5.3577888,14.626377 q 0,0.355469 -0.1822919,0.561199 -0.1822919,0.205729 -0.4882819,0.205729 -0.3085941,0 -0.490886,-0.205729 -0.1809898,-0.20573 -0.1809898,-0.561199 0,-0.355469 0.1809898,-0.561199 0.1822919,-0.207031 0.490886,-0.207031 0.30599,0 0.4882819,0.207031 0.1822919,0.20573 0.1822919,0.561199 z m -0.2526045,0 q 0,-0.282552 -0.1106772,-0.419271 -0.1106772,-0.138021 -0.3072921,-0.138021 -0.199219,0 -0.3098962,0.138021 -0.1093752,0.136719 -0.1093752,0.419271 0,0.273438 0.1106773,0.415365 0.1106772,0.140625 0.3085941,0.140625 0.1953128,0 0.30599,-0.139323 0.1119793,-0.140625 0.1119793,-0.416667 z"
       style="font-size:2.66667px"
       id="path41" />
    <path
       d="m 6.9163845,15.187576 q 0,0.369792 -0.1679689,0.542969 -0.167969,0.173178 -0.5169278,0.173178 -0.1158855,0 -0.2265628,-0.01693 -0.1093751,-0.01563 -0.2161461,-0.04557 v -0.25 h 0.013021 q 0.059896,0.02344 0.1901044,0.05729 0.1302085,0.03516 0.260417,0.03516 0.1250001,0 0.2070315,-0.02995 0.082031,-0.02995 0.1276043,-0.08333 0.045573,-0.05078 0.065104,-0.122396 0.019531,-0.07161 0.019531,-0.160157 v -0.132812 q -0.1106773,0.08854 -0.2122399,0.132812 -0.1002606,0.04297 -0.2565108,0.04297 -0.260417,0 -0.414063,-0.1875 -0.1523439,-0.188802 -0.1523439,-0.531251 0,-0.1875 0.052083,-0.322917 0.053385,-0.136719 0.1445314,-0.235677 0.084635,-0.09245 0.2057294,-0.14323 0.1210939,-0.05208 0.2408858,-0.05208 0.1263022,0 0.2109377,0.02604 0.085938,0.02474 0.1809899,0.07682 l 0.015625,-0.0625 H 6.9163845 Z M 6.6715926,14.9532 v -0.792969 q -0.097656,-0.04427 -0.182292,-0.0625 -0.083333,-0.01953 -0.1666668,-0.01953 -0.2018232,0 -0.3177088,0.135417 -0.1158855,0.135417 -0.1158855,0.39323 0,0.244792 0.085938,0.371094 0.085938,0.126302 0.2851566,0.126302 0.106771,0 0.2135419,-0.04036 0.1080731,-0.04167 0.197917,-0.110678 z"
       style="font-size:2.66667px"
       id="path43" />
    <path
       d="m 7.6611771,13.655022 h -0.276042 v -0.253907 h 0.276042 z m -0.015625,1.697919 h -0.244792 v -1.454429 h 0.244792 z"
       style="font-size:2.66667px"
       id="path45" />
    <path
       d="m 9.2054501,15.261795 q -0.122396,0.05859 -0.2330732,0.09115 -0.1093752,0.03255 -0.2330733,0.03255 -0.1575522,0 -0.2890628,-0.04557 -0.1315106,-0.04687 -0.2252607,-0.140625 -0.095052,-0.09375 -0.1471356,-0.23698 -0.052083,-0.143229 -0.052083,-0.334636 0,-0.356771 0.1953127,-0.559896 0.1966148,-0.203126 0.5182298,-0.203126 0.1250002,0 0.244792,0.03516 0.1210939,0.03516 0.2213545,0.08594 v 0.272136 h -0.013021 q -0.1119793,-0.08724 -0.2317711,-0.134115 -0.1184897,-0.04687 -0.2317711,-0.04687 -0.2083336,0 -0.3294275,0.140625 -0.1197919,0.139324 -0.1197919,0.410157 0,0.263021 0.1171877,0.404949 0.1184897,0.140625 0.3320317,0.140625 0.074219,0 0.1510418,-0.01953 0.076823,-0.01953 0.138021,-0.05078 0.053385,-0.02734 0.1002606,-0.05729 0.046875,-0.03125 0.074219,-0.05339 h 0.013021 z"
       style="font-size:2.66667px"
       id="path47" />
    <path
       d="m 12.004933,15.352941 h -0.27474 l -0.190105,-0.540366 h -0.838543 l -0.190104,0.540366 h -0.261719 l 0.70573,-1.938805 h 0.34375 z m -0.544272,-0.76172 -0.339844,-0.951824 -0.341146,0.951824 z"
       style="font-size:2.66667px"
       id="path49" />
    <path
       d="m 13.559622,14.608148 q 0,0.177083 -0.05078,0.324219 -0.05078,0.145834 -0.14323,0.247396 -0.08594,0.09636 -0.203125,0.14974 -0.115886,0.05208 -0.246094,0.05208 -0.113281,0 -0.205729,-0.02474 -0.09115,-0.02474 -0.186199,-0.07682 V 15.8894 h -0.244792 v -1.990888 h 0.244792 v 0.152344 q 0.09766,-0.08203 0.218751,-0.136719 0.122396,-0.05599 0.260417,-0.05599 0.263021,0 0.408854,0.199219 0.147136,0.197917 0.147136,0.550782 z m -0.252605,0.0065 q 0,-0.263021 -0.08984,-0.393229 -0.08984,-0.130209 -0.276042,-0.130209 -0.105469,0 -0.21224,0.04557 -0.106771,0.04557 -0.204428,0.119792 v 0.82422 q 0.104167,0.04687 0.178386,0.0638 0.07552,0.01693 0.170573,0.01693 0.204427,0 0.319011,-0.138021 0.114583,-0.138021 0.114583,-0.408855 z"
       style="font-size:2.66667px"
       id="path51" />
    <path
       d="m 15.221083,14.608148 q 0,0.177083 -0.05078,0.324219 -0.05078,0.145834 -0.143229,0.247396 -0.08594,0.09636 -0.203125,0.14974 -0.115886,0.05208 -0.246094,0.05208 -0.113282,0 -0.20573,-0.02474 -0.09115,-0.02474 -0.186198,-0.07682 V 15.8894 h -0.244792 v -1.990888 h 0.244792 v 0.152344 q 0.09766,-0.08203 0.218751,-0.136719 0.122396,-0.05599 0.260417,-0.05599 0.263021,0 0.408854,0.199219 0.147136,0.197917 0.147136,0.550782 z m -0.252605,0.0065 q 0,-0.263021 -0.08984,-0.393229 -0.08984,-0.130209 -0.276042,-0.130209 -0.105468,0 -0.212239,0.04557 -0.106771,0.04557 -0.204428,0.119792 v 0.82422 q 0.104167,0.04687 0.178386,0.0638 0.07552,0.01693 0.170573,0.01693 0.204427,0 0.319011,-0.138021 0.114583,-0.138021 0.114583,-0.408855 z"
       style="font-size:2.66667px"
       id="path53" />
  </g>
</svg>
