<?xml version="1.0" encoding="UTF-8" standalone="no"?>
<svg
   xmlns:dc="http://purl.org/dc/elements/1.1/"
   xmlns:cc="http://creativecommons.org/ns#"
   xmlns:rdf="http://www.w3.org/1999/02/22-rdf-syntax-ns#"
   xmlns:svg="http://www.w3.org/2000/svg"
   xmlns="http://www.w3.org/2000/svg"
   xmlns:sodipodi="http://sodipodi.sourceforge.net/DTD/sodipodi-0.dtd"
   xmlns:inkscape="http://www.inkscape.org/namespaces/inkscape"
   role="img"
   viewBox="225.75 7.74 278.26 377.26"
   version="1.1"
   id="svg18"
   sodipodi:docname="azure-data-factory-orchestration.svg"
   inkscape:version="1.0.1 (3bc2e813f5, 2020-09-07)">
  <metadata
     id="metadata24">
    <rdf:RDF>
      <cc:Work
         rdf:about="">
        <dc:format>image/svg+xml</dc:format>
        <dc:type
           rdf:resource="http://purl.org/dc/dcmitype/StillImage" />
      </cc:Work>
    </rdf:RDF>
  </metadata>
  <defs
     id="defs22" />
  <sodipodi:namedview
     pagecolor="#ffffff"
     bordercolor="#666666"
     borderopacity="1"
     objecttolerance="10"
     gridtolerance="10"
     guidetolerance="10"
     inkscape:pageopacity="0"
     inkscape:pageshadow="2"
     inkscape:window-width="1920"
     inkscape:window-height="1017"
     id="namedview20"
     showgrid="false"
     inkscape:zoom="2.253088"
     inkscape:cx="139.13"
     inkscape:cy="188.63"
     inkscape:window-x="-8"
     inkscape:window-y="-8"
     inkscape:window-maximized="1"
     inkscape:current-layer="svg18" />
  <title
     id="title2">Azure Data Factory Mapping Data Flows logo</title>
  <path
     fill="#59b4d9"
     d="m 496.48,168.18637 v 0 -63.04609 l -71.24,62.00401 h -1.56 v -62.00401 l -71.24,62.00401 v 0 V 37.40481 C 352.44,26.46293 328,15.52104 295.76,15.52104 263.52,15.52104 237,25.94188 237,37.40481 V 274.99999 H 497 Z M 295.76,47.82565 c -23.4,0 -42.12,-5.73146 -42.12,-11.98397 0,-6.2525 18.72,-11.98396 42.12,-11.98396 23.4,0 42.12,5.21042 42.12,11.98396 -0.52,6.25251 -19.24,11.98397 -42.12,11.98397 z m 122.72,184.96994 h -28.6 v -28.65732 h 28.6 z m -50.44,0 h -28.6 v -28.65732 h 28.6 z m 72.8,0 v -28.65732 h 28.6 v 28.65732 z"
     id="path4" />
  <path
     fill="#3999c6"
     d="M237 35.842H294.72V275H237z"
     id="path6" />
  <path
     fill="#fff"
     d="m 351.92,35.84168 c 0,11.46293 -26,20.84169 -57.72,20.84169 -31.72,0 -57.2,-9.37876 -57.2,-20.84169 C 237,24.37876 263,15 294.72,15 c 31.72,0 57.2,8.85772 57.2,20.84168"
     id="path8" />
  <path
     fill="#7fba00"
     d="m 340.48,34.27856 c 0,7.81563 -20.28,13.54709 -45.76,13.54709 -25.48,0 -45.76,-5.73146 -45.76,-13.54709 0,-7.81563 20.28,-13.5471 45.76,-13.5471 25.48,0 45.76,6.25251 45.76,13.5471"
     id="path10" />
  <path
     fill="#b8d432"
     d="m 330.6,42.61523 c 6.24,-2.08417 9.36,-5.21042 9.36,-8.33667 0,-7.81563 -20.28,-13.5471 -45.76,-13.5471 -25.48,0 -45.76,6.25251 -45.76,13.5471 0.52,3.12625 4.16,6.2525 9.88,8.33667 8.32,-3.12625 21.32,-5.21042 36.4,-5.21042 14.56,0 27.56,2.08417 35.88,5.21042"
     id="path12" />
  <g
     aria-label="Orchestration"
     id="text28"
     style="font-size:13.3333px;line-height:1.25;font-family:sans-serif">
    <path
       d="m 261.16991,317.03428 q 1.65885,1.82292 2.53385,4.46614 0.89323,2.64323 0.89323,5.99739 0,3.35417 -0.91146,6.01562 -0.89323,2.64323 -2.51562,4.41146 -1.67709,1.84114 -3.97396,2.77083 -2.27864,0.92969 -5.21354,0.92969 -2.86197,0 -5.21353,-0.94792 -2.33333,-0.94792 -3.97396,-2.7526 -1.64062,-1.80469 -2.53385,-4.42968 -0.875,-2.625 -0.875,-5.9974 0,-3.3177 0.875,-5.9427 0.875,-2.64323 2.55208,-4.52083 1.60417,-1.78646 3.97396,-2.73437 2.38802,-0.94792 5.1953,-0.94792 2.91667,0 5.23177,0.96615 2.33333,0.94791 3.95573,2.71614 z m -0.32813,10.46353 q 0,-5.28645 -2.36979,-8.14843 -2.36979,-2.8802 -6.47135,-2.8802 -4.13801,0 -6.5078,2.8802 -2.35156,2.86198 -2.35156,8.14843 0,5.34115 2.40624,8.18489 2.40625,2.82552 6.45312,2.82552 4.04688,0 6.43489,-2.82552 2.40625,-2.84374 2.40625,-8.18489 z"
       style="font-size:37.3333px"
       id="path30" />
    <path
       d="m 282.75322,324.43532 h -0.18229 q -0.76562,-0.18229 -1.49479,-0.25521 -0.71094,-0.0912 -1.69531,-0.0912 -1.58594,0 -3.0625,0.71094 -1.47656,0.69271 -2.84375,1.80469 v 14.45571 h -3.42708 v -20.36196 h 3.42708 v 3.00781 q 2.04167,-1.64062 3.59115,-2.3151 1.5677,-0.69271 3.1901,-0.69271 0.89323,0 1.29427,0.0547 0.40104,0.0365 1.20312,0.16406 z"
       style="font-size:37.3333px"
       id="path32" />
    <path
       d="m 301.03706,339.78426 q -1.71354,0.82031 -3.26302,1.27604 -1.53125,0.45573 -3.26302,0.45573 -2.20572,0 -4.04687,-0.63802 -1.84114,-0.65625 -3.15364,-1.96875 -1.33073,-1.3125 -2.0599,-3.3177 -0.72916,-2.00521 -0.72916,-4.68489 0,-4.99479 2.73437,-7.83854 2.7526,-2.84375 7.2552,-2.84375 1.75,0 3.42708,0.49219 1.69531,0.49219 3.09896,1.20312 v 3.8099 h -0.18229 q -1.56771,-1.22136 -3.24479,-1.87761 -1.65885,-0.65625 -3.24479,-0.65625 -2.91666,0 -4.61198,1.96875 -1.67708,1.95052 -1.67708,5.74219 0,3.68228 1.64063,5.66926 1.65885,1.96875 4.64843,1.96875 1.03906,0 2.11458,-0.27344 1.07552,-0.27343 1.93229,-0.71093 0.7474,-0.38282 1.40365,-0.80209 0.65625,-0.4375 1.03906,-0.74739 h 0.18229 z"
       style="font-size:37.3333px"
       id="path34" />
    <path
       d="m 322.45631,341.0603 h -3.42708 v -11.59374 q 0,-1.40364 -0.16406,-2.625 -0.16406,-1.23958 -0.60156,-1.93229 -0.45573,-0.76562 -1.3125,-1.1302 -0.85677,-0.38281 -2.22396,-0.38281 -1.40364,0 -2.93489,0.6927 -1.53125,0.69271 -2.93489,1.76823 v 15.20311 h -3.42709 v -28.36456 h 3.42709 v 10.26302 q 1.60416,-1.33073 3.3177,-2.07813 1.71354,-0.74739 3.51823,-0.74739 3.29947,0 5.03124,1.98697 1.73177,1.98698 1.73177,5.72396 z"
       style="font-size:37.3333px"
       id="path36" />
    <path
       d="m 346.09952,331.23479 h -15.00259 q 0,1.8776 0.5651,3.28125 0.5651,1.38541 1.54948,2.27864 0.94791,0.875 2.24218,1.3125 1.3125,0.4375 2.88021,0.4375 2.07812,0 4.17448,-0.82031 2.11458,-0.83854 3.00781,-1.64063 h 0.18229 v 3.73698 q -1.73177,0.72917 -3.53646,1.22135 -1.80468,0.49219 -3.79166,0.49219 -5.06771,0 -7.91145,-2.73437 -2.84375,-2.7526 -2.84375,-7.80208 0,-4.99479 2.71614,-7.92968 2.73438,-2.93489 7.18229,-2.93489 4.11979,0 6.34374,2.40625 2.24219,2.40624 2.24219,6.83593 z m -3.33594,-2.625 q -0.0182,-2.69791 -1.36718,-4.17447 -1.33073,-1.47656 -4.0651,-1.47656 -2.75261,0 -4.39323,1.62239 -1.62239,1.62239 -1.84114,4.02864 z"
       style="font-size:37.3333px"
       id="path38" />
    <path
       d="m 365.8417,335.19052 q 0,2.78906 -2.31511,4.57551 -2.29687,1.78646 -6.28905,1.78646 -2.26042,0 -4.15625,-0.52865 -1.8776,-0.54687 -3.15364,-1.18489 v -3.84635 h 0.18229 q 1.62239,1.22135 3.60937,1.95052 1.98698,0.71093 3.80989,0.71093 2.26042,0 3.53646,-0.72916 1.27604,-0.72917 1.27604,-2.29687 0,-1.20313 -0.69271,-1.82292 -0.69271,-0.61979 -2.66146,-1.05729 -0.72916,-0.16406 -1.91406,-0.38281 -1.16666,-0.21875 -2.13281,-0.47396 -2.67968,-0.71094 -3.80989,-2.07812 -1.11198,-1.38542 -1.11198,-3.39063 0,-1.25781 0.51042,-2.36979 0.52864,-1.11197 1.58593,-1.98697 1.02084,-0.85677 2.58854,-1.34896 1.58594,-0.51042 3.53646,-0.51042 1.82291,0 3.68229,0.45573 1.8776,0.4375 3.11718,1.07552 v 3.66406 h -0.18229 q -1.3125,-0.96614 -3.1901,-1.62239 -1.8776,-0.67448 -3.68229,-0.67448 -1.8776,0 -3.17187,0.72916 -1.29427,0.71094 -1.29427,2.13282 0,1.25781 0.78385,1.89583 0.76563,0.63802 2.47917,1.03906 0.94791,0.21875 2.11458,0.4375 1.18489,0.21875 1.96875,0.40104 2.38802,0.54687 3.68229,1.8776 1.29427,1.34896 1.29427,3.57292 z"
       style="font-size:37.3333px"
       id="path40" />
    <path
       d="m 381.31824,340.87801 q -0.96614,0.25521 -2.11458,0.41927 -1.13021,0.16406 -2.02344,0.16406 -3.11718,0 -4.73958,-1.67708 -1.62239,-1.67708 -1.62239,-5.3776 v -10.82811 h -2.3151 v -2.88021 h 2.3151 v -5.85156 h 3.42708 v 5.85156 h 7.07291 v 2.88021 h -7.07291 v 9.27863 q 0,1.60417 0.0729,2.51563 0.0729,0.89323 0.51041,1.67708 0.40104,0.72917 1.09375,1.07552 0.71094,0.32812 2.15104,0.32812 0.83854,0 1.75,-0.23697 0.91146,-0.25521 1.3125,-0.41928 h 0.18229 z"
       style="font-size:37.3333px"
       id="path42" />
    <path
       d="m 398.16197,324.43532 h -0.18229 q -0.76562,-0.18229 -1.49479,-0.25521 -0.71094,-0.0912 -1.69531,-0.0912 -1.58594,0 -3.0625,0.71094 -1.47656,0.69271 -2.84374,1.80469 v 14.45571 h -3.42708 v -20.36196 h 3.42708 v 3.00781 q 2.04166,-1.64062 3.59114,-2.3151 1.56771,-0.69271 3.1901,-0.69271 0.89323,0 1.29427,0.0547 0.40104,0.0365 1.20312,0.16406 z"
       style="font-size:37.3333px"
       id="path44" />
    <path
       d="m 416.55519,341.0603 h -3.40885 v -2.16927 q -0.45573,0.3099 -1.23958,0.875 -0.76563,0.54688 -1.49479,0.875 -0.85677,0.41927 -1.96875,0.69271 -1.11198,0.29167 -2.60677,0.29167 -2.7526,0 -4.66666,-1.82292 -1.91406,-1.82291 -1.91406,-4.64843 0,-2.3151 0.98437,-3.73698 1.0026,-1.4401 2.84375,-2.26041 1.85937,-0.82031 4.46614,-1.11198 2.60677,-0.29167 5.59635,-0.4375 v -0.52865 q 0,-1.16666 -0.41927,-1.93229 -0.40104,-0.76562 -1.16667,-1.20312 -0.72916,-0.41927 -1.75,-0.5651 -1.02083,-0.14584 -2.13281,-0.14584 -1.34895,0 -3.00781,0.36459 -1.65885,0.34635 -3.42708,1.02083 h -0.18229 v -3.48177 q 1.0026,-0.27344 2.89844,-0.60156 1.89583,-0.32813 3.73697,-0.32813 2.15104,0 3.73698,0.36459 1.60416,0.34635 2.77083,1.20312 1.14844,0.83854 1.75,2.16927 0.60156,1.33073 0.60156,3.29948 z m -3.40885,-5.01301 v -5.66927 q -1.56771,0.0912 -3.70052,0.27344 -2.11458,0.18229 -3.35416,0.52864 -1.47656,0.41927 -2.38802,1.3125 -0.91146,0.875 -0.91146,2.42448 0,1.75 1.05729,2.64323 1.05729,0.87499 3.22656,0.87499 1.80469,0 3.29948,-0.6927 1.49479,-0.71094 2.77083,-1.69531 z"
       style="font-size:37.3333px"
       id="path46" />
    <path
       d="m 433.72705,340.87801 q -0.96614,0.25521 -2.11458,0.41927 -1.1302,0.16406 -2.02343,0.16406 -3.11719,0 -4.73958,-1.67708 -1.6224,-1.67708 -1.6224,-5.3776 v -10.82811 h -2.3151 v -2.88021 h 2.3151 v -5.85156 h 3.42708 v 5.85156 h 7.07291 v 2.88021 h -7.07291 v 9.27863 q 0,1.60417 0.0729,2.51563 0.0729,0.89323 0.51042,1.67708 0.40104,0.72917 1.09375,1.07552 0.71093,0.32812 2.15104,0.32812 0.83854,0 1.74999,-0.23697 0.91146,-0.25521 1.3125,-0.41928 h 0.18229 z"
       style="font-size:37.3333px"
       id="path48" />
    <path
       d="m 441.54736,317.28949 h -3.86458 v -3.55468 h 3.86458 z m -0.21875,23.77081 h -3.42708 v -20.36196 h 3.42708 z"
       style="font-size:37.3333px"
       id="path50" />
    <path
       d="m 465.464,330.88844 q 0,4.97655 -2.55208,7.85676 -2.55208,2.88021 -6.83593,2.88021 -4.32031,0 -6.87239,-2.88021 -2.53385,-2.88021 -2.53385,-7.85676 0,-4.97656 2.53385,-7.85677 2.55208,-2.89843 6.87239,-2.89843 4.28385,0 6.83593,2.89843 2.55208,2.88021 2.55208,7.85677 z m -3.53645,0 q 0,-3.95573 -1.54948,-5.86979 -1.54948,-1.93229 -4.30208,-1.93229 -2.78906,0 -4.33854,1.93229 -1.53125,1.91406 -1.53125,5.86979 0,3.82812 1.54948,5.8151 1.54948,1.96874 4.32031,1.96874 2.73437,0 4.28385,-1.95052 1.56771,-1.96874 1.56771,-5.83332 z"
       style="font-size:37.3333px"
       id="path52" />
    <path
       d="m 487.79471,341.0603 h -3.42708 v -11.59374 q 0,-1.40364 -0.16407,-2.625 -0.16406,-1.23958 -0.60156,-1.93229 -0.45573,-0.76562 -1.3125,-1.1302 -0.85677,-0.38281 -2.22395,-0.38281 -1.40365,0 -2.9349,0.6927 -1.53125,0.69271 -2.93489,1.76823 v 15.20311 h -3.42708 v -20.36196 h 3.42708 v 2.26042 q 1.60416,-1.33073 3.3177,-2.07813 1.71355,-0.74739 3.51823,-0.74739 3.29948,0 5.03125,1.98697 1.73177,1.98698 1.73177,5.72396 z"
       style="font-size:37.3333px"
       id="path54" />
  </g>
</svg>
