<?xml version="1.0" encoding="UTF-8" standalone="no"?>
<svg
   xmlns:dc="http://purl.org/dc/elements/1.1/"
   xmlns:cc="http://creativecommons.org/ns#"
   xmlns:rdf="http://www.w3.org/1999/02/22-rdf-syntax-ns#"
   xmlns:svg="http://www.w3.org/2000/svg"
   xmlns="http://www.w3.org/2000/svg"
   xmlns:sodipodi="http://sodipodi.sourceforge.net/DTD/sodipodi-0.dtd"
   xmlns:inkscape="http://www.inkscape.org/namespaces/inkscape"
   id="f78f5115-be88-4d44-b34e-3f6ea743125c"
   width="18"
   height="18"
   viewBox="0 0 18 18"
   version="1.1"
   sodipodi:docname="azure-cognitive-services.svg"
   inkscape:version="1.0.1 (3bc2e813f5, 2020-09-07)">
  <metadata
     id="metadata28">
    <rdf:RDF>
      <cc:Work
         rdf:about="">
        <dc:format>image/svg+xml</dc:format>
        <dc:type
           rdf:resource="http://purl.org/dc/dcmitype/StillImage" />
      </cc:Work>
    </rdf:RDF>
  </metadata>
  <sodipodi:namedview
     pagecolor="#ffffff"
     bordercolor="#666666"
     borderopacity="1"
     objecttolerance="10"
     gridtolerance="10"
     guidetolerance="10"
     inkscape:pageopacity="0"
     inkscape:pageshadow="2"
     inkscape:window-width="1920"
     inkscape:window-height="1017"
     id="namedview26"
     showgrid="false"
     inkscape:zoom="47.222222"
     inkscape:cx="9"
     inkscape:cy="10.694118"
     inkscape:window-x="-8"
     inkscape:window-y="-8"
     inkscape:window-maximized="1"
     inkscape:current-layer="f78f5115-be88-4d44-b34e-3f6ea743125c" />
  <defs
     id="defs13">
    <linearGradient
       id="b6c43bd9-e37f-4191-93c2-d3a7a84c505e"
       x1="9"
       y1="19.13"
       x2="9"
       y2="-0.29"
       gradientUnits="userSpaceOnUse"
       gradientTransform="matrix(0.958543,0,0,0.958543,0.44470588,-2.369127)">
      <stop
         offset="0"
         stop-color="#0078d4"
         id="stop2" />
      <stop
         offset="0.16"
         stop-color="#1380da"
         id="stop4" />
      <stop
         offset="0.53"
         stop-color="#3c91e5"
         id="stop6" />
      <stop
         offset="0.82"
         stop-color="#559cec"
         id="stop8" />
      <stop
         offset="1"
         stop-color="#5ea0ef"
         id="stop10" />
    </linearGradient>
  </defs>
  <title
     id="title15">Icon-machinelearning-162</title>
  <path
     d="M 17.69848,8.5390923 A 3.834172,3.834172 0 0 0 14.333994,4.8199455 4.8885693,4.8885693 0 0 0 9.3016432,0.14225571 5.0323507,5.0323507 0 0 0 4.4897574,3.382131 4.6010064,4.6010064 0 0 0 0.44470588,7.8585268 4.6968607,4.6968607 0 0 0 5.3045189,12.373265 h 0.4217589 7.8696382 a 0.74766354,0.74766354 0 0 0 0.210879,0 3.9300263,3.9300263 0 0 0 3.891685,-3.8341727 z"
     fill="url(#b6c43bd9-e37f-4191-93c2-d3a7a84c505e)"
     id="path17"
     style="fill:url(#b6c43bd9-e37f-4191-93c2-d3a7a84c505e);stroke-width:0.958543" />
  <path
     d="M 5.6400089,7.5901348 H 4.7964911 a 1.0448119,1.0448119 0 1 0 0,0.469686 H 5.6400089 A 0.1917086,0.1917086 0 0 1 5.8317175,8.2515294 V 12.373265 H 6.3014036 V 8.2515294 A 0.66139467,0.66139467 0 0 0 5.6400089,7.5901348 Z M 3.7708501,8.4336526 A 0.61346752,0.61346752 0 1 1 4.3843176,7.8201851 0.61346752,0.61346752 0 0 1 3.7708501,8.4336526 Z"
     fill="#9cebff"
     id="path19"
     style="stroke-width:0.958543" />
  <path
     d="M 9.0140803,7.8010142 V 6.8424712 A 0.6709801,0.6709801 0 0 0 8.3431002,6.1714911 H 6.8573586 A 0.1917086,0.1917086 0 0 1 6.66565,5.9797825 V 0.88991924 L 6.4451851,1.0049444 6.1959639,1.1391404 v 4.792715 a 0.66139467,0.66139467 0 0 0 0.6613947,0.6613947 h 1.4857416 a 0.20129403,0.20129403 0 0 1 0.201294,0.201294 v 0.958543 A 1.0352264,1.0352264 0 0 0 7.7296327,8.7691427 1.0448119,1.0448119 0 1 0 9.0140803,7.7530871 Z M 8.7744446,9.4305376 v 0 A 0.61346752,0.61346752 0 1 1 9.3879121,8.8170698 0.61346752,0.61346752 0 0 1 8.7744446,9.4305376 Z"
     fill="#f2f2f2"
     id="path21"
     style="stroke-width:0.958543" />
  <path
     d="M 14.372336,5.7784885 A 1.0448119,1.0448119 0 0 0 14.1327,7.8393559 V 8.0310645 A 0.20129403,0.20129403 0 0 1 13.931406,8.2323586 H 12.01432 V 4.8582872 A 0.66139467,0.66139467 0 0 0 11.352925,4.1968926 H 10.365626 A 1.0352264,1.0352264 0 0 0 9.3495704,3.382131 1.0448119,1.0448119 0 1 0 10.365626,4.6665786 h 1.025641 a 0.1917086,0.1917086 0 0 1 0.191709,0.1917086 v 7.5149778 h 0.469686 V 8.7020446 h 1.917086 a 0.6709801,0.6709801 0 0 0 0.67098,-0.6709801 V 7.8393559 a 1.0448119,1.0448119 0 0 0 0.814761,-1.0160555 v 0 A 1.0448119,1.0448119 0 0 0 14.372336,5.7784885 Z M 9.3495704,5.0404104 v 0 A 0.61346752,0.61346752 0 1 1 9.9630379,4.4269429 0.61346752,0.61346752 0 0 1 9.3495704,5.0404104 Z m 5.0227656,2.3963575 v 0 a 0.61346752,0.61346752 0 1 1 0.603882,-0.6134675 0.61346752,0.61346752 0 0 1 -0.603882,0.6134675 z"
     fill="#9cebff"
     id="path23"
     style="stroke-width:0.958543" />
  <g
     aria-label="Cognitive 
Services"
     id="text32"
     style="font-size:2.66667px;line-height:1.25;font-family:sans-serif">
    <path
       d="m 4.7860502,14.322904 q -0.071615,0.03125 -0.1302085,0.05859 -0.057292,0.02734 -0.1510419,0.05729 -0.079427,0.02474 -0.1731773,0.04167 -0.092448,0.01823 -0.2044273,0.01823 -0.2109378,0 -0.3841151,-0.05859 -0.1718752,-0.0599 -0.2994795,-0.186198 -0.1250002,-0.123698 -0.1953128,-0.313803 -0.070313,-0.191406 -0.070313,-0.444011 0,-0.239583 0.067708,-0.428386 0.067709,-0.188802 0.1953128,-0.31901 0.1236981,-0.126303 0.2981774,-0.192709 0.1757815,-0.06641 0.3893235,-0.06641 0.1562502,0 0.3111983,0.03776 0.1562502,0.03776 0.3463546,0.132813 v 0.30599 h -0.019531 q -0.1601564,-0.134115 -0.3177087,-0.195313 -0.1575523,-0.0612 -0.33724,-0.0612 -0.1471356,0 -0.2656254,0.04818 -0.1171876,0.04687 -0.2096357,0.147136 -0.089844,0.09766 -0.1406251,0.247396 -0.049479,0.148438 -0.049479,0.34375 0,0.204428 0.054688,0.351563 0.05599,0.147136 0.1432293,0.239584 0.091146,0.09635 0.2122399,0.143229 0.122396,0.04557 0.2578128,0.04557 0.1861982,0 0.3489588,-0.0638 0.1627606,-0.0638 0.3046879,-0.191406 h 0.018229 z"
       style="font-size:2.66667px"
       id="path36" />
    <path
       d="m 6.3706876,13.736966 q 0,0.355469 -0.1822919,0.561199 -0.1822919,0.205729 -0.4882819,0.205729 -0.3085941,0 -0.490886,-0.205729 -0.1809898,-0.20573 -0.1809898,-0.561199 0,-0.355469 0.1809898,-0.561198 0.1822919,-0.207032 0.490886,-0.207032 0.30599,0 0.4882819,0.207032 0.1822919,0.205729 0.1822919,0.561198 z m -0.2526045,0 q 0,-0.282552 -0.1106772,-0.419271 -0.1106772,-0.138021 -0.3072921,-0.138021 -0.199219,0 -0.3098962,0.138021 -0.1093752,0.136719 -0.1093752,0.419271 0,0.273438 0.1106773,0.415365 0.1106772,0.140625 0.3085941,0.140625 0.1953128,0 0.30599,-0.139323 0.1119793,-0.140625 0.1119793,-0.416667 z"
       style="font-size:2.66667px"
       id="path38" />
    <path
       d="m 7.9292832,14.298165 q 0,0.369792 -0.167969,0.542969 -0.1679689,0.173178 -0.5169277,0.173178 -0.1158856,0 -0.2265628,-0.01693 -0.1093751,-0.01563 -0.2161461,-0.04557 v -0.25 h 0.013021 q 0.059896,0.02344 0.1901044,0.05729 0.1302085,0.03516 0.260417,0.03516 0.1250001,0 0.2070315,-0.02995 0.082031,-0.02995 0.1276043,-0.08333 0.045573,-0.05078 0.065104,-0.122396 0.019531,-0.07161 0.019531,-0.160157 v -0.132812 q -0.1106772,0.08854 -0.2122398,0.132812 -0.1002606,0.04297 -0.2565108,0.04297 -0.260417,0 -0.414063,-0.1875 -0.1523439,-0.188802 -0.1523439,-0.531251 0,-0.1875 0.052083,-0.322917 0.053385,-0.136719 0.1445314,-0.235677 0.084635,-0.09245 0.2057294,-0.14323 0.1210939,-0.05208 0.2408857,-0.05208 0.1263023,0 0.2109378,0.02604 0.085938,0.02474 0.1809898,0.07682 l 0.015625,-0.0625 H 7.9292832 Z M 7.6844912,14.063789 V 13.27082 q -0.097656,-0.04427 -0.1822919,-0.0625 -0.083333,-0.01953 -0.1666668,-0.01953 -0.2018232,0 -0.3177088,0.135417 -0.1158856,0.135417 -0.1158856,0.39323 0,0.244792 0.085938,0.371094 0.085938,0.126302 0.2851566,0.126302 0.1067709,0 0.2135419,-0.04036 0.1080731,-0.04167 0.1979169,-0.110678 z"
       style="font-size:2.66667px"
       id="path40" />
    <path
       d="M 9.627202,14.46353 H 9.38241 v -0.828126 q 0,-0.100261 -0.011719,-0.187501 -0.011719,-0.08854 -0.042969,-0.138021 -0.032552,-0.05469 -0.09375,-0.08073 -0.061198,-0.02734 -0.1588543,-0.02734 -0.1002606,0 -0.2096357,0.04948 -0.1093752,0.04948 -0.2096357,0.126303 v 1.085939 h -0.244792 v -1.454429 h 0.244792 v 0.161458 q 0.1145835,-0.09505 0.2369795,-0.148438 0.1223959,-0.05339 0.2513024,-0.05339 0.2356773,0 0.3593754,0.141927 0.1236981,0.141928 0.1236981,0.408855 z"
       style="font-size:2.66667px"
       id="path42" />
    <path
       d="m 10.361578,12.765611 h -0.276042 v -0.253907 h 0.276042 z m -0.01563,1.697919 h -0.244792 v -1.454429 h 0.244792 z"
       style="font-size:2.66667px"
       id="path44" />
    <path
       d="m 11.585538,14.450509 q -0.06901,0.01823 -0.151042,0.02995 -0.08073,0.01172 -0.144531,0.01172 -0.222657,0 -0.338542,-0.119791 -0.115886,-0.119792 -0.115886,-0.384115 V 13.21483 h -0.165365 v -0.205729 h 0.165365 v -0.41797 h 0.244792 v 0.41797 h 0.505209 v 0.205729 h -0.505209 v 0.662761 q 0,0.114584 0.0052,0.179688 0.0052,0.0638 0.03646,0.119792 0.02865,0.05208 0.07813,0.07682 0.05078,0.02344 0.153646,0.02344 0.0599,0 0.125,-0.01693 0.06511,-0.01823 0.09375,-0.02995 h 0.01302 z"
       style="font-size:2.66667px"
       id="path46" />
    <path
       d="M 12.144132,12.765611 H 11.86809 v -0.253907 h 0.276042 z m -0.01563,1.697919 h -0.244792 v -1.454429 h 0.244792 z"
       style="font-size:2.66667px"
       id="path48" />
    <path
       d="M 13.870697,13.009101 13.282154,14.46353 H 13.03606 l -0.584636,-1.454429 h 0.265625 l 0.450522,1.157553 0.446615,-1.157553 z"
       style="font-size:2.66667px"
       id="path50" />
    <path
       d="m 15.385022,13.761706 h -1.071616 q 0,0.134115 0.04036,0.234375 0.04036,0.09896 0.110677,0.162761 0.06771,0.0625 0.160157,0.09375 0.09375,0.03125 0.205729,0.03125 0.148438,0 0.298178,-0.05859 0.151042,-0.0599 0.214844,-0.117188 h 0.01302 v 0.266928 q -0.123699,0.05208 -0.252605,0.08724 -0.128906,0.03516 -0.270834,0.03516 -0.361979,0 -0.565104,-0.195313 -0.203126,-0.196615 -0.203126,-0.557292 0,-0.356772 0.194011,-0.566407 0.195313,-0.209636 0.513021,-0.209636 0.294272,0 0.453126,0.171875 0.160156,0.171875 0.160156,0.488282 z m -0.238281,-0.1875 q -0.0013,-0.192709 -0.09766,-0.298178 -0.09505,-0.105469 -0.290365,-0.105469 -0.196615,0 -0.313803,0.115886 -0.115885,0.115885 -0.131511,0.287761 z"
       style="font-size:2.66667px"
       id="path52" />
    <path
       d="m 4.6975084,17.243481 q 0,0.113281 -0.053386,0.223959 -0.052083,0.110677 -0.1471356,0.1875 -0.1041668,0.08333 -0.2434899,0.130208 -0.138021,0.04687 -0.3333337,0.04687 -0.2096357,0 -0.3776047,-0.03906 -0.1666669,-0.03906 -0.3398442,-0.115886 v -0.322917 h 0.018229 q 0.1471356,0.122396 0.3398442,0.188803 0.1927086,0.06641 0.3619796,0.06641 0.2395837,0 0.3723963,-0.08984 0.1341148,-0.08984 0.1341148,-0.239584 0,-0.128906 -0.063802,-0.190104 -0.0625,-0.0612 -0.1914065,-0.09505 -0.097656,-0.02604 -0.2122398,-0.04297 -0.1132814,-0.01693 -0.2408857,-0.04297 -0.2578129,-0.05469 -0.382813,-0.186198 -0.1236981,-0.132813 -0.1236981,-0.345052 0,-0.24349 0.2057294,-0.398438 0.2057295,-0.156251 0.5221361,-0.156251 0.2044274,0 0.3750005,0.03906 0.1705731,0.03906 0.3020837,0.09635 v 0.304688 h -0.018229 q -0.1106772,-0.09375 -0.291667,-0.154948 -0.1796878,-0.0625 -0.3684901,-0.0625 -0.2070315,0 -0.3333337,0.08594 -0.1250002,0.08594 -0.1250002,0.221355 0,0.121094 0.0625,0.190104 0.0625,0.06901 0.2200523,0.105469 0.083334,0.01823 0.2369795,0.04427 0.153646,0.02604 0.260417,0.05339 0.2161461,0.05729 0.3255213,0.173177 0.1093751,0.115885 0.1093751,0.324219 z"
       style="font-size:2.66667px"
       id="path54" />
    <path
       d="M 6.3094896,17.095043 H 5.2378737 q 0,0.134115 0.040365,0.234376 0.040365,0.09896 0.1106773,0.16276 0.067708,0.0625 0.1601564,0.09375 0.09375,0.03125 0.2057294,0.03125 0.1484377,0 0.2981775,-0.05859 0.1510419,-0.0599 0.214844,-0.117188 h 0.013021 v 0.266927 q -0.1236981,0.05208 -0.2526045,0.08724 -0.1289064,0.03516 -0.2708337,0.03516 -0.3619796,0 -0.5651049,-0.195312 -0.2031252,-0.196615 -0.2031252,-0.557293 0,-0.356771 0.1940106,-0.566407 0.1953128,-0.209635 0.5130215,-0.209635 0.2942712,0 0.4531256,0.171875 0.1601564,0.171875 0.1601564,0.488282 z m -0.2382815,-0.1875 q -0.0013,-0.192708 -0.097656,-0.298177 -0.095052,-0.105469 -0.2903649,-0.105469 -0.1966149,0 -0.3138025,0.115885 -0.1158856,0.115886 -0.1315106,0.287761 z"
       style="font-size:2.66667px"
       id="path56" />
    <path
       d="m 7.5881372,16.609366 h -0.013021 q -0.054687,-0.01302 -0.1067709,-0.01823 -0.050781,-0.0065 -0.1210939,-0.0065 -0.1132814,0 -0.2187503,0.05078 -0.1054689,0.04948 -0.2031253,0.128907 v 1.032553 h -0.244792 v -1.454429 h 0.244792 v 0.214844 q 0.1458335,-0.117187 0.2565108,-0.165365 0.1119793,-0.04948 0.2278648,-0.04948 0.063802,0 0.092448,0.0039 0.028646,0.0026 0.085938,0.01172 z"
       style="font-size:2.66667px"
       id="path58" />
    <path
       d="M 9.0764205,16.342438 8.4878781,17.796867 H 8.241784 L 7.6571478,16.342438 h 0.2656254 l 0.4505214,1.157554 0.4466151,-1.157554 z"
       style="font-size:2.66667px"
       id="path60" />
    <path
       d="m 9.6597544,16.098948 h -0.276042 v -0.253906 h 0.276042 z m -0.015625,1.697919 h -0.244792 v -1.454429 h 0.244792 z"
       style="font-size:2.66667px"
       id="path62" />
    <path
       d="m 11.204027,17.705721 q -0.122396,0.05859 -0.233073,0.09115 -0.109375,0.03255 -0.233073,0.03255 -0.157553,0 -0.289063,-0.04557 -0.131511,-0.04687 -0.225261,-0.140625 -0.09505,-0.09375 -0.147136,-0.236979 -0.05208,-0.14323 -0.05208,-0.334636 0,-0.356771 0.195313,-0.559897 0.196615,-0.203125 0.51823,-0.203125 0.125,0 0.244792,0.03516 0.121093,0.03516 0.221354,0.08594 v 0.272136 h -0.01302 q -0.111979,-0.08724 -0.231771,-0.134115 -0.11849,-0.04687 -0.231771,-0.04687 -0.208334,0 -0.329428,0.140625 -0.119791,0.139323 -0.119791,0.410157 0,0.263021 0.117187,0.404948 0.11849,0.140625 0.332032,0.140625 0.07422,0 0.151042,-0.01953 0.07682,-0.01953 0.138021,-0.05078 0.05339,-0.02734 0.10026,-0.05729 0.04687,-0.03125 0.07422,-0.05338 h 0.01302 z"
       style="font-size:2.66667px"
       id="path64" />
    <path
       d="m 12.735279,17.095043 h -1.071616 q 0,0.134115 0.04036,0.234376 0.04037,0.09896 0.110677,0.16276 0.06771,0.0625 0.160157,0.09375 0.09375,0.03125 0.205729,0.03125 0.148438,0 0.298178,-0.05859 0.151041,-0.0599 0.214844,-0.117188 h 0.01302 v 0.266927 q -0.123698,0.05208 -0.252604,0.08724 -0.128906,0.03516 -0.270834,0.03516 -0.361979,0 -0.565105,-0.195312 -0.203125,-0.196615 -0.203125,-0.557293 0,-0.356771 0.194011,-0.566407 0.195313,-0.209635 0.513021,-0.209635 0.294272,0 0.453126,0.171875 0.160156,0.171875 0.160156,0.488282 z m -0.238281,-0.1875 q -0.0013,-0.192708 -0.09766,-0.298177 -0.09505,-0.105469 -0.290365,-0.105469 -0.196614,0 -0.313802,0.115885 -0.115886,0.115886 -0.131511,0.287761 z"
       style="font-size:2.66667px"
       id="path66" />
    <path
       d="m 14.145437,17.377596 q 0,0.199219 -0.165365,0.326823 -0.164063,0.127604 -0.449219,0.127604 -0.161459,0 -0.296876,-0.03776 -0.134115,-0.03906 -0.225261,-0.08464 v -0.274739 h 0.01302 q 0.115886,0.08724 0.257813,0.139323 0.141927,0.05078 0.272136,0.05078 0.161458,0 0.252604,-0.05208 0.09115,-0.05208 0.09115,-0.164063 0,-0.08594 -0.04948,-0.130209 -0.04948,-0.04427 -0.190104,-0.07552 -0.05208,-0.01172 -0.136719,-0.02734 -0.08333,-0.01563 -0.152344,-0.03385 -0.191407,-0.05078 -0.272136,-0.148437 -0.07943,-0.09896 -0.07943,-0.242188 0,-0.08984 0.03646,-0.169271 0.03776,-0.07943 0.113282,-0.141927 0.07292,-0.0612 0.184896,-0.09635 0.113281,-0.03646 0.252604,-0.03646 0.130209,0 0.263021,0.03255 0.134115,0.03125 0.222657,0.07682 v 0.261719 h -0.01302 q -0.09375,-0.06901 -0.227865,-0.115885 -0.134115,-0.04818 -0.263021,-0.04818 -0.134115,0 -0.226563,0.05208 -0.09245,0.05078 -0.09245,0.152344 0,0.08984 0.05599,0.135417 0.05469,0.04557 0.177083,0.07422 0.06771,0.01563 0.151042,0.03125 0.08464,0.01563 0.140625,0.02864 0.170574,0.03906 0.263022,0.134115 0.09245,0.09635 0.09245,0.255209 z"
       style="font-size:2.66667px"
       id="path68" />
  </g>
</svg>
