<?xml version="1.0" encoding="UTF-8" standalone="no"?>
<svg
   xmlns:dc="http://purl.org/dc/elements/1.1/"
   xmlns:cc="http://creativecommons.org/ns#"
   xmlns:rdf="http://www.w3.org/1999/02/22-rdf-syntax-ns#"
   xmlns:svg="http://www.w3.org/2000/svg"
   xmlns="http://www.w3.org/2000/svg"
   xmlns:xlink="http://www.w3.org/1999/xlink"
   xmlns:sodipodi="http://sodipodi.sourceforge.net/DTD/sodipodi-0.dtd"
   xmlns:inkscape="http://www.inkscape.org/namespaces/inkscape"
   viewBox="0 0 64 64"
   version="1.1"
   id="svg36"
   sodipodi:docname="azure-ml.svg"
   inkscape:version="1.0.1 (3bc2e813f5, 2020-09-07)">
  <metadata
     id="metadata40">
    <rdf:RDF>
      <cc:Work
         rdf:about="">
        <dc:format>image/svg+xml</dc:format>
        <dc:type
           rdf:resource="http://purl.org/dc/dcmitype/StillImage" />
      </cc:Work>
    </rdf:RDF>
  </metadata>
  <sodipodi:namedview
     pagecolor="#ffffff"
     bordercolor="#666666"
     borderopacity="1"
     objecttolerance="10"
     gridtolerance="10"
     guidetolerance="10"
     inkscape:pageopacity="0"
     inkscape:pageshadow="2"
     inkscape:window-width="1920"
     inkscape:window-height="1017"
     id="namedview38"
     showgrid="false"
     inkscape:zoom="13.28125"
     inkscape:cx="41.320305"
     inkscape:cy="33.188368"
     inkscape:window-x="-8"
     inkscape:window-y="-8"
     inkscape:window-maximized="1"
     inkscape:current-layer="svg36" />
  <defs
     id="defs26">
    <radialGradient
       id="a"
       cx="24.04"
       cy="2101.86"
       r="23.44"
       gradientTransform="translate(1.76 -2104)"
       gradientUnits="userSpaceOnUse">
      <stop
         offset="0"
         stop-color="#0e90cf"
         id="stop2" />
      <stop
         offset="1"
         stop-color="#006daa"
         id="stop4" />
    </radialGradient>
    <radialGradient
       id="b"
       cx="30.72"
       cy="2151.5"
       r="29.47"
       gradientTransform="matrix(0.69043138,0,0,0.69043138,10.568414,-1452.3665)"
       gradientUnits="userSpaceOnUse">
      <stop
         offset="0"
         stop-color="#1a447a"
         id="stop7" />
      <stop
         offset=".27"
         stop-color="#163e68"
         id="stop9" />
      <stop
         offset=".72"
         stop-color="#103651"
         id="stop11" />
      <stop
         offset="1"
         stop-color="#0e3348"
         id="stop13" />
    </radialGradient>
    <radialGradient
       id="c"
       cx=".25"
       cy="2151.79"
       r="29.65"
       gradientTransform="matrix(0.69043138,0,0,0.69043138,10.568414,-1452.3665)"
       gradientUnits="userSpaceOnUse">
      <stop
         offset="0"
         stop-color="#49bdea"
         id="stop16" />
      <stop
         offset=".36"
         stop-color="#2ea4de"
         id="stop18" />
      <stop
         offset=".75"
         stop-color="#178ed3"
         id="stop20" />
      <stop
         offset="1"
         stop-color="#0e86cf"
         id="stop22" />
    </radialGradient>
    <radialGradient
       id="d"
       cx="42.3"
       cy="2131.97"
       r="18.61"
       xlink:href="#a"
       gradientTransform="matrix(0.69043138,0,0,0.69043138,9.3532548,0.30117647)" />
    <radialGradient
       inkscape:collect="always"
       xlink:href="#a"
       id="radialGradient42"
       gradientUnits="userSpaceOnUse"
       gradientTransform="matrix(0.69043138,0,0,0.69043138,10.568414,-1452.3665)"
       cx="24.04"
       cy="2101.86"
       r="23.44" />
  </defs>
  <path
     fill="url(#a)"
     d="M 25.895991,0.30117647 H 36.915276 V 16.885337 H 25.895991 Z"
     id="path28"
     style="fill:url(#radialGradient42);stroke-width:0.690431" />
  <path
     fill="url(#b)"
     d="M 49.425892,44.488784 H 13.468227 L 10.734118,33.462595 H 52.16 Z"
     id="path30"
     style="fill:url(#b);stroke-width:0.690431" />
  <path
     fill="url(#c)"
     d="M 13.468227,44.488784 10.734118,33.462595 25.895991,16.885337 h 11.102136 z"
     id="path32"
     style="fill:url(#c);stroke-width:0.690431" />
  <path
     fill="url(#d)"
     d="M 49.425892,44.488784 32.855539,27.904623 39.732236,19.619446 52.16,33.462595 Z"
     id="path34"
     style="fill:url(#d);stroke-width:0.690431" />
  <g
     aria-label="ML Service"
     id="text46"
     style="font-size:10.6667px;line-height:1.25;font-family:sans-serif">
    <path
       d="M 11.185589,57.374119 H 10.154335 V 50.691806 L 7.9980785,55.238695 H 7.3834932 L 5.2428615,50.691806 v 6.682313 H 4.2793168 v -7.755233 h 1.4062544 l 2.0677149,4.317722 2.0000063,-4.317722 h 1.4322966 z"
       style="font-size:10.6667px"
       id="path48" />
    <path
       d="m 18.175194,57.374119 h -4.906266 v -7.755233 h 1.031254 v 6.838563 h 3.875012 z"
       style="font-size:10.6667px"
       id="path50" />
    <path
       d="m 28.591894,55.16057 q 0,0.453127 -0.213542,0.895836 -0.208334,0.44271 -0.588544,0.750003 -0.416668,0.333334 -0.973961,0.520835 -0.552085,0.1875 -1.333337,0.1875 -0.838545,0 -1.510422,-0.15625 -0.666669,-0.156251 -1.359379,-0.463543 V 55.60328 h 0.07292 q 0.588543,0.489585 1.359379,0.755211 0.770836,0.265625 1.447921,0.265625 0.958337,0 1.489588,-0.359376 0.53646,-0.359376 0.53646,-0.958336 0,-0.515627 -0.255209,-0.760419 -0.250001,-0.244793 -0.765627,-0.38021 -0.390627,-0.104167 -0.848961,-0.171875 -0.453127,-0.06771 -0.963545,-0.171876 -1.031253,-0.21875 -1.531255,-0.744794 -0.494793,-0.531251 -0.494793,-1.380212 0,-0.973962 0.822919,-1.593755 0.822919,-0.625002 2.088548,-0.625002 0.817711,0 1.500005,0.15625 0.682294,0.156251 1.208337,0.385418 v 1.218754 h -0.07292 q -0.442709,-0.375001 -1.16667,-0.619794 -0.718752,-0.250001 -1.473963,-0.250001 -0.828128,0 -1.333337,0.343751 -0.500002,0.343752 -0.500002,0.88542 0,0.484376 0.250001,0.760419 0.250001,0.276042 0.880211,0.421876 0.333334,0.07292 0.94792,0.177084 0.614585,0.104167 1.04167,0.213543 0.864586,0.229167 1.302087,0.69271 0.437501,0.463543 0.437501,1.296879 z"
       style="font-size:10.6667px"
       id="path52" />
    <path
       d="m 35.039831,54.566818 h -4.286472 q 0,0.53646 0.161459,0.937503 0.161458,0.395835 0.442709,0.651044 0.270834,0.250001 0.640627,0.375001 0.375002,0.125001 0.82292,0.125001 0.593751,0 1.192712,-0.234376 0.604168,-0.239584 0.859377,-0.468752 h 0.05208 v 1.067712 q -0.494793,0.208334 -1.01042,0.348959 -0.515627,0.140626 -1.083337,0.140626 -1.447921,0 -2.260424,-0.781253 -0.812502,-0.78646 -0.812502,-2.229173 0,-1.427088 0.776044,-2.265632 0.781252,-0.838545 2.05209,-0.838545 1.177087,0 1.812506,0.687502 0.640627,0.687503 0.640627,1.953132 z m -0.953128,-0.750002 q -0.0052,-0.770836 -0.390627,-1.192712 -0.380209,-0.421877 -1.161462,-0.421877 -0.78646,0 -1.255212,0.463544 -0.463543,0.463543 -0.526043,1.151045 z"
       style="font-size:10.6667px"
       id="path54" />
    <path
       d="m 40.154428,52.624104 h -0.05208 q -0.218751,-0.05208 -0.427085,-0.07292 -0.203125,-0.02604 -0.484376,-0.02604 -0.453127,0 -0.875003,0.203126 -0.421876,0.197917 -0.812503,0.515626 v 4.130222 h -0.979169 v -5.817727 h 0.979169 v 0.859378 q 0.583336,-0.468752 1.026045,-0.661461 0.447918,-0.197917 0.911462,-0.197917 0.255209,0 0.369792,0.01563 0.114584,0.01042 0.343751,0.04687 z"
       style="font-size:10.6667px"
       id="path56" />
    <path
       d="m 46.107572,51.556392 -2.354174,5.817727 H 42.76902 l -2.338549,-5.817727 h 1.062503 l 1.802089,4.630223 1.786464,-4.630223 z"
       style="font-size:10.6667px"
       id="path58" />
    <path
       d="m 48.440916,50.582431 h -1.104171 v -1.015629 h 1.104171 z m -0.0625,6.791688 h -0.979169 v -5.817727 h 0.979169 z"
       style="font-size:10.6667px"
       id="path60" />
    <path
       d="m 54.618019,57.009534 q -0.489585,0.234376 -0.932294,0.364585 -0.437502,0.130209 -0.932295,0.130209 -0.63021,0 -1.156254,-0.182293 -0.526043,-0.1875 -0.901044,-0.562501 -0.38021,-0.375002 -0.588544,-0.94792 -0.208334,-0.572919 -0.208334,-1.338546 0,-1.427088 0.781253,-2.23959 0.786461,-0.812503 2.072923,-0.812503 0.500002,0 0.97917,0.140625 0.484376,0.140626 0.885419,0.343752 v 1.088545 h -0.05208 q -0.447918,-0.34896 -0.927086,-0.53646 -0.47396,-0.187501 -0.927087,-0.187501 -0.833336,0 -1.317712,0.562502 -0.479168,0.557293 -0.479168,1.64063 0,1.052087 0.468751,1.619797 0.47396,0.562502 1.328129,0.562502 0.296876,0 0.604169,-0.07813 0.307292,-0.07813 0.552085,-0.203125 0.213542,-0.109376 0.401043,-0.229168 0.1875,-0.125 0.296876,-0.213542 h 0.05208 z"
       style="font-size:10.6667px"
       id="path62" />
    <path
       d="m 60.743038,54.566818 h -4.286472 q 0,0.53646 0.161459,0.937503 0.161458,0.395835 0.442709,0.651044 0.270835,0.250001 0.640627,0.375001 0.375002,0.125001 0.82292,0.125001 0.593751,0 1.192712,-0.234376 0.604168,-0.239584 0.859377,-0.468752 h 0.05208 v 1.067712 q -0.494793,0.208334 -1.01042,0.348959 -0.515627,0.140626 -1.083337,0.140626 -1.447921,0 -2.260424,-0.781253 -0.812502,-0.78646 -0.812502,-2.229173 0,-1.427088 0.776044,-2.265632 0.781253,-0.838545 2.05209,-0.838545 1.177087,0 1.812506,0.687502 0.640627,0.687503 0.640627,1.953132 z M 59.78991,53.816816 q -0.0052,-0.770836 -0.390627,-1.192712 -0.380209,-0.421877 -1.161462,-0.421877 -0.78646,0 -1.255212,0.463544 -0.463543,0.463543 -0.526043,1.151045 z"
       style="font-size:10.6667px"
       id="path64" />
  </g>
</svg>
