<?xml version="1.0" encoding="UTF-8" standalone="no"?>
<svg
   xmlns:dc="http://purl.org/dc/elements/1.1/"
   xmlns:cc="http://creativecommons.org/ns#"
   xmlns:rdf="http://www.w3.org/1999/02/22-rdf-syntax-ns#"
   xmlns:svg="http://www.w3.org/2000/svg"
   xmlns="http://www.w3.org/2000/svg"
   xmlns:sodipodi="http://sodipodi.sourceforge.net/DTD/sodipodi-0.dtd"
   xmlns:inkscape="http://www.inkscape.org/namespaces/inkscape"
   width="210mm"
   height="297mm"
   viewBox="0 0 210 297"
   version="1.1"
   id="svg199"
   inkscape:version="1.0.1 (3bc2e813f5, 2020-09-07)"
   sodipodi:docname="azure-data-lake.svg">
  <defs
     id="defs193" />
  <sodipodi:namedview
     id="base"
     pagecolor="#ffffff"
     bordercolor="#666666"
     borderopacity="1.0"
     inkscape:pageopacity="0.0"
     inkscape:pageshadow="2"
     inkscape:zoom="0.35"
     inkscape:cx="400"
     inkscape:cy="560"
     inkscape:document-units="mm"
     inkscape:current-layer="layer1"
     inkscape:document-rotation="0"
     showgrid="false"
     inkscape:window-width="1267"
     inkscape:window-height="1040"
     inkscape:window-x="78"
     inkscape:window-y="0"
     inkscape:window-maximized="0" />
  <metadata
     id="metadata196">
    <rdf:RDF>
      <cc:Work
         rdf:about="">
        <dc:format>image/svg+xml</dc:format>
        <dc:type
           rdf:resource="http://purl.org/dc/dcmitype/StillImage" />
        <dc:title></dc:title>
      </cc:Work>
    </rdf:RDF>
  </metadata>
  <g
     inkscape:label="Layer 1"
     inkscape:groupmode="layer"
     id="layer1">
    <path
       d="M 36.545421,38.805686 V 171.91588 c 0,13.9353 30.606208,24.9307 68.859059,24.9307 V 38.805686 Z"
       fill="#3e3e3e"
       id="path16"
       style="stroke-width:6.5919" />
    <path
       d="m 104.32346,197.21557 h 1.08874 c 37.89037,0 68.85905,-11.36439 68.85905,-24.93718 V 38.805686 H 104.3247 Z"
       fill="#a0a1a2"
       id="path18"
       style="stroke-width:6.5919" />
    <path
       d="m 104.31025,197.22229 v -65.99814 c -10.197652,0 -18.945302,-5.5043 -24.040771,-13.57279 -5.102186,8.06849 -13.480359,13.57279 -23.684745,13.57279 -8.015691,0 -14.937126,-3.30263 -20.039313,-8.80021 v 49.86764 c 0,13.56632 30.243699,24.56821 67.764829,24.93071 z"
       fill="#3999c6"
       id="path20"
       style="stroke-width:6.5919" />
    <path
       d="m 153.12975,131.22415 c -10.19766,0 -19.30755,-5.5043 -24.40975,-13.57279 -4.73296,8.06849 -13.48036,13.20357 -23.67802,13.57279 v 65.99814 c 37.89011,0 68.85879,-11.36439 68.85879,-24.93071 v -50.23686 c -5.10194,5.49783 -12.38612,9.16943 -20.77102,9.16943 z"
       fill="#59b4d9"
       id="path22"
       style="stroke-width:6.5919" />
    <path
       d="m 174.27647,37.737861 c 0,13.856069 -30.60616,24.805395 -68.85878,24.805395 -38.252864,0 -68.859064,-10.949326 -68.859064,-24.805395 0,-13.500292 30.96871,-24.805389 68.859064,-24.805389 37.89011,0 68.85878,11.305097 68.85878,24.805389 z"
       fill="#ffffff"
       id="path24"
       style="stroke-width:6.5919" />
    <path
       d="m 160.07111,36.274397 c 0,9.116627 -24.40975,16.413767 -54.64694,16.413767 -30.23695,0 -54.646728,-7.29714 -54.646728,-16.413767 0,-9.123105 24.409778,-16.420493 54.646728,-16.420493 30.23719,0 54.64694,7.297388 54.64694,16.420493 z"
       fill="#7fba00"
       id="path26"
       style="stroke-width:6.5919" />
    <path
       d="m 148.77922,46.48526 c 7.28393,-2.913474 11.29189,-6.202905 11.29189,-10.210863 0,-9.123105 -24.40975,-16.420493 -54.64694,-16.420493 -30.23695,0 -54.646728,7.297388 -54.646728,16.420493 0,3.645455 4.370245,7.297389 11.291914,10.210863 9.835161,-4.007958 25.503992,-6.565408 43.354814,-6.565408 17.48832,0 33.15067,2.55745 43.35505,6.565408 z"
       fill="#b8d432"
       id="path28"
       style="stroke-width:6.5919" />
    <g
       aria-label="Data Lake 
Storage"
       id="text221"
       style="font-style:normal;font-weight:normal;font-size:32.7237px;line-height:1.25;font-family:sans-serif;fill:#000000;fill-opacity:1;stroke:none;stroke-width:0.340871">
      <path
         d="m 45.353161,222.7459 q 0,3.24361 -1.422075,5.88004 -1.406097,2.63643 -3.754917,4.09046 -1.629794,1.00664 -3.643068,1.45403 -1.997297,0.4474 -5.272862,0.4474 h -6.007867 v -23.79179 h 5.943953 q 3.483285,0 5.528516,0.5113 2.06121,0.49533 3.483285,1.37414 2.428712,1.51795 3.786873,4.04253 1.358162,2.52458 1.358162,5.99189 z m -3.307523,-0.0479 q 0,-2.79621 -0.97468,-4.71361 -0.974681,-1.91741 -2.908064,-3.01992 -1.406096,-0.79892 -2.987955,-1.1025 -1.581858,-0.31957 -3.786873,-0.31957 h -2.971977 v 18.35915 h 2.971977 q 2.284906,0 3.978614,-0.33555 1.709685,-0.33555 3.13176,-1.24631 1.773599,-1.13447 2.65241,-2.98796 0.894788,-1.85349 0.894788,-4.63373 z"
         style="font-size:32.7237px;text-align:center;text-anchor:middle;stroke-width:0.340871"
         id="path225" />
      <path
         d="m 64.095788,234.61783 h -2.987955 v -1.90143 q -0.399459,0.27163 -1.086529,0.76696 -0.671092,0.47936 -1.310226,0.76697 -0.750984,0.3675 -1.725664,0.60717 -0.974681,0.25566 -2.284907,0.25566 -2.412734,0 -4.090463,-1.59784 -1.677729,-1.59784 -1.677729,-4.07448 0,-2.02926 0.862832,-3.27557 0.878811,-1.26229 2.492626,-1.98132 1.629794,-0.71902 3.914701,-0.97468 2.284906,-0.25565 4.905359,-0.38348 v -0.46337 q 0,-1.02262 -0.367502,-1.69371 -0.351525,-0.67109 -1.022616,-1.05457 -0.639135,-0.3675 -1.533924,-0.49533 -0.894788,-0.12783 -1.869469,-0.12783 -1.182399,0 -2.636431,0.31957 -1.454032,0.30359 -3.003933,0.89479 h -0.159784 v -3.05187 q 0.87881,-0.23968 2.540561,-0.52729 1.66175,-0.28761 3.275565,-0.28761 1.885448,0 3.275566,0.31957 1.406097,0.30359 2.428713,1.05457 1.006637,0.73501 1.533923,1.90143 0.527286,1.16642 0.527286,2.89208 z m -2.987955,-4.39405 v -4.96928 q -1.37414,0.0799 -3.243609,0.23968 -1.853491,0.15978 -2.94002,0.46337 -1.294248,0.3675 -2.093167,1.15044 -0.798918,0.76697 -0.798918,2.12513 0,1.53392 0.926745,2.31686 0.926746,0.76696 2.828172,0.76696 1.581859,0 2.892085,-0.60717 1.310226,-0.62316 2.428712,-1.48599 z"
         style="font-size:32.7237px;text-align:center;text-anchor:middle;stroke-width:0.340871"
         id="path227" />
      <path
         d="m 79.147414,234.45804 q -0.846853,0.2237 -1.853491,0.36751 -0.990659,0.1438 -1.773599,0.1438 -2.732301,0 -4.154376,-1.47001 -1.422075,-1.47001 -1.422075,-4.71362 v -9.49115 H 67.91462 v -2.52458 h 2.029253 v -5.12906 h 3.003934 v 5.12906 h 6.199607 v 2.52458 h -6.199607 v 8.13299 q 0,1.4061 0.06391,2.20502 0.06391,0.78294 0.447395,1.47001 0.351524,0.63913 0.958702,0.94272 0.623156,0.28761 1.885447,0.28761 0.735005,0 1.533924,-0.20772 0.798918,-0.22369 1.150443,-0.3675 h 0.159783 z"
         style="font-size:32.7237px;text-align:center;text-anchor:middle;stroke-width:0.340871"
         id="path229" />
      <path
         d="m 96.643728,234.61783 h -2.987956 v -1.90143 q -0.399459,0.27163 -1.086529,0.76696 -0.671091,0.47936 -1.310226,0.76697 -0.750984,0.3675 -1.725664,0.60717 -0.974681,0.25566 -2.284907,0.25566 -2.412734,0 -4.090463,-1.59784 -1.677728,-1.59784 -1.677728,-4.07448 0,-2.02926 0.862831,-3.27557 0.878811,-1.26229 2.492626,-1.98132 1.629794,-0.71902 3.914701,-0.97468 2.284907,-0.25565 4.905359,-0.38348 v -0.46337 q 0,-1.02262 -0.367502,-1.69371 -0.351524,-0.67109 -1.022616,-1.05457 -0.639135,-0.3675 -1.533923,-0.49533 -0.894789,-0.12783 -1.86947,-0.12783 -1.182399,0 -2.636431,0.31957 -1.454031,0.30359 -3.003933,0.89479 h -0.159784 v -3.05187 q 0.87881,-0.23968 2.540561,-0.52729 1.66175,-0.28761 3.275566,-0.28761 1.885447,0 3.275566,0.31957 1.406096,0.30359 2.428712,1.05457 1.006637,0.73501 1.533923,1.90143 0.527287,1.16642 0.527287,2.89208 z m -2.987956,-4.39405 v -4.96928 q -1.374139,0.0799 -3.243609,0.23968 -1.853491,0.15978 -2.94002,0.46337 -1.294248,0.3675 -2.093166,1.15044 -0.798919,0.76697 -0.798919,2.12513 0,1.53392 0.926746,2.31686 0.926745,0.76696 2.828171,0.76696 1.581859,0 2.892085,-0.60717 1.310226,-0.62316 2.428712,-1.48599 z"
         style="font-size:32.7237px;text-align:center;text-anchor:middle;stroke-width:0.340871"
         id="path231" />
      <path
         d="M 129.22362,234.61783 H 114.172 v -23.79179 h 3.16371 v 20.9796 h 11.88791 z"
         style="font-size:32.7237px;text-align:center;text-anchor:middle;stroke-width:0.340871"
         id="path233" />
      <path
         d="m 146.01689,234.61783 h -2.98795 v -1.90143 q -0.39946,0.27163 -1.08653,0.76696 -0.67109,0.47936 -1.31023,0.76697 -0.75098,0.3675 -1.72566,0.60717 -0.97468,0.25566 -2.28491,0.25566 -2.41273,0 -4.09046,-1.59784 -1.67773,-1.59784 -1.67773,-4.07448 0,-2.02926 0.86283,-3.27557 0.87881,-1.26229 2.49263,-1.98132 1.62979,-0.71902 3.9147,-0.97468 2.2849,-0.25565 4.90536,-0.38348 v -0.46337 q 0,-1.02262 -0.36751,-1.69371 -0.35152,-0.67109 -1.02261,-1.05457 -0.63914,-0.3675 -1.53392,-0.49533 -0.89479,-0.12783 -1.86947,-0.12783 -1.1824,0 -2.63643,0.31957 -1.45404,0.30359 -3.00394,0.89479 h -0.15978 v -3.05187 q 0.87881,-0.23968 2.54056,-0.52729 1.66175,-0.28761 3.27556,-0.28761 1.88545,0 3.27557,0.31957 1.4061,0.30359 2.42871,1.05457 1.00664,0.73501 1.53393,1.90143 0.52728,1.16642 0.52728,2.89208 z m -2.98795,-4.39405 v -4.96928 q -1.37414,0.0799 -3.24361,0.23968 -1.85349,0.15978 -2.94002,0.46337 -1.29425,0.3675 -2.09317,1.15044 -0.79892,0.76697 -0.79892,2.12513 0,1.53392 0.92675,2.31686 0.92674,0.76696 2.82817,0.76696 1.58186,0 2.89209,-0.60717 1.31022,-0.62316 2.42871,-1.48599 z"
         style="font-size:32.7237px;text-align:center;text-anchor:middle;stroke-width:0.340871"
         id="path235" />
      <path
         d="m 168.00312,234.61783 h -3.96263 l -7.15831,-7.81342 -1.94936,1.85349 v 5.95993 h -3.00394 v -24.86235 h 3.00394 v 15.94642 l 8.67625,-8.93191 h 3.78688 l -8.29278,8.24484 z"
         style="font-size:32.7237px;text-align:center;text-anchor:middle;stroke-width:0.340871"
         id="path237" />
      <path
         d="m 185.78705,226.00549 h -13.1502 q 0,1.64577 0.49533,2.8761 0.49533,1.21436 1.35816,1.9973 0.83088,0.76696 1.96534,1.15044 1.15045,0.38348 2.52459,0.38348 1.82153,0 3.65904,-0.71902 1.85349,-0.73501 2.63643,-1.43806 h 0.15979 v 3.27557 q -1.51795,0.63913 -3.09981,1.07055 -1.58186,0.43142 -3.3235,0.43142 -4.44198,0 -6.93461,-2.39676 -2.49263,-2.41273 -2.49263,-6.83874 0,-4.37808 2.38078,-6.95059 2.39676,-2.57252 6.29548,-2.57252 3.61111,0 5.56047,2.10914 1.96534,2.10915 1.96534,5.99189 z m -2.92404,-2.30089 q -0.016,-2.3648 -1.19838,-3.65904 -1.16642,-1.29425 -3.56317,-1.29425 -2.41274,0 -3.85079,1.42207 -1.42208,1.42208 -1.61382,3.53122 z"
         style="font-size:32.7237px;text-align:center;text-anchor:middle;stroke-width:0.340871"
         id="path239" />
      <path
         d="m 66.931949,268.73165 q 0,1.39012 -0.655113,2.74828 -0.639135,1.35816 -1.805556,2.30088 -1.278269,1.02262 -2.987955,1.59784 -1.693707,0.57522 -4.090462,0.57522 -2.572518,0 -4.633728,-0.47935 -2.045231,-0.47935 -4.170354,-1.42207 v -3.96264 h 0.223697 q 1.805556,1.50197 4.170354,2.31686 2.364799,0.8149 4.441987,0.8149 2.94002,0 4.569814,-1.10251 1.645772,-1.10251 1.645772,-2.94002 0,-1.58186 -0.78294,-2.33284 -0.766962,-0.75098 -2.34882,-1.16642 -1.198378,-0.31957 -2.604475,-0.52729 -1.390118,-0.20772 -2.955998,-0.52728 -3.163717,-0.67109 -4.697641,-2.28491 -1.517945,-1.62979 -1.517945,-4.23427 0,-2.98795 2.524582,-4.88938 2.524583,-1.9174 6.407327,-1.9174 2.508604,0 4.60177,0.47935 2.093167,0.47935 3.706982,1.1824 v 3.73894 H 65.74955 q -1.358161,-1.15045 -3.579155,-1.90143 -2.205015,-0.76696 -4.521879,-0.76696 -2.54056,0 -4.090462,1.05457 -1.533924,1.05457 -1.533924,2.71632 0,1.48599 0.766962,2.33285 0.766962,0.84685 2.700345,1.29424 1.022615,0.2237 2.908063,0.54327 1.885447,0.31956 3.195674,0.65511 2.652409,0.70305 3.994592,2.12512 1.342183,1.42208 1.342183,3.97862 z"
         style="font-size:32.7237px;text-align:center;text-anchor:middle;stroke-width:0.340871"
         id="path241" />
      <path
         d="m 81.040851,275.36267 q -0.846854,0.2237 -1.853491,0.3675 -0.990659,0.14381 -1.773599,0.14381 -2.732302,0 -4.154376,-1.47001 -1.422075,-1.47001 -1.422075,-4.71362 v -9.49115 h -2.029253 v -2.52458 h 2.029253 v -5.12906 h 3.003933 v 5.12906 h 6.199608 v 2.52458 h -6.199608 v 8.13299 q 0,1.4061 0.06391,2.20501 0.06391,0.78294 0.447394,1.47001 0.351524,0.63914 0.958702,0.94273 0.623157,0.28761 1.885448,0.28761 0.735005,0 1.533923,-0.20772 0.798919,-0.2237 1.150443,-0.3675 h 0.159784 z"
         style="font-size:32.7237px;text-align:center;text-anchor:middle;stroke-width:0.340871"
         id="path243" />
      <path
         d="m 99.879349,266.60652 q 0,4.3621 -2.236972,6.88668 -2.236972,2.52458 -5.991889,2.52458 -3.786873,0 -6.023845,-2.52458 -2.220993,-2.52458 -2.220993,-6.88668 0,-4.36209 2.220993,-6.88667 2.236972,-2.54056 6.023845,-2.54056 3.754917,0 5.991889,2.54056 2.236972,2.52458 2.236972,6.88667 z m -3.099804,0 q 0,-3.4673 -1.358161,-5.14503 -1.358162,-1.69371 -3.770896,-1.69371 -2.44469,0 -3.802852,1.69371 -1.342183,1.67773 -1.342183,5.14503 0,3.35546 1.358162,5.0971 1.358161,1.72567 3.786873,1.72567 2.396756,0 3.754917,-1.70969 1.37414,-1.72566 1.37414,-5.11308 z"
         style="font-size:32.7237px;text-align:center;text-anchor:middle;stroke-width:0.340871"
         id="path245" />
      <path
         d="m 115.66598,260.95018 h -0.15978 q -0.6711,-0.15978 -1.31023,-0.2237 -0.62316,-0.0799 -1.48599,-0.0799 -1.39012,0 -2.68437,0.62316 -1.29424,0.60718 -2.49262,1.58186 v 12.67085 h -3.00393 v -17.84784 h 3.00393 v 2.63643 q 1.78958,-1.43806 3.14774,-2.02926 1.37414,-0.60717 2.79621,-0.60717 0.78294,0 1.13447,0.0479 0.35152,0.032 1.05457,0.14381 z"
         style="font-size:32.7237px;text-align:center;text-anchor:middle;stroke-width:0.340871"
         id="path247" />
      <path
         d="m 131.78815,275.52246 h -2.98795 v -1.90143 q -0.39946,0.27163 -1.08653,0.76696 -0.67109,0.47935 -1.31023,0.76696 -0.75098,0.36751 -1.72566,0.60718 -0.97468,0.25565 -2.28491,0.25565 -2.41273,0 -4.09046,-1.59783 -1.67773,-1.59784 -1.67773,-4.07449 0,-2.02925 0.86283,-3.27556 0.87881,-1.26229 2.49263,-1.98132 1.62979,-0.71903 3.9147,-0.97468 2.28491,-0.25565 4.90536,-0.38348 v -0.46337 q 0,-1.02262 -0.3675,-1.69371 -0.35153,-0.67109 -1.02262,-1.05457 -0.63913,-0.36751 -1.53392,-0.49533 -0.89479,-0.12783 -1.86947,-0.12783 -1.1824,0 -2.63643,0.31957 -1.45404,0.30359 -3.00394,0.89479 h -0.15978 v -3.05187 q 0.87881,-0.23968 2.54056,-0.52729 1.66175,-0.28761 3.27557,-0.28761 1.88544,0 3.27556,0.31957 1.4061,0.30359 2.42871,1.05457 1.00664,0.735 1.53393,1.90143 0.52728,1.16642 0.52728,2.89208 z m -2.98795,-4.39406 v -4.96927 q -1.37414,0.0799 -3.24361,0.23968 -1.85349,0.15978 -2.94002,0.46337 -1.29425,0.3675 -2.09317,1.15044 -0.79892,0.76696 -0.79892,2.12512 0,1.53393 0.92675,2.31687 0.92675,0.76696 2.82817,0.76696 1.58186,0 2.89209,-0.60718 1.31022,-0.62315 2.42871,-1.48599 z"
         style="font-size:32.7237px;text-align:center;text-anchor:middle;stroke-width:0.340871"
         id="path249" />
      <path
         d="m 152.04873,273.4932 q 0,4.53786 -2.06121,6.66298 -2.06121,2.12513 -6.34341,2.12513 -1.42208,0 -2.78024,-0.20772 -1.34218,-0.19174 -2.65241,-0.55925 v -3.06784 h 0.15978 q 0.73501,0.28761 2.33285,0.70305 1.59783,0.43141 3.19567,0.43141 1.53392,0 2.54056,-0.3675 1.00664,-0.3675 1.56588,-1.02262 0.55924,-0.62315 0.79892,-1.50196 0.23967,-0.87881 0.23967,-1.96534 v -1.6298 q -1.35816,1.08653 -2.60447,1.6298 -1.23033,0.52728 -3.14774,0.52728 -3.19567,0 -5.08112,-2.30088 -1.86947,-2.31687 -1.86947,-6.51918 0,-2.30088 0.63914,-3.96263 0.65511,-1.67773 1.77359,-2.89209 1.0386,-1.13446 2.52459,-1.75762 1.48599,-0.63913 2.956,-0.63913 1.5499,0 2.58849,0.31956 1.05457,0.30359 2.22099,0.94273 l 0.19175,-0.76696 h 2.81219 z m -3.00394,-2.8761 v -9.73083 q -1.19837,-0.54327 -2.23697,-0.76696 -1.02261,-0.23968 -2.04523,-0.23968 -2.47665,0 -3.89872,1.66175 -1.42208,1.66175 -1.42208,4.82547 0,3.00393 1.05458,4.55383 1.05457,1.54991 3.49926,1.54991 1.31023,0 2.62045,-0.49533 1.32621,-0.51131 2.42871,-1.35816 z"
         style="font-size:32.7237px;text-align:center;text-anchor:middle;stroke-width:0.340871"
         id="path251" />
      <path
         d="m 172.9005,266.91011 h -13.1502 q 0,1.64578 0.49533,2.87611 0.49533,1.21436 1.35816,1.9973 0.83088,0.76696 1.96534,1.15044 1.15044,0.38348 2.52458,0.38348 1.82154,0 3.65905,-0.71903 1.85349,-0.735 2.63643,-1.43805 h 0.15978 v 3.27557 q -1.51794,0.63913 -3.0998,1.07055 -1.58186,0.43141 -3.3235,0.43141 -4.44199,0 -6.93461,-2.39675 -2.49263,-2.41274 -2.49263,-6.83874 0,-4.37808 2.38078,-6.9506 2.39675,-2.57251 6.29548,-2.57251 3.61111,0 5.56047,2.10914 1.96534,2.10915 1.96534,5.99189 z m -2.92404,-2.30088 q -0.016,-2.3648 -1.19838,-3.65905 -1.16642,-1.29425 -3.56318,-1.29425 -2.41273,0 -3.85078,1.42208 -1.42208,1.42207 -1.61382,3.53122 z"
         style="font-size:32.7237px;text-align:center;text-anchor:middle;stroke-width:0.340871"
         id="path253" />
    </g>
  </g>
</svg>
