<?xml version="1.0" encoding="UTF-8" standalone="no"?>
<svg
   xmlns:dc="http://purl.org/dc/elements/1.1/"
   xmlns:cc="http://creativecommons.org/ns#"
   xmlns:rdf="http://www.w3.org/1999/02/22-rdf-syntax-ns#"
   xmlns:svg="http://www.w3.org/2000/svg"
   xmlns="http://www.w3.org/2000/svg"
   xmlns:sodipodi="http://sodipodi.sourceforge.net/DTD/sodipodi-0.dtd"
   xmlns:inkscape="http://www.inkscape.org/namespaces/inkscape"
   id="f78ef37b-fde4-461c-94e2-dccff32dd5d7"
   width="18"
   height="18"
   viewBox="0 0 18 18"
   version="1.1"
   sodipodi:docname="azure-api-services.svg"
   inkscape:version="1.0.1 (3bc2e813f5, 2020-09-07)">
  <metadata
     id="metadata31">
    <rdf:RDF>
      <cc:Work
         rdf:about="">
        <dc:format>image/svg+xml</dc:format>
        <dc:type
           rdf:resource="http://purl.org/dc/dcmitype/StillImage" />
      </cc:Work>
    </rdf:RDF>
  </metadata>
  <sodipodi:namedview
     pagecolor="#ffffff"
     bordercolor="#666666"
     borderopacity="1"
     objecttolerance="10"
     gridtolerance="10"
     guidetolerance="10"
     inkscape:pageopacity="0"
     inkscape:pageshadow="2"
     inkscape:window-width="1920"
     inkscape:window-height="1017"
     id="namedview29"
     showgrid="false"
     inkscape:zoom="47.222222"
     inkscape:cx="9"
     inkscape:cy="8.2310456"
     inkscape:window-x="-8"
     inkscape:window-y="-8"
     inkscape:window-maximized="1"
     inkscape:current-layer="f78ef37b-fde4-461c-94e2-dccff32dd5d7"
     inkscape:document-rotation="0" />
  <defs
     id="defs20">
    <linearGradient
       id="bf8a9583-aae9-48ff-87d8-fb8f44e7d6bd"
       x1="9"
       y1="16.82"
       x2="9"
       y2="1.18"
       gradientUnits="userSpaceOnUse"
       gradientTransform="matrix(0.6016244,0,0,0.6016244,3.3968349,-0.54681465)">
      <stop
         offset="0"
         stop-color="#198ab3"
         id="stop2" />
      <stop
         offset="0.09"
         stop-color="#1f9dc4"
         id="stop4" />
      <stop
         offset="0.24"
         stop-color="#28b5d9"
         id="stop6" />
      <stop
         offset="0.4"
         stop-color="#2dc6e9"
         id="stop8" />
      <stop
         offset="0.57"
         stop-color="#31d1f2"
         id="stop10" />
      <stop
         offset="0.78"
         stop-color="#32d4f5"
         id="stop12" />
    </linearGradient>
    <linearGradient
       id="f9b1bb8c-728e-4abf-bce5-6c11ac170c5b"
       x1="8.36"
       y1="11.35"
       x2="8.36"
       y2="14.46"
       gradientUnits="userSpaceOnUse"
       gradientTransform="matrix(0.6016244,0,0,0.6016244,3.3968349,-0.54681465)">
      <stop
         offset="0"
         stop-color="#c69aeb"
         id="stop15" />
      <stop
         offset="1"
         stop-color="#6f4bb2"
         id="stop17" />
    </linearGradient>
  </defs>
  <title
     id="title22">Icon-web-42</title>
  <path
     d="M 11.927869,2.9967531 A 2.9178783,2.9178783 0 0 0 8.949828,0.16310213 3.008122,3.008122 0 0 0 6.0921122,2.1424465 2.7734885,2.7734885 0 0 0 3.6976471,4.8678049 a 2.8095859,2.8095859 0 0 0 2.8817808,2.7073102 1.8048732,1.8048732 0 0 0 0.2526823,0 H 7.5540595 A 0.88438787,0.88438787 0 0 1 7.487881,7.2382053 v 0 A 0.90845281,0.90845281 0 0 1 7.6082057,6.7990193 H 6.7659315 6.5794279 A 2.0515392,2.0515392 0 0 1 4.4617101,4.8678049 2.0034093,2.0034093 0 0 1 6.212437,2.9004931 L 6.6696717,2.8282984 6.8200777,2.3891126 A 2.2440589,2.2440589 0 0 1 8.949828,0.92716513 2.1658479,2.1658479 0 0 1 11.163805,3.0027693 v 0.6617868 l 0.655771,0.090244 a 1.5582072,1.5582072 0 0 1 1.359672,1.4980444 1.5822721,1.5822721 0 0 1 -1.576256,1.5281259 h -0.09024 -0.04813 -0.601625 a 2.3583676,2.3583676 0 0 0 -2.3282852,-1.9131655 0.38503961,0.38503961 0 1 0 0,0.764063 1.5943046,1.5943046 0 0 1 0,3.1825934 0.38503961,0.38503961 0 1 0 0,0.7640626 2.3583676,2.3583676 0 0 0 2.3282852,-2.0094256 h 0.631707 a 0.38503961,0.38503961 0 0 0 0.120325,0 2.3523514,2.3523514 0 0 0 2.310237,-2.3162538 2.3222702,2.3222702 0 0 0 -1.997393,-2.2560914 z"
     fill="url(#bf8a9583-aae9-48ff-87d8-fb8f44e7d6bd)"
     id="path24"
     style="fill:url(#bf8a9583-aae9-48ff-87d8-fb8f44e7d6bd);stroke-width:0.601624" />
  <rect
     x="7.4878807"
     y="6.2816229"
     width="1.877068"
     height="1.877068"
     rx="0.92650157"
     fill="url(#f9b1bb8c-728e-4abf-bce5-6c11ac170c5b)"
     id="rect26"
     style="fill:url(#f9b1bb8c-728e-4abf-bce5-6c11ac170c5b);stroke-width:0.601624" />
  <g
     aria-label="API Management"
     id="text35"
     style="font-size:1.33333px;line-height:1.25;font-family:sans-serif"
     transform="translate(-0.1482353,-2.52)">
    <path
       d="M 8.7050466,13.595294 H 8.5676772 L 8.4726253,13.325112 H 8.0533555 l -0.095052,0.270182 H 7.8274446 L 8.1803083,12.625895 H 8.3521829 Z M 8.4329119,13.214436 8.2629904,12.738525 8.0924179,13.214436 Z"
       style="font-size:1.33333px;text-align:center;text-anchor:middle"
       id="path39" />
    <path
       d="m 9.4862947,12.918863 q 0,0.06445 -0.022786,0.119792 -0.022135,0.05469 -0.0625,0.09505 -0.05013,0.05013 -0.1184893,0.07552 -0.068359,0.02474 -0.1725256,0.02474 h -0.128906 v 0.361327 H 8.8521817 v -0.969399 h 0.2630202 q 0.087239,0 0.1477861,0.01497 0.060547,0.01432 0.1074216,0.04557 0.055338,0.03711 0.085286,0.09245 0.030599,0.05534 0.030599,0.139973 z m -0.1341142,0.0033 q 0,-0.05013 -0.017578,-0.08724 -0.017578,-0.03711 -0.053385,-0.06055 -0.03125,-0.02018 -0.071614,-0.02864 -0.039713,-0.0091 -0.1009112,-0.0091 H 8.9810876 v 0.387369 h 0.1087237 q 0.078125,0 0.1269528,-0.01367 0.048828,-0.01432 0.079427,-0.04492 0.030599,-0.03125 0.042969,-0.06575 0.013021,-0.0345 0.013021,-0.07747 z"
       style="font-size:1.33333px;text-align:center;text-anchor:middle"
       id="path41" />
    <path
       d="M 9.9980122,13.595294 H 9.6152007 v -0.09896 H 9.7421535 V 12.724853 H 9.6152007 v -0.09896 h 0.3828115 v 0.09896 H 9.8710594 v 0.771483 h 0.1269528 z"
       style="font-size:1.33333px;text-align:center;text-anchor:middle"
       id="path43" />
    <path
       d="M 5.6152105,15.261957 H 5.4863046 V 14.426672 L 5.216774,14.99503 H 5.1399513 L 4.8723738,14.426672 v 0.835285 H 4.7519314 v -0.969399 h 0.1757808 l 0.2584629,0.539712 0.2499994,-0.539712 h 0.179036 z"
       style="font-size:1.33333px;text-align:center;text-anchor:middle"
       id="path45" />
    <path
       d="M 6.4309637,15.261957 H 6.3092192 v -0.07747 q -0.016276,0.01107 -0.044271,0.03125 -0.027344,0.01953 -0.053385,0.03125 -0.030599,0.01497 -0.070312,0.02474 -0.039714,0.01042 -0.093099,0.01042 -0.098307,0 -0.1666662,-0.0651 -0.068359,-0.0651 -0.068359,-0.166015 0,-0.08268 0.035156,-0.133464 0.035807,-0.05143 0.1015622,-0.08073 0.066406,-0.0293 0.1595048,-0.03971 0.093099,-0.01042 0.1998693,-0.01563 v -0.01888 q 0,-0.04167 -0.014974,-0.06901 -0.014323,-0.02734 -0.041667,-0.04297 -0.026042,-0.01497 -0.0625,-0.02018 -0.036458,-0.0052 -0.076172,-0.0052 -0.048177,0 -0.1074216,0.01302 -0.059245,0.01237 -0.1223955,0.03646 h -0.00651 V 14.55037 q 0.035807,-0.0098 0.1035153,-0.02148 0.067708,-0.01172 0.1334632,-0.01172 0.076823,0 0.1334632,0.01302 0.057292,0.01237 0.098958,0.04297 0.041016,0.02995 0.0625,0.07747 0.021484,0.04753 0.021484,0.117838 z M 6.3092192,15.082921 v -0.202474 q -0.055989,0.0033 -0.1321611,0.0098 -0.075521,0.0065 -0.1197914,0.01888 -0.052734,0.01497 -0.085286,0.04687 -0.032552,0.03125 -0.032552,0.08659 0,0.0625 0.03776,0.0944 0.03776,0.03125 0.1152341,0.03125 0.064453,0 0.1178382,-0.02474 0.053385,-0.02539 0.098958,-0.06055 z"
       style="font-size:1.33333px;text-align:center;text-anchor:middle"
       id="path47" />
    <path
       d="M 7.2747117,15.261957 H 7.1523162 v -0.414062 q 0,-0.05013 -0.00586,-0.09375 -0.00586,-0.04427 -0.021484,-0.06901 -0.016276,-0.02734 -0.046875,-0.04036 -0.030599,-0.01367 -0.079427,-0.01367 -0.05013,0 -0.1048174,0.02474 -0.054687,0.02474 -0.1048175,0.06315 v 0.542968 h -0.122395 v -0.727212 h 0.1223955 v 0.08073 q 0.057291,-0.04753 0.1184893,-0.07422 0.061198,-0.02669 0.1256507,-0.02669 0.1178383,0 0.1796871,0.07096 0.061849,0.07096 0.061849,0.204427 z"
       style="font-size:1.33333px;text-align:center;text-anchor:middle"
       id="path49" />
    <path
       d="M 8.0754909,15.261957 H 7.9537464 v -0.07747 q -0.016276,0.01107 -0.044271,0.03125 -0.027344,0.01953 -0.053385,0.03125 -0.030599,0.01497 -0.070312,0.02474 -0.039713,0.01042 -0.093099,0.01042 -0.098307,0 -0.1666662,-0.0651 -0.068359,-0.0651 -0.068359,-0.166015 0,-0.08268 0.035156,-0.133464 0.035807,-0.05143 0.1015623,-0.08073 0.066406,-0.0293 0.1595048,-0.03971 0.093099,-0.01042 0.1998693,-0.01563 v -0.01888 q 0,-0.04167 -0.014974,-0.06901 -0.014323,-0.02734 -0.041667,-0.04297 -0.026042,-0.01497 -0.0625,-0.02018 -0.036458,-0.0052 -0.076172,-0.0052 -0.048177,0 -0.1074216,0.01302 -0.059245,0.01237 -0.1223955,0.03646 h -0.00651 V 14.55037 q 0.035807,-0.0098 0.1035153,-0.02148 0.067708,-0.01172 0.1334632,-0.01172 0.076823,0 0.1334632,0.01302 0.057292,0.01237 0.098958,0.04297 0.041016,0.02995 0.0625,0.07747 0.021484,0.04753 0.021484,0.117838 z M 7.9537464,15.082921 v -0.202474 q -0.055989,0.0033 -0.1321611,0.0098 -0.075521,0.0065 -0.1197914,0.01888 -0.052734,0.01497 -0.085286,0.04687 -0.032552,0.03125 -0.032552,0.08659 0,0.0625 0.03776,0.0944 0.03776,0.03125 0.1152341,0.03125 0.064453,0 0.1178382,-0.02474 0.053385,-0.02539 0.098958,-0.06055 z"
       style="font-size:1.33333px;text-align:center;text-anchor:middle"
       id="path51" />
    <path
       d="m 8.9010098,15.179274 q 0,0.184896 -0.083984,0.271484 -0.083984,0.08659 -0.2584629,0.08659 -0.057943,0 -0.113281,-0.0085 -0.054687,-0.0078 -0.1080726,-0.02279 v -0.125 h 0.00651 q 0.029948,0.01172 0.095052,0.02865 0.065104,0.01758 0.130208,0.01758 0.0625,0 0.1035154,-0.01497 0.041016,-0.01497 0.063802,-0.04167 0.022786,-0.02539 0.032552,-0.0612 0.00977,-0.03581 0.00977,-0.08008 v -0.06641 q -0.055338,0.04427 -0.1061195,0.06641 -0.05013,0.02148 -0.1282549,0.02148 -0.130208,0 -0.2070307,-0.09375 -0.076172,-0.0944 -0.076172,-0.265624 0,-0.09375 0.026042,-0.161458 0.026693,-0.06836 0.072265,-0.117838 0.042318,-0.04622 0.1028644,-0.07161 0.060547,-0.02604 0.1204424,-0.02604 0.063151,0 0.1054685,0.01302 0.042969,0.01237 0.090495,0.03841 l 0.00781,-0.03125 H 8.9010098 Z M 8.7786142,15.062087 v -0.396483 q -0.048828,-0.02214 -0.091146,-0.03125 -0.041667,-0.0098 -0.083333,-0.0098 -0.1009112,0 -0.1588538,0.06771 -0.057943,0.06771 -0.057943,0.196615 0,0.122395 0.042969,0.185546 0.042969,0.06315 0.1425778,0.06315 0.053385,0 0.1067705,-0.02018 0.054036,-0.02083 0.098958,-0.05534 z"
       style="font-size:1.33333px;text-align:center;text-anchor:middle"
       id="path53" />
    <path
       d="M 9.750617,14.911046 H 9.2148111 q 0,0.06706 0.020182,0.117187 0.020182,0.04948 0.055338,0.08138 0.033854,0.03125 0.080078,0.04687 0.046875,0.01563 0.1028644,0.01563 0.074219,0 0.1490881,-0.0293 0.075521,-0.02995 0.1074216,-0.05859 h 0.00651 v 0.133463 q -0.061849,0.02604 -0.1263017,0.04362 -0.064453,0.01758 -0.1354164,0.01758 -0.1809891,0 -0.2825513,-0.09766 -0.1015623,-0.09831 -0.1015623,-0.278646 0,-0.178385 0.097005,-0.283202 0.097656,-0.104817 0.2565098,-0.104817 0.147135,0 0.2265619,0.08594 0.080078,0.08594 0.080078,0.24414 z m -0.1191403,-0.09375 q -6.51e-4,-0.09635 -0.048828,-0.149088 -0.047526,-0.05273 -0.1451819,-0.05273 -0.098307,0 -0.1569007,0.05794 -0.057943,0.05794 -0.065755,0.14388 z"
       style="font-size:1.33333px;text-align:center;text-anchor:middle"
       id="path55" />
    <path
       d="m 10.997358,15.261957 h -0.122395 v -0.414062 q 0,-0.04687 -0.0046,-0.09049 -0.0039,-0.04362 -0.01758,-0.06966 -0.01497,-0.028 -0.04297,-0.04232 -0.02799,-0.01432 -0.08073,-0.01432 -0.05143,0 -0.102864,0.02604 -0.05143,0.02539 -0.102865,0.0651 0.002,0.01497 0.0033,0.03516 0.0013,0.01953 0.0013,0.03906 v 0.465494 h -0.122396 v -0.414062 q 0,-0.04818 -0.0046,-0.09115 -0.0039,-0.04362 -0.01758,-0.06966 -0.01497,-0.02799 -0.04297,-0.04167 -0.02799,-0.01432 -0.08073,-0.01432 -0.05013,0 -0.100911,0.02474 -0.05013,0.02474 -0.10026,0.06315 v 0.542968 H 9.9361632 v -0.727212 h 0.1223958 v 0.08073 q 0.05729,-0.04753 0.113932,-0.07422 0.05729,-0.02669 0.121744,-0.02669 0.07422,0 0.125651,0.03125 0.05208,0.03125 0.07747,0.08659 0.07422,-0.0625 0.135416,-0.08984 0.0612,-0.02799 0.130859,-0.02799 0.119791,0 0.176432,0.07292 0.05729,0.07226 0.05729,0.202474 z"
       style="font-size:1.33333px;text-align:center;text-anchor:middle"
       id="path57" />
    <path
       d="m 11.841758,14.911046 h -0.535806 q 0,0.06706 0.02018,0.117187 0.02018,0.04948 0.05534,0.08138 0.03385,0.03125 0.08008,0.04687 0.04687,0.01563 0.102865,0.01563 0.07422,0 0.149088,-0.0293 0.07552,-0.02995 0.107421,-0.05859 h 0.0065 v 0.133463 q -0.06185,0.02604 -0.126302,0.04362 -0.06445,0.01758 -0.135416,0.01758 -0.180989,0 -0.282552,-0.09766 -0.101562,-0.09831 -0.101562,-0.278646 0,-0.178385 0.097,-0.283202 0.09766,-0.104817 0.25651,-0.104817 0.147135,0 0.226562,0.08594 0.08008,0.08594 0.08008,0.24414 z m -0.119141,-0.09375 q -6.51e-4,-0.09635 -0.04883,-0.149088 -0.04752,-0.05273 -0.145181,-0.05273 -0.09831,0 -0.156901,0.05794 -0.05794,0.05794 -0.06576,0.14388 z"
       style="font-size:1.33333px;text-align:center;text-anchor:middle"
       id="path59" />
    <path
       d="M 12.635375,15.261957 H 12.51298 v -0.414062 q 0,-0.05013 -0.0059,-0.09375 -0.0059,-0.04427 -0.02148,-0.06901 -0.01628,-0.02734 -0.04687,-0.04036 -0.0306,-0.01367 -0.07943,-0.01367 -0.05013,0 -0.104817,0.02474 -0.05469,0.02474 -0.104818,0.06315 v 0.542968 H 12.02727 v -0.727212 h 0.122395 v 0.08073 q 0.05729,-0.04753 0.11849,-0.07422 0.0612,-0.02669 0.12565,-0.02669 0.117839,0 0.179688,0.07096 0.06185,0.07096 0.06185,0.204427 z"
       style="font-size:1.33333px;text-align:center;text-anchor:middle"
       id="path61" />
    <path
       d="m 13.248655,15.255446 q -0.0345,0.0091 -0.07552,0.01497 -0.04036,0.0059 -0.07227,0.0059 -0.111328,0 -0.16927,-0.0599 -0.05794,-0.0599 -0.05794,-0.192057 v -0.386718 h -0.08268 v -0.102864 h 0.08268 v -0.208984 h 0.122396 v 0.208984 h 0.252603 v 0.102864 h -0.252603 v 0.33138 q 0,0.05729 0.0026,0.08984 0.0026,0.0319 0.01823,0.0599 0.01432,0.02604 0.03906,0.03841 0.02539,0.01172 0.07682,0.01172 0.02995,0 0.0625,-0.0085 0.03255,-0.0091 0.04687,-0.01497 h 0.0065 z"
       style="font-size:1.33333px;text-align:center;text-anchor:middle"
       id="path63" />
  </g>
</svg>
