<?xml version="1.0" encoding="UTF-8" standalone="no"?>
<svg
   xmlns:dc="http://purl.org/dc/elements/1.1/"
   xmlns:cc="http://creativecommons.org/ns#"
   xmlns:rdf="http://www.w3.org/1999/02/22-rdf-syntax-ns#"
   xmlns:svg="http://www.w3.org/2000/svg"
   xmlns="http://www.w3.org/2000/svg"
   xmlns:sodipodi="http://sodipodi.sourceforge.net/DTD/sodipodi-0.dtd"
   xmlns:inkscape="http://www.inkscape.org/namespaces/inkscape"
   id="a6df9393-2bd7-4ac4-ba06-ab5f16ff5923"
   width="18"
   height="18"
   viewBox="0 0 18 18"
   version="1.1"
   sodipodi:docname="azure-analysis-services.svg"
   inkscape:version="1.0.1 (3bc2e813f5, 2020-09-07)">
  <metadata
     id="metadata38">
    <rdf:RDF>
      <cc:Work
         rdf:about="">
        <dc:format>image/svg+xml</dc:format>
        <dc:type
           rdf:resource="http://purl.org/dc/dcmitype/StillImage" />
      </cc:Work>
    </rdf:RDF>
  </metadata>
  <sodipodi:namedview
     pagecolor="#ffffff"
     bordercolor="#666666"
     borderopacity="1"
     objecttolerance="10"
     gridtolerance="10"
     guidetolerance="10"
     inkscape:pageopacity="0"
     inkscape:pageshadow="2"
     inkscape:window-width="1920"
     inkscape:window-height="1017"
     id="namedview36"
     showgrid="false"
     inkscape:zoom="47.222222"
     inkscape:cx="9"
     inkscape:cy="9"
     inkscape:window-x="-8"
     inkscape:window-y="-8"
     inkscape:window-maximized="1"
     inkscape:current-layer="a6df9393-2bd7-4ac4-ba06-ab5f16ff5923" />
  <defs
     id="defs17">
    <linearGradient
       id="fd591b35-0e01-4610-a025-8e017443b6ca"
       x1="3.96"
       y1="2.52"
       x2="3.96"
       y2="7.82"
       gradientUnits="userSpaceOnUse"
       gradientTransform="matrix(0.78774548,0,0,0.78774548,2.1390684,-1.6251186)">
      <stop
         offset="0"
         stop-color="#32d4f5"
         id="stop2" />
      <stop
         offset="1"
         stop-color="#198ab3"
         id="stop4" />
    </linearGradient>
    <linearGradient
       id="bded69e0-afb1-4c25-aa81-a799bd12553b"
       x1="14.04"
       y1="5.58"
       x2="14.04"
       y2="10.89"
       gradientUnits="userSpaceOnUse"
       gradientTransform="matrix(0.78774548,0,0,0.78774548,2.1390684,-1.6251186)">
      <stop
         offset="0"
         stop-color="#32d4f5"
         id="stop7" />
      <stop
         offset="1"
         stop-color="#198ab3"
         id="stop9" />
    </linearGradient>
    <linearGradient
       id="f25b6c72-365d-4ac2-a15c-1cace994f1e6"
       x1="5.29"
       y1="10.18"
       x2="5.29"
       y2="15.48"
       gradientUnits="userSpaceOnUse"
       gradientTransform="matrix(0.78774548,0,0,0.78774548,2.1390684,-1.6251186)">
      <stop
         offset="0"
         stop-color="#32d4f5"
         id="stop12" />
      <stop
         offset="1"
         stop-color="#198ab3"
         id="stop14" />
    </linearGradient>
  </defs>
  <title
     id="title19">Icon-analytics-148</title>
  <rect
     x="2.5329411"
     y="0.35999998"
     width="5.4511986"
     height="4.1829286"
     rx="0.22056873"
     fill="url(#fd591b35-0e01-4610-a025-8e017443b6ca)"
     id="rect21"
     style="fill:url(#fd591b35-0e01-4610-a025-8e017443b6ca);stroke-width:0.787745" />
  <rect
     x="10.473415"
     y="2.7705009"
     width="5.4511986"
     height="4.1829286"
     rx="0.22056873"
     fill="url(#bded69e0-afb1-4c25-aa81-a799bd12553b)"
     id="rect23"
     style="fill:url(#bded69e0-afb1-4c25-aa81-a799bd12553b);stroke-width:0.787745" />
  <rect
     x="3.5727654"
     y="6.3941307"
     width="5.4511986"
     height="4.1829286"
     rx="0.3308531"
     fill="url(#f25b6c72-365d-4ac2-a15c-1cace994f1e6)"
     id="rect25"
     style="fill:url(#f25b6c72-365d-4ac2-a15c-1cace994f1e6);stroke-width:0.787745" />
  <path
     d="M 12.497921,5.4015711 12.679103,4.897414 5.9360017,2.4160157 5.7548202,2.9122954 Z M 12.915426,5.3306741 12.663348,4.8580268 6.3062421,8.205945 6.5504431,8.678592 Z M 6.0777959,8.907038 6.6055853,8.812508 5.5342515,2.7389904 5.006462,2.8335204 Z"
     fill="#773adc"
     id="path27"
     style="stroke-width:0.787745" />
  <circle
     cx="8.5341196"
     cy="11.175138"
     r="0.85076517"
     transform="rotate(-32.41)"
     fill="#ffffff"
     id="circle29"
     style="stroke-width:0.787745" />
  <circle
     cx="3.1294501"
     cy="4.8879666"
     r="0.85076517"
     transform="rotate(-32.41)"
     fill="#ffffff"
     id="circle31"
     style="stroke-width:0.787745" />
  <circle
     cx="0.78128707"
     cy="10.539053"
     r="0.85076517"
     transform="rotate(-32.41)"
     fill="#ffffff"
     id="circle33"
     style="stroke-width:0.787745" />
  <g
     aria-label="Analysis
Services"
     id="text42"
     style="font-size:2.66667px;line-height:1.25;font-family:sans-serif">
    <path
       d="M 5.1349472,12.917646 H 4.8602073 L 4.6701029,12.377281 H 3.8315601 L 3.6414557,12.917646 H 3.3797366 L 4.0854667,10.978842 H 4.4292171 Z M 4.5906757,12.155927 4.2508315,11.204103 3.9096852,12.155927 Z"
       style="font-size:2.66667px"
       id="path46" />
    <path
       d="M 6.6258345,12.917646 H 6.3810426 V 12.08952 q 0,-0.10026 -0.011719,-0.1875 -0.011719,-0.08854 -0.042969,-0.138021 -0.032552,-0.05469 -0.09375,-0.08073 -0.061198,-0.02734 -0.1588544,-0.02734 -0.1002605,0 -0.2096357,0.04948 -0.1093751,0.04948 -0.2096357,0.126303 v 1.085938 H 5.4096872 v -1.454429 h 0.2447919 v 0.161459 q 0.1145835,-0.09505 0.2369795,-0.148438 0.122396,-0.05339 0.2513024,-0.05339 0.2356774,0 0.3593755,0.141927 0.123698,0.141927 0.123698,0.408855 z"
       style="font-size:2.66667px"
       id="path48" />
    <path
       d="M 8.2273992,12.917646 H 7.9839093 v -0.154948 q -0.032552,0.02214 -0.088542,0.0625 -0.054687,0.03906 -0.1067709,0.0625 -0.061198,0.02995 -0.1406252,0.04948 -0.079427,0.02083 -0.1861982,0.02083 -0.1966148,0 -0.3333337,-0.130208 -0.136719,-0.130209 -0.136719,-0.332032 0,-0.165365 0.070313,-0.266928 0.071615,-0.102864 0.2031253,-0.161458 0.1328127,-0.05859 0.3190108,-0.07943 0.1861982,-0.02083 0.3997401,-0.03125 v -0.03776 q 0,-0.08333 -0.029948,-0.138021 -0.028646,-0.05469 -0.083333,-0.08594 -0.052083,-0.02995 -0.1250002,-0.04036 -0.072917,-0.01042 -0.1523439,-0.01042 -0.096354,0 -0.214844,0.02604 -0.1184898,0.02474 -0.244792,0.07292 h -0.013021 v -0.248698 q 0.071615,-0.01953 0.2070316,-0.04297 0.1354168,-0.02344 0.2669274,-0.02344 0.153646,0 0.2669274,0.02604 0.1145835,0.02474 0.1979169,0.08594 0.082031,0.0599 0.1250002,0.154949 0.042969,0.09505 0.042969,0.235677 z M 7.9839093,12.559573 v -0.404948 q -0.1119793,0.0065 -0.2643233,0.01953 -0.1510418,0.01302 -0.2395836,0.03776 -0.1054689,0.02995 -0.1705731,0.09375 -0.065104,0.0625 -0.065104,0.173178 0,0.125 0.075521,0.188802 0.075521,0.0625 0.230469,0.0625 0.1289064,0 0.2356774,-0.04948 0.106771,-0.05078 0.1979169,-0.121094 z"
       style="font-size:2.66667px"
       id="path50" />
    <path
       d="M 8.94615,12.917646 H 8.701358 V 10.891602 H 8.94615 Z"
       style="font-size:2.66667px"
       id="path52" />
    <path
       d="M 10.68834,11.463217 9.8393805,13.454105 H 9.5776614 L 9.8484951,12.847334 9.2690672,11.463217 h 0.2656254 l 0.4466151,1.078127 0.4505213,-1.078127 z"
       style="font-size:2.66667px"
       id="path54" />
    <path
       d="m 12.047717,12.498375 q 0,0.199219 -0.165365,0.326823 -0.164063,0.127605 -0.44922,0.127605 -0.161458,0 -0.296875,-0.03776 -0.134115,-0.03906 -0.225261,-0.08464 v -0.27474 h 0.01302 q 0.115886,0.08724 0.257813,0.139323 0.141927,0.05078 0.272136,0.05078 0.161458,0 0.252604,-0.05208 0.09115,-0.05208 0.09115,-0.164063 0,-0.08594 -0.04948,-0.130208 -0.04948,-0.04427 -0.190104,-0.07552 -0.05208,-0.01172 -0.136719,-0.02734 -0.08333,-0.01563 -0.152344,-0.03385 -0.191407,-0.05078 -0.272136,-0.148438 -0.07943,-0.09896 -0.07943,-0.242188 0,-0.08984 0.03646,-0.169271 0.03776,-0.07943 0.113282,-0.141927 0.07292,-0.0612 0.184896,-0.09635 0.113281,-0.03646 0.252604,-0.03646 0.130209,0 0.263021,0.03255 0.134115,0.03125 0.222657,0.07682 v 0.261719 h -0.01302 q -0.09375,-0.06901 -0.227865,-0.115885 -0.134115,-0.04818 -0.263021,-0.04818 -0.134115,0 -0.226563,0.05208 -0.09245,0.05078 -0.09245,0.152344 0,0.08984 0.05599,0.135417 0.05469,0.04557 0.177083,0.07422 0.06771,0.01563 0.151042,0.03125 0.08464,0.01563 0.140625,0.02865 0.170573,0.03906 0.263021,0.134114 0.09245,0.09635 0.09245,0.255209 z"
       style="font-size:2.66667px"
       id="path56" />
    <path
       d="m 12.660998,11.219728 h -0.276042 v -0.253907 h 0.276042 z m -0.01563,1.697918 h -0.244792 v -1.454429 h 0.244792 z"
       style="font-size:2.66667px"
       id="path58" />
    <path
       d="m 14.168813,12.498375 q 0,0.199219 -0.165365,0.326823 -0.164062,0.127605 -0.449219,0.127605 -0.161459,0 -0.296875,-0.03776 -0.134115,-0.03906 -0.225261,-0.08464 v -0.27474 h 0.01302 q 0.115885,0.08724 0.257813,0.139323 0.141927,0.05078 0.272135,0.05078 0.161459,0 0.252605,-0.05208 0.09115,-0.05208 0.09115,-0.164063 0,-0.08594 -0.04948,-0.130208 -0.04948,-0.04427 -0.190105,-0.07552 -0.05208,-0.01172 -0.136719,-0.02734 -0.08333,-0.01563 -0.152344,-0.03385 -0.191406,-0.05078 -0.272135,-0.148438 -0.07943,-0.09896 -0.07943,-0.242188 0,-0.08984 0.03646,-0.169271 0.03776,-0.07943 0.113281,-0.141927 0.07292,-0.0612 0.184896,-0.09635 0.113282,-0.03646 0.252605,-0.03646 0.130208,0 0.263021,0.03255 0.134115,0.03125 0.222656,0.07682 v 0.261719 h -0.01302 q -0.09375,-0.06901 -0.227865,-0.115885 -0.134115,-0.04818 -0.263022,-0.04818 -0.134114,0 -0.226562,0.05208 -0.09245,0.05078 -0.09245,0.152344 0,0.08984 0.05599,0.135417 0.05469,0.04557 0.177084,0.07422 0.06771,0.01563 0.151042,0.03125 0.08463,0.01563 0.140625,0.02865 0.170573,0.03906 0.263021,0.134114 0.09245,0.09635 0.09245,0.255209 z"
       style="font-size:2.66667px"
       id="path60" />
    <path
       d="m 5.0151554,15.697598 q 0,0.113281 -0.053386,0.223959 -0.052083,0.110677 -0.1471356,0.1875 -0.1041668,0.08333 -0.2434899,0.130208 -0.138021,0.04687 -0.3333338,0.04687 -0.2096356,0 -0.3776046,-0.03906 -0.1666669,-0.03906 -0.3398442,-0.115886 v -0.322917 h 0.018229 q 0.1471356,0.122396 0.3398442,0.188802 0.1927086,0.06641 0.3619796,0.06641 0.2395837,0 0.3723963,-0.08984 0.1341148,-0.08984 0.1341148,-0.239584 0,-0.128906 -0.063802,-0.190104 -0.0625,-0.0612 -0.1914065,-0.09505 -0.097656,-0.02604 -0.2122398,-0.04297 -0.1132814,-0.01693 -0.2408858,-0.04297 -0.2578128,-0.05469 -0.382813,-0.186198 -0.123698,-0.132813 -0.123698,-0.345053 0,-0.24349 0.2057294,-0.398438 0.2057294,-0.15625 0.5221361,-0.15625 0.2044273,0 0.3750005,0.03906 0.1705731,0.03906 0.3020837,0.09635 v 0.304688 h -0.018229 q -0.1106772,-0.09375 -0.291667,-0.154948 -0.1796878,-0.0625 -0.3684901,-0.0625 -0.2070315,0 -0.3333338,0.08594 -0.1250001,0.08594 -0.1250001,0.221355 0,0.121094 0.0625,0.190104 0.0625,0.06901 0.2200523,0.105469 0.083334,0.01823 0.2369795,0.04427 0.153646,0.02604 0.260417,0.05339 0.2161461,0.05729 0.3255212,0.173178 0.1093752,0.115885 0.1093752,0.324219 z"
       style="font-size:2.66667px"
       id="path62" />
    <path
       d="M 6.6271366,15.54916 H 5.5555207 q 0,0.134115 0.040365,0.234375 0.040365,0.09896 0.1106772,0.162761 0.067708,0.0625 0.1601565,0.09375 0.09375,0.03125 0.2057294,0.03125 0.1484377,0 0.2981775,-0.05859 0.1510418,-0.0599 0.214844,-0.117187 h 0.013021 v 0.266927 q -0.1236981,0.05208 -0.2526045,0.08724 -0.1289064,0.03516 -0.2708337,0.03516 -0.3619796,0 -0.5651049,-0.195313 -0.2031253,-0.196614 -0.2031253,-0.557292 0,-0.356771 0.1940107,-0.566407 0.1953128,-0.209636 0.5130215,-0.209636 0.2942712,0 0.4531256,0.171876 0.1601564,0.171875 0.1601564,0.488282 z m -0.2382815,-0.1875 q -0.0013,-0.192709 -0.097656,-0.298178 -0.095052,-0.105468 -0.290365,-0.105468 -0.1966148,0 -0.3138024,0.115885 -0.1158856,0.115886 -0.1315106,0.287761 z"
       style="font-size:2.66667px"
       id="path64" />
    <path
       d="m 7.9057842,15.063482 h -0.013021 q -0.054687,-0.01302 -0.1067709,-0.01823 -0.050781,-0.0065 -0.121094,-0.0065 -0.1132813,0 -0.2187502,0.05078 -0.1054689,0.04948 -0.2031253,0.128907 v 1.032553 h -0.244792 v -1.454429 h 0.244792 v 0.214844 q 0.1458335,-0.117188 0.2565108,-0.165365 0.1119793,-0.04948 0.2278648,-0.04948 0.063802,0 0.092448,0.0039 0.028646,0.0026 0.085938,0.01172 z"
       style="font-size:2.66667px"
       id="path66" />
    <path
       d="M 9.3940675,14.796555 8.805525,16.250984 H 8.559431 L 7.9747948,14.796555 h 0.2656253 l 0.4505215,1.157554 0.4466151,-1.157554 z"
       style="font-size:2.66667px"
       id="path68" />
    <path
       d="m 9.9774014,14.553065 h -0.276042 v -0.253906 h 0.276042 z m -0.015625,1.697919 h -0.244792 v -1.454429 h 0.244792 z"
       style="font-size:2.66667px"
       id="path70" />
    <path
       d="m 11.521674,16.159838 q -0.122396,0.05859 -0.233073,0.09115 -0.109375,0.03255 -0.233073,0.03255 -0.157553,0 -0.289063,-0.04557 -0.131511,-0.04687 -0.225261,-0.140625 -0.09505,-0.09375 -0.147136,-0.236979 -0.05208,-0.14323 -0.05208,-0.334636 0,-0.356772 0.195313,-0.559897 0.196615,-0.203125 0.51823,-0.203125 0.125,0 0.244791,0.03516 0.121094,0.03516 0.221355,0.08594 v 0.272136 h -0.01302 q -0.111979,-0.08724 -0.231771,-0.134115 -0.11849,-0.04687 -0.231771,-0.04687 -0.208334,0 -0.329428,0.140625 -0.119792,0.139323 -0.119792,0.410157 0,0.263021 0.117188,0.404948 0.11849,0.140625 0.332032,0.140625 0.07422,0 0.151042,-0.01953 0.07682,-0.01953 0.138021,-0.05078 0.05338,-0.02734 0.10026,-0.05729 0.04687,-0.03125 0.07422,-0.05339 h 0.01302 z"
       style="font-size:2.66667px"
       id="path72" />
    <path
       d="M 13.052926,15.54916 H 11.98131 q 0,0.134115 0.04036,0.234375 0.04036,0.09896 0.110677,0.162761 0.06771,0.0625 0.160157,0.09375 0.09375,0.03125 0.205729,0.03125 0.148438,0 0.298178,-0.05859 0.151041,-0.0599 0.214844,-0.117187 h 0.01302 v 0.266927 q -0.123698,0.05208 -0.252604,0.08724 -0.128906,0.03516 -0.270834,0.03516 -0.361979,0 -0.565105,-0.195313 -0.203125,-0.196614 -0.203125,-0.557292 0,-0.356771 0.194011,-0.566407 0.195313,-0.209636 0.513021,-0.209636 0.294272,0 0.453126,0.171876 0.160156,0.171875 0.160156,0.488282 z m -0.238281,-0.1875 q -0.0013,-0.192709 -0.09766,-0.298178 -0.09505,-0.105468 -0.290365,-0.105468 -0.196614,0 -0.313802,0.115885 -0.115886,0.115886 -0.131511,0.287761 z"
       style="font-size:2.66667px"
       id="path74" />
    <path
       d="m 14.463084,15.831713 q 0,0.199219 -0.165365,0.326823 -0.164063,0.127604 -0.449219,0.127604 -0.161459,0 -0.296876,-0.03776 -0.134115,-0.03906 -0.225261,-0.08464 v -0.27474 h 0.01302 q 0.115886,0.08724 0.257813,0.139323 0.141927,0.05078 0.272136,0.05078 0.161458,0 0.252604,-0.05208 0.09115,-0.05208 0.09115,-0.164062 0,-0.08594 -0.04948,-0.130209 -0.04948,-0.04427 -0.190104,-0.07552 -0.05208,-0.01172 -0.136719,-0.02734 -0.08333,-0.01563 -0.152344,-0.03385 -0.191407,-0.05078 -0.272136,-0.148437 -0.07943,-0.09896 -0.07943,-0.242188 0,-0.08984 0.03646,-0.169271 0.03776,-0.07943 0.113282,-0.141928 0.07292,-0.0612 0.184896,-0.09635 0.113281,-0.03646 0.252604,-0.03646 0.130209,0 0.263021,0.03255 0.134115,0.03125 0.222657,0.07682 v 0.261719 h -0.01302 q -0.09375,-0.06901 -0.227865,-0.115886 -0.134115,-0.04818 -0.263021,-0.04818 -0.134115,0 -0.226563,0.05208 -0.09245,0.05078 -0.09245,0.152344 0,0.08984 0.05599,0.135416 0.05469,0.04557 0.177083,0.07422 0.06771,0.01563 0.151042,0.03125 0.08464,0.01563 0.140625,0.02865 0.170574,0.03906 0.263022,0.134115 0.09245,0.09635 0.09245,0.255209 z"
       style="font-size:2.66667px"
       id="path76" />
  </g>
</svg>
