<?xml version="1.0" encoding="UTF-8" standalone="no"?>
<svg
   xmlns:dc="http://purl.org/dc/elements/1.1/"
   xmlns:cc="http://creativecommons.org/ns#"
   xmlns:rdf="http://www.w3.org/1999/02/22-rdf-syntax-ns#"
   xmlns:svg="http://www.w3.org/2000/svg"
   xmlns="http://www.w3.org/2000/svg"
   xmlns:sodipodi="http://sodipodi.sourceforge.net/DTD/sodipodi-0.dtd"
   xmlns:inkscape="http://www.inkscape.org/namespaces/inkscape"
   role="img"
   viewBox="0.77 -0.36 16.41 18.66"
   version="1.1"
   id="svg44"
   sodipodi:docname="azure-synapse-dedicated.svg"
   inkscape:version="1.0.1 (3bc2e813f5, 2020-09-07)">
  <metadata
     id="metadata48">
    <rdf:RDF>
      <cc:Work
         rdf:about="">
        <dc:format>image/svg+xml</dc:format>
        <dc:type
           rdf:resource="http://purl.org/dc/dcmitype/StillImage" />
      </cc:Work>
    </rdf:RDF>
  </metadata>
  <sodipodi:namedview
     pagecolor="#ffffff"
     bordercolor="#666666"
     borderopacity="1"
     objecttolerance="10"
     gridtolerance="10"
     guidetolerance="10"
     inkscape:pageopacity="0"
     inkscape:pageshadow="2"
     inkscape:window-width="1920"
     inkscape:window-height="1017"
     id="namedview46"
     showgrid="false"
     inkscape:zoom="45.551983"
     inkscape:cx="9.4322054"
     inkscape:cy="10.229401"
     inkscape:window-x="-8"
     inkscape:window-y="-8"
     inkscape:window-maximized="1"
     inkscape:current-layer="svg44"
     inkscape:document-rotation="0" />
  <title
     id="title2">Azure Synapse Dedicated Pools logo</title>
  <defs
     id="defs34">
    <linearGradient
       id="a"
       x1="9"
       x2="9"
       y1="5.38"
       gradientUnits="userSpaceOnUse"
       gradientTransform="matrix(0.65322743,0,0,0.65322743,3.0331413,-0.26343529)">
      <stop
         offset=".199"
         stop-color="#005ba1"
         id="stop4" />
      <stop
         offset="1"
         stop-color="#0078d4"
         id="stop6" />
    </linearGradient>
    <linearGradient
       id="b"
       x1="9"
       x2="9"
       y1="12.713"
       y2="5.287"
       gradientUnits="userSpaceOnUse"
       gradientTransform="matrix(0.65322743,0,0,0.65322743,3.0331413,-0.26343529)">
      <stop
         offset="0"
         stop-color="#198ab3"
         id="stop9" />
      <stop
         offset=".172"
         stop-color="#32bedd"
         id="stop11" />
      <stop
         offset=".5"
         stop-color="#50e6ff"
         id="stop13" />
      <stop
         offset=".5"
         stop-color="#4fe4fd"
         id="stop15" />
      <stop
         offset=".5"
         stop-color="#4bddf8"
         id="stop17" />
      <stop
         offset=".5"
         stop-color="#44d2ee"
         id="stop19" />
      <stop
         offset=".5"
         stop-color="#3ac1e0"
         id="stop21" />
      <stop
         offset=".5"
         stop-color="#2dabce"
         id="stop23" />
      <stop
         offset=".5"
         stop-color="#1d90b8"
         id="stop25" />
      <stop
         offset=".5"
         stop-color="#198ab3"
         id="stop27" />
      <stop
         offset=".662"
         stop-color="#32bedd"
         id="stop29" />
      <stop
         offset=".975"
         stop-color="#50e6ff"
         id="stop31" />
    </linearGradient>
  </defs>
  <path
     fill="#0078d4"
     d="M 8.9121881,-0.26343529 3.7843528,2.6695559 V 8.5290061 L 8.9121881,11.494659 14.040023,8.5616676 V 2.6826204 Z M 13.092844,7.9476335 8.9121881,10.364576 4.7315326,7.9731094 V 3.2509283 L 8.9121881,0.83398683 13.092844,3.2574605 Z"
     id="path36"
     style="stroke-width:0.653227" />
  <path
     fill="url(#a)"
     d="M 8.9121881,-0.26343529 3.7843528,2.6695559 4.7315326,3.2509283 8.9121881,0.83398683 13.092844,3.2509283 14.040023,2.6695559 Z"
     id="path38"
     style="fill:url(#a);stroke-width:0.653227" />
  <path
     fill="#50e6ff"
     d="M 11.355259,6.579122 A 0.47685602,0.47685602 0 0 0 11.144267,6.392299 3.811582,3.811582 0 0 0 8.2191138,4.2066 L 12.450068,1.7615697 11.466307,1.1971813 6.6481019,3.982543 a 0.48992057,0.48992057 0 0 0 0.2456134,0.9145184 0.44680756,0.44680756 0 0 0 0.05879,-0.015024 l 0.081654,0.341638 A 2.8212893,2.8212893 0 0 1 10.19382,6.6855981 L 5.3932519,9.4598549 6.3730931,10.02555 11.176275,7.2486802 a 0.4762028,0.4762028 0 0 0 0.158081,-0.1541617 l 0.04899,-0.011758 c -0.0046,-0.018943 -0.01176,-0.035927 -0.01633,-0.054871 A 0.48012216,0.48012216 0 0 0 11.355262,6.579122 Z"
     id="path40"
     style="stroke-width:0.653227" />
  <path
     fill="url(#b)"
     d="m 10.931315,5.6241036 a 1.2084707,1.2084707 0 1 0 1.20847,1.2084707 1.2084707,1.2084707 0 0 0 -1.20847,-1.2084707 z M 6.8930621,3.1771136 A 1.2084707,1.2084707 0 1 0 8.1015329,4.3855844 1.2084707,1.2084707 0 0 0 6.8930621,3.1771136 Z"
     id="path42"
     style="fill:url(#b);stroke-width:0.653227" />
  <g
     aria-label="Synapse "
     id="text52"
     style="font-style:normal;font-weight:normal;font-size:40px;line-height:0;font-family:sans-serif;fill:#000000;fill-opacity:1;stroke:none"
     transform="matrix(0.6502103,0,0,0.6502103,3.3089122,3.9761463)">
    <path
       d="m 4.6784731,13.729225 q 0,0.113281 -0.053386,0.223958 -0.052083,0.110678 -0.1471356,0.187501 -0.1041668,0.08333 -0.2434899,0.130208 -0.138021,0.04687 -0.3333338,0.04687 -0.2096357,0 -0.3776046,-0.03906 -0.1666669,-0.03906 -0.3398442,-0.115886 v -0.322917 h 0.018229 q 0.1471356,0.122396 0.3398442,0.188802 0.1927085,0.06641 0.3619796,0.06641 0.2395836,0 0.3723963,-0.08984 0.1341148,-0.08984 0.1341148,-0.239584 0,-0.128906 -0.063802,-0.190104 -0.0625,-0.0612 -0.1914065,-0.09505 -0.097656,-0.02604 -0.2122399,-0.04297 -0.1132814,-0.01693 -0.2408857,-0.04297 -0.2578128,-0.05469 -0.382813,-0.186198 -0.123698,-0.132813 -0.123698,-0.345053 0,-0.24349 0.2057294,-0.398438 0.2057294,-0.15625 0.5221361,-0.15625 0.2044273,0 0.3750004,0.03906 0.1705732,0.03906 0.3020838,0.09635 v 0.304688 h -0.018229 q -0.1106772,-0.09375 -0.2916671,-0.154948 -0.1796877,-0.0625 -0.36849,-0.0625 -0.2070315,0 -0.3333338,0.08594 -0.1250001,0.08594 -0.1250001,0.221355 0,0.121094 0.0625,0.190104 0.0625,0.06901 0.2200524,0.105469 0.083333,0.01823 0.2369795,0.04427 0.153646,0.02604 0.260417,0.05339 0.2161461,0.05729 0.3255212,0.173178 0.1093752,0.115885 0.1093752,0.324219 z"
       style="font-size:2.66667px"
       id="path31" />
    <path
       d="M 6.2917564,12.828182 5.442797,14.81907 H 5.1810779 L 5.4519116,14.212298 4.8724838,12.828182 h 0.2656253 l 0.4466152,1.078126 0.4505214,-1.078126 z"
       style="font-size:2.66667px"
       id="path33" />
    <path
       d="m 7.8282168,14.282611 h -0.244792 v -0.828126 q 0,-0.100261 -0.011719,-0.1875 -0.011719,-0.08854 -0.042969,-0.138021 -0.032552,-0.05469 -0.09375,-0.08073 -0.061198,-0.02734 -0.1588544,-0.02734 -0.1002605,0 -0.2096357,0.04948 -0.1093751,0.04948 -0.2096357,0.126302 v 1.085939 H 6.6120694 v -1.454429 h 0.2447919 v 0.161458 q 0.1145835,-0.09505 0.2369795,-0.148437 0.122396,-0.05339 0.2513024,-0.05339 0.2356774,0 0.3593755,0.141928 0.1236981,0.141927 0.1236981,0.408854 z"
       style="font-size:2.66667px"
       id="path35" />
    <path
       d="M 9.4297813,14.282611 H 9.1862914 v -0.154948 q -0.032552,0.02214 -0.088542,0.0625 -0.054688,0.03906 -0.106771,0.0625 -0.061198,0.02995 -0.1406251,0.04948 -0.079427,0.02083 -0.1861982,0.02083 -0.1966148,0 -0.3333338,-0.130209 -0.1367189,-0.130208 -0.1367189,-0.332032 0,-0.165364 0.070313,-0.266927 0.071615,-0.102865 0.2031253,-0.161459 0.1328126,-0.05859 0.3190108,-0.07943 0.1861982,-0.02083 0.3997401,-0.03125 v -0.03776 q 0,-0.08333 -0.029948,-0.138021 -0.028646,-0.05469 -0.083333,-0.08594 -0.052083,-0.02995 -0.1250002,-0.04036 -0.072917,-0.01042 -0.1523439,-0.01042 -0.096354,0 -0.214844,0.02604 -0.1184898,0.02474 -0.244792,0.07292 H 8.323009 v -0.248698 q 0.071615,-0.01953 0.2070316,-0.04297 0.1354168,-0.02344 0.2669274,-0.02344 0.153646,0 0.2669274,0.02604 0.1145835,0.02474 0.1979169,0.08594 0.082031,0.0599 0.1250002,0.154948 0.042969,0.09505 0.042969,0.235677 z M 9.1862914,13.924538 v -0.404949 q -0.1119793,0.0065 -0.2643233,0.01953 -0.1510418,0.01302 -0.2395836,0.03776 -0.1054689,0.02995 -0.1705731,0.09375 -0.065104,0.0625 -0.065104,0.173177 0,0.125 0.075521,0.188803 0.075521,0.0625 0.2304691,0.0625 0.1289064,0 0.2356774,-0.04948 0.1067709,-0.05078 0.1979169,-0.121093 z"
       style="font-size:2.66667px"
       id="path37" />
    <path
       d="m 11.181085,13.537818 q 0,0.177084 -0.05078,0.324219 -0.05078,0.145834 -0.143229,0.247397 -0.08594,0.09635 -0.203125,0.149739 -0.115886,0.05208 -0.246095,0.05208 -0.113281,0 -0.205729,-0.02474 -0.09115,-0.02474 -0.186198,-0.07682 V 14.81907 H 9.9011359 v -1.990888 h 0.2447921 v 0.152344 q 0.09766,-0.08203 0.21875,-0.136719 0.122396,-0.05599 0.260417,-0.05599 0.263021,0 0.408855,0.199219 0.147135,0.197917 0.147135,0.550782 z m -0.252604,0.0065 q 0,-0.263021 -0.08984,-0.39323 -0.08984,-0.130208 -0.276042,-0.130208 -0.105469,0 -0.21224,0.04557 -0.106771,0.04557 -0.204427,0.119791 v 0.82422 q 0.104167,0.04687 0.178386,0.0638 0.07552,0.01693 0.170573,0.01693 0.204427,0 0.31901,-0.138021 0.114584,-0.138021 0.114584,-0.408854 z"
       style="font-size:2.66667px"
       id="path39" />
    <path
       d="m 12.60166,13.86334 q 0,0.199219 -0.165365,0.326823 -0.164062,0.127604 -0.449219,0.127604 -0.161459,0 -0.296875,-0.03776 -0.134115,-0.03906 -0.225261,-0.08464 v -0.27474 h 0.01302 q 0.115885,0.08724 0.257813,0.139323 0.141927,0.05078 0.272135,0.05078 0.161459,0 0.252605,-0.05208 0.09115,-0.05208 0.09115,-0.164062 0,-0.08594 -0.04948,-0.130209 -0.04948,-0.04427 -0.190105,-0.07552 -0.05208,-0.01172 -0.136719,-0.02734 -0.08333,-0.01563 -0.152344,-0.03385 -0.191406,-0.05078 -0.272135,-0.148438 -0.07943,-0.09896 -0.07943,-0.242187 0,-0.08984 0.03646,-0.169271 0.03776,-0.07943 0.113281,-0.141928 0.07292,-0.0612 0.184896,-0.09635 0.113282,-0.03646 0.252605,-0.03646 0.130208,0 0.263021,0.03255 0.134115,0.03125 0.222656,0.07682 v 0.261719 h -0.01302 q -0.09375,-0.06901 -0.227865,-0.115886 -0.134115,-0.04818 -0.263021,-0.04818 -0.134115,0 -0.226563,0.05208 -0.09245,0.05078 -0.09245,0.152344 0,0.08984 0.05599,0.135416 0.05469,0.04557 0.177084,0.07422 0.06771,0.01563 0.151042,0.03125 0.08464,0.01563 0.140625,0.02865 0.170573,0.03906 0.263021,0.134115 0.09245,0.09635 0.09245,0.255209 z"
       style="font-size:2.66667px"
       id="path41" />
    <path
       d="m 14.169371,13.580787 h -1.071616 q 0,0.134115 0.04037,0.234375 0.04036,0.09896 0.110677,0.162761 0.06771,0.0625 0.160156,0.09375 0.09375,0.03125 0.20573,0.03125 0.148437,0 0.298177,-0.05859 0.151042,-0.0599 0.214844,-0.117187 h 0.01302 v 0.266927 q -0.123698,0.05208 -0.252604,0.08724 -0.128907,0.03516 -0.270834,0.03516 -0.36198,0 -0.565105,-0.195313 -0.203125,-0.196614 -0.203125,-0.557292 0,-0.356771 0.19401,-0.566407 0.195313,-0.209636 0.513022,-0.209636 0.294271,0 0.453125,0.171876 0.160157,0.171875 0.160157,0.488281 z m -0.238282,-0.1875 q -0.0013,-0.192709 -0.09766,-0.298178 -0.09505,-0.105469 -0.290365,-0.105469 -0.196615,0 -0.313802,0.115886 -0.115886,0.115886 -0.131511,0.287761 z"
       style="font-size:2.66667px"
       id="path43" />
  </g>
  <g
     aria-label="Dedicated SQL Pool"
     id="text64"
     style="font-size:1.33333px;line-height:1.25;font-family:sans-serif"
     transform="matrix(1.2245245,0,0,1.2245245,-1.9230161,-4.9511686)">
    <path
       d="m 3.3217812,16.323479 q 0,0.132161 -0.057943,0.239582 -0.057292,0.107422 -0.1529944,0.166667 -0.066406,0.04101 -0.1484371,0.05924 -0.08138,0.01823 -0.2148432,0.01823 H 2.5027728 V 15.8378 h 0.2421869 q 0.1419267,0 0.2252599,0.02083 0.083984,0.02018 0.1419267,0.05599 0.098958,0.06185 0.1542965,0.164714 0.055338,0.102864 0.055338,0.24414 z m -0.1347653,-0.002 q 0,-0.113933 -0.039713,-0.192057 -0.039714,-0.07808 -0.1184897,-0.123 Q 2.9715216,15.97387 2.9070687,15.9615 2.8426157,15.94848 2.7527722,15.94848 H 2.6316787 v 0.748045 h 0.1210935 q 0.093099,0 0.162109,-0.01367 0.069661,-0.01367 0.1276038,-0.05078 0.072265,-0.04622 0.1080727,-0.121745 0.036458,-0.07552 0.036458,-0.188801 z"
       id="path46" />
    <path
       d="m 4.1290709,16.456291 h -0.535806 q 0,0.06706 0.020182,0.117187 0.020182,0.04948 0.055338,0.08138 0.033854,0.03125 0.080078,0.04687 0.046875,0.01563 0.1028643,0.01563 0.074219,0 0.1490882,-0.0293 0.075521,-0.02995 0.1074216,-0.05859 h 0.00651 v 0.133464 q -0.061849,0.02604 -0.1263017,0.04362 -0.064453,0.01758 -0.1354164,0.01758 -0.1809891,0 -0.2825514,-0.09766 -0.1015622,-0.09831 -0.1015622,-0.278645 0,-0.178385 0.097005,-0.283202 0.097656,-0.104818 0.2565097,-0.104818 0.1471351,0 0.226562,0.08594 0.080078,0.08594 0.080078,0.24414 z m -0.1191403,-0.09375 q -6.511e-4,-0.09635 -0.048828,-0.149088 -0.047526,-0.05273 -0.145182,-0.05273 -0.098307,0 -0.1569006,0.05794 -0.057943,0.05794 -0.065755,0.14388 z"
       id="path48" />
    <path
       d="M 4.9044596,16.807201 H 4.7820641 v -0.07617 q -0.052734,0.04557 -0.1100258,0.07096 -0.057291,0.02539 -0.1243487,0.02539 -0.130208,0 -0.2070307,-0.100261 -0.076172,-0.10026 -0.076172,-0.277994 0,-0.09245 0.026042,-0.164713 0.026693,-0.07227 0.071614,-0.123046 0.044271,-0.04948 0.1028643,-0.07552 0.059245,-0.02604 0.1223956,-0.02604 0.057291,0 0.1015622,0.01237 0.044271,0.01172 0.093099,0.03711 V 15.794183 H 4.9044596 Z M 4.7820641,16.628165 v -0.417316 q -0.049479,-0.02214 -0.088542,-0.0306 -0.039062,-0.0085 -0.085286,-0.0085 -0.1028644,0 -0.1601559,0.07161 -0.057291,0.07161 -0.057291,0.203124 0,0.129557 0.044271,0.197265 0.044271,0.06706 0.1419267,0.06706 0.052083,0 0.1054685,-0.02279 0.053385,-0.02344 0.099609,-0.0599 z"
       id="path50" />
    <path
       d="M 5.2768544,15.958245 H 5.1388339 v -0.126953 h 0.1380205 z m -0.00781,0.848956 H 5.1466464 V 16.07999 h 0.1223955 z"
       id="path52" />
    <path
       d="m 6.0489879,16.761629 q -0.061198,0.0293 -0.1165362,0.04557 -0.054687,0.01628 -0.1165361,0.01628 -0.078776,0 -0.1445309,-0.02279 -0.065755,-0.02344 -0.11263,-0.07031 -0.047526,-0.04687 -0.073567,-0.11849 -0.026042,-0.07161 -0.026042,-0.167317 0,-0.178385 0.097656,-0.279947 0.098307,-0.101562 0.259114,-0.101562 0.0625,0 0.1223955,0.01758 0.060547,0.01758 0.1106768,0.04297 v 0.136068 h -0.00651 q -0.055989,-0.04362 -0.1158851,-0.06706 -0.059245,-0.02344 -0.1158852,-0.02344 -0.1041664,0 -0.1647131,0.07031 -0.059896,0.06966 -0.059896,0.205078 0,0.13151 0.058594,0.202474 0.059245,0.07031 0.1660152,0.07031 0.037109,0 0.075521,-0.0098 0.038411,-0.0098 0.06901,-0.02539 0.026693,-0.01367 0.05013,-0.02865 0.023437,-0.01563 0.037109,-0.02669 h 0.00651 z"
       id="path54" />
    <path
       d="M 6.7709915,16.807201 H 6.649247 v -0.07747 q -0.016276,0.01107 -0.044271,0.03125 -0.027344,0.01953 -0.053385,0.03125 -0.030599,0.01497 -0.070312,0.02474 -0.039713,0.01042 -0.093099,0.01042 -0.098307,0 -0.1666663,-0.0651 -0.068359,-0.0651 -0.068359,-0.166016 0,-0.08268 0.035156,-0.133463 0.035807,-0.05143 0.1015622,-0.08073 0.066406,-0.0293 0.1595048,-0.03971 0.093099,-0.01042 0.1998693,-0.01563 v -0.01888 q 0,-0.04167 -0.014974,-0.06901 -0.014323,-0.02734 -0.041666,-0.04297 -0.026042,-0.01497 -0.0625,-0.02018 -0.036458,-0.0052 -0.076172,-0.0052 -0.048177,0 -0.1074216,0.01302 -0.059245,0.01237 -0.1223955,0.03646 h -0.00651 v -0.124348 q 0.035807,-0.0098 0.1035154,-0.02148 0.067708,-0.01172 0.1334632,-0.01172 0.076823,0 0.1334632,0.01302 0.057291,0.01237 0.098958,0.04297 0.041016,0.02995 0.0625,0.07747 0.021484,0.04753 0.021484,0.117838 z M 6.649247,16.628165 v -0.202473 q -0.055989,0.0033 -0.1321611,0.0098 -0.075521,0.0065 -0.1197914,0.01888 -0.052734,0.01497 -0.085286,0.04687 -0.032552,0.03125 -0.032552,0.08659 0,0.0625 0.03776,0.0944 0.03776,0.03125 0.1152341,0.03125 0.064453,0 0.1178383,-0.02474 0.053385,-0.02539 0.098958,-0.06055 z"
       id="path56" />
    <path
       d="m 7.3842713,16.800691 q -0.034505,0.0091 -0.075521,0.01497 -0.040364,0.0059 -0.072265,0.0059 -0.1113279,0 -0.1692705,-0.0599 -0.057943,-0.0599 -0.057943,-0.192057 v -0.38675 H 6.9265902 V 16.07999 h 0.082682 v -0.208984 h 0.1223955 v 0.208984 h 0.2526035 v 0.102864 H 7.1316678 v 0.331379 q 0,0.05729 0.0026,0.08984 0.0026,0.0319 0.018229,0.0599 0.014323,0.02604 0.039062,0.03841 0.025391,0.01172 0.076823,0.01172 0.029948,0 0.0625,-0.0085 0.032552,-0.0091 0.046875,-0.01497 h 0.00651 z"
       id="path58" />
    <path
       d="m 8.1407798,16.456291 h -0.535806 q 0,0.06706 0.020182,0.117187 0.020182,0.04948 0.055338,0.08138 0.033854,0.03125 0.080078,0.04687 0.046875,0.01563 0.1028643,0.01563 0.074219,0 0.1490882,-0.0293 0.075521,-0.02995 0.1074216,-0.05859 h 0.00651 v 0.133464 q -0.061849,0.02604 -0.1263018,0.04362 -0.064453,0.01758 -0.1354163,0.01758 -0.1809892,0 -0.2825514,-0.09766 -0.1015623,-0.09831 -0.1015623,-0.278645 0,-0.178385 0.097005,-0.283202 0.097656,-0.104818 0.2565098,-0.104818 0.147135,0 0.2265619,0.08594 0.080078,0.08594 0.080078,0.24414 z m -0.1191404,-0.09375 q -6.51e-4,-0.09635 -0.048828,-0.149088 -0.047526,-0.05273 -0.1451819,-0.05273 -0.098307,0 -0.1569007,0.05794 -0.057943,0.05794 -0.065755,0.14388 z"
       id="path60" />
    <path
       d="M 8.9161682,16.807201 H 8.7937727 v -0.07617 q -0.052734,0.04557 -0.1100258,0.07096 -0.057291,0.02539 -0.1243486,0.02539 -0.1302081,0 -0.2070308,-0.100261 -0.076172,-0.10026 -0.076172,-0.277994 0,-0.09245 0.026042,-0.164713 0.026693,-0.07227 0.071614,-0.123046 0.044271,-0.04948 0.1028644,-0.07552 0.059245,-0.02604 0.1223955,-0.02604 0.057291,0 0.1015622,0.01237 0.044271,0.01172 0.093099,0.03711 V 15.794183 H 8.9161682 Z M 8.7937727,16.628165 v -0.417316 q -0.049479,-0.02214 -0.088541,-0.0306 -0.039062,-0.0085 -0.085286,-0.0085 -0.1028644,0 -0.1601559,0.07161 -0.057291,0.07161 -0.057291,0.203124 0,0.129557 0.044271,0.197265 0.044271,0.06706 0.1419268,0.06706 0.052083,0 0.1054684,-0.02279 0.053385,-0.02344 0.099609,-0.0599 z"
       id="path62" />
    <path
       d="m 10.339993,16.530509 q 0,0.05664 -0.02669,0.111979 -0.02604,0.05534 -0.07357,0.09375 -0.05208,0.04167 -0.121745,0.0651 -0.06901,0.02344 -0.1666659,0.02344 -0.1048175,0 -0.1888016,-0.01953 -0.083333,-0.01953 -0.1699215,-0.05794 V 16.58585 h 0.00911 q 0.073567,0.0612 0.1699214,0.0944 0.096354,0.0332 0.1809892,0.0332 0.1197914,0 0.1861974,-0.04492 0.06706,-0.04492 0.06706,-0.119792 0,-0.06445 -0.0319,-0.09505 -0.03125,-0.0306 -0.0957,-0.04753 -0.04883,-0.01302 -0.1061192,-0.02149 -0.056641,-0.0085 -0.1204424,-0.02148 -0.128906,-0.02734 -0.1914058,-0.0931 -0.061849,-0.06641 -0.061849,-0.172525 0,-0.121745 0.1028643,-0.199219 0.1028643,-0.07812 0.2610671,-0.07812 0.102213,0 0.187499,0.01953 0.08529,0.01953 0.151042,0.04818 v 0.152343 h -0.0091 q -0.05534,-0.04687 -0.145833,-0.07747 -0.08984,-0.03125 -0.1842441,-0.03125 -0.1035153,0 -0.1666662,0.04297 -0.0625,0.04297 -0.0625,0.110677 0,0.06055 0.03125,0.09505 0.03125,0.0345 0.1100257,0.05273 0.041667,0.0091 0.1184893,0.02214 0.076822,0.01302 0.1302083,0.02669 0.108072,0.02865 0.16276,0.08659 0.05469,0.05794 0.05469,0.162109 z"
       id="path64" />
    <path
       d="m 11.411604,17.044831 q -0.03906,0.0098 -0.07747,0.01367 -0.03776,0.0046 -0.07747,0.0046 -0.113281,0 -0.182291,-0.0625 -0.06836,-0.06185 -0.07422,-0.177734 -0.01563,0.0026 -0.0306,0.0033 -0.01432,0.0013 -0.02799,0.0013 -0.102214,0 -0.186198,-0.03385 -0.08333,-0.03385 -0.141927,-0.09831 -0.05859,-0.06445 -0.09049,-0.158202 -0.03125,-0.09375 -0.03125,-0.214192 0,-0.11849 0.03125,-0.212239 0.03125,-0.0944 0.09114,-0.161458 0.05729,-0.0638 0.141927,-0.09766 0.08529,-0.03386 0.185547,-0.03386 0.104166,0 0.186848,0.03451 0.08333,0.03385 0.141276,0.097 0.05924,0.0651 0.09049,0.159504 0.0319,0.0944 0.0319,0.214193 0,0.177734 -0.07292,0.299478 -0.07227,0.121745 -0.194661,0.170573 0.0026,0.07422 0.03516,0.115234 0.03255,0.04102 0.118489,0.04102 0.02669,0 0.06315,-0.0085 0.03711,-0.0078 0.05273,-0.01432 h 0.01758 z m -0.153645,-0.722003 q 0,-0.188802 -0.08464,-0.291015 -0.08463,-0.102865 -0.231119,-0.102865 -0.147786,0 -0.232422,0.102865 -0.08398,0.102213 -0.08398,0.291015 0,0.190754 0.08594,0.292317 0.08594,0.100911 0.230469,0.100911 0.14453,0 0.229817,-0.100911 0.08594,-0.101563 0.08594,-0.292317 z"
       id="path66" />
    <path
       d="M 12.20978,16.807201 H 11.5965 v -0.969398 h 0.128906 v 0.854815 h 0.484374 z"
       id="path68" />
    <path
       d="m 13.441548,16.130771 q 0,0.06445 -0.02279,0.119791 -0.02214,0.05469 -0.0625,0.09505 -0.05013,0.05013 -0.118489,0.07552 -0.06836,0.02474 -0.172526,0.02474 H 12.93634 v 0.361327 h -0.128905 v -0.969398 h 0.26302 q 0.08724,0 0.147786,0.01497 0.06055,0.01432 0.107421,0.04557 0.05534,0.03711 0.08529,0.09245 0.0306,0.05534 0.0306,0.139974 z m -0.134115,0.0033 q 0,-0.05013 -0.01758,-0.08724 -0.01758,-0.03711 -0.05338,-0.06055 -0.03125,-0.02018 -0.07161,-0.02865 -0.03971,-0.0091 -0.100912,-0.0091 H 12.93634 v 0.387368 h 0.108724 q 0.07813,0 0.126953,-0.01367 0.04883,-0.01432 0.07943,-0.04492 0.0306,-0.03125 0.04297,-0.06575 0.01302,-0.0345 0.01302,-0.07747 z"
       id="path70" />
    <path
       d="m 14.188942,16.443921 q 0,0.177734 -0.09115,0.280598 -0.09115,0.102865 -0.24414,0.102865 -0.154297,0 -0.245442,-0.102865 -0.0905,-0.102864 -0.0905,-0.280598 0,-0.177734 0.0905,-0.280598 0.09114,-0.103516 0.245442,-0.103516 0.152994,0 0.24414,0.103516 0.09115,0.102864 0.09115,0.280598 z m -0.126302,0 q 0,-0.141276 -0.05534,-0.209635 -0.05534,-0.06901 -0.153645,-0.06901 -0.09961,0 -0.154948,0.06901 -0.05469,0.06836 -0.05469,0.209635 0,0.136718 0.05534,0.207682 0.05534,0.07031 0.154297,0.07031 0.09766,0 0.152994,-0.06966 0.05599,-0.07031 0.05599,-0.208333 z"
       id="path72" />
    <path
       d="m 14.998185,16.443921 q 0,0.177734 -0.09115,0.280598 -0.09114,0.102865 -0.24414,0.102865 -0.154296,0 -0.245442,-0.102865 -0.0905,-0.102864 -0.0905,-0.280598 0,-0.177734 0.0905,-0.280598 0.09115,-0.103516 0.245442,-0.103516 0.152995,0 0.24414,0.103516 0.09115,0.102864 0.09115,0.280598 z m -0.126302,0 q 0,-0.141276 -0.05534,-0.209635 -0.05534,-0.06901 -0.153646,-0.06901 -0.09961,0 -0.154947,0.06901 -0.05469,0.06836 -0.05469,0.209635 0,0.136718 0.05534,0.207682 0.05534,0.07031 0.154296,0.07031 0.09766,0 0.152995,-0.06966 0.05599,-0.07031 0.05599,-0.208333 z"
       id="path74" />
    <path
       d="m 15.311334,16.807201 h -0.122395 v -1.013018 h 0.122395 z"
       id="path76" />
  </g>
</svg>
