<?xml version="1.0" encoding="UTF-8" standalone="no"?>
<svg
   xmlns:dc="http://purl.org/dc/elements/1.1/"
   xmlns:cc="http://creativecommons.org/ns#"
   xmlns:rdf="http://www.w3.org/1999/02/22-rdf-syntax-ns#"
   xmlns:svg="http://www.w3.org/2000/svg"
   xmlns="http://www.w3.org/2000/svg"
   xmlns:sodipodi="http://sodipodi.sourceforge.net/DTD/sodipodi-0.dtd"
   xmlns:inkscape="http://www.inkscape.org/namespaces/inkscape"
   id="b089cfca-0de1-451c-a1ca-6680ea50cb4f"
   width="18"
   height="18"
   viewBox="0 0 18 18"
   version="1.1"
   sodipodi:docname="azure-cosmos-db.svg"
   inkscape:version="1.0.1 (3bc2e813f5, 2020-09-07)">
  <metadata
     id="metadata33">
    <rdf:RDF>
      <cc:Work
         rdf:about="">
        <dc:format>image/svg+xml</dc:format>
        <dc:type
           rdf:resource="http://purl.org/dc/dcmitype/StillImage" />
      </cc:Work>
    </rdf:RDF>
  </metadata>
  <sodipodi:namedview
     pagecolor="#ffffff"
     bordercolor="#666666"
     borderopacity="1"
     objecttolerance="10"
     gridtolerance="10"
     guidetolerance="10"
     inkscape:pageopacity="0"
     inkscape:pageshadow="2"
     inkscape:window-width="1920"
     inkscape:window-height="1017"
     id="namedview31"
     showgrid="false"
     inkscape:zoom="47.222222"
     inkscape:cx="9"
     inkscape:cy="11.541176"
     inkscape:window-x="-8"
     inkscape:window-y="-8"
     inkscape:window-maximized="1"
     inkscape:current-layer="b089cfca-0de1-451c-a1ca-6680ea50cb4f" />
  <defs
     id="defs10">
    <radialGradient
       id="b25d0836-964a-4c84-8c20-855f66e8345e"
       cx="-105.006"
       cy="-10.409"
       r="5.954"
       gradientTransform="matrix(1.036,0,0,1.027,117.739,19.644)"
       gradientUnits="userSpaceOnUse">
      <stop
         offset="0.183"
         stop-color="#5ea0ef"
         id="stop2" />
      <stop
         offset="1"
         stop-color="#0078d4"
         id="stop4" />
    </radialGradient>
    <clipPath
       id="b36c7f5d-2ef1-4760-8a25-eeb9661f4e47">
      <path
         d="M14.969,7.53A6.137,6.137,0,1,1,7.574,2.987,6.137,6.137,0,0,1,14.969,7.53Z"
         fill="none"
         id="path7" />
    </clipPath>
  </defs>
  <title
     id="title12">Icon-databases-121</title>
  <path
     d="M 4.2033292,3.66382 A 0.12817932,0.12817932 0 0 1 4.0744174,3.5349082 v 0 A 1.4736959,1.4736959 0 0 0 2.6029189,2.0634097 0.12891177,0.12891177 0 0 1 2.4740071,1.9352303 v 0 A 0.12891177,0.12891177 0 0 1 2.6029189,1.8063185 1.4736959,1.4736959 0 0 0 4.0744174,0.33408747 0.12817932,0.12817932 0 0 1 4.2033292,0.2051757 v 0 A 0.12817932,0.12817932 0 0 1 4.332241,0.33408747 v 0 A 1.4736959,1.4736959 0 0 0 5.8037396,1.8055861 0.12817932,0.12817932 0 0 1 5.9326514,1.9344979 v 0 A 0.12817932,0.12817932 0 0 1 5.8037396,2.0634097 v 0 A 1.4729635,1.4729635 0 0 0 4.332241,3.5349082 0.12964423,0.12964423 0 0 1 4.2033292,3.66382 Z"
     fill="#50e6ff"
     id="path14"
     style="stroke-width:0.732454" />
  <path
     d="m 13.47399,12.592424 a 0.10327591,0.10327591 0 0 1 -0.103276,-0.103275 v 0 a 1.1785173,1.1785173 0 0 0 -1.177052,-1.177052 0.10327591,0.10327591 0 0 1 -0.103276,-0.102544 v 0 a 0.10327591,0.10327591 0 0 1 0.103276,-0.103276 v 0 A 1.1777848,1.1777848 0 0 0 13.370714,9.9292243 0.10327591,0.10327591 0 0 1 13.47399,9.8259492 v 0 a 0.10327591,0.10327591 0 0 1 0.103275,0.1032751 v 0 a 1.1777848,1.1777848 0 0 0 1.177053,1.1770527 0.103276,0.103276 0 1 1 0,0.206552 v 0 a 1.1785173,1.1785173 0 0 0 -1.177053,1.177053 0.10327591,0.10327591 0 0 1 -0.103275,0.102542 z"
     fill="#50e6ff"
     id="path16"
     style="stroke-width:0.732454" />
  <g
     id="g26"
     transform="matrix(0.73245326,0,0,0.73245326,2.0396623,-0.19327887)">
    <path
       d="M 14.969,7.53 A 6.137,6.137 0 1 1 7.574,2.987 6.137,6.137 0 0 1 14.969,7.53 Z"
       fill="url(#b25d0836-964a-4c84-8c20-855f66e8345e)"
       id="path18"
       style="fill:url(#b25d0836-964a-4c84-8c20-855f66e8345e)" />
    <g
       clip-path="url(#b36c7f5d-2ef1-4760-8a25-eeb9661f4e47)"
       id="g24">
      <path
         d="M 5.709,13.115 A 1.638,1.638 0 1 0 5.714,9.84 1.307,1.307 0 0 0 5.721,9.7 1.651,1.651 0 0 0 4.06,8.064 H 2.832 a 6.251,6.251 0 0 0 1.595,5.051 z"
         fill="#f2f2f2"
         id="path20" />
      <path
         d="m 15.045,7.815 c 0,-0.015 0,-0.03 -0.007,-0.044 a 5.978,5.978 0 0 0 -1.406,-2.88 1.825,1.825 0 0 0 -0.289,-0.09 1.806,1.806 0 0 0 -2.3,1.663 2,2 0 0 0 -0.2,-0.013 1.737,1.737 0 0 0 -0.581,3.374 1.451,1.451 0 0 0 0.541,0.1 h 2.03 a 13.453,13.453 0 0 0 2.212,-2.11 z"
         fill="#f2f2f2"
         id="path22" />
    </g>
  </g>
  <path
     d="M 14.631266,2.6134821 C 14.170553,1.8466035 13.093114,1.5477626 11.587923,1.7718932 a 10.698212,10.698212 0 0 0 -1.524968,0.3310689 4.7287183,4.7287183 0 0 1 1.119188,0.5617916 c 0.176522,-0.03882 0.353775,-0.084964 0.523704,-0.1106004 a 5.4860749,5.4860749 0 0 1 0.807896,-0.065189 1.6026077,1.6026077 0 0 1 1.434876,0.5310287 v 0 c 0.28053,0.4673051 0.04395,1.2664116 -0.648953,2.1973597 A 12.248816,12.248816 0 0 1 9.8212457,8.1845215 12.274452,12.274452 0 0 1 5.5554379,9.8413301 c -1.1455569,0.1713949 -1.9644396,0 -2.2449692,-0.46584 C 3.0299391,8.9096506 3.2665215,8.1083464 3.9594222,7.181793 4.0451193,7.0667979 4.0663604,7.010399 4.1637767,6.8946714 A 4.5792977,4.5792977 0 0 1 4.1828205,5.7007726 8.4613,8.4613 0 0 0 3.3258502,6.7056984 C 2.4183407,7.9193735 2.1722363,9.0107288 2.632217,9.777607 a 2.3182146,2.3182146 0 0 0 2.1241144,0.914834 6.1775108,6.1775108 0 0 0 0.916299,-0.07325 13.077953,13.077953 0 0 0 4.5551266,-1.7578874 13.043528,13.043528 0 0 0 3.706946,-3.1729875 C 14.845142,4.471716 15.091246,3.381093 14.631266,2.6134821 Z"
     fill="#50e6ff"
     id="path28"
     style="stroke-width:0.732454" />
  <g
     aria-label="Cosmos DB"
     id="text37"
     style="font-size:2.66667px;line-height:1.25;font-family:sans-serif">
    <path
       d="m 3.1978147,15.762904 q -0.071615,0.03125 -0.1302085,0.05859 -0.057292,0.02734 -0.1510419,0.05729 -0.079427,0.02474 -0.1731773,0.04167 -0.092448,0.01823 -0.2044273,0.01823 -0.2109378,0 -0.3841151,-0.05859 -0.1718752,-0.0599 -0.2994795,-0.186199 -0.1250002,-0.123698 -0.1953128,-0.313802 -0.070313,-0.191406 -0.070313,-0.444011 0,-0.239584 0.067708,-0.428386 0.067708,-0.188802 0.1953128,-0.319011 0.1236981,-0.126302 0.2981774,-0.192708 0.1757815,-0.06641 0.3893235,-0.06641 0.1562502,0 0.3111983,0.03776 0.1562502,0.03776 0.3463546,0.132812 v 0.30599 H 3.1782834 Q 3.018127,14.272017 2.8605747,14.210819 q -0.1575523,-0.0612 -0.33724,-0.0612 -0.1471356,0 -0.2656254,0.04818 -0.1171876,0.04687 -0.2096357,0.147135 -0.089844,0.09766 -0.1406251,0.247397 -0.049479,0.148437 -0.049479,0.34375 0,0.204427 0.054688,0.351563 0.05599,0.147136 0.1432293,0.239584 0.091146,0.09635 0.2122399,0.143229 0.122396,0.04557 0.2578128,0.04557 0.1861982,0 0.3489588,-0.0638 0.1627606,-0.0638 0.3046879,-0.191407 h 0.018229 z"
       style="font-size:2.66667px"
       id="path39" />
    <path
       d="m 4.7824521,15.176966 q 0,0.355469 -0.1822919,0.561198 -0.1822919,0.20573 -0.4882819,0.20573 -0.3085941,0 -0.490886,-0.20573 -0.1809898,-0.205729 -0.1809898,-0.561198 0,-0.355469 0.1809898,-0.561199 0.1822919,-0.207031 0.490886,-0.207031 0.30599,0 0.4882819,0.207031 0.1822919,0.20573 0.1822919,0.561199 z m -0.2526045,0 q 0,-0.282553 -0.1106772,-0.419272 -0.1106772,-0.138021 -0.3072921,-0.138021 -0.199219,0 -0.3098962,0.138021 -0.1093752,0.136719 -0.1093752,0.419272 0,0.273438 0.1106773,0.415365 0.1106772,0.140625 0.3085941,0.140625 0.1953128,0 0.30599,-0.139323 0.1119793,-0.140625 0.1119793,-0.416667 z"
       style="font-size:2.66667px"
       id="path41" />
    <path
       d="m 6.2004225,15.484258 q 0,0.199219 -0.1653648,0.326823 -0.1640627,0.127604 -0.4492193,0.127604 -0.1614585,0 -0.2968754,-0.03776 -0.1341147,-0.03906 -0.2252607,-0.08464 V 15.54155 h 0.013021 q 0.1158855,0.08724 0.2578128,0.139323 0.1419273,0.05078 0.2721358,0.05078 0.1614585,0 0.2526045,-0.05208 0.091146,-0.05208 0.091146,-0.164063 0,-0.08594 -0.049479,-0.130209 -0.049479,-0.04427 -0.1901044,-0.07552 -0.052083,-0.01172 -0.1367189,-0.02734 -0.083334,-0.01563 -0.152344,-0.03385 -0.1914065,-0.05078 -0.2721358,-0.148437 -0.079427,-0.09896 -0.079427,-0.242188 0,-0.08984 0.036458,-0.169271 0.037761,-0.07943 0.1132814,-0.141927 0.072917,-0.0612 0.1848961,-0.09635 0.1132814,-0.03646 0.2526045,-0.03646 0.1302085,0 0.2630212,0.03255 0.1341147,0.03125 0.2226565,0.07682 v 0.261719 h -0.013021 q -0.09375,-0.06901 -0.2278648,-0.115885 -0.1341148,-0.04818 -0.2630212,-0.04818 -0.1341148,0 -0.2265628,0.05208 -0.092448,0.05078 -0.092448,0.152344 0,0.08984 0.05599,0.135417 0.054688,0.04557 0.1770836,0.07422 0.067708,0.01563 0.1510419,0.03125 0.084636,0.01563 0.1406251,0.02865 0.1705732,0.03906 0.2630212,0.134115 0.092448,0.09635 0.092448,0.255209 z"
       style="font-size:2.66667px"
       id="path43" />
    <path
       d="m 8.6730819,15.903529 h -0.244792 v -0.828126 q 0,-0.09375 -0.00911,-0.18099 -0.00781,-0.08724 -0.035156,-0.139323 -0.029948,-0.05599 -0.085938,-0.08463 -0.05599,-0.02865 -0.1614585,-0.02865 -0.1028647,0 -0.2057294,0.05208 -0.1028647,0.05078 -0.2057295,0.130209 0.00391,0.02995 0.00651,0.07031 0.0026,0.03906 0.0026,0.07813 v 0.930991 H 7.4894867 v -0.828126 q 0,-0.09635 -0.00911,-0.182292 -0.00781,-0.08724 -0.035156,-0.139323 -0.029948,-0.05599 -0.085938,-0.08333 -0.05599,-0.02865 -0.1614586,-0.02865 -0.1002605,0 -0.2018232,0.04948 -0.1002605,0.04948 -0.200521,0.126302 v 1.085939 H 6.5506834 V 14.4491 h 0.244792 v 0.161459 q 0.1145834,-0.09505 0.2278648,-0.148438 0.1145835,-0.05339 0.2434899,-0.05339 0.1484377,0 0.2513024,0.0625 0.1041668,0.0625 0.1549481,0.173177 0.1484377,-0.125 0.2708337,-0.179688 0.122396,-0.05599 0.2617191,-0.05599 0.2395836,0 0.352865,0.145833 0.1145835,0.144532 0.1145835,0.404949 z"
       style="font-size:2.66667px"
       id="path45" />
    <path
       d="m 10.384022,15.176966 q 0,0.355469 -0.182292,0.561198 -0.182292,0.20573 -0.4882821,0.20573 -0.3085942,0 -0.4908861,-0.20573 -0.1809898,-0.205729 -0.1809898,-0.561198 0,-0.355469 0.1809898,-0.561199 0.1822919,-0.207031 0.4908861,-0.207031 0.3059901,0 0.4882821,0.207031 0.182292,0.20573 0.182292,0.561199 z m -0.252605,0 q 0,-0.282553 -0.110677,-0.419272 -0.1106773,-0.138021 -0.3072921,-0.138021 -0.1992191,0 -0.3098963,0.138021 -0.1093751,0.136719 -0.1093751,0.419272 0,0.273438 0.1106772,0.415365 0.1106772,0.140625 0.3085942,0.140625 0.1953127,0 0.3059901,-0.139323 0.111979,-0.140625 0.111979,-0.416667 z"
       style="font-size:2.66667px"
       id="path47" />
    <path
       d="m 11.801992,15.484258 q 0,0.199219 -0.165365,0.326823 -0.164062,0.127604 -0.449219,0.127604 -0.161458,0 -0.296875,-0.03776 -0.134115,-0.03906 -0.225261,-0.08464 V 15.54155 h 0.01302 q 0.115885,0.08724 0.257813,0.139323 0.141927,0.05078 0.272135,0.05078 0.161459,0 0.252605,-0.05208 0.09115,-0.05208 0.09115,-0.164063 0,-0.08594 -0.04948,-0.130209 -0.04948,-0.04427 -0.190105,-0.07552 -0.05208,-0.01172 -0.136719,-0.02734 -0.08333,-0.01563 -0.152344,-0.03385 -0.191406,-0.05078 -0.272135,-0.148437 -0.07943,-0.09896 -0.07943,-0.242188 0,-0.08984 0.03646,-0.169271 0.03776,-0.07943 0.113281,-0.141927 0.07292,-0.0612 0.184896,-0.09635 0.113282,-0.03646 0.252605,-0.03646 0.130208,0 0.263021,0.03255 0.134115,0.03125 0.222656,0.07682 v 0.261719 h -0.01302 q -0.09375,-0.06901 -0.227865,-0.115885 -0.134115,-0.04818 -0.263021,-0.04818 -0.134115,0 -0.226563,0.05208 -0.09245,0.05078 -0.09245,0.152344 0,0.08984 0.05599,0.135417 0.05469,0.04557 0.177084,0.07422 0.06771,0.01563 0.151042,0.03125 0.08464,0.01563 0.140625,0.02865 0.170573,0.03906 0.263021,0.134115 0.09245,0.09635 0.09245,0.255209 z"
       style="font-size:2.66667px"
       id="path49" />
    <path
       d="m 14.747309,14.93608 q 0,0.264323 -0.115886,0.479167 -0.114583,0.214844 -0.30599,0.333334 -0.132813,0.08203 -0.296875,0.11849 -0.162761,0.03646 -0.429688,0.03646 h -0.489584 v -1.938804 h 0.484375 q 0.283855,0 0.450522,0.04167 0.167969,0.04036 0.283854,0.11198 0.197917,0.123698 0.308594,0.329427 0.110678,0.20573 0.110678,0.488282 z m -0.269532,-0.0039 q 0,-0.227865 -0.07943,-0.384115 -0.07943,-0.156251 -0.23698,-0.246094 -0.114583,-0.0651 -0.243489,-0.08984 -0.128907,-0.02604 -0.308595,-0.02604 h -0.242187 v 1.496096 h 0.242187 q 0.186199,0 0.32422,-0.02734 0.139323,-0.02734 0.255208,-0.101563 0.144532,-0.09245 0.216146,-0.24349 0.07292,-0.151041 0.07292,-0.377604 z"
       style="font-size:2.66667px"
       id="path51" />
    <path
       d="m 16.626218,15.307174 q 0,0.144532 -0.05469,0.255209 -0.05469,0.110677 -0.147136,0.182292 -0.109375,0.08594 -0.240885,0.122396 -0.130209,0.03646 -0.332032,0.03646 h -0.687501 v -1.938804 h 0.57422 q 0.212239,0 0.317708,0.01563 0.105469,0.01563 0.201823,0.0651 0.106771,0.05599 0.154949,0.144531 0.04818,0.08724 0.04818,0.209636 0,0.138021 -0.07031,0.235677 -0.07031,0.09635 -0.1875,0.154948 v 0.01042 q 0.196615,0.04036 0.309896,0.173177 0.113282,0.131511 0.113282,0.333334 z m -0.433595,-0.873699 q 0,-0.07031 -0.02344,-0.11849 -0.02344,-0.04818 -0.07552,-0.07813 -0.0612,-0.03516 -0.148438,-0.04297 -0.08724,-0.0091 -0.216146,-0.0091 h -0.307292 v 0.559897 h 0.333334 q 0.121094,0 0.192708,-0.01172 0.07161,-0.01302 0.132813,-0.05208 0.0612,-0.03906 0.08594,-0.10026 0.02604,-0.0625 0.02604,-0.147136 z m 0.165365,0.884116 q 0,-0.117188 -0.03516,-0.186198 -0.03516,-0.06901 -0.127605,-0.117188 -0.0625,-0.03255 -0.152344,-0.04167 -0.08854,-0.01042 -0.216146,-0.01042 h -0.404948 v 0.721355 h 0.341146 q 0.169271,0 0.277344,-0.01693 0.108073,-0.01823 0.177084,-0.06511 0.07292,-0.05078 0.106771,-0.115885 0.03385,-0.0651 0.03385,-0.167969 z"
       style="font-size:2.66667px"
       id="path53" />
  </g>
</svg>
