<?xml version="1.0" encoding="UTF-8" standalone="no"?>
<svg
   xmlns:dc="http://purl.org/dc/elements/1.1/"
   xmlns:cc="http://creativecommons.org/ns#"
   xmlns:rdf="http://www.w3.org/1999/02/22-rdf-syntax-ns#"
   xmlns:svg="http://www.w3.org/2000/svg"
   xmlns="http://www.w3.org/2000/svg"
   xmlns:sodipodi="http://sodipodi.sourceforge.net/DTD/sodipodi-0.dtd"
   xmlns:inkscape="http://www.inkscape.org/namespaces/inkscape"
   role="img"
   viewBox="0.77 -0.36 16.41 18.66"
   version="1.1"
   id="svg44"
   sodipodi:docname="azure-synapse-analytics.svg"
   inkscape:version="1.0.1 (3bc2e813f5, 2020-09-07)">
  <metadata
     id="metadata48">
    <rdf:RDF>
      <cc:Work
         rdf:about="">
        <dc:format>image/svg+xml</dc:format>
        <dc:type
           rdf:resource="http://purl.org/dc/dcmitype/StillImage" />
      </cc:Work>
    </rdf:RDF>
  </metadata>
  <sodipodi:namedview
     pagecolor="#ffffff"
     bordercolor="#666666"
     borderopacity="1"
     objecttolerance="10"
     gridtolerance="10"
     guidetolerance="10"
     inkscape:pageopacity="0"
     inkscape:pageshadow="2"
     inkscape:window-width="1920"
     inkscape:window-height="1017"
     id="namedview46"
     showgrid="false"
     inkscape:zoom="45.551983"
     inkscape:cx="9.4322054"
     inkscape:cy="10.229401"
     inkscape:window-x="-8"
     inkscape:window-y="-8"
     inkscape:window-maximized="1"
     inkscape:current-layer="text64"
     inkscape:document-rotation="0" />
  <title
     id="title2">Azure Synapse Dedicated Pools logo</title>
  <defs
     id="defs34">
    <linearGradient
       id="a"
       x1="9"
       x2="9"
       y1="5.38"
       gradientUnits="userSpaceOnUse"
       gradientTransform="matrix(0.65322743,0,0,0.65322743,3.0331413,-0.26343529)">
      <stop
         offset=".199"
         stop-color="#005ba1"
         id="stop4" />
      <stop
         offset="1"
         stop-color="#0078d4"
         id="stop6" />
    </linearGradient>
    <linearGradient
       id="b"
       x1="9"
       x2="9"
       y1="12.713"
       y2="5.287"
       gradientUnits="userSpaceOnUse"
       gradientTransform="matrix(0.65322743,0,0,0.65322743,3.0331413,-0.26343529)">
      <stop
         offset="0"
         stop-color="#198ab3"
         id="stop9" />
      <stop
         offset=".172"
         stop-color="#32bedd"
         id="stop11" />
      <stop
         offset=".5"
         stop-color="#50e6ff"
         id="stop13" />
      <stop
         offset=".5"
         stop-color="#4fe4fd"
         id="stop15" />
      <stop
         offset=".5"
         stop-color="#4bddf8"
         id="stop17" />
      <stop
         offset=".5"
         stop-color="#44d2ee"
         id="stop19" />
      <stop
         offset=".5"
         stop-color="#3ac1e0"
         id="stop21" />
      <stop
         offset=".5"
         stop-color="#2dabce"
         id="stop23" />
      <stop
         offset=".5"
         stop-color="#1d90b8"
         id="stop25" />
      <stop
         offset=".5"
         stop-color="#198ab3"
         id="stop27" />
      <stop
         offset=".662"
         stop-color="#32bedd"
         id="stop29" />
      <stop
         offset=".975"
         stop-color="#50e6ff"
         id="stop31" />
    </linearGradient>
  </defs>
  <path
     fill="#0078d4"
     d="M 8.9121881,-0.26343529 3.7843528,2.6695559 V 8.5290061 L 8.9121881,11.494659 14.040023,8.5616676 V 2.6826204 Z M 13.092844,7.9476335 8.9121881,10.364576 4.7315326,7.9731094 V 3.2509283 L 8.9121881,0.83398683 13.092844,3.2574605 Z"
     id="path36"
     style="stroke-width:0.653227" />
  <path
     fill="url(#a)"
     d="M 8.9121881,-0.26343529 3.7843528,2.6695559 4.7315326,3.2509283 8.9121881,0.83398683 13.092844,3.2509283 14.040023,2.6695559 Z"
     id="path38"
     style="fill:url(#a);stroke-width:0.653227" />
  <path
     fill="#50e6ff"
     d="M 11.355259,6.579122 A 0.47685602,0.47685602 0 0 0 11.144267,6.392299 3.811582,3.811582 0 0 0 8.2191138,4.2066 L 12.450068,1.7615697 11.466307,1.1971813 6.6481019,3.982543 a 0.48992057,0.48992057 0 0 0 0.2456134,0.9145184 0.44680756,0.44680756 0 0 0 0.05879,-0.015024 l 0.081654,0.341638 A 2.8212893,2.8212893 0 0 1 10.19382,6.6855981 L 5.3932519,9.4598549 6.3730931,10.02555 11.176275,7.2486802 a 0.4762028,0.4762028 0 0 0 0.158081,-0.1541617 l 0.04899,-0.011758 c -0.0046,-0.018943 -0.01176,-0.035927 -0.01633,-0.054871 A 0.48012216,0.48012216 0 0 0 11.355262,6.579122 Z"
     id="path40"
     style="stroke-width:0.653227" />
  <path
     fill="url(#b)"
     d="m 10.931315,5.6241036 a 1.2084707,1.2084707 0 1 0 1.20847,1.2084707 1.2084707,1.2084707 0 0 0 -1.20847,-1.2084707 z M 6.8930621,3.1771136 A 1.2084707,1.2084707 0 1 0 8.1015329,4.3855844 1.2084707,1.2084707 0 0 0 6.8930621,3.1771136 Z"
     id="path42"
     style="fill:url(#b);stroke-width:0.653227" />
  <g
     aria-label="Synapse "
     id="text52"
     style="font-style:normal;font-weight:normal;font-size:40px;line-height:0;font-family:sans-serif;fill:#000000;fill-opacity:1;stroke:none">
    <path
       d="m 4.7223788,13.309837 q 0,0.113281 -0.053386,0.223959 -0.052083,0.110677 -0.1471356,0.1875 -0.1041668,0.08333 -0.2434899,0.130208 -0.138021,0.04687 -0.3333337,0.04687 -0.2096357,0 -0.3776047,-0.03906 -0.1666669,-0.03906 -0.3398442,-0.115886 v -0.322917 h 0.018229 q 0.1471356,0.122396 0.3398442,0.188803 0.1927086,0.06641 0.3619796,0.06641 0.2395837,0 0.3723963,-0.08984 0.1341148,-0.08984 0.1341148,-0.239584 0,-0.128906 -0.063802,-0.190104 -0.0625,-0.0612 -0.1914065,-0.09505 Q 4.1012843,13.035097 3.9867008,13.01817 3.8734194,13.001243 3.7458151,12.975201 3.4880022,12.920514 3.3630021,12.789003 3.239304,12.65619 3.239304,12.44395 q 0,-0.243489 0.2057294,-0.398438 0.2057294,-0.15625 0.5221361,-0.15625 0.2044273,0 0.3750005,0.03906 0.1705731,0.03906 0.3020837,0.09635 v 0.304688 h -0.018229 q -0.1106772,-0.09375 -0.291667,-0.154948 -0.1796878,-0.0625 -0.3684901,-0.0625 -0.2070315,0 -0.3333337,0.08594 -0.1250002,0.08594 -0.1250002,0.221355 0,0.121094 0.0625,0.190104 0.0625,0.06901 0.2200523,0.105469 0.083334,0.01823 0.2369795,0.04427 0.153646,0.02604 0.260417,0.05339 0.2161461,0.05729 0.3255213,0.173178 0.1093751,0.115885 0.1093751,0.324219 z"
       style="font-size:2.66667px"
       id="path50" />
    <path
       d="M 6.3356622,12.408794 5.4867028,14.399682 H 5.2249837 L 5.4958174,13.79291 4.9163895,12.408794 H 5.1820149 L 5.62863,13.486921 6.0791514,12.408794 Z"
       style="font-size:2.66667px"
       id="path52" />
    <path
       d="m 7.8721225,13.863223 h -0.244792 v -0.828126 q 0,-0.100261 -0.011719,-0.1875 -0.011719,-0.08854 -0.042969,-0.138021 -0.032552,-0.05469 -0.09375,-0.08073 -0.061198,-0.02734 -0.1588544,-0.02734 -0.1002605,0 -0.2096356,0.04948 -0.1093752,0.04948 -0.2096357,0.126302 v 1.085939 h -0.244792 v -1.454429 h 0.244792 v 0.161459 q 0.1145835,-0.09505 0.2369794,-0.148438 0.122396,-0.05339 0.2513025,-0.05339 0.2356773,0 0.3593754,0.141928 0.1236981,0.141927 0.1236981,0.408854 z"
       style="font-size:2.66667px"
       id="path54" />
    <path
       d="M 9.473687,13.863223 H 9.2301971 v -0.154948 q -0.032552,0.02213 -0.088542,0.0625 -0.054687,0.03906 -0.1067709,0.0625 -0.061198,0.02995 -0.1406252,0.04948 -0.079427,0.02083 -0.1861982,0.02083 -0.1966148,0 -0.3333337,-0.130209 -0.1367189,-0.130208 -0.1367189,-0.332031 0,-0.165365 0.070312,-0.266928 0.071615,-0.102865 0.2031253,-0.161458 0.1328127,-0.05859 0.3190108,-0.07943 0.1861982,-0.02083 0.3997401,-0.03125 v -0.03776 q 0,-0.08333 -0.029948,-0.138021 -0.028646,-0.05469 -0.083334,-0.08594 -0.052083,-0.02995 -0.1250001,-0.04036 -0.072917,-0.01042 -0.152344,-0.01042 -0.096354,0 -0.214844,0.02604 -0.1184897,0.02474 -0.244792,0.07292 h -0.013021 v -0.248698 q 0.071615,-0.01953 0.2070315,-0.04297 0.1354168,-0.02344 0.2669274,-0.02344 0.153646,0 0.2669274,0.02604 0.1145835,0.02474 0.197917,0.08594 0.082031,0.0599 0.1250001,0.154948 0.042969,0.09505 0.042969,0.235678 z M 9.2301971,13.50515 v -0.404949 q -0.1119793,0.0065 -0.2643232,0.01953 -0.1510419,0.01302 -0.2395837,0.03776 -0.1054689,0.02995 -0.1705731,0.09375 -0.065104,0.0625 -0.065104,0.173177 0,0.125001 0.075521,0.188803 0.075521,0.0625 0.230469,0.0625 0.1289064,0 0.2356774,-0.04948 0.106771,-0.05078 0.1979169,-0.121094 z"
       style="font-size:2.66667px"
       id="path56" />
    <path
       d="m 11.224991,13.11843 q 0,0.177084 -0.05078,0.32422 -0.05078,0.145833 -0.143229,0.247396 -0.08594,0.09635 -0.203126,0.14974 -0.115885,0.05208 -0.246094,0.05208 -0.113281,0 -0.205729,-0.02474 -0.09115,-0.02474 -0.186198,-0.07682 v 0.609376 H 9.9450416 v -1.990888 h 0.2447924 v 0.152344 q 0.09766,-0.08203 0.21875,-0.136719 0.122396,-0.05599 0.260417,-0.05599 0.263021,0 0.408855,0.199219 0.147135,0.197917 0.147135,0.550782 z m -0.252604,0.0065 q 0,-0.263021 -0.08984,-0.39323 -0.08984,-0.130208 -0.276042,-0.130208 -0.105469,0 -0.21224,0.04557 -0.106771,0.04557 -0.204427,0.119792 v 0.824219 q 0.104166,0.04687 0.178385,0.0638 0.07552,0.01693 0.170573,0.01693 0.204428,0 0.319011,-0.138021 0.114584,-0.138021 0.114584,-0.408855 z"
       style="font-size:2.66667px"
       id="path58" />
    <path
       d="m 12.645566,13.443952 q 0,0.199219 -0.165365,0.326823 -0.164063,0.127604 -0.449219,0.127604 -0.161459,0 -0.296876,-0.03776 -0.134114,-0.03906 -0.22526,-0.08464 v -0.27474 h 0.01302 q 0.115885,0.08724 0.257812,0.139324 0.141928,0.05078 0.272136,0.05078 0.161459,0 0.252605,-0.05208 0.09115,-0.05208 0.09115,-0.164062 0,-0.08594 -0.04948,-0.130209 -0.04948,-0.04427 -0.190104,-0.07552 -0.05208,-0.01172 -0.136719,-0.02734 -0.08333,-0.01563 -0.152344,-0.03386 -0.191406,-0.05078 -0.272136,-0.148437 -0.07943,-0.09896 -0.07943,-0.242188 0,-0.08984 0.03646,-0.169271 0.03776,-0.07943 0.113282,-0.141927 0.07292,-0.0612 0.184896,-0.09636 0.113281,-0.03646 0.252604,-0.03646 0.130209,0 0.263022,0.03255 0.134114,0.03125 0.222656,0.07682 v 0.261719 h -0.01302 q -0.09375,-0.06901 -0.227865,-0.115886 -0.134114,-0.04818 -0.263021,-0.04818 -0.134115,0 -0.226563,0.05208 -0.09245,0.05078 -0.09245,0.152344 0,0.08984 0.05599,0.135417 0.05469,0.04557 0.177084,0.07422 0.06771,0.01563 0.151041,0.03125 0.08464,0.01563 0.140626,0.02865 0.170573,0.03906 0.263021,0.134115 0.09245,0.09635 0.09245,0.255209 z"
       style="font-size:2.66667px"
       id="path60" />
    <path
       d="m 14.213277,13.161399 h -1.071616 q 0,0.134115 0.04036,0.234376 0.04037,0.09896 0.110678,0.16276 0.06771,0.0625 0.160156,0.09375 0.09375,0.03125 0.205729,0.03125 0.148438,0 0.298178,-0.05859 0.151042,-0.0599 0.214844,-0.117188 h 0.01302 v 0.266927 q -0.123698,0.05208 -0.252605,0.08724 -0.128906,0.03516 -0.270833,0.03516 -0.36198,0 -0.565105,-0.195312 -0.203126,-0.196615 -0.203126,-0.557293 0,-0.356771 0.194011,-0.566407 0.195313,-0.209636 0.513022,-0.209636 0.294271,0 0.453125,0.171876 0.160157,0.171875 0.160157,0.488282 z m -0.238282,-0.1875 q -0.0013,-0.192709 -0.09766,-0.298177 -0.09505,-0.105469 -0.290365,-0.105469 -0.196615,0 -0.313803,0.115885 -0.115885,0.115886 -0.13151,0.287761 z"
       style="font-size:2.66667px"
       id="path62" />
  </g>
  <g
     aria-label="Workspace"
     id="text64"
     style="font-size:2.66667px;line-height:1.25;font-family:sans-serif">
    <g
       aria-label="Analytics"
       id="text47"
       style="font-size:1.33333px;line-height:1.25;font-family:sans-serif">
      <path
         d="m 4.6226415,17.224304 h -0.27474 L 4.1577971,16.683939 H 3.3192544 L 3.12915,17.224304 H 2.8674309 L 3.573161,15.2855 H 3.9169114 Z M 4.0783699,16.462584 3.7385258,15.51076 3.3973795,16.462584 Z"
         style="font-size:2.66667px"
         id="path49" />
      <path
         d="m 6.1135288,17.224304 h -0.244792 v -0.828126 q 0,-0.10026 -0.011719,-0.1875 -0.011719,-0.08854 -0.042969,-0.138021 -0.032552,-0.05469 -0.09375,-0.08073 -0.061198,-0.02734 -0.1588543,-0.02734 -0.1002606,0 -0.2096357,0.04948 -0.1093752,0.04948 -0.2096357,0.126302 v 1.085939 h -0.244792 v -1.454429 h 0.244792 v 0.161459 q 0.1145835,-0.09505 0.2369795,-0.148438 0.122396,-0.05338 0.2513024,-0.05338 0.2356774,0 0.3593754,0.141927 0.1236981,0.141927 0.1236981,0.408855 z"
         style="font-size:2.66667px"
         id="path51" />
      <path
         d="M 7.7150935,17.224304 H 7.4716036 v -0.154948 q -0.032552,0.02214 -0.088542,0.0625 -0.054688,0.03906 -0.106771,0.0625 -0.061198,0.02995 -0.1406252,0.04948 -0.079427,0.02083 -0.1861981,0.02083 -0.1966149,0 -0.3333338,-0.130209 -0.1367189,-0.130208 -0.1367189,-0.332031 0,-0.165365 0.070313,-0.266928 0.071615,-0.102864 0.2031252,-0.161458 0.1328127,-0.05859 0.3190109,-0.07943 0.1861981,-0.02083 0.3997401,-0.03125 v -0.03776 q 0,-0.08333 -0.029948,-0.138021 -0.028646,-0.05469 -0.083333,-0.08594 -0.052083,-0.02995 -0.1250002,-0.04036 -0.072917,-0.01042 -0.1523439,-0.01042 -0.096354,0 -0.2148441,0.02604 -0.1184897,0.02474 -0.2447919,0.07292 h -0.013021 v -0.248699 q 0.071615,-0.01953 0.2070315,-0.04297 0.1354169,-0.02344 0.2669275,-0.02344 0.153646,0 0.2669274,0.02604 0.1145835,0.02474 0.1979169,0.08594 0.082031,0.0599 0.1250002,0.154948 0.042969,0.09505 0.042969,0.235678 z M 7.4716036,16.866231 v -0.404949 q -0.1119793,0.0065 -0.2643233,0.01953 -0.1510418,0.01302 -0.2395836,0.03776 -0.1054689,0.02995 -0.1705732,0.09375 -0.065104,0.0625 -0.065104,0.173178 0,0.125 0.075521,0.188802 0.075521,0.0625 0.2304691,0.0625 0.1289064,0 0.2356773,-0.04948 0.106771,-0.05078 0.197917,-0.121094 z"
         style="font-size:2.66667px"
         id="path53" />
      <path
         d="M 8.4338442,17.224304 H 8.1890523 V 15.19826 h 0.2447919 z"
         style="font-size:2.66667px"
         id="path55" />
      <path
         d="M 10.176034,15.769875 9.3270747,17.760763 H 9.0653556 L 9.3361893,17.153992 8.7567615,15.769875 h 0.2656253 l 0.4466152,1.078127 0.4505214,-1.078127 z"
         style="font-size:2.66667px"
         id="path57" />
      <path
         d="m 11.251556,17.211283 q -0.06901,0.01823 -0.151042,0.02995 -0.08073,0.01172 -0.144531,0.01172 -0.222657,0 -0.338542,-0.119792 -0.115886,-0.119792 -0.115886,-0.384115 V 15.975605 H 10.33619 v -0.20573 h 0.165365 v -0.417969 h 0.244792 v 0.417969 h 0.505209 v 0.20573 h -0.505209 v 0.662761 q 0,0.114583 0.0052,0.179688 0.0052,0.0638 0.03646,0.119791 0.02865,0.05208 0.07813,0.07682 0.05078,0.02344 0.153646,0.02344 0.0599,0 0.125,-0.01693 0.0651,-0.01823 0.09375,-0.02995 h 0.01302 z"
         style="font-size:2.66667px"
         id="path59" />
      <path
         d="m 11.81015,15.526385 h -0.276042 v -0.253906 h 0.276042 z m -0.01563,1.697919 h -0.244792 v -1.454429 h 0.244792 z"
         style="font-size:2.66667px"
         id="path61" />
      <path
         d="m 13.354424,17.133158 q -0.122396,0.05859 -0.233073,0.09115 -0.109376,0.03255 -0.233074,0.03255 -0.157552,0 -0.289063,-0.04557 -0.13151,-0.04687 -0.22526,-0.140625 -0.09505,-0.09375 -0.147136,-0.236979 -0.05208,-0.14323 -0.05208,-0.334636 0,-0.356771 0.195313,-0.559897 0.196614,-0.203125 0.518229,-0.203125 0.125001,0 0.244792,0.03516 0.121094,0.03516 0.221355,0.08594 v 0.272136 h -0.01302 q -0.111979,-0.08724 -0.231771,-0.134115 -0.11849,-0.04687 -0.231771,-0.04687 -0.208334,0 -0.329428,0.140625 -0.119792,0.139323 -0.119792,0.410157 0,0.263021 0.117188,0.404948 0.11849,0.140625 0.332032,0.140625 0.07422,0 0.151042,-0.01953 0.07682,-0.01953 0.138021,-0.05078 0.05339,-0.02734 0.10026,-0.05729 0.04687,-0.03125 0.07422,-0.05338 h 0.01302 z"
         style="font-size:2.66667px"
         id="path63" />
      <path
         d="m 14.70729,16.805033 q 0,0.199219 -0.165365,0.326823 -0.164063,0.127604 -0.44922,0.127604 -0.161458,0 -0.296875,-0.03776 -0.134115,-0.03906 -0.225261,-0.08463 v -0.27474 h 0.01302 q 0.115886,0.08724 0.257813,0.139323 0.141927,0.05078 0.272136,0.05078 0.161458,0 0.252604,-0.05208 0.09115,-0.05208 0.09115,-0.164063 0,-0.08594 -0.04948,-0.130209 -0.04948,-0.04427 -0.190104,-0.07552 -0.05208,-0.01172 -0.136719,-0.02734 -0.08333,-0.01563 -0.152344,-0.03385 -0.191407,-0.05078 -0.272136,-0.148437 -0.07943,-0.09896 -0.07943,-0.242188 0,-0.08984 0.03646,-0.169271 0.03776,-0.07943 0.113282,-0.141927 0.07292,-0.0612 0.184896,-0.09636 0.113281,-0.03646 0.252604,-0.03646 0.130209,0 0.263021,0.03255 0.134115,0.03125 0.222657,0.07682 v 0.261719 h -0.01302 q -0.09375,-0.06901 -0.227865,-0.115885 -0.134115,-0.04818 -0.263021,-0.04818 -0.134115,0 -0.226563,0.05208 -0.09245,0.05078 -0.09245,0.152344 0,0.08984 0.05599,0.135417 0.05469,0.04557 0.177083,0.07422 0.06771,0.01563 0.151042,0.03125 0.08464,0.01563 0.140625,0.02865 0.170574,0.03906 0.263022,0.134115 0.09245,0.09635 0.09245,0.255209 z"
         style="font-size:2.66667px"
         id="path65" />
    </g>
  </g>
</svg>
