<?xml version="1.0" encoding="UTF-8" standalone="no"?>
<svg
   xmlns:dc="http://purl.org/dc/elements/1.1/"
   xmlns:cc="http://creativecommons.org/ns#"
   xmlns:rdf="http://www.w3.org/1999/02/22-rdf-syntax-ns#"
   xmlns:svg="http://www.w3.org/2000/svg"
   xmlns="http://www.w3.org/2000/svg"
   xmlns:sodipodi="http://sodipodi.sourceforge.net/DTD/sodipodi-0.dtd"
   xmlns:inkscape="http://www.inkscape.org/namespaces/inkscape"
   version="1.1"
   id="Layer_1"
   x="0px"
   y="0px"
   width="581px"
   height="360.2px"
   viewBox="0 0 581 360.2"
   enable-background="new 0 0 581 360.2"
   xml:space="preserve"
   sodipodi:docname="azure-purview-logo.svg"
   inkscape:version="1.0.1 (3bc2e813f5, 2020-09-07)"><metadata
   id="metadata45"><rdf:RDF><cc:Work
       rdf:about=""><dc:format>image/svg+xml</dc:format><dc:type
         rdf:resource="http://purl.org/dc/dcmitype/StillImage" /></cc:Work></rdf:RDF></metadata><defs
   id="defs43" /><sodipodi:namedview
   pagecolor="#ffffff"
   bordercolor="#666666"
   borderopacity="1"
   objecttolerance="10"
   gridtolerance="10"
   guidetolerance="10"
   inkscape:pageopacity="0"
   inkscape:pageshadow="2"
   inkscape:window-width="1920"
   inkscape:window-height="1017"
   id="namedview41"
   showgrid="false"
   inkscape:zoom="1.7934596"
   inkscape:cx="290.5"
   inkscape:cy="180.10001"
   inkscape:window-x="-8"
   inkscape:window-y="-8"
   inkscape:window-maximized="1"
   inkscape:current-layer="Layer_1" />
<g
   id="g38"
   transform="matrix(0.725417,0,0,0.725417,81.964491,5.0182342)">
	<path
   opacity="0.3"
   fill="#00ff74"
   d="M 134.9,173.7 C 110.9,142.7 95.7,103.3 88.7,81.8 141,39.6 212.1,0 290.5,0 c 35.8,0 70.2,8.2 101.9,21.1 -35.9,0.7 -100.9,10.4 -156.2,65.2 -81.8,81.2 -37.1,139.7 -36.4,140.6 -0.5,-0.1 -30.3,-8.6 -64.9,-53.2 z"
   id="path2" />
	<path
   opacity="0.3"
   fill="#00ff74"
   d="m 290,120.2 c -0.1,1.3 -0.2,2.6 -0.2,4 0,27.5 22.3,49.8 49.8,49.8 4.6,0 9.1,-0.6 13.4,-1.8 0.8,4 1.2,8.2 1.2,12.4 0,35.5 -28.8,64.3 -64.4,64.3 -35.5,0 -64.3,-28.8 -64.3,-64.3 0,-35.5 28.8,-64.3 64.3,-64.3 h 0.2 z"
   id="path4" />
	<path
   opacity="0.3"
   fill="#00ff74"
   d="m 393.3,189 c 0,0 40.2,46.4 13.8,143.7 C 371.4,349.2 332,360.2 290.5,360.2 130.1,360.2 0,194.3 0,180.1 0,174 24.2,139.7 64.5,102.6 c 7.5,29.3 31.8,96.2 104.6,146.3 91.1,62.8 219.7,36.5 224.2,-59.9 z"
   id="path6" />
	<path
   opacity="0.3"
   fill="#00ff74"
   d="m 581,180.1 c 0,10.5 -55.1,83.6 -137.7,133.4 C 463.5,107.2 300.7,77.7 300.7,77.7 359.6,45.9 433.3,53.7 461.3,58.3 533.8,107.1 581,170.4 581,180.1 Z"
   id="path8" />
	<linearGradient
   id="SVGID_1_"
   gradientUnits="userSpaceOnUse"
   x1="289.26871"
   y1="126.4896"
   x2="290.4357"
   y2="255.17439">
		<stop
   offset="0"
   style="stop-color:#4EE3FD"
   id="stop10" />
		<stop
   offset="0.8557"
   style="stop-color:#2CBEE1"
   id="stop12" />
	</linearGradient>
	<path
   fill="url(#SVGID_1_)"
   d="m 354.1,184.5 c 0,35.5 -28.8,64.3 -64.4,64.3 -35.5,0 -64.3,-28.8 -64.3,-64.3 0,-35.5 28.8,-64.3 64.3,-64.3 h 0.2 c -0.1,1.3 -0.2,2.6 -0.2,4 0,27.5 22.3,49.8 49.8,49.8 4.6,0 9.1,-0.6 13.4,-1.8 0.8,4 1.2,8.1 1.2,12.3 z"
   id="path15"
   style="fill:url(#SVGID_1_)" />
	<linearGradient
   id="SVGID_2_"
   gradientUnits="userSpaceOnUse"
   x1="140.9183"
   y1="186.15739"
   x2="279.52179"
   y2="-1.3331">
		<stop
   offset="0"
   style="stop-color:#0078D4"
   id="stop17" />
		<stop
   offset="1"
   style="stop-color:#338EE3"
   id="stop19" />
	</linearGradient>
	<path
   fill="url(#SVGID_2_)"
   d="m 236.2,86.3 c -81.8,81.2 -37.1,139.7 -36.4,140.6 -0.5,-0.1 -30.3,-8.6 -64.9,-53.2 -24,-31 -39.2,-70.4 -46.2,-91.9 C 141,39.6 212.1,0 290.5,0 c 35.8,0 70.2,8.2 101.9,21.1 -35.9,0.7 -101,10.3 -156.2,65.2 z"
   id="path22"
   style="fill:url(#SVGID_2_)" />
	<linearGradient
   id="SVGID_3_"
   gradientUnits="userSpaceOnUse"
   x1="77.6129"
   y1="86.785301"
   x2="358.04709"
   y2="339.84079">
		<stop
   offset="0"
   style="stop-color:#4EE3FD"
   id="stop24" />
		<stop
   offset="1"
   style="stop-color:#32BEDD"
   id="stop26" />
	</linearGradient>
	<path
   fill="url(#SVGID_3_)"
   d="M 407.1,332.7 C 371.4,349.2 332,360.2 290.5,360.2 130.1,360.2 0,194.3 0,180.1 0,174 24.2,139.7 64.5,102.6 c 7.5,29.3 31.8,96.2 104.6,146.3 91.1,62.8 219.8,36.5 224.2,-59.8 0,-0.1 40.3,46.3 13.8,143.6 z"
   id="path29"
   style="fill:url(#SVGID_3_)" />
	<linearGradient
   id="SVGID_4_"
   gradientUnits="userSpaceOnUse"
   x1="385.70609"
   y1="41.9529"
   x2="533.72021"
   y2="280.00989">
		<stop
   offset="0"
   style="stop-color:#5EA0EF"
   id="stop31" />
		<stop
   offset="1"
   style="stop-color:#006EC2"
   id="stop33" />
	</linearGradient>
	<path
   fill="url(#SVGID_4_)"
   d="m 581,180.1 c 0,10.5 -55.1,83.6 -137.7,133.4 C 463.5,107.2 300.7,77.7 300.7,77.7 359.6,45.9 433.3,53.7 461.3,58.3 533.8,107.1 581,170.4 581,180.1 Z"
   id="path36"
   style="fill:url(#SVGID_4_)" />
</g>
<g
   aria-label="Purview"
   id="text49"
   style="font-size:13.3333px;line-height:1.25;font-family:sans-serif"><path
     d="m 220.99643,294.58508 q 0,2.32032 -0.82031,4.3125 -0.79688,1.96875 -2.25,3.42188 -1.80469,1.80469 -4.26563,2.71875 -2.46094,0.89062 -6.21094,0.89062 h -4.64062 v 13.00782 h -4.64063 v -34.89844 h 9.46875 q 3.14063,0 5.32032,0.53906 2.17968,0.51563 3.86718,1.64063 1.99219,1.33593 3.07032,3.32812 1.10156,1.99219 1.10156,5.03906 z m -4.82813,0.11719 q 0,-1.80469 -0.63281,-3.14062 -0.63281,-1.33594 -1.92187,-2.17969 -1.125,-0.72656 -2.57813,-1.03125 -1.42969,-0.32813 -3.63281,-0.32813 h -4.59375 v 13.94532 h 3.91406 q 2.8125,0 4.57031,-0.49219 1.75782,-0.51563 2.85938,-1.61719 1.10156,-1.125 1.54687,-2.36719 0.46875,-1.24218 0.46875,-2.78906 z"
     style="font-size:48px"
     id="path51" /><path
     d="m 248.46518,318.93665 h -4.40625 v -2.90625 q -2.22656,1.75781 -4.26563,2.69531 -2.03906,0.9375 -4.5,0.9375 -4.125,0 -6.42187,-2.50781 -2.29688,-2.53125 -2.29688,-7.40625 v -16.99219 h 4.40625 v 14.90625 q 0,1.99219 0.1875,3.42187 0.1875,1.40625 0.79688,2.41407 0.63281,1.03125 1.64062,1.5 1.00782,0.46875 2.92969,0.46875 1.71094,0 3.72656,-0.89063 2.03907,-0.89062 3.79688,-2.27344 v -19.54687 h 4.40625 z"
     style="font-size:48px"
     id="path53" /><path
     d="m 273.47299,297.56165 h -0.23437 q -0.98438,-0.23438 -1.92188,-0.32813 -0.91406,-0.11719 -2.17969,-0.11719 -2.03906,0 -3.9375,0.91407 -1.89843,0.89062 -3.65625,2.32031 v 18.58594 h -4.40625 v -26.17969 h 4.40625 v 3.86719 q 2.625,-2.10938 4.61719,-2.97657 2.01563,-0.89062 4.10156,-0.89062 1.14844,0 1.66407,0.0703 0.51562,0.0469 1.54687,0.21094 z"
     style="font-size:48px"
     id="path55" /><path
     d="m 300.26205,292.75696 -10.59375,26.17969 h -4.42968 l -10.52344,-26.17969 h 4.78125 l 8.10937,20.83594 8.03907,-20.83594 z"
     style="font-size:48px"
     id="path57" /><path
     d="m 310.76205,288.37415 h -4.96875 v -4.57032 h 4.96875 z m -0.28125,30.5625 h -4.40625 v -26.17969 h 4.40625 z"
     style="font-size:48px"
     id="path59" /><path
     d="m 341.11362,306.30383 h -19.28907 q 0,2.41407 0.72657,4.21875 0.72656,1.78125 1.99218,2.92969 1.21875,1.125 2.88282,1.6875 1.6875,0.5625 3.70312,0.5625 2.67188,0 5.36719,-1.05469 2.71875,-1.07812 3.86719,-2.10937 h 0.23437 v 4.80469 q -2.22656,0.9375 -4.54687,1.57031 -2.32032,0.63281 -4.875,0.63281 -6.51563,0 -10.17188,-3.51562 -3.65625,-3.53907 -3.65625,-10.03125 0,-6.42188 3.49219,-10.19532 3.51562,-3.77343 9.23437,-3.77343 5.29688,0 8.15625,3.09375 2.88282,3.09375 2.88282,8.78906 z m -4.28907,-3.375 q -0.0234,-3.46875 -1.75781,-5.36718 -1.71094,-1.89844 -5.22656,-1.89844 -3.53906,0 -5.64844,2.08594 -2.08594,2.08593 -2.36719,5.17968 z"
     style="font-size:48px"
     id="path61" /><path
     d="m 380.72299,292.75696 -6.82031,26.17969 h -4.07813 l -6.72656,-20.17969 -6.67969,20.17969 h -4.05468 l -6.89063,-26.17969 h 4.59375 l 4.80469,20.27344 6.53906,-20.27344 h 3.63281 l 6.70313,20.27344 4.54687,-20.27344 z"
     style="font-size:48px"
     id="path63" /></g></svg>
