<?xml version="1.0" encoding="UTF-8" standalone="no"?>
<svg
   xmlns:dc="http://purl.org/dc/elements/1.1/"
   xmlns:cc="http://creativecommons.org/ns#"
   xmlns:rdf="http://www.w3.org/1999/02/22-rdf-syntax-ns#"
   xmlns:svg="http://www.w3.org/2000/svg"
   xmlns="http://www.w3.org/2000/svg"
   xmlns:sodipodi="http://sodipodi.sourceforge.net/DTD/sodipodi-0.dtd"
   xmlns:inkscape="http://www.inkscape.org/namespaces/inkscape"
   width="18"
   height="18"
   viewBox="0 0 18 18"
   version="1.1"
   id="svg47"
   sodipodi:docname="azure-event-hub-capture.svg"
   inkscape:version="1.0.1 (3bc2e813f5, 2020-09-07)">
  <metadata
     id="metadata53">
    <rdf:RDF>
      <cc:Work
         rdf:about="">
        <dc:format>image/svg+xml</dc:format>
        <dc:type
           rdf:resource="http://purl.org/dc/dcmitype/StillImage" />
        <dc:title>Icon-analytics-144</dc:title>
      </cc:Work>
    </rdf:RDF>
  </metadata>
  <defs
     id="defs51" />
  <sodipodi:namedview
     pagecolor="#ffffff"
     bordercolor="#666666"
     borderopacity="1"
     objecttolerance="10"
     gridtolerance="10"
     guidetolerance="10"
     inkscape:pageopacity="0"
     inkscape:pageshadow="2"
     inkscape:window-width="1920"
     inkscape:window-height="1017"
     id="namedview49"
     showgrid="false"
     inkscape:zoom="47.222222"
     inkscape:cx="9"
     inkscape:cy="9.8470588"
     inkscape:window-x="-8"
     inkscape:window-y="-8"
     inkscape:window-maximized="1"
     inkscape:current-layer="svg47"
     inkscape:document-rotation="0" />
  <title
     id="title2">Icon-analytics-144</title>
  <g
     id="g45"
     transform="matrix(0.66368345,0,0,0.66368345,2.9843631,-0.6356916)">
    <g
       id="a53a4de8-371c-49da-a662-c4631299fc03">
      <path
         d="M 10.83,8.42 A 0.26,0.26 0 0 1 10.59,8.69 H 8.5 A 0.26,0.26 0 0 1 8.23,8.45 V 6.89 A 0.26,0.26 0 0 1 8.47,6.62 h 2.09 a 0.26,0.26 0 0 1 0.27,0.24 z"
         fill="#76bc2d"
         id="path4" />
      <path
         d="M 14.54,10 A 0.26,0.26 0 0 1 14.3,10.27 H 12.21 A 0.26,0.26 0 0 1 11.94,10.03 V 8.48 a 0.26,0.26 0 0 1 0.24,-0.27 h 2.09 a 0.26,0.26 0 0 1 0.27,0.24 z"
         fill="#76bc2d"
         id="path6" />
      <path
         d="m 10.83,11.6 a 0.26,0.26 0 0 1 -0.24,0.27 H 8.5 A 0.26,0.26 0 0 1 8.23,11.63 V 10.07 A 0.26,0.26 0 0 1 8.47,9.8 h 2.09 a 0.26,0.26 0 0 1 0.27,0.24 z"
         fill="#76bc2d"
         id="path8" />
      <path
         d="M 7.12,6.84 A 0.25,0.25 0 0 1 6.89,7.1 H 4.74 A 0.26,0.26 0 0 1 4.47,6.87 V 5.25 A 0.26,0.26 0 0 1 4.71,5 H 6.8 c 0.22,0 0.32,0.11 0.32,0.27 z"
         fill="#86d633"
         id="path10" />
      <path
         d="M 7.12,10 A 0.25,0.25 0 0 1 6.89,10.27 H 4.74 A 0.26,0.26 0 0 1 4.47,10 V 8.42 A 0.26,0.26 0 0 1 4.71,8.16 H 6.8 c 0.22,0 0.32,0.11 0.32,0.26 z"
         fill="#76bc2d"
         id="path12" />
      <path
         d="M 7.12,13.19 A 0.25,0.25 0 0 1 6.89,13.46 H 4.74 A 0.26,0.26 0 0 1 4.47,13.22 V 11.6 A 0.25,0.25 0 0 1 4.71,11.34 H 6.8 c 0.22,0 0.32,0.1 0.32,0.26 z"
         fill="#76bc2d"
         id="path14" />
      <g
         id="g20">
        <path
           d="m 1.07,1.51 h 1.29 v 3.6 A 0.29,0.29 0 0 1 2.07,5.4 H 0.79 A 0.29,0.29 0 0 1 0.5,5.11 v -3 a 0.57,0.57 0 0 1 0.57,-0.6 z"
           fill="#999999"
           id="path16" />
        <path
           d="m 1.07,1.51 h 1.29 v 3.6 A 0.29,0.29 0 0 1 2.07,5.4 H 0.79 A 0.29,0.29 0 0 1 0.5,5.11 v -3 a 0.57,0.57 0 0 1 0.57,-0.6 z"
           fill="#999999"
           opacity="0.5"
           id="path18" />
      </g>
      <g
         id="g26">
        <path
           d="m 15.64,1.51 h 1.29 a 0.57,0.57 0 0 1 0.57,0.57 v 3 A 0.29,0.29 0 0 1 17.21,5.37 H 15.92 A 0.29,0.29 0 0 1 15.63,5.08 V 1.51 Z"
           fill="#999999"
           id="path22" />
        <path
           d="m 15.64,1.51 h 1.29 a 0.57,0.57 0 0 1 0.57,0.57 v 3 A 0.29,0.29 0 0 1 17.21,5.37 H 15.92 A 0.29,0.29 0 0 1 15.63,5.08 V 1.51 Z"
           fill="#999999"
           opacity="0.5"
           id="path24" />
      </g>
      <path
         d="m 8.66,-6.08 h 1.25 v 17 H 8.66 A 0.57,0.57 0 0 1 8.09,10.35 V -5.52 a 0.57,0.57 0 0 1 0.57,-0.56 z"
         transform="rotate(90,9,2.42)"
         fill="#949494"
         id="path28" />
      <g
         id="g34">
        <path
           d="m 0.79,12.76 h 1.29 a 0.29,0.29 0 0 1 0.29,0.29 v 3.6 H 1.07 A 0.57,0.57 0 0 1 0.5,16.08 V 13 a 0.29,0.29 0 0 1 0.29,-0.24 z"
           fill="#999999"
           id="path30" />
        <path
           d="m 0.79,12.76 h 1.29 a 0.29,0.29 0 0 1 0.29,0.29 v 3.6 H 1.07 A 0.57,0.57 0 0 1 0.5,16.08 V 13 a 0.29,0.29 0 0 1 0.29,-0.24 z"
           fill="#999999"
           opacity="0.5"
           id="path32" />
      </g>
      <g
         id="g40">
        <path
           d="m 15.92,12.76 h 1.29 a 0.29,0.29 0 0 1 0.29,0.29 v 3 a 0.57,0.57 0 0 1 -0.57,0.57 H 15.64 V 13 a 0.29,0.29 0 0 1 0.28,-0.24 z"
           fill="#999999"
           id="path36" />
        <path
           d="m 15.92,12.76 h 1.29 a 0.29,0.29 0 0 1 0.29,0.29 v 3 a 0.57,0.57 0 0 1 -0.57,0.57 H 15.64 V 13 a 0.29,0.29 0 0 1 0.28,-0.24 z"
           fill="#999999"
           opacity="0.5"
           id="path38" />
      </g>
      <path
         d="m 8.66,7.24 h 1.25 v 17 H 8.66 A 0.57,0.57 0 0 1 8.09,23.67 V 7.81 A 0.57,0.57 0 0 1 8.66,7.24 Z"
         transform="rotate(-90,9,15.74)"
         fill="#949494"
         id="path42" />
    </g>
  </g>
  <g
     aria-label="Event Hub"
     id="text57"
     style="font-size:2.66667px;line-height:1.25;font-family:sans-serif"
     transform="translate(0.16941177,-2.0964706)">
    <path
       d="M 3.6130566,15.395293 H 2.3357113 v -1.938804 h 1.2773453 v 0.229167 H 2.5935241 v 0.53125 h 1.0195325 v 0.229167 H 2.5935241 v 0.720053 h 1.0195325 z"
       style="font-size:2.66667px"
       id="path59" />
    <path
       d="M 5.2601941,13.940864 4.6716517,15.395293 H 4.4255576 L 3.8409215,13.940864 h 0.2656253 l 0.4505214,1.157554 0.4466152,-1.157554 z"
       style="font-size:2.66667px"
       id="path61" />
    <path
       d="M 6.774519,14.693469 H 5.7029031 q 0,0.134115 0.040365,0.234376 0.040365,0.09896 0.1106772,0.16276 0.067708,0.0625 0.1601565,0.09375 0.09375,0.03125 0.2057294,0.03125 0.1484377,0 0.2981775,-0.05859 0.1510418,-0.0599 0.214844,-0.117188 h 0.013021 v 0.266927 q -0.123698,0.05208 -0.2526045,0.08724 -0.1289064,0.03516 -0.2708336,0.03516 -0.3619797,0 -0.5651049,-0.195312 -0.2031253,-0.196615 -0.2031253,-0.557293 0,-0.356771 0.1940107,-0.566407 Q 5.8435282,13.9005 6.161237,13.9005 q 0.2942712,0 0.4531256,0.171875 0.1601564,0.171875 0.1601564,0.488282 z m -0.2382815,-0.1875 q -0.0013,-0.192708 -0.097656,-0.298177 -0.095052,-0.105469 -0.290365,-0.105469 -0.1966148,0 -0.3138025,0.115885 -0.1158855,0.115886 -0.1315105,0.287761 z"
       style="font-size:2.66667px"
       id="path63" />
    <path
       d="m 8.3617608,15.395293 h -0.244792 v -0.828126 q 0,-0.10026 -0.011719,-0.1875 -0.011719,-0.08854 -0.042969,-0.138021 -0.032552,-0.05469 -0.09375,-0.08073 -0.061198,-0.02734 -0.1588543,-0.02734 -0.1002606,0 -0.2096357,0.04948 -0.1093752,0.04948 -0.2096357,0.126302 v 1.085939 h -0.244792 v -1.454429 h 0.244792 v 0.161459 q 0.1145835,-0.09505 0.2369795,-0.148438 0.122396,-0.05339 0.2513024,-0.05339 0.2356774,0 0.3593754,0.141927 0.1236981,0.141927 0.1236981,0.408855 z"
       style="font-size:2.66667px"
       id="path65" />
    <path
       d="m 9.5883246,15.382272 q -0.06901,0.01823 -0.1510418,0.02995 -0.080729,0.01172 -0.1445315,0.01172 -0.2226565,0 -0.3385421,-0.119792 Q 8.8383237,15.184355 8.8383237,14.920032 V 14.146594 H 8.6729589 v -0.20573 h 0.1653648 v -0.417969 h 0.244792 v 0.417969 h 0.5052089 v 0.20573 H 9.0831157 v 0.662761 q 0,0.114583 0.00521,0.179688 0.00521,0.0638 0.036458,0.119792 0.028646,0.05208 0.078125,0.07682 0.050781,0.02344 0.153646,0.02344 0.059896,0 0.1250002,-0.01693 0.065104,-0.01823 0.09375,-0.02995 h 0.013021 z"
       style="font-size:2.66667px"
       id="path67" />
    <path
       d="m 12.324006,15.395293 h -0.257813 v -0.94922 h -0.967449 v 0.94922 h -0.257813 v -1.938804 h 0.257813 v 0.760417 h 0.967449 v -0.760417 h 0.257813 z"
       style="font-size:2.66667px"
       id="path69" />
    <path
       d="m 14.031038,15.395293 h -0.244792 v -0.161458 q -0.123698,0.09766 -0.236979,0.149739 -0.113282,0.05208 -0.25,0.05208 -0.229167,0 -0.356772,-0.139323 -0.127604,-0.140625 -0.127604,-0.411459 V 13.94086 h 0.244792 v 0.828126 q 0,0.110678 0.01042,0.190105 0.01042,0.07813 0.04427,0.134115 0.03516,0.05729 0.09115,0.08333 0.05599,0.02604 0.162761,0.02604 0.09505,0 0.207032,-0.04948 0.113281,-0.04948 0.210937,-0.126302 v -1.085939 h 0.244792 z"
       style="font-size:2.66667px"
       id="path71" />
    <path
       d="m 15.79276,14.657011 q 0,0.182292 -0.05208,0.328125 -0.05078,0.145834 -0.138021,0.244792 -0.09245,0.102865 -0.203126,0.154949 -0.110677,0.05078 -0.24349,0.05078 -0.123698,0 -0.216146,-0.02995 -0.09245,-0.02865 -0.182292,-0.07813 l -0.01563,0.06771 H 14.51281 v -2.026044 h 0.244792 v 0.723959 q 0.102865,-0.08464 0.218751,-0.138021 0.115885,-0.05469 0.260417,-0.05469 0.257813,0 0.40625,0.197917 0.14974,0.197916 0.14974,0.558594 z m -0.252604,0.0065 q 0,-0.260417 -0.08594,-0.394531 -0.08594,-0.135417 -0.277344,-0.135417 -0.106771,0 -0.216146,0.04687 -0.109375,0.04557 -0.203126,0.11849 v 0.833334 q 0.104167,0.04687 0.178386,0.0651 0.07552,0.01823 0.170573,0.01823 0.203125,0 0.317709,-0.132813 0.115886,-0.134115 0.115886,-0.419272 z"
       style="font-size:2.66667px"
       id="path73" />
  </g>
</svg>
