<?xml version="1.0" encoding="UTF-8" standalone="no"?>
<svg
   xmlns:dc="http://purl.org/dc/elements/1.1/"
   xmlns:cc="http://creativecommons.org/ns#"
   xmlns:rdf="http://www.w3.org/1999/02/22-rdf-syntax-ns#"
   xmlns:svg="http://www.w3.org/2000/svg"
   xmlns="http://www.w3.org/2000/svg"
   xmlns:sodipodi="http://sodipodi.sourceforge.net/DTD/sodipodi-0.dtd"
   xmlns:inkscape="http://www.inkscape.org/namespaces/inkscape"
   id="aa9b6cd1-47ec-44db-bbf1-958203b5601f"
   width="18"
   height="18"
   viewBox="0 0 18 18"
   version="1.1"
   sodipodi:docname="azure-iot.svg"
   inkscape:version="1.0.1 (3bc2e813f5, 2020-09-07)">
  <metadata
     id="metadata37">
    <rdf:RDF>
      <cc:Work
         rdf:about="">
        <dc:format>image/svg+xml</dc:format>
        <dc:type
           rdf:resource="http://purl.org/dc/dcmitype/StillImage" />
      </cc:Work>
    </rdf:RDF>
  </metadata>
  <sodipodi:namedview
     pagecolor="#ffffff"
     bordercolor="#666666"
     borderopacity="1"
     objecttolerance="10"
     gridtolerance="10"
     guidetolerance="10"
     inkscape:pageopacity="0"
     inkscape:pageshadow="2"
     inkscape:window-width="1920"
     inkscape:window-height="1017"
     id="namedview35"
     showgrid="false"
     inkscape:zoom="47.222222"
     inkscape:cx="9"
     inkscape:cy="9.8470592"
     inkscape:window-x="-8"
     inkscape:window-y="-8"
     inkscape:window-maximized="1"
     inkscape:current-layer="aa9b6cd1-47ec-44db-bbf1-958203b5601f"
     inkscape:document-rotation="0" />
  <defs
     id="defs17">
    <linearGradient
       id="faaeb69b-3035-4577-9cb1-ddd3fba791e3"
       x1="9.13"
       y1="18.81"
       x2="8.85"
       y2="-8.1"
       gradientUnits="userSpaceOnUse"
       gradientTransform="matrix(0.73792849,0,0,0.73792849,2.1349384,-0.16543483)">
      <stop
         offset="0"
         stop-color="#198ab3"
         id="stop2" />
      <stop
         offset="0"
         stop-color="#198ab3"
         id="stop4" />
      <stop
         offset="0.09"
         stop-color="#22a5cb"
         id="stop6" />
      <stop
         offset="0.19"
         stop-color="#29bade"
         id="stop8" />
      <stop
         offset="0.29"
         stop-color="#2ec9eb"
         id="stop10" />
      <stop
         offset="0.42"
         stop-color="#31d1f3"
         id="stop12" />
      <stop
         offset="0.62"
         stop-color="#32d4f5"
         id="stop14" />
    </linearGradient>
  </defs>
  <circle
     id="fa3a22e9-e4e8-46a1-bc09-f9532747c739"
     cx="10.547323"
     cy="6.0626812"
     r="1.4537191"
     fill="#ffffff"
     style="stroke-width:0.737928" />
  <circle
     id="eb214416-6791-4934-ac0c-35afaa829f6e"
     cx="12.982489"
     cy="10.386943"
     r="1.1437892"
     fill="#ffffff"
     style="stroke-width:0.737928" />
  <circle
     id="a4424413-b91f-48da-aedd-39e3a978b430"
     cx="8.4589863"
     cy="9.6047382"
     r="0.98144484"
     fill="#ffffff"
     style="stroke-width:0.737928" />
  <circle
     id="f7ecfc1a-3268-471b-9464-57023bfc9cc4"
     cx="7.7505746"
     cy="2.1295228"
     r="1.217582"
     fill="#ffffff"
     style="stroke-width:0.737928" />
  <circle
     id="b4388938-ad80-41b4-b729-5c21e3eab320"
     cx="4.4889302"
     cy="6.6161275"
     r="0.98144484"
     fill="#ffffff"
     style="stroke-width:0.737928" />
  <polygon
     points="10.55,8.04 3.15,8.65 3.22,9.51 10.55,8.9 8.12,12.94 8.85,13.38 11.35,9.22 14.32,14.41 15.06,13.99 11.73,8.16 11.4,8.35 11.67,8.15 7.9,2.79 7.21,3.29 "
     fill="#949494"
     id="polygon24"
     transform="matrix(0.73792848,0,0,0.73792848,2.1349384,-0.16543484)" />
  <g
     id="g30"
     transform="matrix(0.73792848,0,0,0.73792848,2.1349384,-0.16543484)">
    <path
       d="m 17.53,1.23 v 0 A 0.73,0.73 0 0 0 16.8,0.5 H 13 A 0.36,0.36 0 0 0 12.64,0.86 V 2.27 A 0.36,0.36 0 0 0 13,2.63 h 2.35 v 2.3 a 0.38,0.38 0 0 0 0.37,0.37 h 1.4 a 0.38,0.38 0 0 0 0.37,-0.37 v -3.7 z"
       fill="#949494"
       id="path26" />
    <path
       d="M 5,15.37 H 2.61 v -2.3 A 0.38,0.38 0 0 0 2.24,12.7 h -1.4 a 0.38,0.38 0 0 0 -0.37,0.37 v 3.7 0 A 0.73,0.73 0 0 0 1.2,17.49 H 5 a 0.36,0.36 0 0 0 0.36,-0.36 v -1.4 A 0.36,0.36 0 0 0 5,15.37 Z"
       fill="#949494"
       id="path28" />
  </g>
  <path
     d="M 10.547323,4.623721 A 1.475857,1.475857 0 1 1 9.0714661,6.0626817 1.475857,1.475857 0 0 1 10.547323,4.623721 Z M 6.5625092,2.1295228 A 1.2249613,1.2249613 0 1 0 7.7579534,0.9119408 1.217582,1.217582 0 0 0 6.5625092,2.1295228 Z M 3.5074853,6.6087487 A 0.9814449,0.9814449 0 1 0 4.4889302,5.6273038 0.9814449,0.9814449 0 0 0 3.5074853,6.6087487 Z M 7.4775406,9.5973594 A 0.98882419,0.98882419 0 1 0 8.4663648,8.6159141 0.9814449,0.9814449 0 0 0 7.4775406,9.5973594 Z m 4.3685364,0.7895836 a 1.1437892,1.1437892 0 1 0 1.143789,-1.1364106 1.1290306,1.1290306 0 0 0 -1.143789,1.1364106 z"
     fill="url(#faaeb69b-3035-4577-9cb1-ddd3fba791e3)"
     id="path32"
     style="fill:url(#faaeb69b-3035-4577-9cb1-ddd3fba791e3);stroke-width:0.737928" />
  <g
     aria-label="IoT Hub"
     id="text41"
     style="font-size:2.66667px;line-height:1.25;font-family:sans-serif"
     transform="matrix(1.0245394,0,0,1.0245394,-0.05192547,-0.96765455)">
    <path
       d="M 4.6075413,16.432941 H 3.8419153 V 16.235025 H 4.0958219 V 14.692054 H 3.8419153 v -0.197917 h 0.765626 v 0.197917 H 4.3536347 v 1.542971 h 0.2539066 z"
       style="font-size:2.66667px"
       id="path43" />
    <path
       d="m 6.2663976,15.706378 q 0,0.355469 -0.1822919,0.561199 -0.1822919,0.205729 -0.4882819,0.205729 -0.3085941,0 -0.490886,-0.205729 -0.1809899,-0.20573 -0.1809899,-0.561199 0,-0.355469 0.1809899,-0.561199 0.1822919,-0.207031 0.490886,-0.207031 0.30599,0 0.4882819,0.207031 0.1822919,0.20573 0.1822919,0.561199 z m -0.2526045,0 q 0,-0.282552 -0.1106772,-0.419271 -0.1106773,-0.138021 -0.3072921,-0.138021 -0.199219,0 -0.3098962,0.138021 -0.1093752,0.136719 -0.1093752,0.419271 0,0.273438 0.1106773,0.415365 0.1106772,0.140625 0.3085941,0.140625 0.1953128,0 0.30599,-0.139323 0.1119793,-0.140625 0.1119793,-0.416667 z"
       style="font-size:2.66667px"
       id="path45" />
    <path
       d="M 8.04765,14.723304 H 7.3549408 v 1.709637 H 7.0971279 V 14.723304 H 6.4044187 V 14.494137 H 8.04765 Z"
       style="font-size:2.66667px"
       id="path47" />
    <path
       d="M 10.728643,16.432941 H 10.47083 v -0.94922 H 9.5033809 v 0.94922 H 9.2455681 v -1.938804 h 0.2578128 v 0.760418 H 10.47083 v -0.760418 h 0.257813 z"
       style="font-size:2.66667px"
       id="path49" />
    <path
       d="m 12.435676,16.432941 h -0.244792 v -0.161458 q -0.123698,0.09766 -0.236979,0.14974 -0.113282,0.05208 -0.250001,0.05208 -0.229167,0 -0.356771,-0.139323 -0.127604,-0.140625 -0.127604,-0.411459 v -0.944012 h 0.244792 v 0.828127 q 0,0.110677 0.01042,0.190104 0.01042,0.07812 0.04427,0.134115 0.03516,0.05729 0.09115,0.08333 0.05599,0.02604 0.162761,0.02604 0.09505,0 0.207031,-0.04948 0.113282,-0.04948 0.210938,-0.126303 v -1.085939 h 0.244792 z"
       style="font-size:2.66667px"
       id="path51" />
    <path
       d="m 14.197398,15.694659 q 0,0.182292 -0.05208,0.328126 -0.05078,0.145833 -0.138021,0.244792 -0.09245,0.102864 -0.203125,0.154948 -0.110677,0.05078 -0.24349,0.05078 -0.123698,0 -0.216146,-0.02995 -0.09245,-0.02865 -0.182292,-0.07813 l -0.01563,0.06771 h -0.229167 v -2.026044 h 0.244792 v 0.723959 q 0.102865,-0.08464 0.218751,-0.138021 0.115885,-0.05469 0.260417,-0.05469 0.257812,0 0.40625,0.197917 0.14974,0.197917 0.14974,0.558594 z m -0.252605,0.0065 q 0,-0.260417 -0.08594,-0.394532 -0.08594,-0.135417 -0.277344,-0.135417 -0.106771,0 -0.216146,0.04687 -0.109376,0.04557 -0.203126,0.11849 v 0.833334 q 0.104167,0.04687 0.178386,0.0651 0.07552,0.01823 0.170573,0.01823 0.203125,0 0.317709,-0.132813 0.115885,-0.134115 0.115885,-0.419271 z"
       style="font-size:2.66667px"
       id="path53" />
  </g>
</svg>
