<?xml version="1.0" encoding="UTF-8" standalone="no"?>
<svg
   xmlns:dc="http://purl.org/dc/elements/1.1/"
   xmlns:cc="http://creativecommons.org/ns#"
   xmlns:rdf="http://www.w3.org/1999/02/22-rdf-syntax-ns#"
   xmlns:svg="http://www.w3.org/2000/svg"
   xmlns="http://www.w3.org/2000/svg"
   xmlns:sodipodi="http://sodipodi.sourceforge.net/DTD/sodipodi-0.dtd"
   xmlns:inkscape="http://www.inkscape.org/namespaces/inkscape"
   version="1.1"
   id="Layer_1"
   x="0px"
   y="0px"
   width="700"
   height="400"
   viewBox="0 0 700 400"
   enable-background="new 0 0 50 50"
   xml:space="preserve"
   sodipodi:docname="azure-data-factory.svg"
   inkscape:version="1.0.1 (3bc2e813f5, 2020-09-07)"><metadata
   id="metadata17"><rdf:RDF><cc:Work
       rdf:about=""><dc:format>image/svg+xml</dc:format><dc:type
         rdf:resource="http://purl.org/dc/dcmitype/StillImage" /><dc:title /></cc:Work></rdf:RDF></metadata><defs
   id="defs15" /><sodipodi:namedview
   pagecolor="#ffffff"
   bordercolor="#666666"
   borderopacity="1"
   objecttolerance="10"
   gridtolerance="10"
   guidetolerance="10"
   inkscape:pageopacity="0"
   inkscape:pageshadow="2"
   inkscape:window-width="1920"
   inkscape:window-height="1017"
   id="namedview13"
   showgrid="false"
   inkscape:zoom="1"
   inkscape:cx="335.23727"
   inkscape:cy="184.99999"
   inkscape:window-x="-8"
   inkscape:window-y="-8"
   inkscape:window-maximized="1"
   inkscape:current-layer="Layer_1"
   inkscape:document-rotation="0" />
<path
   d="m 496.48,174.18637 v 0 -63.04609 l -71.24,62.00401 h -1.56 v -62.00401 l -71.24,62.00401 v 0 V 43.40481 C 352.44,32.46293 328,21.52104 295.76,21.52104 263.52,21.52104 237,31.94188 237,43.40481 V 280.99999 H 497 Z M 295.76,53.82565 c -23.4,0 -42.12,-5.73146 -42.12,-11.98397 0,-6.2525 18.72,-11.98396 42.12,-11.98396 23.4,0 42.12,5.21042 42.12,11.98396 -0.52,6.25251 -19.24,11.98397 -42.12,11.98397 z m 122.72,184.96994 h -28.6 v -28.65732 h 28.6 z m -50.44,0 h -28.6 v -28.65732 h 28.6 z m 72.8,0 v -28.65732 h 28.6 v 28.65732 z"
   id="path2"
   inkscape:connector-curvature="0"
   style="fill:#59b4d9;stroke-width:5.20521" />
<rect
   x="237"
   y="41.84169"
   width="57.720001"
   height="239.15831"
   id="rect4"
   style="fill:#3999c6;stroke-width:5.20521" />
<path
   d="m 351.92,41.84168 c 0,11.46293 -26,20.84169 -57.72,20.84169 -31.72,0 -57.2,-9.37876 -57.2,-20.84169 C 237,30.37876 263,21 294.72,21 c 31.72,0 57.2,8.85772 57.2,20.84168"
   id="path6"
   inkscape:connector-curvature="0"
   style="fill:#ffffff;stroke-width:5.20521" />
<path
   d="m 340.48,40.27856 c 0,7.81563 -20.28,13.54709 -45.76,13.54709 -25.48,0 -45.76,-5.73146 -45.76,-13.54709 0,-7.81563 20.28,-13.5471 45.76,-13.5471 25.48,0 45.76,6.25251 45.76,13.5471"
   id="path8"
   inkscape:connector-curvature="0"
   style="fill:#7fba00;stroke-width:5.20521" />
<path
   d="m 330.6,48.61523 c 6.24,-2.08417 9.36,-5.21042 9.36,-8.33667 0,-7.81563 -20.28,-13.5471 -45.76,-13.5471 -25.48,0 -45.76,6.25251 -45.76,13.5471 0.52,3.12625 4.16,6.2525 9.88,8.33667 8.32,-3.12625 21.32,-5.21042 36.4,-5.21042 14.56,0 27.56,2.08417 35.88,5.21042"
   id="path10"
   inkscape:connector-curvature="0"
   style="fill:#b8d432;stroke-width:5.20521" />
<g
   aria-label="Data Factory Copy"
   id="text13"
   style="font-size:53.3333px;line-height:1.25;font-family:sans-serif"><path
     d="m 152.96873,329.65105 q 0,5.28646 -2.31771,9.58333 -2.29166,4.29687 -6.11979,6.66666 -2.65625,1.64063 -5.93749,2.36979 Q 135.33853,349 129.99999,349 h -9.79166 v -38.77602 h 9.68749 q 5.67708,0 9.01042,0.83333 3.35937,0.8073 5.67708,2.23959 3.95833,2.47395 6.17187,6.58853 2.21354,4.11458 2.21354,9.76562 z m -5.39062,-0.0781 q 0,-4.55729 -1.58855,-7.68229 -1.58854,-3.125 -4.73958,-4.92187 -2.29166,-1.30208 -4.86978,-1.79687 -2.57813,-0.52084 -6.17188,-0.52084 h -4.84374 v 29.92186 h 4.84374 q 3.72396,0 6.48438,-0.54688 2.78645,-0.54687 5.10416,-2.03124 2.89062,-1.84896 4.32291,-4.86979 1.45834,-3.02083 1.45834,-7.55208 z"
     style="font-size:53.3333px"
     id="path23" /><path
     d="m 183.51559,349 h -4.86979 v -3.09896 q -0.65104,0.44271 -1.77084,1.25 -1.09374,0.78125 -2.13541,1.25 -1.22396,0.59896 -2.8125,0.98958 -1.58854,0.41667 -3.72396,0.41667 -3.93228,0 -6.66666,-2.60416 -2.73437,-2.60417 -2.73437,-6.64062 0,-3.30729 1.40625,-5.33854 1.43229,-2.05729 4.0625,-3.22917 2.65624,-1.17187 6.3802,-1.58854 3.72396,-0.41667 7.99479,-0.625 v -0.75521 q 0,-1.66666 -0.59896,-2.76041 -0.57292,-1.09375 -1.66667,-1.71875 -1.04166,-0.59896 -2.5,-0.80729 -1.45833,-0.20833 -3.04687,-0.20833 -1.92708,0 -4.29687,0.52083 -2.36979,0.49479 -4.89583,1.45833 h -0.26042 v -4.97395 q 1.43229,-0.39063 4.14062,-0.85938 2.70834,-0.46875 5.33854,-0.46875 3.07292,0 5.33854,0.52083 2.29167,0.4948 3.95833,1.71875 1.64063,1.19792 2.5,3.09896 0.85938,1.90104 0.85938,4.71354 z m -4.86979,-7.16145 v -8.09896 q -2.23958,0.13021 -5.28646,0.39063 -3.02083,0.26041 -4.79166,0.75521 -2.10938,0.59895 -3.41146,1.87499 -1.30208,1.25 -1.30208,3.46354 0,2.5 1.51041,3.77604 1.51042,1.25 4.60938,1.25 2.57812,0 4.71354,-0.98958 2.13541,-1.01562 3.95833,-2.42187 z"
     style="font-size:53.3333px"
     id="path25" /><path
     d="m 208.04682,348.73958 q -1.38021,0.36459 -3.02083,0.59896 -1.61459,0.23438 -2.89063,0.23438 -4.45312,0 -6.77083,-2.39584 -2.3177,-2.39583 -2.3177,-7.68228 v -15.46874 h -3.30729 v -4.11458 h 3.30729 v -8.35937 h 4.89583 v 8.35937 h 10.10416 v 4.11458 h -10.10416 v 13.2552 q 0,2.29166 0.10416,3.59374 0.10417,1.27605 0.72917,2.39584 0.57292,1.04166 1.5625,1.53645 1.01562,0.46875 3.07291,0.46875 1.19792,0 2.5,-0.33854 1.30208,-0.36458 1.875,-0.59896 h 0.26042 z"
     style="font-size:53.3333px"
     id="path27" /><path
     d="m 236.56243,349 h -4.86979 v -3.09896 q -0.65104,0.44271 -1.77083,1.25 -1.09375,0.78125 -2.13542,1.25 -1.22395,0.59896 -2.81249,0.98958 -1.58855,0.41667 -3.72396,0.41667 -3.93229,0 -6.66666,-2.60416 -2.73438,-2.60417 -2.73438,-6.64062 0,-3.30729 1.40625,-5.33854 1.43229,-2.05729 4.0625,-3.22917 2.65625,-1.17187 6.3802,-1.58854 3.72396,-0.41667 7.99479,-0.625 v -0.75521 q 0,-1.66666 -0.59896,-2.76041 -0.57291,-1.09375 -1.66666,-1.71875 -1.04167,-0.59896 -2.5,-0.80729 -1.45833,-0.20833 -3.04687,-0.20833 -1.92709,0 -4.29688,0.52083 -2.36979,0.49479 -4.89583,1.45833 h -0.26041 v -4.97395 q 1.43229,-0.39063 4.14062,-0.85938 2.70833,-0.46875 5.33854,-0.46875 3.07291,0 5.33854,0.52083 2.29166,0.4948 3.95833,1.71875 1.64062,1.19792 2.5,3.09896 0.85937,1.90104 0.85937,4.71354 z m -4.86979,-7.16145 v -8.09896 q -2.23958,0.13021 -5.28645,0.39063 -3.02084,0.26041 -4.79167,0.75521 -2.10937,0.59895 -3.41145,1.87499 -1.30209,1.25 -1.30209,3.46354 0,2.5 1.51042,3.77604 1.51042,1.25 4.60937,1.25 2.57813,0 4.71354,-0.98958 2.13542,-1.01562 3.95833,-2.42187 z"
     style="font-size:53.3333px"
     id="path29" /><path
     d="m 289.89572,314.80731 h -19.60936 v 10.9375 h 16.84895 v 4.58333 H 270.28636 V 349 h -5.15625 v -38.77602 h 24.76561 z"
     style="font-size:53.3333px"
     id="path31" /><path
     d="m 315.3905,349 h -4.86979 v -3.09896 q -0.65104,0.44271 -1.77083,1.25 -1.09375,0.78125 -2.13541,1.25 -1.22396,0.59896 -2.8125,0.98958 -1.58854,0.41667 -3.72396,0.41667 -3.93229,0 -6.66666,-2.60416 -2.73438,-2.60417 -2.73438,-6.64062 0,-3.30729 1.40625,-5.33854 1.43229,-2.05729 4.0625,-3.22917 2.65625,-1.17187 6.38021,-1.58854 3.72395,-0.41667 7.99478,-0.625 v -0.75521 q 0,-1.66666 -0.59895,-2.76041 -0.57292,-1.09375 -1.66667,-1.71875 -1.04167,-0.59896 -2.5,-0.80729 -1.45833,-0.20833 -3.04687,-0.20833 -1.92708,0 -4.29687,0.52083 -2.36979,0.49479 -4.89584,1.45833 h -0.26041 v -4.97395 q 1.43229,-0.39063 4.14062,-0.85938 2.70833,-0.46875 5.33854,-0.46875 3.07291,0 5.33854,0.52083 2.29166,0.4948 3.95833,1.71875 1.64062,1.19792 2.5,3.09896 0.85937,1.90104 0.85937,4.71354 z m -4.86979,-7.16145 v -8.09896 q -2.23958,0.13021 -5.28645,0.39063 -3.02083,0.26041 -4.79167,0.75521 -2.10937,0.59895 -3.41145,1.87499 -1.30208,1.25 -1.30208,3.46354 0,2.5 1.51041,3.77604 1.51042,1.25 4.60937,1.25 2.57813,0 4.71354,-0.98958 2.13542,-1.01562 3.95833,-2.42187 z"
     style="font-size:53.3333px"
     id="path33" /><path
     d="m 346.32799,347.17708 q -2.44792,1.17188 -4.66146,1.82292 -2.1875,0.65104 -4.66145,0.65104 -3.15104,0 -5.78125,-0.91146 -2.63021,-0.9375 -4.50521,-2.81249 -1.90104,-1.875 -2.9427,-4.73959 -1.04167,-2.86458 -1.04167,-6.6927 0,-7.13541 3.90625,-11.19791 3.93229,-4.0625 10.36458,-4.0625 2.49999,0 4.89583,0.70313 2.42187,0.70312 4.42708,1.71875 v 5.4427 h -0.26042 q -2.23958,-1.74479 -4.63541,-2.68229 -2.36979,-0.9375 -4.63542,-0.9375 -4.16666,0 -6.58853,2.8125 -2.39584,2.78646 -2.39584,8.20312 0,5.26041 2.34375,8.09895 2.36979,2.8125 6.64062,2.8125 1.48438,0 3.02083,-0.39062 1.53646,-0.39063 2.76042,-1.01563 1.06771,-0.54687 2.00521,-1.14583 0.9375,-0.625 1.48437,-1.06771 h 0.26042 z"
     style="font-size:53.3333px"
     id="path35" /><path
     d="m 367.70818,348.73958 q -1.38021,0.36459 -3.02083,0.59896 -1.61458,0.23438 -2.89063,0.23438 -4.45312,0 -6.77083,-2.39584 -2.3177,-2.39583 -2.3177,-7.68228 v -15.46874 h -3.30729 v -4.11458 h 3.30729 v -8.35937 h 4.89583 v 8.35937 h 10.10416 v 4.11458 h -10.10416 v 13.2552 q 0,2.29166 0.10417,3.59374 0.10416,1.27605 0.72916,2.39584 0.57292,1.04166 1.5625,1.53645 1.01562,0.46875 3.07292,0.46875 1.19791,0 2.49999,-0.33854 1.30209,-0.36458 1.875,-0.59896 h 0.26042 z"
     style="font-size:53.3333px"
     id="path37" /><path
     d="m 398.41128,334.46876 q 0,7.10937 -3.64583,11.22395 -3.64583,4.11458 -9.76562,4.11458 -6.17187,0 -9.8177,-4.11458 -3.61979,-4.11458 -3.61979,-11.22395 0,-7.10937 3.61979,-11.22395 3.64583,-4.14063 9.8177,-4.14063 6.11979,0 9.76562,4.14063 3.64583,4.11458 3.64583,11.22395 z m -5.05208,0 q 0,-5.65104 -2.21354,-8.38541 -2.21354,-2.76042 -6.14583,-2.76042 -3.98437,0 -6.19791,2.76042 -2.1875,2.73437 -2.1875,8.38541 0,5.46875 2.21354,8.30729 2.21354,2.81249 6.17187,2.81249 3.90625,0 6.11979,-2.78645 2.23958,-2.8125 2.23958,-8.33333 z"
     style="font-size:53.3333px"
     id="path39" /><path
     d="m 424.14043,325.25001 h -0.26042 q -1.09375,-0.26041 -2.13541,-0.36458 -1.01563,-0.13021 -2.42188,-0.13021 -2.26562,0 -4.37499,1.01563 -2.10938,0.98958 -4.0625,2.57812 V 349 h -4.89583 v -29.08852 h 4.89583 v 4.29687 q 2.91666,-2.34375 5.1302,-3.30729 2.23959,-0.98958 4.55729,-0.98958 1.27604,0 1.84896,0.0781 0.57292,0.0521 1.71875,0.23438 z"
     style="font-size:53.3333px"
     id="path41" /><path
     d="m 453.90604,319.91148 -16.97916,39.81768 h -5.23437 l 5.41666,-12.13541 -11.58853,-27.68227 h 5.3125 l 8.93228,21.56248 9.01041,-21.56248 z"
     style="font-size:53.3333px"
     id="path43" /><path
     d="m 509.4008,346.1875 q -1.43229,0.625 -2.60417,1.17188 -1.14583,0.54687 -3.02083,1.14583 -1.58854,0.49479 -3.46354,0.83333 -1.84896,0.36458 -4.08854,0.36458 -4.21875,0 -7.68229,-1.17187 -3.43749,-1.19792 -5.98958,-3.72396 -2.49999,-2.47395 -3.90624,-6.27603 -1.40625,-3.82813 -1.40625,-8.88021 0,-4.79166 1.35416,-8.5677 1.35417,-3.77604 3.90625,-6.3802 2.47396,-2.52604 5.96354,-3.85417 3.51562,-1.32812 7.78645,-1.32812 3.125,0 6.22396,0.7552 3.125,0.75521 6.92708,2.65625 v 6.11979 h -0.39063 q -3.20312,-2.68229 -6.35416,-3.90625 -3.15104,-1.22395 -6.74479,-1.22395 -2.9427,0 -5.3125,0.96354 -2.34374,0.9375 -4.1927,2.9427 -1.79687,1.95313 -2.8125,4.94792 -0.98958,2.96875 -0.98958,6.87499 0,4.08854 1.09375,7.03125 1.11979,2.94271 2.86458,4.79166 1.82291,1.92709 4.24479,2.86458 2.44791,0.91146 5.15624,0.91146 3.72396,0 6.97917,-1.27604 3.2552,-1.27604 6.09374,-3.82812 h 0.36459 z"
     style="font-size:53.3333px"
     id="path45" /><path
     d="m 541.09349,334.46876 q 0,7.10937 -3.64583,11.22395 -3.64583,4.11458 -9.76562,4.11458 -6.17187,0 -9.8177,-4.11458 -3.61979,-4.11458 -3.61979,-11.22395 0,-7.10937 3.61979,-11.22395 3.64583,-4.14063 9.8177,-4.14063 6.11979,0 9.76562,4.14063 3.64583,4.11458 3.64583,11.22395 z m -5.05208,0 q 0,-5.65104 -2.21354,-8.38541 -2.21354,-2.76042 -6.14583,-2.76042 -3.98437,0 -6.19792,2.76042 -2.18749,2.73437 -2.18749,8.38541 0,5.46875 2.21354,8.30729 2.21354,2.81249 6.17187,2.81249 3.90625,0 6.11979,-2.78645 2.23958,-2.8125 2.23958,-8.33333 z"
     style="font-size:53.3333px"
     id="path47" /><path
     d="m 574.27056,334.10418 q 0,3.54166 -1.01562,6.48437 -1.01563,2.91666 -2.86459,4.94791 -1.71874,1.92708 -4.06249,2.99479 -2.31771,1.04167 -4.92187,1.04167 -2.26563,0 -4.11459,-0.4948 -1.82291,-0.49479 -3.72395,-1.53645 v 12.18749 h -4.89583 v -39.81768 h 4.89583 v 3.04687 q 1.95312,-1.64063 4.375,-2.73437 2.44791,-1.1198 5.20833,-1.1198 5.26041,0 8.17707,3.98438 2.94271,3.95833 2.94271,11.01562 z m -5.05208,0.1302 q 0,-5.26041 -1.79687,-7.86457 -1.79688,-2.60417 -5.52083,-2.60417 -2.10938,0 -4.24479,0.91146 -2.13542,0.91146 -4.08854,2.39583 v 16.48436 q 2.08333,0.9375 3.5677,1.27605 1.51042,0.33854 3.41146,0.33854 4.08854,0 6.38021,-2.76042 2.29166,-2.76041 2.29166,-8.17708 z"
     style="font-size:53.3333px"
     id="path49" /><path
     d="m 606.92679,319.91148 -16.97916,39.81768 h -5.23437 l 5.41667,-12.13541 -11.58854,-27.68227 h 5.3125 l 8.93228,21.56248 9.01042,-21.56248 z"
     style="font-size:53.3333px"
     id="path51" /></g></svg>
