<?xml version="1.0" encoding="UTF-8" standalone="no"?>
<svg
   xmlns:dc="http://purl.org/dc/elements/1.1/"
   xmlns:cc="http://creativecommons.org/ns#"
   xmlns:rdf="http://www.w3.org/1999/02/22-rdf-syntax-ns#"
   xmlns:svg="http://www.w3.org/2000/svg"
   xmlns="http://www.w3.org/2000/svg"
   xmlns:sodipodi="http://sodipodi.sourceforge.net/DTD/sodipodi-0.dtd"
   xmlns:inkscape="http://www.inkscape.org/namespaces/inkscape"
   width="210mm"
   height="297mm"
   viewBox="0 0 210 297"
   version="1.1"
   id="svg119"
   inkscape:version="1.0.1 (3bc2e813f5, 2020-09-07)"
   sodipodi:docname="azure.svg">
  <defs
     id="defs113" />
  <sodipodi:namedview
     id="base"
     pagecolor="#ffffff"
     bordercolor="#666666"
     borderopacity="1.0"
     inkscape:pageopacity="0.0"
     inkscape:pageshadow="2"
     inkscape:zoom="0.35"
     inkscape:cx="400"
     inkscape:cy="560"
     inkscape:document-units="mm"
     inkscape:current-layer="layer1"
     inkscape:document-rotation="0"
     showgrid="false"
     inkscape:window-width="1267"
     inkscape:window-height="1040"
     inkscape:window-x="234"
     inkscape:window-y="0"
     inkscape:window-maximized="0" />
  <metadata
     id="metadata116">
    <rdf:RDF>
      <cc:Work
         rdf:about="">
        <dc:format>image/svg+xml</dc:format>
        <dc:type
           rdf:resource="http://purl.org/dc/dcmitype/StillImage" />
        <dc:title></dc:title>
      </cc:Work>
    </rdf:RDF>
  </metadata>
  <g
     inkscape:label="Layer 1"
     inkscape:groupmode="layer"
     id="layer1">
    <path
       d="m 99.646691,135.31572 31.864179,-5.61737 0.29216,-0.0681 -16.38479,-19.45637 c -5.4908,-6.48869 -10.95242,-13.001705 -16.384809,-19.539075 0,-0.0975 16.920249,-46.59397 17.017589,-46.7546 0.0294,-0.05887 11.54628,19.77761 27.91161,48.08349 l 28.07223,48.565415 0.21414,0.36998 -52.0799,-0.0101 -52.079898,-0.005 31.557539,-5.56383 z m -62.496885,-5.91917 c 0,-0.0294 7.720227,-13.40576 17.158765,-29.727275 L 71.467347,69.990712 91.464001,53.240811 C 102.46022,44.035924 111.485,36.48606 111.52881,36.471471 c -0.0735,0.282405 -0.1803,0.554875 -0.32122,0.808029 L 89.487741,83.756635 68.1622,129.39653 l -15.508616,0.0203 c -8.523399,0.0152 -15.503741,0 -15.503741,-0.0238 z"
       fill="#0089d6"
       id="path82"
       style="stroke-width:4.86773" />
  </g>
</svg>
