<?xml version="1.0" encoding="UTF-8" standalone="no"?>
<svg
   xmlns:dc="http://purl.org/dc/elements/1.1/"
   xmlns:cc="http://creativecommons.org/ns#"
   xmlns:rdf="http://www.w3.org/1999/02/22-rdf-syntax-ns#"
   xmlns:svg="http://www.w3.org/2000/svg"
   xmlns="http://www.w3.org/2000/svg"
   xmlns:sodipodi="http://sodipodi.sourceforge.net/DTD/sodipodi-0.dtd"
   xmlns:inkscape="http://www.inkscape.org/namespaces/inkscape"
   id="a2c88306-fa03-4e5b-b192-401f0b77808b"
   width="18"
   height="18"
   viewBox="0 0 18 18"
   version="1.1"
   sodipodi:docname="azure-function-app.svg"
   inkscape:version="1.0.1 (3bc2e813f5, 2020-09-07)">
  <metadata
     id="metadata34">
    <rdf:RDF>
      <cc:Work
         rdf:about="">
        <dc:format>image/svg+xml</dc:format>
        <dc:type
           rdf:resource="http://purl.org/dc/dcmitype/StillImage" />
      </cc:Work>
    </rdf:RDF>
  </metadata>
  <sodipodi:namedview
     pagecolor="#ffffff"
     bordercolor="#666666"
     borderopacity="1"
     objecttolerance="10"
     gridtolerance="10"
     guidetolerance="10"
     inkscape:pageopacity="0"
     inkscape:pageshadow="2"
     inkscape:window-width="1920"
     inkscape:window-height="1017"
     id="namedview32"
     showgrid="false"
     inkscape:zoom="47.222222"
     inkscape:cx="9"
     inkscape:cy="7.3058827"
     inkscape:window-x="-8"
     inkscape:window-y="-8"
     inkscape:window-maximized="1"
     inkscape:current-layer="text38"
     inkscape:document-rotation="0" />
  <defs
     id="defs13">
    <linearGradient
       id="b403aca7-f387-4434-96b4-ae157edc835f"
       x1="-175.993"
       y1="-343.723"
       x2="-175.993"
       y2="-359.232"
       gradientTransform="matrix(0.80695408,0,0,0.71830083,150.98922,258.14695)"
       gradientUnits="userSpaceOnUse">
      <stop
         offset="0"
         stop-color="#fea11b"
         id="stop2" />
      <stop
         offset="0.284"
         stop-color="#fea51a"
         id="stop4" />
      <stop
         offset="0.547"
         stop-color="#feb018"
         id="stop6" />
      <stop
         offset="0.8"
         stop-color="#ffc314"
         id="stop8" />
      <stop
         offset="1"
         stop-color="#ffd70f"
         id="stop10" />
    </linearGradient>
  </defs>
  <title
     id="title15">Icon-compute-29</title>
  <g
     id="g21"
     transform="matrix(0.69805717,0,0,0.69805717,2.6011158,-0.51673532)">
    <path
       d="M 2.37,7.475 H 3.2 A 0.267,0.267 0 0 1 3.467,7.742 V 13.89 A 0.533,0.533 0 0 1 2.934,14.423 H 2.1 V 7.741 A 0.267,0.267 0 0 1 2.367,7.474 Z"
       transform="rotate(134.919,2.7868622,10.947965)"
       fill="#50e6ff"
       id="path17" />
    <path
       d="M 2.325,3.6 H 3.158 A 0.267,0.267 0 0 1 3.425,3.867 V 10.45 H 2.591 A 0.533,0.533 0 0 1 2.058,9.917 V 3.865 A 0.267,0.267 0 0 1 2.325,3.6 Z"
       transform="rotate(44.919,2.7416142,7.0226503)"
       fill="#1490df"
       id="path19" />
  </g>
  <g
     id="g27"
     transform="matrix(0.69805717,0,0,0.69805717,2.6011158,-0.51673532)">
    <path
       d="m 14.53,7.475 h 0.833 a 0.533,0.533 0 0 1 0.533,0.533 v 6.148 a 0.267,0.267 0 0 1 -0.267,0.267 H 14.8 A 0.267,0.267 0 0 1 14.533,14.156 V 7.475 Z"
       transform="rotate(45.081,15.21299,10.947518)"
       fill="#50e6ff"
       id="path23" />
    <path
       d="m 15.108,3.6 h 0.833 v 6.583 A 0.267,0.267 0 0 1 15.674,10.45 H 14.841 A 0.267,0.267 0 0 1 14.574,10.183 V 4.131 a 0.533,0.533 0 0 1 0.533,-0.533 z"
       transform="rotate(135.081,15.258421,7.0230251)"
       fill="#1490df"
       id="path25" />
  </g>
  <path
     d="M 8.5059814,6.3940306 H 6.0006542 A 0.13472504,0.13472504 0 0 1 5.8610427,6.2676822 0.11587749,0.11587749 0 0 1 5.873608,6.215328 L 8.8773478,0.2720693 A 0.14379978,0.14379978 0 0 1 9.0071864,0.1980753 H 11.97044 a 0.13472504,0.13472504 0 0 1 0.139611,0.12634842 0.11517943,0.11517943 0 0 1 -0.02443,0.0698059 L 8.5583358,5.043988 h 3.4400262 a 0.13472504,0.13472504 0 0 1 0.139612,0.1263484 0.12285807,0.12285807 0 0 1 -0.0363,0.085163 L 6.3852837,11.202249 c -0.05375,0.03211 -0.4355876,0.349029 -0.2485083,-0.131933 v 0 z"
     fill="url(#b403aca7-f387-4434-96b4-ae157edc835f)"
     id="path29"
     style="fill:url(#b403aca7-f387-4434-96b4-ae157edc835f);stroke-width:0.698057" />
  <g
     aria-label="Function App"
     id="text38"
     style="font-size:2.66667px;line-height:1.25;font-family:sans-serif"
     transform="translate(0.14823529,-2.2447059)">
    <path
       d="m 4.8234057,13.876245 h -0.98047 v 0.546875 h 0.842449 v 0.229167 h -0.842449 v 0.933595 H 3.5851228 v -1.938804 h 1.2382829 z"
       style="font-size:2.66667px"
       id="path40" />
    <path
       d="M 6.3038763,15.585882 H 6.0590844 v -0.161458 q -0.1236981,0.09766 -0.2369795,0.149739 -0.1132814,0.05208 -0.2500003,0.05208 -0.229167,0 -0.3567713,-0.139323 -0.1276044,-0.140625 -0.1276044,-0.411459 v -0.944012 h 0.244792 v 0.828126 q 0,0.110678 0.010417,0.190105 0.010417,0.07813 0.044271,0.134114 0.035156,0.05729 0.091146,0.08333 0.05599,0.02604 0.1627607,0.02604 0.095052,0 0.2070315,-0.04948 0.1132814,-0.04948 0.2109378,-0.126302 v -1.085939 h 0.2447919 z"
       style="font-size:2.66667px"
       id="path42" />
    <path
       d="M 8.001795,15.585882 H 7.7570031 v -0.828126 q 0,-0.10026 -0.011719,-0.1875 -0.011719,-0.08854 -0.042969,-0.138021 -0.032552,-0.05469 -0.09375,-0.08073 -0.061198,-0.02734 -0.1588544,-0.02734 -0.1002605,0 -0.2096357,0.04948 -0.1093751,0.04948 -0.2096357,0.126302 v 1.085939 h -0.244792 v -1.454429 h 0.244792 v 0.161459 q 0.1145835,-0.09505 0.2369795,-0.148438 0.122396,-0.05339 0.2513024,-0.05339 0.2356774,0 0.3593755,0.141927 0.123698,0.141927 0.123698,0.408855 z"
       style="font-size:2.66667px"
       id="path44" />
    <path
       d="m 9.5486722,15.494736 q -0.1223959,0.05859 -0.2330732,0.09115 -0.1093751,0.03255 -0.2330732,0.03255 -0.1575523,0 -0.2890629,-0.04557 -0.1315105,-0.04687 -0.2252607,-0.140625 -0.095052,-0.09375 -0.1471356,-0.236979 -0.052083,-0.14323 -0.052083,-0.334636 0,-0.356771 0.1953128,-0.559897 0.1966148,-0.203125 0.5182298,-0.203125 0.1250002,0 0.244792,0.03516 0.1210939,0.03516 0.2213544,0.08594 V 14.49084 H 9.5356516 Q 9.4236723,14.4036 9.3038805,14.356725 q -0.1184898,-0.04687 -0.2317712,-0.04687 -0.2083336,0 -0.3294275,0.140625 -0.1197918,0.139323 -0.1197918,0.410157 0,0.263021 0.1171877,0.404948 0.1184897,0.140625 0.3320316,0.140625 0.074219,0 0.1510419,-0.01953 0.076823,-0.01953 0.138021,-0.05078 0.053386,-0.02734 0.1002605,-0.05729 0.046875,-0.03125 0.074219,-0.05339 h 0.013021 z"
       style="font-size:2.66667px"
       id="path46" />
    <path
       d="m 10.617684,15.572861 q -0.06901,0.01823 -0.151042,0.02995 -0.08073,0.01172 -0.144531,0.01172 -0.222657,0 -0.3385424,-0.119792 Q 9.867683,15.374944 9.867683,15.110621 V 14.337183 H 9.7023182 v -0.20573 H 9.867683 v -0.417969 h 0.244792 v 0.417969 h 0.505209 v 0.20573 h -0.505209 v 0.662761 q 0,0.114583 0.0052,0.179688 0.0052,0.0638 0.03646,0.119791 0.02865,0.05208 0.07813,0.07682 0.05078,0.02344 0.153646,0.02344 0.0599,0 0.125,-0.01693 0.0651,-0.01823 0.09375,-0.02995 h 0.01302 z"
       style="font-size:2.66667px"
       id="path48" />
    <path
       d="m 11.176278,13.887963 h -0.276042 v -0.253906 h 0.276042 z m -0.01563,1.697919 h -0.244792 v -1.454429 h 0.244792 z"
       style="font-size:2.66667px"
       id="path50" />
    <path
       d="m 12.884614,14.859319 q 0,0.355469 -0.182292,0.561198 -0.182292,0.20573 -0.488282,0.20573 -0.308594,0 -0.490886,-0.20573 -0.18099,-0.205729 -0.18099,-0.561198 0,-0.355469 0.18099,-0.561199 0.182292,-0.207031 0.490886,-0.207031 0.30599,0 0.488282,0.207031 0.182292,0.20573 0.182292,0.561199 z m -0.252605,0 q 0,-0.282553 -0.110677,-0.419272 -0.110677,-0.138021 -0.307292,-0.138021 -0.199219,0 -0.309896,0.138021 -0.109375,0.136719 -0.109375,0.419272 0,0.273438 0.110677,0.415365 0.110677,0.140625 0.308594,0.140625 0.195313,0 0.30599,-0.139323 0.111979,-0.140625 0.111979,-0.416667 z"
       style="font-size:2.66667px"
       id="path52" />
    <path
       d="m 14.479669,15.585882 h -0.244792 v -0.828126 q 0,-0.10026 -0.01172,-0.1875 -0.01172,-0.08854 -0.04297,-0.138021 -0.03255,-0.05469 -0.09375,-0.08073 -0.0612,-0.02734 -0.158854,-0.02734 -0.100261,0 -0.209636,0.04948 -0.109375,0.04948 -0.209636,0.126302 v 1.085939 h -0.244792 v -1.454429 h 0.244792 v 0.161459 q 0.114584,-0.09505 0.23698,-0.148438 0.122396,-0.05339 0.251302,-0.05339 0.235677,0 0.359375,0.141927 0.123699,0.141927 0.123699,0.408855 z"
       style="font-size:2.66667px"
       id="path54" />
    <path
       d="m 4.6884675,17.872941 h -0.27474 l -0.190104,-0.540365 h -0.838543 l -0.190104,0.540365 h -0.261719 l 0.70573,-1.938804 h 0.34375 z m -0.544271,-0.76172 -0.339845,-0.951824 -0.341146,0.951824 z"
       style="font-size:2.66667px"
       id="path56" />
    <path
       d="m 6.2431565,17.128149 q 0,0.177083 -0.05078,0.324219 -0.05078,0.145833 -0.143229,0.247396 -0.08594,0.09635 -0.203125,0.14974 -0.115886,0.05208 -0.246095,0.05208 -0.113281,0 -0.205729,-0.02474 -0.09115,-0.02474 -0.186198,-0.07682 V 18.4094 h -0.244792 v -1.990888 h 0.244792 v 0.152344 q 0.09766,-0.08203 0.21875,-0.136719 0.122396,-0.05599 0.260417,-0.05599 0.263021,0 0.408855,0.199219 0.147135,0.197917 0.147135,0.550782 z m -0.252604,0.0065 q 0,-0.263021 -0.08984,-0.39323 -0.08984,-0.130208 -0.276042,-0.130208 -0.105469,0 -0.21224,0.04557 -0.106771,0.04557 -0.204427,0.119792 v 0.824219 q 0.104167,0.04687 0.178386,0.0638 0.07552,0.01693 0.170573,0.01693 0.204427,0 0.319011,-0.138021 0.114583,-0.138021 0.114583,-0.408855 z"
       style="font-size:2.66667px"
       id="path58" />
    <path
       d="m 7.9046178,17.128149 q 0,0.177083 -0.05078,0.324219 -0.05078,0.145833 -0.143229,0.247396 -0.08594,0.09635 -0.203126,0.14974 -0.115885,0.05208 -0.246094,0.05208 -0.113281,0 -0.205729,-0.02474 -0.09115,-0.02474 -0.1861983,-0.07682 V 18.4094 h -0.244792 v -1.990888 h 0.244792 v 0.152344 q 0.09766,-0.08203 0.2187503,-0.136719 0.122396,-0.05599 0.260417,-0.05599 0.263021,0 0.408855,0.199219 0.147135,0.197917 0.147135,0.550782 z m -0.252604,0.0065 q 0,-0.263021 -0.08984,-0.39323 -0.08984,-0.130208 -0.276042,-0.130208 -0.105469,0 -0.21224,0.04557 -0.106771,0.04557 -0.2044273,0.119792 v 0.824219 q 0.1041673,0.04687 0.1783853,0.0638 0.07552,0.01693 0.170574,0.01693 0.204427,0 0.31901,-0.138021 0.114584,-0.138021 0.114584,-0.408855 z"
       style="font-size:2.66667px"
       id="path60" />
  </g>
</svg>
