<?xml version="1.0" encoding="UTF-8" standalone="no"?>
<svg
   xmlns:dc="http://purl.org/dc/elements/1.1/"
   xmlns:cc="http://creativecommons.org/ns#"
   xmlns:rdf="http://www.w3.org/1999/02/22-rdf-syntax-ns#"
   xmlns:svg="http://www.w3.org/2000/svg"
   xmlns="http://www.w3.org/2000/svg"
   xmlns:sodipodi="http://sodipodi.sourceforge.net/DTD/sodipodi-0.dtd"
   xmlns:inkscape="http://www.inkscape.org/namespaces/inkscape"
   id="eccfbced-10ca-487a-a425-bf34f9e15139"
   width="18"
   height="18"
   viewBox="0 0 18 18"
   version="1.1"
   sodipodi:docname="azure-bot-services.svg"
   inkscape:version="1.0.1 (3bc2e813f5, 2020-09-07)">
  <metadata
     id="metadata31">
    <rdf:RDF>
      <cc:Work
         rdf:about="">
        <dc:format>image/svg+xml</dc:format>
        <dc:type
           rdf:resource="http://purl.org/dc/dcmitype/StillImage" />
      </cc:Work>
    </rdf:RDF>
  </metadata>
  <sodipodi:namedview
     pagecolor="#ffffff"
     bordercolor="#666666"
     borderopacity="1"
     objecttolerance="10"
     gridtolerance="10"
     guidetolerance="10"
     inkscape:pageopacity="0"
     inkscape:pageshadow="2"
     inkscape:window-width="1920"
     inkscape:window-height="1017"
     id="namedview29"
     showgrid="false"
     inkscape:zoom="47.222222"
     inkscape:cx="9"
     inkscape:cy="10.694118"
     inkscape:window-x="-8"
     inkscape:window-y="-8"
     inkscape:window-maximized="1"
     inkscape:current-layer="eccfbced-10ca-487a-a425-bf34f9e15139" />
  <defs
     id="defs13">
    <radialGradient
       id="b915730c-dc69-4cd4-8cf3-619882b8e8ab"
       cx="55.71"
       cy="71.92"
       r="9"
       gradientTransform="matrix(0.73274464,0,0,0.73274464,-32.423256,-45.776462)"
       gradientUnits="userSpaceOnUse">
      <stop
         offset="0.67"
         stop-color="#6bb9f2"
         id="stop2" />
      <stop
         offset="0.74"
         stop-color="#61b4f1"
         id="stop4" />
      <stop
         offset="0.85"
         stop-color="#47a8ef"
         id="stop6" />
      <stop
         offset="0.99"
         stop-color="#1d94eb"
         id="stop8" />
      <stop
         offset="1"
         stop-color="#1b93eb"
         id="stop10" />
    </radialGradient>
  </defs>
  <title
     id="title15">Icon-machinelearning-165</title>
  <path
     id="f6a29e1b-194b-4d8d-8529-49edea7bbba0"
     d="M 8.5870589,0.54235294 A 6.6258824,6.6258824 0 1 0 15.212941,7.1682354 6.6258824,6.6258824 0 0 0 8.5870589,0.54235294 Z"
     fill="url(#b915730c-dc69-4cd4-8cf3-619882b8e8ab)"
     style="fill:url(#b915730c-dc69-4cd4-8cf3-619882b8e8ab);stroke-width:0.779516" />
  <circle
     cx="8.587059"
     cy="7.1682348"
     r="5.4799948"
     fill="#ffffff"
     id="circle18"
     style="stroke-width:0.779516" />
  <circle
     cx="7.3788095"
     cy="7.1682348"
     r="0.600227"
     fill="#32bedd"
     id="circle20"
     style="stroke-width:0.779516" />
  <path
     d="M 5.6716706,5.4533011 H 5.3754547 A 0.22605952,0.22605952 0 0 0 5.1493952,5.6793606 V 10.13819 a 0.45991419,0.45991419 0 0 0 0.4599142,0.459914 h 4.341902 A 0.22605952,0.22605952 0 0 0 10.17727,10.364249 V 10.068033 A 0.22605952,0.22605952 0 0 0 9.9512114,9.8419736 H 6.0536332 A 0.10913218,0.10913218 0 0 1 5.9445011,9.7250466 V 5.6793606 A 0.22605952,0.22605952 0 0 0 5.6716706,5.4533011 Z"
     fill="#32bedd"
     id="path22"
     style="stroke-width:0.779516" />
  <circle
     cx="9.7953081"
     cy="7.1682348"
     r="0.600227"
     fill="#32bedd"
     id="circle24"
     style="stroke-width:0.779516" />
  <path
     d="M 11.253002,3.7383668 H 7.2073163 A 0.22605952,0.22605952 0 0 0 6.9812568,3.9722215 v 0.2962159 a 0.22605952,0.22605952 0 0 0 0.2260595,0.2260595 h 3.8975777 a 0.11692734,0.11692734 0 0 1 0.116927,0.1169274 v 4.0456858 a 0.22605952,0.22605952 0 0 0 0.22606,0.2260595 h 0.296215 a 0.22605952,0.22605952 0 0 0 0.22606,-0.2260595 V 4.198281 A 0.45991419,0.45991419 0 0 0 11.518037,3.7383668 Z"
     fill="#32bedd"
     id="path26"
     style="stroke-width:0.779516" />
  <g
     aria-label="Bot Services"
     id="text35"
     style="font-size:1.33333px;line-height:1.25;font-family:sans-serif">
    <path
       d="m 2.4003056,16.005997 q 0,0.144532 -0.054688,0.255209 -0.054688,0.110677 -0.1471356,0.182292 -0.1093751,0.08594 -0.2408857,0.122396 -0.1302085,0.03646 -0.3320317,0.03646 H 0.93806411 V 14.663548 H 1.5122836 q 0.2122399,0 0.3177087,0.01563 0.1054689,0.01563 0.2018232,0.0651 0.106771,0.05599 0.1549481,0.144531 0.048177,0.08724 0.048177,0.209636 0,0.138021 -0.070313,0.235677 -0.070313,0.09636 -0.1875003,0.154948 v 0.01042 q 0.1966149,0.04037 0.3098963,0.173177 0.1132814,0.131511 0.1132814,0.333334 z M 1.9667113,15.132298 q 0,-0.07031 -0.023438,-0.11849 -0.023437,-0.04818 -0.075521,-0.07813 -0.061198,-0.03516 -0.1484377,-0.04297 -0.08724,-0.0091 -0.2161461,-0.0091 H 1.1958769 v 0.559896 h 0.3333338 q 0.1210939,0 0.1927086,-0.01172 0.071615,-0.01302 0.1328127,-0.05208 0.061198,-0.03906 0.085938,-0.10026 0.026042,-0.0625 0.026042,-0.147136 z m 0.1653648,0.884116 q 0,-0.117188 -0.035156,-0.186198 -0.035156,-0.06901 -0.1276044,-0.117188 -0.0625,-0.03255 -0.1523439,-0.04167 -0.088542,-0.01042 -0.2161461,-0.01042 H 1.1958769 V 16.3823 h 0.3411463 q 0.1692711,0 0.2773441,-0.01693 0.1080731,-0.01823 0.1770836,-0.06511 0.072917,-0.05078 0.106771,-0.115885 0.033854,-0.0651 0.033854,-0.167969 z"
       style="font-size:2.66667px"
       id="path37" />
    <path
       d="m 3.9862451,15.875789 q 0,0.355469 -0.1822919,0.561198 -0.1822919,0.20573 -0.4882818,0.20573 -0.3085942,0 -0.4908861,-0.20573 -0.1809898,-0.205729 -0.1809898,-0.561198 0,-0.355469 0.1809898,-0.561199 0.1822919,-0.207031 0.4908861,-0.207031 0.3059899,0 0.4882818,0.207031 0.1822919,0.20573 0.1822919,0.561199 z m -0.2526044,0 q 0,-0.282553 -0.1106773,-0.419272 -0.1106772,-0.138021 -0.307292,-0.138021 -0.199219,0 -0.3098963,0.138021 Q 2.8964,15.593236 2.8964,15.875789 q 0,0.273438 0.1106772,0.415365 0.1106772,0.140625 0.3085942,0.140625 0.1953127,0 0.3059899,-0.139323 0.1119794,-0.140625 0.1119794,-0.416667 z"
       style="font-size:2.66667px"
       id="path39" />
    <path
       d="m 5.1203612,16.589331 q -0.06901,0.01823 -0.1510419,0.02995 -0.080729,0.01172 -0.1445314,0.01172 -0.2226566,0 -0.3385421,-0.119792 Q 4.3703602,16.391414 4.3703602,16.127091 V 15.353653 H 4.2049954 v -0.20573 h 0.1653648 v -0.417969 h 0.244792 v 0.417969 h 0.505209 v 0.20573 h -0.505209 v 0.662761 q 0,0.114583 0.00521,0.179688 0.00521,0.0638 0.036458,0.119791 0.028646,0.05208 0.078125,0.07682 0.050781,0.02344 0.153646,0.02344 0.059896,0 0.1250002,-0.01693 0.065104,-0.01823 0.09375,-0.02995 h 0.013021 z"
       style="font-size:2.66667px"
       id="path41" />
    <path
       d="m 7.7818228,16.048966 q 0,0.113281 -0.053385,0.223959 -0.052083,0.110677 -0.1471356,0.1875 -0.1041668,0.08333 -0.2434899,0.130208 -0.138021,0.04687 -0.3333338,0.04687 -0.2096357,0 -0.3776046,-0.03906 -0.1666669,-0.03906 -0.3398442,-0.115886 v -0.322917 h 0.018229 q 0.1471356,0.122396 0.3398441,0.188803 0.1927086,0.06641 0.3619797,0.06641 0.2395836,0 0.3723963,-0.08984 0.1341147,-0.08984 0.1341147,-0.239584 0,-0.128906 -0.063802,-0.190104 -0.0625,-0.0612 -0.1914065,-0.09505 -0.097656,-0.02604 -0.2122399,-0.04297 Q 6.9328633,15.740372 6.805259,15.71433 6.5474462,15.659643 6.422446,15.528132 6.2987479,15.395319 6.2987479,15.183079 q 0,-0.243489 0.2057295,-0.398438 0.2057294,-0.15625 0.5221361,-0.15625 0.2044273,0 0.3750004,0.03906 0.1705732,0.03906 0.3020838,0.09635 v 0.304688 h -0.018229 q -0.1106773,-0.09375 -0.2916671,-0.154948 -0.1796877,-0.0625 -0.36849,-0.0625 -0.2070315,0 -0.3333338,0.08594 -0.1250002,0.08594 -0.1250002,0.221355 0,0.121094 0.0625,0.190104 0.0625,0.06901 0.2200524,0.105469 0.083333,0.01823 0.2369795,0.04427 0.153646,0.02604 0.260417,0.05339 0.2161461,0.05729 0.3255212,0.173177 0.1093752,0.115885 0.1093752,0.324219 z"
       style="font-size:2.66667px"
       id="path43" />
    <path
       d="m 9.3938044,15.900528 h -1.071616 q 0,0.134115 0.040365,0.234376 0.040365,0.09896 0.1106773,0.16276 0.067708,0.0625 0.1601564,0.09375 0.09375,0.03125 0.2057294,0.03125 0.1484377,0 0.2981775,-0.05859 0.1510419,-0.0599 0.214844,-0.117188 h 0.013021 v 0.266927 q -0.1236981,0.05208 -0.2526045,0.08724 -0.1289064,0.03516 -0.2708337,0.03516 -0.3619796,0 -0.5651049,-0.195312 -0.2031252,-0.196615 -0.2031252,-0.557293 0,-0.356771 0.1940106,-0.566407 0.1953128,-0.209635 0.5130215,-0.209635 0.2942712,0 0.4531256,0.171875 0.1601565,0.171875 0.1601565,0.488282 z m -0.2382816,-0.1875 q -0.0013,-0.192708 -0.097656,-0.298177 -0.095052,-0.105469 -0.2903649,-0.105469 -0.1966149,0 -0.3138025,0.115885 -0.1158856,0.115886 -0.1315106,0.287761 z"
       style="font-size:2.66667px"
       id="path45" />
    <path
       d="m 10.672451,15.414851 h -0.01302 q -0.05469,-0.01302 -0.106771,-0.01823 -0.05078,-0.0065 -0.121094,-0.0065 -0.113281,0 -0.21875,0.05078 -0.105469,0.04948 -0.203125,0.128907 v 1.032553 H 9.7648978 V 15.147923 H 10.00969 v 0.214844 q 0.145833,-0.117187 0.256511,-0.165365 0.111979,-0.04948 0.227864,-0.04948 0.0638,0 0.09245,0.0039 0.02865,0.0026 0.08594,0.01172 z"
       style="font-size:2.66667px"
       id="path47" />
    <path
       d="m 12.160734,15.147923 -0.588542,1.454429 h -0.246094 l -0.584636,-1.454429 h 0.265625 l 0.450521,1.157554 0.446616,-1.157554 z"
       style="font-size:2.66667px"
       id="path49" />
    <path
       d="m 12.744069,14.904433 h -0.276042 v -0.253906 h 0.276042 z m -0.01563,1.697919 h -0.244792 v -1.454429 h 0.244792 z"
       style="font-size:2.66667px"
       id="path51" />
    <path
       d="m 14.288342,16.511206 q -0.122396,0.05859 -0.233073,0.09115 -0.109376,0.03255 -0.233074,0.03255 -0.157552,0 -0.289063,-0.04557 -0.13151,-0.04687 -0.22526,-0.140625 -0.09505,-0.09375 -0.147136,-0.236979 -0.05208,-0.14323 -0.05208,-0.334636 0,-0.356771 0.195313,-0.559897 0.196614,-0.203125 0.518229,-0.203125 0.125001,0 0.244792,0.03516 0.121094,0.03516 0.221355,0.08594 v 0.272136 h -0.01302 q -0.111979,-0.08724 -0.231771,-0.134115 -0.11849,-0.04687 -0.231771,-0.04687 -0.208334,0 -0.329428,0.140625 -0.119792,0.139323 -0.119792,0.410157 0,0.263021 0.117188,0.404948 0.11849,0.140625 0.332032,0.140625 0.07422,0 0.151042,-0.01953 0.07682,-0.01953 0.138021,-0.05078 0.05339,-0.02734 0.10026,-0.05729 0.04687,-0.03125 0.07422,-0.05338 h 0.01302 z"
       style="font-size:2.66667px"
       id="path53" />
    <path
       d="m 15.819593,15.900528 h -1.071616 q 0,0.134115 0.04036,0.234376 0.04036,0.09896 0.110677,0.16276 0.06771,0.0625 0.160157,0.09375 0.09375,0.03125 0.205729,0.03125 0.148438,0 0.298177,-0.05859 0.151042,-0.0599 0.214845,-0.117188 h 0.01302 v 0.266927 q -0.123698,0.05208 -0.252604,0.08724 -0.128907,0.03516 -0.270834,0.03516 -0.361979,0 -0.565105,-0.195312 -0.203125,-0.196615 -0.203125,-0.557293 0,-0.356771 0.194011,-0.566407 0.195312,-0.209635 0.513021,-0.209635 0.294271,0 0.453126,0.171875 0.160156,0.171875 0.160156,0.488282 z m -0.238281,-0.1875 q -0.0013,-0.192708 -0.09766,-0.298177 -0.09505,-0.105469 -0.290365,-0.105469 -0.196614,0 -0.313802,0.115885 -0.115886,0.115886 -0.131511,0.287761 z"
       style="font-size:2.66667px"
       id="path55" />
    <path
       d="m 17.229751,16.183081 q 0,0.199219 -0.165364,0.326823 -0.164063,0.127604 -0.44922,0.127604 -0.161458,0 -0.296875,-0.03776 -0.134115,-0.03906 -0.225261,-0.08464 v -0.274739 h 0.01302 q 0.115886,0.08724 0.257813,0.139323 0.141927,0.05078 0.272136,0.05078 0.161458,0 0.252604,-0.05208 0.09115,-0.05208 0.09115,-0.164063 0,-0.08594 -0.04948,-0.130209 -0.04948,-0.04427 -0.190104,-0.07552 -0.05208,-0.01172 -0.136719,-0.02734 -0.08333,-0.01563 -0.152344,-0.03386 -0.191407,-0.05078 -0.272136,-0.148437 -0.07943,-0.09896 -0.07943,-0.242188 0,-0.08984 0.03646,-0.169271 0.03776,-0.07943 0.113281,-0.141927 0.07292,-0.0612 0.184897,-0.09636 0.113281,-0.03646 0.252604,-0.03646 0.130209,0 0.263021,0.03255 0.134115,0.03125 0.222657,0.07682 v 0.261719 h -0.01302 q -0.09375,-0.06901 -0.227865,-0.115885 -0.134115,-0.04818 -0.263021,-0.04818 -0.134115,0 -0.226563,0.05208 -0.09245,0.05078 -0.09245,0.152344 0,0.08984 0.05599,0.135417 0.05469,0.04557 0.177083,0.07422 0.06771,0.01563 0.151042,0.03125 0.08464,0.01563 0.140625,0.02865 0.170573,0.03906 0.263021,0.134115 0.09245,0.09635 0.09245,0.255209 z"
       style="font-size:2.66667px"
       id="path57" />
  </g>
</svg>
