<?xml version="1.0" encoding="UTF-8" standalone="no"?>
<svg
   xmlns:dc="http://purl.org/dc/elements/1.1/"
   xmlns:cc="http://creativecommons.org/ns#"
   xmlns:rdf="http://www.w3.org/1999/02/22-rdf-syntax-ns#"
   xmlns:svg="http://www.w3.org/2000/svg"
   xmlns="http://www.w3.org/2000/svg"
   xmlns:sodipodi="http://sodipodi.sourceforge.net/DTD/sodipodi-0.dtd"
   xmlns:inkscape="http://www.inkscape.org/namespaces/inkscape"
   role="img"
   viewBox="13 268.5 624 250"
   version="1.1"
   id="svg18"
   sodipodi:docname="azure-databricks.svg"
   width="624"
   height="250"
   inkscape:version="1.0.1 (3bc2e813f5, 2020-09-07)">
  <metadata
     id="metadata24">
    <rdf:RDF>
      <cc:Work
         rdf:about="">
        <dc:format>image/svg+xml</dc:format>
        <dc:type
           rdf:resource="http://purl.org/dc/dcmitype/StillImage" />
        <dc:title>Databricks logo</dc:title>
      </cc:Work>
    </rdf:RDF>
  </metadata>
  <defs
     id="defs22" />
  <sodipodi:namedview
     pagecolor="#ffffff"
     bordercolor="#666666"
     borderopacity="1"
     objecttolerance="10"
     gridtolerance="10"
     guidetolerance="10"
     inkscape:pageopacity="0"
     inkscape:pageshadow="2"
     inkscape:window-width="1920"
     inkscape:window-height="1017"
     id="namedview20"
     showgrid="false"
     inkscape:zoom="1.6698718"
     inkscape:cx="312"
     inkscape:cy="57"
     inkscape:window-x="-8"
     inkscape:window-y="-8"
     inkscape:window-maximized="1"
     inkscape:current-layer="svg18"
     inkscape:document-rotation="0" />
  <title
     id="title2">Databricks logo</title>
  <style
     id="style4">svg {enable-background:new 0 0 652 652}</style>
  <style
     id="style6">.st2{fill:#f0562c}</style>
  <path
     fill="#dc2327"
     d="m 250.91121,303.06126 -0.16034,0.16033 v 20.68352 l 21.96622,11.38396 -21.96622,11.38395 v 20.84386 l 59.32483,30.94511 h 6.09282 l 59.32482,-30.94511 v -20.84386 l -21.96622,-11.38395 21.96622,-11.38396 v -20.68352 l -0.16034,-0.16033 -62.21089,-31.90714 z"
     id="path10"
     style="stroke-width:1.60337" />
  <path
     d="m 313.12211,356.4536 -40.40502,-21.16453 -21.96622,11.38395 62.37124,32.54849 62.37123,-32.54849 -21.96622,-11.38395 z"
     class="st2"
     id="path12"
     style="stroke-width:1.60337" />
  <path
     d="m 250.75087,303.22159 62.37124,32.54849 62.37123,-32.54849 -62.37123,-32.06747 z"
     class="st2"
     id="path14"
     style="stroke-width:1.60337" />
  <path
     fill="#444545"
     d="m 127.45988,454.62265 h 0.3 c 0,0 -0.3,-3.4 -0.3,-3.8 v -26.9 h -8.1 v -6.9 h 16.5 v 76.6 h 7.7 v 6.9 h -14.1 l -1.2,-7.8 h -0.4 c 0,0 -5.2,8.6 -17.8,8.6 -13.799995,0 -24.199995,-9.3 -24.199995,-27 0,-17.3 11.2,-26.9 24.299995,-26.9 13.3,0.1 17.3,7.2 17.3,7.2 m 0,31 v -23.5 c -1.5,-2.2 -5.9,-7.5 -15.7,-7.5 -8.4,0 -17.599995,6.2 -17.599995,19.8 0,13.6 8.299995,19.9 17.699995,19.9 6.3,0 12.7,-3 15.6,-8.7 m 59,6.2 c 0,0 -4.6,9.5 -19.9,9.5 -10.8,0 -18,-6.4 -18,-15.1 0,-9.7 9.2,-14.8 23.9,-14.8 h 13.2 v -4.4 c 0,-9 -5.2,-12.8 -14.7,-12.8 -9.1,0 -13.7,4.4 -13.7,10.2 v 1.1 h -7.7 v -2.6 c 0,-7.6 6.7,-15.6 21.6,-15.6 14.1,0 22.9,6.3 22.9,19.9 v 26.2 h 6.3 v 6.9 h -12.5 l -1,-8.7 h -0.4 z m -0.9,-14.3 h -12.7 c -9.2,0 -16.1,2.7 -16.1,8.7 0,5.2 4.8,8.5 11.5,8.5 12.1,0 17.3,-9.1 17.3,-9.1 z m 32.1,-43.2 v 14 h 16.6 v 6.7 h -16.6 v 28.2 c 0,7.4 3.3,11 8.7,11 5.8,0 9.4,-1.7 9.4,-1.7 v 7.1 c 0,0 -4.3,1.8 -10.8,1.8 -10.1,0 -15.8,-5.8 -15.8,-17.7 v -28.7 h -8 v -6.7 h 8 l 1.5,-14 z m 61,57.5 c 0,0 -4.6,9.5 -19.9,9.5 -10.8,0 -18,-6.4 -18,-15.1 0,-9.7 9.2,-14.8 23.9,-14.8 h 13.2 v -4.4 c 0,-9 -5.2,-12.8 -14.7,-12.8 -9.1,0 -13.7,4.4 -13.7,10.2 v 1.1 h -7.7 v -2.6 c 0,-7.6 6.7,-15.6 21.6,-15.6 14.1,0 22.9,6.3 22.9,19.9 v 26.2 h 6.3 v 6.9 h -12.7 l -1,-8.7 h -0.2 z m -0.9,-14.3 h -12.7 c -9.2,0 -16.1,2.7 -16.1,8.7 0,5.2 4.8,8.5 11.5,8.5 12.1,0 17.3,-9.1 17.3,-9.1 z m 30.1,15.2 -1.3,7.8 h -6.4 v -76.6 h -7.7 v -6.9 h 16.1 v 33.8 c 0,0.4 -0.3,3.8 -0.3,3.8 h 0.3 c 0,0 4.7,-7.2 17.5,-7.2 13,0 24.2,9.6 24.2,26.9 0,17.7 -10.4,27 -24.1,27 -12.7,0 -17.9,-8.6 -17.9,-8.6 z m 0.7,-30.7 v 23.5 c 2.8,5.7 9.3,8.7 15.7,8.7 9.3,0 17.6,-6.4 17.6,-19.9 0,-13.7 -9.1,-19.8 -17.5,-19.8 -9.6,0 -14.2,5.2 -15.8,7.5 m 82.6,-6 c -1.2,-0.4 -3.3,-0.8 -5.9,-0.8 -13,0 -15.7,15.5 -15.7,15.5 v 23 h 8.5 v 6.9 h -24.7 v -6.9 h 7.7 v -38.5 h -7.7 v -6.9 h 14.1 l 0.8,13.3 h 0.3 c 0,0 2.6,-14.1 16.8,-14.1 2.4,0 4.4,0.3 5.7,0.6 v 7.9 z m 23.8,37.6 h 7.5 v 6.9 h -23.6 v -6.9 h 7.7 v -38.4 h -7.7 v -6.9 h 16.1 z m -4.6,-54.8 c -3.6,0 -6.5,-2.9 -6.5,-6.7 0,-3.6 2.9,-6.5 6.5,-6.5 3.7,0 6.7,2.9 6.7,6.5 0,3.8 -3,6.7 -6.7,6.7 m 23,35.6 c 0,13.7 8.8,19.9 18.8,19.9 12.2,0 17.1,-5.7 17.1,-5.7 l 2.9,6.1 c 0,0 -5.8,6.7 -20.6,6.7 -15.6,0 -26.6,-9.6 -26.6,-27 0,-18.2 10,-26.9 26,-26.9 16.4,0 22.3,9 22.3,18.7 v 2.8 h -7.7 v -1.7 c 0,-7.8 -4.5,-12.8 -14.7,-12.8 -10.4,0 -17.5,5.3 -17.5,19.9 m 59.4,-4.3 h 13 l 12.5,-15.1 h -6.5 v -6.7 h 23.7 v 6.7 h -8.1 l -15.2,18.5 16,20.4 h 8 v 6.7 h -12.7 l -18.4,-23.9 h -12.3 v 16.9 h 7.5 v 7 h -23.8 v -7 h 7.9 v -69.7 h -7.9 v -6.9 h 16.3 z m 55,13.5 v 1.2 c 0,5.4 4.5,9.6 14,9.6 9.6,0 13.9,-3.1 13.9,-8.3 0,-5.4 -6.9,-7.2 -14.5,-8.5 -9.4,-1.7 -19.9,-4.1 -19.9,-15.5 0,-9 8.5,-14.7 20.2,-14.7 15.5,0 21.2,6.4 21.2,14.3 v 3.8 h -7.8 v -2.3 c 0,-5.6 -3.7,-8.9 -13,-8.9 -6.1,0 -12.2,2.5 -12.2,8 0,6.2 7.4,7.3 15,8.7 9.9,1.9 19.4,4.9 19.4,15.2 0,8.4 -6.3,15.1 -22,15.1 -16.1,0 -22.1,-7.2 -22.1,-14.6 v -3.3 h 7.8 z"
     id="path16" />
</svg>
