<?xml version="1.0" encoding="utf-8"?>
<!-- Generator: Adobe Illustrator 25.0.1, SVG Export Plug-In . SVG Version: 6.00 Build 0)  -->
<svg version="1.1" id="Layer_1" xmlns="http://www.w3.org/2000/svg" xmlns:xlink="http://www.w3.org/1999/xlink" x="0px" y="0px"
	 width="581px" height="360.2px" viewBox="0 0 581 360.2" enable-background="new 0 0 581 360.2" xml:space="preserve">
<g>
	<path opacity="0.3" fill="#00FF74" d="M134.9,173.7c-24-31-39.2-70.4-46.2-91.9C141,39.6,212.1,0,290.5,0
		c35.8,0,70.2,8.2,101.9,21.1c-35.9,0.7-100.9,10.4-156.2,65.2c-81.8,81.2-37.1,139.7-36.4,140.6
		C199.3,226.8,169.5,218.3,134.9,173.7z"/>
	<path opacity="0.3" fill="#00FF74" d="M290,120.2c-0.1,1.3-0.2,2.6-0.2,4c0,27.5,22.3,49.8,49.8,49.8c4.6,0,9.1-0.6,13.4-1.8
		c0.8,4,1.2,8.2,1.2,12.4c0,35.5-28.8,64.3-64.4,64.3c-35.5,0-64.3-28.8-64.3-64.3c0-35.5,28.8-64.3,64.3-64.3H290z"/>
	<path opacity="0.3" fill="#00FF74" d="M393.3,189c0,0,40.2,46.4,13.8,143.7c-35.7,16.5-75.1,27.5-116.6,27.5
		C130.1,360.2,0,194.3,0,180.1c0-6.1,24.2-40.4,64.5-77.5c7.5,29.3,31.8,96.2,104.6,146.3C260.2,311.7,388.8,285.4,393.3,189z"/>
	<path opacity="0.3" fill="#00FF74" d="M581,180.1c0,10.5-55.1,83.6-137.7,133.4C463.5,107.2,300.7,77.7,300.7,77.7
		c58.9-31.8,132.6-24,160.6-19.4C533.8,107.1,581,170.4,581,180.1z"/>
	<linearGradient id="SVGID_1_" gradientUnits="userSpaceOnUse" x1="289.2687" y1="126.4896" x2="290.4357" y2="255.1744">
		<stop  offset="0" style="stop-color:#4EE3FD"/>
		<stop  offset="0.8557" style="stop-color:#2CBEE1"/>
	</linearGradient>
	<path fill="url(#SVGID_1_)" d="M354.1,184.5c0,35.5-28.8,64.3-64.4,64.3c-35.5,0-64.3-28.8-64.3-64.3c0-35.5,28.8-64.3,64.3-64.3
		h0.2c-0.1,1.3-0.2,2.6-0.2,4c0,27.5,22.3,49.8,49.8,49.8c4.6,0,9.1-0.6,13.4-1.8C353.7,176.2,354.1,180.3,354.1,184.5z"/>
	<linearGradient id="SVGID_2_" gradientUnits="userSpaceOnUse" x1="140.9183" y1="186.1574" x2="279.5218" y2="-1.3331">
		<stop  offset="0" style="stop-color:#0078D4"/>
		<stop  offset="1" style="stop-color:#338EE3"/>
	</linearGradient>
	<path fill="url(#SVGID_2_)" d="M236.2,86.3c-81.8,81.2-37.1,139.7-36.4,140.6c-0.5-0.1-30.3-8.6-64.9-53.2
		c-24-31-39.2-70.4-46.2-91.9C141,39.6,212.1,0,290.5,0c35.8,0,70.2,8.2,101.9,21.1C356.5,21.8,291.4,31.4,236.2,86.3z"/>
	<linearGradient id="SVGID_3_" gradientUnits="userSpaceOnUse" x1="77.6129" y1="86.7853" x2="358.0471" y2="339.8408">
		<stop  offset="0" style="stop-color:#4EE3FD"/>
		<stop  offset="1" style="stop-color:#32BEDD"/>
	</linearGradient>
	<path fill="url(#SVGID_3_)" d="M407.1,332.7c-35.7,16.5-75.1,27.5-116.6,27.5C130.1,360.2,0,194.3,0,180.1
		c0-6.1,24.2-40.4,64.5-77.5c7.5,29.3,31.8,96.2,104.6,146.3c91.1,62.8,219.8,36.5,224.2-59.8C393.3,189,433.6,235.4,407.1,332.7z"
		/>
	<linearGradient id="SVGID_4_" gradientUnits="userSpaceOnUse" x1="385.7061" y1="41.9529" x2="533.7202" y2="280.0099">
		<stop  offset="0" style="stop-color:#5EA0EF"/>
		<stop  offset="1" style="stop-color:#006EC2"/>
	</linearGradient>
	<path fill="url(#SVGID_4_)" d="M581,180.1c0,10.5-55.1,83.6-137.7,133.4C463.5,107.2,300.7,77.7,300.7,77.7
		c58.9-31.8,132.6-24,160.6-19.4C533.8,107.1,581,170.4,581,180.1z"/>
</g>
</svg>
