<?xml version="1.0" encoding="UTF-8" standalone="no"?>
<svg
   xmlns:dc="http://purl.org/dc/elements/1.1/"
   xmlns:cc="http://creativecommons.org/ns#"
   xmlns:rdf="http://www.w3.org/1999/02/22-rdf-syntax-ns#"
   xmlns:svg="http://www.w3.org/2000/svg"
   xmlns="http://www.w3.org/2000/svg"
   xmlns:sodipodi="http://sodipodi.sourceforge.net/DTD/sodipodi-0.dtd"
   xmlns:inkscape="http://www.inkscape.org/namespaces/inkscape"
   viewBox="0 0 32 32"
   version="1.1"
   id="svg24"
   sodipodi:docname="biml.svg"
   inkscape:version="1.0.1 (3bc2e813f5, 2020-09-07)">
  <metadata
     id="metadata30">
    <rdf:RDF>
      <cc:Work
         rdf:about="">
        <dc:format>image/svg+xml</dc:format>
        <dc:type
           rdf:resource="http://purl.org/dc/dcmitype/StillImage" />
      </cc:Work>
    </rdf:RDF>
  </metadata>
  <defs
     id="defs28" />
  <sodipodi:namedview
     pagecolor="#ffffff"
     bordercolor="#666666"
     borderopacity="1"
     objecttolerance="10"
     gridtolerance="10"
     guidetolerance="10"
     inkscape:pageopacity="0"
     inkscape:pageshadow="2"
     inkscape:window-width="1920"
     inkscape:window-height="1017"
     id="namedview26"
     showgrid="false"
     inkscape:zoom="26.5625"
     inkscape:cx="16"
     inkscape:cy="23.529412"
     inkscape:window-x="-8"
     inkscape:window-y="-8"
     inkscape:window-maximized="1"
     inkscape:current-layer="svg24" />
  <title
     id="title2">file_type_biml</title>
  <path
     d="m 24.237995,19.557027 a 1.8344447,1.8344447 0 0 0 1.839396,-2.370832 l -0.295426,-1.244419 -1.183353,-4.938064"
     style="fill:#c6093b;stroke-width:0.825211"
     id="path4" />
  <path
     d="m 6.9242357,11.003712 v 0 7.138903 a 2.991391,2.991391 0 0 0 0.1930994,1.072774 c 0.051163,0.118006 0.1023262,0.236011 0.1650423,0.354016 a 2.9121707,2.9121707 0 0 0 0.3606173,0.524009 2.5903383,2.5903383 0 0 0 0.7715726,0.589201 2.1612284,2.1612284 0 0 0 0.9539443,0.223632 H 22.165889 a 2.1612284,2.1612284 0 0 0 0.952294,-0.222807 2.2751076,2.2751076 0 0 0 0.771573,-0.5892 2.0465241,2.0465241 0 0 0 0.347413,-0.52401 1.7824564,1.7824564 0 0 0 0.165043,-0.354015 2.9394027,2.9394027 0 0 0 0.193099,-1.072775 v -7.139728 z"
     style="fill:#d2d2d2;stroke-width:0.825211"
     id="path6" />
  <path
     d="m 24.598612,11.003712 v 0 l 2.572184,-3.5624375 c 0.540513,-0.7426897 -0.08995,-1.34922 -1.376453,-1.3756268"
     style="fill:#c6093b;stroke-width:0.825211"
     id="path8" />
  <path
     d="M 24.598612,11.003712 25.781965,6.0656477 26.077391,4.8212291 A 1.8344447,1.8344447 0 0 0 24.237995,2.450397"
     style="fill:#d2d2d2;stroke-width:0.825211"
     id="path10" />
  <path
     d="M 24.598612,11.003712 V 3.8648092 A 2.991391,2.991391 0 0 0 24.405513,2.7920345 C 24.353524,2.6740293 24.302361,2.556024 24.24047,2.4380188 A 3.7225282,3.7225282 0 0 0 23.893056,1.9140096 2.5903383,2.5903383 0 0 0 23.121484,1.3248088 2.1612284,2.1612284 0 0 0 22.165889,1.1011765 H 9.3553082 A 2.351027,2.351027 0 0 0 8.4030143,1.3107802 2.4558289,2.4558289 0 0 0 7.6314418,1.899981 2.506992,2.506992 0 0 0 7.2716496,2.4239902 1.7824564,1.7824564 0 0 0 7.1066074,2.7780059 2.9427035,2.9427035 0 0 0 6.9135079,3.8507806 v 7.1389024 q 8.8536931,0.02063 17.6851041,0.01403 z"
     style="fill:#c6093b;stroke-width:0.825211"
     id="path12" />
  <path
     d="m 25.781965,15.941776 c 1.298883,-0.02641 1.916141,-0.628811 1.375627,-1.362424 l -2.55898,-3.57564 v 0"
     style="fill:#d2d2d2;stroke-width:0.825211"
     id="path14" />
  <path
     d="M 24.598612,11.003712 23.414434,6.0656477 23.119008,4.8212291 A 3.2381292,3.2381292 0 0 0 20.108637,2.450397 H 7.3871792 a 1.8344447,1.8344447 0 0 0 -1.839396,2.3708321 l 1.6817807,6.1956859"
     style="fill:#d2d2d2;stroke-width:0.825211"
     id="path16" />
  <path
     d="m 24.598612,11.003712 -1.184178,4.938064 -0.295426,1.244419 A 3.2505074,3.2505074 0 0 1 20.108637,19.57023 H 7.3739758 A 1.8344447,1.8344447 0 0 1 5.5345798,17.199398 L 5.8308307,15.95498 h 0.078395 l 1.3203381,-4.938065"
     style="fill:#c6093b;stroke-width:0.825211"
     id="path18" />
  <path
     d="m 24.598612,11.003712 v 0 L 22.040457,7.4412745 A 4.6756473,4.6756473 0 0 0 18.61748,6.0656477 H 5.8308307 C 4.5319481,6.0920545 3.9138648,6.6944588 4.4543782,7.4412745 l 2.5598055,3.5624375 v 0"
     style="fill:#c6093b;stroke-width:0.825211"
     id="path20" />
  <path
     d="m 7.0141837,11.003712 -2.5581551,3.57564 c -0.5405134,0.746817 0.089948,1.349221 1.3764525,1.362424 H 18.61748 a 4.6525414,4.6525414 0 0 0 3.422152,-1.375627 l 2.55898,-3.562437"
     style="fill:#d2d2d2;stroke-width:0.825211"
     id="path22" />
  <g
     aria-label="BimlFlex"
     id="text34"
     style="font-size:5.33333px;line-height:1.25;font-family:sans-serif">
    <path
       d="m 7.4735459,26.553174 q 0,0.289063 -0.109375,0.510417 -0.1093749,0.221354 -0.2942706,0.364583 -0.2187499,0.171875 -0.4817706,0.244791 -0.2604165,0.07292 -0.6640621,0.07292 H 4.5490685 V 23.86828 h 1.1484368 q 0.4244789,0 0.6354163,0.03125 0.2109373,0.03125 0.4036456,0.130208 0.2135415,0.11198 0.3098956,0.289063 0.096354,0.174479 0.096354,0.41927 0,0.276042 -0.1406249,0.471354 -0.1406249,0.192708 -0.3749998,0.309896 v 0.02083 q 0.393229,0.08073 0.6197913,0.346354 0.2265624,0.263021 0.2265624,0.666666 z M 6.6063589,24.80578 q 0,-0.140625 -0.046875,-0.236979 -0.046875,-0.09635 -0.1510415,-0.15625 -0.1223958,-0.07031 -0.2968749,-0.08594 -0.174479,-0.01823 -0.4322914,-0.01823 H 5.0646932 v 1.119791 h 0.6666662 q 0.2421874,0 0.3854165,-0.02344 0.143229,-0.02604 0.2656248,-0.104167 0.1223958,-0.07813 0.1718749,-0.200521 0.052083,-0.125 0.052083,-0.29427 z m 0.330729,1.768228 q 0,-0.234375 -0.070312,-0.372396 -0.070312,-0.138021 -0.2552082,-0.234375 -0.1249999,-0.0651 -0.3046873,-0.08333 -0.1770832,-0.02083 -0.4322914,-0.02083 H 5.0646932 v 1.442707 h 0.6822912 q 0.3385415,0 0.5546872,-0.03385 0.2161457,-0.03646 0.3541664,-0.130208 0.1458333,-0.101563 0.2135416,-0.231771 0.067708,-0.130208 0.067708,-0.335937 z"
       style="font-size:5.33333px"
       id="path36" />
    <path
       d="m 8.6922952,24.350051 h -0.552083 v -0.507812 h 0.552083 z m -0.03125,3.395831 H 8.1714622 V 24.83703 h 0.489583 z"
       style="font-size:5.33333px"
       id="path38" />
    <path
       d="m 13.874584,27.745882 h -0.489583 v -1.656249 q 0,-0.1875 -0.01823,-0.361979 -0.01563,-0.174479 -0.07031,-0.278646 -0.0599,-0.111979 -0.171875,-0.16927 -0.111979,-0.05729 -0.322916,-0.05729 -0.205729,0 -0.411458,0.104167 -0.205729,0.101562 -0.411458,0.260416 0.0078,0.0599 0.01302,0.140625 0.0052,0.07813 0.0052,0.15625 v 1.861978 h -0.489583 v -1.656249 q 0,-0.192708 -0.01823,-0.364583 -0.01563,-0.174479 -0.07031,-0.278646 -0.0599,-0.111979 -0.171875,-0.166666 -0.111979,-0.05729 -0.322916,-0.05729 -0.200521,0 -0.403646,0.09896 -0.200521,0.09896 -0.401041,0.252604 v 2.171874 H 9.6297946 V 24.83703 h 0.4895834 v 0.322916 q 0.229166,-0.190104 0.455729,-0.296875 0.229166,-0.106771 0.486978,-0.106771 0.296875,0 0.502604,0.125 0.208334,0.125 0.309896,0.346354 0.296875,-0.249999 0.541666,-0.359374 0.244792,-0.11198 0.523437,-0.11198 0.479167,0 0.705729,0.291667 0.229167,0.289062 0.229167,0.809895 z"
       style="font-size:5.33333px"
       id="path40" />
    <path
       d="M 15.312083,27.745882 H 14.8225 v -4.052081 h 0.489583 z"
       style="font-size:5.33333px"
       id="path42" />
    <path
       d="m 18.796456,24.326613 h -1.960937 v 1.09375 h 1.684895 v 0.458333 h -1.684895 v 1.867186 H 16.319895 V 23.86828 h 2.476561 z"
       style="font-size:5.33333px"
       id="path44" />
    <path
       d="m 19.840726,27.745882 h -0.489583 v -4.052081 h 0.489583 z"
       style="font-size:5.33333px"
       id="path46" />
    <path
       d="m 23.244369,26.342237 h -2.143228 q 0,0.268229 0.08073,0.46875 0.08073,0.197916 0.221354,0.32552 0.135416,0.125 0.320312,0.1875 0.1875,0.0625 0.411458,0.0625 0.296875,0 0.596354,-0.117187 0.302083,-0.119792 0.429687,-0.234375 h 0.02604 v 0.533854 q -0.247396,0.104166 -0.505208,0.174479 -0.257813,0.07031 -0.541667,0.07031 -0.723958,0 -1.130207,-0.390624 -0.40625,-0.393229 -0.40625,-1.114583 0,-0.713541 0.388021,-1.132812 0.390624,-0.419271 1.026041,-0.419271 0.588541,0 0.906249,0.34375 0.320312,0.34375 0.320312,0.976562 z m -0.476562,-0.375 q -0.0026,-0.385416 -0.195312,-0.596354 -0.190104,-0.210937 -0.580729,-0.210937 -0.393229,0 -0.627604,0.231771 -0.231771,0.23177 -0.263021,0.57552 z"
       style="font-size:5.33333px"
       id="path48" />
    <path
       d="m 26.504785,27.745882 h -0.617187 l -0.825521,-1.117187 -0.830728,1.117187 h -0.570313 l 1.135416,-1.45052 -1.124999,-1.458332 h 0.617187 l 0.820312,1.098957 0.822916,-1.098957 h 0.572917 l -1.143229,1.43229 z"
       style="font-size:5.33333px"
       id="path50" />
  </g>
</svg>
