<?xml version="1.0" encoding="utf-8"?>
<!-- Generator: Adobe Illustrator 25.0.1, SVG Export Plug-In . SVG Version: 6.00 Build 0)  -->
<svg version="1.1" id="图层_1" xmlns="http://www.w3.org/2000/svg" xmlns:xlink="http://www.w3.org/1999/xlink" x="0px" y="0px"
	 width="95.7px" height="22.3px" viewBox="0 0 95.7 22.3" enable-background="new 0 0 95.7 22.3" xml:space="preserve">
<g>
	<path fill="#10C3F4" d="M38.9,22.3H26.2c-4.6,0-6.5-3.9-6.7-6.6l0-0.1v-4.3c0-2.3,1-3.7,1.8-4.5c1.8-1.8,4.4-1.8,5-1.8h6.3l4.2,4.3
		H26.2l-0.1,0c-0.3,0-1.3,0.1-1.8,0.6c-0.1,0.1-0.4,0.4-0.4,1.3v4.2c0.1,0.8,0.4,2.5,2.4,2.5h10.5V0h4.3v20.1
		C41.1,21.3,40.1,22.3,38.9,22.3"/>
	<path fill="#10C3F4" d="M59.6,22.3H49.1c-4.6,0-6.5-3.9-6.7-6.6l0-0.1v-4.3c0-2.3,1-3.7,1.8-4.5C46.1,5.1,48.6,5,49.2,5h12.6
		c1.2,0,2.1,1,2.1,2.2v15H59.6l0-12.9H49.1l-0.1,0c-0.3,0-1.3,0.1-1.8,0.6c-0.1,0.1-0.4,0.4-0.4,1.3v4.2c0.1,0.8,0.4,2.5,2.4,2.5
		h6.1L59.6,22.3z"/>
	<path fill="#10C3F4" d="M91.4,22.3H80.9c-4.6,0-6.5-3.9-6.7-6.6l0-0.1v-4.3c0-2.3,0.9-3.7,1.8-4.5C77.9,5.1,80.4,5,81,5h12.6
		c1.2,0,2.2,1,2.2,2.2v15H91.4l0-12.9H80.9l-0.1,0c-0.3,0-1.3,0.1-1.9,0.6c-0.1,0.1-0.4,0.4-0.4,1.3v4.2c0.1,0.8,0.4,2.5,2.4,2.5
		h6.2L91.4,22.3z"/>
	<path fill="#10C3F4" d="M72,18h-0.6c-1,0-1.3-0.4-1.4-0.5c-0.5-0.5-0.5-1.5-0.5-1.7l0-0.1V7.3h3V3h-3V0h-4.3v15.5
		c0,0.5,0,3,1.7,4.8c0.8,0.8,2.2,1.9,4.5,1.9h4.9L72,18z"/>
	<path fill="#333332" d="M21.4,22.3H6.7c-4.6,0-6.5-3.9-6.7-6.6l0-0.1v-4.3C0,9,1,7.6,1.8,6.8C3.6,5.1,6.2,5,6.7,5h14.6L17,9.4H6.7
		l-0.1,0c-0.3,0-1.3,0.1-1.8,0.6c-0.1,0.1-0.4,0.4-0.4,1.3v4.2C4.4,16.3,4.7,18,6.7,18H17L21.4,22.3z"/>
	<polygon fill="#10C3F4" points="12.7,13.7 17,18 17,13.7 17,9.3 	"/>
</g>
</svg>
