<?xml version="1.0" encoding="utf-8"?>
<!-- Generator: Adobe Illustrator 25.0.1, SVG Export Plug-In . SVG Version: 6.00 Build 0)  -->
<svg version="1.1" id="Layer_1" xmlns="http://www.w3.org/2000/svg" xmlns:xlink="http://www.w3.org/1999/xlink" x="0px" y="0px"
	 width="1199.9px" height="383.7px" viewBox="0 0 1199.9 383.7" enable-background="new 0 0 1199.9 383.7" xml:space="preserve">
<path fill="#1B3C4F" d="M487.6,130.6c0,0,0.4,2.7-1.5,10.4s-2.8,9-2.8,9s-14.2-5.2-29.1-5.2s-42.8,6.4-42.8,52.1
	s32.2,49.1,43.1,49.1c21.8,0,29.2-4.5,29.2-4.5s1.2,0.3,3.5,9.4c2.2,9.1,1.7,9.5,1.7,9.5s-10.2,6.2-38.8,6.2s-63.7-15.9-63.7-69
	c0-45.6,24.2-72.4,67.5-72.4C477.8,125.4,487.6,130.6,487.6,130.6z"/>
<path fill="#1B3C4F" d="M514,78.3c0,0,0.8-0.8,11.6-0.8s12.4,0.8,12.4,0.8s0,141.4,0,152.4s7.5,16.7,14.6,16.7
	c11.7,0,13.1-0.2,13.1-0.2s0.8,0.5,1.5,8.5s0.4,8.5,0.4,8.5s0.2,2.4-17.2,2.4c-17.2,0-36.4-6.9-36.4-34.5V78.3z"/>
<path fill="#1B3C4F" d="M586.4,127.6c0,0,0.1-0.8,12.1-0.8c12.1,0,12.1,0.8,12.1,0.8s0,57.6,0,82.3c0,30,17.6,36,32.4,36
	c23.8,0,30-2.4,30-2.4V127.6c0,0,1-0.8,11.6-0.8s12.2,0.8,12.2,0.8v130.9c0,0-19.1,8.2-50.1,8.2c-36.8,0-60.4-15.4-60.4-57.8
	S586.4,127.6,586.4,127.6z"/>
<path fill="#1B3C4F" d="M843.3,200.8c2.2-25.3-0.9-75.9-57.6-75.9c-39,0-62.1,30.1-62.1,71c0,30.8,13.9,71,67.7,71
	c27.7,0,43.9-7.1,43.9-7.1s0.4-0.8-1.3-9.4s-2.7-9.9-2.7-9.9s-9,5.4-44.1,5.4c-38.2,0-36.9-45-36.9-45H843.3z M785.7,144.3
	c35.8,0,34.3,39,34.3,39h-69.6C750.5,183.3,753.1,144.3,785.7,144.3z"/>
<path fill="#1B3C4F" d="M959.5,78.3v51.8c0,0-8.7-4.4-29-4.4s-65.7,12.6-65.7,71.4s42,69.6,67.1,69.6s51.7-7.3,51.7-7.3V78.3
	c0,0-4.1-0.8-11.9-0.8S959.5,78.3,959.5,78.3z M959.5,243.1c0,0-7.3,4.7-26.2,3.4c-17.8-1.2-42.6-6.1-42.6-49.1
	c0-45.6,30.9-53.1,44.6-52.2c20.8,1.3,24.1,5.1,24.1,5.1V243.1z"/>
<path fill="#1B3C4F" d="M1009.5,131h43.2v135.1c0,0-0.2,0.8-12.6,0.8s-13.1-0.8-13.1-0.8V151.2h-17.4c0,0-0.5-0.6-0.5-10.1
	S1009.5,131,1009.5,131z"/>
<path fill="#1B3C4F" d="M1050.3,106.1c0,0-1.1,0.5-14.6,0.5s-14.8-0.5-14.8-0.5s-0.5-1.5-0.5-14s0.5-13.1,0.5-13.1s0.6-0.6,14.8-0.6
	s14.6,0.6,14.6,0.6s0.4,2.6,0.4,14S1050.3,106.1,1050.3,106.1z"/>
<path fill="#1B3C4F" d="M1087.9,130c0,0,0.4-0.7,10.1-0.7s10.1,0.7,10.1,0.7s2.3,14.8,1.7,25.9c0,0,12.9-28.3,45.5-28.3
	s44.5,21,44.5,48.2s0,90.3,0,90.3s-1.5,0.8-12.3,0.8c-10.9,0-12.2-0.8-12.2-0.8s0-75.4,0-87.9s-5.5-29.7-26.7-29.7
	c-23.6,0-37,23.3-37,44.3s0,73.3,0,73.3s-1.4,0.8-11.8,0.8s-12-0.8-12-0.8V130z"/>
<linearGradient id="SVGID_1_" gradientUnits="userSpaceOnUse" x1="79.397" y1="361.9436" x2="290.5135" y2="34.0786">
	<stop  offset="0" style="stop-color:#243D75"/>
	<stop  offset="0.4353" style="stop-color:#0FA0A3"/>
	<stop  offset="1" style="stop-color:#11ABAB"/>
</linearGradient>
<path fill="url(#SVGID_1_)" d="M325.5,329.4C325.5,329.4,325.5,329.3,325.5,329.4c0.2-0.2,0.3-0.4,0.5-0.6c0,0,0,0,0,0
	c0.1-0.2,0.3-0.4,0.4-0.7c0,0,0,0,0,0c0.1-0.2,0.2-0.5,0.3-0.7c0,0,0,0,0,0c0.1-0.2,0.2-0.5,0.3-0.7c0,0,0,0,0-0.1
	c0.1-0.2,0.1-0.4,0.2-0.7c0,0,0-0.1,0-0.1c0-0.2,0.1-0.4,0.1-0.6c0-0.1,0-0.1,0-0.2c0-0.2,0-0.4,0-0.6c0,0,0-0.1,0-0.1
	c0,0,0-0.1,0-0.1c0-0.2,0-0.4,0-0.5c0-0.1,0-0.2,0-0.3c0-0.2,0-0.3-0.1-0.5c0-0.1,0-0.2,0-0.3c0-0.2-0.1-0.4-0.1-0.5
	c0-0.1,0-0.1-0.1-0.2c-0.1-0.2-0.1-0.4-0.2-0.6c0-0.1,0-0.1-0.1-0.2c-0.1-0.2-0.2-0.4-0.3-0.6c0,0,0-0.1-0.1-0.1
	c-0.1-0.2-0.2-0.4-0.3-0.6c0,0,0-0.1-0.1-0.1c-0.1-0.2-0.2-0.3-0.3-0.5c0-0.1-0.1-0.1-0.1-0.2c-0.1-0.1-0.2-0.2-0.3-0.3
	c-0.1-0.1-0.1-0.2-0.2-0.3l-31.1-31.1l-30.6-30.6c-0.1-0.1-0.2-0.2-0.3-0.3c-0.1-0.1-0.2-0.2-0.3-0.2c-0.1-0.1-0.2-0.2-0.3-0.2
	c-0.1-0.1-0.2-0.2-0.3-0.2c-0.1-0.1-0.2-0.1-0.3-0.2c-0.1-0.1-0.2-0.1-0.3-0.2c-0.1-0.1-0.2-0.1-0.4-0.2c-0.1-0.1-0.2-0.1-0.3-0.2
	c-0.1-0.1-0.2-0.1-0.4-0.1c-0.1,0-0.2-0.1-0.4-0.1c-0.1,0-0.2-0.1-0.4-0.1c-0.1,0-0.2-0.1-0.4-0.1c-0.1,0-0.2,0-0.4-0.1
	c-0.1,0-0.3,0-0.4-0.1c-0.1,0-0.2,0-0.4,0c-0.1,0-0.3,0-0.4,0c-0.1,0-0.2,0-0.4,0c-0.1,0-0.3,0-0.4,0c-0.1,0-0.2,0-0.4,0
	c-0.1,0-0.3,0-0.4,0.1c-0.1,0-0.2,0.1-0.4,0.1c-0.1,0-0.2,0.1-0.4,0.1c-0.1,0-0.2,0.1-0.4,0.1c-0.1,0-0.2,0.1-0.4,0.1
	c-0.1,0-0.2,0.1-0.4,0.2c-0.1,0.1-0.2,0.1-0.3,0.2c-0.1,0.1-0.2,0.1-0.4,0.2c-0.1,0.1-0.2,0.1-0.3,0.2c-0.1,0.1-0.2,0.2-0.3,0.2
	c-0.1,0.1-0.2,0.1-0.3,0.2c-0.1,0.1-0.2,0.2-0.3,0.3c-0.1,0.1-0.1,0.1-0.2,0.2c-1,0.9-2.1,1.9-3.1,2.8
	c-15.9,13.4-35.9,20.7-56.8,20.7c-48.6,0-88.2-39.6-88.2-88.2c0-48.6,39.6-88.2,88.2-88.2c21.8,0,42.7,8,58.9,22.6
	c0,0,0.1,0.1,0.1,0.1c0.1,0.1,0.2,0.2,0.3,0.3c0.1,0.1,0.2,0.1,0.3,0.2c0.1,0.1,0.2,0.2,0.3,0.2c0.1,0.1,0.2,0.1,0.3,0.2
	c0.1,0.1,0.2,0.1,0.4,0.2c0.1,0.1,0.2,0.1,0.3,0.2c0.1,0.1,0.2,0.1,0.4,0.2c0.1,0,0.2,0.1,0.4,0.1c0.1,0,0.2,0.1,0.4,0.1
	c0.1,0,0.2,0.1,0.4,0.1c0.1,0,0.2,0.1,0.4,0.1c0.1,0,0.3,0,0.4,0.1c0.1,0,0.2,0,0.4,0c0.1,0,0.3,0,0.4,0c0.1,0,0.2,0,0.3,0
	c0,0,0.1,0,0.1,0c0.1,0,0.2,0,0.4,0c0.1,0,0.3,0,0.4,0c0.1,0,0.2,0,0.4-0.1c0.1,0,0.3,0,0.4-0.1c0.1,0,0.2-0.1,0.3-0.1
	c0.1,0,0.3-0.1,0.4-0.1c0.1,0,0.2-0.1,0.3-0.1c0.1,0,0.3-0.1,0.4-0.1c0.1,0,0.2-0.1,0.3-0.2c0.1-0.1,0.2-0.1,0.4-0.2
	c0.1-0.1,0.2-0.1,0.3-0.2c0.1-0.1,0.2-0.1,0.3-0.2c0.1-0.1,0.3-0.2,0.4-0.3c0.1-0.1,0.2-0.1,0.2-0.2c0.2-0.2,0.4-0.3,0.6-0.5
	l31.6-31.6c0,0,0,0,0,0L324,64.2c0.2-0.2,0.4-0.4,0.5-0.6c0.9-1.1,1.4-2.3,1.7-3.6c0,0,0-0.1,0-0.1c0-0.2,0.1-0.4,0.1-0.6
	c0-0.1,0-0.2,0-0.3c0-0.2,0-0.4,0-0.5c0,0,0,0,0,0c0-0.1,0-0.2,0-0.2c0-0.2,0-0.3,0-0.5c0-0.1,0-0.2,0-0.3c0-0.2,0-0.3-0.1-0.5
	c0-0.1,0-0.2-0.1-0.3c0-0.2-0.1-0.3-0.1-0.5c0-0.1-0.1-0.2-0.1-0.3c-0.1-0.2-0.1-0.3-0.2-0.5c0-0.1-0.1-0.2-0.1-0.2
	c-0.1-0.2-0.1-0.3-0.2-0.5c0-0.1-0.1-0.2-0.1-0.2c-0.1-0.1-0.2-0.3-0.3-0.4c-0.1-0.1-0.1-0.2-0.2-0.3c-0.1-0.1-0.2-0.2-0.3-0.4
	c-0.1-0.1-0.2-0.2-0.3-0.3c-0.1-0.1-0.1-0.2-0.2-0.2c0,0-0.1,0-0.1-0.1c0,0,0,0-0.1-0.1C288.1,18.7,241.2,0,191.8,0
	c-43.6,0-86.2,15-120.1,42.3C38.3,69.1,14.6,106.7,5,148.2c0,0,0,0.1,0,0.1c0,0.2-0.1,0.4-0.1,0.6c0,0.1,0,0.2,0,0.2
	c0,0.2,0,0.5,0,0.7c0,0,0,0.1,0,0.1c0,0,0,0,0,0c0,0.3,0,0.6,0,0.9c0,0.1,0,0.1,0,0.2c0,0.2,0.1,0.5,0.1,0.7c0,0.1,0,0.1,0.1,0.2
	c0.1,0.2,0.1,0.4,0.2,0.6c0,0.1,0.1,0.2,0.1,0.2c0.1,0.2,0.1,0.4,0.2,0.5c0,0.1,0.1,0.2,0.1,0.3c0.1,0.2,0.2,0.3,0.3,0.5
	c0.1,0.1,0.1,0.2,0.2,0.3c0.1,0.2,0.2,0.3,0.3,0.5c0,0.1,0.1,0.1,0.1,0.2c0,0,0,0,0,0.1c0.2,0.2,0.3,0.4,0.5,0.6c0,0,0,0,0,0
	c0.2,0.2,0.4,0.4,0.6,0.6c0.1,0.1,0.1,0.1,0.2,0.2c0.2,0.1,0.3,0.2,0.5,0.3c0.1,0.1,0.2,0.1,0.2,0.1c0.2,0.1,0.3,0.2,0.5,0.3
	c0.1,0,0.2,0.1,0.2,0.1c0.2,0.1,0.4,0.2,0.6,0.2c0.1,0,0.2,0.1,0.2,0.1c0.2,0.1,0.4,0.1,0.6,0.2c0.1,0,0.2,0,0.2,0.1
	c0.2,0,0.4,0.1,0.6,0.1c0.1,0,0.1,0,0.2,0c0.3,0,0.6,0,0.9,0H57c0.5,0,1.1-0.1,1.6-0.2c0.2,0,0.3-0.1,0.5-0.1c0.1,0,0.2,0,0.3-0.1
	c0.2-0.1,0.4-0.1,0.5-0.2c0.1,0,0.1,0,0.2-0.1c0.2-0.1,0.3-0.2,0.5-0.2c0.1,0,0.1-0.1,0.2-0.1c0.1-0.1,0.3-0.2,0.4-0.2
	c0.1-0.1,0.2-0.1,0.3-0.2c0.1-0.1,0.2-0.2,0.3-0.2c0.1-0.1,0.2-0.2,0.3-0.2c0.1-0.1,0.1-0.1,0.2-0.2c0.1-0.1,0.2-0.2,0.4-0.3
	c0.1-0.1,0.1-0.1,0.1-0.2c0.1-0.1,0.3-0.3,0.4-0.4c0,0,0.1-0.1,0.1-0.2c0.1-0.2,0.2-0.3,0.3-0.5c0.1-0.1,0.1-0.2,0.2-0.2
	c0.1-0.1,0.2-0.3,0.2-0.4c0.3-0.5,0.5-1,0.6-1.5c17.4-56,68.5-93.7,127.2-93.7c31.1,0,60.8,10.7,84.6,30.4l-20.4,20.4
	c-18.2-14.1-40.5-21.8-63.8-21.8c-54.8,0-99.8,42.5-103.9,96.2H8c-4.4,0-8,3.6-8,8s3.6,8,8,8h80.5c4.1,53.7,49.1,96.2,103.9,96.2
	c23.7,0,46.5-8,64.9-22.7l20.3,20.4c-24,20.2-54.1,31.3-85.8,31.3c-58.7,0-109.8-37.6-127.2-93.7c-0.2-0.5-0.4-1-0.6-1.5
	c-0.1-0.1-0.1-0.2-0.2-0.4c-0.1-0.1-0.1-0.2-0.2-0.3c-0.1-0.2-0.2-0.3-0.3-0.4c0-0.1-0.1-0.1-0.1-0.2c-0.1-0.1-0.2-0.3-0.4-0.4
	c-0.1-0.1-0.1-0.1-0.2-0.2c-0.1-0.1-0.2-0.2-0.4-0.3c-0.1-0.1-0.1-0.1-0.2-0.2c-0.1-0.1-0.2-0.2-0.3-0.3c-0.1-0.1-0.2-0.1-0.3-0.2
	c-0.1-0.1-0.2-0.1-0.3-0.2c-0.1-0.1-0.2-0.1-0.4-0.2c-0.1,0-0.2-0.1-0.3-0.1c-0.1-0.1-0.3-0.1-0.4-0.2c-0.1,0-0.2-0.1-0.3-0.1
	c-0.1,0-0.3-0.1-0.4-0.1c-0.2-0.1-0.3-0.1-0.5-0.1c-0.1,0-0.2,0-0.2-0.1c-0.5-0.1-1.1-0.2-1.7-0.2H12.8c-0.3,0-0.6,0-0.9,0
	c-0.1,0-0.1,0-0.2,0c-0.2,0-0.4,0.1-0.6,0.1c-0.1,0-0.2,0-0.2,0.1c-0.2,0.1-0.4,0.1-0.6,0.2c-0.1,0-0.2,0.1-0.2,0.1
	c-0.2,0.1-0.4,0.1-0.6,0.2c-0.1,0-0.2,0.1-0.2,0.1c-0.2,0.1-0.3,0.2-0.5,0.3c-0.1,0-0.2,0.1-0.2,0.1c-0.2,0.1-0.3,0.2-0.5,0.4
	c-0.1,0-0.1,0.1-0.2,0.1c-0.2,0.2-0.4,0.4-0.6,0.6c0,0,0,0,0,0c-0.2,0.2-0.4,0.4-0.6,0.6c0,0,0,0,0,0c0,0-0.1,0.1-0.1,0.1
	c-0.1,0.2-0.2,0.3-0.4,0.5c0,0.1-0.1,0.2-0.1,0.2c-0.1,0.2-0.2,0.3-0.3,0.5c0,0.1-0.1,0.2-0.1,0.2c-0.1,0.2-0.2,0.4-0.2,0.6
	c0,0.1-0.1,0.1-0.1,0.2c-0.1,0.2-0.1,0.4-0.2,0.6c0,0.1,0,0.1-0.1,0.2c-0.1,0.2-0.1,0.5-0.1,0.7c0,0.1,0,0.1,0,0.2
	c0,0.3,0,0.6,0,0.9c0,0,0,0,0,0c0,0,0,0.1,0,0.1c0,0.3,0,0.5,0,0.8c0,0.1,0,0.1,0,0.2c0,0.2,0.1,0.4,0.1,0.6c0,0,0,0,0,0.1
	c9.6,41.5,33.3,79.1,66.7,105.9c33.9,27.3,76.6,42.3,120.1,42.3c49.8,0,97-19,132.8-53.5c0.1-0.1,0.1-0.1,0.2-0.2
	c0,0,0.1-0.1,0.1-0.1c0,0,0,0,0.1-0.1c0.1-0.1,0.2-0.2,0.3-0.3C325.4,329.5,325.5,329.4,325.5,329.4z M191.8,42.7
	c-32.5,0-63.4,10.3-89.3,29.7C79.1,90,61,114.5,51.2,142H23.1C45,67.3,113,16,191.8,16c42.5,0,83,15.1,115,42.8l-19,18.9
	C261,55.1,227.2,42.7,191.8,42.7z M191.8,367.7c-78.8,0-146.8-51.3-168.7-126h28.1c9.8,27.5,27.8,52.1,51.3,69.6
	c25.9,19.4,56.8,29.7,89.3,29.7c35.9,0,70.1-12.7,97.1-36l18.9,18.9C275.8,352.2,234.9,367.7,191.8,367.7z"/>
</svg>
