<?xml version="1.0" encoding="UTF-8" standalone="no"?>
<svg
   xmlns:dc="http://purl.org/dc/elements/1.1/"
   xmlns:cc="http://creativecommons.org/ns#"
   xmlns:rdf="http://www.w3.org/1999/02/22-rdf-syntax-ns#"
   xmlns:svg="http://www.w3.org/2000/svg"
   xmlns="http://www.w3.org/2000/svg"
   xmlns:sodipodi="http://sodipodi.sourceforge.net/DTD/sodipodi-0.dtd"
   xmlns:inkscape="http://www.inkscape.org/namespaces/inkscape"
   version="1.1"
   id="Layer_1"
   x="0px"
   y="0px"
   width="1199.9"
   height="583.70001"
   viewBox="0 0 1199.9 583.7"
   enable-background="new 0 0 1199.9 383.7"
   xml:space="preserve"
   sodipodi:docname="cluedin-dq.svg"
   inkscape:version="1.0.1 (3bc2e813f5, 2020-09-07)"><metadata
   id="metadata32"><rdf:RDF><cc:Work
       rdf:about=""><dc:format>image/svg+xml</dc:format><dc:type
         rdf:resource="http://purl.org/dc/dcmitype/StillImage" /><dc:title /></cc:Work></rdf:RDF></metadata><defs
   id="defs30" /><sodipodi:namedview
   pagecolor="#ffffff"
   bordercolor="#666666"
   borderopacity="1"
   objecttolerance="10"
   gridtolerance="10"
   guidetolerance="10"
   inkscape:pageopacity="0"
   inkscape:pageshadow="2"
   inkscape:window-width="1920"
   inkscape:window-height="1017"
   id="namedview28"
   showgrid="false"
   inkscape:zoom="0.86840568"
   inkscape:cx="599.95001"
   inkscape:cy="191.85001"
   inkscape:window-x="-8"
   inkscape:window-y="-8"
   inkscape:window-maximized="1"
   inkscape:current-layer="Layer_1"
   inkscape:document-rotation="0" />
<path
   fill="#1b3c4f"
   d="m 487.6,130.6 c 0,0 0.4,2.7 -1.5,10.4 -1.9,7.7 -2.8,9 -2.8,9 0,0 -14.2,-5.2 -29.1,-5.2 -14.9,0 -42.8,6.4 -42.8,52.1 0,45.7 32.2,49.1 43.1,49.1 21.8,0 29.2,-4.5 29.2,-4.5 0,0 1.2,0.3 3.5,9.4 2.2,9.1 1.7,9.5 1.7,9.5 0,0 -10.2,6.2 -38.8,6.2 -28.6,0 -63.7,-15.9 -63.7,-69 0,-45.6 24.2,-72.4 67.5,-72.4 23.9,0.2 33.7,5.4 33.7,5.4 z"
   id="path2" />
<path
   fill="#1b3c4f"
   d="m 514,78.3 c 0,0 0.8,-0.8 11.6,-0.8 10.8,0 12.4,0.8 12.4,0.8 0,0 0,141.4 0,152.4 0,11 7.5,16.7 14.6,16.7 11.7,0 13.1,-0.2 13.1,-0.2 0,0 0.8,0.5 1.5,8.5 0.7,8 0.4,8.5 0.4,8.5 0,0 0.2,2.4 -17.2,2.4 -17.2,0 -36.4,-6.9 -36.4,-34.5 z"
   id="path4" />
<path
   fill="#1b3c4f"
   d="m 586.4,127.6 c 0,0 0.1,-0.8 12.1,-0.8 12.1,0 12.1,0.8 12.1,0.8 0,0 0,57.6 0,82.3 0,30 17.6,36 32.4,36 23.8,0 30,-2.4 30,-2.4 V 127.6 c 0,0 1,-0.8 11.6,-0.8 10.6,0 12.2,0.8 12.2,0.8 v 130.9 c 0,0 -19.1,8.2 -50.1,8.2 -36.8,0 -60.4,-15.4 -60.4,-57.8 0,-42.4 0.1,-81.3 0.1,-81.3 z"
   id="path6" />
<path
   fill="#1b3c4f"
   d="m 843.3,200.8 c 2.2,-25.3 -0.9,-75.9 -57.6,-75.9 -39,0 -62.1,30.1 -62.1,71 0,30.8 13.9,71 67.7,71 27.7,0 43.9,-7.1 43.9,-7.1 0,0 0.4,-0.8 -1.3,-9.4 -1.7,-8.6 -2.7,-9.9 -2.7,-9.9 0,0 -9,5.4 -44.1,5.4 -38.2,0 -36.9,-45 -36.9,-45 h 93.1 z m -57.6,-56.5 c 35.8,0 34.3,39 34.3,39 h -69.6 c 0.1,0 2.7,-39 35.3,-39 z"
   id="path8" />
<path
   fill="#1b3c4f"
   d="m 959.5,78.3 v 51.8 c 0,0 -8.7,-4.4 -29,-4.4 -20.3,0 -65.7,12.6 -65.7,71.4 0,58.8 42,69.6 67.1,69.6 25.1,0 51.7,-7.3 51.7,-7.3 V 78.3 c 0,0 -4.1,-0.8 -11.9,-0.8 -7.8,0 -12.2,0.8 -12.2,0.8 z m 0,164.8 c 0,0 -7.3,4.7 -26.2,3.4 -17.8,-1.2 -42.6,-6.1 -42.6,-49.1 0,-45.6 30.9,-53.1 44.6,-52.2 20.8,1.3 24.1,5.1 24.1,5.1 v 92.8 z"
   id="path10" />
<path
   fill="#1b3c4f"
   d="m 1009.5,131 h 43.2 v 135.1 c 0,0 -0.2,0.8 -12.6,0.8 -12.4,0 -13.1,-0.8 -13.1,-0.8 V 151.2 h -17.4 c 0,0 -0.5,-0.6 -0.5,-10.1 0,-9.5 0.4,-10.1 0.4,-10.1 z"
   id="path12" />
<path
   fill="#1b3c4f"
   d="m 1050.3,106.1 c 0,0 -1.1,0.5 -14.6,0.5 -13.5,0 -14.8,-0.5 -14.8,-0.5 0,0 -0.5,-1.5 -0.5,-14 0,-12.5 0.5,-13.1 0.5,-13.1 0,0 0.6,-0.6 14.8,-0.6 14.2,0 14.6,0.6 14.6,0.6 0,0 0.4,2.6 0.4,14 0,11.4 -0.4,13.1 -0.4,13.1 z"
   id="path14" />
<path
   fill="#1b3c4f"
   d="m 1087.9,130 c 0,0 0.4,-0.7 10.1,-0.7 9.7,0 10.1,0.7 10.1,0.7 0,0 2.3,14.8 1.7,25.9 0,0 12.9,-28.3 45.5,-28.3 32.6,0 44.5,21 44.5,48.2 0,27.2 0,90.3 0,90.3 0,0 -1.5,0.8 -12.3,0.8 -10.9,0 -12.2,-0.8 -12.2,-0.8 0,0 0,-75.4 0,-87.9 0,-12.5 -5.5,-29.7 -26.7,-29.7 -23.6,0 -37,23.3 -37,44.3 0,21 0,73.3 0,73.3 0,0 -1.4,0.8 -11.8,0.8 -10.4,0 -12,-0.8 -12,-0.8 V 130 Z"
   id="path16" />
<linearGradient
   id="SVGID_1_"
   gradientUnits="userSpaceOnUse"
   x1="79.397003"
   y1="361.9436"
   x2="290.51349"
   y2="34.078602">
	<stop
   offset="0"
   style="stop-color:#243D75"
   id="stop18" />
	<stop
   offset="0.4353"
   style="stop-color:#0FA0A3"
   id="stop20" />
	<stop
   offset="1"
   style="stop-color:#11ABAB"
   id="stop22" />
</linearGradient>
<path
   fill="url(#SVGID_1_)"
   d="m 325.5,329.4 c 0,0 0,-0.1 0,0 0.2,-0.2 0.3,-0.4 0.5,-0.6 0,0 0,0 0,0 0.1,-0.2 0.3,-0.4 0.4,-0.7 0,0 0,0 0,0 0.1,-0.2 0.2,-0.5 0.3,-0.7 0,0 0,0 0,0 0.1,-0.2 0.2,-0.5 0.3,-0.7 0,0 0,0 0,-0.1 0.1,-0.2 0.1,-0.4 0.2,-0.7 0,0 0,-0.1 0,-0.1 0,-0.2 0.1,-0.4 0.1,-0.6 0,-0.1 0,-0.1 0,-0.2 0,-0.2 0,-0.4 0,-0.6 0,0 0,-0.1 0,-0.1 0,0 0,-0.1 0,-0.1 0,-0.2 0,-0.4 0,-0.5 0,-0.1 0,-0.2 0,-0.3 0,-0.2 0,-0.3 -0.1,-0.5 0,-0.1 0,-0.2 0,-0.3 0,-0.2 -0.1,-0.4 -0.1,-0.5 0,-0.1 0,-0.1 -0.1,-0.2 -0.1,-0.2 -0.1,-0.4 -0.2,-0.6 0,-0.1 0,-0.1 -0.1,-0.2 -0.1,-0.2 -0.2,-0.4 -0.3,-0.6 0,0 0,-0.1 -0.1,-0.1 -0.1,-0.2 -0.2,-0.4 -0.3,-0.6 0,0 0,-0.1 -0.1,-0.1 -0.1,-0.2 -0.2,-0.3 -0.3,-0.5 0,-0.1 -0.1,-0.1 -0.1,-0.2 -0.1,-0.1 -0.2,-0.2 -0.3,-0.3 -0.1,-0.1 -0.1,-0.2 -0.2,-0.3 l -31.1,-31.1 -30.6,-30.6 c -0.1,-0.1 -0.2,-0.2 -0.3,-0.3 -0.1,-0.1 -0.2,-0.2 -0.3,-0.2 -0.1,-0.1 -0.2,-0.2 -0.3,-0.2 -0.1,-0.1 -0.2,-0.2 -0.3,-0.2 -0.1,-0.1 -0.2,-0.1 -0.3,-0.2 -0.1,-0.1 -0.2,-0.1 -0.3,-0.2 -0.1,-0.1 -0.2,-0.1 -0.4,-0.2 -0.1,-0.1 -0.2,-0.1 -0.3,-0.2 -0.1,-0.1 -0.2,-0.1 -0.4,-0.1 -0.1,0 -0.2,-0.1 -0.4,-0.1 -0.1,0 -0.2,-0.1 -0.4,-0.1 -0.1,0 -0.2,-0.1 -0.4,-0.1 -0.1,0 -0.2,0 -0.4,-0.1 -0.1,0 -0.3,0 -0.4,-0.1 -0.1,0 -0.2,0 -0.4,0 -0.1,0 -0.3,0 -0.4,0 -0.1,0 -0.2,0 -0.4,0 -0.1,0 -0.3,0 -0.4,0 -0.1,0 -0.2,0 -0.4,0 -0.1,0 -0.3,0 -0.4,0.1 -0.1,0 -0.2,0.1 -0.4,0.1 -0.1,0 -0.2,0.1 -0.4,0.1 -0.1,0 -0.2,0.1 -0.4,0.1 -0.1,0 -0.2,0.1 -0.4,0.1 -0.1,0 -0.2,0.1 -0.4,0.2 -0.1,0.1 -0.2,0.1 -0.3,0.2 -0.1,0.1 -0.2,0.1 -0.4,0.2 -0.1,0.1 -0.2,0.1 -0.3,0.2 -0.1,0.1 -0.2,0.2 -0.3,0.2 -0.1,0.1 -0.2,0.1 -0.3,0.2 -0.1,0.1 -0.2,0.2 -0.3,0.3 -0.1,0.1 -0.1,0.1 -0.2,0.2 -1,0.9 -2.1,1.9 -3.1,2.8 -15.9,13.4 -35.9,20.7 -56.8,20.7 -48.6,0 -88.2,-39.6 -88.2,-88.2 0,-48.6 39.6,-88.2 88.2,-88.2 21.8,0 42.7,8 58.9,22.6 0,0 0.1,0.1 0.1,0.1 0.1,0.1 0.2,0.2 0.3,0.3 0.1,0.1 0.2,0.1 0.3,0.2 0.1,0.1 0.2,0.2 0.3,0.2 0.1,0.1 0.2,0.1 0.3,0.2 0.1,0.1 0.2,0.1 0.4,0.2 0.1,0.1 0.2,0.1 0.3,0.2 0.1,0.1 0.2,0.1 0.4,0.2 0.1,0 0.2,0.1 0.4,0.1 0.1,0 0.2,0.1 0.4,0.1 0.1,0 0.2,0.1 0.4,0.1 0.1,0 0.2,0.1 0.4,0.1 0.1,0 0.3,0 0.4,0.1 0.1,0 0.2,0 0.4,0 0.1,0 0.3,0 0.4,0 0.1,0 0.2,0 0.3,0 0,0 0.1,0 0.1,0 0.1,0 0.2,0 0.4,0 0.1,0 0.3,0 0.4,0 0.1,0 0.2,0 0.4,-0.1 0.1,0 0.3,0 0.4,-0.1 0.1,0 0.2,-0.1 0.3,-0.1 0.1,0 0.3,-0.1 0.4,-0.1 0.1,0 0.2,-0.1 0.3,-0.1 0.1,0 0.3,-0.1 0.4,-0.1 0.1,0 0.2,-0.1 0.3,-0.2 0.1,-0.1 0.2,-0.1 0.4,-0.2 0.1,-0.1 0.2,-0.1 0.3,-0.2 0.1,-0.1 0.2,-0.1 0.3,-0.2 0.1,-0.1 0.3,-0.2 0.4,-0.3 0.1,-0.1 0.2,-0.1 0.2,-0.2 0.2,-0.2 0.4,-0.3 0.6,-0.5 l 31.6,-31.6 c 0,0 0,0 0,0 L 324,64.2 c 0.2,-0.2 0.4,-0.4 0.5,-0.6 0.9,-1.1 1.4,-2.3 1.7,-3.6 0,0 0,-0.1 0,-0.1 0,-0.2 0.1,-0.4 0.1,-0.6 0,-0.1 0,-0.2 0,-0.3 0,-0.2 0,-0.4 0,-0.5 0,0 0,0 0,0 0,-0.1 0,-0.2 0,-0.2 0,-0.2 0,-0.3 0,-0.5 0,-0.1 0,-0.2 0,-0.3 0,-0.2 0,-0.3 -0.1,-0.5 0,-0.1 0,-0.2 -0.1,-0.3 0,-0.2 -0.1,-0.3 -0.1,-0.5 0,-0.1 -0.1,-0.2 -0.1,-0.3 -0.1,-0.2 -0.1,-0.3 -0.2,-0.5 0,-0.1 -0.1,-0.2 -0.1,-0.2 -0.1,-0.2 -0.1,-0.3 -0.2,-0.5 0,-0.1 -0.1,-0.2 -0.1,-0.2 -0.1,-0.1 -0.2,-0.3 -0.3,-0.4 -0.1,-0.1 -0.1,-0.2 -0.2,-0.3 -0.1,-0.1 -0.2,-0.2 -0.3,-0.4 -0.1,-0.1 -0.2,-0.2 -0.3,-0.3 -0.1,-0.1 -0.1,-0.2 -0.2,-0.2 0,0 -0.1,0 -0.1,-0.1 0,0 0,0 -0.1,-0.1 C 288.1,18.7 241.2,0 191.8,0 148.2,0 105.6,15 71.7,42.3 38.3,69.1 14.6,106.7 5,148.2 c 0,0 0,0.1 0,0.1 0,0.2 -0.1,0.4 -0.1,0.6 0,0.1 0,0.2 0,0.2 0,0.2 0,0.5 0,0.7 0,0 0,0.1 0,0.1 0,0 0,0 0,0 0,0.3 0,0.6 0,0.9 0,0.1 0,0.1 0,0.2 0,0.2 0.1,0.5 0.1,0.7 0,0.1 0,0.1 0.1,0.2 0.1,0.2 0.1,0.4 0.2,0.6 0,0.1 0.1,0.2 0.1,0.2 0.1,0.2 0.1,0.4 0.2,0.5 0,0.1 0.1,0.2 0.1,0.3 0.1,0.2 0.2,0.3 0.3,0.5 0.1,0.1 0.1,0.2 0.2,0.3 0.1,0.2 0.2,0.3 0.3,0.5 0,0.1 0.1,0.1 0.1,0.2 0,0 0,0 0,0.1 0.2,0.2 0.3,0.4 0.5,0.6 0,0 0,0 0,0 0.2,0.2 0.4,0.4 0.6,0.6 0.1,0.1 0.1,0.1 0.2,0.2 0.2,0.1 0.3,0.2 0.5,0.3 0.1,0.1 0.2,0.1 0.2,0.1 0.2,0.1 0.3,0.2 0.5,0.3 0.1,0 0.2,0.1 0.2,0.1 0.2,0.1 0.4,0.2 0.6,0.2 0.1,0 0.2,0.1 0.2,0.1 0.2,0.1 0.4,0.1 0.6,0.2 0.1,0 0.2,0 0.2,0.1 0.2,0 0.4,0.1 0.6,0.1 0.1,0 0.1,0 0.2,0 0.3,0 0.6,0 0.9,0 H 57 c 0.5,0 1.1,-0.1 1.6,-0.2 0.2,0 0.3,-0.1 0.5,-0.1 0.1,0 0.2,0 0.3,-0.1 0.2,-0.1 0.4,-0.1 0.5,-0.2 0.1,0 0.1,0 0.2,-0.1 0.2,-0.1 0.3,-0.2 0.5,-0.2 0.1,0 0.1,-0.1 0.2,-0.1 0.1,-0.1 0.3,-0.2 0.4,-0.2 0.1,-0.1 0.2,-0.1 0.3,-0.2 0.1,-0.1 0.2,-0.2 0.3,-0.2 0.1,-0.1 0.2,-0.2 0.3,-0.2 0.1,-0.1 0.1,-0.1 0.2,-0.2 0.1,-0.1 0.2,-0.2 0.4,-0.3 0.1,-0.1 0.1,-0.1 0.1,-0.2 0.1,-0.1 0.3,-0.3 0.4,-0.4 0,0 0.1,-0.1 0.1,-0.2 0.1,-0.2 0.2,-0.3 0.3,-0.5 0.1,-0.1 0.1,-0.2 0.2,-0.2 0.1,-0.1 0.2,-0.3 0.2,-0.4 0.3,-0.5 0.5,-1 0.6,-1.5 17.4,-56 68.5,-93.7 127.2,-93.7 31.1,0 60.8,10.7 84.6,30.4 L 256,109.4 C 237.8,95.3 215.5,87.6 192.2,87.6 137.4,87.6 92.4,130.1 88.3,183.8 H 8 c -4.4,0 -8,3.6 -8,8 0,4.4 3.6,8 8,8 h 80.5 c 4.1,53.7 49.1,96.2 103.9,96.2 23.7,0 46.5,-8 64.9,-22.7 l 20.3,20.4 C 253.6,313.9 223.5,325 191.8,325 133.1,325 82,287.4 64.6,231.3 c -0.2,-0.5 -0.4,-1 -0.6,-1.5 -0.1,-0.1 -0.1,-0.2 -0.2,-0.4 -0.1,-0.1 -0.1,-0.2 -0.2,-0.3 -0.1,-0.2 -0.2,-0.3 -0.3,-0.4 0,-0.1 -0.1,-0.1 -0.1,-0.2 -0.1,-0.1 -0.2,-0.3 -0.4,-0.4 -0.1,-0.1 -0.1,-0.1 -0.2,-0.2 -0.1,-0.1 -0.2,-0.2 -0.4,-0.3 -0.1,-0.1 -0.1,-0.1 -0.2,-0.2 -0.1,-0.1 -0.2,-0.2 -0.3,-0.3 -0.1,-0.1 -0.2,-0.1 -0.3,-0.2 -0.1,-0.1 -0.2,-0.1 -0.3,-0.2 -0.1,-0.1 -0.2,-0.1 -0.4,-0.2 -0.1,0 -0.2,-0.1 -0.3,-0.1 -0.1,-0.1 -0.3,-0.1 -0.4,-0.2 -0.1,0 -0.2,-0.1 -0.3,-0.1 -0.1,0 -0.3,-0.1 -0.4,-0.1 -0.2,-0.1 -0.3,-0.1 -0.5,-0.1 -0.1,0 -0.2,0 -0.2,-0.1 -0.5,-0.1 -1.1,-0.2 -1.7,-0.2 H 12.8 c -0.3,0 -0.6,0 -0.9,0 -0.1,0 -0.1,0 -0.2,0 -0.2,0 -0.4,0.1 -0.6,0.1 -0.1,0 -0.2,0 -0.2,0.1 -0.2,0.1 -0.4,0.1 -0.6,0.2 -0.1,0 -0.2,0.1 -0.2,0.1 -0.2,0.1 -0.4,0.1 -0.6,0.2 -0.1,0 -0.2,0.1 -0.2,0.1 -0.2,0.1 -0.3,0.2 -0.5,0.3 -0.1,0 -0.2,0.1 -0.2,0.1 -0.2,0.1 -0.3,0.2 -0.5,0.4 -0.1,0 -0.1,0.1 -0.2,0.1 -0.2,0.2 -0.4,0.4 -0.6,0.6 0,0 0,0 0,0 -0.2,0.2 -0.4,0.4 -0.6,0.6 0,0 0,0 0,0 0,0 -0.1,0.1 -0.1,0.1 -0.1,0.2 -0.2,0.3 -0.4,0.5 0,0.1 -0.1,0.2 -0.1,0.2 -0.1,0.2 -0.2,0.3 -0.3,0.5 0,0.1 -0.1,0.2 -0.1,0.2 -0.1,0.2 -0.2,0.4 -0.2,0.6 0,0.1 -0.1,0.1 -0.1,0.2 -0.1,0.2 -0.1,0.4 -0.2,0.6 0,0.1 0,0.1 -0.1,0.2 -0.1,0.2 -0.1,0.5 -0.1,0.7 0,0.1 0,0.1 0,0.2 0,0.3 0,0.6 0,0.9 0,0 0,0 0,0 0,0 0,0.1 0,0.1 0,0.3 0,0.5 0,0.8 0,0.1 0,0.1 0,0.2 0,0.2 0.1,0.4 0.1,0.6 0,0 0,0 0,0.1 9.6,41.5 33.3,79.1 66.7,105.9 33.9,27.3 76.6,42.3 120.1,42.3 49.8,0 97,-19 132.8,-53.5 0.1,-0.1 0.1,-0.1 0.2,-0.2 0,0 0.1,-0.1 0.1,-0.1 0,0 0,0 0.1,-0.1 0.1,-0.1 0.2,-0.2 0.3,-0.3 0,0.3 0.1,0.2 0.1,0.2 z M 191.8,42.7 C 159.3,42.7 128.4,53 102.5,72.4 79.1,90 61,114.5 51.2,142 H 23.1 C 45,67.3 113,16 191.8,16 c 42.5,0 83,15.1 115,42.8 l -19,18.9 c -26.8,-22.6 -60.6,-35 -96,-35 z m 0,325 C 113,367.7 45,316.4 23.1,241.7 h 28.1 c 9.8,27.5 27.8,52.1 51.3,69.6 25.9,19.4 56.8,29.7 89.3,29.7 35.9,0 70.1,-12.7 97.1,-36 l 18.9,18.9 c -32,28.3 -72.9,43.8 -116,43.8 z"
   id="path25" />
<g
   aria-label="Data Quality"
   id="text36"
   style="font-size:85.3333px;line-height:1.25;font-family:sans-serif"><path
     d="m 390.08912,483.77807 q 0,8.45833 -3.70834,15.33333 -3.66666,6.87499 -9.79166,10.66666 -4.25,2.625 -9.49999,3.79166 -5.20834,1.16667 -13.75,1.16667 h -15.66666 v -62.04164 h 15.5 q 9.08332,0 14.41666,1.33333 5.37499,1.29167 9.08333,3.58333 6.33333,3.95833 9.87499,10.54167 3.54167,6.58333 3.54167,15.62499 z m -8.625,-0.125 q 0,-7.29166 -2.54167,-12.29166 -2.54166,-5 -7.58333,-7.875 -3.66666,-2.08333 -7.79166,-2.875 -4.125,-0.83333 -9.87499,-0.83333 h -7.75 v 47.87498 h 7.75 q 5.95833,0 10.37499,-0.875 4.45833,-0.875 8.16666,-3.25 4.625,-2.95833 6.91667,-7.79166 2.33333,-4.83333 2.33333,-12.08333 z"
     style="font-size:85.3333px"
     id="path21" /><path
     d="m 438.96409,514.73639 h -7.79166 v -4.95833 q -1.04167,0.70833 -2.83333,2 -1.75,1.25 -3.41667,2 -1.95833,0.95833 -4.5,1.58333 -2.54166,0.66667 -5.95833,0.66667 -6.29166,0 -10.66666,-4.16667 -4.375,-4.16666 -4.375,-10.625 0,-5.29166 2.25,-8.54166 2.29167,-3.29166 6.5,-5.16666 4.25,-1.875 10.20833,-2.54167 5.95833,-0.66666 12.79166,-1 v -1.20833 q 0,-2.66667 -0.95833,-4.41667 -0.91667,-1.74999 -2.66667,-2.74999 -1.66666,-0.95834 -4,-1.29167 -2.33333,-0.33333 -4.875,-0.33333 -3.08333,0 -6.87499,0.83333 -3.79167,0.79167 -7.83333,2.33333 h -0.41667 v -7.95833 q 2.29167,-0.625 6.625,-1.375 4.33333,-0.75 8.54166,-0.75 4.91667,0 8.54166,0.83334 3.66667,0.79166 6.33334,2.74999 2.62499,1.91667 3.99999,4.95834 1.375,3.04166 1.375,7.54166 z m -7.79166,-11.45833 v -12.95833 q -3.58333,0.20834 -8.45833,0.625 -4.83333,0.41667 -7.66666,1.20834 -3.375,0.95833 -5.45833,2.99999 -2.08334,2 -2.08334,5.54167 0,4 2.41667,6.04166 2.41666,2 7.375,2 4.12499,0 7.54166,-1.58333 3.41666,-1.625 6.33333,-3.875 z"
     style="font-size:85.3333px"
     id="path23" /><path
     d="m 478.21408,514.31972 q -2.20834,0.58334 -4.83334,0.95834 -2.58333,0.375 -4.62499,0.375 -7.125,0 -10.83333,-3.83334 -3.70833,-3.83333 -3.70833,-12.29166 v -24.74999 h -5.29167 v -6.58333 h 5.29167 v -13.37499 h 7.83333 v 13.37499 h 16.16666 v 6.58333 h -16.16666 v 21.20833 q 0,3.66666 0.16666,5.74999 0.16667,2.04167 1.16667,3.83334 0.91666,1.66666 2.5,2.45833 1.625,0.75 4.91666,0.75 1.91667,0 4,-0.54167 2.08333,-0.58333 3,-0.95833 h 0.41667 z"
     style="font-size:85.3333px"
     id="path26" /><path
     d="m 523.83906,514.73639 h -7.79166 v -4.95833 q -1.04167,0.70833 -2.83333,2 -1.75,1.25 -3.41667,2 -1.95833,0.95833 -4.5,1.58333 -2.54166,0.66667 -5.95833,0.66667 -6.29166,0 -10.66666,-4.16667 -4.375,-4.16666 -4.375,-10.625 0,-5.29166 2.25,-8.54166 2.29167,-3.29166 6.5,-5.16666 4.25,-1.875 10.20833,-2.54167 5.95833,-0.66666 12.79166,-1 v -1.20833 q 0,-2.66667 -0.95833,-4.41667 -0.91667,-1.74999 -2.66667,-2.74999 -1.66667,-0.95834 -4,-1.29167 -2.33333,-0.33333 -4.875,-0.33333 -3.08333,0 -6.87499,0.83333 -3.79167,0.79167 -7.83333,2.33333 h -0.41667 v -7.95833 q 2.29167,-0.625 6.625,-1.375 4.33333,-0.75 8.54166,-0.75 4.91667,0 8.54166,0.83334 3.66667,0.79166 6.33333,2.74999 2.625,1.91667 4,4.95834 1.375,3.04166 1.375,7.54166 z m -7.79166,-11.45833 v -12.95833 q -3.58333,0.20834 -8.45833,0.625 -4.83333,0.41667 -7.66666,1.20834 -3.375,0.95833 -5.45834,2.99999 -2.08333,2 -2.08333,5.54167 0,4 2.41667,6.04166 2.41666,2 7.37499,2 4.125,0 7.54167,-1.58333 3.41666,-1.625 6.33333,-3.875 z"
     style="font-size:85.3333px"
     id="path28" /><path
     d="m 624.88068,529.94472 q -2.5,0.625 -4.95834,0.875 -2.41666,0.29166 -4.95833,0.29166 -7.24999,0 -11.66666,-4 -4.375,-3.95833 -4.75,-11.37499 -1,0.16667 -1.95833,0.20833 -0.91667,0.0833 -1.79167,0.0833 -6.54166,0 -11.91666,-2.16667 -5.33333,-2.16667 -9.08333,-6.29166 -3.75,-4.125 -5.79166,-10.125 -2,-6 -2,-13.70833 0,-7.58333 2,-13.58333 2,-6.04166 5.83333,-10.33332 3.66666,-4.08334 9.08333,-6.25 5.45833,-2.16667 11.87499,-2.16667 6.66667,0 11.95833,2.20833 5.33333,2.16667 9.04167,6.20834 3.79166,4.16666 5.79166,10.20832 2.04167,6.04167 2.04167,13.70833 0,11.375 -4.66667,19.16666 -4.625,7.79166 -12.45833,10.91666 0.16667,4.75 2.25,7.375 2.08333,2.625 7.58333,2.625 1.70833,0 4.04167,-0.54167 2.375,-0.5 3.375,-0.91666 h 1.125 z m -9.83333,-46.20832 q 0,-12.08333 -5.41667,-18.62499 -5.41666,-6.58333 -14.79166,-6.58333 -9.45833,0 -14.87499,6.58333 -5.375,6.54166 -5.375,18.62499 0,12.20833 5.5,18.70833 5.49999,6.45833 14.74999,6.45833 9.25,0 14.70833,-6.45833 5.5,-6.5 5.5,-18.70833 z"
     style="font-size:85.3333px"
     id="path30" /><path
     d="m 674.67232,514.73639 h -7.83333 v -5.16667 q -3.95833,3.125 -7.58333,4.79167 -3.625,1.66667 -7.99999,1.66667 -7.33333,0 -11.41667,-4.45834 -4.08333,-4.49999 -4.08333,-13.16666 v -30.20832 h 7.83333 v 26.49999 q 0,3.54167 0.33334,6.08333 0.33333,2.5 1.41666,4.29167 1.125,1.83333 2.91667,2.66666 1.79166,0.83334 5.20833,0.83334 3.04166,0 6.625,-1.58334 3.62499,-1.58333 6.74999,-4.04166 v -34.74999 h 7.83333 z"
     style="font-size:85.3333px"
     id="path32" /><path
     d="m 726.25563,514.73639 h -7.79167 v -4.95833 q -1.04166,0.70833 -2.83333,2 -1.75,1.25 -3.41666,2 -1.95834,0.95833 -4.5,1.58333 -2.54167,0.66667 -5.95833,0.66667 -6.29167,0 -10.66666,-4.16667 -4.375,-4.16666 -4.375,-10.625 0,-5.29166 2.25,-8.54166 2.29166,-3.29166 6.49999,-5.16666 4.25,-1.875 10.20833,-2.54167 5.95833,-0.66666 12.79166,-1 v -1.20833 q 0,-2.66667 -0.95833,-4.41667 -0.91667,-1.74999 -2.66666,-2.74999 -1.66667,-0.95834 -4,-1.29167 -2.33334,-0.33333 -4.875,-0.33333 -3.08333,0 -6.875,0.83333 -3.79166,0.79167 -7.83333,2.33333 h -0.41666 v -7.95833 q 2.29166,-0.625 6.62499,-1.375 4.33333,-0.75 8.54167,-0.75 4.91666,0 8.54166,0.83334 3.66666,0.79166 6.33333,2.74999 2.625,1.91667 4,4.95834 1.375,3.04166 1.375,7.54166 z m -7.79167,-11.45833 v -12.95833 q -3.58333,0.20834 -8.45833,0.625 -4.83333,0.41667 -7.66666,1.20834 -3.375,0.95833 -5.45833,2.99999 -2.08333,2 -2.08333,5.54167 0,4 2.41666,6.04166 2.41667,2 7.375,2 4.125,0 7.54166,-1.58333 3.41667,-1.625 6.33333,-3.875 z"
     style="font-size:85.3333px"
     id="path34" /><path
     d="m 749.25564,514.73639 h -7.83333 v -64.83331 h 7.83333 z"
     style="font-size:85.3333px"
     id="path36" /><path
     d="m 773.1723,460.40308 h -8.83333 v -8.125 h 8.83333 z m -0.5,54.33331 h -7.83333 v -46.54165 h 7.83333 z"
     style="font-size:85.3333px"
     id="path38" /><path
     d="m 812.33895,514.31972 q -2.20834,0.58334 -4.83334,0.95834 -2.58333,0.375 -4.62499,0.375 -7.125,0 -10.83333,-3.83334 -3.70833,-3.83333 -3.70833,-12.29166 v -24.74999 h -5.29167 v -6.58333 h 5.29167 v -13.37499 h 7.83333 v 13.37499 h 16.16666 v 6.58333 h -16.16666 v 21.20833 q 0,3.66666 0.16666,5.74999 0.16667,2.04167 1.16667,3.83334 0.91666,1.66666 2.5,2.45833 1.625,0.75 4.91666,0.75 1.91667,0 4,-0.54167 2.08333,-0.58333 3,-0.95833 h 0.41667 z"
     style="font-size:85.3333px"
     id="path40" /><path
     d="m 861.63059,468.19474 -27.16666,63.70831 h -8.375 l 8.66667,-19.41666 -18.54166,-44.29165 h 8.49999 l 14.29166,34.49999 14.41667,-34.49999 z"
     style="font-size:85.3333px"
     id="path42" /></g></svg>
