<svg enable-background="new 0 0 120 60" height="60" viewBox="0 0 120 60" width="120" xmlns="http://www.w3.org/2000/svg"><path d="m8.6 30c0 .6-.3 1-.8 1h-1.5c-.4 0-.8-.5-.8-1s.3-1 .8-1h1.5c.5 0 .8.4.8 1" fill="#ff671d"/><path d="m16.3 30c0 .6-.4 1-.9 1h-4.4c-.5 0-.9-.5-.9-1s.4-1 .9-1h4.5c.5 0 .8.4.8 1" fill="#ff671d"/><path d="m10.7 25.4c0 .6-.3 1-.8 1h-1.6c-.4 0-.8-.5-.8-1 0-.6.3-1 .8-1h1.5c.5-.1.9.4.9 1" fill="#abc8e7"/><path d="m18.4 25.4c0 .6-.4 1-.9 1h-4.5c-.5 0-.9-.5-.9-1 0-.6.4-1 .9-1h4.5c.5-.1.9.4.9 1" fill="#abc8e7"/><path d="m10.7 34.6c0 .6-.3 1-.8 1h-1.6c-.4 0-.8-.5-.8-1 0-.6.3-1 .8-1h1.5c.5 0 .9.5.9 1" fill="#abc8e7"/><path d="m18.4 34.6c0 .6-.4 1-.9 1h-4.5c-.5 0-.9-.5-.9-1 0-.6.4-1 .9-1h4.5c.5 0 .9.5.9 1" fill="#abc8e7"/><path d="m18.9 20.4c0 .4-.4.8-.9.8h-4c-.5 0-.9-.3-.9-.8 0-.4.4-.8.9-.8h4c.5.1.9.4.9.8" fill="#4197cb"/><path d="m24.6 20.4c0 .4-.4.8-.8.8h-2c-.4 0-.8-.3-.8-.8 0-.4.4-.8.8-.8h2c.4.1.8.4.8.8" fill="#4197cb"/><path d="m18.9 39.6c0 .4-.4.8-.9.8h-4c-.5 0-.9-.3-.9-.8s.4-.8.9-.8h4c.5 0 .9.3.9.8" fill="#4197cb"/><path d="m24.6 39.6c0 .4-.4.8-.8.8h-2c-.4 0-.8-.3-.8-.8s.4-.8.8-.8h2c.4 0 .8.3.8.8" fill="#4197cb"/><g fill="#ff671d"><path d="m37 26.7c-2.1 0-3.9 1.5-3.9 3.3s1.7 3.3 3.9 3.3c2.1 0 3.9-1.5 3.9-3.3s-1.8-3.3-3.9-3.3m0 7.9c-2.8 0-5.2-2.1-5.2-4.6s2.3-4.6 5.2-4.6 5.2 2.1 5.2 4.6-2.3 4.6-5.2 4.6"/><path d="m25.7 34.6c-2.9 0-5.2-2.1-5.2-4.6s2.3-4.6 5.2-4.6c1.5 0 2.9.6 3.9 1.5.3.3.3.7 0 .9-.3.3-.7.3-.9 0-.7-.7-1.8-1.2-2.9-1.2-2.1 0-3.9 1.5-3.9 3.3s1.7 3.3 3.9 3.3c1.1 0 2.2-.4 2.9-1.2.3-.3.7-.3.9 0 .3.3.3.7 0 .9-1 1.2-2.4 1.7-3.9 1.7"/><path d="m44.9 34.6c-.4 0-.6-.3-.6-.6v-8.1l.6-.1c.2 0 4.5-1.1 6.7.4 1.6 1 1.6 2.4 1.5 7.5v.3c0 .4-.3.6-.6.6-.4 0-.6-.3-.6-.7v-.3c.1-4.8-.1-5.8-1-6.4-1.3-.8-4-.6-5.2-.3v7.1c-.2.4-.5.6-.8.6"/><path d="m66.2 35.2c-.4 0-.8-.3-.8-.7v-11.6c0-.4.3-.7.8-.7s.8.3.8.7v11.6c0 .4-.4.7-.8.7"/><path d="m76.2 34.6c-1.2 0-2.6-.2-3.5-.8-1.6-1-1.6-2.2-1.5-7.3v-.6c0-.4.3-.7.7-.7s.7.3.7.7v.6c-.1 4.9-.1 5.5.8 6.1 1.3.9 3.8.6 5.3.4v-6.9c0-.4.3-.7.7-.7s.7.3.7.7v8l-.4.1c-.3.1-1.8.4-3.5.4"/><path d="m97.1 34.6c-.4 0-.6-.3-.6-.6v-8.1l.6-.1c.2 0 4.5-1.1 6.7.4 1.6 1 1.6 2.4 1.5 7.5v.3c0 .4-.3.6-.6.6-.4 0-.6-.3-.6-.7v-.3c.1-4.8-.1-5.8-1-6.4-1.3-.8-4-.6-5.2-.3v7.1c-.2.4-.5.6-.8.6"/><path d="m89.4 34.6c-1.9 0-3.8-.3-5.1-1.4-.9-.8-1.3-1.8-1.3-3.1 0-1.6.6-2.9 1.7-3.7 1.6-1.2 3.9-1.3 5.5-.8 2.8.8 3.2 3.5 3 4.8l-.1.6h-6.5c-.4 0-.7-.3-.7-.7s.3-.7.7-.7h5.3c0-.8-.3-2.2-2-2.7-1.2-.4-3.1-.3-4.3.6-.8.6-1.2 1.5-1.2 2.7 0 .9.3 1.6.9 2.1 1.8 1.5 5.7 1.1 7.3.8.4-.1.7.2.8.6s-.2.7-.6.8c-.9 0-2.1.1-3.4.1"/><path d="m62.3 20.7c-.1-.3-.5-.6-.9-.5-.2 0-4.3 1.2-4.3 4.2v3.6 6c0 .4.3.7.6.7s.6-.3.6-.7v-6c0-.5.2-.8.4-1s.7-.3 1.3-.3h.1c.4 0 .7-.3.7-.7s-.3-.7-.6-.7h-.1c-.6 0-1.3.1-1.7.3v-1.2c0-2 3.3-2.9 3.3-3 .4 0 .7-.4.6-.7"/><path d="m113.9 33.3c-2.8 0-3.2-.8-3.2-1.7v-3.6c0-.5.2-.9.4-1.1s.6-.3 1.1-.3h.1c.4 0 .6-.3.7-.7 0-.4-.3-.7-.6-.7h-.1c-.6 0-1.2.1-1.5.3v-1.5c0-.4-.3-.7-.6-.7s-.6.3-.6.7v7.6c0 3.1 3.4 3.1 4.5 3.1.4 0 .6-.3.6-.7s-.5-.7-.8-.7"/></g></svg>