<?xml version="1.0" encoding="utf-8"?>
<!-- Generator: Adobe Illustrator 25.0.1, SVG Export Plug-In . SVG Version: 6.00 Build 0)  -->
<svg version="1.1" id="Layer_1" xmlns="http://www.w3.org/2000/svg" xmlns:xlink="http://www.w3.org/1999/xlink" x="0px" y="0px"
	 width="987.7px" height="290.6px" viewBox="0 0 987.7 290.6" enable-background="new 0 0 987.7 290.6" xml:space="preserve">
<path fill="#056FA0" d="M39.7,239l107.2-61.9v-124c0,0-44.9,22.9-77.9,83.6C36.5,196.5,39.7,239,39.7,239z"/>
<path fill="#035377" d="M181.7,82.8c0.6,0.5,1.3,1.1,2,1.7c12.8,11.2,31.3,30.7,47,59.6c14.7,27,21.6,50.1,24.8,66.7l-73.8-42.6
	V82.8 M166.3,53.1v124L273.6,239c0,0,3.1-42.5-29.4-102.3C211.2,76,166.3,53.1,166.3,53.1L166.3,53.1z"/>
<path fill="#035377" d="M49.3,252.7L156.7,191L264,253.3c0,0-42.3,27.3-111.4,25.4C84.5,276.7,49.3,252.7,49.3,252.7z"/>
<polygon fill="#818991" points="313.3,273.3 294.6,248.1 293.4,259.2 158.8,180.3 158.8,24.3 168.9,28.9 156.7,0 144.4,28.9 
	154.6,24.3 154.6,180.3 19.9,259.2 18.7,248.1 0,273.3 31.1,269.3 22.1,262.8 156.7,184 291.2,262.8 282.2,269.3 "/>
<g>
	<path fill="#555555" d="M383,80.7h17.6c13.9,0,23.3,3,31.5,9.9c9.6,8,14.8,19.5,14.8,32.9c0,13.5-5.1,24.9-15,33
		c-8.5,7.1-17.5,9.9-31.4,9.9H383V80.7z M401,157.6c10.5,0,18.1-2.4,24.5-7.8c7.6-6.3,11.7-15.7,11.7-26.1c0-10.5-4.2-20-11.6-26.2
		c-6.4-5.4-14.1-7.8-24.7-7.8h-8.4v68H401z"/>
	<path fill="#555555" d="M469.6,166.4h-9.6V80.7h9.6V166.4z"/>
	<path fill="#555555" d="M498.8,76l32.9,72.4l33.7-72.5l13.2,90.6h-9.8l-8-59.6L531.7,170l-28.8-63.2l-8.5,59.6h-9.8L498.8,76z"/>
	<path fill="#555555" d="M678.4,123.6c0,24.5-20.2,44.3-45,44.3c-12.2,0-24.7-5.7-33.2-15c-7.2-8.1-11.1-18.3-11.1-29.8
		c0-23.6,20.6-43.8,44.7-43.8C658.4,79.3,678.4,99.4,678.4,123.6z M598.9,123.1c0,10.5,3.7,19.3,10.9,26.1
		c6.6,6.2,15.3,9.8,23.8,9.8c19.5,0,35.2-15.7,35.2-35.3c0-19.5-15.6-35.3-35-35.3C614.7,88.3,598.9,104.1,598.9,123.1z"/>
	<path fill="#555555" d="M694.1,80.7h17.6c13.9,0,23.3,3,31.5,9.9c9.6,8,14.8,19.5,14.8,32.9c0,13.5-5.1,24.9-15,33
		c-8.5,7.1-17.5,9.9-31.4,9.9h-17.5V80.7z M712.1,157.6c10.5,0,18.1-2.4,24.5-7.8c7.6-6.3,11.7-15.7,11.7-26.1
		c0-10.5-4.2-20-11.6-26.2c-6.4-5.4-14.1-7.8-24.7-7.8h-8.4v68H712.1z"/>
	<path fill="#555555" d="M781.1,89.6v25.6h33.8v8.9h-33.8v33.5h34.7v8.9h-44.3V80.7h44.3v8.9H781.1z"/>
	<path fill="#555555" d="M841.4,157.6h23.5v8.9h-33.2V80.7h9.6V157.6z"/>
	<path fill="#555555" d="M963,123.6c0,24.5-20.2,44.3-45,44.3c-12.2,0-24.7-5.7-33.2-15c-7.2-8.1-11.1-18.3-11.1-29.8
		c0-23.6,20.6-43.8,44.7-43.8C942.9,79.3,963,99.4,963,123.6z M883.4,123.1c0,10.5,3.7,19.3,10.9,26.1c6.6,6.2,15.3,9.8,23.8,9.8
		c19.5,0,35.2-15.7,35.2-35.3c0-19.5-15.6-35.3-35-35.3C899.2,88.3,883.4,104.1,883.4,123.1z"/>
</g>
<g>
	<path fill="#BCBCBC" d="M408.6,228.2c-1.6-3.1-3.6-4.5-6.4-4.5c-3,0-5.5,2.3-5.5,5.1c0,2.6,1.5,4.1,7.4,6.5
		c5.3,2.2,6.6,2.9,8.7,4.4c3.3,2.4,5.1,5.7,5.1,10c0,8.5-6.7,14.8-15.6,14.8c-7.6,0-13-4-15.9-11.6l6.9-2.9c2.6,5.5,4.8,7.4,9.1,7.4
		c4.3,0,7.5-3.1,7.5-7.1c0-3.5-1.6-5.2-7.4-7.6c-10.5-4.6-13.2-7.3-13.2-13.3c0-7.3,5.7-12.7,13.3-12.7c5.6,0,9.7,2.6,12.5,8.2
		L408.6,228.2z"/>
	<path fill="#BCBCBC" d="M501.1,240.5c0,13.5-10.5,24-24.3,24c-13.5,0-24-10.7-24-24.4c0-13,10.9-23.5,24.2-23.5
		C490.6,216.6,501.1,227,501.1,240.5z M460.9,240.3c0,9.9,6.6,17,15.9,17c9.5,0,16.3-6.9,16.3-16.8c0-9.8-6.8-16.8-16.2-16.8
		C467.7,223.7,460.9,230.8,460.9,240.3z"/>
	<path fill="#BCBCBC" d="M547.1,263.1h-7.8V183h7.8V263.1z"/>
	<path fill="#BCBCBC" d="M596.5,244.1c0,4.3,0.4,6.6,1.4,8.6c1.5,2.9,4.9,4.6,8.9,4.6c3.8,0,7.3-1.8,8.8-4.6c1-2,1.4-4.3,1.4-8.6
		v-26.6h7.8V245c0,6.7-1.1,10.3-4.2,13.7c-3.3,3.7-8.2,5.7-13.8,5.7c-5.7,0-10.7-2-14-5.7c-3.1-3.4-4.2-7-4.2-13.7v-27.5h7.8V244.1z
		"/>
	<path fill="#BCBCBC" d="M674.8,263.1H667v-38.4h-4.7v-7.3h4.7v-16.5h7.8v16.5h8.1v7.3h-8.1V263.1z"/>
	<path fill="#BCBCBC" d="M727.4,200.3c0,3.1-2.5,5.6-5.6,5.6s-5.6-2.5-5.6-5.7c0-3,2.5-5.5,5.6-5.5S727.4,197.2,727.4,200.3z
		 M725.6,263.1h-7.8v-45.6h7.8V263.1z"/>
	<path fill="#BCBCBC" d="M812.3,240.5c0,13.5-10.5,24-24.3,24c-13.5,0-24-10.7-24-24.4c0-13,10.9-23.5,24.2-23.5
		C801.8,216.6,812.3,227,812.3,240.5z M772.1,240.3c0,9.9,6.6,17,15.9,17c9.5,0,16.3-6.9,16.3-16.8c0-9.8-6.8-16.8-16.2-16.8
		C778.9,223.7,772.1,230.8,772.1,240.3z"/>
	<path fill="#BCBCBC" d="M858.4,217.5v5.5c4-4.8,7.5-6.6,13.2-6.6c5.5,0,10.5,2.4,13.1,6.3c1.8,2.9,2.5,6.3,2.5,12.2v28.2h-7.8
		v-26.9c0-4.8-0.3-7-1.5-8.9c-1.4-2.4-4.4-3.8-8.1-3.8c-7.9,0-11.3,5.1-11.3,16.9v22.7h-7.8v-45.6H858.4z"/>
	<path fill="#BCBCBC" d="M947.3,228.2c-1.6-3.1-3.6-4.5-6.4-4.5c-3,0-5.5,2.3-5.5,5.1c0,2.6,1.5,4.1,7.4,6.5
		c5.3,2.2,6.6,2.9,8.7,4.4c3.3,2.4,5.1,5.7,5.1,10c0,8.5-6.7,14.8-15.6,14.8c-7.6,0-13-4-15.9-11.6l6.9-2.9c2.6,5.5,4.8,7.4,9.1,7.4
		c4.3,0,7.5-3.1,7.5-7.1c0-3.5-1.6-5.2-7.4-7.6c-10.5-4.6-13.2-7.3-13.2-13.3c0-7.3,5.7-12.7,13.3-12.7c5.6,0,9.7,2.6,12.5,8.2
		L947.3,228.2z"/>
</g>
</svg>
