<?xml version="1.0" encoding="UTF-8" standalone="no"?>
<svg
   xmlns:dc="http://purl.org/dc/elements/1.1/"
   xmlns:cc="http://creativecommons.org/ns#"
   xmlns:rdf="http://www.w3.org/1999/02/22-rdf-syntax-ns#"
   xmlns:svg="http://www.w3.org/2000/svg"
   xmlns="http://www.w3.org/2000/svg"
   xmlns:sodipodi="http://sodipodi.sourceforge.net/DTD/sodipodi-0.dtd"
   xmlns:inkscape="http://www.inkscape.org/namespaces/inkscape"
   width="609"
   height="305"
   viewBox="0 0 609 305"
   version="1.1"
   id="svg52"
   sodipodi:docname="dremio-data-reflections.svg"
   inkscape:version="1.0.1 (3bc2e813f5, 2020-09-07)">
  <metadata
     id="metadata56">
    <rdf:RDF>
      <cc:Work
         rdf:about="">
        <dc:format>image/svg+xml</dc:format>
        <dc:type
           rdf:resource="http://purl.org/dc/dcmitype/StillImage" />
        <dc:title>gnarly-text</dc:title>
      </cc:Work>
    </rdf:RDF>
  </metadata>
  <sodipodi:namedview
     pagecolor="#ffffff"
     bordercolor="#666666"
     borderopacity="1"
     objecttolerance="10"
     gridtolerance="10"
     guidetolerance="10"
     inkscape:pageopacity="0"
     inkscape:pageshadow="2"
     inkscape:window-width="1920"
     inkscape:window-height="1017"
     id="namedview54"
     showgrid="false"
     inkscape:zoom="1.7110016"
     inkscape:cx="304.5"
     inkscape:cy="102.5"
     inkscape:window-x="-8"
     inkscape:window-y="-8"
     inkscape:window-maximized="1"
     inkscape:current-layer="svg52" />
  <!-- Generator: Sketch 41.2 (35397) - http://www.bohemiancoding.com/sketch -->
  <title
     id="title2">gnarly-text</title>
  <desc
     id="desc4">Created with Sketch.</desc>
  <defs
     id="defs6" />
  <g
     id="Page-1"
     stroke="none"
     stroke-width="1"
     fill="none"
     fill-rule="evenodd">
    <g
       id="gnarly-text">
      <g
         id="g14"
         transform="matrix(1,0,0,-1,6,191.99999)">
        <g
           id="g20"
           transform="translate(492.22065,122.03386)"
           fill="#393c42">
          <path
             d="m 23.999999,12 c 0,-3.4333335 -1.182666,-6.1826668 -3.542666,-8.1440001 -2.310667,-2.012 -5.081333,-2.99199992 -8.262667,-2.99199992 -3.1786662,0 -5.9506662,0.97999992 -8.2613328,2.99199992 C 1.5706666,5.8173332 0.39333332,8.5666665 0.39333332,12 c 0,3.482666 1.17733328,6.181333 3.53999988,8.193333 2.3106666,1.962666 5.0826666,2.942666 8.2613328,2.942666 3.181334,0 5.952,-0.98 8.262667,-2.942666 2.36,-2.012 3.542666,-4.710667 3.542666,-8.193333"
             id="path22" />
        </g>
        <polygon
           id="path24"
           fill="#393c42"
           points="514.37199,113.52533 514.37199,46.897332 494.61599,46.897332 494.61599,113.52533 " />
        <g
           id="g26"
           transform="translate(251.95026,46.021066)"
           fill="#393c42">
          <path
             d="m 43.999999,51.999999 c -1.794667,0.442666 -3.950667,0.882666 -6.361333,1.374666 -2.465334,0.490667 -5.082667,0.685334 -7.904,0.685334 -1.232,0 -2.769333,-0.09733 -4.517333,-0.293334 -1.794667,-0.244 -3.128,-0.441333 -4.002667,-0.736 V 0.87733331 H 0.99599998 V 65.491998 C 4.5879999,66.718665 8.8973331,67.846665 13.824,68.926665 c 4.927999,1.08 10.419999,1.618667 16.473333,1.618667 1.08,0 2.413333,-0.048 3.953333,-0.196 1.541333,-0.09733 3.078666,-0.293334 4.617333,-0.489334 1.541333,-0.245333 3.08,-0.492 4.617333,-0.785333 1.541333,-0.294667 2.824,-0.685333 3.902667,-1.128 l -3.388,-15.946666"
             id="path28" />
        </g>
        <g
           id="g30"
           transform="translate(526.64839,44.810666)"
           fill="#393c42">
          <path
             d="m 49.666665,36.333332 c 0,5.985334 -1.233333,10.696 -3.695999,14.081333 -2.516,3.433334 -6.056,5.150667 -10.673334,5.150667 -4.62,0 -8.159999,-1.717333 -10.729333,-5.150667 -2.512,-3.385333 -3.794666,-8.095999 -3.794666,-14.081333 0,-5.936 1.282666,-10.694666 3.794666,-14.177333 2.569334,-3.536 6.109333,-5.250666 10.729333,-5.250666 4.617334,0 8.157334,1.714666 10.673334,5.250666 2.462666,3.482667 3.695999,8.241333 3.695999,14.177333 m 20.682667,0 c 0,-5.349333 -0.824,-10.253333 -2.462667,-14.718666 -1.644,-4.465333 -4.006667,-8.244 -7.086667,-11.432 -3.076,-3.1386662 -6.721333,-5.5933328 -11.030666,-7.3106661 -4.312,-1.7173333 -9.136,-2.59999993 -14.472,-2.59999993 -5.235999,0 -10.009333,0.88266663 -14.318666,2.59999993 -4.312,1.7173333 -8.008,4.1719999 -11.0333329,7.3106661 -3.08,3.188 -5.4933332,6.966667 -7.2373332,11.432 -1.6906666,4.465333 -2.56533326,9.369333 -2.56533326,14.718666 0,5.396 0.87466666,10.256 2.66933326,14.669333 1.7466666,4.416 4.2093332,8.193334 7.3373331,11.284 3.08,3.14 6.826667,5.545333 11.085333,7.262667 4.310667,1.765333 8.978667,2.6 14.062666,2.6 5.184,0 9.904,-0.834667 14.213333,-2.6 4.258667,-1.717334 7.956,-4.122667 11.034667,-7.262667 3.078666,-3.090666 5.490666,-6.868 7.185333,-11.284 1.744,-4.413333 2.618667,-9.273333 2.618667,-14.669333"
             id="path32" />
        </g>
        <g
           id="g34"
           transform="translate(302.90506,44.916532)"
           fill="#393c42">
          <path
             d="m 47.999999,42.999999 c -0.05067,1.618666 -0.362667,3.236 -0.873333,4.806666 -0.512001,1.52 -1.285334,2.942667 -2.310667,4.12 -1.022667,1.228 -2.358667,2.208 -3.950667,2.993334 -1.54,0.785333 -3.542666,1.177333 -5.902666,1.177333 -2.257334,0 -4.209333,-0.392 -5.797333,-1.128 -1.644,-0.737333 -2.976,-1.668 -4.106667,-2.894667 -1.077333,-1.225333 -1.898667,-2.6 -2.514667,-4.22 -0.561333,-1.618666 -0.976,-3.236 -1.28,-4.854666 z M 0.52666665,35.589332 c 0,6.085334 0.97733335,11.382667 2.92799995,15.897333 1.8959999,4.562667 4.4613332,8.338667 7.6426664,11.333333 3.186667,3.041334 6.828,5.346667 10.936,6.916 4.106666,1.521334 8.361333,2.308 12.674666,2.308 10.158667,0 18.168,-2.945333 24.017333,-8.881333 5.902666,-5.937333 8.826666,-14.621333 8.826666,-26.150666 0,-1.126667 -0.052,-2.356 -0.102666,-3.68 -0.105334,-1.372 -0.206667,-2.550666 -0.308,-3.58 H 21.263999 c 0.460001,-3.976 2.412,-7.113333 5.846667,-9.469333 3.44,-2.354667 8.057333,-3.482666 13.858666,-3.482666 3.693334,0 7.334667,0.293333 10.928,0.930666 3.544,0.686667 6.466666,1.472 8.724,2.405333 L 63.342665,4.4346665 C 62.265332,3.9439999 60.829332,3.4039999 59.033332,2.9133332 57.182665,2.3759999 55.183999,1.9333333 52.977332,1.5413333 50.769332,1.1479999 48.359999,0.80533329 45.841332,0.55866663 43.327999,0.3133333 40.762666,0.16666664 38.247999,0.16666664 c -6.413333,0 -12.006666,0.93199996 -16.781333,2.74666656 C 16.746666,4.7306665 12.792,7.1839998 9.6653331,10.370666 6.5346665,13.512 4.2239999,17.239999 2.7359999,21.555999 c -1.4906666,4.368 -2.20933325,9.028 -2.20933325,14.033333 z"
             id="path36" />
        </g>
        <g
           id="g38"
           transform="translate(380.90172,46.775199)"
           fill="#393c42">
          <path
             d="m 39.999999,36.333332 c 0,6.229334 -0.818667,10.644 -2.514667,13.245333 -1.694666,2.6 -4.568,3.874667 -8.618666,3.874667 -1.285333,0 -2.565333,-0.04933 -3.954667,-0.194667 -1.336,-0.09733 -2.668,-0.294666 -3.901333,-0.442666 V 0.12266664 H 0.74266665 V 66.062665 c 1.74533325,0.442667 3.74799985,0.882667 6.05466655,1.373333 2.3106666,0.441334 4.7746668,0.884 7.3399998,1.277334 2.564,0.392 5.233333,0.685333 7.954666,0.882666 2.717334,0.244 5.389334,0.342667 8.004,0.342667 5.134667,0 9.341333,-0.636 12.522667,-1.864 3.231999,-1.276 5.904,-2.746667 7.951999,-4.513333 2.929334,2.010666 6.212,3.581333 10.009334,4.709333 3.745333,1.128 7.186666,1.668 10.365333,1.668 5.697333,0 10.367999,-0.736 14.061332,-2.256 3.645334,-1.52 6.570667,-3.68 8.725334,-6.428 2.205333,-2.796 3.697333,-6.084 4.515999,-9.861333 0.769334,-3.828 1.180001,-8.045333 1.180001,-12.705333 V 0.12266664 H 79.209331 V 36.333332 c 0,6.229334 -0.818666,10.644 -2.513333,13.245333 -1.644,2.6 -4.517333,3.874667 -8.624,3.874667 -1.077333,0 -2.565333,-0.245333 -4.516,-0.784 -1.948,-0.490667 -3.541333,-1.128 -4.821333,-1.913333 0.612,-2.012 1.022667,-4.122667 1.229334,-6.329334 0.152,-2.206666 0.258666,-4.562666 0.258666,-7.065333 V 0.12266664 H 39.999999 V 36.333332"
             id="path40" />
        </g>
        <g
           id="g42"
           transform="translate(171.22933,45.020666)"
           fill="#393c42">
          <path
             d="M 46.666665,17.333333 C 45.639999,17.136 44.407999,16.989333 42.869332,16.890666 41.327999,16.744 39.635999,16.696 37.838666,16.696 c -5.541333,0 -9.698667,1.814666 -12.52,5.443999 -2.770667,3.632 -4.209333,8.44 -4.209333,14.376 0,12.461333 4.824,18.692 14.421333,18.692 2.050666,0 4.105333,-0.245334 6.156,-0.785334 2.054666,-0.489333 3.698666,-1.174666 4.979999,-1.912 z m 0,77.585331 V 68.602665 c -2.258666,0.932 -4.517333,1.668 -6.723999,2.208 -2.206667,0.489333 -4.72,0.734667 -7.542667,0.734667 -5.081333,0 -9.598666,-0.782667 -13.497333,-2.453334 -3.952,-1.617333 -7.286666,-4.022666 -10.0079996,-7.113333 -2.7186666,-3.14 -4.7706665,-6.917333 -6.2093331,-11.381333 -1.436,-4.465333 -2.20666664,-9.418666 -2.20666664,-14.964 C 0.47866666,30.187999 1.352,25.279999 2.9919999,20.916 4.6866665,16.548 7.0986665,12.818666 10.281333,9.7279998 13.462666,6.6853332 17.310666,4.2799999 21.930666,2.6626666 c 4.617333,-1.66799996 9.852,-2.45333327 15.754666,-2.45333327 2.464,0 5.028,0.1 7.7,0.29333332 2.666667,0.24666666 5.284,0.49199999 7.849333,0.88399995 2.565334,0.3453334 5.028,0.7373334 7.390667,1.228 2.361333,0.4413333 4.414666,0.9306666 6.26,1.472 V 100.14933 Z"
             id="path44" />
        </g>
        <g
           id="g46"
           transform="translate(0.668533,0.0364)"
           fill="#393c42">
          <path
             d="m 44.333332,69.333332 c -5.924,-2.686667 -17.453333,-8.7 -16.359999,-15.217333 1.504,-4.006667 6.198666,0.228 7.930666,1.913333 3.736,3.509333 6.697333,8.384 8.429333,13.304 m 35.359999,14.397333 c -3.918666,-10.250667 -15.355999,-15.126667 -18.545333,-13.396 -1.595999,0.866667 0.136,4.101333 0.181334,6.333333 -2.324,-0.910667 -6.152,-2.596 -8.476,-3.553333 5.56,-4.145333 8.430666,-11.298667 8.385333,-18.088 0,-6.969333 -2.869333,-13.393333 -8.248,-17.813333 9.569333,-14.166666 4.696,-26.375999 -8.474666,-35.8986654 L 43.694665,0.76799998 43.421332,1.724 c -1.957333,6.7426665 -4.42,12.437333 -9.068,17.814666 -2.323999,2.686667 -4.967999,5.148 -7.563999,7.608 C 23.371999,30.381333 20.091999,33.659999 16.992,37.167999 3.9599999,51.018665 -1.1906667,75.027998 0.4973333,93.570664 c 0.864,9.566666 3.7826666,18.723996 8.2466665,27.198666 3.5546662,6.74267 8.0653332,12.93867 13.2613332,18.49467 11.482666,12.30266 26.702666,22.008 42.879999,26.79066 14.215999,4.23467 30.482666,4.96534 44.018668,-2.00533 2.18666,-1.13867 5.468,-3.14267 7.29066,-4.64667 1.14134,-1.04666 2.27734,-2.14133 3.372,-3.18933 0.136,-0.0907 0.27467,-0.228 0.36534,-0.36267 l 63.29466,32.3 c 5.23867,2.596 9.15733,2.596 10.75333,0.72667 1.868,-2.18534 -0.728,-6.74 -4.41866,-9.42933 l -54.228,-39.36267 c 0.956,-3.14267 -0.63867,-7.69867 -3.00933,-10.38667 7.248,-2.50533 0.86666,-13.12 -2.32267,-16.90266 -9.068,-10.752 -25.7,-19.180002 -40.509332,-25.330669 -3.965334,-1.685333 -6.242667,-2.416 -9.798667,-3.734666"
             id="path48" />
        </g>
        <g
           id="g50"
           transform="translate(4.319867,8.896133)"
           fill="#55bfce">
          <path
             d="m 125.66666,112 c 4.056,5.10266 1.23067,8.064 -1.59466,5.19333 -5.56,-5.69333 -13.98934,-7.652 -21.59867,-6.42267 -11.121332,1.868 -11.618666,3.55334 -9.751999,5.19467 13.123999,-4.78533 28.387999,1.456 34.721329,11.79867 2.73467,3.91733 -6.424,7.06133 -11.84533,14.396 C 89.667998,177.14933 8.5106664,146.624 0.76399996,85.438665 -1.6066666,67.034665 3.5426665,46.670665 16.213333,32.319999 c 9.476,-10.753333 19.774666,-15.218666 25.606666,-32.12133234 11.348,9.75066644 9.569333,20.77466634 1.278667,30.43333234 14.169332,7.381333 12.118666,26.562666 2.14,32.393333 -4.646667,-17.084 -21.326667,-29.704 -25.2,-17.585333 C 17.533333,57.786665 37.857332,65.985332 70.437331,78.331998 97.687997,88.538664 115.27733,96.966664 125.66666,112"
             id="path52" />
        </g>
        <g
           id="g54"
           transform="translate(20.319866,50.229465)"
           fill="#ffffff">
          <path
             d="m 109.66666,70.666665 c 4.056,5.102666 1.23067,8.064 -1.59466,5.193333 -4.78267,-4.92 -11.984002,-7.062666 -18.546669,-6.742666 -11.209333,0.82 -20.141333,3.006666 -28.342666,2.142666 C 45.049332,69.619998 29.329333,59.414665 20.899999,50.803999 6.6826665,36.223999 -8.9933331,5.9746665 6.8199998,0.096 5.6346665,0.82666665 4.6773332,2.1466666 4.0386665,4.1066666 1.5333333,16.453333 21.857333,24.651999 54.437332,36.998666 81.687998,47.205332 99.277331,55.633332 109.66666,70.666665"
             id="path56" />
        </g>
        <g
           id="g58"
           transform="translate(59.886799,74.357198)"
           fill="#55bfce">
          <path
             d="M 0.3333333,22.666666 C 8.7186664,18.566666 7.0333331,4.1706666 5.8026665,0.56933332 21.705333,5.0813332 16.966666,28.633333 24.350666,35.833332 15.098666,36.106666 -2.2186666,26.813333 0.3333333,22.666666"
             id="path60" />
        </g>
        <g
           id="g62"
           transform="translate(84.440798,130.33373)"
           fill="#393c42">
          <path
             d="m 2.6666666,9.3333331 c 2.2773333,1.1839999 5.0586665,0.364 6.2893332,-1.9146666 C 10.14,5.1866665 9.2733331,2.4079999 7.0399998,1.1773333 4.8079999,-0.00666667 1.9839999,0.81466665 0.79733331,3.0906666 -0.43199999,5.3239999 0.43333332,8.1026665 2.6666666,9.3333331"
             id="path64" />
        </g>
        <g
           id="g66"
           transform="translate(116.36986,136.3744)"
           fill="#55bfce">
          <path
             d="M 9.3333331,1.3333333 73.129332,45.753332 c 1.776,1.274667 4.147999,4.009333 3.189333,5.330667 -0.954667,1.32 -3.736,0.592 -6.105333,-0.456 L 1.22,13.361333 C -1.0106666,8.7146664 3.4999999,-1.0813333 9.3333331,1.3333333"
             id="path68" />
        </g>
        <g
           id="g70"
           transform="translate(116.0988,137.16693)"
           fill="#ffffff">
          <path
             d="M 3.9999999,9.3333331 70.666665,48.558665 c 2.916,1.732 4.056,1.686667 5.830666,1.869334 -1.001333,1.137333 -3.736,0.454666 -6.013333,-0.592 L 1.492,12.569333 C -0.19199999,9.0613331 1.9946666,2.5453333 5.6853332,0.67733332 4.3639999,3.5479999 3.4986666,6.5546665 3.9999999,9.3333331"
             id="path72" />
        </g>
        <g
           id="g74"
           transform="translate(17.898266,120.71866)"
           fill="#25abad">
          <path
             d="m 3.9999999,8.3333331 c 2.1866666,0.364 3.8746666,-1.14 3.8279999,-3.3733333 0,-2.2306666 -1.776,-4.32799984 -3.9626666,-4.69199983 C 1.7226666,-0.09466669 0.03466667,1.4079999 0.08266666,3.5946666 c 0,2.2319999 1.77466664,4.3279998 3.91733324,4.7386665"
             id="path76" />
        </g>
        <g
           id="g78"
           transform="translate(30.840399,135.312)"
           fill="#25abad">
          <path
             d="M 3.9999999,7.9999998 C 5.9146665,8.3186665 7.4173331,6.9973332 7.3706665,5.0373332 7.3253331,3.0319999 5.7759999,1.212 3.8626666,0.84666664 1.9493333,0.52666665 0.44399999,1.8493333 0.49066665,3.8079999 0.53599999,5.7666665 2.0853333,7.6359998 3.9999999,7.9999998"
             id="path80" />
        </g>
        <g
           id="g82"
           transform="translate(68.650398,155.172)"
           fill="#25abad">
          <path
             d="M 5.3333332,6.9999998 C 7.2933331,6.9093331 8.4773331,5.2693332 7.9759998,3.3559999 7.5199998,1.4413333 5.5613332,-0.01600002 3.6479999,0.07599997 1.7306666,0.16666664 0.54799999,1.8079999 1.004,3.7199999 1.4586666,5.6346665 3.4186666,7.0919998 5.3333332,6.9999998"
             id="path84" />
        </g>
        <g
           id="g86"
           transform="translate(81.634398,158.4648)"
           fill="#25abad">
          <path
             d="m 4.3333332,5.6666665 c 1.5946666,-0.364 2.3679999,-1.8213333 1.732,-3.3706666 C 5.4266665,0.79333329 3.6039999,-0.16533335 2.0559999,0.15466664 0.4613333,0.51866663 -0.31600002,1.9773333 0.32266663,3.5253332 0.95999995,5.0279998 2.7826666,5.9866665 4.3333332,5.6666665"
             id="path88" />
        </g>
        <g
           id="g90"
           transform="translate(32.310666,129.04933)"
           fill="#25abad">
          <path
             d="m 2.6666666,5.3333332 c 1.4106666,0.228 2.5519999,-0.7746667 2.5053333,-2.2333333 0,-1.4573333 -1.1853333,-2.82399991 -2.5973333,-3.05333323 -1.412,-0.27333333 -2.50533327,0.72933331 -2.50533327,2.18799993 0.04533333,1.4573333 1.18399997,2.8253333 2.59733327,3.0986666"
             id="path92" />
        </g>
        <g
           id="g94"
           transform="translate(11.7896,111.95066)"
           fill="#25abad">
          <path
             d="m 2.9999999,5.6666665 c 1.4586666,0.272 2.6439999,-0.7746666 2.5986666,-2.2799999 0,-1.548 -1.2293333,-2.95999997 -2.6893333,-3.23333329 -1.5039999,-0.228 -2.6439999,0.77466664 -2.6439999,2.27733329 0.048,1.5493333 1.2306666,3.0066666 2.7346666,3.2359999"
             id="path96" />
        </g>
        <g
           id="g98"
           transform="translate(131.0884,146.28613)"
           fill="#25abad">
          <path
             d="M 2.9999999,12.333333 0.03999997,10.738666 C 0.2653333,6.4106665 3.8199999,1.1706666 6.3706665,0.3053333 4.3666665,3.3573332 2.5453332,8.6439998 2.9999999,12.333333 m 15.9026661,8.609333 -2.596,-1.412 c 0.318667,-3.872 3.508,-8.518666 5.102667,-8.792 -1.230667,1.866667 -2.825334,7.06 -2.506667,10.204 m 15.721333,8.52 -2.005333,-1.093333 c -0.04533,-2.550667 1.824,-6.377334 3.917333,-6.925334 -1.001333,1.594667 -2.232,4.876 -1.912,8.018667 m 15.129333,8.154666 -1.733333,-0.956 c 0.138666,-1.686666 2.097333,-4.829333 3.190666,-5.330666 -0.410666,1.229333 -1.64,3.734666 -1.457333,6.286666"
             id="path100" />
        </g>
      </g>
    </g>
  </g>
  <g
     aria-label="Data Reflections"
     id="text60"
     style="font-size:48px;line-height:1.25;font-family:sans-serif">
    <path
       d="m 142.88013,240.91415 q 0,4.75782 -2.08594,8.625 -2.0625,3.86719 -5.50781,6 -2.39063,1.47657 -5.34375,2.13282 -2.92969,0.65625 -7.73438,0.65625 h -8.8125 v -34.89844 h 8.71875 q 5.10938,0 8.10938,0.75 3.02343,0.72656 5.10937,2.01562 3.5625,2.22657 5.55469,5.92969 1.99219,3.70313 1.99219,8.78906 z m -4.85157,-0.0703 q 0,-4.10156 -1.42968,-6.91406 -1.42969,-2.8125 -4.26563,-4.42969 -2.0625,-1.17187 -4.38281,-1.61719 -2.32031,-0.46875 -5.55469,-0.46875 h -4.35937 v 26.92969 h 4.35937 q 3.35156,0 5.83594,-0.49219 2.50781,-0.49218 4.59375,-1.82812 2.60156,-1.66406 3.89062,-4.38281 1.3125,-2.71875 1.3125,-6.79688 z"
       style="font-size:48px"
       id="path62" />
    <path
       d="m 170.37231,258.32822 h -4.38281 v -2.78907 q -0.58594,0.39844 -1.59375,1.125 -0.98437,0.70313 -1.92187,1.125 -1.10157,0.53907 -2.53125,0.89063 -1.42969,0.375 -3.35157,0.375 -3.53906,0 -6,-2.34375 -2.46093,-2.34375 -2.46093,-5.97656 0,-2.97657 1.26562,-4.80469 1.28906,-1.85156 3.65625,-2.90625 2.39063,-1.05469 5.74219,-1.42969 3.35156,-0.375 7.19531,-0.5625 v -0.67969 q 0,-1.5 -0.53906,-2.48437 -0.51563,-0.98438 -1.5,-1.54688 -0.9375,-0.53906 -2.25,-0.72656 -1.3125,-0.1875 -2.74219,-0.1875 -1.73437,0 -3.86719,0.46875 -2.13281,0.44531 -4.40625,1.3125 h -0.23437 v -4.47656 q 1.28906,-0.35156 3.72656,-0.77344 2.4375,-0.42187 4.80469,-0.42187 2.76562,0 4.80469,0.46875 2.0625,0.44531 3.5625,1.54687 1.47656,1.07813 2.25,2.78906 0.77343,1.71094 0.77343,4.24219 z m -4.38281,-6.44532 v -7.28906 q -2.01562,0.11719 -4.75781,0.35156 -2.71875,0.23438 -4.3125,0.67969 -1.89844,0.53906 -3.07031,1.6875 -1.17188,1.125 -1.17188,3.11719 0,2.25 1.35938,3.39844 1.35937,1.125 4.14843,1.125 2.32032,0 4.24219,-0.89063 1.92188,-0.91406 3.5625,-2.17969 z"
       style="font-size:48px"
       id="path65" />
    <path
       d="m 192.45044,258.09384 q -1.24219,0.32813 -2.71875,0.53906 -1.45313,0.21094 -2.60156,0.21094 -4.00782,0 -6.09375,-2.15625 -2.08594,-2.15625 -2.08594,-6.91406 v -13.92188 h -2.97656 v -3.70312 h 2.97656 v -7.52344 h 4.40625 v 7.52344 h 9.09375 v 3.70312 h -9.09375 v 11.92969 q 0,2.0625 0.0937,3.23438 0.0937,1.14843 0.65625,2.15625 0.51562,0.9375 1.40625,1.38281 0.91406,0.42187 2.76562,0.42187 1.07813,0 2.25,-0.30468 1.17188,-0.32813 1.6875,-0.53907 h 0.23438 z"
       style="font-size:48px"
       id="path67" />
    <path
       d="m 218.1145,258.32822 h -4.38281 v -2.78907 q -0.58594,0.39844 -1.59375,1.125 -0.98438,0.70313 -1.92188,1.125 -1.10156,0.53907 -2.53125,0.89063 -1.42968,0.375 -3.35156,0.375 -3.53906,0 -6,-2.34375 -2.46094,-2.34375 -2.46094,-5.97656 0,-2.97657 1.26563,-4.80469 1.28906,-1.85156 3.65625,-2.90625 2.39062,-1.05469 5.74219,-1.42969 3.35156,-0.375 7.19531,-0.5625 v -0.67969 q 0,-1.5 -0.53906,-2.48437 -0.51563,-0.98438 -1.5,-1.54688 -0.9375,-0.53906 -2.25,-0.72656 -1.3125,-0.1875 -2.74219,-0.1875 -1.73438,0 -3.86719,0.46875 -2.13281,0.44531 -4.40625,1.3125 h -0.23437 v -4.47656 q 1.28906,-0.35156 3.72656,-0.77344 2.4375,-0.42187 4.80469,-0.42187 2.76562,0 4.80468,0.46875 2.0625,0.44531 3.5625,1.54687 1.47657,1.07813 2.25,2.78906 0.77344,1.71094 0.77344,4.24219 z m -4.38281,-6.44532 v -7.28906 q -2.01563,0.11719 -4.75781,0.35156 -2.71875,0.23438 -4.3125,0.67969 -1.89844,0.53906 -3.07032,1.6875 -1.17187,1.125 -1.17187,3.11719 0,2.25 1.35937,3.39844 1.35938,1.125 4.14844,1.125 2.32031,0 4.24219,-0.89063 1.92187,-0.91406 3.5625,-2.17969 z"
       style="font-size:48px"
       id="path69" />
    <path
       d="M 272.70044,258.32822 H 266.677 l -11.67187,-13.875 h -6.53907 v 13.875 h -4.64062 v -34.89844 h 9.77344 q 3.16406,0 5.27343,0.42187 2.10938,0.39844 3.79688,1.45313 1.89844,1.19531 2.95312,3.02344 1.07813,1.80468 1.07813,4.59375 0,3.77343 -1.89844,6.32812 -1.89844,2.53125 -5.22656,3.82031 z m -10.85156,-25.07813 q 0,-1.5 -0.53907,-2.64844 -0.51562,-1.17187 -1.73437,-1.96875 -1.00781,-0.67968 -2.39063,-0.9375 -1.38281,-0.28125 -3.25781,-0.28125 h -5.46094 v 13.17188 h 4.6875 q 2.20313,0 3.84375,-0.375 1.64063,-0.39844 2.78907,-1.45313 1.05468,-0.98437 1.54687,-2.25 0.51563,-1.28906 0.51563,-3.25781 z"
       style="font-size:48px"
       id="path71" />
    <path
       d="M 297.59106,245.6954 H 278.302 q 0,2.41407 0.72656,4.21875 0.72657,1.78125 1.99219,2.92969 1.21875,1.125 2.88281,1.6875 1.6875,0.5625 3.70313,0.5625 2.67187,0 5.36719,-1.05469 2.71875,-1.07812 3.86718,-2.10937 h 0.23438 v 4.80469 q -2.22656,0.9375 -4.54688,1.57031 -2.32031,0.63281 -4.875,0.63281 -6.51562,0 -10.17187,-3.51562 -3.65625,-3.53907 -3.65625,-10.03125 0,-6.42188 3.49219,-10.19532 3.51562,-3.77343 9.23437,-3.77343 5.29688,0 8.15625,3.09375 2.88281,3.09375 2.88281,8.78906 z m -4.28906,-3.375 q -0.0234,-3.46875 -1.75781,-5.36718 -1.71094,-1.89844 -5.22656,-1.89844 -3.53907,0 -5.64844,2.08594 -2.08594,2.08593 -2.36719,5.17968 z"
       style="font-size:48px"
       id="path73" />
    <path
       d="m 318.35669,226.12509 h -0.23438 q -0.72656,-0.21094 -1.89843,-0.42187 -1.17188,-0.23438 -2.0625,-0.23438 -2.83594,0 -4.125,1.26563 -1.26563,1.24218 -1.26563,4.52343 v 0.89063 h 7.94531 v 3.70312 h -7.80468 v 22.47657 h -4.40625 v -22.47657 h -2.97657 v -3.70312 h 2.97657 v -0.86719 q 0,-4.66406 2.32031,-7.14844 2.32031,-2.50781 6.70312,-2.50781 1.47657,0 2.64844,0.14063 1.19531,0.14062 2.17969,0.32812 z"
       style="font-size:48px"
       id="path75" />
    <path
       d="m 325.59888,258.32822 h -4.40625 v -36.46875 h 4.40625 z"
       style="font-size:48px"
       id="path77" />
    <path
       d="m 356.23169,245.6954 h -19.28906 q 0,2.41407 0.72656,4.21875 0.72656,1.78125 1.99219,2.92969 1.21875,1.125 2.88281,1.6875 1.6875,0.5625 3.70312,0.5625 2.67188,0 5.36719,-1.05469 2.71875,-1.07812 3.86719,-2.10937 h 0.23437 v 4.80469 q -2.22656,0.9375 -4.54687,1.57031 -2.32031,0.63281 -4.875,0.63281 -6.51563,0 -10.17188,-3.51562 -3.65625,-3.53907 -3.65625,-10.03125 0,-6.42188 3.49219,-10.19532 3.51563,-3.77343 9.23438,-3.77343 5.29687,0 8.15625,3.09375 2.88281,3.09375 2.88281,8.78906 z m -4.28906,-3.375 q -0.0234,-3.46875 -1.75782,-5.36718 -1.71093,-1.89844 -5.22656,-1.89844 -3.53906,0 -5.64844,2.08594 -2.08593,2.08593 -2.36718,5.17968 z"
       style="font-size:48px"
       id="path79" />
    <path
       d="m 382.27075,256.68759 q -2.20312,1.05469 -4.19531,1.64063 -1.96875,0.58593 -4.19531,0.58593 -2.83594,0 -5.20313,-0.82031 -2.36719,-0.84375 -4.05469,-2.53125 -1.71093,-1.6875 -2.64843,-4.26562 -0.9375,-2.57813 -0.9375,-6.02344 0,-6.42188 3.51562,-10.07813 3.53906,-3.65625 9.32813,-3.65625 2.25,0 4.40625,0.63282 2.17968,0.63281 3.98437,1.54687 v 4.89844 h -0.23437 q -2.01563,-1.57031 -4.17188,-2.41406 -2.13281,-0.84375 -4.17187,-0.84375 -3.75,0 -5.92969,2.53125 -2.15625,2.50781 -2.15625,7.38281 0,4.73437 2.10937,7.28906 2.13282,2.53125 5.97657,2.53125 1.33593,0 2.71875,-0.35156 1.38281,-0.35156 2.48437,-0.91406 0.96094,-0.49219 1.80469,-1.03125 0.84375,-0.5625 1.33594,-0.96094 h 0.23437 z"
       style="font-size:48px"
       id="path81" />
    <path
       d="m 401.51294,258.09384 q -1.24219,0.32813 -2.71875,0.53906 -1.45313,0.21094 -2.60156,0.21094 -4.00782,0 -6.09375,-2.15625 -2.08594,-2.15625 -2.08594,-6.91406 v -13.92188 h -2.97656 v -3.70312 h 2.97656 v -7.52344 h 4.40625 v 7.52344 h 9.09375 v 3.70312 h -9.09375 v 11.92969 q 0,2.0625 0.0937,3.23438 0.0937,1.14843 0.65625,2.15625 0.51562,0.9375 1.40625,1.38281 0.91406,0.42187 2.76562,0.42187 1.07813,0 2.25,-0.30468 1.17188,-0.32813 1.6875,-0.53907 h 0.23438 z"
       style="font-size:48px"
       id="path83" />
    <path
       d="m 411.56763,227.76572 h -4.96875 v -4.57032 h 4.96875 z m -0.28125,30.5625 h -4.40625 v -26.17969 h 4.40625 z"
       style="font-size:48px"
       id="path85" />
    <path
       d="m 442.31763,245.25009 q 0,6.39844 -3.28125,10.10156 -3.28125,3.70313 -8.78907,3.70313 -5.55468,0 -8.83593,-3.70313 -3.25782,-3.70312 -3.25782,-10.10156 0,-6.39844 3.25782,-10.10156 3.28125,-3.72656 8.83593,-3.72656 5.50782,0 8.78907,3.72656 3.28125,3.70312 3.28125,10.10156 z m -4.54688,0 q 0,-5.08594 -1.99219,-7.54687 -1.99218,-2.48438 -5.53125,-2.48438 -3.58593,0 -5.57812,2.48438 -1.96875,2.46093 -1.96875,7.54687 0,4.92188 1.99219,7.47656 1.99218,2.53125 5.55468,2.53125 3.51563,0 5.50782,-2.50781 2.01562,-2.53125 2.01562,-7.5 z"
       style="font-size:48px"
       id="path87" />
    <path
       d="m 471.02856,258.32822 h -4.40625 v -14.90625 q 0,-1.80469 -0.21093,-3.375 -0.21094,-1.59375 -0.77344,-2.48438 -0.58594,-0.98437 -1.6875,-1.45312 -1.10156,-0.49219 -2.85938,-0.49219 -1.80468,0 -3.77343,0.89062 -1.96875,0.89063 -3.77344,2.27344 v 19.54688 h -4.40625 v -26.17969 h 4.40625 v 2.90625 q 2.0625,-1.71094 4.26562,-2.67188 2.20313,-0.96093 4.52344,-0.96093 4.24219,0 6.46875,2.55468 2.22656,2.55469 2.22656,7.35938 z"
       style="font-size:48px"
       id="path89" />
    <path
       d="m 498.21606,250.78134 q 0,3.58594 -2.97656,5.88281 -2.95312,2.29688 -8.08594,2.29688 -2.90625,0 -5.34375,-0.67969 -2.41406,-0.70312 -4.05468,-1.52344 v -4.94531 h 0.23437 q 2.08594,1.57031 4.64063,2.50781 2.55468,0.91407 4.89843,0.91407 2.90625,0 4.54688,-0.9375 1.64062,-0.9375 1.64062,-2.95313 0,-1.54687 -0.89062,-2.34375 -0.89063,-0.79687 -3.42188,-1.35937 -0.9375,-0.21094 -2.46093,-0.49219 -1.5,-0.28125 -2.74219,-0.60938 -3.44531,-0.91406 -4.89844,-2.67187 -1.42969,-1.78125 -1.42969,-4.35938 0,-1.61718 0.65625,-3.04687 0.67969,-1.42969 2.03907,-2.55469 1.3125,-1.10156 3.32812,-1.73437 2.03906,-0.65625 4.54688,-0.65625 2.34375,0 4.73437,0.58593 2.41406,0.5625 4.00781,1.38282 v 4.71093 h -0.23437 q -1.6875,-1.24218 -4.10156,-2.08593 -2.41407,-0.86719 -4.73438,-0.86719 -2.41406,0 -4.07812,0.9375 -1.66407,0.91406 -1.66407,2.74219 0,1.61718 1.00782,2.4375 0.98437,0.82031 3.1875,1.33593 1.21875,0.28125 2.71875,0.5625 1.52343,0.28125 2.53125,0.51563 3.07031,0.70312 4.73437,2.41406 1.66406,1.73438 1.66406,4.59375 z"
       style="font-size:48px"
       id="path91" />
  </g>
</svg>
