<?xml version="1.0" encoding="utf-8"?>
<!-- Generator: Adobe Illustrator 25.0.1, SVG Export Plug-In . SVG Version: 6.00 Build 0)  -->
<svg version="1.1" id="layer" xmlns="http://www.w3.org/2000/svg" xmlns:xlink="http://www.w3.org/1999/xlink" x="0px" y="0px"
	 width="2390.154px" height="485.904px" viewBox="0 0 2390.154 485.904" enable-background="new 0 0 2390.154 485.904"
	 xml:space="preserve">
<g>
	<g>
		<g>
			<path fill="#323232" d="M1552.3,380.301V278.846c0-12.453-1.099-24.54-3.297-35.894c-5.494-0.366-11.354-0.366-17.214-0.366
				c-52.376,0-102.188,8.058-144.674,22.342c-13.918,4.761-27.104,9.889-39.556,15.749c-5.86,2.564-11.354,5.86-16.848,8.79
				c-24.906,18.313-39.19,44.318-39.19,78.747c0,46.149,35.161,89.002,93.764,89.002c34.429,0,64.463-12.453,83.142-35.894h1.831
				l5.494,29.301h81.311C1553.765,434.508,1552.3,407.405,1552.3,380.301 M1465.129,344.773c0,5.494-0.733,10.622-1.831,15.383
				c-5.86,18.313-24.906,33.33-46.882,33.33c-20.145,0-35.528-11.354-35.528-34.429c0-34.429,36.626-45.783,84.241-45.783V344.773z"
				/>
			<path fill="#323232" d="M312.862,88.755C274.771,59.82,224.959,47.001,148.41,47.001c-45.05,0-88.636,2.93-121.6,8.79v392.635
				c21.976,2.93,55.672,5.86,102.554,5.86c78.381,0,143.209-16.848,185.33-51.643c38.091-32.597,65.928-85.34,65.928-162.255
				C380.621,169.333,354.25,119.521,312.862,88.755 M148.043,383.964c-10.622,0-23.441,0-31.499-1.831V120.254
				c7.692-1.831,21.61-3.663,41.022-3.663c78.38,0,127.094,41.022,127.094,127.094C284.66,339.279,230.819,384.33,148.043,383.964"
				/>
			<path fill="#323232" d="M672.167,357.226c0,38.091,1.099,68.858,2.564,93.397h-78.38l-4.029-41.022h-1.831
				c-11.354,17.947-38.458,47.614-90.833,47.614c-59.335,0-102.188-36.993-102.188-126.361V160.543h90.101v156.395
				c0,42.12,13.552,67.759,45.783,67.759c24.906,0,39.556-17.214,45.05-31.499c2.198-5.494,3.663-11.72,3.663-19.778V160.543h90.101
				V357.226z"/>
			<path fill="#323232" d="M691.213,252.475c0-36.26-1.099-66.294-2.564-92.665h78.747l4.029,40.289h1.831
				c12.087-19.046,41.022-46.882,89.735-46.882c59.335,0,104.019,39.923,104.019,125.262v171.778h-90.101v-160.79
				c0-37.359-12.819-62.997-45.783-62.997c-24.906,0-39.923,17.214-46.516,33.696c-2.198,5.86-2.93,14.284-2.93,22.342v167.749
				h-90.101L691.213,252.475L691.213,252.475z"/>
			<path fill="#323232" d="M1531.057,197.902c-19.046-27.104-52.01-44.684-105.484-44.684c-52.742,0-92.665,15.017-112.809,26.005
				l17.581,59.701C1384.917,213.651,1454.507,198.268,1531.057,197.902"/>
			<path fill="#323232" d="M1771.692,170.798c-17.947-9.157-47.614-17.214-81.311-17.214c-48.347,0-84.973,18.679-104.019,47.248
				c63.73,6.226,121.233,23.441,166.284,48.347L1771.692,170.798z"/>
			<path fill="#323232" d="M1572.078,249.178c-0.366,34.063,22.708,67.026,83.142,86.805c33.33,11.354,42.12,18.313,42.12,33.696
				c0,15.017-11.354,23.807-38.824,23.807c-26.737,0-61.166-11.354-77.648-21.243l-16.116,64.096
				c21.976,11.72,56.038,20.877,93.764,20.877c83.142,0,125.262-39.923,125.262-94.496c-0.366-18.679-4.761-34.795-14.651-48.347
				c-43.219-36.993-115.007-63.364-197.05-69.956C1572.445,245.516,1572.078,247.347,1572.078,249.178"/>
			<path fill="#323232" d="M1277.968,363.453V28.688h-90.467v157.494h-1.099c-13.186-19.778-40.289-32.598-76.549-32.598
				c-69.59,0-130.756,57.137-130.024,154.563c0,90.101,55.306,148.703,124.53,148.703c37.359,0,72.886-16.848,90.833-48.713h1.831
				l3.296,42.12h80.212C1279.433,430.845,1277.968,396.783,1277.968,363.453 M1187.867,321.333c0,6.959-0.733,14.284-1.831,20.145
				c-5.128,25.638-26.737,43.219-52.742,43.219c-37.359,0-61.899-30.766-61.899-79.479c0-45.783,20.877-82.776,62.265-82.776
				c27.836,0,47.248,19.778,52.742,43.952c1.099,5.494,1.099,11.354,1.099,16.482v38.458H1187.867z"/>
		</g>
	</g>
	<path fill="#2896D3" d="M2363.344,46.03v63.12c-1.1,93.42-34.88,146.05-87.7,178.96V46.03H2363.344z"/>
	<path fill="#2896D3" d="M2363.344,269.86v180.52h-87.7v-108.5C2325.824,319.64,2345.024,294.25,2363.344,269.86z"/>
	<path fill="#2896D3" d="M2228.524,358.88c-34.03,10.04-72.16,16.3-110.72,18.82c-4.48,0.58-9.06,0.86-13.68,0.86h-57.61v-0.45
		c-31.19-1.7-61.11-5.95-87.7-12.68v84.95h60.37c0,0,7.37,0,27.33,0h59.86c66.62,0,140.82-24.78,150.52-100.89
		C2248.244,352.71,2238.824,355.84,2228.524,358.88z M2046.514,275.91h65.2c36.28,0,60.75,15.18,59.91,51.18
		c-0.01,0.23-0.01,0.46-0.02,0.68c9.73-1.92,19.36-4.28,28.8-7.15c18.96-5.75,36.82-12.39,53.28-20.41
		c-17.43-59.96-82.34-66.49-82.34-66.49v-1.69c0,0,67.78-15.19,67.78-87.47c0-90.56-94.78-98.53-134.16-98.53
		c-39.37,0-58.45,0-58.45,0h-87.7v274.59c0,0,36.96,9.06,87.7,12.88V275.91z M2046.514,117.56h52.27c20.39,0,54.14,3.66,53.85,43.6
		c-0.28,39.93-37.96,46.26-59.34,46.26h-46.78V117.56z"/>
	<path fill="#B1E7FF" d="M2046.514,333.5v44.61c-31.19-1.7-61.11-5.95-87.7-12.68v-44.81
		C1958.814,320.62,1995.774,329.68,2046.514,333.5z"/>
	<path fill="#B1E7FF" d="M2257.964,332.16c0,6.05-0.36,11.83-1.07,17.33c-8.65,3.22-18.07,6.35-28.37,9.39
		c-34.03,10.04-72.16,16.3-110.72,18.82c28.56-3.65,52.74-19.22,53.8-49.93c9.73-1.92,19.36-4.28,28.8-7.15
		c18.96-5.75,36.82-12.39,53.28-20.41C2256.404,309.51,2257.964,320.11,2257.964,332.16z"/>
	<path fill="#B1E7FF" d="M2363.344,109.15v160.71c-18.32,24.39-37.52,49.78-87.7,72.02v-53.77
		C2328.464,255.2,2362.244,202.57,2363.344,109.15z"/>
</g>
</svg>
