<?xml version="1.0" encoding="utf-8"?>
<!-- Generator: Adobe Illustrator 25.0.1, SVG Export Plug-In . SVG Version: 6.00 Build 0)  -->
<svg version="1.1" id="Layer_1" xmlns="http://www.w3.org/2000/svg" xmlns:xlink="http://www.w3.org/1999/xlink" x="0px" y="0px"
	 width="1110.312px" height="777.972px" viewBox="0 0 1110.312 777.972" enable-background="new 0 0 1110.312 777.972"
	 xml:space="preserve">
<g>
	<path fill="#FFFFFF" d="M583.062,212.977h0.01c-0.01,0.11-0.01,0.23-0.01,0.34V212.977z"/>
	<path fill="#FFFFFF" d="M613.153,212.977h0.01v0.34C613.163,213.208,613.163,213.088,613.153,212.977z"/>
	<path fill="#EC8545" d="M555.153,38.847c-129.07,0-233.7,104.63-233.7,233.7c0,22.74,3.25,44.71,9.31,65.49l182.5-268.01
		c1.36-1.99,3.86-2.87,6.17-2.16s3.88,2.84,3.88,5.26v68.56h111.5c12.96,0,23.5,10.54,23.5,23.5v21.85c0,3.04-2.46,5.5-5.5,5.5
		c-3.04,0-5.5-2.46-5.5-5.5c0-10.13-8.63-14.66-17.19-14.66h-14.28l112.09,92.25c1.51,1.24,2.25,3.2,1.93,5.13
		c-0.17,1.07-4.26,25.09-22.8,33.99v85.1c0,3.37,0.9,5.89,2.76,7.68c3.27,3.15,8.74,3.5,10.14,3.54h0.54c3,0,5.44,2.4,5.5,5.4
		c0.05,2.99-2.31,5.48-5.3,5.59c-0.11,0.01-0.31,0.01-0.58,0.01h-105.56c-13.06,0-23.69-10.63-23.69-23.69v-58.81h-36.3
		c-20.25,0-38.82-11.89-47.31-30.29l-32.45-70.38c-1.27-2.76-0.07-6.03,2.69-7.3c2.76-1.27,6.03-0.07,7.3,2.69l32.45,70.39
		c6.69,14.51,21.34,23.89,37.32,23.89h41.8c3.04,0,5.5,2.46,5.5,5.5v64.31c0,6.99,5.69,12.69,12.69,12.69h84.24
		c-1.8-3.21-2.74-7.01-2.74-11.22v-120.82c0-3.03,2.46-5.5,5.5-5.5c3.04,0,5.5,2.47,5.5,5.5v22.65c6.8-5.81,10-15.01,11.26-19.71
		l-119.79-98.59h-14.99c-12.62,0-22.89,10.27-22.89,22.89v36.78c0,3.94,3.21,7.14,7.14,7.14h57.93c3.03,0,5.5,2.46,5.5,5.5
		s-2.47,5.5-5.5,5.5h-57.93c-10,0-18.14-8.14-18.14-18.14v-36.78c0-18.69,15.21-33.89,33.89-33.89h46.58
		c6.63,0,12.53,1.78,17.19,4.89v-1.08c0-6.89-5.61-12.5-12.5-12.5h-117c-3.04,0-5.5-2.46-5.5-5.5v-56.21l-177.26,260.31
		c0.42,1.17,0.84,2.33,1.28,3.49h76.07c18.37,0,35.37,9.96,44.35,25.99l62.5,111.49v-158.98c0-3.03,2.46-5.5,5.5-5.5
		c3.04,0,5.5,2.47,5.5,5.5v171.65c8.18,0.88,16.49,1.32,24.9,1.32c129.07,0,233.71-104.63,233.71-233.7
		S684.223,38.847,555.153,38.847z M613.973,220.948c0,1.5-1.22,2.72-2.72,2.72h-26.28c-1.5,0-2.72-1.22-2.72-2.72v-7.29
		c0-0.12,0-0.25,0.01-0.36c0.24-6.5,7.25-11.71,15.85-11.71c8.6,0,15.61,5.21,15.85,11.71c0.01,0.11,0.01,0.24,0.01,0.36V220.948z
		 M549.653,279.597c0-10.34,8.41-18.75,18.75-18.75h110.75c3.04,0,5.5,2.46,5.5,5.5c0,3.03-2.46,5.5-5.5,5.5h-110.75
		c-4.27,0-7.75,3.47-7.75,7.75v26.97c0,3.03-2.46,5.5-5.5,5.5c-3.03,0-5.5-2.47-5.5-5.5V279.597z M447.163,386.148
		c-7.04-12.56-20.36-20.37-34.76-20.37h-71.61c30.51,70.05,94.34,122.24,171.48,136.54L447.163,386.148z"/>
	<path fill="#FFFFFF" d="M583.062,212.977h0.01c-0.01,0.11-0.01,0.23-0.01,0.34V212.977z"/>
	<path fill="#FFFFFF" d="M613.163,212.977v0.34c0-0.11,0-0.23-0.01-0.34H613.163z"/>
	<path fill="#FFFFFF" d="M583.073,212.977c-0.01,0.11-0.01,0.23-0.01,0.34v-0.34H583.073z"/>
	<path fill="#FFFFFF" d="M613.163,212.977v0.34c0-0.11,0-0.23-0.01-0.34H613.163z"/>
	<g>
		<g>
			<path fill="#2C3F4C" d="M121.51,633.469v42.516H55.594v-42.516H43.156v103.25h12.437v-48.5h65.916v48.5h12.428v-103.25H121.51z"
				/>
		</g>
		<g>
			<path fill="#2C3F4C" d="M214.812,723.375v-34.656h38.25V676.5h-38.25v-30.938h73.312v-12.094h-86.036v103.25h88.661v-13.344
				H214.812z"/>
		</g>
		<g>
			<path fill="#2C3F4C" d="M398.186,633.469h-50.581v103.25h47.352c32.339,0,51.23-20.12,51.23-51.25
				C446.188,655.734,428.826,633.469,398.186,633.469z M396.896,723.938h-36.865v-78.375h37.688
				c21.63,0,36.094,19.594,36.094,39.656C433.812,703.688,419.556,723.938,396.896,723.938z"/>
		</g>
		<g>
			<path fill="#2C3F4C" d="M553.53,633.469h-50.581v103.25h47.352c32.339,0,51.23-20.12,51.23-51.25
				C601.531,655.734,584.17,633.469,553.53,633.469z M552.24,723.938h-36.865v-78.375h37.688c21.63,0,36.094,19.594,36.094,39.656
				C589.156,703.688,574.9,723.938,552.24,723.938z"/>
		</g>
		<g>
			<path fill="#2C3F4C" d="M703.625,633.469h-12.638l-49.753,103.25h14.62l16.082-35.75h49.594l16.594,35.75h14.062L703.625,633.469
				z M677.844,688.688l19.359-40.716l18.61,40.716H677.844z"/>
		</g>
		<g>
			<path fill="#2C3F4C" d="M807.656,720.844c-5.198,0-9.118,3.913-9.118,9.106c0,5.836,4.59,8.894,9.118,8.894
				c5.147,0,8.891-3.744,8.891-8.894C816.547,724.672,812.803,720.844,807.656,720.844z"/>
		</g>
		<g>
			<path fill="#2C3F4C" d="M881.098,632.719v104.75h13.572v-104.75H881.098z"/>
			<path fill="#2C3F4C" d="M880.646,632.219v105.75h14.475v-105.75H880.646z M894.219,736.969h-12.67v-103.75h12.67V736.969z"/>
		</g>
		<g>
			<path fill="#2C3F4C" d="M1011.309,630.719c-32.24,0-55.635,22.743-55.635,54.079c0,31.475,23.395,54.327,55.635,54.327
				c32.355,0,55.847-22.852,55.847-54.327C1067.156,652.956,1044.186,630.719,1011.309,630.719z M1011.307,726.047
				c-12.52,0-23.28-4.141-31.136-11.974c-7.539-7.516-11.699-17.967-11.699-29.44c0-11.484,4.16-21.934,11.699-29.45
				c7.856-7.833,18.616-11.964,31.136-11.964c24.94,0,43.053,17.414,43.053,41.414
				C1054.359,709.011,1036.652,726.047,1011.307,726.047z"/>
		</g>
	</g>
</g>
</svg>
