<?xml version="1.0" encoding="utf-8"?>
<!-- Generator: Adobe Illustrator 25.0.1, SVG Export Plug-In . SVG Version: 6.00 Build 0)  -->
<svg version="1.1" id="Layer_1" xmlns="http://www.w3.org/2000/svg" xmlns:xlink="http://www.w3.org/1999/xlink" x="0px" y="0px"
	 width="732.7px" height="149.2px" viewBox="0 0 732.7 149.2" enable-background="new 0 0 732.7 149.2" xml:space="preserve">
<g>
	<linearGradient id="SVGID_1_" gradientUnits="userSpaceOnUse" x1="12.6098" y1="51.5494" x2="151.2095" y2="99.4917">
		<stop  offset="0" style="stop-color:#124097"/>
		<stop  offset="1" style="stop-color:#44AFBF"/>
	</linearGradient>
	<path fill="url(#SVGID_1_)" d="M45.9,144.8C28.3,139,17,122.2,17,122.2l73.6,25.1C90.6,147.2,61.2,149.9,45.9,144.8z M68.1,2
		l73.6,25.1c0,0-11.4-16.9-28.9-22.7C97.4-0.7,68.1,2,68.1,2z M7.1,85.5l25.1-73.6c0,0-16.9,11.4-22.7,28.9
		C4.4,56.1,7.1,85.5,7.1,85.5z M152.3,63l-25.1,73.6c0,0,16.9-11.4,22.7-28.9C155,92.4,152.3,63,152.3,63z"/>
	<polygon points="334.6,21.9 334.6,60.1 244.6,60.1 244.6,21.9 217.6,21.9 217.6,124.5 244.6,124.5 244.6,87.1 334.6,87.1 
		334.6,124.5 361.6,124.5 361.6,21.9 	"/>
	<path d="M529.3,21.9l-57.7,78.7L414,21.9l-35,0.3l70.8,93.7c11,14.5,32.7,14.5,43.7,0l70.8-93.7L529.3,21.9z"/>
	<path d="M726.2,52c-1.5-16.9-15.6-30.1-32.9-30.1h-84.8v0h-27v102.7h27V98.1h90.8v26.5h27v-22.8c0-7.3-4.2-13.7-10.2-16.9
		c6.1-3.3,10.2-9.8,10.2-17.3v-8v-4.7V52H726.2z M699.4,71.1h-90.8V48.9h90.8V52v7.6V71.1z"/>
</g>
</svg>
