<?xml version="1.0" encoding="UTF-8" standalone="no"?>
<svg
   xmlns:dc="http://purl.org/dc/elements/1.1/"
   xmlns:cc="http://creativecommons.org/ns#"
   xmlns:rdf="http://www.w3.org/1999/02/22-rdf-syntax-ns#"
   xmlns:svg="http://www.w3.org/2000/svg"
   xmlns="http://www.w3.org/2000/svg"
   xmlns:sodipodi="http://sodipodi.sourceforge.net/DTD/sodipodi-0.dtd"
   xmlns:inkscape="http://www.inkscape.org/namespaces/inkscape"
   width="99"
   height="30"
   viewBox="0 0 99 30"
   version="1.1"
   id="svg3"
   sodipodi:docname="immuta-query.svg"
   inkscape:version="1.0.1 (3bc2e813f5, 2020-09-07)">
  <metadata
     id="metadata9">
    <rdf:RDF>
      <cc:Work
         rdf:about="">
        <dc:format>image/svg+xml</dc:format>
        <dc:type
           rdf:resource="http://purl.org/dc/dcmitype/StillImage" />
        <dc:title></dc:title>
      </cc:Work>
    </rdf:RDF>
  </metadata>
  <defs
     id="defs7" />
  <sodipodi:namedview
     pagecolor="#ffffff"
     bordercolor="#666666"
     borderopacity="1"
     objecttolerance="10"
     gridtolerance="10"
     guidetolerance="10"
     inkscape:pageopacity="0"
     inkscape:pageshadow="2"
     inkscape:window-width="1920"
     inkscape:window-height="1017"
     id="namedview5"
     showgrid="false"
     inkscape:zoom="10.525253"
     inkscape:cx="49.5"
     inkscape:cy="8"
     inkscape:window-x="-8"
     inkscape:window-y="-8"
     inkscape:window-maximized="1"
     inkscape:current-layer="svg3" />
  <path
     id="im-top-logo-g"
     d="m 65.5,2.6 h 2.6 v 5.2 c 0,3.5 -2.2,5.7 -5.2,5.7 -3,0 -5.1,-2.2 -5.1,-5.7 V 2.6 h 2.6 v 5.2 c 0,2.1 0.9,3.3 2.5,3.3 1.6,0 2.6,-1.2 2.6,-3.3 V 2.6 Z M 28.1,10.5 24.3,2.6 H 21.4 V 13.3 H 24 V 7.9 l 2.6,5.5 h 2.9 l 2.6,-5.5 v 5.4 h 2.6 V 2.6 H 31.8 Z M 53,2.6 h -2.9 l -3.7,7.8 -3.8,-7.8 h -2.9 v 10.7 h 2.6 V 7.9 l 2.6,5.5 h 2.9 l 2.6,-5.5 v 5.4 H 53 V 2.6 Z m 29.1,0 H 71.9 V 5 h 3.8 v 8.3 h 2.6 V 5 h 3.8 c 0,0 0,-2.4 0,-2.4 z m 14,10.8 h -2.8 l -0.7,-1.7 h -5.2 l -0.7,1.7 H 84 L 88.6,2.7 h 2.9 z M 91.7,9.6 90,5.6 88.3,9.6 Z M 16.9,0 V 16 H 0.9 V 0 c 0,0 16,0 16,0 z m -3.4,2.6 h -2.6 v 10.7 h 2.6 z m 84.3,0 -0.6,1.1 -0.6,-1.1 h -0.3 v 1.7 h 0.4 v -1 l 0.5,0.8 h 0.2 l 0.5,-0.8 v 1 h 0.4 V 2.6 Z M 94.4,3 H 95 v 1.4 h 0.4 V 3 H 96 V 2.6 h -1.5 z"
     fill="#000000"
     fill-rule="nonzero" />
  <g
     aria-label="Query engine"
     id="text13"
     style="font-size:8px;line-height:1.25;font-family:sans-serif">
    <path
       d="m 30.481228,29.168585 q -0.234375,0.05859 -0.464844,0.08203 -0.226562,0.02734 -0.464844,0.02734 -0.679687,0 -1.09375,-0.375 -0.410156,-0.371094 -0.445312,-1.066406 -0.09375,0.01563 -0.183594,0.01953 -0.08594,0.0078 -0.167969,0.0078 -0.613281,0 -1.117187,-0.203125 -0.5,-0.203125 -0.851563,-0.589843 -0.351562,-0.386719 -0.542968,-0.949219 -0.1875,-0.5625 -0.1875,-1.285156 0,-0.710938 0.1875,-1.273438 0.1875,-0.566406 0.546875,-0.96875 0.34375,-0.382812 0.851562,-0.585937 0.511719,-0.203125 1.113281,-0.203125 0.625,0 1.121094,0.207031 0.5,0.203125 0.847656,0.582031 0.355469,0.390625 0.542969,0.957031 0.191406,0.566407 0.191406,1.285157 0,1.066406 -0.4375,1.796875 -0.433593,0.730468 -1.167968,1.023437 0.01563,0.445313 0.210937,0.691406 0.195313,0.246094 0.710938,0.246094 0.160156,0 0.378906,-0.05078 0.222656,-0.04687 0.316406,-0.08594 h 0.105469 z m -0.921875,-4.332031 q 0,-1.132813 -0.507813,-1.746094 -0.507812,-0.617188 -1.386718,-0.617188 -0.886719,0 -1.394532,0.617188 -0.503906,0.613281 -0.503906,1.746094 0,1.144531 0.515625,1.753906 0.515625,0.605469 1.382813,0.605469 0.867187,0 1.378906,-0.605469 0.515625,-0.609375 0.515625,-1.753906 z"
       style="font-size:8px"
       id="path15" />
    <path
       d="m 35.149197,27.742804 h -0.734375 v -0.484375 q -0.371094,0.292968 -0.710938,0.449218 -0.339844,0.15625 -0.75,0.15625 -0.6875,0 -1.070312,-0.417968 -0.382813,-0.421875 -0.382813,-1.234375 v -2.832032 h 0.734375 v 2.484375 q 0,0.332032 0.03125,0.570313 0.03125,0.234375 0.132813,0.402344 0.105468,0.171875 0.273437,0.25 0.167969,0.07813 0.488281,0.07813 0.285157,0 0.621094,-0.148438 0.339844,-0.148437 0.632813,-0.378906 v -3.257813 h 0.734375 z"
       style="font-size:8px"
       id="path17" />
    <path
       d="m 40.246853,25.637335 h -3.214844 q 0,0.402344 0.121094,0.703125 0.121094,0.296875 0.332031,0.488281 0.203125,0.1875 0.480469,0.28125 0.28125,0.09375 0.617187,0.09375 0.445313,0 0.894532,-0.175781 0.453125,-0.179688 0.644531,-0.351563 h 0.03906 v 0.800782 q -0.371093,0.15625 -0.757812,0.261718 -0.386719,0.105469 -0.8125,0.105469 -1.085938,0 -1.695313,-0.585937 -0.609375,-0.589844 -0.609375,-1.671875 0,-1.070313 0.582032,-1.699219 0.585937,-0.628906 1.539062,-0.628906 0.882813,0 1.359375,0.515625 0.480469,0.515625 0.480469,1.464843 z m -0.714844,-0.5625 q -0.0039,-0.578125 -0.292969,-0.894531 -0.285156,-0.316407 -0.871093,-0.316407 -0.589844,0 -0.941407,0.347657 -0.347656,0.347656 -0.394531,0.863281 z"
       style="font-size:8px"
       id="path19" />
    <path
       d="m 44.08279,24.180304 h -0.03906 q -0.164063,-0.03906 -0.320313,-0.05469 -0.152343,-0.01953 -0.363281,-0.01953 -0.339844,0 -0.65625,0.152344 -0.316406,0.148437 -0.609375,0.386718 v 3.097657 h -0.734375 v -4.363282 h 0.734375 v 0.644532 q 0.4375,-0.351563 0.769531,-0.496094 0.335938,-0.148438 0.683594,-0.148438 0.191406,0 0.277344,0.01172 0.08594,0.0078 0.257812,0.03516 z"
       style="font-size:8px"
       id="path21" />
    <path
       d="m 48.547634,23.379522 -2.546875,5.972657 h -0.785156 l 0.8125,-1.820313 -1.738281,-4.152344 h 0.796875 l 1.339843,3.234375 1.351563,-3.234375 z"
       style="font-size:8px"
       id="path23" />
    <path
       d="m 55.973415,25.637335 h -3.214843 q 0,0.402344 0.121093,0.703125 0.121094,0.296875 0.332032,0.488281 0.203125,0.1875 0.480468,0.28125 0.28125,0.09375 0.617188,0.09375 0.445312,0 0.894531,-0.175781 0.453125,-0.179688 0.644531,-0.351563 h 0.03906 v 0.800782 q -0.371094,0.15625 -0.757813,0.261718 -0.386718,0.105469 -0.8125,0.105469 -1.085937,0 -1.695312,-0.585937 -0.609375,-0.589844 -0.609375,-1.671875 0,-1.070313 0.582031,-1.699219 0.585938,-0.628906 1.539063,-0.628906 0.882812,0 1.359375,0.515625 0.480468,0.515625 0.480468,1.464843 z m -0.714843,-0.5625 q -0.0039,-0.578125 -0.292969,-0.894531 -0.285156,-0.316407 -0.871094,-0.316407 -0.589844,0 -0.941406,0.347657 -0.347656,0.347656 -0.394531,0.863281 z"
       style="font-size:8px"
       id="path25" />
    <path
       d="m 60.735134,27.742804 h -0.734375 v -2.484375 q 0,-0.300782 -0.03516,-0.5625 -0.03516,-0.265625 -0.128906,-0.414063 -0.09766,-0.164062 -0.28125,-0.242187 -0.183594,-0.08203 -0.476563,-0.08203 -0.300781,0 -0.628906,0.148438 -0.328125,0.148437 -0.628906,0.378906 v 3.257813 h -0.734375 v -4.363282 h 0.734375 v 0.484375 q 0.34375,-0.285156 0.710937,-0.445312 0.367188,-0.160156 0.753906,-0.160156 0.707032,0 1.078125,0.425781 0.371094,0.425781 0.371094,1.226562 z"
       style="font-size:8px"
       id="path27" />
    <path
       d="m 65.688259,27.24671 q 0,1.109375 -0.503906,1.628906 -0.503906,0.519531 -1.550781,0.519531 -0.347657,0 -0.679688,-0.05078 -0.328125,-0.04687 -0.648437,-0.136719 v -0.75 h 0.03906 q 0.179688,0.07031 0.570313,0.171875 0.390625,0.105469 0.78125,0.105469 0.375,0 0.621093,-0.08984 0.246094,-0.08984 0.382813,-0.25 0.136719,-0.152343 0.195312,-0.367187 0.05859,-0.214844 0.05859,-0.480469 v -0.398437 q -0.332031,0.265625 -0.636719,0.398437 -0.300781,0.128906 -0.769531,0.128906 -0.78125,0 -1.242187,-0.5625 -0.457032,-0.566406 -0.457032,-1.59375 0,-0.5625 0.15625,-0.96875 0.160157,-0.410156 0.433594,-0.707031 0.253906,-0.277344 0.617188,-0.429687 0.363281,-0.15625 0.722656,-0.15625 0.378906,0 0.632812,0.07813 0.257813,0.07422 0.542969,0.230468 l 0.04687,-0.1875 h 0.6875 z m -0.734375,-0.703125 v -2.378906 q -0.292969,-0.132813 -0.546875,-0.1875 -0.25,-0.05859 -0.5,-0.05859 -0.605469,0 -0.953125,0.40625 -0.347656,0.40625 -0.347656,1.179687 0,0.734375 0.257812,1.113282 0.257813,0.378906 0.855469,0.378906 0.320313,0 0.640625,-0.121094 0.324219,-0.125 0.59375,-0.332031 z"
       style="font-size:8px"
       id="path29" />
    <path
       d="m 67.922634,22.649054 h -0.828125 v -0.761719 h 0.828125 z m -0.04687,5.09375 h -0.734375 v -4.363282 h 0.734375 z"
       style="font-size:8px"
       id="path31" />
    <path
       d="m 72.977322,27.742804 h -0.734375 v -2.484375 q 0,-0.300782 -0.03516,-0.5625 -0.03516,-0.265625 -0.128906,-0.414063 -0.09766,-0.164062 -0.28125,-0.242187 -0.183594,-0.08203 -0.476562,-0.08203 -0.300782,0 -0.628907,0.148438 -0.328125,0.148437 -0.628906,0.378906 v 3.257813 h -0.734375 v -4.363282 h 0.734375 v 0.484375 q 0.34375,-0.285156 0.710938,-0.445312 0.367187,-0.160156 0.753906,-0.160156 0.707031,0 1.078125,0.425781 0.371094,0.425781 0.371094,1.226562 z"
       style="font-size:8px"
       id="path33" />
    <path
       d="m 78.043728,25.637335 h -3.214844 q 0,0.402344 0.121094,0.703125 0.121094,0.296875 0.332031,0.488281 0.203125,0.1875 0.480469,0.28125 0.28125,0.09375 0.617187,0.09375 0.445313,0 0.894532,-0.175781 0.453125,-0.179688 0.644531,-0.351563 h 0.03906 v 0.800782 q -0.371093,0.15625 -0.757812,0.261718 -0.386719,0.105469 -0.8125,0.105469 -1.085938,0 -1.695313,-0.585937 -0.609375,-0.589844 -0.609375,-1.671875 0,-1.070313 0.582032,-1.699219 0.585937,-0.628906 1.539062,-0.628906 0.882813,0 1.359375,0.515625 0.480469,0.515625 0.480469,1.464843 z m -0.714844,-0.5625 q -0.0039,-0.578125 -0.292969,-0.894531 -0.285156,-0.316407 -0.871093,-0.316407 -0.589844,0 -0.941407,0.347657 -0.347656,0.347656 -0.394531,0.863281 z"
       style="font-size:8px"
       id="path35" />
  </g>
</svg>
