<svg width="99" height="16" viewBox="0 0 99 16" xmlns="http://www.w3.org/2000/svg"><path id="im-top-logo-g" d="M65.5,2.6h2.6v5.2c0,3.5-2.2,5.7-5.2,5.7c-3,0-5.1-2.2-5.1-5.7V2.6h2.6v5.2c0,2.1,0.9,3.3,2.5,3.3 c1.6,0,2.6-1.2,2.6-3.3V2.6z M28.1,10.5l-3.8-7.9h-2.9v10.7H24V7.9l2.6,5.5h2.9l2.6-5.5v5.4h2.6V2.6h-2.9L28.1,10.5z M53,2.6h-2.9 l-3.7,7.8l-3.8-7.8h-2.9v10.7h2.6V7.9l2.6,5.5h2.9l2.6-5.5v5.4H53V2.6L53,2.6z M82.1,2.6H71.9V5h3.8v8.3h2.6V5h3.8 C82.1,5,82.1,2.6,82.1,2.6z M96.1,13.4h-2.8l-0.7-1.7h-5.2l-0.7,1.7H84l4.6-10.7h2.9L96.1,13.4z M91.7,9.6l-1.7-4l-1.7,4H91.7z M16.9,0v16h-16V0C0.9,0,16.9,0,16.9,0z M13.5,2.6h-2.6v10.7h2.6V2.6z M97.8,2.6l-0.6,1.1l-0.6-1.1h-0.3v1.7h0.4v-1l0.5,0.8h0.2 l0.5-0.8v1h0.4V2.6H97.8z M94.4,3H95v1.4h0.4V3H96V2.6h-1.5L94.4,3z" fill="#000" fill-rule="nonzero"></path></svg>