<?xml version="1.0" encoding="utf-8"?>
<!-- Generator: Adobe Illustrator 25.0.1, SVG Export Plug-In . SVG Version: 6.00 Build 0)  -->
<svg version="1.1" id="Layer_1" xmlns="http://www.w3.org/2000/svg" xmlns:xlink="http://www.w3.org/1999/xlink" x="0px" y="0px"
	 width="166px" height="36px" viewBox="0 0 166 36" enable-background="new 0 0 166 36" xml:space="preserve">
<desc>Created with Sketch.</desc>
<g id="Symbols">
	<g>
		<g id="Navigation_x2F_Main_8_" transform="translate(-120.000000, -60.000000)">
			<path id="Logo_8_" fill-rule="evenodd" clip-rule="evenodd" fill="#1C1D1F" d="M154.4,95.3h-8V78.9c0-2.5-2-4.5-4.5-4.5
				c-2.5,0-4.5,2-4.5,4.5v16.4h-8V78.9c0-6.8,5.6-12.4,12.5-12.4c6.9,0,12.5,5.6,12.5,12.4L154.4,95.3L154.4,95.3z M120,69.4h8v25.9
				h-8V69.4z M184.7,85.3C182.6,92,177.2,96,170.4,96c-4.3,0-7.7-1.4-10.6-4.4c-2.7-2.8-4.1-6.5-4.1-10.4s1.5-7.4,4.3-10.2
				c2.8-2.9,6.3-4.4,10.3-4.4c7,0,12.2,3.8,14.4,10.9H176c-1.1-1.9-3.1-3-5.8-3c-3.7,0-6.4,2.8-6.4,6.6c0,4.3,2.7,6.9,6.6,6.9
				c2.2,0,4.1-0.9,5.4-2.7H184.7z M189.8,71.1c2.8-2.8,6.5-4.4,10.3-4.4c4.1,0,7.5,1.4,10.4,4c3,2.8,4.6,6.6,4.6,10.4
				c0,4.2-1.4,7.7-4.2,10.4c-2.8,2.8-6.4,4.4-10.6,4.4c-4.3,0-7.7-1.4-10.6-4.4c-2.7-2.8-4.1-6.4-4.1-10.3
				C185.6,77.4,187,73.8,189.8,71.1z M200.2,88.2c3.6,0,6.6-3,6.6-6.8c0-3.8-3-6.9-6.6-6.9s-6.6,3-6.6,6.9
				C193.6,85.2,196.7,88.2,200.2,88.2z M216.4,82.7v12.5h8V82.7c0-4.3,3.5-7.7,7.7-7.7v-8C223.4,67.1,216.4,74.1,216.4,82.7z
				 M247.4,74.9V67h-5.9v-6.6h-8v34.9h8V74.9H247.4z M268.5,67v3.5c-1.9-2.4-4.5-3.5-7.9-3.5c-3.5,0-6.7,1.3-9.3,3.8
				c-2.9,2.8-4.5,6.4-4.5,10.4c0,4.4,1.7,8.1,4.9,10.9c2.4,2.2,5.4,3.3,8.7,3.3c3.3,0,5.8-0.9,8.3-3.3v3.1h8V67H268.5z M262.4,88
				c-4.2,0-7.2-3-7.2-6.8c0-3.7,3-6.9,6.9-6.9c3.8,0,6.8,3,6.8,7C268.8,85.1,265.9,88,262.4,88z M120,68.1V60h8v8.1H120z M278,95.3
				v-8.1h8v8.1H278z"/>
		</g>
	</g>
</g>
</svg>
