<?xml version="1.0" encoding="UTF-8" standalone="no"?>
<svg
   xmlns:dc="http://purl.org/dc/elements/1.1/"
   xmlns:cc="http://creativecommons.org/ns#"
   xmlns:rdf="http://www.w3.org/1999/02/22-rdf-syntax-ns#"
   xmlns:svg="http://www.w3.org/2000/svg"
   xmlns="http://www.w3.org/2000/svg"
   xmlns:sodipodi="http://sodipodi.sourceforge.net/DTD/sodipodi-0.dtd"
   xmlns:inkscape="http://www.inkscape.org/namespaces/inkscape"
   version="1.1"
   id="Layer_1"
   x="0px"
   y="0px"
   width="178.509px"
   height="104.695px"
   viewBox="0 0 178.509 104.695"
   enable-background="new 0 0 178.509 104.695"
   xml:space="preserve"
   sodipodi:docname="information-builders-webfocus.svg"
   inkscape:version="1.0.1 (3bc2e813f5, 2020-09-07)"><metadata
   id="metadata63"><rdf:RDF><cc:Work
       rdf:about=""><dc:format>image/svg+xml</dc:format><dc:type
         rdf:resource="http://purl.org/dc/dcmitype/StillImage" /></cc:Work></rdf:RDF></metadata><defs
   id="defs61" /><sodipodi:namedview
   pagecolor="#ffffff"
   bordercolor="#666666"
   borderopacity="1"
   objecttolerance="10"
   gridtolerance="10"
   guidetolerance="10"
   inkscape:pageopacity="0"
   inkscape:pageshadow="2"
   inkscape:window-width="1920"
   inkscape:window-height="1017"
   id="namedview59"
   showgrid="false"
   inkscape:zoom="5.8372406"
   inkscape:cx="89.254501"
   inkscape:cy="52.3475"
   inkscape:window-x="-8"
   inkscape:window-y="-8"
   inkscape:window-maximized="1"
   inkscape:current-layer="text67"
   inkscape:document-rotation="0" />
<g
   id="g56"
   transform="matrix(0.77197915,0,0,0.77197915,21.434469,-0.56947332)">
	<g
   id="g40">
		<path
   fill="#253873"
   d="M 5.207,73.606 V 84.81 H 3.094 V 73.606 Z"
   id="path2" />
		<path
   fill="#253873"
   d="m 9.016,76.871 v 1.281 H 9.24 c 0.32,-0.736 1.056,-1.409 2.513,-1.409 1.761,0 3.089,1.265 3.089,3.329 v 4.738 h -2.017 v -4.546 c 0,-1.104 -0.641,-1.761 -1.793,-1.761 -1.296,0 -1.985,0.801 -1.985,2.209 V 84.81 H 7.031 v -7.939 z"
   id="path4" />
		<path
   fill="#253873"
   d="m 17.754,76.871 v -1.633 c 0,-0.928 0.672,-1.632 1.601,-1.632 h 2.081 v 1.729 h -1.217 c -0.288,0 -0.448,0.16 -0.448,0.479 v 1.057 h 2.081 V 78.6 h -2.081 v 6.211 H 17.754 V 78.6 h -2.017 v -1.729 z"
   id="path6" />
		<path
   fill="#253873"
   d="m 26.637,76.647 c 2.337,0 4.162,1.696 4.162,4.193 0,2.497 -1.825,4.193 -4.162,4.193 -2.337,0 -4.162,-1.696 -4.162,-4.193 0,-2.497 1.825,-4.193 4.162,-4.193 z m 0,6.595 c 1.281,0 2.145,-0.961 2.145,-2.401 0,-1.44 -0.864,-2.4 -2.145,-2.4 -1.28,0 -2.145,0.96 -2.145,2.4 0,1.44 0.865,2.401 2.145,2.401 z"
   id="path8" />
		<path
   fill="#253873"
   d="m 34.096,78.023 h 0.224 c 0.304,-0.88 0.976,-1.185 1.984,-1.185 h 0.769 v 1.825 h -1.185 c -1.024,0 -1.761,0.544 -1.761,1.665 v 4.481 H 32.11 V 76.87 h 1.985 v 1.153 z"
   id="path10" />
		<path
   fill="#253873"
   d="m 40.081,76.871 v 1.185 h 0.224 c 0.336,-0.769 0.992,-1.312 2.097,-1.312 1.024,0 1.777,0.544 2.113,1.345 h 0.224 c 0.352,-0.736 0.992,-1.345 2.257,-1.345 1.457,0 2.625,1.104 2.625,2.753 v 5.314 h -2.017 v -5.154 c 0,-0.736 -0.528,-1.152 -1.296,-1.152 -0.833,0 -1.441,0.48 -1.441,1.473 v 4.834 H 42.85 v -5.154 c 0,-0.736 -0.528,-1.152 -1.297,-1.152 -0.832,0 -1.44,0.48 -1.44,1.473 v 4.834 h -2.017 v -7.939 h 1.985 z"
   id="path12" />
		<path
   fill="#253873"
   d="m 55.014,76.647 c 2.161,0 3.569,1.232 3.569,3.089 v 5.074 h -1.984 v -1.12 h -0.224 c -0.256,0.528 -0.816,1.344 -2.497,1.344 -1.793,0 -2.978,-0.96 -2.978,-2.48 0,-1.265 1.104,-2.145 2.625,-2.305 l 3.041,-0.337 v -0.191 c 0,-0.753 -0.576,-1.345 -1.665,-1.345 -1.057,0 -1.713,0.544 -2.209,1.377 l -1.633,-1.057 c 0.945,-1.184 2.018,-2.049 3.955,-2.049 z m -0.64,6.723 c 1.409,0 2.193,-0.832 2.193,-1.921 v -0.128 l -2.433,0.288 c -0.752,0.096 -1.12,0.368 -1.12,0.832 -0.001,0.544 0.463,0.929 1.36,0.929 z"
   id="path14" />
		<path
   fill="#253873"
   d="m 61.304,76.871 v -2.465 h 2.017 v 2.465 h 2.177 V 78.6 H 63.32 v 4.002 c 0,0.32 0.16,0.48 0.448,0.48 h 1.28 v 1.729 h -2.177 c -0.896,0 -1.568,-0.641 -1.568,-1.537 V 78.6 h -2.017 v -1.729 z"
   id="path16" />
		<path
   fill="#253873"
   d="m 67.85,73.189 c 0.8,0 1.424,0.561 1.424,1.377 0,0.816 -0.624,1.377 -1.424,1.377 -0.8,0 -1.425,-0.561 -1.425,-1.377 0,-0.816 0.624,-1.377 1.425,-1.377 z m 1.008,11.622 h -2.017 v -7.939 h 2.017 z"
   id="path18" />
		<path
   fill="#253873"
   d="m 74.332,76.647 c 2.337,0 4.162,1.696 4.162,4.193 0,2.497 -1.825,4.193 -4.162,4.193 -2.337,0 -4.162,-1.696 -4.162,-4.193 0,-2.497 1.825,-4.193 4.162,-4.193 z m 0,6.595 c 1.281,0 2.145,-0.961 2.145,-2.401 0,-1.44 -0.864,-2.4 -2.145,-2.4 -1.28,0 -2.145,0.96 -2.145,2.4 0,1.44 0.864,2.401 2.145,2.401 z"
   id="path20" />
		<path
   fill="#253873"
   d="m 81.79,76.871 v 1.281 h 0.224 c 0.32,-0.736 1.056,-1.409 2.513,-1.409 1.761,0 3.089,1.265 3.089,3.329 v 4.738 h -2.017 v -4.546 c 0,-1.104 -0.641,-1.761 -1.793,-1.761 -1.296,0 -1.985,0.801 -1.985,2.209 v 4.098 h -2.017 v -7.939 z"
   id="path22" />
		<path
   fill="#253873"
   d="m 35.232,88.606 c 1.937,0 3.313,1.088 3.313,3.009 0,1.345 -0.8,2.177 -1.889,2.481 v 0.191 c 1.088,0.305 1.889,1.137 1.889,2.497 0,1.856 -1.393,3.025 -3.313,3.025 H 30.126 V 88.606 Z m -2.993,4.625 h 2.785 c 0.896,0 1.505,-0.447 1.505,-1.36 0,-0.912 -0.608,-1.345 -1.505,-1.345 h -2.785 z m 0,4.659 h 2.785 c 0.896,0 1.505,-0.448 1.505,-1.36 0,-0.912 -0.608,-1.377 -1.505,-1.377 h -2.785 z"
   id="path24" />
		<path
   fill="#253873"
   d="m 45.651,99.811 v -1.28 h -0.224 c -0.32,0.736 -1.056,1.408 -2.513,1.408 -1.761,0 -3.089,-1.265 -3.089,-3.329 v -4.738 h 2.017 v 4.546 c 0,1.104 0.64,1.761 1.792,1.761 1.296,0 1.985,-0.8 1.985,-2.209 v -4.098 h 2.017 v 7.939 z"
   id="path26" />
		<path
   fill="#253873"
   d="m 50.437,88.189 c 0.8,0 1.424,0.561 1.424,1.377 0,0.816 -0.624,1.377 -1.424,1.377 -0.8,0 -1.425,-0.561 -1.425,-1.377 0,-0.816 0.624,-1.377 1.425,-1.377 z m 1.008,11.622 h -2.017 v -7.939 h 2.017 z"
   id="path28" />
		<path
   fill="#253873"
   d="M 55.254,99.811 H 53.237 V 88.606 h 2.017 z"
   id="path30" />
		<path
   fill="#253873"
   d="m 64.954,99.811 h -1.985 v -1.12 h -0.224 c -0.416,0.672 -1.121,1.344 -2.529,1.344 -1.984,0 -3.649,-1.761 -3.649,-4.193 0,-2.432 1.665,-4.193 3.649,-4.193 1.409,0 2.113,0.672 2.529,1.345 h 0.192 v -4.386 h 2.017 z m -6.371,-3.97 c 0,1.537 0.96,2.401 2.177,2.401 1.249,0 2.177,-0.896 2.177,-2.401 0,-1.505 -0.928,-2.4 -2.177,-2.4 -1.217,-0.001 -2.177,0.864 -2.177,2.4 z"
   id="path32" />
		<path
   fill="#253873"
   d="m 70.25,91.647 c 2.305,0 3.857,1.616 3.857,4.001 v 0.785 H 68.33 c 0.08,1.056 0.833,1.872 1.985,1.872 1.121,0 1.713,-0.624 1.985,-1.185 l 1.648,0.961 c -0.544,0.832 -1.473,1.952 -3.601,1.952 -2.369,0 -4.082,-1.792 -4.082,-4.257 0,-2.4 1.649,-4.129 3.985,-4.129 z m 1.809,3.377 c -0.144,-1.008 -0.784,-1.648 -1.825,-1.648 -1.136,0 -1.729,0.672 -1.889,1.648 z"
   id="path34" />
		<path
   fill="#253873"
   d="m 77.34,93.023 h 0.224 c 0.304,-0.88 0.976,-1.185 1.984,-1.185 h 0.769 v 1.825 h -1.185 c -1.024,0 -1.761,0.544 -1.761,1.665 v 4.481 H 75.354 V 91.87 h 1.985 v 1.153 z"
   id="path36" />
		<path
   fill="#253873"
   d="m 84.11,91.647 c 1.632,0 2.785,0.72 3.857,1.841 L 86.51,94.64 c -0.608,-0.721 -1.409,-1.36 -2.465,-1.36 -0.752,0 -1.168,0.319 -1.168,0.8 0,0.576 0.592,0.721 1.424,0.816 l 0.272,0.032 c 2.545,0.304 3.49,0.96 3.49,2.417 0,1.553 -1.457,2.688 -3.57,2.688 -2.193,0 -3.409,-1.12 -4.146,-2.24 l 1.601,-1.009 c 0.496,1.041 1.569,1.585 2.593,1.585 0.816,0 1.568,-0.353 1.568,-0.977 0,-0.592 -0.816,-0.704 -1.681,-0.801 L 84.156,96.56 c -2.225,-0.257 -3.233,-0.977 -3.233,-2.449 0,-1.472 1.347,-2.464 3.187,-2.464 z"
   id="path38" />
	</g>
	<rect
   x="42.666"
   y="27.117001"
   fill-rule="evenodd"
   clip-rule="evenodd"
   fill="#253873"
   width="11.32"
   height="42.68"
   id="rect42" />
	<circle
   fill-rule="evenodd"
   clip-rule="evenodd"
   fill="#253873"
   cx="47.962002"
   cy="11.602"
   r="7.5939999"
   id="circle44" />
	<rect
   x="162.52499"
   y="27.117001"
   fill-rule="evenodd"
   clip-rule="evenodd"
   fill="#253873"
   width="11.32"
   height="42.68"
   id="rect46" />
	<circle
   fill-rule="evenodd"
   clip-rule="evenodd"
   fill="#253873"
   cx="167.82201"
   cy="11.602"
   r="7.5939999"
   id="circle48" />
	<circle
   fill-rule="evenodd"
   clip-rule="evenodd"
   fill="#253873"
   cx="107.973"
   cy="11.602"
   r="7.5939999"
   id="circle50" />
	<circle
   fill-rule="evenodd"
   clip-rule="evenodd"
   fill="#253873"
   cx="107.504"
   cy="71.637001"
   r="7.5939999"
   id="circle52" />
	<path
   fill="#253873"
   d="m 137.397,71.633 c 0,15.7 -12.21,28.54 -27.65,29.55 v -11.84 c 8.9,-0.98 16.1,-8.54 16.1,-17.71 0,-9.82 -8.24,-17.81 -18.06,-17.81 -9.2,0 -17.06,7.01 -17.99,15.97 H 78.117 V 3.513 h 11.45 v 44.78 c 5.02,-3.93 11.35,-6.27 18.22,-6.27 16.35,-0.001 29.61,13.259 29.61,29.61 z"
   id="path54" />
</g>
<g
   aria-label="Data Integration"
   id="text67"
   style="font-size:13.3333px;line-height:1.25;font-family:sans-serif"><g
     aria-label="Analytics"
     id="text52"
     style="font-size:13.3333px;line-height:1.25;font-family:sans-serif"><path
       d="M 67.877243,96.449677 H 66.503549 L 65.55303,93.74786 h -4.192697 l -0.950519,2.701817 h -1.30859 l 3.528637,-9.693986 h 1.718745 z m -2.721347,-3.808585 -1.699214,-4.759102 -1.705725,4.759102 z"
       id="path55" /><path
       d="m 75.331651,96.449677 h -1.223955 v -4.140615 q 0,-0.501301 -0.05859,-0.937498 -0.05859,-0.442707 -0.214844,-0.690102 -0.16276,-0.273437 -0.468748,-0.403645 -0.305989,-0.136718 -0.794269,-0.136718 -0.501301,0 -1.048175,0.247395 -0.546873,0.247395 -1.048174,0.631509 v 5.429674 h -1.223955 v -7.272118 h 1.223955 v 0.80729 q 0.572915,-0.475259 1.184893,-0.742186 0.611977,-0.266926 1.256507,-0.266926 1.178382,0 1.79687,0.709634 0.618488,0.709633 0.618488,2.044265 z"
       id="path57" /><path
       d="M 83.339445,96.449677 H 82.122 v -0.774738 q -0.16276,0.110677 -0.442707,0.312499 -0.273437,0.195312 -0.533853,0.312499 -0.305989,0.14974 -0.703123,0.247396 -0.397135,0.104166 -0.930987,0.104166 -0.983071,0 -1.666663,-0.65104 -0.683592,-0.65104 -0.683592,-1.660152 0,-0.826821 0.351562,-1.334632 0.358072,-0.514322 1.015622,-0.80729 0.664061,-0.292968 1.595048,-0.397134 0.930987,-0.104167 1.998693,-0.15625 V 91.4562 q 0,-0.416666 -0.149739,-0.690103 -0.143229,-0.273437 -0.416666,-0.429686 -0.260416,-0.149739 -0.624998,-0.201823 -0.364583,-0.05208 -0.761717,-0.05208 -0.48177,0 -1.074216,0.130208 -0.592446,0.123698 -1.223955,0.364583 h -0.0651 v -1.243487 q 0.358072,-0.09766 1.035153,-0.214843 0.677082,-0.117187 1.334632,-0.117187 0.768228,0 1.334632,0.130208 0.572916,0.123697 0.989581,0.429686 0.410156,0.299478 0.624999,0.774738 0.214843,0.475259 0.214843,1.178382 z M 82.122,94.659316 v -2.024734 q -0.559894,0.03255 -1.321611,0.09766 -0.755207,0.0651 -1.197914,0.188802 -0.527342,0.149739 -0.852862,0.468748 -0.32552,0.3125 -0.32552,0.865884 0,0.624998 0.377603,0.944008 0.377603,0.312499 1.152341,0.312499 0.644529,0 1.178382,-0.247395 0.533853,-0.253906 0.989581,-0.605468 z"
       id="path59" /><path
       d="M 86.933185,96.449677 H 85.70923 V 86.319494 h 1.223955 z"
       id="path61" /><path
       d="m 95.644102,89.177559 -4.244781,9.954402 H 90.09073 l 1.354163,-3.033846 -2.897128,-6.920556 h 1.328122 l 2.233067,5.390612 2.252599,-5.390612 z"
       id="path63" /><path
       d="m 101.02169,96.384573 q -0.34505,0.09114 -0.7552,0.149739 -0.403648,0.05859 -0.722658,0.05859 -1.113278,0 -1.692704,-0.598957 -0.579425,-0.598956 -0.579425,-1.920568 v -3.867177 h -0.826821 v -1.028644 h 0.826821 v -2.089838 h 1.223955 v 2.089838 h 2.526032 v 1.028644 h -2.526032 v 3.313793 q 0,0.572916 0.02604,0.898436 0.02604,0.319009 0.182292,0.598956 0.143228,0.260416 0.390624,0.384114 0.253905,0.117187 0.768227,0.117187 0.299478,0 0.624998,-0.08463 0.32552,-0.09115 0.46875,-0.149739 h 0.0651 z"
       id="path65" /><path
       d="m 103.81465,87.960115 h -1.3802 v -1.269528 h 1.3802 z m -0.0781,8.489562 h -1.22396 v -7.272118 h 1.22396 z"
       id="path67" /><path
       d="m 111.53599,95.993948 q -0.61198,0.292969 -1.16537,0.455729 -0.54687,0.16276 -1.16536,0.16276 -0.78776,0 -1.44531,-0.227864 -0.65755,-0.234375 -1.12629,-0.703124 -0.47526,-0.468749 -0.73568,-1.184893 -0.26042,-0.716144 -0.26042,-1.673172 0,-1.78385 0.97656,-2.799472 0.98307,-1.015623 2.59114,-1.015623 0.625,0 1.22396,0.175781 0.60547,0.175781 1.10677,0.429686 v 1.360674 h -0.0651 q -0.55989,-0.436197 -1.15885,-0.670571 -0.59245,-0.234375 -1.15885,-0.234375 -1.04166,0 -1.64713,0.703124 -0.59896,0.696612 -0.59896,2.050776 0,1.3151 0.58594,2.024734 0.59244,0.703123 1.66015,0.703123 0.37109,0 0.75521,-0.09766 0.38411,-0.09766 0.6901,-0.253905 0.26693,-0.136719 0.5013,-0.286458 0.23437,-0.15625 0.37109,-0.266926 h 0.0651 z"
       id="path69" /><path
       d="m 118.30029,94.353328 q 0,0.996091 -0.82682,1.63411 -0.82031,0.638019 -2.24609,0.638019 -0.80729,0 -1.48437,-0.188801 -0.67057,-0.195312 -1.1263,-0.423176 v -1.373695 h 0.0651 q 0.57942,0.436197 1.28906,0.696613 0.70963,0.253906 1.36067,0.253906 0.80729,0 1.26302,-0.260416 0.45573,-0.260416 0.45573,-0.820311 0,-0.429686 -0.2474,-0.65104 -0.24739,-0.221353 -0.95052,-0.377603 -0.26041,-0.05859 -0.68359,-0.136718 -0.41666,-0.07813 -0.76172,-0.169271 -0.95702,-0.253905 -1.36067,-0.742185 -0.39713,-0.494791 -0.39713,-1.210935 0,-0.449217 0.18229,-0.846352 0.1888,-0.397134 0.5664,-0.709634 0.36458,-0.305988 0.92448,-0.481769 0.5664,-0.182291 1.26302,-0.182291 0.65104,0 1.3151,0.16276 0.67057,0.156249 1.11328,0.384113 v 1.308591 h -0.0651 q -0.46875,-0.345051 -1.13932,-0.579426 -0.67057,-0.240885 -1.3151,-0.240885 -0.67057,0 -1.13281,0.260416 -0.46224,0.253906 -0.46224,0.761717 0,0.449218 0.27995,0.677082 0.27344,0.227864 0.88541,0.371093 0.33855,0.07812 0.75521,0.156249 0.42318,0.07813 0.70312,0.143229 0.85287,0.195312 1.3151,0.670571 0.46224,0.48177 0.46224,1.276039 z"
       id="path71" /></g></g></svg>
