<?xml version="1.0" encoding="UTF-8" standalone="no"?>
<svg
   xmlns:dc="http://purl.org/dc/elements/1.1/"
   xmlns:cc="http://creativecommons.org/ns#"
   xmlns:rdf="http://www.w3.org/1999/02/22-rdf-syntax-ns#"
   xmlns:svg="http://www.w3.org/2000/svg"
   xmlns="http://www.w3.org/2000/svg"
   xmlns:sodipodi="http://sodipodi.sourceforge.net/DTD/sodipodi-0.dtd"
   xmlns:inkscape="http://www.inkscape.org/namespaces/inkscape"
   version="1.1"
   id="Layer_1"
   x="0px"
   y="0px"
   width="178.509px"
   height="104.695px"
   viewBox="0 0 178.509 104.695"
   enable-background="new 0 0 178.509 104.695"
   xml:space="preserve"
   sodipodi:docname="information-builders-mdm.svg"
   inkscape:version="1.0.1 (3bc2e813f5, 2020-09-07)"><metadata
   id="metadata63"><rdf:RDF><cc:Work
       rdf:about=""><dc:format>image/svg+xml</dc:format><dc:type
         rdf:resource="http://purl.org/dc/dcmitype/StillImage" /></cc:Work></rdf:RDF></metadata><defs
   id="defs61" /><sodipodi:namedview
   pagecolor="#ffffff"
   bordercolor="#666666"
   borderopacity="1"
   objecttolerance="10"
   gridtolerance="10"
   guidetolerance="10"
   inkscape:pageopacity="0"
   inkscape:pageshadow="2"
   inkscape:window-width="1920"
   inkscape:window-height="1017"
   id="namedview59"
   showgrid="false"
   inkscape:zoom="5.8372406"
   inkscape:cx="89.254501"
   inkscape:cy="52.3475"
   inkscape:window-x="-8"
   inkscape:window-y="-8"
   inkscape:window-maximized="1"
   inkscape:current-layer="Layer_1"
   inkscape:document-rotation="0" />
<g
   id="g56"
   transform="matrix(0.77197915,0,0,0.77197915,21.434469,-0.56947332)">
	<g
   id="g40">
		<path
   fill="#253873"
   d="M 5.207,73.606 V 84.81 H 3.094 V 73.606 Z"
   id="path2" />
		<path
   fill="#253873"
   d="m 9.016,76.871 v 1.281 H 9.24 c 0.32,-0.736 1.056,-1.409 2.513,-1.409 1.761,0 3.089,1.265 3.089,3.329 v 4.738 h -2.017 v -4.546 c 0,-1.104 -0.641,-1.761 -1.793,-1.761 -1.296,0 -1.985,0.801 -1.985,2.209 V 84.81 H 7.031 v -7.939 z"
   id="path4" />
		<path
   fill="#253873"
   d="m 17.754,76.871 v -1.633 c 0,-0.928 0.672,-1.632 1.601,-1.632 h 2.081 v 1.729 h -1.217 c -0.288,0 -0.448,0.16 -0.448,0.479 v 1.057 h 2.081 V 78.6 h -2.081 v 6.211 H 17.754 V 78.6 h -2.017 v -1.729 z"
   id="path6" />
		<path
   fill="#253873"
   d="m 26.637,76.647 c 2.337,0 4.162,1.696 4.162,4.193 0,2.497 -1.825,4.193 -4.162,4.193 -2.337,0 -4.162,-1.696 -4.162,-4.193 0,-2.497 1.825,-4.193 4.162,-4.193 z m 0,6.595 c 1.281,0 2.145,-0.961 2.145,-2.401 0,-1.44 -0.864,-2.4 -2.145,-2.4 -1.28,0 -2.145,0.96 -2.145,2.4 0,1.44 0.865,2.401 2.145,2.401 z"
   id="path8" />
		<path
   fill="#253873"
   d="m 34.096,78.023 h 0.224 c 0.304,-0.88 0.976,-1.185 1.984,-1.185 h 0.769 v 1.825 h -1.185 c -1.024,0 -1.761,0.544 -1.761,1.665 v 4.481 H 32.11 V 76.87 h 1.985 v 1.153 z"
   id="path10" />
		<path
   fill="#253873"
   d="m 40.081,76.871 v 1.185 h 0.224 c 0.336,-0.769 0.992,-1.312 2.097,-1.312 1.024,0 1.777,0.544 2.113,1.345 h 0.224 c 0.352,-0.736 0.992,-1.345 2.257,-1.345 1.457,0 2.625,1.104 2.625,2.753 v 5.314 h -2.017 v -5.154 c 0,-0.736 -0.528,-1.152 -1.296,-1.152 -0.833,0 -1.441,0.48 -1.441,1.473 v 4.834 H 42.85 v -5.154 c 0,-0.736 -0.528,-1.152 -1.297,-1.152 -0.832,0 -1.44,0.48 -1.44,1.473 v 4.834 h -2.017 v -7.939 h 1.985 z"
   id="path12" />
		<path
   fill="#253873"
   d="m 55.014,76.647 c 2.161,0 3.569,1.232 3.569,3.089 v 5.074 h -1.984 v -1.12 h -0.224 c -0.256,0.528 -0.816,1.344 -2.497,1.344 -1.793,0 -2.978,-0.96 -2.978,-2.48 0,-1.265 1.104,-2.145 2.625,-2.305 l 3.041,-0.337 v -0.191 c 0,-0.753 -0.576,-1.345 -1.665,-1.345 -1.057,0 -1.713,0.544 -2.209,1.377 l -1.633,-1.057 c 0.945,-1.184 2.018,-2.049 3.955,-2.049 z m -0.64,6.723 c 1.409,0 2.193,-0.832 2.193,-1.921 v -0.128 l -2.433,0.288 c -0.752,0.096 -1.12,0.368 -1.12,0.832 -0.001,0.544 0.463,0.929 1.36,0.929 z"
   id="path14" />
		<path
   fill="#253873"
   d="m 61.304,76.871 v -2.465 h 2.017 v 2.465 h 2.177 V 78.6 H 63.32 v 4.002 c 0,0.32 0.16,0.48 0.448,0.48 h 1.28 v 1.729 h -2.177 c -0.896,0 -1.568,-0.641 -1.568,-1.537 V 78.6 h -2.017 v -1.729 z"
   id="path16" />
		<path
   fill="#253873"
   d="m 67.85,73.189 c 0.8,0 1.424,0.561 1.424,1.377 0,0.816 -0.624,1.377 -1.424,1.377 -0.8,0 -1.425,-0.561 -1.425,-1.377 0,-0.816 0.624,-1.377 1.425,-1.377 z m 1.008,11.622 h -2.017 v -7.939 h 2.017 z"
   id="path18" />
		<path
   fill="#253873"
   d="m 74.332,76.647 c 2.337,0 4.162,1.696 4.162,4.193 0,2.497 -1.825,4.193 -4.162,4.193 -2.337,0 -4.162,-1.696 -4.162,-4.193 0,-2.497 1.825,-4.193 4.162,-4.193 z m 0,6.595 c 1.281,0 2.145,-0.961 2.145,-2.401 0,-1.44 -0.864,-2.4 -2.145,-2.4 -1.28,0 -2.145,0.96 -2.145,2.4 0,1.44 0.864,2.401 2.145,2.401 z"
   id="path20" />
		<path
   fill="#253873"
   d="m 81.79,76.871 v 1.281 h 0.224 c 0.32,-0.736 1.056,-1.409 2.513,-1.409 1.761,0 3.089,1.265 3.089,3.329 v 4.738 h -2.017 v -4.546 c 0,-1.104 -0.641,-1.761 -1.793,-1.761 -1.296,0 -1.985,0.801 -1.985,2.209 v 4.098 h -2.017 v -7.939 z"
   id="path22" />
		<path
   fill="#253873"
   d="m 35.232,88.606 c 1.937,0 3.313,1.088 3.313,3.009 0,1.345 -0.8,2.177 -1.889,2.481 v 0.191 c 1.088,0.305 1.889,1.137 1.889,2.497 0,1.856 -1.393,3.025 -3.313,3.025 H 30.126 V 88.606 Z m -2.993,4.625 h 2.785 c 0.896,0 1.505,-0.447 1.505,-1.36 0,-0.912 -0.608,-1.345 -1.505,-1.345 h -2.785 z m 0,4.659 h 2.785 c 0.896,0 1.505,-0.448 1.505,-1.36 0,-0.912 -0.608,-1.377 -1.505,-1.377 h -2.785 z"
   id="path24" />
		<path
   fill="#253873"
   d="m 45.651,99.811 v -1.28 h -0.224 c -0.32,0.736 -1.056,1.408 -2.513,1.408 -1.761,0 -3.089,-1.265 -3.089,-3.329 v -4.738 h 2.017 v 4.546 c 0,1.104 0.64,1.761 1.792,1.761 1.296,0 1.985,-0.8 1.985,-2.209 v -4.098 h 2.017 v 7.939 z"
   id="path26" />
		<path
   fill="#253873"
   d="m 50.437,88.189 c 0.8,0 1.424,0.561 1.424,1.377 0,0.816 -0.624,1.377 -1.424,1.377 -0.8,0 -1.425,-0.561 -1.425,-1.377 0,-0.816 0.624,-1.377 1.425,-1.377 z m 1.008,11.622 h -2.017 v -7.939 h 2.017 z"
   id="path28" />
		<path
   fill="#253873"
   d="M 55.254,99.811 H 53.237 V 88.606 h 2.017 z"
   id="path30" />
		<path
   fill="#253873"
   d="m 64.954,99.811 h -1.985 v -1.12 h -0.224 c -0.416,0.672 -1.121,1.344 -2.529,1.344 -1.984,0 -3.649,-1.761 -3.649,-4.193 0,-2.432 1.665,-4.193 3.649,-4.193 1.409,0 2.113,0.672 2.529,1.345 h 0.192 v -4.386 h 2.017 z m -6.371,-3.97 c 0,1.537 0.96,2.401 2.177,2.401 1.249,0 2.177,-0.896 2.177,-2.401 0,-1.505 -0.928,-2.4 -2.177,-2.4 -1.217,-0.001 -2.177,0.864 -2.177,2.4 z"
   id="path32" />
		<path
   fill="#253873"
   d="m 70.25,91.647 c 2.305,0 3.857,1.616 3.857,4.001 v 0.785 H 68.33 c 0.08,1.056 0.833,1.872 1.985,1.872 1.121,0 1.713,-0.624 1.985,-1.185 l 1.648,0.961 c -0.544,0.832 -1.473,1.952 -3.601,1.952 -2.369,0 -4.082,-1.792 -4.082,-4.257 0,-2.4 1.649,-4.129 3.985,-4.129 z m 1.809,3.377 c -0.144,-1.008 -0.784,-1.648 -1.825,-1.648 -1.136,0 -1.729,0.672 -1.889,1.648 z"
   id="path34" />
		<path
   fill="#253873"
   d="m 77.34,93.023 h 0.224 c 0.304,-0.88 0.976,-1.185 1.984,-1.185 h 0.769 v 1.825 h -1.185 c -1.024,0 -1.761,0.544 -1.761,1.665 v 4.481 H 75.354 V 91.87 h 1.985 v 1.153 z"
   id="path36" />
		<path
   fill="#253873"
   d="m 84.11,91.647 c 1.632,0 2.785,0.72 3.857,1.841 L 86.51,94.64 c -0.608,-0.721 -1.409,-1.36 -2.465,-1.36 -0.752,0 -1.168,0.319 -1.168,0.8 0,0.576 0.592,0.721 1.424,0.816 l 0.272,0.032 c 2.545,0.304 3.49,0.96 3.49,2.417 0,1.553 -1.457,2.688 -3.57,2.688 -2.193,0 -3.409,-1.12 -4.146,-2.24 l 1.601,-1.009 c 0.496,1.041 1.569,1.585 2.593,1.585 0.816,0 1.568,-0.353 1.568,-0.977 0,-0.592 -0.816,-0.704 -1.681,-0.801 L 84.156,96.56 c -2.225,-0.257 -3.233,-0.977 -3.233,-2.449 0,-1.472 1.347,-2.464 3.187,-2.464 z"
   id="path38" />
	</g>
	<rect
   x="42.666"
   y="27.117001"
   fill-rule="evenodd"
   clip-rule="evenodd"
   fill="#253873"
   width="11.32"
   height="42.68"
   id="rect42" />
	<circle
   fill-rule="evenodd"
   clip-rule="evenodd"
   fill="#253873"
   cx="47.962002"
   cy="11.602"
   r="7.5939999"
   id="circle44" />
	<rect
   x="162.52499"
   y="27.117001"
   fill-rule="evenodd"
   clip-rule="evenodd"
   fill="#253873"
   width="11.32"
   height="42.68"
   id="rect46" />
	<circle
   fill-rule="evenodd"
   clip-rule="evenodd"
   fill="#253873"
   cx="167.82201"
   cy="11.602"
   r="7.5939999"
   id="circle48" />
	<circle
   fill-rule="evenodd"
   clip-rule="evenodd"
   fill="#253873"
   cx="107.973"
   cy="11.602"
   r="7.5939999"
   id="circle50" />
	<circle
   fill-rule="evenodd"
   clip-rule="evenodd"
   fill="#253873"
   cx="107.504"
   cy="71.637001"
   r="7.5939999"
   id="circle52" />
	<path
   fill="#253873"
   d="m 137.397,71.633 c 0,15.7 -12.21,28.54 -27.65,29.55 v -11.84 c 8.9,-0.98 16.1,-8.54 16.1,-17.71 0,-9.82 -8.24,-17.81 -18.06,-17.81 -9.2,0 -17.06,7.01 -17.99,15.97 H 78.117 V 3.513 h 11.45 v 44.78 c 5.02,-3.93 11.35,-6.27 18.22,-6.27 16.35,-0.001 29.61,13.259 29.61,29.61 z"
   id="path54" />
</g>
<g
   aria-label="Master Data"
   id="text67"
   style="font-size:13.3333px;line-height:1.25;font-family:sans-serif"><path
     d="m 59.615874,96.620995 h -1.289059 v -8.352844 l -2.695306,5.683579 h -0.768227 l -2.675774,-5.683579 v 8.352844 h -1.204424 v -9.693986 h 1.757808 l 2.584629,5.397121 2.499993,-5.397121 h 1.79036 z"
     id="path37" /><path
     d="m 67.773406,96.620995 h -1.217445 v -0.774738 q -0.16276,0.110677 -0.442707,0.312499 -0.273437,0.195312 -0.533853,0.312499 -0.305989,0.14974 -0.703123,0.247396 -0.397135,0.104166 -0.930987,0.104166 -0.983071,0 -1.666663,-0.65104 -0.683592,-0.65104 -0.683592,-1.660152 0,-0.826821 0.351562,-1.334632 0.358072,-0.514322 1.015622,-0.80729 0.664061,-0.292968 1.595048,-0.397134 0.930987,-0.104167 1.998693,-0.15625 v -0.188801 q 0,-0.416666 -0.149739,-0.690103 -0.143229,-0.273437 -0.416666,-0.429686 -0.260416,-0.149739 -0.624998,-0.201823 -0.364583,-0.05208 -0.761717,-0.05208 -0.48177,0 -1.074216,0.130208 -0.592446,0.123698 -1.223955,0.364583 h -0.0651 v -1.243487 q 0.358072,-0.09766 1.035153,-0.214843 0.677082,-0.117187 1.334632,-0.117187 0.768228,0 1.334632,0.130208 0.572916,0.123697 0.989581,0.429686 0.410155,0.299479 0.624999,0.774738 0.214843,0.475259 0.214843,1.178382 z m -1.217445,-1.79036 V 92.8059 q -0.559894,0.03255 -1.321611,0.09766 -0.755207,0.0651 -1.197914,0.188802 -0.527342,0.149739 -0.852862,0.468748 -0.32552,0.3125 -0.32552,0.865884 0,0.624998 0.377603,0.944008 0.377603,0.312499 1.152341,0.312499 0.644529,0 1.178382,-0.247395 0.533853,-0.253906 0.989581,-0.605467 z"
     id="path39" /><path
     d="m 75.32547,94.524646 q 0,0.996091 -0.82682,1.63411 -0.820311,0.638019 -2.246089,0.638019 -0.807289,0 -1.484371,-0.188801 -0.670571,-0.195312 -1.126299,-0.423176 v -1.373695 h 0.0651 q 0.579426,0.436197 1.289059,0.696613 0.709634,0.253906 1.360674,0.253906 0.807289,0 1.263017,-0.260416 0.455728,-0.260416 0.455728,-0.820311 0,-0.429686 -0.247395,-0.65104 -0.247395,-0.221353 -0.950518,-0.377603 -0.260416,-0.05859 -0.683592,-0.136718 -0.416666,-0.07813 -0.761717,-0.169271 -0.957029,-0.253905 -1.360674,-0.742185 -0.397134,-0.494791 -0.397134,-1.210935 0,-0.449217 0.182291,-0.846352 0.188802,-0.397134 0.566405,-0.709633 0.364582,-0.305989 0.924477,-0.48177 0.566405,-0.182291 1.263017,-0.182291 0.65104,0 1.315101,0.16276 0.670572,0.156249 1.113279,0.384113 v 1.308591 h -0.0651 Q 74.50516,90.68351 73.834589,90.449135 73.164017,90.20825 72.519488,90.20825 q -0.670571,0 -1.13281,0.260416 -0.462238,0.253906 -0.462238,0.761717 0,0.449218 0.279947,0.677082 0.273437,0.227864 0.885414,0.371093 0.338541,0.07812 0.755207,0.156249 0.423176,0.07813 0.703123,0.143229 0.852862,0.195312 1.315101,0.670571 0.462238,0.48177 0.462238,1.276039 z"
     id="path41" /><path
     d="m 80.852801,96.555891 q -0.345051,0.09114 -0.755206,0.149739 -0.403645,0.05859 -0.722655,0.05859 -1.113278,0 -1.692704,-0.598956 -0.579425,-0.598957 -0.579425,-1.920569 V 90.377521 H 76.27599 v -1.028643 h 0.826821 v -2.089839 h 1.223955 v 2.089839 h 2.526035 v 1.028643 h -2.526035 v 3.313793 q 0,0.572916 0.02604,0.898436 0.02604,0.319009 0.182292,0.598957 0.143228,0.260416 0.390624,0.384113 0.253905,0.117187 0.768227,0.117187 0.299478,0 0.624998,-0.08463 0.32552,-0.09114 0.468749,-0.149739 h 0.0651 z"
     id="path43" /><path
     d="m 88.417884,93.111889 h -5.358059 q 0,0.670571 0.201822,1.171872 0.201823,0.49479 0.553384,0.8138 0.338541,0.312499 0.800779,0.468749 0.468749,0.156249 1.028644,0.156249 0.742185,0 1.490881,-0.292968 0.755207,-0.299478 1.074216,-0.585936 h 0.0651 v 1.334632 q -0.618488,0.260416 -1.263017,0.436197 -0.64453,0.175781 -1.354163,0.175781 -1.809892,0 -2.825514,-0.97656 -1.015623,-0.98307 -1.015623,-2.786451 0,-1.78385 0.97005,-2.832024 0.97656,-1.048175 2.565098,-1.048175 1.47135,0 2.265619,0.859373 0.800779,0.859373 0.800779,2.4414 z m -1.191403,-0.937498 q -0.0065,-0.963539 -0.48828,-1.490881 -0.475259,-0.527343 -1.451819,-0.527343 -0.983071,0 -1.569007,0.579426 -0.579425,0.579425 -0.65755,1.438798 z"
     id="path45" /><path
     d="m 94.811097,90.68351 h -0.0651 q -0.273437,-0.0651 -0.533853,-0.09115 -0.253905,-0.03255 -0.605467,-0.03255 -0.566405,0 -1.093747,0.253906 -0.527343,0.247395 -1.015623,0.644529 v 5.162748 h -1.223955 v -7.272117 h 1.223955 v 1.074216 q 0.729165,-0.585936 1.282549,-0.826821 0.559894,-0.247395 1.13932,-0.247395 0.31901,0 0.462239,0.01953 0.143228,0.01302 0.429686,0.05859 z"
     id="path47" /><path
     d="m 108.93867,91.783767 q 0,1.321611 -0.57943,2.395827 -0.57291,1.074217 -1.52994,1.666663 -0.66406,0.410155 -1.48437,0.592446 -0.8138,0.182292 -2.14844,0.182292 h -2.44791 v -9.693986 h 2.42187 q 1.41927,0 2.2526,0.208332 0.83984,0.201823 1.41927,0.559895 0.98958,0.618488 1.54296,1.647131 0.55339,1.028643 0.55339,2.4414 z m -1.34766,-0.01953 q 0,-1.13932 -0.39713,-1.920568 -0.39714,-0.781248 -1.18489,-1.230466 -0.57292,-0.32552 -1.21745,-0.449217 -0.64453,-0.130208 -1.54296,-0.130208 h -1.21094 v 7.48045 h 1.21094 q 0.93098,0 1.62109,-0.136719 0.69661,-0.136718 1.27603,-0.507811 0.72266,-0.462239 1.08073,-1.217445 0.36458,-0.755206 0.36458,-1.888016 z"
     id="path49" /><path
     d="m 116.57536,96.620995 h -1.21744 v -0.774738 q -0.16276,0.110677 -0.44271,0.312499 -0.27343,0.195312 -0.53385,0.312499 -0.30599,0.14974 -0.70312,0.247396 -0.39714,0.104166 -0.93099,0.104166 -0.98307,0 -1.66666,-0.65104 -0.68359,-0.65104 -0.68359,-1.660152 0,-0.826821 0.35156,-1.334632 0.35807,-0.514322 1.01562,-0.80729 0.66406,-0.292968 1.59505,-0.397134 0.93098,-0.104167 1.99869,-0.15625 v -0.188801 q 0,-0.416666 -0.14974,-0.690103 -0.14323,-0.273437 -0.41666,-0.429686 -0.26042,-0.149739 -0.625,-0.201823 -0.36459,-0.05208 -0.76172,-0.05208 -0.48177,0 -1.07422,0.130208 -0.59244,0.123698 -1.22395,0.364583 h -0.0651 v -1.243487 q 0.35808,-0.09766 1.03516,-0.214843 0.67708,-0.117187 1.33463,-0.117187 0.76823,0 1.33463,0.130208 0.57292,0.123697 0.98958,0.429686 0.41016,0.299479 0.625,0.774738 0.21484,0.475259 0.21484,1.178382 z m -1.21744,-1.79036 V 92.8059 q -0.55989,0.03255 -1.32161,0.09766 -0.75521,0.0651 -1.19791,0.188802 -0.52735,0.149739 -0.85287,0.468748 -0.32552,0.3125 -0.32552,0.865884 0,0.624998 0.37761,0.944008 0.3776,0.312499 1.15234,0.312499 0.64453,0 1.17838,-0.247395 0.53385,-0.253906 0.98958,-0.605467 z"
     id="path51" /><path
     d="m 122.70817,96.555891 q -0.34505,0.09114 -0.75521,0.149739 -0.40364,0.05859 -0.72265,0.05859 -1.11328,0 -1.69271,-0.598956 -0.57942,-0.598957 -0.57942,-1.920569 v -3.867177 h -0.82682 v -1.028643 h 0.82682 v -2.089839 h 1.22395 v 2.089839 h 2.52604 v 1.028643 h -2.52604 v 3.313793 q 0,0.572916 0.026,0.898436 0.026,0.319009 0.18229,0.598957 0.14323,0.260416 0.39063,0.384113 0.2539,0.117187 0.76823,0.117187 0.29947,0 0.62499,-0.08463 0.32552,-0.09114 0.46875,-0.149739 h 0.0651 z"
     id="path53" /><path
     d="m 129.83705,96.620995 h -1.21744 v -0.774738 q -0.16276,0.110677 -0.44271,0.312499 -0.27344,0.195312 -0.53385,0.312499 -0.30599,0.14974 -0.70312,0.247396 -0.39714,0.104166 -0.93099,0.104166 -0.98307,0 -1.66666,-0.65104 -0.6836,-0.65104 -0.6836,-1.660152 0,-0.826821 0.35156,-1.334632 0.35808,-0.514322 1.01563,-0.80729 0.66406,-0.292968 1.59505,-0.397134 0.93098,-0.104167 1.99869,-0.15625 v -0.188801 q 0,-0.416666 -0.14974,-0.690103 -0.14323,-0.273437 -0.41667,-0.429686 -0.26041,-0.149739 -0.62499,-0.201823 -0.36459,-0.05208 -0.76172,-0.05208 -0.48177,0 -1.07422,0.130208 -0.59244,0.123698 -1.22395,0.364583 h -0.0651 v -1.243487 q 0.35807,-0.09766 1.03516,-0.214843 0.67708,-0.117187 1.33463,-0.117187 0.76823,0 1.33463,0.130208 0.57292,0.123697 0.98958,0.429686 0.41016,0.299479 0.625,0.774738 0.21484,0.475259 0.21484,1.178382 z m -1.21744,-1.79036 V 92.8059 q -0.5599,0.03255 -1.32161,0.09766 -0.75521,0.0651 -1.19792,0.188802 -0.52734,0.149739 -0.85286,0.468748 -0.32552,0.3125 -0.32552,0.865884 0,0.624998 0.3776,0.944008 0.37761,0.312499 1.15235,0.312499 0.64452,0 1.17838,-0.247395 0.53385,-0.253906 0.98958,-0.605467 z"
     id="path55" /></g></svg>
