<?xml version="1.0" encoding="UTF-8" standalone="no"?>
<svg
   xmlns:dc="http://purl.org/dc/elements/1.1/"
   xmlns:cc="http://creativecommons.org/ns#"
   xmlns:rdf="http://www.w3.org/1999/02/22-rdf-syntax-ns#"
   xmlns:svg="http://www.w3.org/2000/svg"
   xmlns="http://www.w3.org/2000/svg"
   xmlns:sodipodi="http://sodipodi.sourceforge.net/DTD/sodipodi-0.dtd"
   xmlns:inkscape="http://www.inkscape.org/namespaces/inkscape"
   width="312"
   height="150"
   viewBox="0 0 312 150"
   version="1.1"
   id="svg31"
   sodipodi:docname="informatica-edc.svg"
   inkscape:version="1.0.1 (3bc2e813f5, 2020-09-07)">
  <metadata
     id="metadata37">
    <rdf:RDF>
      <cc:Work
         rdf:about="">
        <dc:format>image/svg+xml</dc:format>
        <dc:type
           rdf:resource="http://purl.org/dc/dcmitype/StillImage" />
        <dc:title>logo-informatica</dc:title>
      </cc:Work>
    </rdf:RDF>
  </metadata>
  <defs
     id="defs35" />
  <sodipodi:namedview
     pagecolor="#ffffff"
     bordercolor="#666666"
     borderopacity="1"
     objecttolerance="10"
     gridtolerance="10"
     guidetolerance="10"
     inkscape:pageopacity="0"
     inkscape:pageshadow="2"
     inkscape:window-width="1920"
     inkscape:window-height="1017"
     id="namedview33"
     showgrid="false"
     inkscape:zoom="3.3397436"
     inkscape:cx="156"
     inkscape:cy="39.5"
     inkscape:window-x="-8"
     inkscape:window-y="-8"
     inkscape:window-maximized="1"
     inkscape:current-layer="text34"
     inkscape:document-rotation="0" />
  <!-- Generator: Sketch 55.2 (78181) - https://sketchapp.com -->
  <title
     id="title2">logo-informatica</title>
  <desc
     id="desc4">Created with Sketch.</desc>
  <g
     id="logo-informatica"
     stroke="none"
     stroke-width="1"
     fill="none"
     fill-rule="evenodd"
     transform="translate(0.29942418,0.89827255)">
    <g
       id="Logo/Informatica"
       transform="translate(0,0.133333)">
      <g
         id="Group-32">
        <g
           id="g26">
          <path
             id="Fill-1"
             style="fill:#ff4d00;stroke-width:0.884545"
             d="m 170.51598,42.380356 -5.63937,-6.08873 -8.32225,-1.392818 -7.10701,4.721784 20.31142,11.513392 z" />
          <path
             id="Fill-2"
             style="fill:#ff7d00;stroke-width:0.884545"
             d="M 186.63978,34.021146 152.87579,-0.2028049 169.75849,51.134558 Z" />
          <path
             id="Fill-3"
             style="fill:#001aff;stroke-width:0.884545"
             d="m 175.39178,34.022583 -25.23189,-7.034524 -0.71183,12.633108 z" />
          <path
             id="Fill-4"
             style="fill:#e23400;stroke-width:0.884545"
             d="m 139.894,42.262635 -8.2726,-5.44191 -12.50817,-2.797136 18.02702,18.273377 3.35782,-4.557924 z" />
          <path
             id="Fill-5"
             style="fill:#ff4d00;stroke-width:0.884545"
             d="m 151.05026,1.6504055 -31.9376,32.3726085 20.78077,8.239047 z" />
          <path
             id="Fill-6"
             style="fill:#ff7d00;stroke-width:0.884545"
             d="M 167.66268,53.261446 139.894,42.262635 l -2.75375,10.034331 15.73554,15.952011 z" />
          <path
             id="Fill-7"
             style="fill:#373737;stroke-width:0.849641"
             d="m 64.64078,81.086046 3.033298,-1.792106 v 26.67035 H 64.64078 Z" />
          <path
             id="Fill-8"
             style="fill:#373737;stroke-width:0.708977"
             d="m 200.56969,81.509419 v -0.713146 h 2.60272 v 2.75349 h -2.60272 z" />
          <g
             id="Group-31"
             transform="matrix(0.8496413,0,0,0.8496413,72.483761,78.380635)"
             fill="#373737">
            <path
               d="m 10.294902,9.8944625 c -2.8631242,0 -5.1347066,1.2317495 -6.7634489,3.6643745 v -3.202874 h -3.489933 v 22.10975 h 3.489933 V 19.839462 c 0,-3.861 2.4238763,-6.556874 5.8945722,-6.556874 3.3937477,0 5.4200567,2.357875 5.4200567,6.305 v 12.878125 h 3.491536 v -13.67275 c 0,-2.624376 -0.73101,-4.8425 -2.116082,-6.41875 -1.423547,-1.623376 -3.473903,-2.4797505 -5.926634,-2.4797505"
               id="Fill-9" />
            <path
               d="m 53.456411,21.4305 v 0.0845 c 0,4.6215 -3.129237,8.107125 -7.276438,8.107125 -4.102314,0 -7.316515,-3.59775 -7.316515,-8.191625 v -0.08287 c 0,-4.645875 3.111603,-8.14775 7.237964,-8.14775 4.123154,0 7.354989,3.615625 7.354989,8.230625 M 46.179973,9.894625 c -2.999386,0 -5.771134,1.21875 -7.805459,3.433625 -1.986231,2.162875 -3.079541,5.039125 -3.079541,8.10225 v 0.0845 c 0,6.422 4.746758,11.453 10.806449,11.453 2.999386,0 5.779149,-1.21875 7.823092,-3.433625 2.00066,-2.166125 3.101985,-5.044 3.101985,-8.103875 v -0.08287 c 0,-6.422 -4.765995,-11.453 -10.846526,-11.453"
               id="Fill-11" />
            <path
               d="M 64.763345,15.212925 V 10.3558 h -3.489933 v 22.10975 h 3.489933 V 23.6093 c 0,-5.89225 3.08916,-9.84425 7.869583,-9.84425 h 0.461691 V 9.98855 L 72.878201,9.9788 c -3.37932,-0.147875 -6.35466,1.792375 -8.114856,5.234125"
               id="Fill-13" />
            <path
               d="m 100.0713,9.8944625 c -3.01862,0 -5.363945,1.3341255 -7.157806,4.0771255 -1.340185,-2.6325 -3.663067,-4.0771255 -6.580696,-4.0771255 -3.279927,0 -5.133103,1.7972505 -6.369087,3.5798755 v -3.118375 h -3.489933 v 22.10975 h 3.489933 V 19.881712 c 0,-3.823625 2.297232,-6.599124 5.460134,-6.599124 3.146871,0 5.025696,2.325374 5.025696,6.222124 v 12.961001 h 3.491536 v -12.71075 c 0,-1.971126 0.549861,-3.631876 1.588665,-4.798625 0.961855,-1.079001 2.308453,-1.67375 3.791314,-1.67375 3.220614,0 5.065774,2.299375 5.065774,6.305 v 12.878125 h 3.48993 V 18.833587 c 0,-5.513624 -2.99137,-8.9391245 -7.80546,-8.9391245"
               id="Fill-15" />
            <path
               d="M 146.21505,13.659425 V 10.3558 H 139.66 V 2.658175 l -3.49154,2.06375 V 10.3558 h -3.80093 v 3.303625 h 3.80093 V 26.49855 c 0,5.5185 3.75284,6.344 5.98916,6.344 1.4027,0 2.60342,-0.30225 3.78009,-0.949 l 0.11703,-0.065 v -3.271125 l -0.32543,0.167375 c -1.01476,0.51675 -1.84356,0.729625 -2.85992,0.729625 -2.16097,0 -3.20939,-1.103375 -3.20939,-3.3735 v -12.4215 z"
               id="Fill-17" />
            <path
               d="m 175.20057,26.472875 c -1.86119,2.119 -3.84743,3.147625 -6.07091,3.147625 -4.07988,0 -7.27644,-3.596125 -7.27644,-8.19 v -0.08287 c 0,-4.5695 3.11,-8.14775 7.07925,-8.14775 2.77977,0 4.54157,1.532375 6.03244,3.1915 l 0.16833,0.18525 2.31486,-2.6 -0.13626,-0.154375 c -1.62233,-1.828125 -4.03659,-3.927625 -8.33929,-3.927625 -2.91442,0 -5.62525,1.21875 -7.63232,3.43525 -1.9702,2.172625 -3.0555,5.048875 -3.0555,8.100625 v 0.0845 c 0,3.030625 1.0853,5.887375 3.0555,8.04375 2.00707,2.198625 4.7179,3.40925 7.63232,3.40925 4.33797,0 6.82276,-2.2815 8.5012,-4.268875 l 0.13627,-0.160875 -2.25235,-2.244125 z"
               id="Fill-19" />
            <path
               d="m 126.73282,21.8153 v 2.4635 c 0,3.212625 -2.83908,5.6355 -6.60474,5.6355 -3.37291,0 -4.90867,-2.117375 -4.90867,-4.08525 v -0.0845 c 0,-1.792375 0.99552,-3.92925 5.73747,-3.92925 z m -5.57876,-11.921 c -3.30558,0 -5.65571,0.921375 -7.52011,1.82325 l -0.18115,0.08775 1.05644,3.072875 0.22764,-0.1105 c 1.67683,-0.814125 3.57489,-1.568125 6.10137,-1.568125 3.75124,0 5.89457,1.742 5.89457,5.772 h -6.09175 c -5.68938,0 -8.95007,2.513875 -8.95007,6.89975 v 0.08287 c 0,4.576 3.94521,6.97125 7.84393,6.97125 3.57811,0 5.86732,-1.68675 7.19789,-3.293875 l -0.002,2.834 h 3.33443 v -13.46312 c 0,-2.78525 -0.7262,-5.133375 -2.15616,-6.6495 -1.53737,-1.6315 -3.81055,-2.458625 -6.75543,-2.458625 z"
               id="Fill-21" />
            <path
               d="m 28.2077,8.2948125 c 0,-3.18175 0.806356,-4.3745 3.284737,-4.3745 0.957046,0 1.724928,0.180375 2.895186,0.534625 l 0.216417,0.065 V 1.2455625 L 34.5319,1.2179375 c -1.040407,-0.3965 -2.034325,-0.559 -3.433825,-0.559 -1.894855,0 -3.465886,0.602875 -4.543165,1.74525 -1.202319,1.275625 -1.838747,3.25325 -1.838747,5.72325 v 2.2278755 h -3.79933 v 3.303625 h 3.79933 V 32.465063 H 28.2077 V 13.658938 h 6.555046 V 10.355313 H 28.2077 Z"
               id="Fill-23" />
            <path
               id="Fill-25"
               d="m 150.54019,12.706687 v -2.351374 h 3.48993 v 22.10975 h -3.48993 z" />
            <path
               d="m 194.80719,21.816925 v 2.4635 c 0,3.21425 -2.83907,5.637125 -6.60634,5.637125 -3.37291,0 -4.90867,-2.119 -4.90867,-4.086875 v -0.0845 c 0,-1.792375 0.99552,-3.92925 5.73747,-3.92925 z M 189.22843,9.8943 c -3.30718,0 -5.65731,0.921375 -7.52171,1.82325 l -0.18275,0.08775 1.05964,3.072875 0.22604,-0.108875 c 1.67683,-0.81575 3.5765,-1.56975 6.10137,-1.56975 3.75284,0 5.89617,1.743625 5.89617,5.773625 h -6.09335 c -5.68938,0 -8.95167,2.513875 -8.95167,6.89975 v 0.08288 c 0,4.577625 3.94681,6.972875 7.84714,6.972875 3.5781,0 5.86571,-1.68675 7.19788,-3.2955 l -0.002,2.835625 h 3.33443 V 19.00405 c 0,-2.78525 -0.7262,-5.135 -2.15616,-6.651125 -1.53736,-1.6315 -3.81055,-2.458625 -6.75543,-2.458625 z"
               id="Fill-27" />
            <path
               d="m 201.02928,12.172387 h 0.44566 c 0.13626,-0.0032 0.24687,-0.03737 0.33023,-0.100749 0.085,-0.06338 0.12505,-0.146251 0.12505,-0.25025 0,-0.141375 -0.0353,-0.240501 -0.11062,-0.299 -0.0737,-0.0585 -0.2068,-0.08775 -0.39596,-0.08775 h -0.39436 z m 0,0.370501 v 0.976624 h -0.40238 v -2.455375 h 0.78712 c 0.29176,0 0.5178,0.06338 0.67811,0.190125 0.16031,0.126751 0.24046,0.30875 0.24046,0.550876 0,0.23725 -0.12023,0.417625 -0.3639,0.54275 0.23085,0.0975 0.34787,0.294125 0.35108,0.5915 v 0.1755 c 0,0.165749 0.016,0.286 0.0481,0.359125 v 0.0455 h -0.4136 c -0.0273,-0.06825 -0.0401,-0.193374 -0.0401,-0.370499 0,-0.17875 -0.003,-0.284375 -0.01,-0.316875 -0.0305,-0.18525 -0.1539,-0.28275 -0.37352,-0.28925 z m -1.27767,-0.219375 c 0,0.3315 0.0754,0.638625 0.22764,0.921375 0.1523,0.281125 0.35909,0.503749 0.6204,0.662999 0.26291,0.160876 0.54505,0.238875 0.84964,0.238875 0.30619,0 0.58994,-0.07963 0.85284,-0.243749 0.26291,-0.162501 0.46811,-0.383501 0.61719,-0.663 0.14909,-0.2795 0.22444,-0.585 0.22444,-0.9165 0,-0.32825 -0.0753,-0.632126 -0.22444,-0.911625 -0.14908,-0.277875 -0.35428,-0.49725 -0.61719,-0.658125 -0.2629,-0.160875 -0.54665,-0.2405 -0.85284,-0.2405 -0.30459,0 -0.58834,0.078 -0.85124,0.237249 -0.26131,0.15925 -0.46971,0.378626 -0.6204,0.659751 -0.15069,0.28275 -0.22604,0.586625 -0.22604,0.91325 z m -0.32863,0.0016 c 0,-0.39 0.0898,-0.75075 0.26771,-1.083875 0.17635,-0.333125 0.42322,-0.596376 0.73743,-0.788125 0.31581,-0.19175 0.65566,-0.287625 1.02117,-0.287625 0.3655,0 0.70376,0.09587 1.01796,0.287625 0.31421,0.191749 0.55948,0.455 0.73742,0.788125 0.17795,0.333125 0.26612,0.693875 0.26612,1.083875 0,0.38025 -0.085,0.736125 -0.2565,1.067625 -0.16993,0.3315 -0.4136,0.598 -0.7278,0.7995 -0.31581,0.201499 -0.66048,0.30225 -1.0372,0.30225 -0.37513,0 -0.71979,-0.09912 -1.034,-0.299 -0.31581,-0.199875 -0.55948,-0.466375 -0.73261,-0.797875 -0.17313,-0.3315 -0.2597,-0.687375 -0.2597,-1.0725 z"
               id="Fill-29" />
          </g>
          <g
             aria-label="Data Engineering Streaming "
             id="text34"
             style="font-size:13.3333px;line-height:1.25;font-family:sans-serif">
            <g
               aria-label="Enterprise Data Catalog"
               id="text59"
               style="font-size:13.3333px;line-height:1.25;font-family:sans-serif">
              <path
                 d="m 51.48603,133.70927 h -8.941423 v -13.57163 h 8.941423 v 1.60416 h -7.136732 v 3.71876 h 7.136732 v 1.60417 h -7.136732 v 5.04037 h 7.136732 z"
                 style="font-size:18.6667px;fill:#000000"
                 id="path61" />
              <path
                 d="m 62.724331,133.70927 h -1.713545 v -5.79688 q 0,-0.70183 -0.08203,-1.3125 -0.08203,-0.6198 -0.300782,-0.96615 -0.227865,-0.38281 -0.656251,-0.56511 -0.428386,-0.1914 -1.111981,-0.1914 -0.701824,0 -1.467451,0.34635 -0.765626,0.34636 -1.46745,0.88412 v 7.60157 h -1.713545 v -10.181 h 1.713545 v 1.13021 q 0.802085,-0.66537 1.658857,-1.03907 0.856772,-0.3737 1.759118,-0.3737 1.649742,0 2.515629,0.9935 0.865887,0.99349 0.865887,2.86198 z"
                 style="font-size:18.6667px;fill:#000000"
                 id="path63" />
              <path
                 d="m 71.310285,133.61813 q -0.483074,0.1276 -1.057294,0.20963 -0.565105,0.082 -1.01172,0.082 -1.558597,0 -2.369796,-0.83855 -0.8112,-0.83854 -0.8112,-2.6888 v -5.41408 h -1.157554 v -1.4401 h 1.157554 v -2.92579 h 1.713545 v 2.92579 h 3.536465 v 1.4401 H 67.77382 v 4.63933 q 0,0.80209 0.03646,1.25782 0.03646,0.44661 0.255209,0.83854 0.200521,0.36459 0.546876,0.53776 0.35547,0.16407 1.075523,0.16407 0.419272,0 0.875002,-0.11849 0.45573,-0.12761 0.656251,-0.20964 h 0.09115 z"
                 style="font-size:18.6667px;fill:#000000"
                 id="path65" />
              <path
                 d="m 81.901448,128.79651 h -7.501316 q 0,0.9388 0.282553,1.64062 0.282552,0.69271 0.774741,1.13933 0.473959,0.4375 1.121096,0.65625 0.656251,0.21875 1.440106,0.21875 1.039065,0 2.087244,-0.41016 1.057293,-0.41927 1.503909,-0.82031 h 0.09115 v 1.86849 q -0.865887,0.36459 -1.768233,0.61068 -0.902345,0.24609 -1.895836,0.24609 -2.533859,0 -3.955737,-1.36719 -1.421877,-1.3763 -1.421877,-3.90104 0,-2.49741 1.358075,-3.96486 1.36719,-1.46745 3.591152,-1.46745 2.0599,0 3.171881,1.20313 1.121096,1.20313 1.121096,3.41798 z M 80.233476,127.484 q -0.0091,-1.34896 -0.683595,-2.08724 -0.665366,-0.73828 -2.032556,-0.73828 -1.376304,0 -2.196618,0.8112 -0.8112,0.8112 -0.920575,2.01432 z"
                 style="font-size:18.6667px;fill:#000000"
                 id="path67" />
              <path
                 d="m 90.851985,125.39676 h -0.09115 q -0.382813,-0.0911 -0.747397,-0.12761 -0.355469,-0.0456 -0.847658,-0.0456 -0.79297,0 -1.531253,0.35547 -0.738282,0.34636 -1.421877,0.90235 v 7.22787 h -1.713545 v -10.181 h 1.713545 v 1.50391 q 1.020835,-0.82032 1.795576,-1.15756 0.783856,-0.34635 1.595055,-0.34635 0.446615,0 0.647137,0.0273 0.200521,0.0182 0.601563,0.082 z"
                 style="font-size:18.6667px;fill:#000000"
                 id="path69" />
              <path
                 d="m 101.42492,128.49572 q 0,1.23959 -0.35547,2.26954 -0.35547,1.02083 -1.0026,1.73177 -0.601568,0.67448 -1.421882,1.04818 -0.8112,0.36459 -1.72266,0.36459 -0.79297,0 -1.440107,-0.17318 -0.638022,-0.17318 -1.303387,-0.53776 v 4.26563 h -1.713545 v -13.93622 h 1.713545 v 1.0664 q 0.683595,-0.57422 1.531252,-0.95703 0.856773,-0.39193 1.82292,-0.39193 1.84115,0 2.861984,1.39454 1.02995,1.38542 1.02995,3.85547 z m -1.768232,0.0456 q 0,-1.84115 -0.628907,-2.75261 -0.628908,-0.91146 -1.932295,-0.91146 -0.738283,0 -1.48568,0.31901 -0.747397,0.31901 -1.430992,0.83854 v 5.76954 q 0.729168,0.32813 1.2487,0.44662 0.528647,0.11849 1.194012,0.11849 1.430993,0 2.233077,-0.96615 0.802085,-0.96615 0.802085,-2.86198 z"
                 style="font-size:18.6667px;fill:#000000"
                 id="path71" />
              <path
                 d="m 110.44837,125.39676 h -0.0911 q -0.38281,-0.0911 -0.7474,-0.12761 -0.35547,-0.0456 -0.84766,-0.0456 -0.79297,0 -1.53125,0.35547 -0.73828,0.34636 -1.42188,0.90235 v 7.22787 h -1.71354 v -10.181 h 1.71354 v 1.50391 q 1.02084,-0.82032 1.79558,-1.15756 0.78386,-0.34635 1.59505,-0.34635 0.44662,0 0.64714,0.0273 0.20052,0.0182 0.60156,0.082 z"
                 style="font-size:18.6667px;fill:#000000"
                 id="path73" />
              <path
                 d="m 113.90281,121.82384 h -1.9323 v -1.77735 h 1.9323 z m -0.10938,11.88543 h -1.71354 v -10.181 h 1.71354 z"
                 style="font-size:18.6667px;fill:#000000"
                 id="path75" />
              <path
                 d="m 124.45752,130.77437 q 0,1.39454 -1.15756,2.28777 -1.14844,0.89323 -3.14454,0.89323 -1.13021,0 -2.07812,-0.26432 -0.93881,-0.27344 -1.57683,-0.59245 v -1.92318 h 0.0911 q 0.8112,0.61067 1.80469,0.97526 0.99349,0.35547 1.90495,0.35547 1.13021,0 1.76823,-0.36459 0.63802,-0.36458 0.63802,-1.14844 0,-0.60156 -0.34635,-0.91146 -0.34636,-0.30989 -1.33073,-0.52864 -0.36459,-0.082 -0.95704,-0.19141 -0.58333,-0.10938 -1.06641,-0.23698 -1.33984,-0.35547 -1.90495,-1.03906 -0.55599,-0.69271 -0.55599,-1.69532 0,-0.62891 0.25521,-1.1849 0.26432,-0.55599 0.79297,-0.99349 0.51042,-0.42838 1.29427,-0.67448 0.79298,-0.25521 1.76824,-0.25521 0.91146,0 1.84115,0.22787 0.9388,0.21875 1.55859,0.53776 v 1.83203 h -0.0911 q -0.65625,-0.48307 -1.59506,-0.8112 -0.9388,-0.33724 -1.84115,-0.33724 -0.9388,0 -1.58594,0.36459 -0.64713,0.35547 -0.64713,1.06641 0,0.6289 0.39192,0.94791 0.38282,0.31902 1.23959,0.51954 0.47396,0.10937 1.05729,0.21875 0.59245,0.10937 0.98438,0.20052 1.19401,0.27344 1.84115,0.9388 0.64714,0.67448 0.64714,1.78646 z"
                 style="font-size:18.6667px;fill:#000000"
                 id="path77" />
              <path
                 d="m 135.4315,128.79651 h -7.50132 q 0,0.9388 0.28255,1.64062 0.28256,0.69271 0.77474,1.13933 0.47396,0.4375 1.1211,0.65625 0.65625,0.21875 1.44011,0.21875 1.03906,0 2.08724,-0.41016 1.05729,-0.41927 1.50391,-0.82031 h 0.0911 v 1.86849 q -0.86589,0.36459 -1.76824,0.61068 -0.90234,0.24609 -1.89583,0.24609 -2.53386,0 -3.95574,-1.36719 -1.42188,-1.3763 -1.42188,-3.90104 0,-2.49741 1.35808,-3.96486 1.36719,-1.46745 3.59115,-1.46745 2.0599,0 3.17188,1.20313 1.1211,1.20313 1.1211,3.41798 z m -1.66798,-1.31251 q -0.009,-1.34896 -0.68359,-2.08724 -0.66537,-0.73828 -2.03256,-0.73828 -1.3763,0 -2.19661,0.8112 -0.8112,0.8112 -0.92058,2.01432 z"
                 style="font-size:18.6667px;fill:#000000"
                 id="path79" />
              <path
                 d="m 156.19455,126.93713 q 0,1.85026 -0.8112,3.35417 -0.80208,1.50391 -2.14193,2.33334 -0.92969,0.57422 -2.07813,0.82943 -1.13932,0.2552 -3.00782,0.2552 h -3.42709 v -13.57163 h 3.39064 q 1.98698,0 3.15365,0.29166 1.17578,0.28255 1.98698,0.78386 1.38542,0.86588 2.16016,2.30599 0.77474,1.44011 0.77474,3.41798 z m -1.88672,-0.0273 q 0,-1.59505 -0.55599,-2.6888 -0.55599,-1.09376 -1.65886,-1.72266 -0.80208,-0.45573 -1.70443,-0.62891 -0.90234,-0.18229 -2.16016,-0.18229 h -1.69532 v 10.47267 h 1.69532 q 1.30339,0 2.26954,-0.1914 0.97526,-0.19141 1.78646,-0.71094 1.01172,-0.64714 1.51302,-1.70443 0.51042,-1.0573 0.51042,-2.64324 z"
                 style="font-size:18.6667px;fill:#000000"
                 id="path81" />
              <path
                 d="m 166.88598,133.70927 h -1.70443 v -1.08463 q -0.22786,0.15495 -0.61979,0.4375 -0.38282,0.27344 -0.7474,0.4375 -0.42839,0.20963 -0.98438,0.34635 -0.55599,0.14584 -1.30338,0.14584 -1.37631,0 -2.33334,-0.91146 -0.95703,-0.91146 -0.95703,-2.32423 0,-1.15755 0.49218,-1.86849 0.50131,-0.72005 1.42188,-1.13021 0.92969,-0.41016 2.23308,-0.55599 1.30339,-0.14583 2.79818,-0.21875 v -0.26432 q 0,-0.58334 -0.20964,-0.96615 -0.20052,-0.38281 -0.58333,-0.60156 -0.36458,-0.20964 -0.875,-0.28256 -0.51042,-0.0729 -1.06641,-0.0729 -0.67448,0 -1.50391,0.18229 -0.82943,0.17318 -1.71354,0.51042 h -0.0911 v -1.74089 q 0.5013,-0.13672 1.44922,-0.30079 0.94792,-0.16406 1.8685,-0.16406 1.07552,0 1.86849,0.18229 0.80208,0.17318 1.38542,0.60157 0.57422,0.41927 0.875,1.08464 0.30078,0.66536 0.30078,1.64974 z m -1.70443,-2.50651 v -2.83464 q -0.78385,0.0456 -1.85026,0.13672 -1.0573,0.0911 -1.67709,0.26432 -0.73828,0.20964 -1.19401,0.65625 -0.45573,0.4375 -0.45573,1.21224 0,0.87501 0.52864,1.32162 0.52865,0.4375 1.61329,0.4375 0.90234,0 1.64974,-0.34635 0.7474,-0.35547 1.38542,-0.84766 z"
                 style="font-size:18.6667px;fill:#000000"
                 id="path83" />
              <path
                 d="m 175.47193,133.61813 q -0.48308,0.1276 -1.05729,0.20963 -0.56511,0.082 -1.01173,0.082 -1.55859,0 -2.36979,-0.83855 -0.8112,-0.83854 -0.8112,-2.6888 v -5.41408 h -1.15755 v -1.4401 h 1.15755 v -2.92579 h 1.71354 v 2.92579 h 3.53647 v 1.4401 h -3.53647 v 4.63933 q 0,0.80209 0.0365,1.25782 0.0365,0.44661 0.25521,0.83854 0.20052,0.36459 0.54688,0.53776 0.35547,0.16407 1.07552,0.16407 0.41927,0 0.875,-0.11849 0.45573,-0.12761 0.65625,-0.20964 h 0.0911 z"
                 style="font-size:18.6667px;fill:#000000"
                 id="path85" />
              <path
                 d="m 185.45242,133.70927 h -1.70443 v -1.08463 q -0.22787,0.15495 -0.6198,0.4375 -0.38281,0.27344 -0.74739,0.4375 -0.42839,0.20963 -0.98438,0.34635 -0.55599,0.14584 -1.30339,0.14584 -1.3763,0 -2.33333,-0.91146 -0.95704,-0.91146 -0.95704,-2.32423 0,-1.15755 0.49219,-1.86849 0.5013,-0.72005 1.42188,-1.13021 0.92969,-0.41016 2.23308,-0.55599 1.30338,-0.14583 2.79818,-0.21875 v -0.26432 q 0,-0.58334 -0.20964,-0.96615 -0.20052,-0.38281 -0.58333,-0.60156 -0.36459,-0.20964 -0.875,-0.28256 -0.51042,-0.0729 -1.06641,-0.0729 -0.67448,0 -1.50391,0.18229 -0.82943,0.17318 -1.71355,0.51042 h -0.0911 v -1.74089 q 0.5013,-0.13672 1.44922,-0.30079 0.94792,-0.16406 1.86849,-0.16406 1.07552,0 1.86849,0.18229 0.80209,0.17318 1.38542,0.60157 0.57422,0.41927 0.87501,1.08464 0.30078,0.66536 0.30078,1.64974 z m -1.70443,-2.50651 v -2.83464 q -0.78386,0.0456 -1.85027,0.13672 -1.05729,0.0911 -1.67708,0.26432 -0.73829,0.20964 -1.19402,0.65625 -0.45573,0.4375 -0.45573,1.21224 0,0.87501 0.52865,1.32162 0.52865,0.4375 1.61329,0.4375 0.90234,0 1.64974,-0.34635 0.7474,-0.35547 1.38542,-0.84766 z"
                 style="font-size:18.6667px;fill:#000000"
                 id="path87" />
              <path
                 d="m 205.93292,132.7249 q -0.5013,0.21875 -0.91146,0.41015 -0.40104,0.19141 -1.05729,0.40105 -0.55599,0.17317 -1.21224,0.29166 -0.64714,0.12761 -1.431,0.12761 -1.47656,0 -2.6888,-0.41016 -1.20313,-0.41927 -2.09636,-1.30339 -0.875,-0.86588 -1.36719,-2.19661 -0.49219,-1.33985 -0.49219,-3.10808 0,-1.67709 0.47396,-2.99871 0.47396,-1.32161 1.36719,-2.23307 0.86589,-0.88412 2.08724,-1.34896 1.23047,-0.46485 2.72527,-0.46485 1.09375,0 2.17839,0.26432 1.09375,0.26433 2.42448,0.92969 v 2.14193 h -0.13672 q -1.12109,-0.9388 -2.22396,-1.36719 -1.10287,-0.42838 -2.36068,-0.42838 -1.02995,0 -1.85938,0.33724 -0.82031,0.32812 -1.46745,1.02995 -0.62891,0.68359 -0.98438,1.73177 -0.34635,1.03907 -0.34635,2.40626 0,1.43099 0.38281,2.46094 0.39193,1.02995 1.00261,1.67708 0.63802,0.67449 1.48568,1.00261 0.85677,0.31901 1.80469,0.31901 1.30339,0 2.44271,-0.44661 1.13933,-0.44662 2.13282,-1.33985 h 0.1276 z"
                 style="font-size:18.6667px;fill:#000000"
                 id="path89" />
              <path
                 d="m 216.25976,133.70927 h -1.70443 v -1.08463 q -0.22787,0.15495 -0.61979,0.4375 -0.38282,0.27344 -0.7474,0.4375 -0.42839,0.20963 -0.98438,0.34635 -0.55599,0.14584 -1.30338,0.14584 -1.37631,0 -2.33334,-0.91146 -0.95704,-0.91146 -0.95704,-2.32423 0,-1.15755 0.49219,-1.86849 0.50131,-0.72005 1.42188,-1.13021 0.92969,-0.41016 2.23308,-0.55599 1.30339,-0.14583 2.79818,-0.21875 v -0.26432 q 0,-0.58334 -0.20964,-0.96615 -0.20052,-0.38281 -0.58333,-0.60156 -0.36458,-0.20964 -0.875,-0.28256 -0.51042,-0.0729 -1.06641,-0.0729 -0.67448,0 -1.50391,0.18229 -0.82943,0.17318 -1.71354,0.51042 h -0.0911 v -1.74089 q 0.5013,-0.13672 1.44922,-0.30079 0.94792,-0.16406 1.86849,-0.16406 1.07553,0 1.8685,0.18229 0.80208,0.17318 1.38542,0.60157 0.57422,0.41927 0.875,1.08464 0.30078,0.66536 0.30078,1.64974 z m -1.70443,-2.50651 v -2.83464 q -0.78386,0.0456 -1.85026,0.13672 -1.0573,0.0911 -1.67709,0.26432 -0.73828,0.20964 -1.19401,0.65625 -0.45573,0.4375 -0.45573,1.21224 0,0.87501 0.52864,1.32162 0.52865,0.4375 1.61329,0.4375 0.90234,0 1.64974,-0.34635 0.7474,-0.35547 1.38542,-0.84766 z"
                 style="font-size:18.6667px;fill:#000000"
                 id="path91" />
              <path
                 d="m 224.84572,133.61813 q -0.48307,0.1276 -1.05729,0.20963 -0.56511,0.082 -1.01172,0.082 -1.5586,0 -2.3698,-0.83855 -0.8112,-0.83854 -0.8112,-2.6888 v -5.41408 h -1.15755 v -1.4401 h 1.15755 v -2.92579 h 1.71355 v 2.92579 h 3.53646 v 1.4401 h -3.53646 v 4.63933 q 0,0.80209 0.0365,1.25782 0.0365,0.44661 0.25521,0.83854 0.20052,0.36459 0.54687,0.53776 0.35547,0.16407 1.07552,0.16407 0.41928,0 0.87501,-0.11849 0.45573,-0.12761 0.65625,-0.20964 h 0.0911 z"
                 style="font-size:18.6667px;fill:#000000"
                 id="path93" />
              <path
                 d="m 234.8262,133.70927 h -1.70443 v -1.08463 q -0.22787,0.15495 -0.6198,0.4375 -0.38281,0.27344 -0.74739,0.4375 -0.42839,0.20963 -0.98438,0.34635 -0.55599,0.14584 -1.30339,0.14584 -1.3763,0 -2.33334,-0.91146 -0.95703,-0.91146 -0.95703,-2.32423 0,-1.15755 0.49219,-1.86849 0.5013,-0.72005 1.42188,-1.13021 0.92969,-0.41016 2.23307,-0.55599 1.30339,-0.14583 2.79819,-0.21875 v -0.26432 q 0,-0.58334 -0.20964,-0.96615 -0.20052,-0.38281 -0.58333,-0.60156 -0.36459,-0.20964 -0.87501,-0.28256 -0.51041,-0.0729 -1.0664,-0.0729 -0.67448,0 -1.50391,0.18229 -0.82943,0.17318 -1.71355,0.51042 h -0.0911 v -1.74089 q 0.5013,-0.13672 1.44922,-0.30079 0.94792,-0.16406 1.86849,-0.16406 1.07552,0 1.86849,0.18229 0.80209,0.17318 1.38542,0.60157 0.57422,0.41927 0.87501,1.08464 0.30078,0.66536 0.30078,1.64974 z m -1.70443,-2.50651 v -2.83464 q -0.78386,0.0456 -1.85027,0.13672 -1.05729,0.0911 -1.67708,0.26432 -0.73829,0.20964 -1.19402,0.65625 -0.45573,0.4375 -0.45573,1.21224 0,0.87501 0.52865,1.32162 0.52865,0.4375 1.61328,0.4375 0.90235,0 1.64975,-0.34635 0.74739,-0.35547 1.38542,-0.84766 z"
                 style="font-size:18.6667px;fill:#000000"
                 id="path95" />
              <path
                 d="m 239.85747,133.70927 h -1.71355 v -14.18231 h 1.71355 z"
                 style="font-size:18.6667px;fill:#000000"
                 id="path97" />
              <path
                 d="m 251.9252,128.62333 q 0,2.48828 -1.27605,3.92839 -1.27604,1.44011 -3.41797,1.44011 -2.16016,0 -3.43621,-1.44011 -1.26693,-1.44011 -1.26693,-3.92839 0,-2.48829 1.26693,-3.92839 1.27605,-1.44923 3.43621,-1.44923 2.14193,0 3.41797,1.44923 1.27605,1.4401 1.27605,3.92839 z m -1.76824,0 q 0,-1.97787 -0.77474,-2.9349 -0.77474,-0.96615 -2.15104,-0.96615 -1.39454,0 -2.16928,0.96615 -0.76562,0.95703 -0.76562,2.9349 0,1.91406 0.77474,2.90755 0.77474,0.98438 2.16016,0.98438 1.36719,0 2.14193,-0.97526 0.78385,-0.98438 0.78385,-2.91667 z"
                 style="font-size:18.6667px;fill:#000000"
                 id="path99" />
              <path
                 d="m 262.83536,132.55172 q 0,2.58855 -1.17578,3.80079 -1.17578,1.21224 -3.6185,1.21224 -0.8112,0 -1.58594,-0.11849 -0.76562,-0.10937 -1.51302,-0.31901 v -1.75 h 0.0911 q 0.41927,0.16406 1.33073,0.40104 0.91146,0.24609 1.82292,0.24609 0.875,0 1.44922,-0.20963 0.57422,-0.20964 0.89323,-0.58334 0.31901,-0.35547 0.45573,-0.85677 0.13672,-0.5013 0.13672,-1.1211 v -0.92968 q -0.77474,0.61979 -1.48568,0.92968 -0.70183,0.30079 -1.79558,0.30079 -1.82292,0 -2.89844,-1.31251 -1.06641,-1.32161 -1.06641,-3.71875 0,-1.31251 0.36459,-2.26042 0.37369,-0.95704 1.01172,-1.64975 0.59244,-0.64713 1.4401,-1.0026 0.84766,-0.36459 1.6862,-0.36459 0.88412,0 1.47657,0.1823 0.60156,0.17317 1.26693,0.53776 l 0.10937,-0.4375 h 1.60417 z m -1.71354,-1.64063 v -5.55079 q -0.6836,-0.3099 -1.27605,-0.4375 -0.58333,-0.13672 -1.16666,-0.13672 -1.41277,0 -2.22397,0.94792 -0.8112,0.94792 -0.8112,2.75261 0,1.71354 0.60157,2.59766 0.60156,0.88412 1.99609,0.88412 0.7474,0 1.4948,-0.28256 0.75651,-0.29166 1.38542,-0.77474 z"
                 style="font-size:18.6667px;fill:#000000"
                 id="path101" />
            </g>
          </g>
        </g>
      </g>
    </g>
  </g>
</svg>
