<?xml version="1.0" encoding="UTF-8" standalone="no"?>
<svg
   xmlns:dc="http://purl.org/dc/elements/1.1/"
   xmlns:cc="http://creativecommons.org/ns#"
   xmlns:rdf="http://www.w3.org/1999/02/22-rdf-syntax-ns#"
   xmlns:svg="http://www.w3.org/2000/svg"
   xmlns="http://www.w3.org/2000/svg"
   xmlns:sodipodi="http://sodipodi.sourceforge.net/DTD/sodipodi-0.dtd"
   xmlns:inkscape="http://www.inkscape.org/namespaces/inkscape"
   version="1.1"
   id="Layer_1"
   x="0px"
   y="0px"
   width="178.509px"
   height="104.695px"
   viewBox="0 0 178.509 104.695"
   enable-background="new 0 0 178.509 104.695"
   xml:space="preserve"
   sodipodi:docname="information-builders-governance.svg"
   inkscape:version="1.0.1 (3bc2e813f5, 2020-09-07)"><metadata
   id="metadata63"><rdf:RDF><cc:Work
       rdf:about=""><dc:format>image/svg+xml</dc:format><dc:type
         rdf:resource="http://purl.org/dc/dcmitype/StillImage" /></cc:Work></rdf:RDF></metadata><defs
   id="defs61" /><sodipodi:namedview
   pagecolor="#ffffff"
   bordercolor="#666666"
   borderopacity="1"
   objecttolerance="10"
   gridtolerance="10"
   guidetolerance="10"
   inkscape:pageopacity="0"
   inkscape:pageshadow="2"
   inkscape:window-width="1920"
   inkscape:window-height="1017"
   id="namedview59"
   showgrid="false"
   inkscape:zoom="5.8372406"
   inkscape:cx="89.254501"
   inkscape:cy="52.3475"
   inkscape:window-x="-8"
   inkscape:window-y="-8"
   inkscape:window-maximized="1"
   inkscape:current-layer="Layer_1"
   inkscape:document-rotation="0" />
<g
   id="g56"
   transform="matrix(0.77197915,0,0,0.77197915,21.434469,-0.56947332)">
	<g
   id="g40">
		<path
   fill="#253873"
   d="M 5.207,73.606 V 84.81 H 3.094 V 73.606 Z"
   id="path2" />
		<path
   fill="#253873"
   d="m 9.016,76.871 v 1.281 H 9.24 c 0.32,-0.736 1.056,-1.409 2.513,-1.409 1.761,0 3.089,1.265 3.089,3.329 v 4.738 h -2.017 v -4.546 c 0,-1.104 -0.641,-1.761 -1.793,-1.761 -1.296,0 -1.985,0.801 -1.985,2.209 V 84.81 H 7.031 v -7.939 z"
   id="path4" />
		<path
   fill="#253873"
   d="m 17.754,76.871 v -1.633 c 0,-0.928 0.672,-1.632 1.601,-1.632 h 2.081 v 1.729 h -1.217 c -0.288,0 -0.448,0.16 -0.448,0.479 v 1.057 h 2.081 V 78.6 h -2.081 v 6.211 H 17.754 V 78.6 h -2.017 v -1.729 z"
   id="path6" />
		<path
   fill="#253873"
   d="m 26.637,76.647 c 2.337,0 4.162,1.696 4.162,4.193 0,2.497 -1.825,4.193 -4.162,4.193 -2.337,0 -4.162,-1.696 -4.162,-4.193 0,-2.497 1.825,-4.193 4.162,-4.193 z m 0,6.595 c 1.281,0 2.145,-0.961 2.145,-2.401 0,-1.44 -0.864,-2.4 -2.145,-2.4 -1.28,0 -2.145,0.96 -2.145,2.4 0,1.44 0.865,2.401 2.145,2.401 z"
   id="path8" />
		<path
   fill="#253873"
   d="m 34.096,78.023 h 0.224 c 0.304,-0.88 0.976,-1.185 1.984,-1.185 h 0.769 v 1.825 h -1.185 c -1.024,0 -1.761,0.544 -1.761,1.665 v 4.481 H 32.11 V 76.87 h 1.985 v 1.153 z"
   id="path10" />
		<path
   fill="#253873"
   d="m 40.081,76.871 v 1.185 h 0.224 c 0.336,-0.769 0.992,-1.312 2.097,-1.312 1.024,0 1.777,0.544 2.113,1.345 h 0.224 c 0.352,-0.736 0.992,-1.345 2.257,-1.345 1.457,0 2.625,1.104 2.625,2.753 v 5.314 h -2.017 v -5.154 c 0,-0.736 -0.528,-1.152 -1.296,-1.152 -0.833,0 -1.441,0.48 -1.441,1.473 v 4.834 H 42.85 v -5.154 c 0,-0.736 -0.528,-1.152 -1.297,-1.152 -0.832,0 -1.44,0.48 -1.44,1.473 v 4.834 h -2.017 v -7.939 h 1.985 z"
   id="path12" />
		<path
   fill="#253873"
   d="m 55.014,76.647 c 2.161,0 3.569,1.232 3.569,3.089 v 5.074 h -1.984 v -1.12 h -0.224 c -0.256,0.528 -0.816,1.344 -2.497,1.344 -1.793,0 -2.978,-0.96 -2.978,-2.48 0,-1.265 1.104,-2.145 2.625,-2.305 l 3.041,-0.337 v -0.191 c 0,-0.753 -0.576,-1.345 -1.665,-1.345 -1.057,0 -1.713,0.544 -2.209,1.377 l -1.633,-1.057 c 0.945,-1.184 2.018,-2.049 3.955,-2.049 z m -0.64,6.723 c 1.409,0 2.193,-0.832 2.193,-1.921 v -0.128 l -2.433,0.288 c -0.752,0.096 -1.12,0.368 -1.12,0.832 -0.001,0.544 0.463,0.929 1.36,0.929 z"
   id="path14" />
		<path
   fill="#253873"
   d="m 61.304,76.871 v -2.465 h 2.017 v 2.465 h 2.177 V 78.6 H 63.32 v 4.002 c 0,0.32 0.16,0.48 0.448,0.48 h 1.28 v 1.729 h -2.177 c -0.896,0 -1.568,-0.641 -1.568,-1.537 V 78.6 h -2.017 v -1.729 z"
   id="path16" />
		<path
   fill="#253873"
   d="m 67.85,73.189 c 0.8,0 1.424,0.561 1.424,1.377 0,0.816 -0.624,1.377 -1.424,1.377 -0.8,0 -1.425,-0.561 -1.425,-1.377 0,-0.816 0.624,-1.377 1.425,-1.377 z m 1.008,11.622 h -2.017 v -7.939 h 2.017 z"
   id="path18" />
		<path
   fill="#253873"
   d="m 74.332,76.647 c 2.337,0 4.162,1.696 4.162,4.193 0,2.497 -1.825,4.193 -4.162,4.193 -2.337,0 -4.162,-1.696 -4.162,-4.193 0,-2.497 1.825,-4.193 4.162,-4.193 z m 0,6.595 c 1.281,0 2.145,-0.961 2.145,-2.401 0,-1.44 -0.864,-2.4 -2.145,-2.4 -1.28,0 -2.145,0.96 -2.145,2.4 0,1.44 0.864,2.401 2.145,2.401 z"
   id="path20" />
		<path
   fill="#253873"
   d="m 81.79,76.871 v 1.281 h 0.224 c 0.32,-0.736 1.056,-1.409 2.513,-1.409 1.761,0 3.089,1.265 3.089,3.329 v 4.738 h -2.017 v -4.546 c 0,-1.104 -0.641,-1.761 -1.793,-1.761 -1.296,0 -1.985,0.801 -1.985,2.209 v 4.098 h -2.017 v -7.939 z"
   id="path22" />
		<path
   fill="#253873"
   d="m 35.232,88.606 c 1.937,0 3.313,1.088 3.313,3.009 0,1.345 -0.8,2.177 -1.889,2.481 v 0.191 c 1.088,0.305 1.889,1.137 1.889,2.497 0,1.856 -1.393,3.025 -3.313,3.025 H 30.126 V 88.606 Z m -2.993,4.625 h 2.785 c 0.896,0 1.505,-0.447 1.505,-1.36 0,-0.912 -0.608,-1.345 -1.505,-1.345 h -2.785 z m 0,4.659 h 2.785 c 0.896,0 1.505,-0.448 1.505,-1.36 0,-0.912 -0.608,-1.377 -1.505,-1.377 h -2.785 z"
   id="path24" />
		<path
   fill="#253873"
   d="m 45.651,99.811 v -1.28 h -0.224 c -0.32,0.736 -1.056,1.408 -2.513,1.408 -1.761,0 -3.089,-1.265 -3.089,-3.329 v -4.738 h 2.017 v 4.546 c 0,1.104 0.64,1.761 1.792,1.761 1.296,0 1.985,-0.8 1.985,-2.209 v -4.098 h 2.017 v 7.939 z"
   id="path26" />
		<path
   fill="#253873"
   d="m 50.437,88.189 c 0.8,0 1.424,0.561 1.424,1.377 0,0.816 -0.624,1.377 -1.424,1.377 -0.8,0 -1.425,-0.561 -1.425,-1.377 0,-0.816 0.624,-1.377 1.425,-1.377 z m 1.008,11.622 h -2.017 v -7.939 h 2.017 z"
   id="path28" />
		<path
   fill="#253873"
   d="M 55.254,99.811 H 53.237 V 88.606 h 2.017 z"
   id="path30" />
		<path
   fill="#253873"
   d="m 64.954,99.811 h -1.985 v -1.12 h -0.224 c -0.416,0.672 -1.121,1.344 -2.529,1.344 -1.984,0 -3.649,-1.761 -3.649,-4.193 0,-2.432 1.665,-4.193 3.649,-4.193 1.409,0 2.113,0.672 2.529,1.345 h 0.192 v -4.386 h 2.017 z m -6.371,-3.97 c 0,1.537 0.96,2.401 2.177,2.401 1.249,0 2.177,-0.896 2.177,-2.401 0,-1.505 -0.928,-2.4 -2.177,-2.4 -1.217,-0.001 -2.177,0.864 -2.177,2.4 z"
   id="path32" />
		<path
   fill="#253873"
   d="m 70.25,91.647 c 2.305,0 3.857,1.616 3.857,4.001 v 0.785 H 68.33 c 0.08,1.056 0.833,1.872 1.985,1.872 1.121,0 1.713,-0.624 1.985,-1.185 l 1.648,0.961 c -0.544,0.832 -1.473,1.952 -3.601,1.952 -2.369,0 -4.082,-1.792 -4.082,-4.257 0,-2.4 1.649,-4.129 3.985,-4.129 z m 1.809,3.377 c -0.144,-1.008 -0.784,-1.648 -1.825,-1.648 -1.136,0 -1.729,0.672 -1.889,1.648 z"
   id="path34" />
		<path
   fill="#253873"
   d="m 77.34,93.023 h 0.224 c 0.304,-0.88 0.976,-1.185 1.984,-1.185 h 0.769 v 1.825 h -1.185 c -1.024,0 -1.761,0.544 -1.761,1.665 v 4.481 H 75.354 V 91.87 h 1.985 v 1.153 z"
   id="path36" />
		<path
   fill="#253873"
   d="m 84.11,91.647 c 1.632,0 2.785,0.72 3.857,1.841 L 86.51,94.64 c -0.608,-0.721 -1.409,-1.36 -2.465,-1.36 -0.752,0 -1.168,0.319 -1.168,0.8 0,0.576 0.592,0.721 1.424,0.816 l 0.272,0.032 c 2.545,0.304 3.49,0.96 3.49,2.417 0,1.553 -1.457,2.688 -3.57,2.688 -2.193,0 -3.409,-1.12 -4.146,-2.24 l 1.601,-1.009 c 0.496,1.041 1.569,1.585 2.593,1.585 0.816,0 1.568,-0.353 1.568,-0.977 0,-0.592 -0.816,-0.704 -1.681,-0.801 L 84.156,96.56 c -2.225,-0.257 -3.233,-0.977 -3.233,-2.449 0,-1.472 1.347,-2.464 3.187,-2.464 z"
   id="path38" />
	</g>
	<rect
   x="42.666"
   y="27.117001"
   fill-rule="evenodd"
   clip-rule="evenodd"
   fill="#253873"
   width="11.32"
   height="42.68"
   id="rect42" />
	<circle
   fill-rule="evenodd"
   clip-rule="evenodd"
   fill="#253873"
   cx="47.962002"
   cy="11.602"
   r="7.5939999"
   id="circle44" />
	<rect
   x="162.52499"
   y="27.117001"
   fill-rule="evenodd"
   clip-rule="evenodd"
   fill="#253873"
   width="11.32"
   height="42.68"
   id="rect46" />
	<circle
   fill-rule="evenodd"
   clip-rule="evenodd"
   fill="#253873"
   cx="167.82201"
   cy="11.602"
   r="7.5939999"
   id="circle48" />
	<circle
   fill-rule="evenodd"
   clip-rule="evenodd"
   fill="#253873"
   cx="107.973"
   cy="11.602"
   r="7.5939999"
   id="circle50" />
	<circle
   fill-rule="evenodd"
   clip-rule="evenodd"
   fill="#253873"
   cx="107.504"
   cy="71.637001"
   r="7.5939999"
   id="circle52" />
	<path
   fill="#253873"
   d="m 137.397,71.633 c 0,15.7 -12.21,28.54 -27.65,29.55 v -11.84 c 8.9,-0.98 16.1,-8.54 16.1,-17.71 0,-9.82 -8.24,-17.81 -18.06,-17.81 -9.2,0 -17.06,7.01 -17.99,15.97 H 78.117 V 3.513 h 11.45 v 44.78 c 5.02,-3.93 11.35,-6.27 18.22,-6.27 16.35,-0.001 29.61,13.259 29.61,29.61 z"
   id="path54" />
</g>
<g
   aria-label="Data Governance"
   id="text67"
   style="font-size:13.3333px;line-height:1.25;font-family:sans-serif"><path
     d="m 43.412295,91.098518 q 0,1.321611 -0.579425,2.395827 -0.572916,1.074216 -1.529944,1.666663 -0.664061,0.410155 -1.484372,0.592446 -0.8138,0.182291 -2.148432,0.182291 h -2.44791 v -9.693986 h 2.421869 q 1.419267,0 2.252598,0.208333 0.839842,0.201823 1.419267,0.559895 0.989581,0.618488 1.542965,1.647131 0.553384,1.028643 0.553384,2.4414 z m -1.347653,-0.01953 q 0,-1.13932 -0.397134,-1.920568 -0.397134,-0.781248 -1.184893,-1.230466 -0.572915,-0.32552 -1.217445,-0.449218 -0.644529,-0.130208 -1.542965,-0.130208 h -1.210934 v 7.48045 h 1.210934 q 0.930988,0 1.62109,-0.136718 0.696613,-0.136719 1.276039,-0.507811 0.722654,-0.462239 1.080726,-1.217445 0.364582,-0.755207 0.364582,-1.888016 z"
     id="path37" /><path
     d="M 51.048995,95.935745 H 49.83155 v -0.774737 q -0.16276,0.110676 -0.442707,0.312499 -0.273437,0.195312 -0.533853,0.312499 -0.305989,0.149739 -0.703123,0.247395 -0.397135,0.104167 -0.930987,0.104167 -0.983071,0 -1.666663,-0.65104 -0.683592,-0.65104 -0.683592,-1.660152 0,-0.826821 0.351562,-1.334632 0.358072,-0.514322 1.015622,-0.80729 0.664061,-0.292968 1.595048,-0.397135 0.930987,-0.104166 1.998693,-0.156249 v -0.188802 q 0,-0.416665 -0.149739,-0.690102 -0.143229,-0.273437 -0.416666,-0.429687 -0.260416,-0.149739 -0.624998,-0.201822 -0.364583,-0.05208 -0.761717,-0.05208 -0.48177,0 -1.074216,0.130208 -0.592446,0.123697 -1.223955,0.364582 h -0.0651 v -1.243486 q 0.358072,-0.09766 1.035153,-0.214843 0.677082,-0.117188 1.334632,-0.117188 0.768228,0 1.334632,0.130208 0.572916,0.123698 0.989581,0.429687 0.410155,0.299478 0.624999,0.774737 0.214843,0.47526 0.214843,1.178383 z m -1.217445,-1.79036 v -2.024734 q -0.559894,0.03255 -1.321611,0.09766 -0.755207,0.0651 -1.197914,0.188801 -0.527342,0.14974 -0.852862,0.468749 -0.32552,0.312499 -0.32552,0.865883 0,0.624999 0.377603,0.944008 0.377603,0.3125 1.152341,0.3125 0.644529,0 1.178382,-0.247396 0.533853,-0.253905 0.989581,-0.605467 z"
     id="path39" /><path
     d="m 57.181792,95.870641 q -0.345051,0.09115 -0.755206,0.149739 -0.403645,0.05859 -0.722655,0.05859 -1.113278,0 -1.692704,-0.598957 -0.579425,-0.598957 -0.579425,-1.920568 v -3.867178 h -0.826821 v -1.028643 h 0.826821 V 86.57379 h 1.223955 v 2.089838 h 2.526035 v 1.028643 h -2.526035 v 3.313794 q 0,0.572915 0.02604,0.898435 0.02604,0.31901 0.182292,0.598957 0.143228,0.260416 0.390624,0.384114 0.253905,0.117187 0.768227,0.117187 0.299478,0 0.624998,-0.08463 0.32552,-0.09115 0.468749,-0.149739 h 0.0651 z"
     id="path41" /><path
     d="m 64.31068,95.935745 h -1.217445 v -0.774737 q -0.16276,0.110676 -0.442707,0.312499 -0.273437,0.195312 -0.533853,0.312499 -0.305988,0.149739 -0.703123,0.247395 -0.397134,0.104167 -0.930987,0.104167 -0.983071,0 -1.666663,-0.65104 -0.683592,-0.65104 -0.683592,-1.660152 0,-0.826821 0.351562,-1.334632 0.358072,-0.514322 1.015622,-0.80729 0.664061,-0.292968 1.595049,-0.397135 0.930987,-0.104166 1.998692,-0.156249 v -0.188802 q 0,-0.416665 -0.149739,-0.690102 -0.143229,-0.273437 -0.416665,-0.429687 -0.260416,-0.149739 -0.624999,-0.201822 -0.364582,-0.05208 -0.761717,-0.05208 -0.481769,0 -1.074216,0.130208 -0.592446,0.123697 -1.223955,0.364582 h -0.0651 v -1.243486 q 0.358072,-0.09766 1.035154,-0.214843 0.677081,-0.117188 1.334632,-0.117188 0.768227,0 1.334632,0.130208 0.572915,0.123698 0.989581,0.429687 0.410155,0.299478 0.624998,0.774737 0.214843,0.47526 0.214843,1.178383 z m -1.217445,-1.79036 v -2.024734 q -0.559894,0.03255 -1.321611,0.09766 -0.755206,0.0651 -1.197913,0.188801 -0.527343,0.14974 -0.852863,0.468749 -0.32552,0.312499 -0.32552,0.865883 0,0.624999 0.377603,0.944008 0.377603,0.3125 1.152341,0.3125 0.64453,0 1.178383,-0.247396 0.533852,-0.253905 0.98958,-0.605467 z"
     id="path43" /><path
     d="m 79.538506,95.219601 q -0.794269,0.364583 -1.738277,0.638019 -0.937497,0.266927 -1.816402,0.266927 -1.132809,0 -2.076817,-0.312499 -0.944008,-0.3125 -1.608069,-0.937498 -0.670571,-0.631509 -1.035154,-1.575517 -0.364582,-0.950518 -0.364582,-2.220046 0,-2.324213 1.354163,-3.665356 1.360674,-1.347652 3.730459,-1.347652 0.826821,0 1.686194,0.201822 0.865883,0.195312 1.861975,0.670571 v 1.529944 h -0.117188 q -0.201822,-0.156249 -0.585936,-0.410155 -0.384113,-0.253906 -0.755206,-0.423176 -0.449218,-0.201822 -1.022133,-0.33203 -0.566405,-0.136719 -1.289059,-0.136719 -1.6276,0 -2.578119,1.048175 -0.944008,1.041664 -0.944008,2.825513 0,1.881506 0.989581,2.92968 0.989581,1.041664 2.695306,1.041664 0.624998,0 1.243486,-0.123697 0.624999,-0.123698 1.093748,-0.31901 v -2.376296 h -2.59765 v -1.13281 h 3.873688 z"
     id="path45" /><path
     d="m 87.89135,92.302942 q 0,1.777339 -0.911456,2.805982 -0.911456,1.028644 -2.4414,1.028644 -1.542965,0 -2.454421,-1.028644 -0.904945,-1.028643 -0.904945,-2.805982 0,-1.777339 0.904945,-2.805983 0.911456,-1.035153 2.454421,-1.035153 1.529944,0 2.4414,1.035153 0.911456,1.028644 0.911456,2.805983 z m -1.263017,0 q 0,-1.412757 -0.553385,-2.096349 -0.553384,-0.690102 -1.536454,-0.690102 -0.996091,0 -1.549475,0.690102 -0.546874,0.683592 -0.546874,2.096349 0,1.367184 0.553384,2.076818 0.553384,0.703123 1.542965,0.703123 0.97656,0 1.529944,-0.696613 0.559895,-0.703123 0.559895,-2.083328 z"
     id="path47" /><path
     d="m 95.977266,88.663628 -2.942701,7.272117 H 91.804099 L 88.88093,88.663628 h 1.328121 l 2.252599,5.787746 2.233067,-5.787746 z"
     id="path49" /><path
     d="m 103.54886,92.42664 h -5.358058 q 0,0.670571 0.201823,1.171872 0.201822,0.49479 0.553384,0.8138 0.338541,0.312499 0.800779,0.468748 0.468752,0.15625 1.028642,0.15625 0.74219,0 1.49088,-0.292968 0.75521,-0.299478 1.07422,-0.585936 h 0.0651 v 1.334632 q -0.61848,0.260416 -1.26301,0.436197 -0.64453,0.175781 -1.35417,0.175781 -1.809889,0 -2.825512,-0.97656 -1.015622,-0.983071 -1.015622,-2.786452 0,-1.783849 0.97005,-2.832024 0.97656,-1.048174 2.565094,-1.048174 1.47135,0 2.26562,0.859373 0.80078,0.859372 0.80078,2.4414 z m -1.1914,-0.937498 q -0.007,-0.963539 -0.48828,-1.490882 -0.47526,-0.527342 -1.45182,-0.527342 -0.983071,0 -1.569007,0.579425 -0.579426,0.579426 -0.657551,1.438799 z"
     id="path51" /><path
     d="m 109.94207,89.99826 h -0.0651 q -0.27344,-0.0651 -0.53385,-0.09114 -0.25391,-0.03255 -0.60547,-0.03255 -0.5664,0 -1.09375,0.253905 -0.52734,0.247395 -1.01562,0.64453 v 5.162747 h -1.22395 v -7.272117 h 1.22395 v 1.074216 q 0.72917,-0.585936 1.28255,-0.826821 0.55989,-0.247395 1.13932,-0.247395 0.31901,0 0.46224,0.01953 0.14323,0.01302 0.42968,0.05859 z"
     id="path53" /><path
     d="m 117.17513,95.935745 h -1.22395 v -4.140614 q 0,-0.501301 -0.0586,-0.937498 -0.0586,-0.442707 -0.21484,-0.690102 -0.16276,-0.273437 -0.46875,-0.403645 -0.30599,-0.136719 -0.79427,-0.136719 -0.5013,0 -1.04817,0.247396 -0.54687,0.247395 -1.04818,0.631508 v 5.429674 h -1.22395 v -7.272117 h 1.22395 v 0.80729 q 0.57292,-0.475259 1.1849,-0.742186 0.61198,-0.266926 1.2565,-0.266926 1.17839,0 1.79688,0.709633 0.61848,0.709634 0.61848,2.044266 z"
     id="path55" /><path
     d="m 125.18292,95.935745 h -1.21744 v -0.774737 q -0.16276,0.110676 -0.44271,0.312499 -0.27343,0.195312 -0.53385,0.312499 -0.30599,0.149739 -0.70312,0.247395 -0.39714,0.104167 -0.93099,0.104167 -0.98307,0 -1.66666,-0.65104 -0.6836,-0.65104 -0.6836,-1.660152 0,-0.826821 0.35157,-1.334632 0.35807,-0.514322 1.01562,-0.80729 0.66406,-0.292968 1.59505,-0.397135 0.93098,-0.104166 1.99869,-0.156249 v -0.188802 q 0,-0.416665 -0.14974,-0.690102 -0.14323,-0.273437 -0.41667,-0.429687 -0.26041,-0.149739 -0.62499,-0.201822 -0.36459,-0.05208 -0.76172,-0.05208 -0.48177,0 -1.07422,0.130208 -0.59244,0.123697 -1.22395,0.364582 h -0.0651 v -1.243486 q 0.35808,-0.09766 1.03516,-0.214843 0.67708,-0.117188 1.33463,-0.117188 0.76823,0 1.33463,0.130208 0.57292,0.123698 0.98958,0.429687 0.41016,0.299478 0.625,0.774737 0.21484,0.47526 0.21484,1.178383 z m -1.21744,-1.79036 v -2.024734 q -0.5599,0.03255 -1.32161,0.09766 -0.75521,0.0651 -1.19792,0.188801 -0.52734,0.14974 -0.85286,0.468749 -0.32552,0.312499 -0.32552,0.865883 0,0.624999 0.37761,0.944008 0.3776,0.3125 1.15234,0.3125 0.64453,0 1.17838,-0.247396 0.53385,-0.253905 0.98958,-0.605467 z"
     id="path57" /><path
     d="m 133.6204,95.935745 h -1.22396 v -4.140614 q 0,-0.501301 -0.0586,-0.937498 -0.0586,-0.442707 -0.21484,-0.690102 -0.16276,-0.273437 -0.46875,-0.403645 -0.30599,-0.136719 -0.79427,-0.136719 -0.5013,0 -1.04817,0.247396 -0.54688,0.247395 -1.04818,0.631508 v 5.429674 h -1.22395 v -7.272117 h 1.22395 v 0.80729 q 0.57292,-0.475259 1.18489,-0.742186 0.61198,-0.266926 1.25651,-0.266926 1.17838,0 1.79687,0.709633 0.61849,0.709634 0.61849,2.044266 z"
     id="path59" /><path
     d="m 141.35475,95.480017 q -0.61197,0.292968 -1.16536,0.455728 -0.54687,0.16276 -1.16536,0.16276 -0.78776,0 -1.44531,-0.227864 -0.65755,-0.234374 -1.1263,-0.703123 -0.47526,-0.468749 -0.73567,-1.184893 -0.26042,-0.716144 -0.26042,-1.673173 0,-1.783849 0.97656,-2.799472 0.98307,-1.015622 2.59114,-1.015622 0.625,0 1.22396,0.175781 0.60546,0.17578 1.10676,0.429686 v 1.360674 h -0.0651 q -0.55989,-0.436197 -1.15885,-0.670572 -0.59245,-0.234374 -1.15885,-0.234374 -1.04167,0 -1.64713,0.703123 -0.59896,0.696613 -0.59896,2.050776 0,1.315101 0.58594,2.024735 0.59244,0.703123 1.66015,0.703123 0.37109,0 0.7552,-0.09766 0.38412,-0.09766 0.69011,-0.253906 0.26692,-0.136718 0.5013,-0.286457 0.23437,-0.15625 0.37109,-0.266927 h 0.0651 z"
     id="path61" /><path
     d="m 149.01099,92.42664 h -5.35806 q 0,0.670571 0.20182,1.171872 0.20182,0.49479 0.55339,0.8138 0.33854,0.312499 0.80078,0.468748 0.46874,0.15625 1.02864,0.15625 0.74218,0 1.49088,-0.292968 0.75521,-0.299478 1.07422,-0.585936 h 0.0651 v 1.334632 q -0.61849,0.260416 -1.26302,0.436197 -0.64453,0.175781 -1.35416,0.175781 -1.80989,0 -2.82551,-0.97656 -1.01563,-0.983071 -1.01563,-2.786452 0,-1.783849 0.97005,-2.832024 0.97656,-1.048174 2.5651,-1.048174 1.47135,0 2.26562,0.859373 0.80078,0.859372 0.80078,2.4414 z m -1.1914,-0.937498 q -0.007,-0.963539 -0.48828,-1.490882 -0.47526,-0.527342 -1.45182,-0.527342 -0.98307,0 -1.56901,0.579425 -0.57943,0.579426 -0.65755,1.438799 z"
     id="path63" /></g></svg>
