<?xml version="1.0" encoding="utf-8"?>
<!-- Generator: Adobe Illustrator 25.0.1, SVG Export Plug-In . SVG Version: 6.00 Build 0)  -->
<svg version="1.1" id="Layer_1" xmlns="http://www.w3.org/2000/svg" xmlns:xlink="http://www.w3.org/1999/xlink" x="0px" y="0px"
	 width="178.509px" height="104.695px" viewBox="0 0 178.509 104.695" enable-background="new 0 0 178.509 104.695"
	 xml:space="preserve">
<g>
	<g>
		<path fill="#253873" d="M5.207,73.606v11.204H3.094V73.606H5.207z"/>
		<path fill="#253873" d="M9.016,76.871v1.281H9.24c0.32-0.736,1.056-1.409,2.513-1.409c1.761,0,3.089,1.265,3.089,3.329v4.738
			h-2.017v-4.546c0-1.104-0.641-1.761-1.793-1.761c-1.296,0-1.985,0.801-1.985,2.209v4.098H7.031v-7.939H9.016z"/>
		<path fill="#253873" d="M17.754,76.871v-1.633c0-0.928,0.672-1.632,1.601-1.632h2.081v1.729h-1.217
			c-0.288,0-0.448,0.16-0.448,0.479v1.057h2.081V78.6h-2.081v6.211h-2.017V78.6h-2.017v-1.729H17.754z"/>
		<path fill="#253873" d="M26.637,76.647c2.337,0,4.162,1.696,4.162,4.193s-1.825,4.193-4.162,4.193s-4.162-1.696-4.162-4.193
			S24.3,76.647,26.637,76.647z M26.637,83.242c1.281,0,2.145-0.961,2.145-2.401s-0.864-2.4-2.145-2.4c-1.28,0-2.145,0.96-2.145,2.4
			S25.357,83.242,26.637,83.242z"/>
		<path fill="#253873" d="M34.096,78.023h0.224c0.304-0.88,0.976-1.185,1.984-1.185h0.769v1.825h-1.185
			c-1.024,0-1.761,0.544-1.761,1.665v4.481h-2.017v-7.939h1.985V78.023z"/>
		<path fill="#253873" d="M40.081,76.871v1.185h0.224c0.336-0.769,0.992-1.312,2.097-1.312c1.024,0,1.777,0.544,2.113,1.345h0.224
			c0.352-0.736,0.992-1.345,2.257-1.345c1.457,0,2.625,1.104,2.625,2.753v5.314h-2.017v-5.154c0-0.736-0.528-1.152-1.296-1.152
			c-0.833,0-1.441,0.48-1.441,1.473v4.834H42.85v-5.154c0-0.736-0.528-1.152-1.297-1.152c-0.832,0-1.44,0.48-1.44,1.473v4.834
			h-2.017v-7.939H40.081z"/>
		<path fill="#253873" d="M55.014,76.647c2.161,0,3.569,1.232,3.569,3.089v5.074h-1.984v-1.12h-0.224
			c-0.256,0.528-0.816,1.344-2.497,1.344c-1.793,0-2.978-0.96-2.978-2.48c0-1.265,1.104-2.145,2.625-2.305l3.041-0.337v-0.191
			c0-0.753-0.576-1.345-1.665-1.345c-1.057,0-1.713,0.544-2.209,1.377l-1.633-1.057C52.004,77.512,53.077,76.647,55.014,76.647z
			 M54.374,83.37c1.409,0,2.193-0.832,2.193-1.921v-0.128l-2.433,0.288c-0.752,0.096-1.12,0.368-1.12,0.832
			C53.013,82.985,53.477,83.37,54.374,83.37z"/>
		<path fill="#253873" d="M61.304,76.871v-2.465h2.017v2.465h2.177V78.6H63.32v4.002c0,0.32,0.16,0.48,0.448,0.48h1.28v1.729h-2.177
			c-0.896,0-1.568-0.641-1.568-1.537V78.6h-2.017v-1.729H61.304z"/>
		<path fill="#253873" d="M67.85,73.189c0.8,0,1.424,0.561,1.424,1.377s-0.624,1.377-1.424,1.377s-1.425-0.561-1.425-1.377
			S67.049,73.189,67.85,73.189z M68.858,84.811h-2.017v-7.939h2.017V84.811z"/>
		<path fill="#253873" d="M74.332,76.647c2.337,0,4.162,1.696,4.162,4.193s-1.825,4.193-4.162,4.193s-4.162-1.696-4.162-4.193
			S71.995,76.647,74.332,76.647z M74.332,83.242c1.281,0,2.145-0.961,2.145-2.401s-0.864-2.4-2.145-2.4
			c-1.28,0-2.145,0.96-2.145,2.4S73.051,83.242,74.332,83.242z"/>
		<path fill="#253873" d="M81.79,76.871v1.281h0.224c0.32-0.736,1.056-1.409,2.513-1.409c1.761,0,3.089,1.265,3.089,3.329v4.738
			h-2.017v-4.546c0-1.104-0.641-1.761-1.793-1.761c-1.296,0-1.985,0.801-1.985,2.209v4.098h-2.017v-7.939H81.79z"/>
		<path fill="#253873" d="M35.232,88.606c1.937,0,3.313,1.088,3.313,3.009c0,1.345-0.8,2.177-1.889,2.481v0.191
			c1.088,0.305,1.889,1.137,1.889,2.497c0,1.856-1.393,3.025-3.313,3.025h-5.106V88.606H35.232z M32.239,93.231h2.785
			c0.896,0,1.505-0.447,1.505-1.36c0-0.912-0.608-1.345-1.505-1.345h-2.785V93.231z M32.239,97.89h2.785
			c0.896,0,1.505-0.448,1.505-1.36s-0.608-1.377-1.505-1.377h-2.785V97.89z"/>
		<path fill="#253873" d="M45.651,99.811v-1.28h-0.224c-0.32,0.736-1.056,1.408-2.513,1.408c-1.761,0-3.089-1.265-3.089-3.329
			v-4.738h2.017v4.546c0,1.104,0.64,1.761,1.792,1.761c1.296,0,1.985-0.8,1.985-2.209v-4.098h2.017v7.939H45.651z"/>
		<path fill="#253873" d="M50.437,88.189c0.8,0,1.424,0.561,1.424,1.377s-0.624,1.377-1.424,1.377s-1.425-0.561-1.425-1.377
			S49.636,88.189,50.437,88.189z M51.445,99.811h-2.017v-7.939h2.017V99.811z"/>
		<path fill="#253873" d="M55.254,99.811h-2.017V88.606h2.017V99.811z"/>
		<path fill="#253873" d="M64.954,99.811h-1.985v-1.12h-0.224c-0.416,0.672-1.121,1.344-2.529,1.344
			c-1.984,0-3.649-1.761-3.649-4.193s1.665-4.193,3.649-4.193c1.409,0,2.113,0.672,2.529,1.345h0.192v-4.386h2.017V99.811z
			 M58.583,95.841c0,1.537,0.96,2.401,2.177,2.401c1.249,0,2.177-0.896,2.177-2.401s-0.928-2.4-2.177-2.4
			C59.543,93.44,58.583,94.305,58.583,95.841z"/>
		<path fill="#253873" d="M70.25,91.647c2.305,0,3.857,1.616,3.857,4.001v0.785H68.33c0.08,1.056,0.833,1.872,1.985,1.872
			c1.121,0,1.713-0.624,1.985-1.185l1.648,0.961c-0.544,0.832-1.473,1.952-3.601,1.952c-2.369,0-4.082-1.792-4.082-4.257
			C66.265,93.376,67.914,91.647,70.25,91.647z M72.059,95.024c-0.144-1.008-0.784-1.648-1.825-1.648
			c-1.136,0-1.729,0.672-1.889,1.648H72.059z"/>
		<path fill="#253873" d="M77.34,93.023h0.224c0.304-0.88,0.976-1.185,1.984-1.185h0.769v1.825h-1.185
			c-1.024,0-1.761,0.544-1.761,1.665v4.481h-2.017v-7.939h1.985V93.023z"/>
		<path fill="#253873" d="M84.11,91.647c1.632,0,2.785,0.72,3.857,1.841l-1.457,1.152c-0.608-0.721-1.409-1.36-2.465-1.36
			c-0.752,0-1.168,0.319-1.168,0.8c0,0.576,0.592,0.721,1.424,0.816l0.272,0.032c2.545,0.304,3.49,0.96,3.49,2.417
			c0,1.553-1.457,2.688-3.57,2.688c-2.193,0-3.409-1.12-4.146-2.24l1.601-1.009c0.496,1.041,1.569,1.585,2.593,1.585
			c0.816,0,1.568-0.353,1.568-0.977c0-0.592-0.816-0.704-1.681-0.801l-0.272-0.031c-2.225-0.257-3.233-0.977-3.233-2.449
			S82.27,91.647,84.11,91.647z"/>
	</g>
	<rect x="42.666" y="27.117" fill-rule="evenodd" clip-rule="evenodd" fill="#253873" width="11.32" height="42.68"/>
	<circle fill-rule="evenodd" clip-rule="evenodd" fill="#253873" cx="47.962" cy="11.602" r="7.594"/>
	<rect x="162.525" y="27.117" fill-rule="evenodd" clip-rule="evenodd" fill="#253873" width="11.32" height="42.68"/>
	<circle fill-rule="evenodd" clip-rule="evenodd" fill="#253873" cx="167.822" cy="11.602" r="7.594"/>
	<circle fill-rule="evenodd" clip-rule="evenodd" fill="#253873" cx="107.973" cy="11.602" r="7.594"/>
	<circle fill-rule="evenodd" clip-rule="evenodd" fill="#253873" cx="107.504" cy="71.637" r="7.594"/>
	<path fill="#253873" d="M137.397,71.633c0,15.7-12.21,28.54-27.65,29.55v-11.84c8.9-0.98,16.1-8.54,16.1-17.71
		c0-9.82-8.24-17.81-18.06-17.81c-9.2,0-17.06,7.01-17.99,15.97h-11.68V3.513h11.45v44.78c5.02-3.93,11.35-6.27,18.22-6.27
		C124.137,42.022,137.397,55.282,137.397,71.633z"/>
</g>
</svg>
