<?xml version="1.0" encoding="utf-8"?>
<!-- Generator: Adobe Illustrator 25.0.1, SVG Export Plug-In . SVG Version: 6.00 Build 0)  -->
<svg version="1.1" id="Layer_1" xmlns="http://www.w3.org/2000/svg" xmlns:xlink="http://www.w3.org/1999/xlink" x="0px" y="0px"
	 width="440.4px" height="88.6px" viewBox="0 0 440.4 88.6" enable-background="new 0 0 440.4 88.6" xml:space="preserve">
<desc>Created with Sketch.</desc>
<g>
	<polygon fill="#0C58A9" enable-background="new    " points="105.1,16.9 114.2,16.9 114.2,53.9 141.1,16.9 152.2,16.9 133.8,41.9 
		156.7,68.5 143.8,68.5 127.8,50 114.3,68.5 105.1,68.5 	"/>
	<path fill="#0C58A9" enable-background="new    " d="M158.4,34.7h8.7c0,0,0,17.3,0,20.6s3.5,6.3,7,6.3c4.8,0,8.5-3.5,8.5-10
		c0-4.6,0-16.7,0-16.7h9c0,0,0,20.6,0,24.8s0,11.9,0,14.5s-2.2,14.3-17.8,14.3c-13.5,0-16.7-7.5-16.7-7.5l7.4-6c0,0,2.5,4.7,9.2,4.7
		s9-4.9,9-7.9s0-6.5,0-6.5s-3.2,4.1-10.9,4.1s-13.7-5-13.7-14.3S158.4,34.7,158.4,34.7z"/>
	<path fill="#0C58A9" enable-background="new    " d="M200.5,14.2h8.9c0,0,0,22.3,0,28.9s0,7.7,0,12.1s0.5,6.2,3.7,6.2
		s4.5-0.9,4.5-0.9l1.8,7.3c0,0-1.9,1.9-7.8,1.9s-11.1-4.2-11.1-11.1S200.5,14.2,200.5,14.2z"/>
	<rect x="224.1" y="34.7" fill="#0C58A9" enable-background="new    " width="9.1" height="33.8"/>
	<circle fill="#DE175E" enable-background="new    " cx="228.6" cy="23" r="5.6"/>
	<path fill="#0C58A9" enable-background="new    " d="M268.7,34.7v2.7c0,0-3.2-3.8-10.8-3.8c-7.6,0-17.2,5.6-17.2,17.9
		c0,12.3,9,17.9,16.6,17.9c7.6,0,11.2-3.7,11.2-3.7s0,1.8,0,5.4c0,3.6-2.8,8.7-9.9,8.7c-7.2,0-9.7-5-9.7-5l-7.1,6.2
		c0,0,3.2,7.1,16.5,7.1c13.3,0,19-7.9,19-14.6s0-38.9,0-38.9H268.7z M258.7,62.1c-5.5,0-9.9-4.7-9.9-10.4c0-5.8,4.4-10.4,9.9-10.4
		c5.5,0,9.9,4.7,9.9,10.4C268.6,57.4,264.2,62.1,258.7,62.1z"/>
	<path fill="#0C58A9" enable-background="new    " d="M302.2,33.7c-12.4,0-17.6,9.6-17.6,18c0,8.9,5.8,17.9,17.3,17.9
		c13,0,16.5-10.1,16.5-10.1l-7.8-1.9c0,0-2.3,4.6-8.2,4.6c-5.9,0-9-5-9-8.1h25.9C319.9,46.2,315.5,33.7,302.2,33.7z M293.6,47.8
		c0,0,1.4-6.4,8.3-6.4s8.2,6.4,8.2,6.4H293.6z"/>
	<path fill="#0C58A9" enable-background="new    " d="M423.3,33.7c-12.4,0-17.6,9.6-17.6,18c0,8.9,5.8,17.9,17.3,17.9
		c13,0,16.5-10.1,16.5-10.1l-7.8-1.9c0,0-2.3,4.6-8.2,4.6c-5.9,0-9-5-9-8.1h25.9C441,46.2,436.6,33.7,423.3,33.7z M414.7,47.8
		c0,0,1.4-6.4,8.3-6.4s8.2,6.4,8.2,6.4H414.7z"/>
	<path fill="#0C58A9" enable-background="new    " d="M326.2,34.7h8.8V38c0,0,3.4-4.3,11.1-4.3s13.5,5.5,13.5,14.1s0,20.7,0,20.7
		h-8.9c0,0,0-15.3,0-18.8s-2.3-8.1-6.8-8.1c-6,0-8.6,4.9-8.6,9.7s0,17.1,0,17.1h-9V34.7z"/>
	<path fill="#0C58A9" enable-background="new    " d="M402,57.1c-2.3,7.3-9.3,12.7-17.7,12.8c-10.4,0.1-18.9-7.9-19-18
		c-0.1-10.1,8.1-18.4,18.5-18.5c8.5-0.1,15.7,5.2,18.2,12.7h-0.3l-8.5,2.3c-1.2-4-4.6-6.8-9.3-6.8c-5.4,0-9.8,4.3-9.8,10.1
		c0,5.6,4,10.3,9.8,10.3c5,0,8.2-3,9.3-7.1L402,57.1z"/>
	<path fill="#6399D7" enable-background="new    " d="M54.6,72.3l-12,12c-0.2,0.2-0.6,0.2-0.8,0l-12-12c-0.2-0.2-0.2-0.6,0-0.8
		l12-12c0.2-0.2,0.6-0.2,0.8,0l12,12C54.8,71.7,54.8,72.1,54.6,72.3z"/>
	<path fill="#6399D7" enable-background="new    " d="M54.6,42.6l-12,12c-0.2,0.2-0.6,0.2-0.8,0l-12-12c-0.2-0.2-0.2-0.6,0-0.8
		l12-12c0.2-0.2,0.6-0.2,0.8,0l12,12C54.8,42,54.8,42.4,54.6,42.6z"/>
	<path fill="#0C58A9" enable-background="new    " d="M24.9,42.6l-12,12c-0.2,0.2-0.6,0.2-0.8,0l-12-12c-0.2-0.2-0.2-0.6,0-0.8
		l12-12c0.2-0.2,0.6-0.2,0.8,0l12,12C25.1,42,25.1,42.4,24.9,42.6z"/>
	<path fill="#0C58A9" enable-background="new    " d="M39.7,27.8l-12,12c-0.2,0.2-0.6,0.2-0.8,0l-12-12c-0.2-0.2-0.2-0.6,0-0.8
		l12-12c0.2-0.2,0.6-0.2,0.8,0l12,12C40,27.2,40,27.6,39.7,27.8z"/>
	<path fill="#0C58A9" enable-background="new    " d="M39.7,57.5l-12,12c-0.2,0.2-0.6,0.2-0.8,0l-12-12c-0.2-0.2-0.2-0.6,0-0.8
		l12-12c0.2-0.2,0.6-0.2,0.8,0l12,12C40,56.9,40,57.2,39.7,57.5z"/>
	<path fill="#6399D7" enable-background="new    " d="M54.6,12.9l-12,12c-0.2,0.2-0.6,0.2-0.8,0l-12-12c-0.2-0.2-0.2-0.6,0-0.8
		l12-12c0.2-0.2,0.6-0.2,0.8,0l12,12C54.8,12.4,54.8,12.7,54.6,12.9z"/>
	<path fill="#DE175E" enable-background="new    " d="M72.1,29.7L58,39c-0.3,0.2-0.6,0.1-0.8-0.2l-9.3-14.1
		c-0.2-0.3-0.1-0.6,0.2-0.8l14.1-9.3c0.3-0.2,0.6-0.1,0.8,0.2l9.3,14.1C72.5,29.1,72.4,29.5,72.1,29.7z"/>
	<path fill="#DE175E" enable-background="new    " d="M72.1,59.4L58,68.8c-0.3,0.2-0.6,0.1-0.8-0.2l-9.3-14.1
		c-0.2-0.3-0.1-0.6,0.2-0.8l14.1-9.3c0.3-0.2,0.6-0.1,0.8,0.2l9.3,14.1C72.5,58.9,72.4,59.2,72.1,59.4z"/>
	<path fill="#DE175E" enable-background="new    " d="M92.1,50.2l-15.6,6.4c-0.3,0.1-0.6,0-0.8-0.3l-6.4-15.6
		c-0.1-0.3,0-0.6,0.3-0.8l15.6-6.4c0.3-0.1,0.6,0,0.8,0.3l6.4,15.6C92.5,49.7,92.4,50.1,92.1,50.2z"/>
</g>
</svg>
