<?xml version="1.0" encoding="utf-8"?>
<!-- Generator: Adobe Illustrator 25.0.1, SVG Export Plug-In . SVG Version: 6.00 Build 0)  -->
<svg version="1.1" id="Layer_1" xmlns="http://www.w3.org/2000/svg" xmlns:xlink="http://www.w3.org/1999/xlink" x="0px" y="0px"
	 width="1780.8px" height="476.8px" viewBox="0 0 1780.8 476.8" style="enable-background:new 0 0 1780.8 476.8;"
	 xml:space="preserve">
<style type="text/css">
	.st0{fill:#F2951A;enable-background:new    ;}
	.st1{fill:#030008;enable-background:new    ;}
	.st2{fill:#503989;enable-background:new    ;}
</style>
<g>
	<path class="st0" d="M27,252.4v94.4h32v-62.4h62.4v-32H27z M213.9,368.9v62.4h-62.4v32h94.4v-94.4H213.9z M59,368.9H27v94.4h94.4
		v-32H59V368.9z M151.5,252.4v32h62.4v62.4h32v-94.4H151.5z"/>
	<path class="st1" d="M151.5,135.9v94.4h32v-62.4h62.4v-32H151.5z M338.4,252.4v62.4H276v32h94.4v-94.4H338.4z M183.5,252.4h-32
		v94.4h94.4v-32h-62.4V252.4z M276,135.9v32h62.4v62.4h32v-94.4H276z"/>
	<path class="st2" d="M276,19.4v94.4h32V51.4h62.4v-32H276z M462.9,135.9v62.4h-62.4v32h94.4v-94.4H462.9z M308,135.9h-32v94.4h94.4
		v-32H308V135.9z M400.5,19.4v32h62.4v62.4h32V19.4H400.5z"/>
	<rect x="567.2" y="13.5" class="st2" width="41.1" height="311.2"/>
	<path class="st2" d="M1309.4,114.6l-4,32.2c-0.2,2-2.1,3.3-4.1,2.9c-3.8-0.8-10.3-1.9-18.9-2.7c-20.7-1.8-38.1,3.2-54.8,43.8v133.8
		h-41.1V110h25.4c6.8,0,12.4,5.5,12.4,12.3l0.2,26.2l0.2,0.5c7.5-13.4,29.2-46,61.7-43.1c10.3,0.9,17.6,3.6,21.1,5.2
		C1308.8,111.7,1309.6,113.1,1309.4,114.6z"/>
	<path class="st2" d="M641.5,110l88.2,200.8l-39.4,85.5h34.9c2.7,0,5.2-1.6,6.3-4.1L854.4,110h-35.2c-4,0-7.5,2.4-9,6l-57.4,140.9
		l-1.5,5.5h-2l-1.3-5.5l-59-141c-1.5-3.6-5-6-9-6H641.5z"/>
	<path class="st2" d="M1000.9,23.8v17.7c0,3.9-3.2,7.1-7.1,7.1h-17.6c-20.2,0-36.5,16.3-36.7,36.4l-0.2,28.3h59.2V143h-58v181.6
		h-41.1V143h-11.3c-8.9,0-22.4-3-22.4-11.9v-17.9h33.7V86c0-38.3,31-69.3,69.3-69.3h25.1C997.7,16.7,1000.9,19.9,1000.9,23.8z"/>
	<path class="st2" d="M1151.8,310.2c-6.5,5-25,17.3-50.8,17.3c-45.4,0-54-32.6-54-49.9v-30.2c0-7,0-12,0-12V143h-19.5
		c-8.9,0-13.4-2.3-13.4-11.2v-13.9l32.9-4.7h0.3l11.3-72.7h29.9v72.7h60.9V143H1088v89.1c0,0,0,5.4,0,15.4v17.2
		c0,21,8.8,29.2,22.8,29.2c8.7,0,16.8-4.7,21.7-8.2c2.7-1.9,6.5-1.2,8.3,1.6l11.7,18C1153.6,307,1153.3,309.1,1151.8,310.2z"/>
	<path class="st2" d="M1423.7,105.7c-57.1,0-103.4,40.5-103.4,110.5c0,71.7,46.3,110.5,103.4,110.5c57.1,0,103.4-36.2,103.4-110.5
		C1527.1,143.3,1480.8,105.7,1423.7,105.7z M1423.7,294.3c-41,0-60.2-27.3-60.2-77.7c0-49.2,21.7-77.7,60.2-77.7
		c38.9,0,60.2,26.4,60.2,77.7C1483.9,268.9,1463.7,294.3,1423.7,294.3z"/>
	<path class="st2" d="M1752.7,175.6c0-34-24.4-69-70.1-69c-35.9,0-62.5,23.4-72.2,33.4l-0.1-17.8c-0.1-6.8-5.6-12.3-12.4-12.3h-25.4
		v214.7h41.1V190.9l-0.2-3.4v-19.7c0,0,21.9-29.2,59.5-29.2s39.9,41.4,39.9,50.1c0,4.8,0,29.2,0,49.9v30.8v55.4h41.1v-86.2
		C1753.8,238.5,1752.7,209.7,1752.7,175.6z"/>
</g>
</svg>
