<?xml version="1.0" encoding="UTF-8" standalone="no"?>
<svg
   xmlns:dc="http://purl.org/dc/elements/1.1/"
   xmlns:cc="http://creativecommons.org/ns#"
   xmlns:rdf="http://www.w3.org/1999/02/22-rdf-syntax-ns#"
   xmlns:svg="http://www.w3.org/2000/svg"
   xmlns="http://www.w3.org/2000/svg"
   xmlns:sodipodi="http://sodipodi.sourceforge.net/DTD/sodipodi-0.dtd"
   xmlns:inkscape="http://www.inkscape.org/namespaces/inkscape"
   width="120"
   height="80"
   version="1.1"
   id="svg12"
   sodipodi:docname="matillion-etl.svg"
   inkscape:version="1.0.1 (3bc2e813f5, 2020-09-07)">
  <metadata
     id="metadata18">
    <rdf:RDF>
      <cc:Work
         rdf:about="">
        <dc:format>image/svg+xml</dc:format>
        <dc:type
           rdf:resource="http://purl.org/dc/dcmitype/StillImage" />
        <dc:title></dc:title>
      </cc:Work>
    </rdf:RDF>
  </metadata>
  <defs
     id="defs16" />
  <sodipodi:namedview
     pagecolor="#ffffff"
     bordercolor="#666666"
     borderopacity="1"
     objecttolerance="10"
     gridtolerance="10"
     guidetolerance="10"
     inkscape:pageopacity="0"
     inkscape:pageshadow="2"
     inkscape:window-width="1920"
     inkscape:window-height="1017"
     id="namedview14"
     showgrid="false"
     inkscape:zoom="8.6833333"
     inkscape:cx="60"
     inkscape:cy="39.213052"
     inkscape:window-x="-8"
     inkscape:window-y="-8"
     inkscape:window-maximized="1"
     inkscape:current-layer="svg12" />
  <g
     transform="matrix(0.176863,0,0,0.176863,-6.695139,41.245663)"
     id="g8">
    <path
       d="m 251.4,55.2 h 6.3 l -21.6,-55 h -3.7 l -22.1,55 h 6.2 l 6.8,-17 h 21.2 z m -18.5,-41.1 1.2,-3.4 c 0.4,1.3 0.8,2.4 1.2,3.2 l 6.9,18.3 h -16.4 z m 60.2,41.1 h -6 v -48 h -18.8 l -2.6,-6 h 44.4 v 6 h -17 z m 38,-54 h 6 v 54 h -6 z m 39,49 h 25 v 5 h -31 v -54 h 6 z m 53,0 h 25 v 5 h -31 v -54 h 6 z"
       fill="#333333"
       id="path2" />
    <path
       d="m 470.1,1.2 h 6 v 54 h -6 z m 55.2,55.2 c -7.6,0 -13.7,-2.6 -18.1,-7.7 -4.3,-5 -6.5,-12 -6.5,-20.6 0,-8.6 2.2,-15.5 6.6,-20.5 4.4,-5 10.5,-7.6 18.1,-7.6 7.6,0 13.7,2.6 18.1,7.6 4.3,5 6.5,11.9 6.5,20.5 0,8.6 -2.2,15.5 -6.5,20.5 -4.5,5.2 -10.6,7.8 -18.2,7.8 z m 0.1,-50.8 c -5.9,0 -10.6,1.9 -13.8,5.8 -3.2,3.9 -4.9,9.5 -4.9,16.8 0,7.3 1.6,13 4.8,16.9 3.2,3.9 7.7,5.8 13.8,5.8 6.1,0 10.6,-1.9 13.8,-5.8 3.2,-3.9 4.8,-9.6 4.8,-17 0,-7.3 -1.6,-13 -4.8,-16.9 -3.2,-3.7 -7.7,-5.6 -13.7,-5.6 z"
       fill="#669a41"
       id="path4" />
    <path
       d="m 609.1,1.2 h 6 v 54 H 609 l -29,-43.6 0.1,8.8 v 34.8 h -6 v -54 h 6 l 29,43.5 M 190.1,1.2 h -6.8 L 165.1,38.4 146.9,1.2 h -7.8 v 54 h 6 V 15.1 L 145,10 163.1,47.3 h 3.9 l 18,-37 c -0.1,1.4 0.1,3 0.1,4.4 v 40.5 h 6 v -54 z"
       fill="#333333"
       id="path6" />
  </g>
  <path
     d="M 60.026,4.778 32.12,32.683 h 9.683 l 23.063,-23 z m 1.197,27.905 8.486,-8.486 8.486,8.486 h 9.683 l -18.17,-18.17 -18.17,18.17 z"
     fill="#669a41"
     id="path10" />
  <g
     aria-label="ETL"
     id="text22"
     style="font-size:20px;line-height:1.25;font-family:sans-serif">
    <path
       d="M 52.87677,74.510551 H 43.296692 V 59.969536 h 9.580078 v 1.71875 h -7.646484 v 3.984375 h 7.646484 v 1.71875 h -7.646484 v 5.40039 h 7.646484 z"
       style="font-size:20px"
       id="path24" />
    <path
       d="M 66.31427,61.688286 H 61.118958 V 74.510551 H 59.185364 V 61.688286 h -5.195313 v -1.71875 H 66.31427 Z"
       style="font-size:20px"
       id="path26" />
    <path
       d="M 77.466614,74.510551 H 68.267395 V 59.969536 h 1.933594 v 12.822265 h 7.265625 z"
       style="font-size:20px"
       id="path28" />
  </g>
</svg>
