<svg xmlns="http://www.w3.org/2000/svg" role="img" viewBox="-1.28 0.72 66.43 61.68"><title>Matillion Data Loader logo</title><path d="M0 34.015h11.115L37.587 7.602 32.03 1.985zm64 0L43.145 13.16 22.3 34.015h11.115l9.74-9.74 9.74 9.74z"/><path style="text-align:center" d="M23.47715 41.61825q0 1.18945-.52149 2.15625-.51562.9668-1.37695 1.5-.59766.36914-1.33594.5332-.73242.16406-1.9336.16406h-2.20312v-8.7246h2.1797q1.27734 0 2.02734.1875.75585.18164 1.27734.5039.89062.55664 1.38867 1.48242.49805.92578.49805 2.19727zm-1.2129-.01758q0-1.0254-.35741-1.72852-.35743-.70312-1.06641-1.10742-.51563-.29297-1.0957-.4043-.58008-.11718-1.38868-.11718h-1.08984v6.73242h1.08984q.8379 0 1.45899-.12305.62695-.12305 1.14844-.45703.65039-.41602.97265-1.0957.32813-.6797.32813-1.69922zm8.08594 4.3711h-1.0957v-.69727q-.14648.0996-.39844.28125-.24609.17578-.48046.28125-.2754.13476-.63282.22265-.35742.09375-.83789.09375-.88476 0-1.5-.58593-.61523-.58594-.61523-1.49414 0-.74414.3164-1.20118.32227-.46289.91407-.72656.59765-.26367 1.43554-.35742.8379-.09375 1.79883-.14063v-.16992q0-.375-.13476-.6211-.12891-.24609-.375-.38671-.23438-.13476-.5625-.18164-.32813-.04687-.68555-.04687-.4336 0-.9668.11719-.5332.11133-1.10156.32812h-.05859v-1.11914q.32227-.08789.93164-.19336.60938-.10547 1.20117-.10547.6914 0 1.20118.1172.51562.11132.89062.38671.36914.26953.5625.69727.19336.42773.19336 1.06054zm-1.0957-1.61133v-1.82227q-.5039.0293-1.18945.08789-.67969.05859-1.07813.16992-.4746.13477-.76757.42188-.29297.28125-.29297.7793 0 .5625.33984.8496.33984.28125 1.03711.28125.58008 0 1.06055-.22265.48047-.22852.89062-.54492zm6.61524 1.55273q-.31055.08203-.6797.13476-.36327.05274-.65038.05274-1.00196 0-1.52344-.53907-.52148-.53906-.52148-1.72851v-3.48047h-.74414v-.92578h.74414v-1.88086h1.10156v1.88086h2.27344v.92578h-2.27344v2.98242q0 .51563.02344.8086.02344.2871.16406.53906.1289.23437.35156.3457.22852.10547.69141.10547.26953 0 .5625-.07617.29297-.08203.42188-.13477h.05858zm6.41601.0586h-1.0957v-.69727q-.14649.0996-.39844.28125-.2461.17578-.48047.28125-.27539.13476-.63281.22265-.35742.09375-.8379.09375-.88476 0-1.5-.58593-.61523-.58594-.61523-1.49414 0-.74414.31641-1.20118.32227-.46289.91406-.72656.59766-.26367 1.43555-.35742.8379-.09375 1.79883-.14063v-.16992q0-.375-.13477-.6211-.1289-.24609-.375-.38671-.23437-.13476-.5625-.18164-.32812-.04687-.68554-.04687-.4336 0-.9668.11719-.5332.11133-1.10156.32812h-.0586v-1.11914q.32227-.08789.93165-.19336.60937-.10547 1.20117-.10547.6914 0 1.20117.1172.51563.11132.89063.38671.36914.26953.5625.69727.19336.42773.19336 1.06054zm-1.0957-1.61133v-1.82227q-.5039.0293-1.18945.08789-.6797.05859-1.07813.16992-.4746.13477-.76758.42188-.29297.28125-.29297.7793 0 .5625.33985.8496.33984.28125 1.0371.28125.58008 0 1.06055-.22265.48047-.22852.89063-.54492zM17.47129 60.97176h-5.51953v-8.7246h1.16015v7.69335h4.35938zm6.65039-3.26953q0 1.59961-.82031 2.5254-.82032.92577-2.19727.92577-1.38867 0-2.20898-.92578-.81446-.92578-.81446-2.52539 0-1.5996.81446-2.52539.8203-.93164 2.20898-.93164 1.37695 0 2.19727.93164.8203.92578.8203 2.5254zm-1.13672 0q0-1.27148-.49805-1.88672-.49804-.62109-1.3828-.62109-.8965 0-1.39454.6211-.49219.61523-.49219 1.88671 0 1.23047.49805 1.86914.49805.63281 1.38867.63281.8789 0 1.37695-.62695.50391-.63281.50391-1.875zm7.92773 3.26953H29.817v-.69726q-.14648.0996-.39844.28125-.24609.17578-.48046.28125-.2754.13476-.63282.22265-.35742.09375-.83789.09375-.88476 0-1.5-.58593-.61523-.58594-.61523-1.49414 0-.74414.3164-1.20118.32227-.46289.91407-.72656.59765-.26367 1.43554-.35742.8379-.09375 1.79883-.14063v-.16992q0-.375-.13476-.6211-.12891-.24609-.375-.38671-.23438-.13476-.5625-.18164-.32813-.04687-.68555-.04687-.4336 0-.9668.11719-.5332.11133-1.10156.32812h-.05859v-1.11914q.32227-.08789.93164-.19336.60938-.10547 1.20117-.10547.6914 0 1.20118.1172.51562.11132.89062.38671.36914.26953.5625.69727.19336.42773.19336 1.06054zm-1.0957-1.61133v-1.82226q-.5039.0293-1.18945.08789-.67969.05859-1.07813.16992-.4746.13477-.76757.42188-.29297.28125-.29297.7793 0 .5625.33984.8496.33984.28125 1.03711.28125.58008 0 1.06055-.22265.48047-.22852.89062-.54492zm8.5254 1.61133h-1.10157v-.68554q-.4746.41015-.99023.63867-.51563.22851-1.11915.22851-1.17187 0-1.86328-.90234-.68554-.90234-.68554-2.50195 0-.83203.23437-1.48242.24024-.6504.64453-1.10743.39844-.4453.92578-.67968.5332-.23438 1.10157-.23438.51562 0 .91406.11133.39844.10547.83789.33398v-2.83593h1.10156zm-1.10157-1.61133v-3.75585q-.44531-.19922-.79688-.2754-.35156-.07616-.76757-.07616-.92578 0-1.4414.64453-.51563.64453-.51563 1.82812 0 1.16602.39843 1.7754.39844.6035 1.27735.6035.46875 0 .94922-.20507.48046-.21094.89648-.53906zm8.74805-1.54687H41.1666q0 .60352.18164 1.05469.18164.44531.49805.73242.30469.28125.7207.42188.42188.14062.92578.14062.66797 0 1.3418-.26367.67969-.26953.9668-.52735h.05859v1.20118q-.55664.23437-1.13672.39257-.58008.1582-1.21875.1582-1.6289 0-2.54297-.8789-.91406-.88476-.91406-2.50781 0-1.60547.87304-2.54883.87891-.94336 2.3086-.94336 1.32422 0 2.03906.77344.7207.77344.7207 2.19726zm-1.07227-.84375q-.0059-.86719-.43945-1.3418-.42774-.4746-1.30664-.4746-.88477 0-1.41211.52148-.52149.52148-.5918 1.29492zm6.82617-1.3418h-.05859q-.24609-.05859-.48047-.08203-.22851-.0293-.54492-.0293-.50976 0-.98437.22852-.47461.22266-.91407.58008v4.64648H47.6588v-6.54492h1.10156v.9668q.65625-.52735 1.1543-.74414.5039-.22266 1.0254-.22266.2871 0 .416.01758.12891.01172.38673.05273z" text-anchor="middle"/></svg>