<?xml version="1.0" encoding="UTF-8" standalone="no"?>
<svg
   xmlns:dc="http://purl.org/dc/elements/1.1/"
   xmlns:cc="http://creativecommons.org/ns#"
   xmlns:rdf="http://www.w3.org/1999/02/22-rdf-syntax-ns#"
   xmlns:svg="http://www.w3.org/2000/svg"
   xmlns="http://www.w3.org/2000/svg"
   xmlns:sodipodi="http://sodipodi.sourceforge.net/DTD/sodipodi-0.dtd"
   xmlns:inkscape="http://www.inkscape.org/namespaces/inkscape"
   width="120"
   height="80"
   version="1.1"
   id="svg12"
   sodipodi:docname="matillion-data-loader.svg"
   inkscape:version="1.0.1 (3bc2e813f5, 2020-09-07)">
  <metadata
     id="metadata18">
    <rdf:RDF>
      <cc:Work
         rdf:about="">
        <dc:format>image/svg+xml</dc:format>
        <dc:type
           rdf:resource="http://purl.org/dc/dcmitype/StillImage" />
        <dc:title></dc:title>
      </cc:Work>
    </rdf:RDF>
  </metadata>
  <defs
     id="defs16" />
  <sodipodi:namedview
     pagecolor="#ffffff"
     bordercolor="#666666"
     borderopacity="1"
     objecttolerance="10"
     gridtolerance="10"
     guidetolerance="10"
     inkscape:pageopacity="0"
     inkscape:pageshadow="2"
     inkscape:window-width="1920"
     inkscape:window-height="1017"
     id="namedview14"
     showgrid="false"
     inkscape:zoom="8.6833333"
     inkscape:cx="60"
     inkscape:cy="43.819578"
     inkscape:window-x="-8"
     inkscape:window-y="-8"
     inkscape:window-maximized="1"
     inkscape:current-layer="svg12" />
  <g
     transform="matrix(0.176863,0,0,0.176863,-6.695139,43.245663)"
     id="g8">
    <path
       d="m 251.4,55.2 h 6.3 l -21.6,-55 h -3.7 l -22.1,55 h 6.2 l 6.8,-17 h 21.2 z m -18.5,-41.1 1.2,-3.4 c 0.4,1.3 0.8,2.4 1.2,3.2 l 6.9,18.3 h -16.4 z m 60.2,41.1 h -6 v -48 h -18.8 l -2.6,-6 h 44.4 v 6 h -17 z m 38,-54 h 6 v 54 h -6 z m 39,49 h 25 v 5 h -31 v -54 h 6 z m 53,0 h 25 v 5 h -31 v -54 h 6 z"
       fill="#333333"
       id="path2" />
    <path
       d="m 470.1,1.2 h 6 v 54 h -6 z m 55.2,55.2 c -7.6,0 -13.7,-2.6 -18.1,-7.7 -4.3,-5 -6.5,-12 -6.5,-20.6 0,-8.6 2.2,-15.5 6.6,-20.5 4.4,-5 10.5,-7.6 18.1,-7.6 7.6,0 13.7,2.6 18.1,7.6 4.3,5 6.5,11.9 6.5,20.5 0,8.6 -2.2,15.5 -6.5,20.5 -4.5,5.2 -10.6,7.8 -18.2,7.8 z m 0.1,-50.8 c -5.9,0 -10.6,1.9 -13.8,5.8 -3.2,3.9 -4.9,9.5 -4.9,16.8 0,7.3 1.6,13 4.8,16.9 3.2,3.9 7.7,5.8 13.8,5.8 6.1,0 10.6,-1.9 13.8,-5.8 3.2,-3.9 4.8,-9.6 4.8,-17 0,-7.3 -1.6,-13 -4.8,-16.9 -3.2,-3.7 -7.7,-5.6 -13.7,-5.6 z"
       fill="#669a41"
       id="path4" />
    <path
       d="m 609.1,1.2 h 6 v 54 H 609 l -29,-43.6 0.1,8.8 v 34.8 h -6 v -54 h 6 l 29,43.5 M 190.1,1.2 h -6.8 L 165.1,38.4 146.9,1.2 h -7.8 v 54 h 6 V 15.1 L 145,10 163.1,47.3 h 3.9 l 18,-37 c -0.1,1.4 0.1,3 0.1,4.4 v 40.5 h 6 v -54 z"
       fill="#333333"
       id="path6" />
  </g>
  <path
     d="M 60.026,6.778 32.12,34.683 h 9.683 l 23.063,-23 z m 1.197,27.905 8.486,-8.486 8.486,8.486 h 9.683 l -18.17,-18.17 -18.17,18.17 z"
     fill="#669a41"
     id="path10" />
  <g
     aria-label="Data Loader"
     id="text22"
     style="font-size:16px;line-height:1.25;font-family:sans-serif">
    <path
       d="m 23.597918,68.360382 q 0,1.585938 -0.695313,2.875 -0.6875,1.289063 -1.835937,2 -0.796875,0.492188 -1.78125,0.710938 -0.976563,0.21875 -2.578125,0.21875 h -2.9375 V 62.532257 h 2.90625 q 1.703125,0 2.703125,0.25 1.007812,0.242188 1.703125,0.671875 1.1875,0.742188 1.851562,1.976563 0.664063,1.234375 0.664063,2.929687 z m -1.617188,-0.02344 q 0,-1.367188 -0.476562,-2.304688 -0.476563,-0.9375 -1.421875,-1.476562 -0.6875,-0.390625 -1.460938,-0.539063 -0.773437,-0.15625 -1.851562,-0.15625 h -1.453125 v 8.976563 h 1.453125 q 1.117187,0 1.945312,-0.164063 0.835938,-0.164062 1.53125,-0.609375 0.867188,-0.554687 1.296875,-1.460937 0.4375,-0.90625 0.4375,-2.265625 z"
       style="font-size:16px"
       id="path24" />
    <path
       d="m 32.76198,74.16507 h -1.460937 v -0.929688 q -0.195313,0.132813 -0.53125,0.375 -0.328125,0.234375 -0.640625,0.375 -0.367188,0.179688 -0.84375,0.296875 -0.476563,0.125 -1.117188,0.125 -1.179687,0 -2,-0.78125 -0.820312,-0.78125 -0.820312,-1.992187 0,-0.992188 0.421875,-1.601563 0.429687,-0.617187 1.21875,-0.96875 0.796875,-0.351562 1.914062,-0.476562 1.117188,-0.125 2.398438,-0.1875 v -0.226563 q 0,-0.5 -0.179688,-0.828125 -0.171875,-0.328125 -0.5,-0.515625 -0.3125,-0.179687 -0.75,-0.242187 -0.4375,-0.0625 -0.914062,-0.0625 -0.578125,0 -1.289063,0.15625 -0.710937,0.148437 -1.46875,0.4375 h -0.07813 v -1.492188 q 0.429688,-0.117187 1.242188,-0.257812 0.8125,-0.140625 1.601562,-0.140625 0.921875,0 1.601563,0.15625 0.6875,0.148437 1.1875,0.515625 0.492187,0.359375 0.75,0.929687 0.257812,0.570313 0.257812,1.414063 z m -1.460937,-2.148438 v -2.429687 q -0.671875,0.03906 -1.585938,0.117187 -0.90625,0.07813 -1.4375,0.226563 -0.632812,0.179687 -1.023437,0.5625 -0.390625,0.375 -0.390625,1.039062 0,0.75 0.453125,1.132813 0.453125,0.375 1.382812,0.375 0.773438,0 1.414063,-0.296875 0.640625,-0.304688 1.1875,-0.726563 z"
       style="font-size:16px"
       id="path26" />
    <path
       d="m 40.121355,74.086945 q -0.414062,0.109375 -0.90625,0.179687 -0.484375,0.07031 -0.867187,0.07031 -1.335938,0 -2.03125,-0.71875 -0.695313,-0.71875 -0.695313,-2.304688 v -4.640625 h -0.992187 v -1.234375 h 0.992187 v -2.507812 h 1.46875 v 2.507812 h 3.03125 v 1.234375 h -3.03125 v 3.976563 q 0,0.6875 0.03125,1.078125 0.03125,0.382812 0.21875,0.71875 0.171875,0.3125 0.46875,0.460937 0.304688,0.140625 0.921875,0.140625 0.359375,0 0.75,-0.101562 0.390625,-0.109375 0.5625,-0.179688 h 0.07813 z"
       style="font-size:16px"
       id="path28" />
    <path
       d="m 48.676043,74.16507 h -1.460938 v -0.929688 q -0.195312,0.132813 -0.53125,0.375 -0.328125,0.234375 -0.640625,0.375 -0.367187,0.179688 -0.84375,0.296875 -0.476562,0.125 -1.117187,0.125 -1.179688,0 -2,-0.78125 -0.820313,-0.78125 -0.820313,-1.992187 0,-0.992188 0.421875,-1.601563 0.429688,-0.617187 1.21875,-0.96875 0.796875,-0.351562 1.914063,-0.476562 1.117187,-0.125 2.398437,-0.1875 v -0.226563 q 0,-0.5 -0.179687,-0.828125 -0.171875,-0.328125 -0.5,-0.515625 -0.3125,-0.179687 -0.75,-0.242187 -0.4375,-0.0625 -0.914063,-0.0625 -0.578125,0 -1.289062,0.15625 -0.710938,0.148437 -1.46875,0.4375 h -0.07813 v -1.492188 q 0.429687,-0.117187 1.242187,-0.257812 0.8125,-0.140625 1.601563,-0.140625 0.921875,0 1.601562,0.15625 0.6875,0.148437 1.1875,0.515625 0.492188,0.359375 0.75,0.929687 0.257813,0.570313 0.257813,1.414063 z m -1.460938,-2.148438 v -2.429687 q -0.671875,0.03906 -1.585937,0.117187 -0.90625,0.07813 -1.4375,0.226563 -0.632813,0.179687 -1.023438,0.5625 -0.390625,0.375 -0.390625,1.039062 0,0.75 0.453125,1.132813 0.453125,0.375 1.382813,0.375 0.773437,0 1.414062,-0.296875 0.640625,-0.304688 1.1875,-0.726563 z"
       style="font-size:16px"
       id="path30" />
    <path
       d="M 64.60573,74.16507 H 57.246355 V 62.532257 H 58.79323 V 72.79007 h 5.8125 z"
       style="font-size:16px"
       id="path32" />
    <path
       d="m 73.472918,69.805695 q 0,2.132812 -1.09375,3.367187 -1.09375,1.234375 -2.929688,1.234375 -1.851562,0 -2.945312,-1.234375 -1.085938,-1.234375 -1.085938,-3.367187 0,-2.132813 1.085938,-3.367188 1.09375,-1.242187 2.945312,-1.242187 1.835938,0 2.929688,1.242187 1.09375,1.234375 1.09375,3.367188 z m -1.515625,0 q 0,-1.695313 -0.664063,-2.515625 -0.664062,-0.828125 -1.84375,-0.828125 -1.195312,0 -1.859375,0.828125 -0.65625,0.820312 -0.65625,2.515625 0,1.640625 0.664063,2.492187 0.664062,0.84375 1.851562,0.84375 1.171875,0 1.835938,-0.835937 0.671875,-0.84375 0.671875,-2.5 z"
       style="font-size:16px"
       id="path34" />
    <path
       d="m 82.527605,74.16507 h -1.460937 v -0.929688 q -0.195313,0.132813 -0.53125,0.375 -0.328125,0.234375 -0.640625,0.375 -0.367188,0.179688 -0.84375,0.296875 -0.476563,0.125 -1.117188,0.125 -1.179687,0 -2,-0.78125 -0.820312,-0.78125 -0.820312,-1.992187 0,-0.992188 0.421875,-1.601563 0.429687,-0.617187 1.21875,-0.96875 0.796875,-0.351562 1.914062,-0.476562 1.117188,-0.125 2.398438,-0.1875 v -0.226563 q 0,-0.5 -0.179688,-0.828125 -0.171875,-0.328125 -0.5,-0.515625 -0.3125,-0.179687 -0.75,-0.242187 -0.4375,-0.0625 -0.914062,-0.0625 -0.578125,0 -1.289063,0.15625 -0.710937,0.148437 -1.46875,0.4375 h -0.07813 v -1.492188 q 0.429688,-0.117187 1.242188,-0.257812 0.8125,-0.140625 1.601562,-0.140625 0.921875,0 1.601563,0.15625 0.6875,0.148437 1.1875,0.515625 0.492187,0.359375 0.75,0.929687 0.257812,0.570313 0.257812,1.414063 z m -1.460937,-2.148438 v -2.429687 q -0.671875,0.03906 -1.585938,0.117187 -0.90625,0.07813 -1.4375,0.226563 -0.632812,0.179687 -1.023437,0.5625 -0.390625,0.375 -0.390625,1.039062 0,0.75 0.453125,1.132813 0.453125,0.375 1.382812,0.375 0.773438,0 1.414063,-0.296875 0.640625,-0.304688 1.1875,-0.726563 z"
       style="font-size:16px"
       id="path36" />
    <path
       d="m 92.433855,74.16507 h -1.46875 v -0.914063 q -0.632812,0.546875 -1.320312,0.851563 -0.6875,0.304687 -1.492188,0.304687 -1.5625,0 -2.484375,-1.203125 -0.914062,-1.203125 -0.914062,-3.335937 0,-1.109375 0.3125,-1.976563 0.320312,-0.867187 0.859375,-1.476562 0.53125,-0.59375 1.234375,-0.90625 0.710937,-0.3125 1.46875,-0.3125 0.6875,0 1.21875,0.148437 0.53125,0.140625 1.117187,0.445313 v -3.78125 h 1.46875 z m -1.46875,-2.148438 V 67.00882 q -0.59375,-0.265625 -1.0625,-0.367188 -0.46875,-0.101562 -1.023437,-0.101562 -1.234375,0 -1.921875,0.859375 -0.6875,0.859375 -0.6875,2.4375 0,1.554687 0.53125,2.367187 0.53125,0.804688 1.703125,0.804688 0.625,0 1.265625,-0.273438 0.640625,-0.28125 1.195312,-0.71875 z"
       style="font-size:16px"
       id="path38" />
    <path
       d="m 102.62917,69.954132 h -6.42969 q 0,0.804688 0.242188,1.40625 0.242187,0.59375 0.664062,0.976563 0.40625,0.375 0.960938,0.5625 0.5625,0.1875 1.234375,0.1875 0.890627,0 1.789067,-0.351563 0.90625,-0.359375 1.28906,-0.703125 h 0.0781 v 1.601563 q -0.74218,0.3125 -1.51562,0.523437 -0.77344,0.210938 -1.625002,0.210938 -2.171875,0 -3.390625,-1.171875 -1.21875,-1.179688 -1.21875,-3.34375 0,-2.140625 1.164062,-3.398438 1.171875,-1.257812 3.078125,-1.257812 1.76563,0 2.71875,1.03125 0.96094,1.03125 0.96094,2.929687 z m -1.42969,-1.125 q -0.008,-1.15625 -0.58594,-1.789062 -0.57031,-0.632813 -1.742185,-0.632813 -1.179687,0 -1.882812,0.695313 -0.695313,0.695312 -0.789063,1.726562 z"
       style="font-size:16px"
       id="path40" />
    <path
       d="m 110.30104,67.04007 h -0.0781 q -0.32813,-0.07813 -0.64063,-0.109375 -0.30468,-0.03906 -0.72656,-0.03906 -0.67969,0 -1.3125,0.304688 -0.63281,0.296875 -1.21875,0.773437 v 6.195313 h -1.46875 v -8.726563 h 1.46875 v 1.289063 q 0.875,-0.703125 1.53906,-0.992188 0.67188,-0.296875 1.36719,-0.296875 0.38281,0 0.55469,0.02344 0.17187,0.01563 0.51562,0.07031 z"
       style="font-size:16px"
       id="path42" />
  </g>
</svg>
