<?xml version="1.0" encoding="utf-8"?>
<!-- Generator: Adobe Illustrator 25.0.1, SVG Export Plug-In . SVG Version: 6.00 Build 0)  -->
<svg version="1.1" id="Layer_1" xmlns="http://www.w3.org/2000/svg" xmlns:xlink="http://www.w3.org/1999/xlink" x="0px" y="0px"
	 width="2724px" height="861px" viewBox="138 1069.5 2724 861" enable-background="new 138 1069.5 2724 861" xml:space="preserve">
<path id="D_Glow_1_" display="none" fill="none" stroke="#683E98" stroke-miterlimit="10" d="M1556.208,1527.088v-144.921
	l-105.644,41.986v138.149c-21.671-9.481-44.695-13.544-67.721-13.544c-96.162,0-173.363,77.2-173.363,173.363
	c0,2.709,0,6.771,0,9.48c43.341-10.835,78.556-39.277,100.227-77.201c6.771,1.354,14.898,2.709,21.67,2.709
	c13.544-10.835,31.151-17.607,50.113-17.607c13.543,0,25.733,2.709,36.568,8.127
	C1479.007,1630.022,1529.119,1585.327,1556.208,1527.088z"/>
<g id="p3rF5h.tif">
	<g>
		<path fill="#38B068" d="M198.351,1867.688c0-246.282,0-489.095,0-735.375c142.218,81.515,282.703,163.031,423.188,244.548
			c140.485-81.517,279.235-161.299,421.454-244.548c0,246.281,0,489.095,0,733.641c-71.11-39.89-140.485-79.781-209.86-121.406
			c0-81.516,0-161.296,0-244.547c-72.844,41.626-142.218,81.517-211.594,123.14c-69.375-39.889-137.015-79.78-206.391-117.936
			c-1.735,1.733-3.468,1.733-3.468,1.733s-1.735,0-1.735,1.735c0,1.733-1.734,3.467-1.734,3.467c0,78.048,0,154.36,0,234.143
			C340.569,1786.172,271.194,1826.063,198.351,1867.688z"/>
		<path fill="#3EB16B" d="M1256.32,1314.422c29.484,0,57.235,0,86.719,0c31.219,50.296,62.438,100.594,95.391,154.36
			c32.953-53.767,64.172-104.064,97.125-154.36c29.484,0,57.235,0,86.719,0c0,123.14,0,244.548,0,367.687
			c-26.017,0-50.298,0-78.047,0c0-76.312,0-152.625,0-228.938c-1.734,0-3.47-1.733-5.203-1.733
			c-13.875,15.609-22.547,34.688-34.688,50.297c-12.14,17.344-24.281,36.422-36.422,55.5c-19.078,0-39.89,0-60.703,0
			c-22.547-32.953-45.093-67.641-67.641-102.328c-1.733,0-3.468,1.733-3.468,1.733c0,74.578,0,149.157,0,225.469
			c-27.75,0-53.765,0-79.781,0C1256.32,1560.703,1256.32,1439.297,1256.32,1314.422z"/>
		<path fill="#3DB16A" d="M1676.039,1500c0-109.266,84.984-190.781,197.718-190.781c109.268,0,192.517,83.25,192.517,190.781
			c0,109.265-84.983,190.781-197.719,190.781C1759.288,1690.781,1676.039,1607.531,1676.039,1500z M1761.023,1493.062
			c0,43.359,13.875,76.313,43.359,98.86c46.828,36.422,117.938,27.751,152.625-19.079c38.157-50.295,29.485-130.077-20.812-166.499
			c-36.422-26.017-74.578-31.219-116.204-12.141C1781.836,1416.749,1762.758,1453.171,1761.023,1493.062z"/>
		<path fill="#3DB16A" d="M2121.773,1683.844c0-121.406,0-246.282,0-367.688c3.469-1.734,5.203-3.47,6.938-3.47
			c57.233,0,114.469-1.733,171.702,3.47c76.313,6.937,137.016,64.171,154.359,135.281c19.078,78.046-10.405,156.094-74.578,197.719
			c-32.953,22.547-71.109,31.219-109.266,32.952c-45.094,0-91.922,0-137.016,0
			C2128.712,1683.844,2126.977,1685.578,2121.773,1683.844z M2203.29,1609.265c29.483,0,57.234,1.735,84.983,0
			c13.876-1.733,29.485-8.67,41.626-15.608c39.89-26.017,50.296-64.173,45.094-109.266c-5.204-39.891-26.016-69.375-62.438-84.985
			c-34.688-13.875-71.11-10.405-107.532-10.405C2203.29,1460.109,2203.29,1534.688,2203.29,1609.265z"/>
		<path fill="#3AB169" d="M2775.633,1461.844c0,26.016,0,48.562,0,72.844c-57.233,0-114.469,0-171.701,0c0,26.016,0,50.298,0,76.312
			c65.905,0,131.812,0,197.718,0c0,24.281,0,46.829,0,71.108c-91.922,0-183.844,0-277.5,0c0-121.405,0-242.812,0-365.952
			c91.923,0,182.109,0,274.031,0c0,24.282,0,46.827,0,71.109c-64.172,0-128.344,0-194.249,0c0,26.017,0,48.562,0,74.578
			C2661.164,1461.844,2716.666,1461.844,2775.633,1461.844z"/>
	</g>
</g>
</svg>
