<?xml version="1.0" encoding="UTF-8" standalone="no"?>
<svg
   xmlns:dc="http://purl.org/dc/elements/1.1/"
   xmlns:cc="http://creativecommons.org/ns#"
   xmlns:rdf="http://www.w3.org/1999/02/22-rdf-syntax-ns#"
   xmlns:svg="http://www.w3.org/2000/svg"
   xmlns="http://www.w3.org/2000/svg"
   xmlns:sodipodi="http://sodipodi.sourceforge.net/DTD/sodipodi-0.dtd"
   xmlns:inkscape="http://www.inkscape.org/namespaces/inkscape"
   version="1.1"
   id="Logo"
   x="0px"
   y="0px"
   viewBox="0 0 395.4 150.39999"
   xml:space="preserve"
   sodipodi:docname="okera-query.svg"
   inkscape:version="1.0.1 (3bc2e813f5, 2020-09-07)"
   width="395.39999"
   height="150.39999"><metadata
   id="metadata21"><rdf:RDF><cc:Work
       rdf:about=""><dc:format>image/svg+xml</dc:format><dc:type
         rdf:resource="http://purl.org/dc/dcmitype/StillImage" /><dc:title></dc:title></cc:Work></rdf:RDF></metadata><defs
   id="defs19" /><sodipodi:namedview
   pagecolor="#ffffff"
   bordercolor="#666666"
   borderopacity="1"
   objecttolerance="10"
   gridtolerance="10"
   guidetolerance="10"
   inkscape:pageopacity="0"
   inkscape:pageshadow="2"
   inkscape:window-width="1920"
   inkscape:window-height="1017"
   id="namedview17"
   showgrid="false"
   inkscape:zoom="2.6353061"
   inkscape:cx="197.7"
   inkscape:cy="48.200001"
   inkscape:window-x="-8"
   inkscape:window-y="-8"
   inkscape:window-maximized="1"
   inkscape:current-layer="g14"
   inkscape:document-rotation="0" />
<g
   id="g14">
	<path
   fill="#FFFFFF"
   d="m 338.6,94.7 6.9,-17.9 h 30.7 l 8,17.9 h 11.2 L 366.6,24.1 h -11.1 l -28.1,70.6 h 11.2 z m 22.5,-58.7 12,31.6 H 349 Z"
   id="path2"
   style="fill:#000000" />
	<path
   id="R"
   fill="#FFFFFF"
   d="m 307,44.2 c 0,-13 -9.3,-20.1 -26.3,-20.1 h -23.8 v 70.6 h 11.2 V 65.9 h 10.2 L 297,94.7 h 13 L 290.5,65 C 300.4,63.4 307,55.1 307,44.2 Z M 268.2,56.6 V 33.4 h 11.1 c 8.1,0 9,0.1 11.4,1.9 2.8,2.1 4.3,5.2 4.3,9.3 0,3.8 -1.2,6.7 -3.8,9 -3.1,2.7 -4.6,3 -11.8,3 h -11.2 z"
   style="fill:#000000" />
	<polygon
   id="E"
   fill="#FFFFFF"
   points="193.4,63 220.3,63 220.3,53.8 193.4,53.8 193.4,33.4 225.9,33.4 225.9,24.1 193.4,24.1 182.1,24.1 182.1,33.4 182.1,85.4 182.1,94.7 193.4,94.7 226.8,94.7 226.8,85.4 193.4,85.4 "
   style="fill:#000000" />
	<g
   id="K"
   style="fill:#000000">
		<rect
   id="K_1"
   x="99.400002"
   y="24.1"
   fill="#FFFFFF"
   width="11.2"
   height="70.599998"
   style="fill:#000000" />
		<polygon
   id="K_2"
   fill="#FFFFFF"
   points="142.9,24.1 114.2,59.4 143.9,94.7 159.7,94.7 128,59.4 157.9,24.1 "
   style="fill:#000000" />
	</g>
	<path
   id="O"
   fill="#FFFFFF"
   d="M 37.1,22.3 C 16.6,22.3 0,38.9 0,59.4 0,79.9 16.6,96.5 37.1,96.5 57.6,96.5 74.2,79.9 74.2,59.4 74.2,38.9 57.5,22.3 37.1,22.3 Z m 0,62.9 c -14.3,0 -25.8,-11.6 -25.8,-25.8 0,-14.2 11.6,-25.8 25.8,-25.8 14.2,0 25.8,11.6 25.8,25.8 0,14.2 -11.6,25.8 -25.8,25.8 z"
   style="fill:#000000" />
	<g
   id="Dots">
		<circle
   id="Dot_1"
   fill="#ff5b21"
   cx="204"
   cy="4.8000002"
   r="4.8000002" />
		<circle
   id="Dot_2"
   fill="#ff5b21"
   cx="186.89999"
   cy="4.8000002"
   r="4.8000002" />
		<circle
   id="Dot_3"
   fill="#ff5b21"
   cx="221.2"
   cy="4.8000002"
   r="4.8000002" />
	</g>
<g
   aria-label="Query Engine"
   id="text20"
   style="font-size:13.3333px;line-height:1.25;font-family:sans-serif"><path
     d="m 112.66924,149.51944 q -0.9375,0.23437 -1.85938,0.32812 -0.90625,0.10938 -1.85937,0.10938 -2.71875,0 -4.375,-1.5 -1.64063,-1.48438 -1.78125,-4.26563 -0.375,0.0625 -0.73438,0.0781 -0.34375,0.0312 -0.67187,0.0312 -2.45313,0 -4.468755,-0.8125 -2,-0.8125 -3.40625,-2.35938 -1.40625,-1.54687 -2.171875,-3.79687 -0.75,-2.25 -0.75,-5.14063 0,-2.84375 0.75,-5.09375 0.75,-2.26562 2.1875,-3.875 1.375,-1.53125 3.40625,-2.34375 2.046875,-0.8125 4.45313,-0.8125 2.5,0 4.48437,0.82813 2,0.8125 3.39063,2.32812 1.42187,1.5625 2.17187,3.82813 0.76563,2.26562 0.76563,5.14062 0,4.26563 -1.75,7.1875 -1.73438,2.92188 -4.67188,4.09375 0.0625,1.78125 0.84375,2.76563 0.78125,0.98437 2.84375,0.98437 0.64063,0 1.51563,-0.20312 0.89062,-0.1875 1.26562,-0.34375 h 0.42188 z m -3.6875,-17.32813 q 0,-4.53125 -2.03125,-6.98437 -2.03125,-2.46875 -5.54688,-2.46875 -3.546875,0 -5.578125,2.46875 -2.015625,2.45312 -2.015625,6.98437 0,4.57813 2.0625,7.01563 2.0625,2.42187 5.53125,2.42187 3.46875,0 5.51563,-2.42187 2.0625,-2.4375 2.0625,-7.01563 z"
     style="font-size:32px"
     id="path22" /><path
     d="m 131.34111,143.81631 h -2.9375 v -1.9375 q -1.48437,1.17188 -2.84375,1.79688 -1.35937,0.625 -3,0.625 -2.75,0 -4.28125,-1.67188 -1.53125,-1.6875 -1.53125,-4.9375 v -11.32812 h 2.9375 v 9.9375 q 0,1.32812 0.125,2.28125 0.125,0.9375 0.53125,1.60937 0.42188,0.6875 1.09375,1 0.67188,0.3125 1.95313,0.3125 1.14062,0 2.48437,-0.59375 1.35938,-0.59375 2.53125,-1.51562 v -13.03125 h 2.9375 z"
     style="font-size:32px"
     id="path24" /><path
     d="m 151.73174,135.39444 h -12.85938 q 0,1.60937 0.48438,2.8125 0.48437,1.1875 1.32812,1.95312 0.8125,0.75 1.92188,1.125 1.125,0.375 2.46875,0.375 1.78125,0 3.57812,-0.70312 1.8125,-0.71875 2.57813,-1.40625 h 0.15625 v 3.20312 q -1.48438,0.625 -3.03125,1.04688 -1.54688,0.42187 -3.25,0.42187 -4.34375,0 -6.78125,-2.34375 -2.4375,-2.35937 -2.4375,-6.6875 0,-4.28125 2.32812,-6.79687 2.34375,-2.51563 6.15625,-2.51563 3.53125,0 5.4375,2.0625 1.92188,2.0625 1.92188,5.85938 z m -2.85938,-2.25 q -0.0156,-2.3125 -1.17187,-3.57813 -1.14063,-1.26562 -3.48438,-1.26562 -2.35937,0 -3.76562,1.39062 -1.39063,1.39063 -1.57813,3.45313 z"
     style="font-size:32px"
     id="path26" /><path
     d="m 167.07549,129.56631 h -0.15625 q -0.65625,-0.15625 -1.28125,-0.21875 -0.60938,-0.0781 -1.45313,-0.0781 -1.35937,0 -2.625,0.60937 -1.26562,0.59375 -2.4375,1.54688 v 12.39062 h -2.9375 v -17.45312 h 2.9375 v 2.57812 q 1.75,-1.40625 3.07813,-1.98437 1.34375,-0.59375 2.73437,-0.59375 0.76563,0 1.10938,0.0469 0.34375,0.0312 1.03125,0.14063 z"
     style="font-size:32px"
     id="path28" /><path
     d="m 184.93486,126.36319 -10.1875,23.89062 h -3.14062 l 3.25,-7.28125 -6.95313,-16.60937 h 3.1875 l 5.35938,12.9375 5.40625,-12.9375 z"
     style="font-size:32px"
     id="path30" /><path
     d="m 215.59111,143.81631 h -15.32812 v -23.26562 h 15.32812 v 2.75 h -12.23437 v 6.375 h 12.23437 v 2.75 h -12.23437 v 8.64062 h 12.23437 z"
     style="font-size:32px"
     id="path32" /><path
     d="m 234.85674,143.81631 h -2.9375 v -9.9375 q 0,-1.20312 -0.14063,-2.25 -0.14062,-1.0625 -0.51562,-1.65625 -0.39063,-0.65625 -1.125,-0.96875 -0.73438,-0.32812 -1.90625,-0.32812 -1.20313,0 -2.51563,0.59375 -1.3125,0.59375 -2.51562,1.51562 v 13.03125 h -2.9375 v -17.45312 h 2.9375 v 1.9375 q 1.375,-1.14063 2.84375,-1.78125 1.46875,-0.64063 3.01562,-0.64063 2.82813,0 4.3125,1.70313 1.48438,1.70312 1.48438,4.90625 z"
     style="font-size:32px"
     id="path34" /><path
     d="m 254.66924,141.83194 q 0,4.4375 -2.01563,6.51562 -2.01562,2.07813 -6.20312,2.07813 -1.39063,0 -2.71875,-0.20313 -1.3125,-0.1875 -2.59375,-0.54687 v -3 h 0.15625 q 0.71875,0.28125 2.28125,0.6875 1.5625,0.42187 3.125,0.42187 1.5,0 2.48437,-0.35937 0.98438,-0.35938 1.53125,-1 0.54688,-0.60938 0.78125,-1.46875 0.23438,-0.85938 0.23438,-1.92188 v -1.59375 q -1.32813,1.0625 -2.54688,1.59375 -1.20312,0.51563 -3.07812,0.51563 -3.125,0 -4.96875,-2.25 -1.82813,-2.26563 -1.82813,-6.375 0,-2.25 0.625,-3.875 0.64063,-1.64063 1.73438,-2.82813 1.01562,-1.10937 2.46875,-1.71875 1.45312,-0.625 2.89062,-0.625 1.51563,0 2.53125,0.3125 1.03125,0.29688 2.17188,0.92188 l 0.1875,-0.75 h 2.75 z m -2.9375,-2.8125 v -9.51563 q -1.17188,-0.53125 -2.1875,-0.75 -1,-0.23437 -2,-0.23437 -2.42188,0 -3.8125,1.625 -1.39063,1.625 -1.39063,4.71875 0,2.9375 1.03125,4.45312 1.03125,1.51563 3.42188,1.51563 1.28125,0 2.5625,-0.48438 1.29687,-0.5 2.375,-1.32812 z"
     style="font-size:32px"
     id="path36" /><path
     d="m 263.60674,123.44131 h -3.3125 v -3.04687 h 3.3125 z m -0.1875,20.375 h -2.9375 v -17.45312 h 2.9375 z"
     style="font-size:32px"
     id="path38" /><path
     d="m 283.82549,143.81631 h -2.9375 v -9.9375 q 0,-1.20312 -0.14063,-2.25 -0.14062,-1.0625 -0.51562,-1.65625 -0.39063,-0.65625 -1.125,-0.96875 -0.73438,-0.32812 -1.90625,-0.32812 -1.20313,0 -2.51563,0.59375 -1.3125,0.59375 -2.51562,1.51562 v 13.03125 h -2.9375 v -17.45312 h 2.9375 v 1.9375 q 1.375,-1.14063 2.84375,-1.78125 1.46875,-0.64063 3.01562,-0.64063 2.82813,0 4.3125,1.70313 1.48438,1.70312 1.48438,4.90625 z"
     style="font-size:32px"
     id="path40" /><path
     d="m 304.09111,135.39444 h -12.85937 q 0,1.60937 0.48437,2.8125 0.48438,1.1875 1.32813,1.95312 0.8125,0.75 1.92187,1.125 1.125,0.375 2.46875,0.375 1.78125,0 3.57813,-0.70312 1.8125,-0.71875 2.57812,-1.40625 h 0.15625 v 3.20312 q -1.48437,0.625 -3.03125,1.04688 -1.54687,0.42187 -3.25,0.42187 -4.34375,0 -6.78125,-2.34375 -2.4375,-2.35937 -2.4375,-6.6875 0,-4.28125 2.32813,-6.79687 2.34375,-2.51563 6.15625,-2.51563 3.53125,0 5.4375,2.0625 1.92187,2.0625 1.92187,5.85938 z m -2.85937,-2.25 q -0.0156,-2.3125 -1.17188,-3.57813 -1.14062,-1.26562 -3.48437,-1.26562 -2.35938,0 -3.76563,1.39062 -1.39062,1.39063 -1.57812,3.45313 z"
     style="font-size:32px"
     id="path42" /></g></g>
</svg>
