<?xml version="1.0" encoding="UTF-8" standalone="no"?>
<svg
   xmlns:dc="http://purl.org/dc/elements/1.1/"
   xmlns:cc="http://creativecommons.org/ns#"
   xmlns:rdf="http://www.w3.org/1999/02/22-rdf-syntax-ns#"
   xmlns:svg="http://www.w3.org/2000/svg"
   xmlns="http://www.w3.org/2000/svg"
   xmlns:xlink="http://www.w3.org/1999/xlink"
   xmlns:sodipodi="http://sodipodi.sourceforge.net/DTD/sodipodi-0.dtd"
   xmlns:inkscape="http://www.inkscape.org/namespaces/inkscape"
   height="800"
   width="1200"
   viewBox="-4.83 -8.439875 41.86 50.63925"
   version="1.1"
   id="svg14"
   sodipodi:docname="powerbi.svg"
   inkscape:version="1.0.1 (3bc2e813f5, 2020-09-07)">
  <metadata
     id="metadata20">
    <rdf:RDF>
      <cc:Work
         rdf:about="">
        <dc:format>image/svg+xml</dc:format>
        <dc:type
           rdf:resource="http://purl.org/dc/dcmitype/StillImage" />
      </cc:Work>
    </rdf:RDF>
  </metadata>
  <defs
     id="defs18" />
  <sodipodi:namedview
     pagecolor="#ffffff"
     bordercolor="#666666"
     borderopacity="1"
     objecttolerance="10"
     gridtolerance="10"
     guidetolerance="10"
     inkscape:pageopacity="0"
     inkscape:pageshadow="2"
     inkscape:window-width="1920"
     inkscape:window-height="1017"
     id="namedview16"
     showgrid="false"
     inkscape:zoom="0.86833333"
     inkscape:cx="600"
     inkscape:cy="400"
     inkscape:window-x="-8"
     inkscape:window-y="-8"
     inkscape:window-maximized="1"
     inkscape:current-layer="svg14" />
  <g
     transform="matrix(0.83926395,0,0,0.83926395,1.7960642,-7.3347318)"
     id="g12">
    <defs
       id="defs3">
      <path
         id="a"
         d="M 0.9,0 H 33.1 V 33.9 H 0.9 Z" />
    </defs>
    <clipPath
       id="b">
      <use
         height="100%"
         width="100%"
         overflow="visible"
         xlink:href="#a"
         id="use5"
         x="0"
         y="0" />
    </clipPath>
    <path
       d="m 11.1,27.3 c 0,1.1 -0.9,2.1 -2.1,2.1 -1.2,0 -2.1,-0.9 -2.1,-2.1 v -9 c 0,-1.1 0.9,-2.1 2.1,-2.1 1.2,0 2.1,0.9 2.1,2.1 z m 6,2.4 c 0,1.1 -0.9,2.1 -2.1,2.1 -1.2,0 -2,-0.9 -2,-2.1 V 16 c 0,-1.1 0.9,-2.1 2.1,-2.1 1.2,0 2.1,0.9 2.1,2.1 V 29.7 Z M 5,25.3 c 0,1.1 -0.9,2.1 -2.1,2.1 -1.2,0 -2.1,-0.9 -2.1,-2.1 v -4.9 c 0,-1.1 0.9,-2.1 2.1,-2.1 1.2,0 2.1,1 2.1,2.1 z m 18.1,6.6 C 23.1,33 22.2,34 21,34 19.9,34 19,33 19,31.9 V 13.7 c 0,-1.1 0.9,-2.1 2.1,-2.1 1.1,0 2.1,0.9 2.1,2.1 v 18.2 z"
       fill="#231f20"
       clip-path="url(#b)"
       id="path8" />
    <path
       d="M 29.7,31 C 29.3,31 29,30.9 28.6,30.8 L 26.1,30 c -0.4,-0.1 -0.7,-0.6 -0.5,-1 0.1,-0.4 0.6,-0.7 1,-0.5 l 2.6,0.8 c 0.5,0.2 1.1,0.1 1.6,-0.3 0.5,-0.3 0.7,-0.9 0.7,-1.4 V 10.9 C 31.5,10.1 31,9.4 30.3,9.2 L 5.8,1.8 C 5.3,1.6 4.7,1.7 4.2,2 3.8,2.4 3.5,2.9 3.5,3.5 V 15 c 0,0.5 -0.4,0.8 -0.8,0.8 C 2.2,15.8 1.9,15.4 1.9,15 V 3.5 C 1.9,2.4 2.4,1.4 3.3,0.8 4.2,0.1 5.3,0 6.3,0.3 l 24.4,7.4 c 1.4,0.4 2.4,1.8 2.4,3.3 v 16.7 c 0,1.1 -0.5,2.1 -1.4,2.8 -0.6,0.2 -1.3,0.5 -2,0.5"
       fill="#231f20"
       clip-path="url(#b)"
       id="path10" />
  </g>
  <g
     aria-label="Power BI"
     id="text24"
     style="font-size:5.90791px;line-height:1.25;font-family:sans-serif;stroke-width:0.0632991">
    <path
       d="m 6.4380662,25.230186 q 0,0.285587 -0.1009652,0.530788 -0.098081,0.242317 -0.2769333,0.42117 -0.2221236,0.222123 -0.5250193,0.334627 -0.3028958,0.10962 -0.7644513,0.10962 H 4.1995222 v 1.60102 H 3.6283474 v -4.29535 h 1.1654275 q 0.3865527,0 0.6548318,0.06635 0.2682791,0.06346 0.4759791,0.201931 0.2452013,0.164429 0.3778985,0.40963 0.1355819,0.245202 0.1355819,0.620216 z m -0.5942526,0.01442 q 0,-0.222123 -0.077888,-0.386553 Q 5.6880386,24.693627 5.5293789,24.589777 5.3909123,24.500351 5.2120595,24.46285 5.0360915,24.422463 4.7649277,24.422463 H 4.1995222 v 1.71641 h 0.4817486 q 0.3461666,0 0.5625207,-0.06058 0.2163541,-0.06346 0.351936,-0.199046 0.1355819,-0.138467 0.1903916,-0.291357 0.057695,-0.15289 0.057695,-0.343282 z"
       style="font-size:5.90791px;stroke-width:0.0632991"
       id="path26" />
    <path
       d="m 9.7497266,26.617737 q 0,0.787529 -0.4038611,1.243315 -0.403861,0.455786 -1.0817706,0.455786 -0.683679,0 -1.08754,-0.455786 -0.4009763,-0.455786 -0.4009763,-1.243315 0,-0.787529 0.4009763,-1.243315 0.403861,-0.458671 1.08754,-0.458671 0.6779096,0 1.0817706,0.458671 0.4038611,0.455786 0.4038611,1.243315 z m -0.559636,0 q 0,-0.625985 -0.2452014,-0.928881 -0.2452013,-0.30578 -0.6807943,-0.30578 -0.4413624,0 -0.6865637,0.30578 -0.2423166,0.302896 -0.2423166,0.928881 0,0.605791 0.2452013,0.920226 0.2452013,0.31155 0.683679,0.31155 0.4327083,0 0.6779096,-0.308665 0.2480861,-0.31155 0.2480861,-0.923111 z"
       style="font-size:5.90791px;stroke-width:0.0632991"
       id="path28" />
    <path
       d="m 14.642214,25.005177 -0.839454,3.222234 h -0.501941 l -0.827916,-2.483745 -0.822145,2.483745 h -0.499057 l -0.848108,-3.222234 h 0.565405 l 0.591368,2.495284 0.804837,-2.495284 h 0.447132 l 0.825031,2.495284 0.559636,-2.495284 z"
       style="font-size:5.90791px;stroke-width:0.0632991"
       id="path30" />
    <path
       d="m 18.121189,26.672546 h -2.374126 q 0,0.297127 0.08943,0.51925 0.08943,0.219239 0.245202,0.36059 0.150005,0.138467 0.354821,0.2077 0.207699,0.06923 0.455786,0.06923 0.328858,0 0.660601,-0.129813 0.334628,-0.132697 0.475979,-0.259625 h 0.02885 v 0.591368 q -0.274048,0.115389 -0.559636,0.193277 -0.285587,0.07789 -0.600022,0.07789 -0.801953,0 -1.251969,-0.432708 -0.450017,-0.435593 -0.450017,-1.234661 0,-0.790414 0.429824,-1.254854 0.432708,-0.46444 1.13658,-0.46444 0.651947,0 1.003883,0.380783 0.354821,0.380783 0.354821,1.081771 z m -0.527904,-0.4154 q -0.0029,-0.426938 -0.216354,-0.660601 -0.210585,-0.233662 -0.643293,-0.233662 -0.435593,0 -0.695218,0.25674 -0.25674,0.25674 -0.291357,0.637523 z"
       style="font-size:5.90791px;stroke-width:0.0632991"
       id="path32" />
    <path
       d="m 20.953985,25.596545 h -0.02885 q -0.121159,-0.02885 -0.236548,-0.04039 -0.112504,-0.01442 -0.268279,-0.01442 -0.25097,0 -0.484633,0.112505 -0.233662,0.109619 -0.450016,0.285587 v 2.287584 h -0.542328 v -3.222234 h 0.542328 v 0.475979 q 0.323088,-0.259625 0.56829,-0.366359 0.248086,-0.10962 0.504826,-0.10962 0.141351,0 0.204815,0.0087 0.06346,0.0058 0.190392,0.02596 z"
       style="font-size:5.90791px;stroke-width:0.0632991"
       id="path34" />
    <path
       d="m 26.824395,26.906209 q 0,0.320204 -0.121159,0.565405 -0.121158,0.245202 -0.325973,0.403861 -0.242317,0.190392 -0.533674,0.271164 -0.288472,0.08077 -0.735604,0.08077 h -1.523133 v -4.29535 h 1.272162 q 0.47021,0 0.703872,0.03462 0.233663,0.03462 0.447132,0.144237 0.236548,0.124043 0.343282,0.320204 0.106735,0.193276 0.106735,0.46444 0,0.30578 -0.155775,0.522134 -0.155775,0.21347 -0.4154,0.343282 v 0.02308 q 0.435593,0.08943 0.686564,0.383668 0.250971,0.291357 0.250971,0.738489 z m -0.960613,-1.935648 q 0,-0.155775 -0.05193,-0.26251 -0.05193,-0.106735 -0.167314,-0.173083 -0.135581,-0.07789 -0.328858,-0.0952 -0.193276,-0.02019 -0.478864,-0.02019 h -0.680794 v 1.24043 h 0.738489 q 0.268279,0 0.426939,-0.02596 0.158659,-0.02885 0.294241,-0.115389 0.135582,-0.08654 0.190392,-0.222124 0.05769,-0.138467 0.05769,-0.325973 z m 0.36636,1.958726 q 0,-0.259625 -0.07789,-0.412516 -0.07789,-0.15289 -0.282702,-0.259625 -0.138467,-0.07212 -0.337513,-0.09231 -0.196161,-0.02308 -0.478864,-0.02308 h -0.897148 v 1.598135 h 0.755797 q 0.375014,0 0.614446,-0.0375 0.239432,-0.04039 0.392322,-0.144236 0.161544,-0.112504 0.236547,-0.25674 0.075,-0.144236 0.075,-0.372129 z"
       style="font-size:5.90791px;stroke-width:0.0632991"
       id="path36" />
    <path
       d="m 29.149479,28.227411 h -1.696216 v -0.438477 h 0.56252 v -3.418396 h -0.56252 v -0.438477 h 1.696216 v 0.438477 h -0.562521 v 3.418396 h 0.562521 z"
       style="font-size:5.90791px;stroke-width:0.0632991"
       id="path38" />
  </g>
</svg>
