<?xml version="1.0" encoding="UTF-8" standalone="no"?>
<svg
   xmlns:dc="http://purl.org/dc/elements/1.1/"
   xmlns:cc="http://creativecommons.org/ns#"
   xmlns:rdf="http://www.w3.org/1999/02/22-rdf-syntax-ns#"
   xmlns:svg="http://www.w3.org/2000/svg"
   xmlns="http://www.w3.org/2000/svg"
   xmlns:xlink="http://www.w3.org/1999/xlink"
   xmlns:sodipodi="http://sodipodi.sourceforge.net/DTD/sodipodi-0.dtd"
   xmlns:inkscape="http://www.inkscape.org/namespaces/inkscape"
   height="800"
   width="1200"
   viewBox="-4.83 -8.439875 41.86 50.63925"
   version="1.1"
   id="svg14"
   sodipodi:docname="powerbi-semantics.svg"
   inkscape:version="1.0.1 (3bc2e813f5, 2020-09-07)">
  <g
     aria-label="Semantics"
     id="text34"
     style="font-size:0.843985px;line-height:1.25;font-family:sans-serif;stroke-width:0.0632991">
    <path
       d="m 6.8847396,35.338191 q 0,0.200776 -0.094619,0.396938 -0.092311,0.196161 -0.2607789,0.33232 -0.1846223,0.147697 -0.4315545,0.230777 -0.2446245,0.08308 -0.5907913,0.08308 -0.3715522,0 -0.6692556,-0.06923 -0.2953956,-0.06923 -0.6023302,-0.205392 v -0.572329 h 0.032309 q 0.260779,0.216931 0.6023302,0.334628 0.3415511,0.117696 0.6415623,0.117696 0.4246312,0 0.6600246,-0.159236 0.2377011,-0.159237 0.2377011,-0.424632 0,-0.22847 -0.1130811,-0.336935 -0.1107734,-0.108466 -0.3392434,-0.168468 -0.1730834,-0.04616 -0.3761678,-0.07616 -0.2007768,-0.03 -0.426939,-0.07616 -0.4569401,-0.09693 -0.6784868,-0.330013 -0.2192389,-0.235393 -0.2192389,-0.611561 0,-0.431554 0.3646289,-0.70618 0.364629,-0.276933 0.9254191,-0.276933 0.3623212,0 0.6646401,0.06923 0.302319,0.06923 0.5354046,0.170776 v 0.54002 H 6.7139641 Q 6.5178029,33.434274 6.1970217,33.325808 5.8785483,33.215035 5.5439205,33.215035 q -0.3669367,0 -0.5907912,0.152313 -0.2215467,0.152313 -0.2215467,0.392322 0,0.214624 0.1107733,0.336936 0.1107734,0.122312 0.3900145,0.18693 0.1476978,0.03231 0.4200157,0.07846 0.2723178,0.04616 0.4615556,0.09462 0.3830912,0.101543 0.5769446,0.306935 0.1938533,0.205392 0.1938533,0.574637 z"
       style="font-size:4.72633px;stroke-width:0.0632991"
       id="path37" />
    <path
       d="M 9.7417691,35.075104 H 7.8424677 q 0,0.237701 0.071541,0.4154 0.071541,0.175391 0.1961611,0.288472 0.1200045,0.110774 0.2838568,0.16616 0.16616,0.05539 0.3646289,0.05539 0.2630867,0 0.5284812,-0.10385 0.2677023,-0.106158 0.3807834,-0.2077 h 0.023078 v 0.473095 q -0.2192389,0.09231 -0.447709,0.154621 -0.22847,0.06231 -0.4800178,0.06231 -0.6415624,0 -1.0015758,-0.346167 -0.3600134,-0.348475 -0.3600134,-0.987729 0,-0.632331 0.343859,-1.003884 0.3461667,-0.371552 0.9092646,-0.371552 0.5215579,0 0.8031068,0.304627 0.2838567,0.304626 0.2838567,0.865417 z m -0.4223234,-0.33232 q -0.00231,-0.341551 -0.1730833,-0.528481 -0.1684679,-0.18693 -0.5146346,-0.18693 -0.3484745,0 -0.5561745,0.205392 -0.2053923,0.205392 -0.2330856,0.510019 z"
       style="font-size:4.72633px;stroke-width:0.0632991"
       id="path39" />
    <path
       d="m 14.161165,36.318996 h -0.433863 v -1.467747 q 0,-0.16616 -0.01615,-0.320781 -0.01385,-0.154621 -0.06231,-0.246932 -0.05308,-0.09923 -0.152314,-0.150006 -0.09923,-0.05077 -0.286164,-0.05077 -0.182315,0 -0.364629,0.09231 -0.182315,0.09 -0.364629,0.230778 0.0069,0.05308 0.01154,0.12462 0.0046,0.06923 0.0046,0.138467 v 1.650061 h -0.433862 v -1.467747 q 0,-0.170775 -0.01615,-0.323088 -0.01385,-0.154622 -0.06231,-0.246933 -0.05308,-0.09923 -0.152314,-0.147698 -0.09923,-0.05077 -0.286164,-0.05077 -0.177699,0 -0.357706,0.0877 -0.177699,0.0877 -0.355398,0.223854 v 1.924687 h -0.433862 v -2.577788 h 0.433862 v 0.286165 q 0.203085,-0.168468 0.403862,-0.263087 0.203084,-0.09462 0.431554,-0.09462 0.263087,0 0.445401,0.110773 0.184623,0.110774 0.274626,0.306935 0.263087,-0.221547 0.480018,-0.318474 0.216931,-0.09923 0.463863,-0.09923 0.424631,0 0.625408,0.258471 0.203085,0.256164 0.203085,0.717719 z"
       style="font-size:4.72633px;stroke-width:0.0632991"
       id="path41" />
    <path
       d="m 16.999731,36.318996 h -0.431554 v -0.274625 q -0.05769,0.03923 -0.156929,0.110773 -0.09693,0.06923 -0.189238,0.110774 -0.108466,0.05308 -0.24924,0.0877 -0.140775,0.03692 -0.330012,0.03692 -0.348475,0 -0.590792,-0.230778 -0.242316,-0.230778 -0.242316,-0.588484 0,-0.293088 0.12462,-0.473094 0.126927,-0.182315 0.360013,-0.286165 0.235393,-0.10385 0.565406,-0.140774 0.330012,-0.03692 0.708488,-0.05539 v -0.06692 q 0,-0.147698 -0.05308,-0.244625 -0.05077,-0.09693 -0.147698,-0.152313 -0.09231,-0.05308 -0.221547,-0.07154 -0.129235,-0.01846 -0.27001,-0.01846 -0.170775,0 -0.380783,0.04616 -0.210008,0.04385 -0.433863,0.129235 h -0.02308 v -0.440785 q 0.126927,-0.03462 0.366936,-0.07616 0.240009,-0.04154 0.473095,-0.04154 0.272318,0 0.473094,0.04616 0.203085,0.04385 0.350783,0.152313 0.14539,0.106158 0.221546,0.274626 0.07616,0.168467 0.07616,0.417708 z m -0.431554,-0.634639 v -0.717719 q -0.198469,0.01154 -0.468479,0.03462 -0.267703,0.02308 -0.424632,0.06693 -0.18693,0.05308 -0.302319,0.16616 -0.115388,0.110773 -0.115388,0.306934 0,0.221547 0.133851,0.334628 0.133851,0.110773 0.408476,0.110773 0.22847,0 0.417708,-0.0877 0.189238,-0.09 0.350783,-0.214624 z"
       style="font-size:4.72633px;stroke-width:0.0632991"
       id="path43" />
    <path
       d="M 19.990612,36.318996 H 19.55675 v -1.467747 q 0,-0.177698 -0.02077,-0.33232 -0.02077,-0.156929 -0.07616,-0.244624 -0.05769,-0.09693 -0.16616,-0.143082 -0.108465,-0.04846 -0.281549,-0.04846 -0.177699,0 -0.371552,0.0877 -0.193853,0.0877 -0.371552,0.223854 v 1.924687 h -0.433863 v -2.577788 h 0.433863 v 0.286165 q 0.203084,-0.168468 0.420015,-0.263087 0.216931,-0.09462 0.445401,-0.09462 0.417708,0 0.636947,0.251548 0.219239,0.251548 0.219239,0.724642 z"
       style="font-size:4.72633px;stroke-width:0.0632991"
       id="path45" />
    <path
       d="m 22.16454,36.295919 q -0.122313,0.03231 -0.267703,0.05308 -0.143082,0.02077 -0.256163,0.02077 -0.39463,0 -0.600022,-0.212316 -0.205393,-0.212316 -0.205393,-0.680795 v -1.37082 h -0.293087 v -0.364629 h 0.293087 v -0.740797 h 0.433863 v 0.740797 h 0.895418 v 0.364629 h -0.895418 v 1.174659 q 0,0.203085 0.0092,0.318474 0.0092,0.113081 0.06462,0.212315 0.05077,0.09231 0.138466,0.136159 0.09,0.04154 0.272318,0.04154 0.106158,0 0.221547,-0.03 0.115389,-0.03231 0.16616,-0.05308 h 0.02308 z"
       style="font-size:4.72633px;stroke-width:0.0632991"
       id="path47" />
    <path
       d="m 23.154577,33.309654 h -0.489249 v -0.450017 h 0.489249 z m -0.02769,3.009342 h -0.433862 v -2.577788 h 0.433862 z"
       style="font-size:4.72633px;stroke-width:0.0632991"
       id="path49" />
    <path
       d="m 25.891601,36.157452 q -0.216931,0.10385 -0.413093,0.161544 -0.193853,0.0577 -0.413092,0.0577 -0.279241,0 -0.512327,-0.08077 -0.233085,-0.08308 -0.399245,-0.24924 -0.168468,-0.16616 -0.260779,-0.420016 -0.09231,-0.253856 -0.09231,-0.593099 0,-0.632331 0.346166,-0.992345 0.348475,-0.360013 0.918496,-0.360013 0.221547,0 0.433862,0.06231 0.214624,0.06231 0.392323,0.152313 v 0.482326 h -0.02308 q -0.198469,-0.154621 -0.410785,-0.237701 -0.210007,-0.08308 -0.410784,-0.08308 -0.369245,0 -0.583868,0.24924 -0.212316,0.246932 -0.212316,0.72695 0,0.466171 0.2077,0.717719 0.210008,0.24924 0.588484,0.24924 0.131543,0 0.267702,-0.03462 0.136159,-0.03462 0.244625,-0.09 0.09462,-0.04846 0.177699,-0.101542 0.08308,-0.05539 0.131543,-0.09462 h 0.02308 z"
       style="font-size:4.72633px;stroke-width:0.0632991"
       id="path51" />
    <path
       d="m 28.289383,35.575892 q 0,0.35309 -0.293088,0.579252 -0.29078,0.226162 -0.796183,0.226162 -0.286165,0 -0.526173,-0.06693 -0.237702,-0.06923 -0.399246,-0.150006 v -0.486941 h 0.02308 q 0.205392,0.154621 0.45694,0.246932 0.251548,0.09 0.482325,0.09 0.286165,0 0.447709,-0.09231 0.161545,-0.09231 0.161545,-0.29078 0,-0.152314 -0.0877,-0.230778 -0.0877,-0.07847 -0.336935,-0.133851 -0.09231,-0.02077 -0.242317,-0.04846 -0.147698,-0.02769 -0.27001,-0.06 -0.339243,-0.09 -0.482326,-0.263087 -0.140774,-0.175391 -0.140774,-0.429246 0,-0.159237 0.06462,-0.300012 0.06692,-0.140774 0.200776,-0.251547 0.129236,-0.108466 0.327705,-0.170776 0.200777,-0.06462 0.447709,-0.06462 0.230778,0 0.466171,0.0577 0.237701,0.05539 0.39463,0.136159 v 0.463863 h -0.02308 q -0.16616,-0.122312 -0.403861,-0.205392 -0.237701,-0.08539 -0.466171,-0.08539 -0.237701,0 -0.401554,0.09231 -0.163852,0.09 -0.163852,0.27001 0,0.159237 0.09924,0.240009 0.09693,0.08077 0.313858,0.131543 0.120004,0.02769 0.267702,0.05539 0.150005,0.02769 0.24924,0.05077 0.302319,0.06923 0.466171,0.237701 0.163852,0.170776 0.163852,0.452325 z"
       style="font-size:4.72633px;stroke-width:0.0632991"
       id="path53" />
  </g>
  <metadata
     id="metadata20">
    <rdf:RDF>
      <cc:Work
         rdf:about="">
        <dc:format>image/svg+xml</dc:format>
        <dc:type
           rdf:resource="http://purl.org/dc/dcmitype/StillImage" />
      </cc:Work>
    </rdf:RDF>
  </metadata>
  <defs
     id="defs18" />
  <sodipodi:namedview
     pagecolor="#ffffff"
     bordercolor="#666666"
     borderopacity="1"
     objecttolerance="10"
     gridtolerance="10"
     guidetolerance="10"
     inkscape:pageopacity="0"
     inkscape:pageshadow="2"
     inkscape:window-width="1920"
     inkscape:window-height="1017"
     id="namedview16"
     showgrid="false"
     inkscape:zoom="0.86833333"
     inkscape:cx="600"
     inkscape:cy="400"
     inkscape:window-x="-8"
     inkscape:window-y="-8"
     inkscape:window-maximized="1"
     inkscape:current-layer="svg14"
     inkscape:document-rotation="0" />
  <g
     transform="matrix(0.83926395,0,0,0.83926395,1.7960642,-7.3347318)"
     id="g12">
    <defs
       id="defs3">
      <path
         id="a"
         d="M 0.9,0 H 33.1 V 33.9 H 0.9 Z" />
    </defs>
    <clipPath
       id="b">
      <use
         height="100%"
         width="100%"
         overflow="visible"
         xlink:href="#a"
         id="use5"
         x="0"
         y="0" />
    </clipPath>
    <path
       d="m 11.1,27.3 c 0,1.1 -0.9,2.1 -2.1,2.1 -1.2,0 -2.1,-0.9 -2.1,-2.1 v -9 c 0,-1.1 0.9,-2.1 2.1,-2.1 1.2,0 2.1,0.9 2.1,2.1 z m 6,2.4 c 0,1.1 -0.9,2.1 -2.1,2.1 -1.2,0 -2,-0.9 -2,-2.1 V 16 c 0,-1.1 0.9,-2.1 2.1,-2.1 1.2,0 2.1,0.9 2.1,2.1 V 29.7 Z M 5,25.3 c 0,1.1 -0.9,2.1 -2.1,2.1 -1.2,0 -2.1,-0.9 -2.1,-2.1 v -4.9 c 0,-1.1 0.9,-2.1 2.1,-2.1 1.2,0 2.1,1 2.1,2.1 z m 18.1,6.6 C 23.1,33 22.2,34 21,34 19.9,34 19,33 19,31.9 V 13.7 c 0,-1.1 0.9,-2.1 2.1,-2.1 1.1,0 2.1,0.9 2.1,2.1 v 18.2 z"
       fill="#231f20"
       clip-path="url(#b)"
       id="path8" />
    <path
       d="M 29.7,31 C 29.3,31 29,30.9 28.6,30.8 L 26.1,30 c -0.4,-0.1 -0.7,-0.6 -0.5,-1 0.1,-0.4 0.6,-0.7 1,-0.5 l 2.6,0.8 c 0.5,0.2 1.1,0.1 1.6,-0.3 0.5,-0.3 0.7,-0.9 0.7,-1.4 V 10.9 C 31.5,10.1 31,9.4 30.3,9.2 L 5.8,1.8 C 5.3,1.6 4.7,1.7 4.2,2 3.8,2.4 3.5,2.9 3.5,3.5 V 15 c 0,0.5 -0.4,0.8 -0.8,0.8 C 2.2,15.8 1.9,15.4 1.9,15 V 3.5 C 1.9,2.4 2.4,1.4 3.3,0.8 4.2,0.1 5.3,0 6.3,0.3 l 24.4,7.4 c 1.4,0.4 2.4,1.8 2.4,3.3 v 16.7 c 0,1.1 -0.5,2.1 -1.4,2.8 -0.6,0.2 -1.3,0.5 -2,0.5"
       fill="#231f20"
       clip-path="url(#b)"
       id="path10" />
  </g>
  <g
     aria-label="Power BI"
     id="text24"
     style="font-size:5.90791px;line-height:1.25;font-family:sans-serif;stroke-width:0.0632991"
     transform="translate(0,-0.5063925)">
    <path
       d="m 6.4380662,25.230186 q 0,0.285587 -0.1009652,0.530788 -0.098081,0.242317 -0.2769333,0.42117 -0.2221236,0.222123 -0.5250193,0.334627 -0.3028958,0.10962 -0.7644513,0.10962 H 4.1995222 v 1.60102 H 3.6283474 v -4.29535 h 1.1654275 q 0.3865527,0 0.6548318,0.06635 0.2682791,0.06346 0.4759791,0.201931 0.2452013,0.164429 0.3778985,0.40963 0.1355819,0.245202 0.1355819,0.620216 z m -0.5942526,0.01442 q 0,-0.222123 -0.077888,-0.386553 Q 5.6880386,24.693627 5.5293789,24.589777 5.3909123,24.500351 5.2120595,24.46285 5.0360915,24.422463 4.7649277,24.422463 H 4.1995222 v 1.71641 h 0.4817486 q 0.3461666,0 0.5625207,-0.06058 0.2163541,-0.06346 0.351936,-0.199046 0.1355819,-0.138467 0.1903916,-0.291357 0.057695,-0.15289 0.057695,-0.343282 z"
       style="font-size:5.90791px;stroke-width:0.0632991"
       id="path26" />
    <path
       d="m 9.7497266,26.617737 q 0,0.787529 -0.4038611,1.243315 -0.403861,0.455786 -1.0817706,0.455786 -0.683679,0 -1.08754,-0.455786 -0.4009763,-0.455786 -0.4009763,-1.243315 0,-0.787529 0.4009763,-1.243315 0.403861,-0.458671 1.08754,-0.458671 0.6779096,0 1.0817706,0.458671 0.4038611,0.455786 0.4038611,1.243315 z m -0.559636,0 q 0,-0.625985 -0.2452014,-0.928881 -0.2452013,-0.30578 -0.6807943,-0.30578 -0.4413624,0 -0.6865637,0.30578 -0.2423166,0.302896 -0.2423166,0.928881 0,0.605791 0.2452013,0.920226 0.2452013,0.31155 0.683679,0.31155 0.4327083,0 0.6779096,-0.308665 0.2480861,-0.31155 0.2480861,-0.923111 z"
       style="font-size:5.90791px;stroke-width:0.0632991"
       id="path28" />
    <path
       d="m 14.642214,25.005177 -0.839454,3.222234 h -0.501941 l -0.827916,-2.483745 -0.822145,2.483745 h -0.499057 l -0.848108,-3.222234 h 0.565405 l 0.591368,2.495284 0.804837,-2.495284 h 0.447132 l 0.825031,2.495284 0.559636,-2.495284 z"
       style="font-size:5.90791px;stroke-width:0.0632991"
       id="path30" />
    <path
       d="m 18.121189,26.672546 h -2.374126 q 0,0.297127 0.08943,0.51925 0.08943,0.219239 0.245202,0.36059 0.150005,0.138467 0.354821,0.2077 0.207699,0.06923 0.455786,0.06923 0.328858,0 0.660601,-0.129813 0.334628,-0.132697 0.475979,-0.259625 h 0.02885 v 0.591368 q -0.274048,0.115389 -0.559636,0.193277 -0.285587,0.07789 -0.600022,0.07789 -0.801953,0 -1.251969,-0.432708 -0.450017,-0.435593 -0.450017,-1.234661 0,-0.790414 0.429824,-1.254854 0.432708,-0.46444 1.13658,-0.46444 0.651947,0 1.003883,0.380783 0.354821,0.380783 0.354821,1.081771 z m -0.527904,-0.4154 q -0.0029,-0.426938 -0.216354,-0.660601 -0.210585,-0.233662 -0.643293,-0.233662 -0.435593,0 -0.695218,0.25674 -0.25674,0.25674 -0.291357,0.637523 z"
       style="font-size:5.90791px;stroke-width:0.0632991"
       id="path32" />
    <path
       d="m 20.953985,25.596545 h -0.02885 q -0.121159,-0.02885 -0.236548,-0.04039 -0.112504,-0.01442 -0.268279,-0.01442 -0.25097,0 -0.484633,0.112505 -0.233662,0.109619 -0.450016,0.285587 v 2.287584 h -0.542328 v -3.222234 h 0.542328 v 0.475979 q 0.323088,-0.259625 0.56829,-0.366359 0.248086,-0.10962 0.504826,-0.10962 0.141351,0 0.204815,0.0087 0.06346,0.0058 0.190392,0.02596 z"
       style="font-size:5.90791px;stroke-width:0.0632991"
       id="path34" />
    <path
       d="m 26.824395,26.906209 q 0,0.320204 -0.121159,0.565405 -0.121158,0.245202 -0.325973,0.403861 -0.242317,0.190392 -0.533674,0.271164 -0.288472,0.08077 -0.735604,0.08077 h -1.523133 v -4.29535 h 1.272162 q 0.47021,0 0.703872,0.03462 0.233663,0.03462 0.447132,0.144237 0.236548,0.124043 0.343282,0.320204 0.106735,0.193276 0.106735,0.46444 0,0.30578 -0.155775,0.522134 -0.155775,0.21347 -0.4154,0.343282 v 0.02308 q 0.435593,0.08943 0.686564,0.383668 0.250971,0.291357 0.250971,0.738489 z m -0.960613,-1.935648 q 0,-0.155775 -0.05193,-0.26251 -0.05193,-0.106735 -0.167314,-0.173083 -0.135581,-0.07789 -0.328858,-0.0952 -0.193276,-0.02019 -0.478864,-0.02019 h -0.680794 v 1.24043 h 0.738489 q 0.268279,0 0.426939,-0.02596 0.158659,-0.02885 0.294241,-0.115389 0.135582,-0.08654 0.190392,-0.222124 0.05769,-0.138467 0.05769,-0.325973 z m 0.36636,1.958726 q 0,-0.259625 -0.07789,-0.412516 -0.07789,-0.15289 -0.282702,-0.259625 -0.138467,-0.07212 -0.337513,-0.09231 -0.196161,-0.02308 -0.478864,-0.02308 h -0.897148 v 1.598135 h 0.755797 q 0.375014,0 0.614446,-0.0375 0.239432,-0.04039 0.392322,-0.144236 0.161544,-0.112504 0.236547,-0.25674 0.075,-0.144236 0.075,-0.372129 z"
       style="font-size:5.90791px;stroke-width:0.0632991"
       id="path36" />
    <path
       d="m 29.149479,28.227411 h -1.696216 v -0.438477 h 0.56252 v -3.418396 h -0.56252 v -0.438477 h 1.696216 v 0.438477 h -0.562521 v 3.418396 h 0.562521 z"
       style="font-size:5.90791px;stroke-width:0.0632991"
       id="path38" />
  </g>
</svg>
