<?xml version="1.0" encoding="UTF-8" standalone="no"?>
<svg
   xmlns:dc="http://purl.org/dc/elements/1.1/"
   xmlns:cc="http://creativecommons.org/ns#"
   xmlns:rdf="http://www.w3.org/1999/02/22-rdf-syntax-ns#"
   xmlns:svg="http://www.w3.org/2000/svg"
   xmlns="http://www.w3.org/2000/svg"
   xmlns:xlink="http://www.w3.org/1999/xlink"
   xmlns:sodipodi="http://sodipodi.sourceforge.net/DTD/sodipodi-0.dtd"
   xmlns:inkscape="http://www.inkscape.org/namespaces/inkscape"
   height="800"
   width="1200"
   viewBox="-4.83 -8.439875 41.86 50.63925"
   version="1.1"
   id="svg14"
   sodipodi:docname="powerbi-pq.svg"
   inkscape:version="1.0.1 (3bc2e813f5, 2020-09-07)">
  <metadata
     id="metadata20">
    <rdf:RDF>
      <cc:Work
         rdf:about="">
        <dc:format>image/svg+xml</dc:format>
        <dc:type
           rdf:resource="http://purl.org/dc/dcmitype/StillImage" />
      </cc:Work>
    </rdf:RDF>
  </metadata>
  <defs
     id="defs18" />
  <sodipodi:namedview
     pagecolor="#ffffff"
     bordercolor="#666666"
     borderopacity="1"
     objecttolerance="10"
     gridtolerance="10"
     guidetolerance="10"
     inkscape:pageopacity="0"
     inkscape:pageshadow="2"
     inkscape:window-width="1920"
     inkscape:window-height="1017"
     id="namedview16"
     showgrid="false"
     inkscape:zoom="0.86833333"
     inkscape:cx="600"
     inkscape:cy="400"
     inkscape:window-x="-8"
     inkscape:window-y="-8"
     inkscape:window-maximized="1"
     inkscape:current-layer="svg14"
     inkscape:document-rotation="0" />
  <g
     transform="matrix(0.83926395,0,0,0.83926395,1.7960642,-7.3347318)"
     id="g12">
    <defs
       id="defs3">
      <path
         id="a"
         d="M 0.9,0 H 33.1 V 33.9 H 0.9 Z" />
    </defs>
    <clipPath
       id="b">
      <use
         height="100%"
         width="100%"
         overflow="visible"
         xlink:href="#a"
         id="use5"
         x="0"
         y="0" />
    </clipPath>
    <path
       d="m 11.1,27.3 c 0,1.1 -0.9,2.1 -2.1,2.1 -1.2,0 -2.1,-0.9 -2.1,-2.1 v -9 c 0,-1.1 0.9,-2.1 2.1,-2.1 1.2,0 2.1,0.9 2.1,2.1 z m 6,2.4 c 0,1.1 -0.9,2.1 -2.1,2.1 -1.2,0 -2,-0.9 -2,-2.1 V 16 c 0,-1.1 0.9,-2.1 2.1,-2.1 1.2,0 2.1,0.9 2.1,2.1 V 29.7 Z M 5,25.3 c 0,1.1 -0.9,2.1 -2.1,2.1 -1.2,0 -2.1,-0.9 -2.1,-2.1 v -4.9 c 0,-1.1 0.9,-2.1 2.1,-2.1 1.2,0 2.1,1 2.1,2.1 z m 18.1,6.6 C 23.1,33 22.2,34 21,34 19.9,34 19,33 19,31.9 V 13.7 c 0,-1.1 0.9,-2.1 2.1,-2.1 1.1,0 2.1,0.9 2.1,2.1 v 18.2 z"
       fill="#231f20"
       clip-path="url(#b)"
       id="path8" />
    <path
       d="M 29.7,31 C 29.3,31 29,30.9 28.6,30.8 L 26.1,30 c -0.4,-0.1 -0.7,-0.6 -0.5,-1 0.1,-0.4 0.6,-0.7 1,-0.5 l 2.6,0.8 c 0.5,0.2 1.1,0.1 1.6,-0.3 0.5,-0.3 0.7,-0.9 0.7,-1.4 V 10.9 C 31.5,10.1 31,9.4 30.3,9.2 L 5.8,1.8 C 5.3,1.6 4.7,1.7 4.2,2 3.8,2.4 3.5,2.9 3.5,3.5 V 15 c 0,0.5 -0.4,0.8 -0.8,0.8 C 2.2,15.8 1.9,15.4 1.9,15 V 3.5 C 1.9,2.4 2.4,1.4 3.3,0.8 4.2,0.1 5.3,0 6.3,0.3 l 24.4,7.4 c 1.4,0.4 2.4,1.8 2.4,3.3 v 16.7 c 0,1.1 -0.5,2.1 -1.4,2.8 -0.6,0.2 -1.3,0.5 -2,0.5"
       fill="#231f20"
       clip-path="url(#b)"
       id="path10" />
  </g>
  <g
     aria-label="Power BI"
     id="text24"
     style="font-size:5.90791px;line-height:1.25;font-family:sans-serif;stroke-width:0.0632991"
     transform="translate(0,-0.5063925)">
    <path
       d="m 6.4380662,25.230186 q 0,0.285587 -0.1009652,0.530788 -0.098081,0.242317 -0.2769333,0.42117 -0.2221236,0.222123 -0.5250193,0.334627 -0.3028958,0.10962 -0.7644513,0.10962 H 4.1995222 v 1.60102 H 3.6283474 v -4.29535 h 1.1654275 q 0.3865527,0 0.6548318,0.06635 0.2682791,0.06346 0.4759791,0.201931 0.2452013,0.164429 0.3778985,0.40963 0.1355819,0.245202 0.1355819,0.620216 z m -0.5942526,0.01442 q 0,-0.222123 -0.077888,-0.386553 Q 5.6880386,24.693627 5.5293789,24.589777 5.3909123,24.500351 5.2120595,24.46285 5.0360915,24.422463 4.7649277,24.422463 H 4.1995222 v 1.71641 h 0.4817486 q 0.3461666,0 0.5625207,-0.06058 0.2163541,-0.06346 0.351936,-0.199046 0.1355819,-0.138467 0.1903916,-0.291357 0.057695,-0.15289 0.057695,-0.343282 z"
       style="font-size:5.90791px;stroke-width:0.0632991"
       id="path26" />
    <path
       d="m 9.7497266,26.617737 q 0,0.787529 -0.4038611,1.243315 -0.403861,0.455786 -1.0817706,0.455786 -0.683679,0 -1.08754,-0.455786 -0.4009763,-0.455786 -0.4009763,-1.243315 0,-0.787529 0.4009763,-1.243315 0.403861,-0.458671 1.08754,-0.458671 0.6779096,0 1.0817706,0.458671 0.4038611,0.455786 0.4038611,1.243315 z m -0.559636,0 q 0,-0.625985 -0.2452014,-0.928881 -0.2452013,-0.30578 -0.6807943,-0.30578 -0.4413624,0 -0.6865637,0.30578 -0.2423166,0.302896 -0.2423166,0.928881 0,0.605791 0.2452013,0.920226 0.2452013,0.31155 0.683679,0.31155 0.4327083,0 0.6779096,-0.308665 0.2480861,-0.31155 0.2480861,-0.923111 z"
       style="font-size:5.90791px;stroke-width:0.0632991"
       id="path28" />
    <path
       d="m 14.642214,25.005177 -0.839454,3.222234 h -0.501941 l -0.827916,-2.483745 -0.822145,2.483745 h -0.499057 l -0.848108,-3.222234 h 0.565405 l 0.591368,2.495284 0.804837,-2.495284 h 0.447132 l 0.825031,2.495284 0.559636,-2.495284 z"
       style="font-size:5.90791px;stroke-width:0.0632991"
       id="path30" />
    <path
       d="m 18.121189,26.672546 h -2.374126 q 0,0.297127 0.08943,0.51925 0.08943,0.219239 0.245202,0.36059 0.150005,0.138467 0.354821,0.2077 0.207699,0.06923 0.455786,0.06923 0.328858,0 0.660601,-0.129813 0.334628,-0.132697 0.475979,-0.259625 h 0.02885 v 0.591368 q -0.274048,0.115389 -0.559636,0.193277 -0.285587,0.07789 -0.600022,0.07789 -0.801953,0 -1.251969,-0.432708 -0.450017,-0.435593 -0.450017,-1.234661 0,-0.790414 0.429824,-1.254854 0.432708,-0.46444 1.13658,-0.46444 0.651947,0 1.003883,0.380783 0.354821,0.380783 0.354821,1.081771 z m -0.527904,-0.4154 q -0.0029,-0.426938 -0.216354,-0.660601 -0.210585,-0.233662 -0.643293,-0.233662 -0.435593,0 -0.695218,0.25674 -0.25674,0.25674 -0.291357,0.637523 z"
       style="font-size:5.90791px;stroke-width:0.0632991"
       id="path32" />
    <path
       d="m 20.953985,25.596545 h -0.02885 q -0.121159,-0.02885 -0.236548,-0.04039 -0.112504,-0.01442 -0.268279,-0.01442 -0.25097,0 -0.484633,0.112505 -0.233662,0.109619 -0.450016,0.285587 v 2.287584 h -0.542328 v -3.222234 h 0.542328 v 0.475979 q 0.323088,-0.259625 0.56829,-0.366359 0.248086,-0.10962 0.504826,-0.10962 0.141351,0 0.204815,0.0087 0.06346,0.0058 0.190392,0.02596 z"
       style="font-size:5.90791px;stroke-width:0.0632991"
       id="path34" />
    <path
       d="m 26.824395,26.906209 q 0,0.320204 -0.121159,0.565405 -0.121158,0.245202 -0.325973,0.403861 -0.242317,0.190392 -0.533674,0.271164 -0.288472,0.08077 -0.735604,0.08077 h -1.523133 v -4.29535 h 1.272162 q 0.47021,0 0.703872,0.03462 0.233663,0.03462 0.447132,0.144237 0.236548,0.124043 0.343282,0.320204 0.106735,0.193276 0.106735,0.46444 0,0.30578 -0.155775,0.522134 -0.155775,0.21347 -0.4154,0.343282 v 0.02308 q 0.435593,0.08943 0.686564,0.383668 0.250971,0.291357 0.250971,0.738489 z m -0.960613,-1.935648 q 0,-0.155775 -0.05193,-0.26251 -0.05193,-0.106735 -0.167314,-0.173083 -0.135581,-0.07789 -0.328858,-0.0952 -0.193276,-0.02019 -0.478864,-0.02019 h -0.680794 v 1.24043 h 0.738489 q 0.268279,0 0.426939,-0.02596 0.158659,-0.02885 0.294241,-0.115389 0.135582,-0.08654 0.190392,-0.222124 0.05769,-0.138467 0.05769,-0.325973 z m 0.36636,1.958726 q 0,-0.259625 -0.07789,-0.412516 -0.07789,-0.15289 -0.282702,-0.259625 -0.138467,-0.07212 -0.337513,-0.09231 -0.196161,-0.02308 -0.478864,-0.02308 h -0.897148 v 1.598135 h 0.755797 q 0.375014,0 0.614446,-0.0375 0.239432,-0.04039 0.392322,-0.144236 0.161544,-0.112504 0.236547,-0.25674 0.075,-0.144236 0.075,-0.372129 z"
       style="font-size:5.90791px;stroke-width:0.0632991"
       id="path36" />
    <path
       d="m 29.149479,28.227411 h -1.696216 v -0.438477 h 0.56252 v -3.418396 h -0.56252 v -0.438477 h 1.696216 v 0.438477 h -0.562521 v 3.418396 h 0.562521 z"
       style="font-size:5.90791px;stroke-width:0.0632991"
       id="path38" />
  </g>
  <g
     aria-label="Power Query"
     id="text23"
     style="font-size:0.843985px;line-height:1.25;font-family:sans-serif;stroke-width:0.0632991"
     transform="translate(0,0.94766351)">
    <path
       d="m 2.6487153,31.68335 q 0,0.261109 -0.092311,0.485293 -0.089674,0.221546 -0.2531962,0.385069 -0.2030845,0.203084 -0.4800179,0.305945 -0.2769334,0.100224 -0.6989271,0.100224 H 0.60204574 v 1.463791 H 0.0798285 v -3.927179 h 1.0655342 q 0.3534197,0 0.5987036,0.06066 0.2452838,0.05802 0.435181,0.184622 0.2241842,0.150336 0.3455074,0.37452 0.1239606,0.224184 0.1239606,0.567055 z m -0.5433169,0.01319 q 0,-0.203084 -0.071211,-0.35342 Q 1.9629755,31.192782 1.8179152,31.097834 1.6913171,31.016072 1.5277945,30.981785 1.3669094,30.944861 1.1189881,30.944861 H 0.60204574 V 32.51415 H 1.0425017 q 0.3164953,0 0.5143049,-0.05539 0.1978095,-0.05802 0.3217702,-0.181984 0.1239606,-0.126599 0.1740724,-0.266384 0.052749,-0.139785 0.052749,-0.313858 z"
       style="font-size:5.40152px;stroke-width:0.0632991"
       id="path25" />
    <path
       d="m 5.6765203,32.951969 q 0,0.720026 -0.3692445,1.136745 -0.3692445,0.416719 -0.9890478,0.416719 -0.6250782,0 -0.9943228,-0.416719 -0.366607,-0.416719 -0.366607,-1.136745 0,-0.720027 0.366607,-1.136746 0.3692446,-0.419356 0.9943228,-0.419356 0.6198033,0 0.9890478,0.419356 0.3692445,0.416719 0.3692445,1.136746 z m -0.5116674,0 q 0,-0.572329 -0.2241842,-0.849263 -0.2241841,-0.279571 -0.6224407,-0.279571 -0.4035315,0 -0.6277157,0.279571 -0.2215467,0.276934 -0.2215467,0.849263 0,0.553866 0.2241842,0.84135 0.2241841,0.284845 0.6250782,0.284845 0.3956191,0 0.6198033,-0.282208 0.2268216,-0.284846 0.2268216,-0.843987 z"
       style="font-size:5.40152px;stroke-width:0.0632991"
       id="path27" />
    <path
       d="M 10.149654,31.477628 9.3821527,34.423672 H 8.9232345 L 8.1662832,32.152818 7.4146069,34.423672 H 6.9583262 L 6.1829127,31.477628 H 6.699855 l 0.5406795,2.281404 0.7358515,-2.281404 h 0.4088065 l 0.7543138,2.281404 0.5116674,-2.281404 z"
       style="font-size:5.40152px;stroke-width:0.0632991"
       id="path29" />
    <path
       d="m 13.330431,33.00208 h -2.17063 q 0,0.271659 0.08176,0.474743 0.08176,0.200447 0.224184,0.329683 0.137148,0.126598 0.324408,0.189897 0.189897,0.0633 0.416719,0.0633 0.30067,0 0.603978,-0.118686 0.305946,-0.121323 0.435181,-0.237371 h 0.02637 v 0.540679 q -0.250559,0.105499 -0.511667,0.17671 -0.261109,0.07121 -0.548592,0.07121 -0.733214,0 -1.144658,-0.395619 -0.411444,-0.398257 -0.411444,-1.128834 0,-0.722664 0.392981,-1.147295 0.39562,-0.424631 1.03916,-0.424631 0.596066,0 0.917836,0.348145 0.324408,0.348144 0.324408,0.989047 z m -0.482655,-0.379794 q -0.0026,-0.390344 -0.19781,-0.603979 -0.192534,-0.213634 -0.588154,-0.213634 -0.398256,0 -0.635628,0.234734 -0.234734,0.234734 -0.266383,0.582879 z"
       style="font-size:5.40152px;stroke-width:0.0632991"
       id="path31" />
    <path
       d="m 15.920418,32.018307 h -0.02637 q -0.110774,-0.02637 -0.216272,-0.03692 -0.102861,-0.01319 -0.245284,-0.01319 -0.229459,0 -0.443093,0.102861 -0.213635,0.100223 -0.411444,0.261108 v 2.091507 h -0.495843 v -2.946044 h 0.495843 v 0.435181 q 0.295395,-0.237371 0.51958,-0.334958 0.226821,-0.100223 0.461555,-0.100223 0.129236,0 0.18726,0.0079 0.05802,0.0053 0.174072,0.02374 z"
       style="font-size:5.40152px;stroke-width:0.0632991"
       id="path33" />
    <path
       d="m 21.828331,35.386345 q -0.158248,0.03956 -0.313858,0.05539 -0.152973,0.01846 -0.313858,0.01846 -0.458918,0 -0.738489,-0.253196 -0.276933,-0.250559 -0.30067,-0.720027 -0.0633,0.01055 -0.123961,0.01319 -0.05802,0.0053 -0.113411,0.0053 -0.414081,0 -0.754314,-0.137148 -0.337595,-0.137148 -0.574966,-0.398257 -0.237371,-0.261108 -0.366607,-0.640903 -0.126598,-0.379794 -0.126598,-0.867724 0,-0.480018 0.126598,-0.859812 0.126598,-0.382432 0.369244,-0.654091 0.232097,-0.258471 0.574967,-0.395619 0.345507,-0.137148 0.751676,-0.137148 0.421994,0 0.756952,0.139786 0.337595,0.137148 0.572329,0.392981 0.240008,0.263746 0.366607,0.646178 0.129235,0.382432 0.129235,0.867725 0,0.720027 -0.295395,1.213232 -0.292759,0.493205 -0.788601,0.691015 0.01055,0.30067 0.142423,0.46683 0.131873,0.16616 0.480018,0.16616 0.108135,0 0.255833,-0.03429 0.150335,-0.03165 0.213635,-0.05802 h 0.07121 z M 21.20589,32.461401 q 0,-0.764864 -0.34287,-1.178945 -0.34287,-0.416719 -0.936298,-0.416719 -0.598704,0 -0.941574,0.416719 -0.340232,0.414081 -0.340232,1.178945 0,0.772776 0.348145,1.18422 0.348144,0.408806 0.933661,0.408806 0.585516,0 0.931023,-0.408806 0.348145,-0.411444 0.348145,-1.18422 z"
       style="font-size:5.40152px;stroke-width:0.0632991"
       id="path35" />
    <path
       d="m 24.980097,34.423672 h -0.495843 v -0.327045 q -0.250559,0.197809 -0.480018,0.303308 -0.229459,0.105498 -0.506392,0.105498 -0.464193,0 -0.722665,-0.282208 -0.258471,-0.284846 -0.258471,-0.833438 v -1.912159 h 0.495843 v 1.677425 q 0,0.224184 0.0211,0.385069 0.0211,0.158248 0.08967,0.271659 0.07121,0.116048 0.184623,0.168797 0.11341,0.05275 0.329682,0.05275 0.192535,0 0.419356,-0.100224 0.22946,-0.100224 0.427269,-0.255834 v -2.199642 h 0.495843 z"
       style="font-size:5.40152px;stroke-width:0.0632991"
       id="path37" />
    <path
       d="m 28.421982,33.00208 h -2.17063 q 0,0.271659 0.08176,0.474743 0.08176,0.200447 0.224184,0.329683 0.137148,0.126598 0.324408,0.189897 0.189897,0.0633 0.416719,0.0633 0.30067,0 0.603978,-0.118686 0.305946,-0.121323 0.435181,-0.237371 h 0.02638 v 0.540679 q -0.250559,0.105499 -0.511668,0.17671 -0.261108,0.07121 -0.548591,0.07121 -0.733215,0 -1.144658,-0.395619 -0.411444,-0.398257 -0.411444,-1.128834 0,-0.722664 0.392981,-1.147295 0.395619,-0.424631 1.03916,-0.424631 0.596066,0 0.917836,0.348145 0.324408,0.348144 0.324408,0.989047 z m -0.482655,-0.379794 q -0.0026,-0.390344 -0.19781,-0.603979 -0.192535,-0.213634 -0.588154,-0.213634 -0.398256,0 -0.635628,0.234734 -0.234734,0.234734 -0.266383,0.582879 z"
       style="font-size:5.40152px;stroke-width:0.0632991"
       id="path39" />
    <path
       d="m 31.011969,32.018307 h -0.02637 q -0.110774,-0.02637 -0.216272,-0.03692 -0.102861,-0.01319 -0.245284,-0.01319 -0.229459,0 -0.443094,0.102861 -0.213634,0.100223 -0.411443,0.261108 v 2.091507 h -0.495843 v -2.946044 h 0.495843 v 0.435181 q 0.295395,-0.237371 0.519579,-0.334958 0.226822,-0.100223 0.461556,-0.100223 0.129236,0 0.18726,0.0079 0.05802,0.0053 0.174072,0.02374 z"
       style="font-size:5.40152px;stroke-width:0.0632991"
       id="path41" />
    <path
       d="m 34.026588,31.477628 -1.719625,4.032678 h -0.53013 l 0.548592,-1.229057 -1.17367,-2.803621 h 0.538042 l 0.904649,2.183818 0.912562,-2.183818 z"
       style="font-size:5.40152px;stroke-width:0.0632991"
       id="path43" />
  </g>
</svg>
