<?xml version="1.0" encoding="utf-8"?>
<!-- Generator: Adobe Illustrator 25.0.1, SVG Export Plug-In . SVG Version: 6.00 Build 0)  -->
<svg version="1.1" id="Layer_1" xmlns="http://www.w3.org/2000/svg" xmlns:xlink="http://www.w3.org/1999/xlink" x="0px" y="0px"
	 width="1912px" height="618.188px" viewBox="0 0 1912 618.188" enable-background="new 0 0 1912 618.188" xml:space="preserve">
<g>
	<rect x="101.914" y="214.594" fill="#8017E1" width="55.266" height="325.031"/>
	<rect x="1526.164" y="96.469" fill="#8017E1" width="55.266" height="330.258"/>
	<rect x="1016.75" y="214.594" fill="#8017E1" width="55.266" height="211.969"/>
	<path fill="#8017E1" d="M541.995,210.657v54.98c0,0-33.46-7.54-55.4,6.43c-25.33,16.13-26.6,41.43-26.6,56.43v98.23h-55.27v-212.13
		h55.27v21.65c0,0,16.73-21.73,44.22-24.75C521.285,209.628,541.995,210.657,541.995,210.657z"/>
	<path fill="#8017E1" d="M267.655,210.167c-61.59,0-111.53,49.93-111.53,111.52c0,61.6,49.94,111.53,111.53,111.53
		s111.53-49.93,111.53-111.53C379.185,260.097,329.245,210.167,267.655,210.167z M267.655,377.547c-30.98,0-56.09-25.01-56.09-55.86
		c0-30.85,25.11-55.86,56.09-55.86c30.98,0,56.1,25.01,56.1,55.86C323.755,352.537,298.635,377.547,267.655,377.547z"/>
	<path fill="#8017E1" d="M944.015,352.708c-10.33,16.3-28.58,27.12-49.36,27.12c-32.22,0-58.33-26-58.33-58.08
		c0-32.07,26.11-58.08,58.33-58.08c19.74,0,37.2,9.77,47.75,24.72l47.52-27.37c-20.17-30.61-55.17-50.85-94.96-50.85
		c-62.48,0-113.15,49.93-113.15,111.52c0,61.6,50.67,111.53,113.15,111.53c40.54,0,76.1-21.01,96.07-52.59L944.015,352.708z"/>
	<path fill="#8017E1" d="M656.345,210.167c-65.69,0-111.53,49.93-111.53,111.52c0,61.6,47.53,111.53,111.53,111.53
		c42.4,0,73.28-16.99,91.65-43.38l-37.47-30.02c-11.67,14.72-29.93,24.18-50.45,24.18c-32.73,0-54.69-18.78-61.52-44.53h162.26
		c0.66-5.05,1.03-10.21,1.1-15.46c0.02-0.77,0.03-1.54,0.03-2.32C761.945,260.097,716.375,210.167,656.345,210.167z
		 M600.905,298.688c8.78-21.83,29.11-38.25,52.79-38.25c29.45,0,46.94,16.42,53.91,38.25H600.905z"/>
	<path fill="#8017E1" d="M1395.189,210.167c-65.69,0-111.53,49.93-111.53,111.52c0,61.6,47.53,111.53,111.53,111.53
		c42.4,0,73.28-16.99,91.65-43.38l-37.47-30.02c-11.67,14.72-29.93,24.18-50.45,24.18c-32.73,0-54.69-18.78-61.52-44.53h162.26
		c0.66-5.05,1.03-10.21,1.1-15.46c0.02-0.77,0.03-1.54,0.03-2.32C1500.789,260.097,1455.219,210.167,1395.189,210.167z
		 M1339.749,298.688c8.78-21.83,29.11-38.25,52.79-38.25c29.45,0,46.94,16.42,53.91,38.25H1339.749z"/>
	<circle fill="#8017E1" cx="1044.383" cy="144.562" r="35.496"/>
	<polygon fill="#8017E1" points="1607.375,214.594 1668.406,214.594 1721.281,361.547 1774.859,214.594 1828.578,214.594 
		1710.5,539.625 1656.875,539.625 1695.688,432.281 	"/>
	<path fill="#8017E1" d="M1255.812,237.234l-28.828,39.656c0,0-20.111-16.775-49.078-16.453
		c-25.312,0.281-26.982,20.733-5.625,29.391c29.719,12.047,91.125,16.922,91.125,75.516c0,56.812-50.625,67.874-83.812,67.874
		c-49.781,0-82.031-30.28-82.031-30.28l29.719-42.281c0,0,17.016,17.766,48.375,21.703c41.264,5.181,46.688-24.609,17.156-33.047
		s-91.406-17.719-88.734-70.594c2.766-54.743,43.031-68.062,75.609-68.062C1229.703,210.656,1255.812,237.234,1255.812,237.234z"/>
</g>
</svg>
