<?xml version="1.0" encoding="UTF-8" standalone="no"?>
<svg
   xmlns:dc="http://purl.org/dc/elements/1.1/"
   xmlns:cc="http://creativecommons.org/ns#"
   xmlns:rdf="http://www.w3.org/1999/02/22-rdf-syntax-ns#"
   xmlns:svg="http://www.w3.org/2000/svg"
   xmlns="http://www.w3.org/2000/svg"
   xmlns:sodipodi="http://sodipodi.sourceforge.net/DTD/sodipodi-0.dtd"
   xmlns:inkscape="http://www.inkscape.org/namespaces/inkscape"
   width="210mm"
   height="297mm"
   viewBox="0 0 210 297"
   version="1.1"
   id="svg162"
   inkscape:version="1.0.1 (3bc2e813f5, 2020-09-07)"
   sodipodi:docname="privacera.svg">
  <defs
     id="defs156" />
  <sodipodi:namedview
     id="base"
     pagecolor="#ffffff"
     bordercolor="#666666"
     borderopacity="1.0"
     inkscape:pageopacity="0.0"
     inkscape:pageshadow="2"
     inkscape:zoom="0.7"
     inkscape:cx="586.6566"
     inkscape:cy="594.10235"
     inkscape:document-units="mm"
     inkscape:current-layer="layer1"
     inkscape:document-rotation="0"
     showgrid="false"
     inkscape:window-width="1267"
     inkscape:window-height="1040"
     inkscape:window-x="52"
     inkscape:window-y="0"
     inkscape:window-maximized="0" />
  <metadata
     id="metadata159">
    <rdf:RDF>
      <cc:Work
         rdf:about="">
        <dc:format>image/svg+xml</dc:format>
        <dc:type
           rdf:resource="http://purl.org/dc/dcmitype/StillImage" />
        <dc:title></dc:title>
      </cc:Work>
    </rdf:RDF>
  </metadata>
  <g
     inkscape:label="Layer 1"
     inkscape:groupmode="layer"
     id="layer1">
    <path
       d="m 179.17575,92.792719 c 0,41.238681 -34.80932,74.671081 -77.75283,74.671081 -42.94341,0 -77.752339,-33.4324 -77.752339,-74.671081 0,-41.237459 34.808929,-74.670203 77.752339,-74.670203 42.94351,0 77.75283,33.432744 77.75283,74.670203 z"
       stroke="#9bbbe4"
       stroke-width="2.45475"
       id="path32"
       style="fill:#ffffff" />
    <path
       fill-rule="evenodd"
       clip-rule="evenodd"
       d="m 116.82184,85.520889 c -2.8019,-5.36895 -8.59118,-9.046865 -15.27135,-9.046865 -9.42624,0 -17.07735,7.336355 -17.07735,16.395395 0,9.059041 7.65111,16.400261 17.07735,16.400261 6.68017,0 12.46945,-3.68278 15.27135,-9.04686 l 3.96469,1.01048 10.01383,2.54812 15.42596,3.93237 c 1.61444,-4.56788 2.48639,-9.469331 2.48639,-14.571661 0,-5.28008 -0.93386,-10.3532 -2.66571,-15.06959 l -15.44447,3.93236 -9.816,2.50673 z"
       fill="#00a0f0"
       id="path34"
       style="stroke-width:1.24128" />
    <path
       fill-rule="evenodd"
       clip-rule="evenodd"
       d="m 101.5578,47.57907 c -26.04589,0 -47.162181,20.27419 -47.162181,45.293999 0,25.013731 21.116291,45.292791 47.162181,45.292791 15.426,0 29.12006,-7.10382 37.72376,-18.09983 l -12.11686,-3.08867 -5.19565,-1.32458 c -5.57905,4.60439 -12.77859,7.27061 -20.41125,7.27061 -17.27524,0 -31.29083,-13.46013 -31.29083,-30.050321 0,-16.591406 14.01559,-30.051529 31.29083,-30.051529 7.63266,0 14.8322,2.667433 20.41125,7.27061 l 17.31251,-4.413256 C 130.67786,54.682888 116.9838,47.57907 101.5578,47.57907 Z"
       fill="#172538"
       id="path36"
       style="stroke-width:1.24128" />
    <g
       aria-label="Privacera"
       id="text340"
       style="font-style:normal;font-weight:normal;font-size:25.4px;line-height:1.25;font-family:sans-serif;fill:#000000;fill-opacity:1;stroke:none;stroke-width:0.264583">
      <path
         d="m 58.783565,185.1735 q 0,1.22784 -0.434082,2.28204 -0.42168,1.04179 -1.190625,1.81074 -0.954981,0.95498 -2.257227,1.43867 -1.302246,0.47129 -3.286621,0.47129 h -2.455664 v 6.8833 h -2.455664 v -18.46709 h 5.010547 q 1.661914,0 2.815332,0.28525 1.153418,0.27286 2.046386,0.86817 1.0542,0.70693 1.624707,1.76113 0.582911,1.0542 0.582911,2.6665 z m -2.554883,0.062 q 0,-0.95498 -0.334864,-1.66192 -0.334863,-0.70693 -1.016992,-1.15342 -0.595312,-0.38447 -1.364257,-0.5457 -0.756543,-0.17363 -1.922364,-0.17363 h -2.430859 v 7.37939 h 2.071191 q 1.488282,0 2.418457,-0.26045 0.930176,-0.27285 1.513086,-0.85576 0.58291,-0.59531 0.818555,-1.25263 0.248047,-0.65733 0.248047,-1.47588 z"
         style="font-size:25.4px;stroke-width:0.264583"
         id="path342" />
      <path
         d="m 70.478975,186.7486 h -0.124024 q -0.520898,-0.12402 -1.016992,-0.17363 -0.483691,-0.062 -1.153418,-0.062 -1.079004,0 -2.083594,0.48369 -1.004589,0.47129 -1.934765,1.22783 v 9.83506 h -2.331641 v -13.85342 h 2.331641 v 2.04639 q 1.389062,-1.11621 2.443262,-1.5751 1.066601,-0.47129 2.17041,-0.47129 0.607715,0 0.880566,0.0372 0.272852,0.0248 0.818555,0.11162 z"
         style="font-size:25.4px;stroke-width:0.264583"
         id="path344" />
      <path
         d="m 75.179464,181.88688 h -2.629297 v -2.41845 h 2.629297 z m -0.148828,16.17266 h -2.331641 v -13.85342 h 2.331641 z"
         style="font-size:25.4px;stroke-width:0.264583"
         id="path346" />
      <path
         d="m 91.62497,184.20612 -5.605859,13.85342 h -2.344043 l -5.568652,-13.85342 h 2.530078 l 4.291211,11.02569 4.254003,-11.02569 z"
         style="font-size:25.4px;stroke-width:0.264583"
         id="path348" />
      <path
         d="m 104.94509,198.05954 h -2.31924 v -1.47588 q -0.31006,0.21084 -0.84336,0.59531 -0.5209,0.37207 -1.01699,0.59532 -0.58291,0.28525 -1.339457,0.47128 -0.756543,0.19844 -1.773535,0.19844 -1.872754,0 -3.175,-1.24023 -1.302246,-1.24024 -1.302246,-3.1626 0,-1.5751 0.669726,-2.54248 0.682129,-0.97979 1.934766,-1.53789 1.265039,-0.55811 3.038574,-0.75654 1.773532,-0.19844 3.807522,-0.29766 v -0.35967 q 0,-0.79375 -0.28526,-1.31465 -0.27285,-0.52089 -0.79375,-0.81855 -0.49609,-0.28525 -1.19062,-0.38447 -0.694533,-0.0992 -1.451076,-0.0992 -0.917773,0 -2.046386,0.24804 -1.128614,0.23565 -2.331641,0.69454 h -0.124023 v -2.36885 q 0.682129,-0.18604 1.971972,-0.40928 1.289844,-0.22324 2.542481,-0.22324 1.463473,0 2.542483,0.24805 1.0914,0.23564 1.88515,0.81855 0.78135,0.57051 1.19063,1.47588 0.40928,0.90537 0.40928,2.24482 z m -2.31924,-3.41064 v -3.85713 q -1.0666,0.062 -2.51768,0.18603 -1.43867,0.12403 -2.282029,0.35967 -1.00459,0.28525 -1.624708,0.89297 -0.620117,0.59531 -0.620117,1.64951 0,1.19062 0.719336,1.79834 0.719336,0.59531 2.195215,0.59531 1.227832,0 2.244823,-0.47129 1.01699,-0.48369 1.88516,-1.15341 z"
         style="font-size:25.4px;stroke-width:0.264583"
         id="path350" />
      <path
         d="m 119.67907,197.19138 q -1.16582,0.5581 -2.22002,0.86816 -1.0418,0.31006 -2.22002,0.31006 -1.50068,0 -2.75332,-0.43408 -1.25264,-0.44649 -2.1456,-1.33946 -0.90538,-0.89297 -1.40147,-2.25722 -0.49609,-1.36426 -0.49609,-3.18741 0,-3.39824 1.86035,-5.333 1.87275,-1.93477 4.93613,-1.93477 1.19063,0 2.33164,0.33486 1.15342,0.33487 2.1084,0.81856 v 2.59209 h -0.12402 q -1.0666,-0.83096 -2.20762,-1.27744 -1.12861,-0.44649 -2.20762,-0.44649 -1.98437,0 -3.13779,1.33946 -1.14102,1.32705 -1.14102,3.90673 0,2.50528 1.11621,3.85713 1.12862,1.33946 3.1626,1.33946 0.70694,0 1.43867,-0.18604 0.73174,-0.18603 1.31465,-0.48369 0.5085,-0.26045 0.95498,-0.5457 0.44649,-0.29766 0.70694,-0.5085 h 0.12402 z"
         style="font-size:25.4px;stroke-width:0.264583"
         id="path352" />
      <path
         d="M 134.26423,191.37468 H 124.0571 q 0,1.27744 0.38447,2.23242 0.38448,0.94258 1.0542,1.55029 0.64492,0.59531 1.52549,0.89297 0.89297,0.29766 1.95957,0.29766 1.41387,0 2.84014,-0.55811 1.43867,-0.57051 2.04638,-1.11621 h 0.12403 v 2.54248 q -1.17823,0.49609 -2.40606,0.83096 -1.22783,0.33486 -2.57969,0.33486 -3.44785,0 -5.38261,-1.86035 -1.93477,-1.87275 -1.93477,-5.3082 0,-3.39825 1.84795,-5.39502 1.86035,-1.99678 4.88652,-1.99678 2.80293,0 4.31602,1.63711 1.52549,1.63711 1.52549,4.65088 z m -2.26963,-1.78594 q -0.0124,-1.83555 -0.93018,-2.84014 -0.90537,-1.00459 -2.76572,-1.00459 -1.87275,0 -2.98896,1.10381 -1.10381,1.10381 -1.25264,2.74092 z"
         style="font-size:25.4px;stroke-width:0.264583"
         id="path354" />
      <path
         d="m 146.44333,186.7486 h -0.12402 q -0.5209,-0.12402 -1.017,-0.17363 -0.48369,-0.062 -1.15341,-0.062 -1.07901,0 -2.0836,0.48369 -1.00459,0.47129 -1.93476,1.22783 v 9.83506 h -2.33164 v -13.85342 h 2.33164 v 2.04639 q 1.38906,-1.11621 2.44326,-1.5751 1.0666,-0.47129 2.17041,-0.47129 0.60771,0 0.88057,0.0372 0.27285,0.0248 0.81855,0.11162 z"
         style="font-size:25.4px;stroke-width:0.264583"
         id="path356" />
      <path
         d="m 158.9573,198.05954 h -2.31924 v -1.47588 q -0.31006,0.21084 -0.84336,0.59531 -0.5209,0.37207 -1.01699,0.59532 -0.58291,0.28525 -1.33946,0.47128 -0.75654,0.19844 -1.77353,0.19844 -1.87276,0 -3.175,-1.24023 -1.30225,-1.24024 -1.30225,-3.1626 0,-1.5751 0.66973,-2.54248 0.68213,-0.97979 1.93476,-1.53789 1.26504,-0.55811 3.03858,-0.75654 1.77353,-0.19844 3.80752,-0.29766 v -0.35967 q 0,-0.79375 -0.28526,-1.31465 -0.27285,-0.52089 -0.79375,-0.81855 -0.49609,-0.28525 -1.19062,-0.38447 -0.69453,-0.0992 -1.45107,-0.0992 -0.91778,0 -2.04639,0.24804 -1.12861,0.23565 -2.33164,0.69454 h -0.12403 v -2.36885 q 0.68213,-0.18604 1.97198,-0.40928 1.28984,-0.22324 2.54248,-0.22324 1.46347,0 2.54248,0.24805 1.0914,0.23564 1.88515,0.81855 0.78135,0.57051 1.19063,1.47588 0.40928,0.90537 0.40928,2.24482 z m -2.31924,-3.41064 v -3.85713 q -1.0666,0.062 -2.51768,0.18603 -1.43867,0.12403 -2.28203,0.35967 -1.00459,0.28525 -1.62471,0.89297 -0.62011,0.59531 -0.62011,1.64951 0,1.19062 0.71933,1.79834 0.71934,0.59531 2.19522,0.59531 1.22783,0 2.24482,-0.47129 1.01699,-0.48369 1.88516,-1.15341 z"
         style="font-size:25.4px;stroke-width:0.264583"
         id="path358" />
    </g>
  </g>
</svg>
