<?xml version="1.0" encoding="UTF-8" standalone="no"?>
<svg
   xmlns:dc="http://purl.org/dc/elements/1.1/"
   xmlns:cc="http://creativecommons.org/ns#"
   xmlns:rdf="http://www.w3.org/1999/02/22-rdf-syntax-ns#"
   xmlns:svg="http://www.w3.org/2000/svg"
   xmlns="http://www.w3.org/2000/svg"
   xmlns:sodipodi="http://sodipodi.sourceforge.net/DTD/sodipodi-0.dtd"
   xmlns:inkscape="http://www.inkscape.org/namespaces/inkscape"
   version="1.1"
   id="Layer_1"
   x="0px"
   y="0px"
   width="1035"
   height="500"
   viewBox="0 0 1035 500"
   enable-background="new 0 0 1035 325"
   xml:space="preserve"
   sodipodi:docname="qlik-compose.svg"
   inkscape:version="1.0.1 (3bc2e813f5, 2020-09-07)"><metadata
   id="metadata17"><rdf:RDF><cc:Work
       rdf:about=""><dc:format>image/svg+xml</dc:format><dc:type
         rdf:resource="http://purl.org/dc/dcmitype/StillImage" /><dc:title /></cc:Work></rdf:RDF></metadata><defs
   id="defs15" /><sodipodi:namedview
   pagecolor="#ffffff"
   bordercolor="#666666"
   borderopacity="1"
   objecttolerance="10"
   gridtolerance="10"
   guidetolerance="10"
   inkscape:pageopacity="0"
   inkscape:pageshadow="2"
   inkscape:window-width="1920"
   inkscape:window-height="1017"
   id="namedview13"
   showgrid="false"
   inkscape:zoom="1.0067633"
   inkscape:cx="517.5"
   inkscape:cy="162.5"
   inkscape:window-x="-8"
   inkscape:window-y="-8"
   inkscape:window-maximized="1"
   inkscape:current-layer="Layer_1"
   inkscape:document-rotation="0" />
<g
   id="g10">
	<path
   fill="#606163"
   d="m 187.325,157.728 c 0,37.561 -30.445,68.02 -68.006,68.02 -37.568,0 -68.016,-30.459 -68.016,-68.02 0,-37.563 30.448,-68.023 68.016,-68.023 37.561,0 68.006,30.459 68.006,68.023 m 58.655,100.234 c 0,0 4.485,-5.171 -0.674,-9.675 l -28.351,-24.636 c 12.749,-18.805 20.176,-41.499 20.176,-65.924 0,-65.069 -52.74,-117.831 -117.813,-117.831 -65.07,0 -117.82,52.761 -117.82,117.831 0,65.07 52.75,117.828 117.82,117.828 23.818,0 45.938,-7.136 64.463,-19.288 l 31.084,27.023 c 0,0 5.186,4.502 9.691,-0.681 z m 79.404,9.439 V 48.03 c 0,-8.037 -8.019,-8.037 -8.019,-8.037 h -35.321 c -8.026,0 -8.026,8.037 -8.026,8.037 v 219.372 c 0,8.028 8.026,8.028 8.026,8.028 h 35.321 c 8.019,0 8.019,-8.029 8.019,-8.029 M 412.111,70.296 v -22.67 c 0,0 0,-7.729 -7.731,-7.729 h -33.94 c 0,0 -7.705,0 -7.705,7.729 v 22.67 c 0,0 0,7.718 7.705,7.718 h 33.94 c 0,0 7.731,0 7.731,-7.718 m 1.31,197.105 V 109.043 c 0,-8.012 -8.021,-8.012 -8.021,-8.012 h -34.652 c -8.012,0 -8.012,8.012 -8.012,8.012 v 158.358 c 0,8.028 8.012,8.028 8.012,8.028 H 405.4 c 8.021,0.001 8.021,-8.028 8.021,-8.028 M 561.968,170.26 c -4.165,-6.864 1.422,-12.64 1.422,-12.64 l 48.847,-50.496 c 5.575,-5.764 -2.431,-5.764 -2.431,-5.764 h -45.633 c -8.028,0 -13.543,5.834 -13.543,5.834 l -45.333,48.019 c -5.5,5.834 -5.5,-2.178 -5.5,-2.178 V 48.03 c 0,-8.037 -8.039,-8.037 -8.039,-8.037 h -34.602 c -7.721,0 -7.721,7.729 -7.721,7.729 v 219.68 c 0,8.028 8.012,8.028 8.012,8.028 h 34.3 c 7.706,0 7.706,-7.723 7.706,-7.723 v -38.603 c 0,-8.016 5.846,-13.516 5.846,-13.516 l 16.156,-15.188 40.583,68.14 c 4.103,6.89 12.142,6.89 12.142,6.89 h 43.288 c 8.028,0 3.878,-6.866 3.878,-6.866 z"
   id="path2" />
	<path
   fill="#61a730"
   d="m 930.301,156.15 c 0,52.123 -42.245,94.39 -94.365,94.39 -52.135,0 -94.388,-42.267 -94.388,-94.401 0,-52.111 42.253,-94.377 94.388,-94.377 52.12,-10e-4 94.365,42.265 94.365,94.388 m 78.515,117.984 -42.994,-36.069 c 14.99,-23.708 23.715,-51.787 23.715,-81.914 0,-84.835 -68.767,-153.602 -153.602,-153.602 -84.834,0 -153.612,68.767 -153.612,153.59 0,84.824 68.778,153.614 153.612,153.614 32.901,0 63.371,-10.374 88.39,-28.007 l 45.828,38.454 c 0,0 6.816,5.723 12.52,-1.08 l 27.234,-32.45 c 0,0 5.712,-6.819 -1.091,-12.536"
   id="path4" />
	<path
   fill="#606163"
   d="m 775.434,156.139 c 0,-33.413 27.066,-60.491 60.491,-60.491 33.413,0 60.49,27.078 60.49,60.514 0,33.415 -27.077,60.493 -60.49,60.481 -33.425,0 -60.491,-27.067 -60.491,-60.504"
   id="path6" />
	<path
   fill="#606163"
   d="m 1015.384,51.017 h 4.076 c 2.351,0 4.009,-0.519 4.009,-3.259 0,-2.337 -1.777,-3.237 -4.009,-3.237 h -4.076 z m 0,9.725 h -1.971 V 42.789 h 6.526 c 3.08,0 5.499,1.578 5.499,4.969 0,2.833 -1.544,4.72 -4.256,5.002 l 5.052,7.981 h -2.455 l -4.768,-7.981 h -3.628 v 7.982 z m 3.392,-21.699 c -6.947,0 -12.353,5.679 -12.353,12.768 0,7.128 5.298,12.749 12.353,12.749 7.055,0 12.353,-5.621 12.353,-12.749 0,-7.089 -5.298,-12.768 -12.353,-12.768 m -14.713,12.768 c 0,-8.144 6.651,-14.723 14.714,-14.723 8.156,0 14.725,6.651 14.725,14.723 0,8.063 -6.568,14.714 -14.725,14.714 -8.063,0 -14.714,-6.651 -14.714,-14.714"
   id="path8" />
</g>
<g
   aria-label="Compose"
   id="text27"
   style="font-size:13.3333px;line-height:1.25;font-family:sans-serif"><path
     d="m 362.10265,407.28128 q -2.00521,0.875 -3.64583,1.64062 -1.60417,0.76563 -4.22917,1.60417 -2.22396,0.69271 -4.84896,1.16667 -2.58854,0.51042 -5.72396,0.51042 -5.90625,0 -10.75521,-1.64063 -4.81251,-1.67708 -8.38543,-5.21354 -3.5,-3.46355 -5.46875,-8.78647 -1.96875,-5.35937 -1.96875,-12.43229 0,-6.70834 1.89584,-11.9948 1.89583,-5.28646 5.46875,-8.9323 3.46354,-3.53646 8.34896,-5.39583 4.92188,-1.85938 10.90105,-1.85938 4.375,0 8.71354,1.05729 4.375,1.0573 9.69792,3.71875 v 8.56772 h -0.54687 q -4.48438,-3.75521 -8.89584,-5.46876 -4.41146,-1.71354 -9.44271,-1.71354 -4.1198,0 -7.43751,1.34896 -3.28125,1.3125 -5.86979,4.11979 -2.51563,2.73438 -3.9375,6.92709 -1.38542,4.15625 -1.38542,9.62501 0,5.72396 1.53125,9.84375 1.56771,4.11979 4.01042,6.70834 2.55209,2.69792 5.94271,4.01042 3.42709,1.27604 7.21876,1.27604 5.21354,0 9.77083,-1.78646 4.5573,-1.78646 8.53126,-5.35938 h 0.51041 z"
     style="font-size:74.6667px"
     id="path29" /><path
     d="m 406.47247,390.87502 q 0,9.95313 -5.10417,15.71355 -5.10417,5.76042 -13.67188,5.76042 -8.64063,0 -13.7448,-5.76042 -5.06771,-5.76042 -5.06771,-15.71355 0,-9.95313 5.06771,-15.71355 5.10417,-5.79688 13.7448,-5.79688 8.56771,0 13.67188,5.79688 5.10417,5.76042 5.10417,15.71355 z m -7.07292,0 q 0,-7.91146 -3.09896,-11.73959 -3.09896,-3.86458 -8.60417,-3.86458 -5.57813,0 -8.67709,3.86458 -3.0625,3.82813 -3.0625,11.73959 0,7.65625 3.09896,11.63021 3.09896,3.93751 8.64063,3.93751 5.46875,0 8.56771,-3.90105 3.13542,-3.9375 3.13542,-11.66667 z"
     style="font-size:74.6667px"
     id="path31" /><path
     d="m 476.50896,411.21878 h -6.85417 v -23.18751 q 0,-2.625 -0.25521,-5.06771 -0.21875,-2.44271 -0.98438,-3.90104 -0.83854,-1.56771 -2.40625,-2.3698 -1.56771,-0.80208 -4.52083,-0.80208 -2.88021,0 -5.76042,1.45833 -2.88021,1.42188 -5.76042,3.64584 0.10937,0.83854 0.18229,1.96875 0.0729,1.09375 0.0729,2.1875 v 26.06772 h -6.85417 v -23.18751 q 0,-2.69792 -0.25521,-5.10417 -0.21875,-2.44271 -0.98438,-3.90104 -0.83854,-1.56771 -2.40625,-2.33334 -1.56771,-0.80208 -4.52083,-0.80208 -2.8073,0 -5.65105,1.38542 -2.80729,1.38541 -5.61458,3.53646 v 30.40626 h -6.85417 V 370.4948 h 6.85417 v 4.52084 q 3.20833,-2.66146 6.38021,-4.15625 3.20833,-1.4948 6.81771,-1.4948 4.15625,0 7.03646,1.75 2.91667,1.75001 4.33854,4.84897 4.15626,-3.50001 7.58334,-5.03126 3.42709,-1.56771 7.32813,-1.56771 6.70834,0 9.88021,4.08334 3.20834,4.04688 3.20834,11.33855 z"
     style="font-size:74.6667px"
     id="path33" /><path
     d="m 525.54545,390.3646 q 0,4.95834 -1.42187,9.07813 -1.42188,4.08334 -4.01042,6.92709 -2.40625,2.69792 -5.68751,4.19271 -3.24479,1.45833 -6.89062,1.45833 -3.17188,0 -5.76042,-0.6927 -2.55209,-0.69271 -5.21355,-2.15105 v 17.06251 h -6.85417 V 370.4948 h 6.85417 v 4.26563 q 2.73438,-2.29688 6.125,-3.82813 3.42709,-1.56771 7.29168,-1.56771 7.36458,0 11.44792,5.57813 4.11979,5.54167 4.11979,15.42188 z m -7.07292,0.1823 q 0,-7.36459 -2.51563,-11.01043 -2.51562,-3.64583 -7.72917,-3.64583 -2.95312,0 -5.94271,1.27604 -2.98958,1.27604 -5.72396,3.35417 v 23.07814 q 2.91667,1.3125 4.9948,1.78645 2.11458,0.47396 4.77604,0.47396 5.72396,0 8.9323,-3.86458 3.20833,-3.86459 3.20833,-11.44792 z"
     style="font-size:74.6667px"
     id="path35" /><path
     d="m 570.93609,390.87502 q 0,9.95313 -5.10417,15.71355 -5.10417,5.76042 -13.67189,5.76042 -8.64062,0 -13.74479,-5.76042 -5.06771,-5.76042 -5.06771,-15.71355 0,-9.95313 5.06771,-15.71355 5.10417,-5.79688 13.74479,-5.79688 8.56772,0 13.67189,5.79688 5.10417,5.76042 5.10417,15.71355 z m -7.07292,0 q 0,-7.91146 -3.09896,-11.73959 -3.09896,-3.86458 -8.60418,-3.86458 -5.57812,0 -8.67708,3.86458 -3.0625,3.82813 -3.0625,11.73959 0,7.65625 3.09896,11.63021 3.09896,3.93751 8.64062,3.93751 5.46876,0 8.56772,-3.90105 3.13542,-3.9375 3.13542,-11.66667 z"
     style="font-size:74.6667px"
     id="path37" /><path
     d="m 610.63925,399.47919 q 0,5.57813 -4.63021,9.15105 -4.59375,3.57292 -12.57813,3.57292 -4.52084,0 -8.31251,-1.0573 -3.75521,-1.09375 -6.30729,-2.36979 v -7.69271 h 0.36458 q 3.24479,2.44271 7.21876,3.90104 3.97396,1.42188 7.61979,1.42188 4.52084,0 7.07292,-1.45834 2.55209,-1.45833 2.55209,-4.59375 0,-2.40625 -1.38542,-3.64583 -1.38542,-1.23959 -5.32292,-2.11459 -1.45834,-0.32812 -3.82813,-0.76562 -2.33333,-0.4375 -4.26563,-0.94792 -5.35937,-1.42188 -7.61979,-4.15625 -2.22396,-2.77084 -2.22396,-6.78126 0,-2.51562 1.02083,-4.73958 1.0573,-2.22396 3.17188,-3.97396 2.04167,-1.71354 5.17709,-2.69792 3.17187,-1.02083 7.07292,-1.02083 3.64583,0 7.36458,0.91146 3.75521,0.875 6.23438,2.15104 v 7.32813 h -0.36458 q -2.625,-1.9323 -6.38021,-3.2448 -3.75521,-1.34895 -7.36459,-1.34895 -3.75521,0 -6.34375,1.45833 -2.58855,1.42187 -2.58855,4.26563 0,2.51562 1.56771,3.79166 1.53125,1.27605 4.95834,2.07813 1.89583,0.4375 4.22917,0.875 2.36979,0.4375 3.9375,0.80208 4.77604,1.09376 7.36459,3.75521 2.58854,2.69792 2.58854,7.14584 z"
     style="font-size:74.6667px"
     id="path39" /><path
     d="m 654.5351,391.56773 h -30.00522 q 0,3.75521 1.13021,6.5625 1.13021,2.77084 3.09896,4.5573 1.89583,1.75 4.48438,2.625 2.625,0.875 5.76042,0.875 4.15625,0 8.34896,-1.64063 4.22917,-1.67708 6.01563,-3.28125 h 0.36458 v 7.47396 q -3.46354,1.45834 -7.07292,2.44271 -3.60938,0.98438 -7.58334,0.98438 -10.13542,0 -15.82292,-5.46875 -5.6875,-5.50522 -5.6875,-15.60418 0,-9.98959 5.43229,-15.85938 5.46875,-5.8698 14.36459,-5.8698 8.23959,0 12.68751,4.81251 4.48437,4.8125 4.48437,13.67188 z m -6.67187,-5.25 q -0.0365,-5.39584 -2.73438,-8.34897 -2.66146,-2.95312 -8.13021,-2.95312 -5.50521,0 -8.78646,3.24479 -3.2448,3.24479 -3.6823,8.0573 z"
     style="font-size:74.6667px"
     id="path41" /></g></svg>
