<?xml version="1.0" encoding="UTF-8" standalone="no"?>
<svg
   xmlns:dc="http://purl.org/dc/elements/1.1/"
   xmlns:cc="http://creativecommons.org/ns#"
   xmlns:rdf="http://www.w3.org/1999/02/22-rdf-syntax-ns#"
   xmlns:svg="http://www.w3.org/2000/svg"
   xmlns="http://www.w3.org/2000/svg"
   xmlns:sodipodi="http://sodipodi.sourceforge.net/DTD/sodipodi-0.dtd"
   xmlns:inkscape="http://www.inkscape.org/namespaces/inkscape"
   version="1.1"
   id="Layer_1"
   x="0px"
   y="0px"
   width="1035"
   height="500"
   viewBox="0 0 1035 500"
   enable-background="new 0 0 1035 325"
   xml:space="preserve"
   sodipodi:docname="qlik-replicate.svg"
   inkscape:version="1.0.1 (3bc2e813f5, 2020-09-07)"><metadata
   id="metadata17"><rdf:RDF><cc:Work
       rdf:about=""><dc:format>image/svg+xml</dc:format><dc:type
         rdf:resource="http://purl.org/dc/dcmitype/StillImage" /><dc:title></dc:title></cc:Work></rdf:RDF></metadata><defs
   id="defs15" /><sodipodi:namedview
   pagecolor="#ffffff"
   bordercolor="#666666"
   borderopacity="1"
   objecttolerance="10"
   gridtolerance="10"
   guidetolerance="10"
   inkscape:pageopacity="0"
   inkscape:pageshadow="2"
   inkscape:window-width="1920"
   inkscape:window-height="1017"
   id="namedview13"
   showgrid="false"
   inkscape:zoom="1.0067633"
   inkscape:cx="517.5"
   inkscape:cy="162.5"
   inkscape:window-x="-8"
   inkscape:window-y="-8"
   inkscape:window-maximized="1"
   inkscape:current-layer="Layer_1" />
<g
   id="g10">
	<path
   fill="#606163"
   d="m 187.325,157.728 c 0,37.561 -30.445,68.02 -68.006,68.02 -37.568,0 -68.016,-30.459 -68.016,-68.02 0,-37.563 30.448,-68.023 68.016,-68.023 37.561,0 68.006,30.459 68.006,68.023 m 58.655,100.234 c 0,0 4.485,-5.171 -0.674,-9.675 l -28.351,-24.636 c 12.749,-18.805 20.176,-41.499 20.176,-65.924 0,-65.069 -52.74,-117.831 -117.813,-117.831 -65.07,0 -117.82,52.761 -117.82,117.831 0,65.07 52.75,117.828 117.82,117.828 23.818,0 45.938,-7.136 64.463,-19.288 l 31.084,27.023 c 0,0 5.186,4.502 9.691,-0.681 z m 79.404,9.439 V 48.03 c 0,-8.037 -8.019,-8.037 -8.019,-8.037 h -35.321 c -8.026,0 -8.026,8.037 -8.026,8.037 v 219.372 c 0,8.028 8.026,8.028 8.026,8.028 h 35.321 c 8.019,0 8.019,-8.029 8.019,-8.029 M 412.111,70.296 v -22.67 c 0,0 0,-7.729 -7.731,-7.729 h -33.94 c 0,0 -7.705,0 -7.705,7.729 v 22.67 c 0,0 0,7.718 7.705,7.718 h 33.94 c 0,0 7.731,0 7.731,-7.718 m 1.31,197.105 V 109.043 c 0,-8.012 -8.021,-8.012 -8.021,-8.012 h -34.652 c -8.012,0 -8.012,8.012 -8.012,8.012 v 158.358 c 0,8.028 8.012,8.028 8.012,8.028 H 405.4 c 8.021,0.001 8.021,-8.028 8.021,-8.028 M 561.968,170.26 c -4.165,-6.864 1.422,-12.64 1.422,-12.64 l 48.847,-50.496 c 5.575,-5.764 -2.431,-5.764 -2.431,-5.764 h -45.633 c -8.028,0 -13.543,5.834 -13.543,5.834 l -45.333,48.019 c -5.5,5.834 -5.5,-2.178 -5.5,-2.178 V 48.03 c 0,-8.037 -8.039,-8.037 -8.039,-8.037 h -34.602 c -7.721,0 -7.721,7.729 -7.721,7.729 v 219.68 c 0,8.028 8.012,8.028 8.012,8.028 h 34.3 c 7.706,0 7.706,-7.723 7.706,-7.723 v -38.603 c 0,-8.016 5.846,-13.516 5.846,-13.516 l 16.156,-15.188 40.583,68.14 c 4.103,6.89 12.142,6.89 12.142,6.89 h 43.288 c 8.028,0 3.878,-6.866 3.878,-6.866 z"
   id="path2" />
	<path
   fill="#61a730"
   d="m 930.301,156.15 c 0,52.123 -42.245,94.39 -94.365,94.39 -52.135,0 -94.388,-42.267 -94.388,-94.401 0,-52.111 42.253,-94.377 94.388,-94.377 52.12,-10e-4 94.365,42.265 94.365,94.388 m 78.515,117.984 -42.994,-36.069 c 14.99,-23.708 23.715,-51.787 23.715,-81.914 0,-84.835 -68.767,-153.602 -153.602,-153.602 -84.834,0 -153.612,68.767 -153.612,153.59 0,84.824 68.778,153.614 153.612,153.614 32.901,0 63.371,-10.374 88.39,-28.007 l 45.828,38.454 c 0,0 6.816,5.723 12.52,-1.08 l 27.234,-32.45 c 0,0 5.712,-6.819 -1.091,-12.536"
   id="path4" />
	<path
   fill="#606163"
   d="m 775.434,156.139 c 0,-33.413 27.066,-60.491 60.491,-60.491 33.413,0 60.49,27.078 60.49,60.514 0,33.415 -27.077,60.493 -60.49,60.481 -33.425,0 -60.491,-27.067 -60.491,-60.504"
   id="path6" />
	<path
   fill="#606163"
   d="m 1015.384,51.017 h 4.076 c 2.351,0 4.009,-0.519 4.009,-3.259 0,-2.337 -1.777,-3.237 -4.009,-3.237 h -4.076 z m 0,9.725 h -1.971 V 42.789 h 6.526 c 3.08,0 5.499,1.578 5.499,4.969 0,2.833 -1.544,4.72 -4.256,5.002 l 5.052,7.981 h -2.455 l -4.768,-7.981 h -3.628 v 7.982 z m 3.392,-21.699 c -6.947,0 -12.353,5.679 -12.353,12.768 0,7.128 5.298,12.749 12.353,12.749 7.055,0 12.353,-5.621 12.353,-12.749 0,-7.089 -5.298,-12.768 -12.353,-12.768 m -14.713,12.768 c 0,-8.144 6.651,-14.723 14.714,-14.723 8.156,0 14.725,6.651 14.725,14.723 0,8.063 -6.568,14.714 -14.725,14.714 -8.063,0 -14.714,-6.651 -14.714,-14.714"
   id="path8" />
</g>
<g
   aria-label="Replicate"
   id="text21"
   style="font-size:13.3333px;line-height:1.25;font-family:sans-serif"><path
     d="m 381.97801,414.19864 h -9.36979 L 354.45196,392.6153 h -10.17188 v 21.58334 h -7.21876 v -54.28649 h 15.20314 q 4.92187,0 8.20312,0.65626 3.28126,0.61979 5.90626,2.26041 2.95312,1.85938 4.59375,4.70313 1.67708,2.80729 1.67708,7.14584 0,5.86979 -2.95312,9.84375 -2.95313,3.9375 -8.13021,5.94271 z M 365.0978,375.1882 q 0,-2.33333 -0.83855,-4.11979 -0.80208,-1.82292 -2.69791,-3.0625 -1.56771,-1.05729 -3.71876,-1.45834 -2.15104,-0.4375 -5.06771,-0.4375 h -8.49479 v 20.4896 h 7.29167 q 3.42708,0 5.97917,-0.58334 2.55208,-0.61979 4.33854,-2.26041 1.64063,-1.53125 2.40625,-3.50001 0.80209,-2.0052 0.80209,-5.06771 z"
     style="font-size:74.6667px"
     id="path23" /><path
     d="m 420.69678,394.54759 h -30.00522 q 0,3.75521 1.13021,6.5625 1.1302,2.77084 3.09896,4.55729 1.89583,1.75001 4.48437,2.62501 2.625,0.875 5.76042,0.875 4.15625,0 8.34896,-1.64063 4.22917,-1.67708 6.01563,-3.28125 h 0.36459 v 7.47396 q -3.46355,1.45834 -7.07292,2.44271 -3.60938,0.98438 -7.58334,0.98438 -10.13542,0 -15.82293,-5.46876 -5.6875,-5.50521 -5.6875,-15.60417 0,-9.98959 5.4323,-15.85938 5.46875,-5.8698 14.36459,-5.8698 8.23958,0 12.6875,4.8125 4.48438,4.81251 4.48438,13.67189 z m -6.67188,-5.25 q -0.0365,-5.39584 -2.73438,-8.34897 -2.66146,-2.95312 -8.13021,-2.95312 -5.50521,0 -8.78646,3.24479 -3.24479,3.24479 -3.68229,8.0573 z"
     style="font-size:74.6667px"
     id="path25" /><path
     d="m 466.92597,393.34446 q 0,4.95834 -1.42188,9.07813 -1.42187,4.08334 -4.01042,6.92709 -2.40625,2.69792 -5.6875,4.19271 -3.24479,1.45833 -6.89063,1.45833 -3.17187,0 -5.76042,-0.69271 -2.55208,-0.6927 -5.21354,-2.15104 v 17.06251 h -6.85417 v -55.74482 h 6.85417 v 4.26563 q 2.73437,-2.29688 6.125,-3.82813 3.42709,-1.56771 7.29167,-1.56771 7.36459,0 11.44792,5.57813 4.1198,5.54167 4.1198,15.42188 z m -7.07292,0.18229 q 0,-7.36458 -2.51563,-11.01042 -2.51563,-3.64583 -7.72917,-3.64583 -2.95313,0 -5.94271,1.27604 -2.98959,1.27604 -5.72396,3.35417 v 23.07813 q 2.91667,1.3125 4.99479,1.78646 2.11459,0.47396 4.77605,0.47396 5.72396,0 8.93229,-3.86458 3.20834,-3.86459 3.20834,-11.44793 z"
     style="font-size:74.6667px"
     id="path27" /><path
     d="m 484.53535,414.19864 h -6.85417 v -56.72919 h 6.85417 z"
     style="font-size:74.6667px"
     id="path29" /><path
     d="m 505.46244,366.65695 h -7.72917 v -7.10938 h 7.72917 z m -0.4375,47.54169 h -6.85417 v -40.72398 h 6.85417 z"
     style="font-size:74.6667px"
     id="path31" /><path
     d="m 548.70204,411.64655 q -3.42708,1.64063 -6.52604,2.55209 -3.0625,0.91146 -6.52605,0.91146 -4.41146,0 -8.09375,-1.27604 -3.68229,-1.31251 -6.30729,-3.93751 -2.66146,-2.625 -4.1198,-6.63542 -1.45833,-4.01041 -1.45833,-9.36979 0,-9.98959 5.46875,-15.67709 5.50521,-5.68751 14.51042,-5.68751 3.50001,0 6.85417,0.98438 3.39063,0.98437 6.19792,2.40625 v 7.6198 h -0.36458 q -3.13542,-2.44271 -6.48959,-3.75521 -3.31771,-1.3125 -6.48958,-1.3125 -5.83334,0 -9.22397,3.9375 -3.35416,3.90104 -3.35416,11.48438 0,7.36458 3.28125,11.33854 3.31771,3.93751 9.29688,3.93751 2.07812,0 4.22917,-0.54688 2.15104,-0.54687 3.86458,-1.42187 1.49479,-0.76563 2.80729,-1.60417 1.31251,-0.875 2.07813,-1.49479 h 0.36458 z"
     style="font-size:74.6667px"
     id="path33" /><path
     d="m 589.13436,414.19864 h -6.81771 v -4.33854 q -0.91146,0.61979 -2.47917,1.75 -1.53125,1.09375 -2.98959,1.75 -1.71354,0.83854 -3.9375,1.38541 -2.22396,0.58334 -5.21354,0.58334 -5.50521,0 -9.33334,-3.64584 -3.82813,-3.64583 -3.82813,-9.29688 0,-4.63021 1.96875,-7.47396 2.00521,-2.88021 5.68751,-4.52083 3.71875,-1.64063 8.93229,-2.22396 5.21355,-0.58334 11.19272,-0.875 v -1.0573 q 0,-2.33333 -0.83855,-3.86458 -0.80208,-1.53125 -2.33333,-2.40625 -1.45834,-0.83854 -3.5,-1.13021 -2.04167,-0.29167 -4.26563,-0.29167 -2.69792,0 -6.01563,0.72917 -3.31771,0.69271 -6.85417,2.04167 h -0.36458 v -6.96355 q 2.00521,-0.54687 5.79688,-1.20312 3.79166,-0.65625 7.47396,-0.65625 4.30208,0 7.47396,0.72916 3.20833,0.69271 5.54167,2.40625 2.29688,1.67709 3.5,4.33855 1.20313,2.66146 1.20313,6.59896 z m -6.81771,-10.02605 v -11.33854 q -3.13542,0.18229 -7.40105,0.54687 -4.22917,0.36458 -6.70834,1.05729 -2.95312,0.83854 -4.77604,2.625 -1.82292,1.75 -1.82292,4.84896 0,3.50001 2.11459,5.28647 2.11458,1.75 6.45312,1.75 3.60938,0 6.59897,-1.38542 2.98958,-1.42188 5.54167,-3.39063 z"
     style="font-size:74.6667px"
     id="path35" /><path
     d="m 623.47813,413.83406 q -1.93229,0.51041 -4.22917,0.83854 -2.26041,0.32812 -4.04687,0.32812 -6.23438,0 -9.47917,-3.35417 -3.2448,-3.35416 -3.2448,-10.75521 v -21.65626 h -4.63021 v -5.76042 h 4.63021 v -11.70313 h 6.85417 v 11.70313 h 14.14584 v 5.76042 h -14.14584 v 18.5573 q 0,3.20834 0.14584,5.03125 0.14583,1.78646 1.02083,3.35417 0.80208,1.45834 2.1875,2.15104 1.42188,0.65625 4.30209,0.65625 1.67708,0 3.5,-0.47395 1.82291,-0.51042 2.625,-0.83855 h 0.36458 z"
     style="font-size:74.6667px"
     id="path37" /><path
     d="M 665.84272,394.54759 H 635.8375 q 0,3.75521 1.13021,6.5625 1.13021,2.77084 3.09896,4.55729 1.89583,1.75001 4.48437,2.62501 2.62501,0.875 5.76042,0.875 4.15626,0 8.34897,-1.64063 4.22917,-1.67708 6.01562,-3.28125 h 0.36459 v 7.47396 q -3.46355,1.45834 -7.07292,2.44271 -3.60938,0.98438 -7.58334,0.98438 -10.13542,0 -15.82292,-5.46876 -5.68751,-5.50521 -5.68751,-15.60417 0,-9.98959 5.4323,-15.85938 5.46875,-5.8698 14.36459,-5.8698 8.23959,0 12.6875,4.8125 4.48438,4.81251 4.48438,13.67189 z m -6.67188,-5.25 q -0.0364,-5.39584 -2.73437,-8.34897 -2.66146,-2.95312 -8.13021,-2.95312 -5.50522,0 -8.78647,3.24479 -3.24479,3.24479 -3.68229,8.0573 z"
     style="font-size:74.6667px"
     id="path39" /></g></svg>
