<?xml version="1.0" encoding="utf-8"?>
<!-- Generator: Adobe Illustrator 19.0.0, SVG Export Plug-In . SVG Version: 6.00 Build 0)  -->
<svg version="1.1" id="layer" xmlns="http://www.w3.org/2000/svg" xmlns:xlink="http://www.w3.org/1999/xlink" x="0px" y="0px"
	 viewBox="-153 -46 652 652" style="enable-background:new -153 -46 652 652;" xml:space="preserve">
<style type="text/css">
	.st0{fill:#1474A2;}
</style>
<path class="st0" d="M116.1,158h-233.6c-5.2,0-9.4,4.2-9.4,9.5v222.7c0,5.2,4.2,9.5,9.4,9.5h233.6c5.2,0,9.5-4.3,9.5-9.5V167.4
	C125.6,162.2,121.3,158,116.1,158 M-5.3,359.3l-15.6-17.2h-62.5v-0.3l-14.4-16.2V222.2l14.4-16.2v-0.3h71.1v0.3l14.4,16.2v103.5
	l-6.4,7.2l12.3,13.8L-5.3,359.3z M99.6,326.6l-13.9,14.8l-1,1H26.8l-1-1L12,326.5v-86.8h22.6V318H77v-78.3h22.6V326.6z"/>
<rect x="-75.2" y="230" class="st0" width="54.5" height="88.9"/>
<path d="M214.7,247.9h-50.2v-18.2L147.4,212l0,118.5l12.9,14.3h54.3l12.7-12.7v-70.9L214.7,247.9z M210,327.5h-45.5v-62.4H210V327.5
	z M314.7,247.8h-58.5l-11.8,12.6v72.2l11.8,12.5h58.7l11.9-13l0-71.4L314.7,247.8z M310.5,327.7h-50v-62.3h50V327.7z M360.2,344.9
	h-16.2V213.1l16.2,16.5V344.9z M393.4,327.7v-22.7h57.8v-44.4l-12.1-12.9h-49.9l-12.1,12.9V332l12.1,12.9h50.2l12-17.2H393.4z
	 M393.5,265.2h41.8v22.8h-41.8V265.2z M460.3,222.6c-7.1,0-12.8,5.7-12.8,12.8c0,7,5.7,12.8,12.8,12.8c7,0,12.8-5.7,12.8-12.8
	C473.1,228.3,467.4,222.6,460.3,222.6 M460.3,246.6c-6.2,0-11.2-5-11.2-11.2c0-6.2,5-11.2,11.2-11.2c6.2,0,11.2,5,11.2,11.2
	C471.6,241.6,466.5,246.6,460.3,246.6 M456.8,240.4v-10.6h4.7c0.9,0,1.7,0.1,2.2,0.3c0.5,0.2,0.9,0.5,1.2,1c0.3,0.5,0.4,1,0.4,1.6
	c0,0.8-0.2,1.4-0.7,1.9c-0.5,0.5-1.2,0.8-2.3,1c0.4,0.2,0.7,0.4,0.8,0.5c0.4,0.4,0.8,0.8,1.2,1.4l1.8,2.9h-1.8l-1.4-2.2
	c-0.4-0.6-0.7-1.1-1-1.5c-0.3-0.3-0.5-0.6-0.7-0.7c-0.2-0.1-0.4-0.2-0.6-0.3c-0.2,0-0.4-0.1-0.8-0.1h-1.6v4.7H456.8z M458.2,234.5h3
	c0.6,0,1.1-0.1,1.5-0.2c0.4-0.1,0.6-0.3,0.8-0.6c0.2-0.3,0.3-0.6,0.3-1c0-0.5-0.2-0.9-0.5-1.2c-0.4-0.3-0.9-0.5-1.7-0.5h-3.3V234.5z
	"/>
</svg>
