<?xml version="1.0" encoding="utf-8"?>
<!-- Generator: Adobe Illustrator 25.0.1, SVG Export Plug-In . SVG Version: 6.00 Build 0)  -->
<svg version="1.1" id="Layer_1" xmlns="http://www.w3.org/2000/svg" xmlns:xlink="http://www.w3.org/1999/xlink" x="0px" y="0px"
	 width="360px" height="78px" viewBox="0 0 360 78" enable-background="new 0 0 360 78" xml:space="preserve">
<g>
	<path fill-rule="evenodd" clip-rule="evenodd" fill="#43AF79" d="M133.932,37.586l-6.545-1.42c-3.275-0.71-5.078-2.73-5.078-5.69
		c0-3.762,3.34-6.6,7.77-6.6c6.13,0,7.94,4.51,8.35,5.894c0.13,0.46,0.45,0.85,0.88,1.065c0.42,0.215,0.89,0.247,1.34,0.09
		l3.45-1.217c0.86-0.305,1.333-1.227,1.08-2.104c-0.89-3.13-4.16-10.41-15.25-10.41c-8.21,0-15.14,6.28-15.14,13.715
		c0,6.39,4.193,11.11,11.22,12.64l6.24,1.36c3.756,0.79,6,3.08,6,6.12c0,3.88-3.19,6.29-8.33,6.29c-6.04,0-8.95-3.96-9.66-7.67
		c-0.175-0.933-1.073-1.547-2.005-1.372c-0.069,0.013-0.137,0.03-0.205,0.052l-3.79,1.21c-0.825,0.251-1.329,1.083-1.17,1.93
		c1.18,6.15,6.233,12.71,16.9,12.71c9.014,0,15.812-5.87,15.812-13.65c0-6.57-4.336-11.29-11.9-12.96 M172.653,43.569
		c0.02,0.13-0.04,0.23-0.08,0.27c-0.067,0.083-0.168,0.131-0.275,0.13h-13.9c-0.112,0-0.218-0.052-0.287-0.14
		c-0.064-0.074-0.09-0.174-0.07-0.27c0.635-2.898,3.12-5.82,7.24-5.82c4.047,0,6.8,2.17,7.365,5.813L172.653,43.569z
		 M165.227,31.249c-7.32,0-14.89,6.12-14.89,16.37c0,4.94,1.62,9.16,4.69,12.19c2.844,2.81,6.73,4.36,10.94,4.36
		c6.27,0,11.35-3.276,13.59-8.76c0.18-0.45,0.17-0.95-0.024-1.39c-0.193-0.432-0.557-0.763-1.005-0.916l-3.06-1.06
		c-0.849-0.292-1.78,0.119-2.137,0.943c-1.32,3.11-3.8,4.68-7.37,4.68c-4.32,0-7.61-2.91-8.18-7.243
		c-0.015-0.098,0.017-0.198,0.085-0.27c0.04-0.05,0.13-0.13,0.27-0.13h20.284c0.91,0,1.67-0.71,1.72-1.616
		c0.02-0.29,0.03-0.61,0.03-0.926c0-10.02-5.73-16.243-14.95-16.243L165.227,31.249z M199.767,55.569c-4.87,0-7.9-3.38-7.9-8.82
		c0-5.36,3.1-8.824,7.9-8.824c4.65,0,7.774,3.54,7.774,8.82c0,5.274-3.126,8.82-7.775,8.82L199.767,55.569z M212.747,32.169h-3.67
		c-0.95,0-1.725,0.773-1.725,1.77c-0.001,0.144-0.087,0.274-0.22,0.33c-0.07,0.03-0.21,0.07-0.336-0.05
		c-1.89-1.728-4.55-2.605-7.9-2.605c-8.303,0-14.33,6.37-14.33,15.14c0,8.732,6.027,15.07,14.33,15.07c3.07,0,5.85-1.008,7.83-2.838
		c0.13-0.12,0.27-0.09,0.34-0.06c0.05,0.02,0.22,0.11,0.22,0.33v1.26c0,6.1-2.67,8.945-8.39,8.945c-3.63,0-6.48-2.25-7.25-5.728
		c-0.1-0.45-0.37-0.83-0.76-1.073s-0.86-0.32-1.31-0.22l-3.604,0.83c-0.921,0.219-1.496,1.135-1.294,2.06
		c1.29,6.32,7.006,10.57,14.21,10.57c5.37,0,9.46-1.635,12.16-4.86c2.23-2.666,3.41-6.367,3.41-10.703V33.92
		c0-0.95-0.77-1.72-1.72-1.72L212.747,32.169z M256.377,31.305c-4.06,0-7.363,1.532-9.554,4.44
		c-0.075,0.109-0.202,0.172-0.335,0.164c-0.098,0.001-0.19-0.05-0.24-0.135c-1.837-2.84-5.008-4.47-8.7-4.47
		c-2.937,0-5.76,1.032-7.748,2.835c-0.098,0.103-0.251,0.131-0.38,0.07c-0.126-0.052-0.206-0.176-0.2-0.312
		c0-0.95-0.774-1.72-1.724-1.72h-3.486c-0.95,0-1.72,0.77-1.72,1.72v27.63c0,0.95,0.774,1.722,1.724,1.722h3.67
		c0.95,0,1.72-0.776,1.72-1.726V44.68c0-4.093,2.5-6.844,6.23-6.844c4.88,0,5.61,3.827,5.61,6.107v17.61c0,0.95,0.77,1.72,1.72,1.72
		h3.733c0.95,0,1.72-0.774,1.72-1.724V44.62c0-3.996,2.54-6.786,6.17-6.786c4.883,0,5.61,3.83,5.61,6.11v17.61
		c0,0.95,0.77,1.72,1.72,1.72h3.67c0.95,0,1.72-0.774,1.72-1.724V43.32c0-8.28-5.49-11.983-10.93-11.983 M281.187,43.993
		c-0.112,0-0.217-0.051-0.287-0.138c-0.062-0.074-0.086-0.172-0.066-0.266c0.636-2.9,3.12-5.82,7.244-5.82
		c4.046,0,6.8,2.17,7.364,5.81c0.02,0.13-0.043,0.23-0.08,0.27c-0.072,0.075-0.171,0.118-0.275,0.12h-13.9L281.187,43.993z
		 M288.017,31.273c-7.32,0-14.89,6.124-14.89,16.37c0,4.946,1.62,9.163,4.686,12.196c2.84,2.81,6.72,4.35,10.94,4.35
		c6.26,0,11.34-3.28,13.59-8.77c0.18-0.45,0.17-0.95-0.03-1.39s-0.56-0.76-1.01-0.92l-3.06-1.058c-0.85-0.293-1.79,0.12-2.138,0.942
		c-1.32,3.102-3.8,4.68-7.37,4.68c-4.32,0-7.61-2.916-8.18-7.25c-0.015-0.099,0.014-0.2,0.08-0.276c0.04-0.05,0.13-0.125,0.27-0.125
		h20.29c0.91,0,1.667-0.71,1.72-1.617c0.017-0.29,0.03-0.61,0.03-0.93c0-10.02-5.73-16.25-14.95-16.25L288.017,31.273z
		 M324.787,31.336c-3.105,0-5.827,1.058-7.87,3.06c-0.096,0.097-0.241,0.124-0.366,0.07c-0.129-0.056-0.211-0.184-0.21-0.324v-0.22
		c0-0.95-0.774-1.72-1.724-1.72h-3.6c-0.95,0-1.724,0.77-1.724,1.72v27.625c0,0.95,0.77,1.723,1.72,1.723h3.73
		c0.95,0,1.725-0.775,1.725-1.725V45.418c0-3.608,1.635-7.464,6.23-7.464c4.13,0,6.226,2.283,6.226,6.785v16.8
		c0,0.95,0.77,1.72,1.72,1.72h3.73c0.95,0,1.722-0.78,1.722-1.73V43.75c0-7.66-4.338-12.42-11.31-12.42 M353.476,38.818h4.35
		c0.95,0,1.72-0.775,1.72-1.724V33.92c0-0.95-0.77-1.72-1.72-1.72h-4.35c-0.193,0-0.35-0.157-0.35-0.35c0,0,0,0,0,0v-7.314
		c0-0.95-0.776-1.722-1.725-1.722h-3.24c-0.95,0-1.72,0.772-1.72,1.722v3.78c0,1.77-0.678,3.883-3.888,3.883H342
		c-0.95,0-1.72,0.77-1.72,1.72v3.17c0,0.95,0.773,1.72,1.72,1.72h3.61c0.195,0,0.35,0.15,0.35,0.35v15.27
		c0,5.64,3.435,9.14,8.96,9.14c1.54,0,2.738-0.22,3.315-0.35c0.78-0.18,1.328-0.87,1.328-1.68V58.6
		c-0.001-0.953-0.775-1.724-1.727-1.723c-0.06,0-0.121,0.003-0.181,0.01c-0.39,0.04-0.768,0.063-1.064,0.063
		c-2.51,0-3.45-0.92-3.45-3.39v-14.4c0-0.192,0.16-0.348,0.35-0.348"/>
	<g transform="translate(0 45)">
		<defs>
			<filter id="Adobe_OpacityMaskFilter" filterUnits="userSpaceOnUse" x="0" y="0.497" width="55.926" height="8">
				<feColorMatrix  type="matrix" values="1 0 0 0 0  0 1 0 0 0  0 0 1 0 0  0 0 0 1 0"/>
			</filter>
		</defs>
		<mask maskUnits="userSpaceOnUse" x="0" y="0.497" width="55.926" height="8" id="b_1_">
			<g filter="url(#Adobe_OpacityMaskFilter)">
				<path id="a_1_" fill-rule="evenodd" clip-rule="evenodd" fill="#FFFFFF" d="M78.802,32.94H0V0.495h78.802V32.94z"/>
			</g>
		</mask>
		<path mask="url(#b_1_)" fill-rule="evenodd" clip-rule="evenodd" fill="#93C8A2" d="M51.926,8.497H4c-2.21,0-4-1.79-4-4
			s1.79-4,4-4h47.926c2.21,0,4,1.79,4,4S54.136,8.497,51.926,8.497"/>
		<defs>
			<filter id="Adobe_OpacityMaskFilter_1_" filterUnits="userSpaceOnUse" x="27.373" y="0.491" width="51.429" height="32.509">
				<feColorMatrix  type="matrix" values="1 0 0 0 0  0 1 0 0 0  0 0 1 0 0  0 0 0 1 0"/>
			</filter>
		</defs>
		<mask maskUnits="userSpaceOnUse" x="27.373" y="0.491" width="51.429" height="32.509" id="b_2_">
			<g filter="url(#Adobe_OpacityMaskFilter_1_)">
				<path id="a_2_" fill-rule="evenodd" clip-rule="evenodd" fill="#FFFFFF" d="M78.802,32.94H0V0.495h78.802V32.94z"/>
			</g>
		</mask>
		<path mask="url(#b_2_)" fill-rule="evenodd" clip-rule="evenodd" fill="#43AF79" d="M41.65,33c-3.904,0-7.76-0.58-11.46-1.727
			c-2.11-0.654-3.29-2.894-2.637-5.004c0.654-2.12,2.9-3.3,5.005-2.64c2.932,0.91,5.99,1.37,9.092,1.37
			c13.573,0,25.358-8.71,29.327-21.68c0.645-2.11,2.879-3.297,4.989-2.652c0.002,0.001,0.004,0.001,0.006,0.002
			c2.112,0.64,3.3,2.88,2.654,4.99C73.622,22.01,58.762,33,41.65,33"/>
	</g>
	<path fill-rule="evenodd" clip-rule="evenodd" fill="#93C8A2" d="M79.3,33.175H31.376c-2.21,0-4-1.79-4-4s1.79-4,4-4H79.3
		c2.21,0,4,1.79,4,4S81.51,33.175,79.3,33.175"/>
	<path fill-rule="evenodd" clip-rule="evenodd" fill="#43AF79" d="M8.5,33.176c-2.209,0-4-1.79-4.001-3.999
		c0-0.397,0.059-0.793,0.176-1.173C9.68,11.654,24.54,0.672,41.65,0.672c3.907,0,7.763,0.58,11.46,1.728
		c2.11,0.654,3.291,2.894,2.637,5.005c0,0,0,0,0,0c-0.651,2.108-2.887,3.29-4.996,2.639c-0.003-0.001-0.006-0.002-0.009-0.003
		c-2.93-0.9-5.99-1.36-9.092-1.36c-13.57,0-25.357,8.71-29.326,21.68c-0.515,1.68-2.066,2.828-3.823,2.83"/>
	<path fill-rule="evenodd" clip-rule="evenodd" fill="#93C8A2" d="M69.392,13.932c0,2.209-1.791,4-4,4c-2.209,0-4-1.791-4-4
		s1.791-4,4-4C67.601,9.932,69.392,11.723,69.392,13.932 M21.907,64.746c0,2.209-1.791,4-4,4s-4-1.791-4-4c0-2.209,1.791-4,4-4
		S21.907,62.537,21.907,64.746"/>
</g>
</svg>