<?xml version="1.0" encoding="utf-8"?>
<!-- Generator: Adobe Illustrator 25.0.1, SVG Export Plug-In . SVG Version: 6.00 Build 0)  -->
<svg version="1.1" id="Layer_1" xmlns="http://www.w3.org/2000/svg" xmlns:xlink="http://www.w3.org/1999/xlink" x="0px" y="0px"
	 width="520.875px" height="112.5px" viewBox="0 0 520.875 112.5" enable-background="new 0 0 520.875 112.5" xml:space="preserve">
<path d="M77.6,21.244l-9.867,14.209c0,0-5.859-4.43-14.953-4.148s-16.804,6.367-6.75,10.688c9.755,4.192,22.172,6.492,21.023,19.688
	c-1.086,12.481-11.131,26.18-34.289,26.18c-22.312,0-26.039-5.578-26.039-5.578l9.07-14.414c0,0,7.453,4.641,19.266,4.359
	s14.109-7.992,9.234-10.898C39.42,58.422,19.702,56.14,21.42,41.711c2.109-17.719,16.057-26.734,35.789-25.945
	C69.293,16.249,77.6,21.244,77.6,21.244z"/>
<path d="M124.875,47.95c0.07-9.14-6.4-15.82-19.41-15.47c-13,0.36-24.46,6.12-32.97,21.38s-4.5,30.8,12.02,32.91
	c16.52,2.11,27.42-2.61,27.42-2.61l2.04-13.99c0,0-9.42,4.22-18.77,2.88c-9.35-1.33-9-4.85-9.14-7.45h34.24
	C120.305,65.6,124.805,57.09,124.875,47.95z M108.215,53.72l-18-0.42c0,0,4.07-7.53,11.74-7.03
	C109.615,46.76,108.215,53.72,108.215,53.72z"/>
<path fill="#D2202F" d="M508.477,47.95c0.07-9.14-6.4-15.82-19.41-15.47c-13,0.36-24.46,6.12-32.97,21.38s-4.5,30.8,12.02,32.91
	c16.52,2.11,27.42-2.61,27.42-2.61l2.04-13.99c0,0-9.42,4.22-18.77,2.88c-9.35-1.33-9-4.85-9.14-7.45h34.24
	C503.907,65.6,508.407,57.09,508.477,47.95z M491.817,53.72l-18-0.42c0,0,4.07-7.53,11.74-7.03
	C493.217,46.76,491.817,53.72,491.817,53.72z"/>
<path d="M136.688,35.25l-17.062,51.188h17.062l13.406-39.188c0,0,5.062,0,8.812-0.094s3.094,4.688,2.531,7.031
	s-10.312,32.25-10.312,32.25H168c0,0,8.812-27.094,10.875-33.188s1.031-19.5-12.469-20.344S136.688,35.25,136.688,35.25z"/>
<path fill="#D2202F" d="M408.75,35.25l-17.062,51.188h17.062l13.406-39.188c0,0,5.062,0,8.812-0.094s3.094,4.688,2.531,7.031
	s-10.312,32.25-10.312,32.25h16.875c0,0,8.812-27.094,10.875-33.188s1.031-19.5-12.469-20.344S408.75,35.25,408.75,35.25z"/>
<path d="M194.531,21.094l18.188-2.25l-4.594,15h18.188l-4.594,14.344H203.25c0,0-4.969,16.312-6.094,19.594s-0.094,6,5.719,5.625
	s10.5-1.688,10.5-1.688l-1.594,13.219c0,0-7.781,3.188-16.781,2.812s-18.562-5.659-16.219-16.939S194.531,21.094,194.531,21.094z"/>
<path d="M233.625,36.281l-16.219,50.062h17.25l13.031-38.812c0,0,4.781-1.219,9.188-0.562s6.938,1.969,6.938,1.969l7.781-13.406
	c0,0-8.156-3-17.625-2.719S233.625,36.281,233.625,36.281z"/>
<path d="M270.281,33.562c0,0-0.744,10.734,0.75,22.688s3.375,27,3.375,27s-4.594,6.844-10.594,6.938S255,88.219,255,88.219
	l-7.594,13.312c0,0,5.906,2.625,14.531,2.438s15.375-4.219,22.406-12s10.406-11.812,19.781-24.562s23.344-33.844,23.344-33.844
	h-18.562l-19.4,30.709l-0.729,1.153l-0.402-1.206L288,33.562H270.281z"/>
<path fill="#D2202F" d="M373.645,13.92c-23.63,0-36.71,17.28-40.93,23.77c-11.25,17.29-13.058,42.575,6.89,48.65
	c20.02,6.097,40.926-2.903,51.33-19.4C401.528,50.143,409.125,13.92,373.645,13.92z M375.605,60.47
	c-7.31,10.55-20.39,15.76-28.54,10.34c-8.16-5.42-4.08-19.48,0.84-27.78c6.49-10.94,17.58-16.45,27.7-12.51
	C385.735,34.45,382.925,49.92,375.605,60.47z"/>
</svg>
