<?xml version="1.0" encoding="utf-8"?>
<!-- Generator: Adobe Illustrator 25.0.1, SVG Export Plug-In . SVG Version: 6.00 Build 0)  -->
<svg version="1.1" id="Layer_1" xmlns="http://www.w3.org/2000/svg" xmlns:xlink="http://www.w3.org/1999/xlink" x="0px" y="0px"
	 viewBox="0 0 180 180" style="enable-background:new 0 0 180 180;" xml:space="preserve">
<style type="text/css">
	.st0{fill:#74B366;}
	.st1{fill:#652D7A;}
</style>
<g>
	<g>
		<g>
			<path class="st0" d="M81.85,77.64c-1.84-1.84-4.09-2.78-6.66-2.78c-2.17,0-4.13,0.7-5.86,2.09v-1.94h-3.55v32.1h3.55V91.64
				c1.65,1.33,3.62,2,5.86,2c1.26,0,2.48-0.24,3.62-0.7c1.74-0.7,3.16-1.86,4.22-3.44c1.06-1.58,1.6-3.33,1.6-5.21
				C84.63,81.72,83.69,79.48,81.85,77.64z M70.77,80.23c0.11-0.1,0.19-0.17,0.23-0.22c1.11-1.11,2.48-1.65,4.2-1.66l0.03-0.55l0,0
				v0.55c1.54,0,2.89,0.59,4.1,1.81l0.05,0.04c0.04,0.03,0.1,0.09,0.18,0.17c1.02,1,1.51,2.28,1.51,3.91c0,1.62-0.56,2.97-1.72,4.12
				c-1.16,1.16-2.52,1.73-4.2,1.73c-1.75,0-3.11-0.5-4.16-1.52c-0.54-0.53-0.99-1.22-1.33-2.05c-0.32-0.79-0.48-1.56-0.47-2.29
				C69.2,82.61,69.72,81.28,70.77,80.23z"/>
			<polygon class="st1" points="91.35,89.49 91.35,62.99 87.63,62.99 87.63,93.06 99.57,93.06 99.57,89.49 			"/>
			<path class="st1" d="M164.93,88.18l-0.39,0.39c-1.16,1.16-2.53,1.73-4.2,1.73c-1.69,0-3.04-0.54-4.11-1.65
				c-1.08-1.12-1.6-2.49-1.6-4.2c0-1.73,0.49-3.1,1.45-4.08c0.11-0.09,0.18-0.16,0.21-0.19c1.09-1.08,2.41-1.61,4.05-1.61
				c1.65,0,3,0.54,4.13,1.66l0.39,0.39l2.44-2.54l-0.4-0.38c-1.83-1.75-4.04-2.63-6.55-2.63c-2.58,0-4.81,0.92-6.63,2.73
				c-1.81,1.82-2.73,4.05-2.73,6.63c0,2.61,0.91,4.84,2.71,6.64c1.8,1.8,4.03,2.71,6.64,2.71c2.58,0,4.83-0.91,6.7-2.7l0.4-0.39
				L164.93,88.18z"/>
			<path class="st0" d="M16.27,82.29c-1.52-0.78-2.13-1.3-2.37-1.59c-0.3-0.36-0.44-0.7-0.44-1.07c0-0.41,0.16-0.75,0.51-1.07
				c0.36-0.34,0.77-0.49,1.29-0.49c0.9,0,1.86,0.5,2.87,1.47l0.55,0.53l2.45-2.53l-0.55-0.53c-1.71-1.65-3.46-2.49-5.21-2.49
				c-1.53,0-2.82,0.5-3.84,1.48c-1.02,0.99-1.54,2.25-1.54,3.73c0,1.14,0.32,2.17,0.96,3.06c0.61,0.86,1.75,1.72,3.37,2.55
				c1.64,0.84,2.26,1.34,2.49,1.6c0.29,0.35,0.43,0.72,0.43,1.17c0,0.54-0.21,0.99-0.67,1.41c-0.46,0.42-1.04,0.64-1.7,0.64
				c-1.01,0-2-0.54-2.95-1.62l-0.57-0.64L9,90.57l0.39,0.5c0.65,0.83,1.48,1.5,2.46,1.97c0.98,0.47,2.03,0.71,3.11,0.71
				c1.66,0,3.06-0.56,4.17-1.66c1.12-1.1,1.68-2.47,1.68-4.05c0-1.14-0.34-2.18-1-3.1C19.17,84.06,17.97,83.18,16.27,82.29z"/>
			<path class="st0" d="M39.44,78.52c-0.52-1.22-1.34-2.2-2.44-2.92c-1.1-0.72-2.36-1.08-3.77-1.08c-1.36,0-2.64,0.32-3.8,0.95
				c-0.61,0.33-1.2,0.76-1.76,1.27v-1.79h-3.69V93.3h3.69v-6.93c0-2.67,0.16-3.86,0.29-4.39c0.29-1.12,0.89-2.07,1.8-2.82
				c0.89-0.75,1.91-1.12,3.03-1.12c0.97,0,1.74,0.23,2.31,0.68c0.57,0.45,0.96,1.15,1.18,2.1c0.1,0.4,0.22,1.38,0.22,3.7v8.79h3.69
				v-9.42C40.19,81.5,39.94,79.7,39.44,78.52z"/>
			<path class="st0" d="M58.5,75.02v1.84c-0.57-0.53-1.18-0.96-1.83-1.31c-1.22-0.64-2.61-0.97-4.1-0.97
				c-2.59,0-4.84,0.95-6.68,2.81c-1.84,1.86-2.77,4.13-2.77,6.75c0,2.67,0.92,4.97,2.75,6.83c1.83,1.87,4.06,2.82,6.65,2.82
				c1.45,0,2.81-0.31,4.04-0.91c0.69-0.34,1.34-0.78,1.96-1.31v1.79h3.65V75.02H58.5z M58.64,84.28c0,1.14-0.25,2.17-0.76,3.07
				c-0.5,0.89-1.23,1.61-2.16,2.13c-1.85,1.04-4.14,1.04-5.91,0c-0.9-0.53-1.63-1.29-2.17-2.24c-0.54-0.96-0.81-1.98-0.81-3.03
				c0-1.06,0.27-2.08,0.81-3.03c0.53-0.95,1.26-1.69,2.15-2.21c0.9-0.52,1.89-0.79,2.96-0.79c1.65,0,3.07,0.58,4.19,1.74
				C58.07,81.08,58.64,82.55,58.64,84.28z"/>
			<path class="st1" d="M133.97,96.95v-3.3c1.83-0.33,3.46-1.18,4.86-2.54c1.79-1.74,2.7-3.98,2.7-6.65c0.01-2.67-0.9-4.94-2.7-6.73
				c-1.8-1.79-4.03-2.7-6.62-2.7c-2.6,0-4.85,0.93-6.68,2.76c-1.38,1.38-2.24,2.99-2.59,4.82h-3.3c-0.33-1.89-1.18-3.53-2.55-4.89
				c-1.8-1.79-4.03-2.7-6.62-2.7c-2.6,0-4.85,0.93-6.68,2.76c-1.83,1.83-2.76,4.08-2.76,6.68c0,1.22,0.23,2.42,0.69,3.57
				c0.49,1.24,1.17,2.28,2.02,3.08c1.89,1.79,4.15,2.7,6.71,2.7c2.56,0,4.8-0.91,6.64-2.7c1.37-1.34,2.22-2.97,2.55-4.85h3.3
				c0.11,0.61,0.29,1.21,0.52,1.8c0.49,1.24,1.17,2.28,2.02,3.08c1.42,1.34,3.05,2.19,4.85,2.53v3.32c-1.82,0.34-3.43,1.21-4.8,2.58
				c-1.83,1.83-2.76,4.08-2.76,6.68c0,1.21,0.23,2.41,0.69,3.57c0.49,1.24,1.17,2.28,2.02,3.08c1.89,1.79,4.15,2.7,6.71,2.7
				c2.56,0,4.8-0.91,6.64-2.7c1.79-1.74,2.7-3.98,2.7-6.65c0.01-2.67-0.9-4.94-2.7-6.73C137.45,98.12,135.82,97.27,133.97,96.95z
				 M114.37,88.79c-1.12,1.12-2.4,1.66-3.91,1.66c-1.52,0-2.87-0.62-4.13-1.89c-1.12-1.12-1.66-2.46-1.66-4.12
				c0-1.71,0.54-3.09,1.66-4.21l0.12-0.12c1.12-1.13,2.43-1.67,4.01-1.67c1.56,0,2.91,0.59,4.12,1.79c1.07,1.07,1.59,2.45,1.59,4.21
				C116.17,86.16,115.58,87.58,114.37,88.79z M126.41,84.46c0-1.71,0.54-3.09,1.66-4.21l0.12-0.12c1.12-1.13,2.43-1.67,4.01-1.67
				c1.56,0,2.91,0.59,4.12,1.79c1.07,1.07,1.59,2.45,1.59,4.21c0,1.72-0.59,3.14-1.79,4.34c-1.12,1.12-2.4,1.66-3.92,1.66
				c-1.52,0-2.87-0.62-4.13-1.89C126.95,87.46,126.41,86.11,126.41,84.46z M136.11,110.57c-1.12,1.12-2.4,1.66-3.92,1.66
				c-1.52,0-2.87-0.62-4.13-1.89c-1.12-1.12-1.66-2.46-1.66-4.12c0-1.71,0.54-3.09,1.66-4.21l0.12-0.12
				c1.12-1.13,2.43-1.67,4.01-1.67c1.56,0,2.91,0.59,4.12,1.79c1.07,1.07,1.59,2.45,1.59,4.21
				C137.9,107.94,137.32,109.36,136.11,110.57z"/>
			<g>
				<rect x="144.35" y="75.52" class="st1" width="3.83" height="17.54"/>
				<path class="st1" d="M146.25,74.11c0.69,0,1.31-0.26,1.8-0.75c0.5-0.5,0.75-1.1,0.75-1.79c0-0.69-0.26-1.32-0.75-1.8
					c-0.48-0.48-1.12-0.75-1.8-0.75c-0.68,0-1.31,0.27-1.79,0.75c-0.49,0.49-0.75,1.11-0.75,1.81c0,0.69,0.25,1.29,0.75,1.79
					C144.96,73.85,145.57,74.11,146.25,74.11z"/>
			</g>
		</g>
		<g>
			<path class="st1" d="M169.49,75.33c0.7,0,1.28,0.55,1.28,1.27c0,0.74-0.59,1.29-1.28,1.29c-0.7,0-1.29-0.55-1.29-1.29
				C168.2,75.88,168.79,75.33,169.49,75.33z M169.49,77.7c0.59,0,1.05-0.47,1.05-1.1c0-0.61-0.46-1.09-1.05-1.09
				c-0.6,0-1.06,0.47-1.06,1.09C168.43,77.23,168.89,77.7,169.49,77.7z M168.99,75.86h0.58c0.36,0,0.52,0.14,0.52,0.43
				c0,0.27-0.17,0.38-0.39,0.41l0.43,0.66h-0.25l-0.41-0.64h-0.25v0.64h-0.23V75.86z M169.22,76.53h0.24c0.21,0,0.39-0.01,0.39-0.25
				c0-0.2-0.17-0.23-0.33-0.23h-0.31V76.53z"/>
		</g>
	</g>
</g>
</svg>
