<svg width="64" height="64" viewBox="0 0 64 64" fill="none" xmlns="http://www.w3.org/2000/svg">
<path d="M56 0H8C3.58172 0 0 3.63857 0 8.12698V55.873C0 60.3614 3.58172 64 8 64H56C60.4183 64 64 60.3614 64 55.873V8.12698C64 3.63857 60.4183 0 56 0Z" fill="#1C70FF"/>
<path d="M13.2015 54.1676C15.2124 54.1676 16.5531 53.0066 16.5531 51.5702C16.5531 50.2676 15.6696 49.7176 14.4754 49.3267L12.2199 48.6016C11.6693 48.434 11.4179 48.1826 11.4179 47.8116C11.4179 47.3208 11.9446 46.9019 12.7705 46.9019C13.7162 46.9019 14.4942 47.3687 14.8413 48.051L16.3615 47.6081C15.9067 46.447 14.566 45.4535 12.7586 45.4535C11.0109 45.4535 9.74212 46.5547 9.75409 47.8595C9.74212 48.9368 10.5441 49.643 11.6454 49.9901L13.788 50.6604C14.59 50.9238 14.8892 51.223 14.8892 51.6659C14.8892 52.2165 14.2788 52.7193 13.2972 52.7193C12.0882 52.7193 11.2384 52.025 10.9032 51.1512L9.33514 51.63C9.80197 52.9347 11.1546 54.1676 13.2015 54.1676ZM22.3465 47.9432V48.6734C21.9156 48.1228 21.2453 47.7757 20.3954 47.7757C18.7196 47.7757 17.4029 49.1283 17.4029 50.9716C17.4029 52.8031 18.7196 54.1676 20.3954 54.1676C21.2453 54.1676 21.9156 53.8085 22.3465 53.2579V56.5138H23.9385V47.9432H22.3465ZM20.6707 52.7552C19.6772 52.7552 18.971 52.013 18.971 50.9597C18.971 49.9183 19.6772 49.1881 20.6707 49.1881C21.6283 49.1881 22.3944 49.9183 22.3944 50.9597C22.3944 52.013 21.6283 52.7552 20.6707 52.7552ZM25.4946 54.0001H27.0747V45.262H25.4946V54.0001ZM32.2697 45.6211H28.6308V54.0001H32.2697C34.7355 54.0001 36.2796 52.2285 36.2796 49.8106C36.2796 47.3447 34.7115 45.6211 32.2697 45.6211ZM32.2338 52.5158H30.2587V47.0934H32.2338C33.6702 47.0934 34.6278 48.1826 34.6278 49.7747C34.6278 51.3906 33.6702 52.5158 32.2338 52.5158ZM43.2102 49.6071C43.8566 49.2599 44.2516 48.6614 44.2516 47.8595C44.2397 46.5308 43.1265 45.6211 41.4866 45.6211H37.4886V54.0001H41.714C43.4975 54.0001 44.5629 53.0664 44.5629 51.63C44.5629 50.6844 44.0362 49.9781 43.2102 49.6071ZM41.4746 47.0335C42.1689 47.0215 42.6357 47.4644 42.6357 48.051C42.6477 48.6255 42.1928 49.1043 41.5105 49.1043H39.0926V47.0335H41.4746ZM41.702 52.5756H39.0926V50.3971H41.714C42.492 50.3971 42.9349 50.8759 42.9349 51.4744C42.9349 52.0849 42.4801 52.5756 41.702 52.5756ZM52.8222 45.6211H54.3902V54.0001H52.7503V48.4819L50.081 52.1806L47.4117 48.4819V54.0001H45.7718V45.6211H47.3399L50.081 49.5831L52.8222 45.6211Z" fill="black"/>
<path d="M13.2015 54.1676C15.2124 54.1676 16.5531 53.0066 16.5531 51.5702C16.5531 50.2676 15.6696 49.7176 14.4754 49.3267L12.2199 48.6016C11.6693 48.434 11.4179 48.1826 11.4179 47.8116C11.4179 47.3208 11.9446 46.9019 12.7705 46.9019C13.7162 46.9019 14.4942 47.3687 14.8413 48.051L16.3615 47.6081C15.9067 46.447 14.566 45.4535 12.7586 45.4535C11.0109 45.4535 9.74212 46.5547 9.75409 47.8595C9.74212 48.9368 10.5441 49.643 11.6454 49.9901L13.788 50.6604C14.59 50.9238 14.8892 51.223 14.8892 51.6659C14.8892 52.2165 14.2788 52.7193 13.2972 52.7193C12.0882 52.7193 11.2384 52.025 10.9032 51.1512L9.33514 51.63C9.80197 52.9347 11.1546 54.1676 13.2015 54.1676ZM22.3465 47.9432V48.6734C21.9156 48.1228 21.2453 47.7757 20.3954 47.7757C18.7196 47.7757 17.4029 49.1283 17.4029 50.9716C17.4029 52.8031 18.7196 54.1676 20.3954 54.1676C21.2453 54.1676 21.9156 53.8085 22.3465 53.2579V56.5138H23.9385V47.9432H22.3465ZM20.6707 52.7552C19.6772 52.7552 18.971 52.013 18.971 50.9597C18.971 49.9183 19.6772 49.1881 20.6707 49.1881C21.6283 49.1881 22.3944 49.9183 22.3944 50.9597C22.3944 52.013 21.6283 52.7552 20.6707 52.7552ZM25.4946 54.0001H27.0747V45.262H25.4946V54.0001ZM32.2697 45.6211H28.6308V54.0001H32.2697C34.7355 54.0001 36.2796 52.2285 36.2796 49.8106C36.2796 47.3447 34.7115 45.6211 32.2697 45.6211ZM32.2338 52.5158H30.2587V47.0934H32.2338C33.6702 47.0934 34.6278 48.1826 34.6278 49.7747C34.6278 51.3906 33.6702 52.5158 32.2338 52.5158ZM43.2102 49.6071C43.8566 49.2599 44.2516 48.6614 44.2516 47.8595C44.2397 46.5308 43.1265 45.6211 41.4866 45.6211H37.4886V54.0001H41.714C43.4975 54.0001 44.5629 53.0664 44.5629 51.63C44.5629 50.6844 44.0362 49.9781 43.2102 49.6071ZM41.4746 47.0335C42.1689 47.0215 42.6357 47.4644 42.6357 48.051C42.6477 48.6255 42.1928 49.1043 41.5105 49.1043H39.0926V47.0335H41.4746ZM41.702 52.5756H39.0926V50.3971H41.714C42.492 50.3971 42.9349 50.8759 42.9349 51.4744C42.9349 52.0849 42.4801 52.5756 41.702 52.5756ZM52.8222 45.6211H54.3902V54.0001H52.7503V48.4819L50.081 52.1806L47.4117 48.4819V54.0001H45.7718V45.6211H47.3399L50.081 49.5831L52.8222 45.6211Z" fill="white"/>
<path d="M26 32.1007C26.4331 35.3424 32.4863 37.9497 39.9295 37.9993C47.3727 38.0489 53.446 35.5011 53.9194 32.2593L54 13.8993C53.5669 10.6476 47.5137 8.05028 40.0705 8.00071C32.6273 7.95114 26.5741 10.4989 26.0705 13.7407L26 32.1007Z" fill="#1359CE"/>
<path d="M40 27.0549H22V28.9449H40V27.0549Z" fill="#AEDAFF"/>
<path d="M40 21.0549H30V22.9449H40V21.0549Z" fill="#AEDAFF"/>
<path d="M36 15.0549H23V16.9449H36V15.0549Z" fill="#AEDAFF"/>
</svg>
