<?xml version="1.0" encoding="UTF-8" standalone="no"?>
<svg
   xmlns:dc="http://purl.org/dc/elements/1.1/"
   xmlns:cc="http://creativecommons.org/ns#"
   xmlns:rdf="http://www.w3.org/1999/02/22-rdf-syntax-ns#"
   xmlns:svg="http://www.w3.org/2000/svg"
   xmlns="http://www.w3.org/2000/svg"
   xmlns:sodipodi="http://sodipodi.sourceforge.net/DTD/sodipodi-0.dtd"
   xmlns:inkscape="http://www.inkscape.org/namespaces/inkscape"
   height="2467"
   width="2500"
   viewBox="0 0 60.3 59.5"
   version="1.1"
   id="svg18"
   sodipodi:docname="tableau.svg"
   inkscape:version="1.0.1 (3bc2e813f5, 2020-09-07)">
  <metadata
     id="metadata24">
    <rdf:RDF>
      <cc:Work
         rdf:about="">
        <dc:format>image/svg+xml</dc:format>
        <dc:type
           rdf:resource="http://purl.org/dc/dcmitype/StillImage" />
      </cc:Work>
    </rdf:RDF>
  </metadata>
  <defs
     id="defs22" />
  <sodipodi:namedview
     pagecolor="#ffffff"
     bordercolor="#666666"
     borderopacity="1"
     objecttolerance="10"
     gridtolerance="10"
     guidetolerance="10"
     inkscape:pageopacity="0"
     inkscape:pageshadow="2"
     inkscape:window-width="1920"
     inkscape:window-height="1017"
     id="namedview20"
     showgrid="false"
     inkscape:zoom="0.34454803"
     inkscape:cx="1250"
     inkscape:cy="1001.3117"
     inkscape:window-x="-8"
     inkscape:window-y="-8"
     inkscape:window-maximized="1"
     inkscape:current-layer="svg18"
     inkscape:document-rotation="0" />
  <path
     d="m 28.861767,26.85289 h 2.117911 v -5.776121 h 5.326868 v -2.053733 h -5.326868 v -5.776121 h -2.117911 v 5.776121 h -5.262688 v 2.053733 h 5.262688 z"
     fill="#e8762d"
     id="path2"
     style="stroke-width:0.641791" />
  <path
     d="m 19.042362,35.196177 h 1.797015 v -5.13433 h 4.749256 v -1.604479 h -4.749256 v -5.198509 h -1.797015 v 5.198509 h -4.749256 v 1.604479 h 4.749256 z"
     fill="#c72037"
     id="path4"
     style="stroke-width:0.641791" />
  <path
     d="m 39.002069,16.648409 h 1.797016 v -5.13433 h 4.813434 V 9.9737802 H 40.799085 V 4.7752714 h -1.797016 v 5.1985088 h -4.749255 v 1.5402988 h 4.749255 z"
     fill="#5b879b"
     id="path6"
     style="stroke-width:0.641791" />
  <path
     d="m 29.182663,39.239461 h 1.540299 v -3.65821 h 3.273136 v -1.347762 h -3.273136 v -3.65821 h -1.540299 v 3.65821 h -3.208957 v 1.347762 h 3.208957 z"
     fill="#5c6692"
     id="path8"
     style="stroke-width:0.641791" />
  <path
     d="m 19.106542,16.648409 h 1.668657 V 11.4499 h 4.813434 V 9.9737802 H 20.775199 V 4.7752714 H 19.106542 V 9.9737802 H 14.293106 V 11.4499 h 4.813436 z"
     fill="#eb9129"
     id="path10"
     style="stroke-width:0.641791" />
  <path
     d="m 44.457295,24.349904 h 1.540299 v -3.594031 h 3.273136 v -1.411941 h -3.273136 v -3.59403 h -1.540299 v 3.59403 h -3.208956 v 1.411941 h 3.208956 z"
     fill="#5c6692"
     id="path12"
     style="stroke-width:0.641791" />
  <path
     clip-rule="evenodd"
     d="m 39.002069,35.196177 h 1.797016 v -5.13433 h 4.813434 v -1.604479 h -4.813434 v -5.198509 h -1.797016 v 5.198509 h -4.749255 v 1.604479 h 4.749255 z"
     fill="#1f457e"
     fill-rule="evenodd"
     id="path14"
     style="stroke-width:0.641791" />
  <path
     d="M 33.739381,5.6737793 V 4.5827344 h -3.208956 v -3.529852 h -1.155224 v 3.529852 h -3.208956 v 1.0910449 h 3.208956 V 9.203631 h 1.155224 V 5.6737793 Z M 13.779674,24.093188 h 1.155223 v -3.529853 h 3.208957 V 19.47229 h -3.208957 v -3.465673 h -1.155223 v 3.465673 h -3.208956 v 1.155225 l 3.208956,-0.06418 z"
     fill="#7199a6"
     id="path16"
     style="stroke-width:0.641791" />
  <g
     aria-label="Tableau"
     id="text28"
     style="font-size:0.321599px;line-height:1.25;font-family:sans-serif;stroke-width:0.02412">
    <path
       d="m 21.184637,46.129442 h -1.670812 v 4.12364 h -0.621844 v -4.12364 h -1.670812 v -0.55275 h 3.963468 z"
       style="font-size:6.432px;stroke-width:0.02412"
       id="path30" />
    <path
       d="m 23.737966,50.253082 h -0.587297 v -0.373734 q -0.07852,0.05339 -0.213563,0.15075 -0.131906,0.09422 -0.257531,0.15075 -0.147609,0.07223 -0.339187,0.119344 -0.191579,0.05025 -0.44911,0.05025 -0.474234,0 -0.804,-0.314063 -0.329766,-0.314062 -0.329766,-0.800859 0,-0.39886 0.169594,-0.643828 0.172735,-0.24811 0.489938,-0.389438 0.320343,-0.141328 0.769453,-0.191578 0.449109,-0.05025 0.964172,-0.07537 v -0.09108 q 0,-0.201 -0.07223,-0.332906 -0.06909,-0.131907 -0.201,-0.207282 -0.125625,-0.07223 -0.3015,-0.09736 -0.175875,-0.02513 -0.367453,-0.02513 -0.232406,0 -0.518203,0.06281 -0.285797,0.05967 -0.590437,0.175875 h -0.03141 v -0.599859 q 0.172735,-0.04711 0.49936,-0.103641 0.326625,-0.05653 0.643828,-0.05653 0.370594,0 0.643828,0.06281 0.276375,0.05967 0.477375,0.207281 0.197859,0.144469 0.3015,0.373734 0.103641,0.229266 0.103641,0.568453 z M 23.150669,49.38941 v -0.976734 q -0.270094,0.0157 -0.637547,0.04711 -0.364313,0.03141 -0.577875,0.09108 -0.254391,0.07223 -0.411422,0.226125 -0.157031,0.15075 -0.157031,0.417704 0,0.3015 0.182156,0.45539 0.182156,0.15075 0.555891,0.15075 0.310922,0 0.568453,-0.119343 0.257531,-0.122485 0.477375,-0.292079 z"
       style="font-size:6.432px;stroke-width:0.02412"
       id="path32" />
    <path
       d="m 27.962107,48.472348 q 0,0.439687 -0.125625,0.791437 -0.122485,0.35175 -0.332907,0.590438 -0.222984,0.248109 -0.489937,0.373734 -0.266953,0.122485 -0.587297,0.122485 -0.298359,0 -0.521344,-0.07223 -0.222984,-0.06909 -0.439687,-0.188437 l -0.03769,0.163312 h -0.55275 V 45.36627 h 0.590438 v 1.746187 q 0.248109,-0.20414 0.527625,-0.332906 0.279515,-0.131906 0.628125,-0.131906 0.621844,0 0.979875,0.477375 0.361172,0.477375 0.361172,1.347328 z m -0.609282,0.0157 q 0,-0.628125 -0.207281,-0.951609 -0.207281,-0.326625 -0.668953,-0.326625 -0.257531,0 -0.521344,0.113062 -0.263812,0.109922 -0.489937,0.285797 v 2.01 q 0.25125,0.113063 0.430265,0.157031 0.182157,0.04397 0.411422,0.04397 0.489938,0 0.766313,-0.320344 0.279515,-0.323484 0.279515,-1.011281 z"
       style="font-size:6.432px;stroke-width:0.02412"
       id="path34" />
    <path
       d="M 29.479029,50.253082 H 28.888591 V 45.36627 h 0.590438 z"
       style="font-size:6.432px;stroke-width:0.02412"
       id="path36" />
    <path
       d="m 33.583825,48.560285 h -2.584734 q 0,0.323485 0.09736,0.565313 0.09736,0.238687 0.266953,0.392578 0.163313,0.15075 0.386297,0.226125 0.226125,0.07538 0.496219,0.07538 0.358031,0 0.719203,-0.141328 0.364313,-0.144469 0.518203,-0.282656 h 0.03141 v 0.643828 q -0.29836,0.125625 -0.609282,0.210422 -0.310922,0.0848 -0.65325,0.0848 -0.873094,0 -1.363031,-0.471094 -0.489938,-0.474235 -0.489938,-1.344188 0,-0.860531 0.467954,-1.366172 0.471093,-0.50564 1.237406,-0.50564 0.709781,0 1.092937,0.414562 0.386297,0.414563 0.386297,1.177735 z m -0.574734,-0.45225 q -0.0031,-0.464812 -0.235547,-0.719203 -0.229266,-0.25439 -0.700359,-0.25439 -0.474235,0 -0.756891,0.279515 -0.279516,0.279516 -0.317203,0.694078 z"
       style="font-size:6.432px;stroke-width:0.02412"
       id="path38" />
    <path
       d="M 37.204966,50.253082 H 36.61767 v -0.373734 q -0.07852,0.05339 -0.213563,0.15075 -0.131906,0.09422 -0.257531,0.15075 -0.14761,0.07223 -0.339188,0.119344 -0.191578,0.05025 -0.449109,0.05025 -0.474235,0 -0.804,-0.314063 -0.329766,-0.314062 -0.329766,-0.800859 0,-0.39886 0.169594,-0.643828 0.172734,-0.24811 0.489937,-0.389438 0.320344,-0.141328 0.769454,-0.191578 0.449109,-0.05025 0.964172,-0.07537 v -0.09108 q 0,-0.201 -0.07223,-0.332906 -0.06909,-0.131907 -0.201,-0.207282 -0.125625,-0.07223 -0.3015,-0.09736 -0.175875,-0.02513 -0.367453,-0.02513 -0.232406,0 -0.518203,0.06281 -0.285797,0.05967 -0.590438,0.175875 h -0.03141 v -0.599859 q 0.172734,-0.04711 0.499359,-0.103641 0.326625,-0.05653 0.643829,-0.05653 0.370593,0 0.643828,0.06281 0.276375,0.05967 0.477375,0.207281 0.197859,0.144469 0.3015,0.373734 0.10364,0.229266 0.10364,0.568453 z M 36.61767,49.38941 v -0.976734 q -0.270094,0.0157 -0.637547,0.04711 -0.364313,0.03141 -0.577875,0.09108 -0.254391,0.07223 -0.411422,0.226125 -0.157032,0.15075 -0.157032,0.417704 0,0.3015 0.182157,0.45539 0.182156,0.15075 0.55589,0.15075 0.310922,0 0.568453,-0.119343 0.257532,-0.122485 0.477376,-0.292079 z"
       style="font-size:6.432px;stroke-width:0.02412"
       id="path40" />
    <path
       d="m 41.250091,50.253082 h -0.590437 v -0.389437 q -0.29836,0.235547 -0.571594,0.361172 -0.273235,0.125625 -0.603,0.125625 -0.55275,0 -0.860531,-0.336047 -0.307782,-0.339188 -0.307782,-0.992438 v -2.276953 h 0.590438 v 1.997438 q 0,0.266953 0.02513,0.458531 0.02512,0.188437 0.106781,0.323484 0.0848,0.138188 0.219844,0.201 0.135047,0.06281 0.392578,0.06281 0.229266,0 0.499359,-0.119344 0.273235,-0.119344 0.508782,-0.304641 v -2.619281 h 0.590437 z"
       style="font-size:6.432px;stroke-width:0.02412"
       id="path42" />
  </g>
</svg>
