<?xml version="1.0" encoding="UTF-8" standalone="no"?>
<svg
   xmlns:dc="http://purl.org/dc/elements/1.1/"
   xmlns:cc="http://creativecommons.org/ns#"
   xmlns:rdf="http://www.w3.org/1999/02/22-rdf-syntax-ns#"
   xmlns:svg="http://www.w3.org/2000/svg"
   xmlns="http://www.w3.org/2000/svg"
   xmlns:sodipodi="http://sodipodi.sourceforge.net/DTD/sodipodi-0.dtd"
   xmlns:inkscape="http://www.inkscape.org/namespaces/inkscape"
   viewBox="0 0 145 70"
   version="1.1"
   id="svg18"
   sodipodi:docname="talend-dq.svg"
   width="145"
   height="70"
   inkscape:version="1.0.1 (3bc2e813f5, 2020-09-07)">
  <metadata
     id="metadata22">
    <rdf:RDF>
      <cc:Work
         rdf:about="">
        <dc:format>image/svg+xml</dc:format>
        <dc:type
           rdf:resource="http://purl.org/dc/dcmitype/StillImage" />
        <dc:title />
      </cc:Work>
    </rdf:RDF>
  </metadata>
  <sodipodi:namedview
     pagecolor="#ffffff"
     bordercolor="#666666"
     borderopacity="1"
     objecttolerance="10"
     gridtolerance="10"
     guidetolerance="10"
     inkscape:pageopacity="0"
     inkscape:pageshadow="2"
     inkscape:window-width="1920"
     inkscape:window-height="1017"
     id="namedview20"
     showgrid="false"
     inkscape:zoom="7.1862069"
     inkscape:cx="72.5"
     inkscape:cy="18.5"
     inkscape:window-x="-8"
     inkscape:window-y="-8"
     inkscape:window-maximized="1"
     inkscape:current-layer="svg18"
     inkscape:document-rotation="0" />
  <defs
     id="defs4">
    <path
       id="a"
       d="m 0.244,1.637 h 28.06 V 37.611 H 0.243 Z" />
    <path
       id="c"
       d="M 0,0.457 H 16.898 V 30.792 H 0 Z" />
  </defs>
  <g
     fill="none"
     fill-rule="evenodd"
     id="g16">
    <g
       transform="translate(116.622,-0.866)"
       id="g8">
      <path
         d="m 16.032,33.745 c 0.774,-0.371 1.353,-0.893 1.732,-1.562 V 18.677 c -0.121,-0.364 -0.388,-0.74 -0.798,-1.129 A 5.51,5.51 0 0 0 15.564,16.59 c -0.525,-0.25 -1.016,-0.376 -1.472,-0.376 -2.22,0 -3.802,0.826 -4.746,2.475 -0.942,1.65 -1.413,3.996 -1.413,7.038 0,5.719 1.931,8.577 5.794,8.577 0.761,0 1.528,-0.186 2.305,-0.56 M 4.6,35.982 C 3.08,34.895 1.974,33.46 1.283,31.681 0.59,29.9 0.244,27.916 0.244,25.727 c 0,-2.113 0.438,-4.075 1.313,-5.885 0.875,-1.81 2.185,-3.266 3.935,-4.369 1.748,-1.102 3.876,-1.653 6.386,-1.653 1.293,0 2.388,0.101 3.284,0.307 0.9,0.205 1.833,0.605 2.808,1.197 L 17.764,6.632 C 17.764,5.63 17.373,4.93 16.589,4.535 15.806,4.14 14.669,3.888 13.179,3.782 a 0.898,0.898 0 0 1 -0.41,-0.32 C 12.677,3.325 12.632,3.129 12.632,2.87 c 0,-0.213 0.053,-0.429 0.158,-0.651 0.108,-0.22 0.238,-0.337 0.388,-0.353 2.373,-0.152 5.43,-0.229 9.171,-0.229 h 1.894 c 0.166,0 0.323,0.072 0.467,0.217 0.145,0.146 0.217,0.377 0.217,0.696 v 30.408 c 0,0.609 0.125,1.069 0.376,1.38 0.252,0.312 0.548,0.514 0.89,0.606 0.344,0.09 0.773,0.166 1.288,0.227 0.335,0.031 0.558,0.095 0.662,0.194 0.108,0.099 0.161,0.316 0.161,0.65 0,0.198 -0.072,0.402 -0.217,0.616 -0.144,0.214 -0.33,0.32 -0.558,0.32 H 19.68 c -0.578,0 -0.992,-0.088 -1.243,-0.262 a 1.034,1.034 0 0 1 -0.445,-0.72 c -0.045,-0.303 -0.06,-0.798 -0.045,-1.482 -0.73,1.004 -1.803,1.776 -3.217,2.315 a 11.86,11.86 0 0 1 -4.265,0.809 c -2.388,0 -4.342,-0.544 -5.864,-1.63"
         fill="#f17176"
         mask="url(#b)"
         id="path6" />
    </g>
    <path
       d="m 75.486,16.66 c -0.533,-1.178 -1.385,-1.767 -2.555,-1.767 -1.232,0 -2.293,0.613 -3.182,1.836 -0.89,1.225 -1.434,3.106 -1.632,5.647 h 8.168 c 0,-2.631 -0.267,-4.537 -0.799,-5.716 M 63.508,33.622 c -2.143,-2.084 -3.216,-5.08 -3.216,-8.988 0,-2.45 0.575,-4.556 1.723,-6.32 1.15,-1.763 2.687,-3.097 4.62,-4.004 1.93,-0.903 4.051,-1.357 6.364,-1.357 3.377,0 5.892,0.659 7.55,1.974 1.659,1.316 2.7,3.242 3.126,5.783 0.137,0.82 0.204,2.076 0.204,3.763 l -15.83,0.024 c 0,2.205 0.345,3.993 1.038,5.36 0.69,1.37 1.57,2.35 2.636,2.944 a 6.835,6.835 0 0 0 3.375,0.89 c 1.4,0 2.573,-0.184 3.524,-0.548 0.951,-0.366 1.783,-0.967 2.498,-1.803 a 2.26,2.26 0 0 0 0.124,-0.147 0.545,0.545 0 0 1 0.218,-0.171 0.48,0.48 0 0 1 0.253,-0.024 l 1.002,0.479 c 0.15,0.061 0.228,0.152 0.228,0.273 0,0.093 -0.045,0.221 -0.137,0.389 -0.821,1.43 -2.022,2.555 -3.604,3.375 -1.581,0.821 -3.53,1.232 -5.839,1.232 -4.425,0 -7.712,-1.04 -9.857,-3.124 m 22.382,2.155 a 1.108,1.108 0 0 1 -0.206,-0.628 c 0,-0.258 0.053,-0.455 0.16,-0.592 0.107,-0.137 0.303,-0.22 0.593,-0.251 1.613,-0.199 2.417,-0.685 2.417,-1.46 V 18.339 c 0,-0.7 -0.129,-1.233 -0.387,-1.598 -0.258,-0.364 -0.558,-0.607 -0.901,-0.73 -0.343,-0.121 -0.786,-0.22 -1.335,-0.296 -0.441,-0.062 -0.698,-0.106 -0.775,-0.137 a 0.903,0.903 0 0 1 -0.41,-0.32 c -0.093,-0.137 -0.137,-0.333 -0.137,-0.592 0,-0.213 0.05,-0.429 0.149,-0.651 0.097,-0.22 0.23,-0.337 0.398,-0.353 3.559,-0.212 6.775,-0.32 9.65,-0.32 0.153,0 0.296,0.069 0.435,0.206 0.135,0.136 0.219,0.373 0.248,0.706 v 2.556 c 0.35,-0.41 1.004,-0.924 1.964,-1.54 0.956,-0.616 2.071,-1.156 3.342,-1.62 1.27,-0.463 2.519,-0.694 3.752,-0.694 2.25,0 4.037,0.48 5.361,1.447 1.32,0.966 1.985,2.749 1.985,5.35 v 12.34 c 0,0.852 0.212,1.408 0.638,1.666 0.426,0.259 0.87,0.41 1.334,0.455 l 0.924,0.093 c 0.274,0.03 0.467,0.102 0.581,0.217 0.115,0.113 0.173,0.323 0.173,0.626 0,0.214 -0.07,0.423 -0.207,0.628 a 0.646,0.646 0 0 1 -0.57,0.308 h -12.248 a 0.65,0.65 0 0 1 -0.571,-0.308 1.108,1.108 0 0 1 -0.207,-0.628 c 0,-0.274 0.048,-0.475 0.138,-0.604 0.09,-0.128 0.283,-0.208 0.57,-0.24 a 3.822,3.822 0 0 0 1.516,-0.478 c 0.45,-0.259 0.674,-0.585 0.674,-0.98 V 19.866 a 8.52,8.52 0 0 0 -0.137,-1.598 c -0.09,-0.47 -0.34,-0.896 -0.743,-1.276 -0.402,-0.382 -1.014,-0.57 -1.835,-0.57 -0.775,0 -1.57,0.147 -2.385,0.443 -0.813,0.298 -1.558,0.666 -2.234,1.107 -0.678,0.442 -1.204,0.876 -1.586,1.302 v 12.818 c 0,0.61 0.11,1.07 0.33,1.38 0.221,0.312 0.491,0.519 0.811,0.617 0.318,0.099 0.73,0.17 1.232,0.217 0.335,0.03 0.556,0.094 0.66,0.193 0.108,0.1 0.161,0.317 0.161,0.65 0,0.199 -0.072,0.404 -0.217,0.616 -0.144,0.214 -0.33,0.32 -0.56,0.32 H 86.461 a 0.644,0.644 0 0 1 -0.57,-0.308 M 33.118,31.614 c -0.942,1.156 -2.165,1.734 -3.67,1.734 -0.943,0 -1.677,-0.297 -2.204,-0.89 -0.523,-0.594 -0.787,-1.3 -0.787,-2.122 0,-1.475 0.322,-2.631 0.96,-3.468 0.638,-0.836 1.426,-1.428 2.36,-1.779 0.936,-0.349 2.05,-0.622 3.341,-0.82 z M 59.306,34.5 C 59.198,34.4 58.977,34.336 58.644,34.306 A 12.474,12.474 0 0 1 57.251,34.089 1.967,1.967 0 0 1 56.283,33.542 C 56.001,33.26 55.86,32.854 55.86,32.32 V 1.684 c 0,-0.318 -0.072,-0.55 -0.215,-0.695 -0.146,-0.145 -0.303,-0.217 -0.467,-0.217 -3.485,0 -6.869,0.106 -10.153,0.32 -0.152,0.015 -0.28,0.133 -0.388,0.354 -0.107,0.219 -0.16,0.436 -0.16,0.65 0,0.258 0.045,0.455 0.139,0.592 a 0.88,0.88 0 0 0 0.409,0.32 c 0.061,0.015 0.349,0.06 0.867,0.137 0.623,0.077 1.133,0.174 1.528,0.296 0.397,0.123 0.739,0.366 1.026,0.73 0.29,0.364 0.435,0.905 0.435,1.62 l -0.024,27.284 c 0,0.38 -2.496,0.937 -4.149,0.937 -1.65,0 -3.688,-0.545 -3.856,-0.95 -0.165,-0.403 -0.25,-0.9 -0.25,-1.493 V 19.295 c 0,-1.247 -0.35,-2.345 -1.05,-3.295 -0.698,-0.95 -1.787,-1.697 -3.262,-2.237 -1.476,-0.539 -3.337,-0.81 -5.589,-0.81 -1.58,0 -3.212,0.196 -4.892,0.582 -1.682,0.389 -3.103,0.99 -4.267,1.802 -1.161,0.814 -1.745,1.83 -1.745,3.046 0,0.943 0.346,1.715 1.039,2.315 0.467,0.405 1.028,0.662 1.671,0.794 0.676,0.097 1.384,-0.062 1.299,-0.951 -0.007,-0.064 -0.002,-0.095 -0.002,-0.14 -0.156,-1.855 0.766,-3.8 3.093,-4.81 0.107,-0.046 0.198,-0.076 0.297,-0.112 0.399,-0.197 1.283,-0.358 2.527,-0.358 1.124,0 1.972,0.255 2.542,0.765 0.572,0.51 0.855,1.44 0.855,2.793 v 3.764 c -2.6,0.274 -4.93,0.665 -6.991,1.175 -2.06,0.51 -3.808,1.328 -5.245,2.453 -1.439,1.124 -2.157,2.623 -2.157,4.492 0,1.37 0.354,2.512 1.06,3.424 a 6.282,6.282 0 0 0 2.635,2.008 c 1.049,0.424 2.085,0.638 3.103,0.638 1.629,0 3.129,-0.263 4.506,-0.787 1.375,-0.525 2.552,-1.297 3.524,-2.316 v 0.068 c 0,0.517 0.1,1.324 0.1,1.324 0,0 0.09,0.66 0.868,1.066 0.779,0.407 5.92,0.098 6.802,0.098 h 17.365 a 0.65,0.65 0 0 0 0.571,-0.308 c 0.137,-0.207 0.206,-0.416 0.206,-0.628 0,-0.334 -0.053,-0.551 -0.16,-0.65 z"
       fill="#f17176"
       id="path10" />
    <g
       transform="translate(0.296,5.977)"
       id="g14">
      <path
         d="m 16.83,27.7 a 2.792,2.792 0 0 0 -0.39,-0.74 c -0.166,-0.228 -0.294,-0.32 -0.387,-0.274 -0.578,0.29 -1.21,0.532 -1.893,0.729 -0.685,0.198 -1.278,0.298 -1.78,0.298 -0.564,0 -0.992,-0.125 -1.288,-0.377 -0.297,-0.251 -0.51,-0.715 -0.64,-1.392 -0.13,-0.676 -0.193,-1.661 -0.193,-2.953 V 9.874 h 4.903 c 0.17,0 0.325,-0.16 0.469,-0.48 0.145,-0.32 0.217,-0.715 0.217,-1.187 A 0.951,0.951 0 0 0 15.699,7.684 0.515,0.515 0 0 0 15.301,7.432 H 10.259 V 1.07 C 10.259,0.803 10.085,0.616 9.773,0.49 9.203,0.312 8.869,0.933 8.869,0.933 a 13.386,13.386 0 0 1 -8.27,7.45 c 0,0 -0.765,0.181 -0.566,0.977 0.022,0.068 0.04,0.136 0.075,0.207 0.106,0.22 0.234,0.338 0.387,0.352 h 2.44 v 15.104 c 0,2.143 0.653,3.64 1.953,4.494 1.298,0.85 3.045,1.276 5.234,1.276 0.685,0 1.478,-0.13 2.385,-0.387 0.903,-0.26 1.755,-0.59 2.554,-0.994 0.8,-0.402 1.388,-0.809 1.77,-1.22 0.09,-0.061 0.09,-0.224 0,-0.49"
         fill="#f17176"
         mask="url(#d)"
         id="path12" />
    </g>
  </g>
  <g
     aria-label="Data Quality"
     id="text26"
     style="font-size:13.3333px;line-height:1.25;font-family:sans-serif">
    <path
       d="m 39.79658,53.468917 q 0,1.321612 -0.579425,2.395828 -0.572916,1.074216 -1.529944,1.666662 -0.664061,0.410155 -1.484372,0.592447 -0.8138,0.182291 -2.148432,0.182291 h -2.44791 v -9.693986 h 2.421869 q 1.419267,0 2.252598,0.208333 0.839842,0.201822 1.419267,0.559894 0.989581,0.618488 1.542965,1.647131 0.553384,1.028644 0.553384,2.4414 z m -1.347653,-0.01953 q 0,-1.13932 -0.397134,-1.920568 Q 37.654659,50.74757 36.8669,50.298352 36.293985,49.972832 35.649455,49.849135 35.004926,49.718927 34.10649,49.718927 h -1.210934 v 7.48045 h 1.210934 q 0.930988,0 1.62109,-0.136719 0.696613,-0.136718 1.276039,-0.507811 0.722654,-0.462238 1.080726,-1.217445 0.364582,-0.755206 0.364582,-1.888016 z"
       style="text-align:center;text-anchor:middle"
       id="path16" />
    <path
       d="m 47.43328,58.306145 h -1.217445 v -0.774738 q -0.16276,0.110677 -0.442707,0.312499 -0.273437,0.195312 -0.533853,0.3125 -0.305989,0.149739 -0.703123,0.247395 -0.397135,0.104166 -0.930987,0.104166 -0.983071,0 -1.666663,-0.65104 -0.683592,-0.65104 -0.683592,-1.660152 0,-0.826821 0.351562,-1.334632 0.358072,-0.514322 1.015622,-0.80729 0.664061,-0.292968 1.595048,-0.397134 0.930987,-0.104166 1.998693,-0.15625 v -0.188801 q 0,-0.416666 -0.149739,-0.690103 -0.143229,-0.273436 -0.416666,-0.429686 -0.260416,-0.149739 -0.624998,-0.201822 -0.364583,-0.05208 -0.761717,-0.05208 -0.48177,0 -1.074216,0.130208 -0.592446,0.123698 -1.223955,0.364583 h -0.0651 v -1.243487 q 0.358072,-0.09766 1.035153,-0.214843 0.677082,-0.117187 1.334632,-0.117187 0.768228,0 1.334632,0.130208 0.572916,0.123697 0.989581,0.429686 0.410155,0.299479 0.624999,0.774738 0.214843,0.475259 0.214843,1.178382 z m -1.217445,-1.79036 V 54.49105 q -0.559894,0.03255 -1.321611,0.09766 -0.755207,0.0651 -1.197914,0.188802 -0.527342,0.149739 -0.852862,0.468749 -0.32552,0.312499 -0.32552,0.865883 0,0.624998 0.377603,0.944008 0.377603,0.312499 1.152341,0.312499 0.644529,0 1.178382,-0.247395 0.533853,-0.253906 0.989581,-0.605467 z"
       style="text-align:center;text-anchor:middle"
       id="path18" />
    <path
       d="m 53.566077,58.241041 q -0.345051,0.09114 -0.755206,0.149739 -0.403645,0.05859 -0.722655,0.05859 -1.113278,0 -1.692704,-0.598957 -0.579425,-0.598957 -0.579425,-1.920568 v -3.867178 h -0.826821 v -1.028643 h 0.826821 v -2.089839 h 1.223955 v 2.089839 h 2.526035 v 1.028643 h -2.526035 v 3.313794 q 0,0.572915 0.02604,0.898435 0.02604,0.319009 0.182292,0.598957 0.143228,0.260416 0.390624,0.384113 0.253905,0.117187 0.768227,0.117187 0.299478,0 0.624998,-0.08463 0.32552,-0.09115 0.468749,-0.149739 h 0.0651 z"
       style="text-align:center;text-anchor:middle"
       id="path20" />
    <path
       d="M 60.694965,58.306145 H 59.47752 v -0.774738 q -0.16276,0.110677 -0.442707,0.312499 -0.273437,0.195312 -0.533853,0.3125 -0.305988,0.149739 -0.703123,0.247395 -0.397134,0.104166 -0.930987,0.104166 -0.98307,0 -1.666663,-0.65104 -0.683592,-0.65104 -0.683592,-1.660152 0,-0.826821 0.351562,-1.334632 0.358072,-0.514322 1.015623,-0.80729 0.66406,-0.292968 1.595048,-0.397134 0.930987,-0.104166 1.998692,-0.15625 v -0.188801 q 0,-0.416666 -0.149739,-0.690103 -0.143229,-0.273436 -0.416665,-0.429686 -0.260416,-0.149739 -0.624999,-0.201822 -0.364582,-0.05208 -0.761717,-0.05208 -0.481769,0 -1.074216,0.130208 -0.592446,0.123698 -1.223955,0.364583 h -0.0651 v -1.243487 q 0.358072,-0.09766 1.035154,-0.214843 0.677081,-0.117187 1.334632,-0.117187 0.768227,0 1.334632,0.130208 0.572915,0.123697 0.989581,0.429686 0.410155,0.299479 0.624998,0.774738 0.214843,0.475259 0.214843,1.178382 z M 59.47752,56.515785 V 54.49105 q -0.559894,0.03255 -1.321611,0.09766 -0.755206,0.0651 -1.197913,0.188802 -0.527343,0.149739 -0.852863,0.468749 -0.32552,0.312499 -0.32552,0.865883 0,0.624998 0.377603,0.944008 0.377604,0.312499 1.152341,0.312499 0.64453,0 1.178383,-0.247395 0.533852,-0.253906 0.98958,-0.605467 z"
       style="text-align:center;text-anchor:middle"
       id="path22" />
    <path
       d="m 76.482685,60.682441 q -0.390624,0.09766 -0.774737,0.136718 -0.377603,0.04557 -0.774738,0.04557 -1.132809,0 -1.822912,-0.624998 -0.683592,-0.618488 -0.742185,-1.77734 -0.15625,0.02604 -0.305989,0.03255 -0.143229,0.01302 -0.279948,0.01302 -1.022132,0 -1.861974,-0.338541 -0.833331,-0.338541 -1.419267,-0.98307 -0.585936,-0.64453 -0.904946,-1.582027 -0.312499,-0.937498 -0.312499,-2.141922 0,-1.184893 0.312499,-2.122391 0.312499,-0.944008 0.911456,-1.614579 0.572915,-0.638019 1.419267,-0.97656 0.852863,-0.338541 1.855464,-0.338541 1.041665,0 1.868485,0.345052 0.833332,0.33854 1.412757,0.970049 0.592447,0.65104 0.904946,1.595048 0.319009,0.944008 0.319009,2.141922 0,1.777339 -0.729164,2.994784 -0.722655,1.217445 -1.94661,1.705725 0.02604,0.742186 0.351562,1.152341 0.32552,0.410155 1.184892,0.410155 0.266927,0 0.631509,-0.08463 0.371093,-0.07813 0.527343,-0.143229 h 0.17578 z m -1.536454,-7.220034 q 0,-1.888016 -0.846352,-2.910149 -0.846352,-1.028643 -2.311192,-1.028643 -1.477861,0 -2.324213,1.028643 -0.839842,1.022133 -0.839842,2.910149 0,1.907547 0.859373,2.92317 0.859373,1.009112 2.304682,1.009112 1.445309,0 2.298171,-1.009112 0.859373,-1.015623 0.859373,-2.92317 z"
       style="text-align:center;text-anchor:middle"
       id="path24" />
    <path
       d="M 84.262615,58.306145 H 83.03866 v -0.80729 q -0.618488,0.48828 -1.184893,0.748696 -0.566405,0.260416 -1.249997,0.260416 -1.145831,0 -1.78385,-0.696613 -0.638019,-0.703123 -0.638019,-2.057286 v -4.72004 h 1.223955 v 4.140614 q 0,0.553384 0.05208,0.950519 0.05208,0.390624 0.221354,0.670571 0.175781,0.286457 0.455728,0.416665 0.279947,0.130208 0.8138,0.130208 0.475259,0 1.035154,-0.247395 0.566405,-0.247395 1.054685,-0.631509 v -5.429673 h 1.223955 z"
       style="text-align:center;text-anchor:middle"
       id="path26" />
    <path
       d="m 92.322489,58.306145 h -1.217445 v -0.774738 q -0.16276,0.110677 -0.442707,0.312499 -0.273437,0.195312 -0.533853,0.3125 -0.305989,0.149739 -0.703123,0.247395 -0.397135,0.104166 -0.930988,0.104166 -0.98307,0 -1.666662,-0.65104 -0.683592,-0.65104 -0.683592,-1.660152 0,-0.826821 0.351561,-1.334632 0.358073,-0.514322 1.015623,-0.80729 0.664061,-0.292968 1.595048,-0.397134 0.930987,-0.104166 1.998693,-0.15625 v -0.188801 q 0,-0.416666 -0.149739,-0.690103 -0.143229,-0.273436 -0.416666,-0.429686 -0.260416,-0.149739 -0.624998,-0.201822 -0.364583,-0.05208 -0.761717,-0.05208 -0.48177,0 -1.074216,0.130208 -0.592447,0.123698 -1.223955,0.364583 h -0.0651 v -1.243487 q 0.358072,-0.09766 1.035153,-0.214843 0.677082,-0.117187 1.334632,-0.117187 0.768227,0 1.334632,0.130208 0.572915,0.123697 0.989581,0.429686 0.410155,0.299479 0.624998,0.774738 0.214844,0.475259 0.214844,1.178382 z m -1.217445,-1.79036 V 54.49105 q -0.559895,0.03255 -1.321611,0.09766 -0.755207,0.0651 -1.197914,0.188802 -0.527342,0.149739 -0.852862,0.468749 -0.32552,0.312499 -0.32552,0.865883 0,0.624998 0.377603,0.944008 0.377603,0.312499 1.152341,0.312499 0.644529,0 1.178382,-0.247395 0.533853,-0.253906 0.989581,-0.605467 z"
       style="text-align:center;text-anchor:middle"
       id="path28" />
    <path
       d="M 95.916231,58.306145 H 94.692276 V 48.175962 h 1.223955 z"
       style="text-align:center;text-anchor:middle"
       id="path30" />
    <path
       d="m 99.653203,49.816583 h -1.380204 v -1.269528 h 1.380204 z m -0.07812,8.489562 h -1.223956 v -7.272117 h 1.223956 z"
       style="text-align:center;text-anchor:middle"
       id="path32" />
    <path
       d="m 105.77298,58.241041 q -0.34505,0.09114 -0.75521,0.149739 -0.40364,0.05859 -0.72265,0.05859 -1.11328,0 -1.69271,-0.598957 -0.57942,-0.598957 -0.57942,-1.920568 v -3.867178 h -0.82682 v -1.028643 h 0.82682 v -2.089839 h 1.22395 v 2.089839 h 2.52604 v 1.028643 h -2.52604 v 3.313794 q 0,0.572915 0.026,0.898435 0.026,0.319009 0.1823,0.598957 0.14322,0.260416 0.39062,0.384113 0.25391,0.117187 0.76823,0.117187 0.29948,0 0.625,-0.08463 0.32552,-0.09115 0.46874,-0.149739 h 0.0651 z"
       style="text-align:center;text-anchor:middle"
       id="path34" />
    <path
       d="M 113.47478,51.034028 109.23,60.98843 h -1.30859 l 1.35416,-3.033847 -2.89712,-6.920555 h 1.32812 l 2.23307,5.390611 2.25259,-5.390611 z"
       style="text-align:center;text-anchor:middle"
       id="path36" />
  </g>
</svg>
