<?xml version="1.0" encoding="utf-8"?>
<!-- Generator: Adobe Illustrator 25.0.1, SVG Export Plug-In . SVG Version: 6.00 Build 0)  -->
<svg version="1.1" id="Capa_1" xmlns="http://www.w3.org/2000/svg" xmlns:xlink="http://www.w3.org/1999/xlink" x="0px" y="0px"
	 width="136.5px" height="50.8px" viewBox="0 0 136.5 50.8" enable-background="new 0 0 136.5 50.8" xml:space="preserve">
<g id="Group_858" transform="translate(92.728 184.782)">
	<g>
		<path id="Path_739_8_" d="M-16.2-167.5h-7.4v20.8h-5.1v-20.8H-36v-4.4h19.8V-167.5z"/>
		<path id="Path_740_8_" d="M-1.3-164.7v18h-4.8v-2.9c-1.4,2.1-3.8,3.3-6.3,3.2c-4.7,0-8.2-3.9-8.2-9.3s3.5-9.3,8.2-9.3
			c2.5,0,4.9,1.2,6.3,3.2v-2.9H-1.3z M-6.1-155.7c0-3.1-2-5.2-4.8-5.2s-4.8,2.2-4.8,5.2c-0.2,2.7,1.8,5,4.5,5.2c0.1,0,0.2,0,0.3,0
			C-8.1-150.5-6.1-152.7-6.1-155.7L-6.1-155.7z"/>
		<path id="Path_741_8_" d="M29.2-158.6v11.8h-4.8V-158c0.1-1.7-1.2-3.3-2.9-3.4c-1.7-0.1-3.3,1.2-3.4,2.9c0,0.1,0,0.3,0,0.4v11.2
			h-4.8v-11.2c0-2.1-1.2-3.4-3.1-3.4c-1.7-0.1-3.1,1.2-3.2,2.9c0,0.2,0,0.3,0,0.5v11.2H2.3v-18H7v2.9c0.9-2,3-3.3,5.3-3.2
			c2.3-0.1,4.4,1.3,5.2,3.5c1-2.2,3.2-3.5,5.6-3.5C26.7-165,29.2-162.4,29.2-158.6z"/>
		<path id="Path_742_8_" d="M43.7-165.3v4.7c-3.9,0-6.5,2-6.5,5.2v8.6h-4.7v-18h4.7v4C38.2-163.4,40.8-165.3,43.7-165.3z"/>
	</g>
</g>
<g id="Group_859" transform="translate(55.738 191.68)">
	<path id="Path_743" fill="#0859C6" d="M-24.7-166.3c0,3.1-2.5,5.7-5.7,5.7s-5.7-2.5-5.7-5.7s2.5-5.7,5.7-5.7l0,0
		C-27.2-171.9-24.7-169.4-24.7-166.3"/>
</g>
<g id="Group_861" transform="translate(45.081 181.026)">
	<path id="Path_753" fill="#089FFF" d="M-33.2-152.8c-1.6,0-2.8-1.3-2.8-2.8c0-1.6,1.3-2.8,2.8-2.8c1.6,0,2.8,1.3,2.8,2.8
		C-30.3-154.1-31.6-152.8-33.2-152.8L-33.2-152.8"/>
	<path id="Path_754" fill="#089FFF" d="M-6.2-152.8c1.6,0,2.8-1.3,2.8-2.8c0-1.6-1.3-2.8-2.8-2.8c-1.6,0-2.8,1.3-2.8,2.8
		S-7.8-152.8-6.2-152.8L-6.2-152.8"/>
	<path id="Path_755" fill="#089FFF" d="M-16.8-142.1c0,1.6-1.3,2.8-2.8,2.8s-2.8-1.3-2.8-2.8c0-1.6,1.3-2.8,2.8-2.8
		C-18.1-145-16.8-143.7-16.8-142.1L-16.8-142.1"/>
	<path id="Path_756" fill="#089FFF" d="M-16.8-169.1c0-1.6-1.3-2.8-2.8-2.8c-1.6,0-2.8,1.3-2.8,2.8c0,1.6,1.3,2.8,2.8,2.8
		C-18.1-166.3-16.8-167.5-16.8-169.1L-16.8-169.1"/>
	<path id="Path_757" fill="#089FFF" d="M-27.2-144.1c-1.1,1.1-2.9,1.1-4,0c-1.1-1.1-1.1-2.9,0-4c1.1-1.1,2.9-1.1,4,0
		S-26.1-145.2-27.2-144.1L-27.2-144.1"/>
	<path id="Path_758" fill="#089FFF" d="M-8.1-163.1c1.1-1.1,1.1-2.9,0-4s-2.9-1.1-4,0s-1.1,2.9,0,4S-9.2-162-8.1-163.1L-8.1-163.1"
		/>
	<path id="Path_759" fill="#089FFF" d="M-8.1-148.1c1.1,1.1,1.1,2.9,0,4s-2.9,1.1-4,0s-1.1-2.9,0-4C-11-149.2-9.2-149.2-8.1-148.1
		L-8.1-148.1"/>
	<path id="Path_760" fill="#089FFF" d="M-27.2-167.2c-1.1-1.1-2.9-1.1-4,0c-1.1,1.1-1.1,2.9,0,4c1.1,1.1,2.9,1.1,4,0l0,0
		C-26.1-164.3-26.1-166.1-27.2-167.2L-27.2-167.2"/>
</g>
<g id="Group_862" transform="translate(36 171.945)">
	<path id="Path_761" fill="#00CCFF" d="M-33.2-143.7c-1.6,0-2.8-1.3-2.8-2.8s1.3-2.8,2.8-2.8c1.6,0,2.8,1.3,2.8,2.8
		C-30.3-145-31.6-143.7-33.2-143.7L-33.2-143.7"/>
	<path id="Path_762" fill="#00CCFF" d="M12-143.7c1.6,0,2.8-1.3,2.8-2.8s-1.3-2.8-2.8-2.8c-1.6,0-2.8,1.3-2.8,2.8
		C9.1-145,10.4-143.7,12-143.7L12-143.7"/>
	<path id="Path_763" fill="#00CCFF" d="M-7.8-124c0,1.6-1.3,2.8-2.8,2.8s-2.8-1.3-2.8-2.8c0-1.6,1.3-2.8,2.8-2.8
		C-9-126.8-7.8-125.5-7.8-124L-7.8-124"/>
	<path id="Path_764" fill="#00CCFF" d="M-7.8-169.1c0-1.6-1.3-2.8-2.8-2.8c-1.6,0-2.8,1.3-2.8,2.8c0,1.6,1.3,2.8,2.8,2.8
		C-9-166.3-7.8-167.5-7.8-169.1L-7.8-169.1"/>
	<path id="Path_765" fill="#00CCFF" d="M-24.5-128.6c-1.1,1.1-2.9,1.1-4,0c-1.1-1.1-1.1-2.9,0-4s2.9-1.1,4,0S-23.4-129.7-24.5-128.6
		L-24.5-128.6"/>
	<path id="Path_766" fill="#00CCFF" d="M7.4-160.5c1.1-1.1,1.1-2.9,0-4s-2.9-1.1-4,0s-1.1,2.9,0,4l0,0
		C4.5-159.4,6.3-159.4,7.4-160.5L7.4-160.5"/>
	<path id="Path_767" fill="#00CCFF" d="M7.4-132.6c1.1,1.1,1.1,2.9,0,4c-1.1,1.1-2.9,1.1-4,0c-1.1-1.1-1.1-2.9,0-4l0,0
		C4.5-133.7,6.3-133.7,7.4-132.6L7.4-132.6"/>
	<path id="Path_768" fill="#00CCFF" d="M-24.5-164.5c-1.1-1.1-2.9-1.1-4,0s-1.1,2.9,0,4s2.9,1.1,4,0l0,0
		C-23.4-161.6-23.4-163.4-24.5-164.5L-24.5-164.5"/>
</g>
</svg>
