<?xml version="1.0" encoding="utf-8"?>
<!-- Generator: Adobe Illustrator 25.0.1, SVG Export Plug-In . SVG Version: 6.00 Build 0)  -->
<svg version="1.1" id="Layer_1" xmlns="http://www.w3.org/2000/svg" xmlns:xlink="http://www.w3.org/1999/xlink" x="0px" y="0px"
	 width="1927.446px" height="259.035px" viewBox="0 0 1927.446 259.035" enable-background="new 0 0 1927.446 259.035"
	 xml:space="preserve">
<g>
	<g>
		<path fill="#333333" d="M108.69,53.046v174.765c0,0-22.902,0-22.902-13.632V53.046H42.71c-16.631,0-19.085-14.723-19.085-22.902
			c0,0,4.907,4.09,23.447,4.09h101.151c18.54,0,23.447-4.09,23.447-4.09c0,8.179-2.454,22.902-19.085,22.902H108.69z"/>
		<path fill="#333333" d="M196.177,31.508c0,0,22.902,0,22.902,13.632v182.672c0,0-22.902,0-22.902-13.632V31.508z"/>
		<path fill="#333333" d="M407.417,87.672c0-11.451,1.908-24.538,1.908-24.538l-60.527,123.781c0,0-12.814,0-21.266-13.632
			l-51.53-110.148c0,0,1.908,13.087,1.908,24.538v140.139c0,0-22.902,0-22.902-13.632V34.234h16.631
			c1.09,0,13.359-0.273,19.903,13.632l50.712,108.785l58.619-122.417c6.543,0,29.445,0,29.445,13.632v179.945
			c0,0-22.902,0-22.902-13.632V87.672z"/>
		<path fill="#333333" d="M489.748,130.478v75.795h97.333c0,1.091-0.272,18.812-13.632,18.812h-83.702c0,0-22.902,0-22.902-13.632
			V34.234h120.236c0,0,0,18.812-13.632,18.812h-83.702v58.619h62.98c18.54,0,23.447-4.09,23.447-4.09
			c0,8.18-2.454,22.902-19.085,22.902H489.748z"/>
	</g>
	<g>
		<path fill="#333333" d="M1015.44,53.046v174.765c0,0-22.902,0-22.902-13.632V53.046H949.46c-16.631,0-19.085-14.723-19.085-22.902
			c0,0,4.907,4.09,23.447,4.09h101.151c18.539,0,23.447-4.09,23.447-4.09c0,8.179-2.454,22.902-19.086,22.902H1015.44z"/>
		<path fill="#333333" d="M1125.829,130.478v75.795h97.334c0,1.091-0.273,18.812-13.633,18.812h-83.701c0,0-22.902,0-22.902-13.632
			V34.234h120.236c0,0,0,18.812-13.633,18.812h-83.701v58.619h62.98c18.54,0,23.447-4.09,23.447-4.09
			c0,8.18-2.453,22.902-19.085,22.902H1125.829z"/>
		<path fill="#333333" d="M1369.104,177.1l12.542,20.721c0,0-2.727-14.177-2.727-22.356V34.234c0,0,22.902,0,22.902,13.632v179.945
			c-29.174,0-37.08-17.722-37.08-17.722l-91.608-148.045c0,0,2.727,13.087,2.727,24.538v141.229c0,0-22.902,0-22.902-13.632V34.234
			c15.54,0,28.354,0,36.808,13.632L1369.104,177.1z"/>
		<path fill="#333333" d="M1460.569,225.085c-2.182,0-22.357-0.545-22.357-13.632V34.234h72.251
			c40.079,0,77.977,13.632,77.977,62.98v64.889c0,49.349-37.897,62.981-77.977,62.981H1460.569z M1461.114,53.046v153.226h49.349
			c30.81,0,55.074-11.451,55.074-46.895V99.669c0-35.444-24.265-46.623-55.074-46.623H1461.114z"/>
		<path fill="#333333" d="M1645.005,130.478v75.795h97.334c0,1.091-0.272,18.812-13.632,18.812h-83.702c0,0-22.902,0-22.902-13.632
			V34.234h120.236c0,0,0,18.812-13.632,18.812h-83.702v58.619h62.98c18.541,0,23.447-4.09,23.447-4.09
			c0,8.18-2.453,22.902-19.084,22.902H1645.005z"/>
		<path fill="#333333" d="M1837.296,136.203c37.625,14.723,53.165,70.069,66.525,90.245c0,0-3.272,0.818-7.907,0.818
			c-7.634,0-19.357-2.454-26.446-15.541c-21.539-40.079-31.627-69.252-74.432-74.705v90.791c0,0-22.902-0.273-22.902-13.632V34.234
			h56.165c37.352,0,64.344,11.724,64.344,46.077v8.179C1892.643,119.299,1869.468,136.203,1837.296,136.203z M1795.036,53.046v65.98
			h35.443c29.173,0,39.261-11.996,39.261-34.626c0-23.174-13.359-31.354-41.441-31.354H1795.036z"/>
	</g>
	<polygon fill="#FF5C00" points="926.91,240.143 825.28,222.703 761.53,156.943 698.53,223.033 609.8,240.473 713.02,128.812 
		610.36,18.562 702.05,37.833 761.53,100.552 821.02,37.833 917.91,18.703 810.05,128.812 	"/>
</g>
</svg>
