<?xml version="1.0" encoding="utf-8"?>
<!-- Generator: Adobe Illustrator 25.0.1, SVG Export Plug-In . SVG Version: 6.00 Build 0)  -->
<svg version="1.1" id="Layer_1" xmlns="http://www.w3.org/2000/svg" xmlns:xlink="http://www.w3.org/1999/xlink" x="0px" y="0px"
	 width="3405.333px" height="977.933px" viewBox="0 0 3405.333 977.933" enable-background="new 0 0 3405.333 977.933"
	 xml:space="preserve">
<g>
	<path fill="#262626" d="M1402.265,441.599l-149.874-202.035h88.701l106.441,147.415l107.053-147.415h86.254l-149.262,200.86
		l155.38,210.256h-88.701l-112.558-155.637l-113.171,155.637h-86.254L1402.265,441.599z"/>
	<path fill="#262626" d="M2048.564,238.151h68.378v412.53h-68.378V238.151z"/>
	<path fill="#262626" d="M2178.574,502.622v-1.13c0-80.802,62.295-153.177,150.21-153.177c97.811,0,147.299,72.367,147.299,158.263
		c0,6.216-0.583,12.433-1.164,19.214h-229.461c7.569,48.6,50.25,78.648,92.059,78.648c34.351,0,62.364-6.455,86.816-29.625
		l33.497,40.233c-30.497,29.517-65.002,42.415-121.477,42.415C2247.275,657.462,2178.574,594.735,2178.574,502.622z
		 M2415.333,480.583c-4.657-44.079-29.25-78.55-83.447-78.55c-52.303,0-79.229,30.024-85.634,76.363L2415.333,480.583z"/>
	<path fill="#262626" d="M2543.021,352.303h64.92v46.339c18.723-28.255,62.33-49.671,107.486-49.671
		c65.531,0,93.656,37.969,93.656,111.833v189.877h-66.634V481.148c0-65.521-19.154-72.878-58.803-72.878
		c-38.548,0-75.705,21.42-75.705,58.545v183.866h-64.92V352.303z"/>
	<path fill="#262626" d="M2900.857,570.987V412.533h-46.774v-57.418h46.774v-81.94h65.089v81.94h64.199v57.418h-64.199V560.25
		c0,26.56,12.91,37.297,34.966,37.297c14.524,0,27.434-3.391,27.434-3.391l12.91,49.165c-16.138,9.607-34.427,15.258-58.634,15.258
		C2934.746,658.579,2900.857,636.54,2900.857,570.987z"/>
	<path fill="#262626" d="M3074.771,763.125l10.452-57.132c15.236,2.508,25.18,3.882,39.986,3.882
		c20.136,0,29.781-32.074,41.625-58.069L3044.41,353.428h76.397l81.591,221.523l88.377-221.523h69.612l-124.366,306.854
		c-24.874,61.032-51.099,109.03-101.438,109.03C3115.083,769.312,3083.926,765.057,3074.771,763.125z"/>
	<path fill="#262626" d="M1851.099,347.846c-44.655,0-74.284,22.588-95.579,51.613v-45.397h-3.096h-53.154h-7.875v409.753h7.875
		h53.154h3.096V608.41c20.339,26.01,49.983,48.487,95.579,48.487c69.459,0,134.765-54.187,134.765-153.081v-1.13
		C1985.864,403.792,1920.006,347.846,1851.099,347.846z M1918.904,503.816c0,58.771-37.486,93.745-83.24,93.745
		c-35.899,0-65.519-14.59-80.144-42.61V453.948c14.062-30.375,44.244-46.766,80.144-46.766c45.203,0,83.24,37.862,83.24,95.503
		V503.816z"/>
	<path fill="#0D86EF" d="M295.589,452.18l85.374,68.301l117.393-192.099l149.412,239.057l81.108-64.034l89.644,132.335
		c21.344-46.957,38.421-102.451,38.421-155.814c0-202.768-160.08-362.852-362.855-362.852
		c-202.768,0-369.253,164.351-369.253,362.855c0,64.031,17.077,117.393,42.691,170.752l128.065-198.505L295.589,452.18z"/>
	<path fill="#3F3F3F" d="M493.044,70.869c56.456,0,111.207,11.051,162.733,32.844c49.783,21.056,94.499,51.207,132.907,89.614
		c38.407,38.407,68.558,83.123,89.614,132.907c21.793,51.526,32.844,106.277,32.844,162.733s-11.05,111.208-32.844,162.733
		c-21.057,49.783-51.207,94.5-89.614,132.907c-38.407,38.407-83.123,68.558-132.907,89.614
		c-51.526,21.793-106.277,32.844-162.733,32.844s-111.207-11.051-162.733-32.844c-49.783-21.056-94.499-51.207-132.907-89.614
		c-38.407-38.407-68.558-83.123-89.614-132.907c-21.793-51.526-32.844-106.277-32.844-162.733s11.05-111.208,32.844-162.733
		c21.057-49.783,51.207-94.5,89.614-132.907c38.407-38.407,83.123-68.558,132.907-89.614
		C381.836,81.919,436.588,70.869,493.044,70.869 M493.044,40.869c-247.478,0-448.098,200.62-448.098,448.098
		s200.62,448.098,448.098,448.098s448.098-200.62,448.098-448.098S740.521,40.869,493.044,40.869L493.044,40.869z"/>
</g>
</svg>
