<svg xmlns="http://www.w3.org/2000/svg" role="img" viewBox="-21.24 -21.24 1104.48 268.48"><title>Ab Initio Ingestion logo</title><path fill="#008DCC" d="M322.8 147.1v-1c-2-17.3-10.2-33.6-23.4-44.8C286.2 89.1 268.9 82 250.5 82c-27.5 0-51.9 15.3-64.1 38.7V4.6c0-2-2-4.1-4.1-4.1-2 0-4.1 2-4.1 4.1v141.5c0 1 1 2 1 3.1h1c1 1 2 2 4.1 1 1 0 2-2 2-3.1 4.1-32.6 31.6-57 64.1-57 33.6 0 61.1 24.4 64.1 57 0 2 2 4.1 4.1 4.1 2.1-1 4.2-2.1 4.2-4.1z"/><path fill="#323883" d="M638.4 220.4v-12.2c-2-17.3-10.2-34.6-23.4-46.8-14.3-12.2-31.6-19.3-49.9-19.3-18.3 0-36.7 6.1-49.9 19.3-14.3 12.2-22.4 28.5-23.4 46.8l-1 12.2c0 2 2 4.1 4.1 4.1s4.1-2 4.1-4.1v-11.2c3.1-33.6 32.6-59.1 66.2-59.1s62.1 25.5 65.2 59.1v12.2c1 2 2 4.1 5.1 3.1 1.9 0 2.9-1 2.9-4.1z"/><path fill="#C6156B" d="M839 89.1c0 2-1 4.1-4.1 4.1H710.7c-2 0-4.1-2-4.1-4.1 0-2 2-4.1 4.1-4.1h124.2c3.1 0 4.1 2 4.1 4.1z"/><path fill="#D01E43" d="M876.7 85c0-2-1-4.1-4.1-4.1-2 0-4.1 2-4.1 4.1v136.4c0 2 2 4.1 4.1 4.1 3.1 0 4.1-2 4.1-4.1V85z"/><path fill="#C6156B" d="M774.8 103.3c0-2-2-4.1-4.1-4.1s-4.1 2-4.1 4.1v119.1c0 2 2 4.1 4.1 4.1s4.1-2 4.1-4.1V103.3z"/><path fill="#008DCC" d="M154.8 222.4c0-1 0-1-1-2L88.6 87c-1-2-4.1-2-6.1-2-2 1-2 4.1-1 6.1l65.2 133.4c1 2 4.1 2 6.1 1 .9 0 2-2 2-3.1zM74.3 89.1c0-1-1-3.1-3.1-4.1-1 0-4.1 0-5.1 2L0 220.4v2c0 1 1 3.1 2 3.1 2 1 5.1 1 6.1-1L73.3 91.1c1-1 1-1 1-2z"/><path fill="#B31869" d="M680.2 85c0-3.1-2-4.1-4.1-4.1-2 0-4.1 1-4.1 4.1v136.4c0 2 2 4.1 4.1 4.1 2 0 4.1-2 4.1-4.1V85z"/><path fill="#0071B9" d="M457.2 85c0-3.1-1-4.1-4.1-4.1-2 0-4.1 1-4.1 4.1v136.4c0 2 2 4.1 4.1 4.1 3.1 0 4.1-2 4.1-4.1V85z"/><path fill="#F08124" d="M1063 160.3c0-2-2-3.1-4.1-3.1-2-1-4.1 1-4.1 3.1-3.1 33.6-31.6 59.1-65.2 59.1s-62.1-25.5-65.2-59.1c0-2-2-4.1-4.1-3.1-2 0-4.1 2-4.1 4.1 2 17.3 10.2 34.6 23.4 46.8 14.3 12.2 31.6 18.3 49.9 18.3s35.6-6.1 49.9-18.3c13.2-12.2 21.4-29.5 23.4-46.8.2.1.2.1.2-1zm0-13.2v-1c-2-17.3-11.2-33.6-24.4-45.8S1008.1 82 989.7 82c-37.7 0-69.2 27.5-73.3 64.1 0 2 2 4.1 4.1 5.1 2 0 4.1-2 4.1-4.1 4.1-32.6 31.6-58 65.2-58s61.1 25.5 65.2 58c0 2 2 4.1 4.1 3.1 1.9 0 3.9-1.1 3.9-3.1z"/><path fill="#008DCC" d="M322.8 160.3c0-2-1-4.1-4.1-4.1-2 0-4.1 2-4.1 4.1-3.1 32.6-30.5 57-64.1 57s-61.1-24.4-64.1-57c0-2-2-4.1-4.1-4.1-2 0-4.1 2-4.1 5.1 2 17.3 10.2 33.6 23.4 45.8 13.2 12.2 30.5 18.3 48.9 18.3s35.6-6.1 48.9-18.3c13.2-12.2 21.4-28.5 23.4-45.8v-1z"/></svg>