<svg xmlns="http://www.w3.org/2000/svg" role="img" viewBox="-3.99 -4.99 259.74 114.99"><title>Alteryx Business Intelligence logo</title><style>svg {enable-background:new 0 0 250 130}</style><path fill="#0093d0" fill-rule="evenodd" d="M55.6 0c.4 0 .6 0 .8.2.2.1.4.4.7 1l.1 46.8.2.7c.1.4.3.9.4 1.1.1.2.3.7.5.9.2.3.5.6.6.8.2.2.5.4.7.5.2.1.6.3.9.4.3.1.9.2 1.3.3.6.1 1.1.1 1.7 0 .5 0 1.4-.2 1.9-.3.5-.1 1.3-.3 1.8-.5.6-.2.9-.2 1.2-.2.2 0 .5.1.7.2.2.1.4.3.5.5.1.2.3.9.5 1.6.2.7.4 1.6.4 1.9.1.5 0 .6-.2.9-.1.2-.4.5-.6.6-.2.2-.9.4-1.6.7-.7.2-1.5.5-1.9.6-.4.1-1.2.3-1.7.3-.7.1-1.6.2-2.7.2-1 0-2 0-2.5-.1-.5 0-1.2-.2-1.7-.3-.4-.1-1.2-.3-1.7-.5s-1.2-.5-1.6-.6-.9-.5-1.2-.7c-.3-.2-.8-.6-1.1-1-.3-.3-.7-.8-.9-1.1-.2-.3-.5-.8-.7-1.2-.2-.4-.4-1-.5-1.4-.1-.4-.3-1.1-.3-1.5-.1-.5-.2-1.3-.2-2 0-.8-.1-9-.1-23.2 0-18.7 0-22 .1-22.2.1-.1.4-.5.7-.8s.9-.8 1.2-1c.4-.3.9-.7 1.3-.9.4-.2 1-.5 1.5-.7.8.1 1.1 0 1.5 0zm30.9 2.7c.2 0 .4.1.5.1.1 0 .3.2.4.3.1.1.3.4.4.7.1.4.1 1.5.1 14.4h4.8c4.2 0 4.9 0 5.1.2.2.1.4.3.7.7v2.1c0 2 0 2.1-.2 2.4l-.4.4c-.2.2-.4.2-5.2.2-4.6 0-4.9 0-4.9.2 0 .1-.1 5.1-.1 11.2-.1 7.7-.1 11.3 0 11.9.1.5.1 1.1.2 1.4.1.3.2.8.3 1 .1.3.3.7.4.9.2.2.5.6.7.8s.7.5 1 .7c.3.1.8.3 1.2.4.3.1 1 .1 1.5.1s1.3-.1 2-.2c.6-.1 1.6-.3 2.2-.5.6-.2 1.3-.3 1.4-.3s.5.1.7.2c.2.1.4.3.6.5.1.2.3.5.4.7s.2.8.3 1.2c.1.5.3 1.1.3 1.4.1.4.1.7 0 .9-.1.2-.2.5-.3.6-.1.2-.5.4-.7.5-.3.2-1 .4-1.5.6-.6.2-1.5.4-2 .6-.5.1-1.5.3-2.1.4-.9.1-1.6.1-3 .1-1.2 0-2.1-.1-2.6-.2-.4-.1-1.1-.2-1.6-.4-.4-.1-1.1-.3-1.5-.5l-1.4-.7c-.4-.2-.9-.7-1.3-1-.3-.3-.8-.8-1-1.1-.2-.3-.6-.8-.8-1.2-.2-.4-.5-1-.6-1.3-.1-.3-.3-1-.4-1.4-.1-.4-.2-1.1-.3-1.4-.1-.4-.1-1.9-.1-3.3 0-1.5 0-6.4.1-11.8.1-5 .2-9.5.2-10.9h-2.6c-2.5 0-2.6 0-2.9-.2-.2-.1-.4-.3-.6-.5.1-.1.1-.4.1-2 0-1.2 0-2 .1-2.3.1-.2.2-.5.3-.6.1-.1.3-.3.5-.4.3-.1.6-.1 5.4-.1l.1-1.8c0-1 .1-3.3.1-5.1 0-1.8.1-3.7.1-5.1l.7-.7c.4-.4 1.1-.9 1.5-1.2.4-.3 1.1-.7 1.5-.9.4-.2 1-.4 1.3-.5.4-.2.6-.2.9-.2zm-70 13.2c1.5 0 2.9.1 3.6.2.6.1 1.6.2 2.2.3s1.3.2 1.6.3c.3.1 1.2.3 1.9.5.8.2 1.8.5 2.3.7.5.2 1.2.4 1.7.6.4.2 1 .5 1.3.7s.6.5.8.7l.4.8c.1.3.1 4.1.1 15 0 10 0 14.7.1 15 0 .3.2.7.3.8.1.2.3.4.5.5.3.2.5.2 1.3.2.7 0 1.3-.1 2.3-.3.9-.2 1.5-.3 1.7-.2.2 0 .5.1.7.2.2.1.4.3.6.4.1.2.3.4.4.6.1.2.3.8.4 1.5.2.7.3 1.4.3 1.8 0 .4 0 .7-.1.9-.1.3-.3.5-.5.8-.2.2-.7.5-1 .7-.3.2-1 .4-1.4.5-.4.1-1.1.3-1.6.4-.5.1-1.3.2-1.8.3-.6.1-1.2.1-2 0-.6 0-1.4-.2-1.8-.3s-1-.3-1.3-.4c-.3-.1-.7-.3-.9-.4-.2-.1-.5-.4-.8-.6-.3-.2-.7-.7-1-1-.3-.3-.6-.9-.7-1.2-.1-.3-.3-.6-.4-.5l-.8.6c-.4.3-1.1.8-1.5 1-.4.3-1.1.7-1.6.9-.5.2-1.2.6-1.7.7-.5.2-1.3.4-1.8.6s-1.4.3-1.9.4c-.7.1-1.6.2-2.6.2-.9 0-1.9 0-2.3-.1-.4-.1-1.1-.2-1.6-.3-.4-.1-1.1-.3-1.6-.4-.4-.1-1.2-.5-1.6-.7-.7-.3-1.4-.8-1.7-1-.3-.3-.9-.8-1.2-1.1-.3-.4-.8-1-1.1-1.4-.3-.4-.6-1.1-.8-1.5-.2-.4-.4-1.1-.5-1.4-.1-.4-.2-1.1-.3-1.6-.1-.8-.1-1.5-.1-3.1s.1-2.2.2-2.9c.1-.5.3-1.2.4-1.6.1-.4.4-1 .6-1.4s.5-.9.7-1.2c.2-.3.7-.9 1.2-1.4.4-.4 1.1-1 1.5-1.3.4-.3 1.1-.7 1.6-.9.5-.2 1.3-.5 1.7-.7.4-.1 1.2-.4 1.7-.5.5-.1 1.2-.3 1.7-.3.5-.1 1.2-.2 1.6-.2.4 0 1.9-.1 3.2-.2 1.4 0 3.6-.1 7.6-.2v-11l-.7-.2c-.4-.2-1.1-.5-1.5-.6s-1.4-.4-2-.5c-.6-.1-1.5-.3-2-.3-.5-.1-1.8-.1-2.9-.1-1.4 0-2.3 0-3.1.1-.6.1-1.8.3-2.7.4-.9.2-1.9.3-2.3.3-.3 0-.7 0-.8-.1-.2-.1-.4-.3-.6-.4-.2-.2-.4-.7-.6-1.5-.2-.6-.4-1.3-.4-1.5 0-.3 0-.5.1-.8.1-.2.3-.5.5-.7.2-.2.6-.4.8-.5.3-.1 1.1-.3 1.9-.5s2-.4 2.7-.5c.7-.1 1.6-.2 2.1-.3s2 .1 3.3.2zm-1.9 24.4c-.6.1-1.4.2-1.9.4-.4.1-1.1.3-1.4.5-.3.2-.8.5-1.1.7-.3.2-.6.6-.8.9s-.3.8-.5 1.2c-.1.3-.3 1-.4 1.5-.1.7-.1 1.3-.1 2.2 0 .8.1 1.6.2 2 .2.3.4.9.6 1.3.2.5.5.8.8 1.2.3.3.7.6 1.1.8.3.2.9.4 1.3.5.4.1 1.1.2 1.7.3.7.1 1.3.1 2 0 .6 0 1.4-.2 1.9-.3.5-.1 1.3-.3 1.8-.4.5-.1 1.3-.4 1.8-.6.5-.2 1.1-.5 1.4-.6.3-.2.9-.5 1.3-.7l.7-.5V39.8c-1 0-3.1.1-5.4.2-2.1.1-4.4.3-5 .3zm110.5-23.9c1 0 2.1 0 2.6.1.4 0 1.3.2 1.8.3.6.1 1.4.4 1.8.5.4.2 1.1.4 1.4.6s.9.5 1.2.7c.3.2.9.6 1.3.9.4.3.9.8 1.2 1.1.3.3.7.8.9 1.1.2.3.6.8.8 1.1s.6 1 .8 1.5c.2.5.5 1.2.7 1.6.1.5.4 1.1.4 1.5s.2 1.1.3 1.6c.1.5.2 1.4.3 2 .1.7.1 2.1.1 4.3 0 2.8-.1 3.3-.2 3.6-.1.2-.2.4-.3.5s-.3.3-.4.3c-.2.1-2.1.1-24.1.1l.1 1.9c0 1.1.1 2.3.2 2.8s.2 1.3.3 1.7c.1.4.3 1.2.5 1.6.2.4.5 1.1.7 1.5.2.4.7 1 .9 1.3.3.3.7.7 1 .9.3.2.8.5 1.1.7.3.2 1 .5 1.5.6.5.2 1.3.4 1.9.5.9.2 1.3.2 3.3.2 1.9 0 2.5 0 3.4-.2.6-.1 1.8-.3 2.6-.5s2.1-.5 2.8-.6c1.2-.2 1.4-.3 1.7-.2.3.1.5.2.8.5.3.3.4.5.5.9.1.3.3.9.4 1.5.1.6.3 1.3.3 1.6 0 .4 0 .6-.1.8-.1.1-.3.4-.4.5s-.6.4-.9.6-1 .4-1.5.6c-.5.2-1.4.5-1.9.6-.5.1-1.4.3-1.9.4-.5.1-1.4.2-2 .3-.6.1-1.7.2-2.5.2h-2.9c-.8 0-1.9-.1-2.5-.2-.6-.1-1.5-.2-2-.4-.5-.1-1.4-.3-1.9-.5s-1.2-.5-1.7-.6c-.4-.2-1.1-.5-1.5-.8s-1.1-.7-1.4-1c-.4-.3-1-.8-1.5-1.3-.4-.4-1-1.1-1.3-1.5-.3-.4-.7-1-1-1.4-.2-.4-.7-1.2-.9-1.8-.3-.6-.7-1.6-.9-2.3s-.5-1.7-.6-2.2-.3-1.5-.4-2.2c-.1-.7-.2-1.8-.3-2.5-.1-.8-.1-2.2-.1-3.9 0-1.6.1-3.1.2-3.8.1-.6.2-1.7.3-2.3.1-.7.3-1.7.5-2.3.2-.6.4-1.5.6-2s.6-1.4.8-2c.3-.6.7-1.4 1-1.8s.7-1 .9-1.4c.3-.4.7-.9 1-1.2l1.3-1.3c.4-.4 1.1-.9 1.5-1.1.4-.3 1.1-.7 1.7-.9.5-.3 1.4-.6 1.9-.8.5-.2 1.3-.4 1.8-.5.5-.1 1.2-.2 1.5-.3.5.3 1.5.2 2.5.2zm-3.1 6.2c-.3.1-.8.3-1.2.5s-.8.5-1.2.7c-.3.3-.8.7-1 .9-.2.3-.5.6-.7.9-.2.2-.4.8-.7 1.1-.2.4-.5 1.1-.7 1.7-.2.5-.4 1.3-.5 1.8-.1.5-.2 1.2-.3 1.6-.1.4-.1 1.2-.2 1.8l-.1 1.1H133c.1-.4.1-1.4.1-2.6 0-1.5-.1-2.4-.2-3-.1-.4-.3-1.2-.4-1.7-.2-.5-.5-1.2-.7-1.6-.3-.5-.6-.9-1.1-1.4-.5-.5-.9-.8-1.4-1.1-.4-.2-.9-.5-1.3-.6-.3-.1-1-.3-1.4-.3-.5-.1-1.2-.1-2-.1-.7 0-1.5.1-1.8.1 0 0-.5.1-.8.2zm46.2-4.6c.8 0 1.6.1 1.9.1.3 0 .6.1.7.2.1.1.3.3.4.5.1.2.2.5.2.6 0 .2-.1 1.2-.3 2.4-.2 1.4-.4 2.2-.5 2.4-.1.2-.3.4-.6.5-.4.2-.4.2-1.5 0-.8-.1-1.4-.1-2-.1-.5 0-1.2.1-1.5.2-.4.1-.9.3-1.3.5s-.8.4-1.1.6c-.2.1-.7.5-1.1.8-.4.3-.9.8-1.1 1-.3.3-.7.7-1.3 1.5v14.3c0 10.5 0 14.4-.1 14.7-.1.3-.2.5-.4.8-.2.2-.4.4-.7.5-.3.1-1 .1-5.4.1l-.3-.2c-.2-.1-.4-.4-.5-.6-.2-.3-.2-.5-.2-19.4V20.1c0-.2.2-.4.4-.6.2-.2.5-.4.6-.5.2-.1 1-.1 2.6-.1 2 0 2.4 0 2.7.1.3.1.5.3.6.4l.3.6c.1.2.1.7.1 1.1v.9c0 .1.3-.1 1-.8.5-.5 1.3-1.1 1.7-1.4s1-.6 1.4-.8c.3-.2 1-.4 1.4-.6.5-.1 1.2-.3 1.6-.4.7 0 1.3-.1 2.3 0zm53.9.6c2.5 0 2.6 0 3 .2.2.1.5.3.6.5.1.2 2.1 3.1 4.3 6.5 2.2 3.4 4.1 6.2 4.1 6.2s1.9-2.8 4.1-6.1c2.2-3.4 4.1-6.3 4.3-6.5.1-.2.4-.4 1.1-.8h2.6c2.1 0 2.7 0 2.9.1.2.1.4.3.6.4.2.2.2.3.2.7 0 .2-.1.5-.1.7-.1.1-2.7 4.2-5.8 9-3.1 4.8-5.7 8.8-5.7 8.8s2.8 4.4 6.2 9.6c3.4 5.2 6.3 9.6 6.3 9.7 0 .1.1.4.1.7 0 .3-.1.5-.1.7-.1.1-.3.3-.4.3-.2.1-1 .1-3 .1-1.8 0-2.9 0-3.1-.1-.2-.1-.5-.2-.6-.3-.2-.2-.6-.6-1.4-1.8-.6-.9-2.6-4-4.5-7s-3.5-5.4-3.5-5.4-2.1 3-4.5 6.8c-2.6 4-4.6 7-4.8 7.2-.2.2-.5.4-.8.5-.4.1-.8.1-3.2.1-2.1 0-2.8 0-3-.1-.1-.1-.4-.2-.5-.4-.1-.2-.2-.4-.2-.7 0-.2.1-.5.1-.7.1-.2 2.9-4.5 6.4-9.8 3.4-5.2 6.2-9.5 6.2-9.5s-2.5-3.9-5.6-8.7c-3.1-4.8-5.7-8.9-5.8-9.1-.1-.2-.2-.5-.2-.7 0-.2.1-.4.1-.5.1-.1.2-.3.3-.4.1-.1.3-.2.5-.2h2.8zm-43.6.2h3.2c3.1 0 3.2 0 3.5.2.2.1.4.3.5.5.1.1 2.4 6.7 5.1 14.6 3.3 9.4 5 14.3 5 14.2 0-.1 2.3-6.5 5.1-14.2 2.8-7.7 5.1-14.2 5.2-14.4.1-.2.3-.5.8-.9h2.9c2.2 0 2.9 0 3.1.1.1.1.3.2.4.4.1.2.1.4 0 .6 0 .2-3.7 10.3-8.2 22.3-4.5 12.1-8.4 22.4-8.6 23-.2.6-.6 1.4-.8 1.8s-.6 1.2-.9 1.7c-.3.5-.8 1.2-1 1.6-.3.4-.9 1.1-1.4 1.6-.5.5-1.2 1.1-1.6 1.4-.4.3-1.2.8-1.8 1.1-.6.3-1.4.6-1.8.8s-1.1.3-1.7.4c-.6.1-1.5.3-2.1.3-.7.1-1.8.1-3 .1s-2.1-.1-2.6-.2-.8-.2-1-.3c-.1-.1-.3-.4-.3-.7-.1-.4-.1-.7-.1-1.3 0-.5.1-1.2.2-1.7.1-.4.2-1 .3-1.2.1-.2.2-.5.4-.6.1-.1.4-.3.5-.3.1 0 .9 0 1.6.1.9.1 1.8.1 2.5.1.6 0 1.5-.1 1.9-.2.5-.1 1.2-.3 1.6-.5.4-.2.9-.4 1.1-.6.3-.2.8-.6 1.1-1 .4-.4.9-1 1.1-1.4.2-.4.6-1 .8-1.4.2-.4.9-2.1 1.6-3.7.7-1.6 1.2-3 1.2-3.1 0-.1-3.2-8.6-7.1-19-6-15.8-7.1-19-7.1-19.3 0-.3.1-.5.2-.6l.2-.3z" clip-rule="evenodd"/><path d="M124.2 100.3c0 .8-.1 1.5-.4 2-.3.6-.7 1.1-1.2 1.5-.6.5-1.2.8-1.9 1-.7.2-1.6.3-2.7.3h-5.5V89.6h4.6c1.1 0 2 0 2.5.1.6.1 1.1.3 1.6.5.6.3 1 .7 1.2 1.2.3.5.4 1 .4 1.7s-.2 1.4-.6 1.9c-.4.5-.9.9-1.5 1.2v.1c1 .2 1.9.7 2.5 1.4.7.7 1 1.5 1 2.6zm-3.5-7c0-.4-.1-.7-.2-.9s-.3-.5-.6-.6c-.3-.2-.7-.3-1.2-.3s-1-.1-1.7-.1h-2.5v4.5h2.7c.6 0 1.2 0 1.5-.1.4-.1.7-.2 1.1-.4.3-.2.6-.5.7-.8.1-.4.2-.8.2-1.3zm1.3 7.1c0-.6-.1-1.1-.3-1.5-.2-.4-.5-.7-1-.9-.3-.2-.7-.3-1.2-.3-.5-.1-1-.1-1.7-.1h-3.2v5.8h2.7c.9 0 1.6 0 2.2-.1.6-.1 1-.3 1.4-.5.4-.3.7-.6.9-.9.2-.5.2-1 .2-1.5zm10.6 4.7h-6.1v-1.6h2V91.2h-2v-1.6h6.1v1.6h-2v12.3h2v1.6z"/></svg>