<svg xmlns="http://www.w3.org/2000/svg" role="img" viewBox="-16.28 -16.28 1002.56 322.56"><title>Apache Kafka Stream Processing logo</title><path d="M38.29984 286.19492C28.11117 282.56269 19.83988 274.97838 15.1851 265c-3.3475-7.17599-4.14541-19.18482-1.80876-27.22262 3.13482-10.78341 13.37418-21.83068 23.60065-25.4628L42 210.53056v-16.16532l-5.4291-1.71137c-10.84373-3.41818-22.1887-13.02366-28.00596-23.71188-7.36153-13.52557-7.36153-33.35841 0-46.88398 5.81726-10.68822 17.16223-20.2937 28.00596-23.71188L42 96.63476V80.46944l-5.02301-1.78402c-10.22647-3.63212-20.46583-14.67938-23.60065-25.4628-2.35674-8.1069-1.53964-20.01457 1.8864-27.49087 3.39897-7.41722 11.9702-16.01473 19.46901-19.52872C39.8523 3.80352 41.67902 3.5 51 3.5c9.32099 0 11.1477.30352 16.26825 2.70303 7.49882 3.51399 16.07004 12.1115 19.46901 19.52872 3.42604 7.4763 4.24314 19.38398 1.8864 27.49087-3.13945 10.79933-13.37487 21.83093-23.63709 25.47575l-5.05945 1.79696.28644 7.891.28644 7.891 5.24933 1.34067c7.01724 1.79219 12.0339 4.45431 18.83872 9.99692l5.66277 4.61239 4.1246-2.28868c2.26851-1.25877 5.62729-3.22561 7.46394-4.37075l3.33935-2.08207.16065-10.4929c.13953-9.11435.51576-11.25074 2.86367-16.26116 3.48151-7.42951 12.09921-16.04721 19.52872-19.52872C132.8523 54.80352 134.67901 54.5 144 54.5c9.32099 0 11.1477.30352 16.26825 2.70303 7.42951 3.4815 16.04721 12.0992 19.52872 19.52872C182.19648 81.8523 182.5 83.67902 182.5 93c0 9.32099-.30352 11.1477-2.70303 16.26825-3.48151 7.42951-12.09921 16.04721-19.52872 19.52872C155.1477 131.19648 153.32099 131.5 144 131.5c-11.8427 0-16.76846-1.61107-24.63555-8.05756l-4.29487-3.51932-7.56033 4.28844L99.94892 128.5l.77554 4c1.00569 5.18703.99884 20.9486-.0112 25.70408l-.7867 3.70409 7.67982 4.49559 7.67982 4.49559 4.18654-3.43056C127.22774 161.11418 132.19605 159.5 144 159.5c9.32099 0 11.1477.30352 16.26825 2.70303 7.42951 3.48151 16.04721 12.09921 19.52872 19.52872C182.19648 186.8523 182.5 188.67901 182.5 198c0 9.32099-.30352 11.1477-2.70303 16.26825-3.48151 7.42951-12.09921 16.04721-19.52872 19.52872C155.1477 236.19648 153.32099 236.5 144 236.5c-9.32099 0-11.1477-.30352-16.26825-2.70303-7.42951-3.48151-16.04721-12.09921-19.52872-19.52872-2.40924-5.1413-2.70303-6.93051-2.70303-16.46153v-10.69327l-7.1301-4.05673C94.44833 180.82553 90.95448 179 90.60576 179c-.34871 0-3.11948 2.02443-6.15726 4.49874-6.66872 5.43175-11.71724 8.10009-18.69918 9.88326L60.5 194.72266l-.28644 7.89101-.28644 7.89101 5.05945 1.79696c10.26222 3.64481 20.49764 14.67641 23.6371 25.47574 2.35673 8.10689 1.53963 20.01457-1.88641 27.49087-3.4239 7.47163-11.98075 16.03385-19.46901 19.48122-7.71665 3.55253-21.17429 4.22403-28.96841 1.44545zm19.98228-20.57176c11.7202-5.01474 14.4589-21.05067 5.09104-29.80954C51.80118 224.99391 33 233.15637 33 249c0 10.19211 7.59928 17.86778 17.78212 17.96086 2.35516.0215 5.73016-.58044 7.5-1.3377zm93-51c11.7202-5.01474 14.45891-21.05067 5.09104-29.80954C144.80118 173.99391 126 182.15637 126 198c0 10.19211 7.59928 17.86778 17.78212 17.96086 2.35516.0215 5.73016-.58044 7.5-1.3377zm-88.71875-42.29945c6.60816-2.25163 14.50871-10.15219 16.76034-16.76034 3.77625-11.08268 1.31487-22.05522-6.7585-30.12859-11.44281-11.44282-28.6876-11.44282-40.13043 0-8.07336 8.07337-10.53474 19.04591-6.75849 30.12859 2.1541 6.32192 10.18429 14.52361 16.35088 16.70007 5.94371 2.09781 14.48281 2.12286 20.5362.0603zm88.71875-62.70055c11.7202-5.01474 14.45891-21.05066 5.09104-29.80954C144.80118 68.9939 126 77.15637 126 93c0 10.19211 7.59928 17.86778 17.78212 17.96086 2.35516.0215 5.73016-.58044 7.5-1.3377zm-93-51c11.7202-5.01473 14.4589-21.05066 5.09104-29.80954C51.80118 17.9939 33 26.15637 33 42c0 10.1921 7.59928 17.86778 17.78212 17.96086 2.35516.0215 5.73016-.58044 7.5-1.3377zm677.54387 227.72401C733.1287 284.61402 731 281.13195 731 278.45295c0-2.60338 3.45073-1.4545 5.51323 1.83557 1.55918 2.48718 2.81707 3.27916 5.57738 3.51155 4.95871.41749 7.88266-2.18191 8.61757-7.66105l.58219-4.34053-3.09553 1.60075c-11.39965 5.89499-21.98884-5.38316-16.77362-17.86494.79018-1.89116 2.7662-4.09698 4.45034-4.96788 3.87569-2.0042 10.05178-2.00885 12.90593-.01 2.01155 1.40894 2.22251 1.40894 2.22251 0 0-.89003.85651-1.5567 2-1.5567 1.91658 0 2 .66667 2 15.98422v15.98423l-2.83201 3.16957c-2.39242 2.67758-3.67302 3.22838-8.25 3.54845-3.92375.27439-6.15546-.095-8.092-1.3393zm12.16233-17.13663c1.49713-1.2123 2.37838-3.28425 2.73227-6.42397.45364-4.02467.18341-4.97348-2.05365-7.21054C743.07367 249.98276 735 253.61215 735 261.71977c0 7.757 7.39359 12.02111 12.98832 7.49077zM780 268.5c0-18.83333.0684-19.5 2-19.5 1.14349 0 2 .66667 2 1.5567 0 1.40894.21096 1.40894 2.22251 0 2.7945-1.95734 9.00669-2.00666 12.6923-.10075 1.54853.80077 3.55118 3.00628 4.45035 4.90113 5.59471 11.78999-5.33104 23.84889-16.41482 18.11724L784 271.94864v8.02568c0 7.35901-.16613 8.02568-2 8.02568-1.93162 0-2-.66667-2-19.5zm17.54545.0455c3.16408-3.16407 3.34114-9.14862.38197-12.91059-2.82841-3.59574-8.03105-3.62214-11.59436-.0588-2.23706 2.23706-2.50729 3.18587-2.05365 7.21054.88747 7.87356 8.04446 10.98047 13.26604 5.75888zm-521.95798 3.39721c-6.25897-5.49545-5.84029-16.98827.76562-21.01632 3.80321-2.31905 10.38258-2.50022 13.4244-.36964L292 252.11341V241.0567c0-10.39003.12059-11.0567 2-11.0567 1.93939 0 2 .66667 2 22s-.0606 22-2 22c-1.1 0-2-.46156-2-1.02568 0-.58793-1.25919-.37453-2.95034.5-4.80886 2.48676-9.49236 1.95389-13.46219-1.53166zm13.40085-2.73212c1.49713-1.2123 2.37838-3.28425 2.73227-6.42397.45364-4.02467.18341-4.97348-2.05365-7.21054C284.07367 249.98276 276 253.61215 276 261.71977c0 7.757 7.39359 12.02111 12.98832 7.49077zm29.28368 4.57878c-2.74967-1.32709-3.99191-4.72636-2.14447-5.86814.85312-.52726 2.09881-.11772 3.42146 1.12485 2.37584 2.23198 4.51499 2.48999 6.25101.75397 2.43373-2.43373 1.23143-4.65622-4.05-7.48653-4.17337-2.2365-5.31617-3.39067-5.57266-5.62811-.52293-4.56164 2.19651-7.68536 6.69073-7.68536 3.3815 0 7.13193 2.22007 7.13193 4.22175 0 1.27334-3.20393 1.66784-4.90707.60421-1.0054-.62788-2.56261-.85971-3.46046-.51517-3.00228 1.15209-1.73208 3.71758 2.80309 5.66159 5.92312 2.53894 8.14631 5.91972 6.67266 10.14702-.60465 1.7345-1.88886 3.75289-2.85379 4.48532-2.09345 1.589-6.88884 1.67769-9.98243.1846zm75.478-.36129c-1.59292-.86423-2.75-1.05776-2.75-.46002 0 .56757-1.13378 1.03194-2.5195 1.03194h-2.5195l.2695-21.75c.2689-21.70151.27452-21.75071 2.5195-22.06955 2.21766-.31496 2.25-.15965 2.25 10.8067v11.12626l2.22251-1.55671c6.10071-4.2731 15.71607-.21224 17.79715 7.5163 3.07555 11.42172-7.38151 20.71943-17.26966 15.35503zm10.79545-4.88258C409.90874 263.18217 406.27651 253 399 253c-1.94837 0-3.99822.90731-5.54545 2.45455C388.09126 260.81783 391.72349 271 399 271c1.94837 0 3.99822-.90731 5.54545-2.45455zM421.5 273.84527c-3.95763-2.16466-4.5-3.91668-4.5-14.5364 0-9.6422.12934-10.30887 2-10.30887 1.85732 0 2 .66667 2 9.34501C421 268.40506 422.18055 271 426.75731 271 430.97414 271 432 268.5401 432 258.42857c0-9.39047.0101-9.42857 2.5-9.42857 2.46708 0 2.5.10995 2.5 8.35078 0 4.59292-.49879 9.7816-1.10842 11.53038-1.7961 5.15231-9.30936 7.74387-14.39158 4.96411zm43.72507-.84947C461.30252 270.60422 460 267.57272 460 260.8349c0-4.39263.43372-5.46862 3.4-8.4349 2.77421-2.77421 4.16377-3.4 7.54966-3.4C478.54462 249 483 253.08443 483 260.04705V263h-9.5c-5.225 0-9.5.24735-9.5.54966 0 1.57235 3.13953 6.2899 4.5448 6.82916 3.28962 1.26234 6.61336.55357 8.88167-1.89398 1.46478-1.58053 2.93343-2.28396 3.95225-1.89301 1.90811.73222 1.94327.93801.59164 3.46356-2.58167 4.82388-11.17981 6.33368-16.74529 2.94041zm13.18184-15.2458c-2.80178-4.92493-8.01597-6.31876-11.57817-3.09501-3.60949 3.26654-2.3113 4.34501 5.23028 4.34501 5.35981 0 6.88784-.30089 6.34789-1.25zm16.68949 15.98526c-8.16061-4.1939-8.87346-18.48216-1.14972-23.04469 3.58241-2.11618 9.90646-2.18216 12.83081-.13387L509 252.11341v-11.12626c0-10.96635.0323-11.12166 2.25-10.8067 2.24498.31884 2.2506.36804 2.5195 22.06955l.2695 21.75h-2.5195c-1.38572 0-2.5195-.46156-2.5195-1.02568 0-.58793-1.25919-.37453-2.95034.5-3.55274 1.83719-7.69416 1.93585-10.95326.26094zm11.44905-5.18981c3.16408-3.16407 3.34114-9.14862.38197-12.91059-2.78368-3.53887-8.03183-3.62136-11.47287-.18031C490.09126 260.81783 493.72349 271 501 271c1.94837 0 3.99822-.90731 5.54545-2.45455zm32.10057 4.0023c-3.05957-2.83552-3.30876-4.07945-.99507-4.9673 1.00608-.38607 2.3884.15804 3.53895 1.39301 2.2634 2.42948 5.08036 2.61075 6.87967.44272 1.68767-2.03352.30452-4.41277-3.66181-6.29897C539.65216 260.85567 538 258.89167 538 255.5c0-4.07944 2.67147-6.5 7.17375-6.5 4.38374 0 7.71656 3.01622 5.42984 4.91403-1.12657.93497-1.87764.93177-3.39276-.0144-1.07025-.66838-2.68051-.93334-3.57836-.5888-2.52875.97038-1.9294 3.6047 1.11753 4.91189 6.38733 2.7403 8.25 4.72101 8.25 8.77283 0 7.29209-8.80266 10.69703-14.35398 5.55224zm58.57905.44805C593.30252 270.60422 592 267.57272 592 260.8349c0-4.39263.43372-5.46862 3.4-8.4349 2.77421-2.77421 4.16377-3.4 7.54966-3.4C610.54462 249 615 253.08443 615 260.04705V263h-9.5c-5.225 0-9.5.24735-9.5.54966 0 1.57235 3.13953 6.2899 4.5448 6.82916 3.28962 1.26234 6.61336.55357 8.88167-1.89398 1.46478-1.58053 2.93343-2.28396 3.95225-1.89301 1.90811.73222 1.94327.93801.59164 3.46356-2.58167 4.82388-11.17981 6.33368-16.74529 2.94041zm13.18184-15.2458c-2.80178-4.92493-8.01597-6.31876-11.57817-3.09501-3.60949 3.26654-2.3113 4.34501 5.23028 4.34501 5.35981 0 6.88784-.30089 6.34789-1.25zm13.18056 14.19266c-6.25897-5.49545-5.84029-16.98827.76562-21.01632 3.80321-2.31905 10.38258-2.50022 13.4244-.36964 2.01155 1.40894 2.22251 1.40894 2.22251 0 0-.89003.85651-1.5567 2-1.5567 1.89333 0 2 .66667 2 12.5s-.10667 12.5-2 12.5c-1.1 0-2-.46156-2-1.02568 0-.58793-1.25919-.37453-2.95034.5-4.80886 2.48676-9.49236 1.95389-13.46219-1.53166zm13.40085-2.73212c1.49713-1.2123 2.37838-3.28425 2.73227-6.42397.45364-4.02467.18341-4.97348-2.05365-7.21054C632.07367 249.98276 624 253.61215 624 261.71977c0 7.757 7.39359 12.02111 12.98832 7.49077zm188.77425 4.22407C821.99955 271.39282 820 267.06068 820 260.94966c0-4.52314.41365-5.56331 3.4-8.54966 2.83107-2.83107 4.1325-3.4 7.77749-3.4 2.40763 0 5.33196.66853 6.49853 1.48563 1.87624 1.31417 2.18683 1.31417 2.69112 0 .31355-.8171 1.48421-1.48563 2.60148-1.48563 1.9335 0 2.03138.60229 2.03138 12.5V274h-2.5c-1.375 0-2.5-.47552-2.5-1.0567 0-.5923-.97677-.37255-2.22251.5-2.77933 1.94672-8.41863 1.94264-12.01492-.009zm11.80472-4.73883C843.34622 263.72495 839.91667 253 832.54819 253c-6.51013 0-10.25045 6.47617-7.53147 13.04036 2.23931 5.40618 7.94835 6.61408 12.55057 2.65542zM891.5 274.04597c-8.91771-3.68861-9.91443-18.41637-1.57955-23.33991 3.57812-2.11364 10.21859-2.20264 14.11228-.18913 8.30586 4.29512 7.8985 18.91516-.63992 22.96691-3.45286 1.63849-8.69189 1.88612-11.89281.56213zm11.57692-5.96905c3.26705-3.26704 3.71514-6.64457 1.46007-11.0054-1.66504-3.21982-3.3269-4.07152-7.94446-4.07152-7.51871 0-11.09187 10.59324-5.26404 15.60613 3.85704 3.31769 8.09231 3.12691 11.74843-.52921zm-686.91025 4.95204c1.48767-4.3338 17.46516-39.9972 17.92528-40.01109.43798-.0132 15.0821 33.11237 17.76703 40.18975.19744.52044-.86962.79913-2.37125.61932-2.24733-.26912-3.10673-1.25533-4.85898-5.57599L242.5 263.00191l-8.56599-.00096L225.36803 263l-2.27963 5.5c-1.89907 4.58186-2.6949 5.5-4.76734 5.5-1.36825 0-2.33773-.43697-2.15439-.97104zM240.00765 258.25c.0127-1.24552-5.46961-14.24349-6.00765-14.24349-.53804 0-6.02035 12.99797-6.00765 14.24349.004.4125 2.70765.75 6.00765.75s6.00344-.3375 6.00765-.75zM304 261.5c0-11.83333.10667-12.5 2-12.5s2 .66667 2 12.5-.10667 12.5-2 12.5-2-.66667-2-12.5zm36 2c0-8.66667-.2619-10.5-1.5-10.5-.83333 0-1.5-.88889-1.5-2s.66667-2 1.5-2c1.11111 0 1.5-1.16667 1.5-4.5 0-3.83333.2963-4.5 2-4.5s2 .66667 2 4.5c0 4.13333.2037 4.5 2.5 4.5 3.32314 0 3.54515 3.71246.25 4.18045-2.14429.30454-2.26339.8011-2.53498 10.56955-.26207 9.42582-.44299 10.25-2.25 10.25-1.8286 0-1.96502-.72898-1.96502-10.5zm15-2c0-11.83333.10667-12.5 2-12.5 1.1 0 2 .46583 2 1.03518 0 .71358.60093.71358 1.93426 0 2.25851-1.20871 6.73814-1.37427 7.41805-.27415.8688 1.40575-1.82873 3.73897-4.32278 3.73897-3.55776 0-4.9975 3.6605-5.01479 12.75-.0135 7.07842-.18805 7.75-2.01474 7.75-1.89333 0-2-.66667-2-12.5zm19 0c0-11.83333.10667-12.5 2-12.5s2 .66667 2 12.5-.10667 12.5-2 12.5-2-.66667-2-12.5zm72 2c0-6.33333-.39683-10.5-1-10.5-.55 0-1-.9-1-2s.45-2 1-2 1-2.025 1-4.5c0-4.13333.2037-4.5 2.5-4.5s2.5.36667 2.5 4.5c0 3.83333.2963 4.5 2 4.5 1.33333 0 2 .66667 2 2 0 1.33333-.66667 2-2 2-1.87302 0-2 .66667-2 10.5V274h-5zm115 .46862c0-7.9943-.30461-10.14828-1.5-10.60699-.825-.31659-1.5-1.42746-1.5-2.46862 0-1.04115.675-1.89301 1.5-1.89301 1.11111 0 1.5-1.16667 1.5-4.5 0-3.83333.2963-4.5 2-4.5s2 .66667 2 4.5.2963 4.5 2 4.5c1.33333 0 2 .66667 2 2 0 1.33333-.66667 2-2 2-1.87302 0-2 .66667-2 10.5s-.12698 10.5-2 10.5c-1.86708 0-2-.66667-2-10.03138zM575 261.5V249h2.5c1.375 0 2.5.54 2.5 1.2 0 .93333.26667.93333 1.2 0 .66-.66 2.73314-1.2 4.60699-1.2 2.69588 0 3.2803.33015 2.8 1.58179-.33385.86998-.60699 1.76998-.60699 2 0 .23001-1.33417.41821-2.96482.41821C580.93087 253 580 255.29877 580 265.43426c0 8.47012-.0279 8.56574-2.5 8.56574H575zm76 0V249h2.5c1.375 0 2.5.54 2.5 1.2 0 .93333.26667.93333 1.2 0 1.6303-1.6303 6.98632-1.51547 9.33247.20009 1.64126 1.20011 2.20023 1.20011 3.91364 0 3.42069-2.39595 9.10637-1.78447 11.48131 1.23477 1.77865 2.26119 2.07258 4.0339 2.07258 12.5 0 9.19847-.13516 9.86514-2 9.86514-1.83197 0-2-.66667-2-7.9349C680 255.7076 678.97623 253 675.05993 253 670.92813 253 670 255.28079 670 265.43426c0 8.47012-.0279 8.56574-2.5 8.56574-2.47978 0-2.5-.07212-2.5-8.91821C665 254.18923 664.5992 253 660.92819 253 656.94266 253 656 255.37842 656 265.43426c0 8.47012-.0279 8.56574-2.5 8.56574H651zm41 0V249h5v25h-5zm13 0c0-11.65217.13-12.5 1.91667-12.5 1.05416 0 2.12291.5625 2.375 1.25.36666 1 .72333 1 1.78333 0 2.01319-1.89923 8.36954-1.52012 11.06422.65991 2.16513 1.75162 2.38904 2.78757 2.7018 12.5L725.18205 274H720v-9.37756c0-10.35909-.81519-12.00557-5.66636-11.4447-3.90544.45154-5.30142 3.88244-5.3189 13.07226-.0135 7.07842-.18805 7.75-2.01474 7.75-1.89333 0-2-.66667-2-12.5zm105-9.5c0-21.33333.0606-22 2-22 1.93939 0 2 .66667 2 22s-.0606 22-2 22c-1.93939 0-2-.66667-2-22zm44 11.5c0-6.33333-.39683-10.5-1-10.5-.55 0-1-.9-1-2s.45-2 1-2 1-2.025 1-4.5c0-4.13333.2037-4.5 2.5-4.5s2.5.36667 2.5 4.5c0 3.83333.2963 4.5 2 4.5 1.33333 0 2 .66667 2 2 0 1.33333-.66667 2-2 2-1.87302 0-2 .66667-2 10.5V274h-5zm17 0c0-6.33333-.39683-10.5-1-10.5-.55 0-1-.9-1-2s.40235-2 .89411-2c.49177 0 1.05942-3.64004 1.26146-8.08899.41377-9.11137 1.65667-10.91101 7.53556-10.91101 2.60431 0 3.30887.41172 3.30887 1.93358 0 1.36598-.80725 2.02646-2.75 2.25-2.68644.30911-2.75679.48398-3.04381 7.56642l-.29381 7.25h3.04381c2.37714 0 3.04381.43805 3.04381 2 0 1.55556-.66667 2-3 2h-3v21h-5zm45-2c0-11.83333.10667-12.5 2-12.5 1.1 0 2 .46583 2 1.03518 0 .71358.60093.71358 1.93426 0C922.9981 249.46583 925.0561 249 926.50758 249c3.67836 0 3.0092 3.38059-.75521 3.81537-4.39526.50764-5.75237 3.55272-5.75237 12.90714 0 7.61082-.16108 8.27749-2 8.27749-1.89333 0-2-.66667-2-12.5zm19 0c0-11.83333.10667-12.5 2-12.5 1.1 0 2 .46583 2 1.03518 0 .71358.60093.71358 1.93426 0 2.87956-1.54109 7.16714-1.25339 9.237.61981 1.70294 1.54113 1.9593 1.53683 3.72653-.0625 1.32995-1.20359 3.20005-1.62398 6.25-1.40499 6.06982.43582 7.84853 4.07505 7.85066 16.06249.002 8.66708-.0221 8.75-2.49845 8.75-2.48894 0-2.5-.0415-2.5-9.37756 0-10.12968-.87386-12.0649-5.16993-11.4492-3.36469.48221-4.79878 4.3767-4.81533 13.07676-.0135 7.07842-.18805 7.75-2.01474 7.75-1.84434 0-2-.66667-2-8.56574 0-9.6828-.991-12.43425-4.47848-12.43425C940.49133 253 939 256.43628 939 265.72251c0 7.61082-.16108 8.27749-2 8.27749-1.89333 0-2-.66667-2-12.5zm-631.61146-19.92986c-.99567-2.59467.39988-4.73919 2.85699-4.39028 1.65273.23469 2.25447.98741 2.25447 2.82014 0 1.83273-.60174 2.58545-2.25447 2.82014-1.35228.19202-2.49559-.3082-2.85699-1.25zm70 0c-.99567-2.59467.39988-4.73919 2.85699-4.39028 1.65273.23469 2.25447.98741 2.25447 2.82014 0 1.83273-.60174 2.58545-2.25447 2.82014-1.35228.19202-2.49559-.3082-2.85699-1.25zm318.6054-.0774c-1.10651-1.33326-1.06338-1.85183.26442-3.17963 2.1445-2.1445 4.97193-.95307 4.56178 1.92224-.39071 2.73897-3.02665 3.42572-4.8262 1.25739zm-377.25947-25.58079C297.75245 211.91103 286 194.97347 286 174.5c0-22.94066 14.0667-40.27414 34.21035-42.15518 8.02791-.74966 15.59503 1.29992 22.6067 6.12311l5.06508 3.48415.30893-3.72604L348.5 134.5l9.25-.28753 9.25-.28752v81.1501l-9.25-.28752-9.25-.28753-.31336-3.25c-.17235-1.7875-.51374-3.25-.75866-3.25-.24491 0-2.31504 1.35444-4.60028 3.00986-7.37345 5.3413-18.20597 7.2315-28.09323 4.90209zm19.36631-17.05005c9.62263-3.22178 15.24865-12.21587 15.21012-24.31582-.0261-8.18502-1.94295-13.51431-6.61158-18.3814-4.6923-4.89177-8.40668-6.49249-15.27741-6.58386-8.6327-.11479-14.73278 3.71959-18.90659 11.88428-5.85841 11.46005-3.13768 27.14474 5.90508 34.04198 5.71277 4.35735 12.98403 5.59684 19.68038 3.35482zm203.62248 16.7184c-14.44844-3.88591-25.71588-18.89158-27.34469-36.41687-1.76578-18.99909 7.07971-36.348 22.33868-43.81352 4.76709-2.33232 7.00793-2.79199 13.73943-2.81838 9.31154-.0365 15.31198 1.88219 22.10687 7.06884L573 142.98679v-9.06184l9.25.28752 9.25.28753v80l-9.25.28753-9.25.28752v-8.09548l-5.37958 3.57184c-9.36939 6.22093-19.27184 7.88658-29.89716 5.02889zM558.5 198.88996c9.49017-2.60716 16.40311-14.97534 15.13759-27.08317-.98132-9.38876-5.21636-16.52867-11.79582-19.88671-8.48951-4.33289-17.20674-3.28803-24.05866 2.88373-5.7446 5.17435-8.00533 10.78128-8.00533 19.85434 0 17.96687 12.65718 28.64523 28.72222 24.23181zM216 145.53753V76h19v83.47114l12.7639-12.73557L260.52781 134h12.23609c6.72986 0 12.2361.24698 12.2361.54885 0 .30187-7.65585 8.06437-17.01301 17.25L250.97398 168.5l18.58683 23 18.58683 23-11.26268.28452c-6.19447.15648-11.80132.0778-12.45966-.17481-.65835-.25263-7.05671-7.90196-14.21859-16.9985-9.94476-12.63118-13.27337-16.23581-14.08714-15.25528-.62332.75106-1.1805 7.6876-1.34255 16.71398L234.5 214.5l-9.25.28753-9.25.28752zm171.66667 68.7958c-.36667-.36666-.66667-14.54166-.66667-31.5V152h-6v-18h6l.0198-15.75c.0354-28.18868 2.46675-36.02637 12.85982-41.45578C404.29917 74.48542 406.48556 74 412.46497 74c3.98012 0 8.65373.49402 10.38581 1.09783L426 76.19565V95.8185l-3.95169-1.90925c-4.00254-1.93381-9.63698-2.48713-11.64861-1.14394-3.001 2.00383-3.74939 6.18517-4.20333 23.4846L405.73061 134H426v18h-20v63h-8.83333c-4.85834 0-9.13334-.3-9.5-.66667zM440 145.5V76h19v83.47114l12.7639-12.73557L484.52781 134h12.23609c6.72986 0 12.2361.36198 12.2361.80439 0 .44242-7.64758 8.12554-16.99463 17.07361l-16.99463 16.26922 18.49463 22.88606C503.67742 203.62062 512 214.16249 512 214.45967c0 .29718-5.3855.54033-11.96778.54033h-11.96778l-13.25156-16.94041c-10.16019-12.98849-13.55032-16.69246-14.53222-15.87755-.94248.78219-1.28066 5.25558-1.28066 16.9404V215h-19zm165.31471 68.03634c-3.32517-1.44621-6.31471-5.95265-6.31471-9.5188 0-10.15629 11.91142-15.46282 19.31253-8.6037 5.62946 5.21721 4.08319 15.26939-2.79059 18.14144-4.23487 1.76944-6.10331 1.76598-10.20723-.0189zm10.33986-2.46735c3.77801-2.30368 5.10824-6.8132 3.29854-11.1822C617.72219 196.9151 613.53628 194 610.5 194c-3.03628 0-7.22219 2.9151-8.45311 5.88679-3.69049 8.90965 5.26524 16.26908 13.60768 11.1822zM607 203.5c0-6.91465.78147-7.75769 5.06574-5.46482 2.28891 1.22499 2.5689 4.78405.44061 5.60076-1.26155.4841-1.17328 1.02308.5681 3.46861 2.4376 3.4233.64058 3.96762-2.13089.64545l-1.87702-2.25-.0333 2.25C609.01494 208.9875 608.55 210 608 210c-.5641 0-1-2.83333-1-6.5zm4.5-2.5c0-.73333-.5625-1.52083-1.25-1.75-.74359-.24786-1.25.46111-1.25 1.75 0 1.28889.50641 1.99786 1.25 1.75.6875-.22917 1.25-1.01667 1.25-1.75zM249 100.62499c0-1.84893 11.26538-23.72895 11.86094-23.03673 1.66793 1.93867 10.43464 22.44949 9.84665 23.03748-1.14927 1.14928-3.72963-.5535-4.69785-3.10011C265.16308 95.29873 264.46953 95 260.14607 95c-4.50545 0-5.00429.24349-6.14607 3-.7571 1.82779-1.97671 3-3.12132 3-1.03327 0-1.87868-.16875-1.87868-.37501zm13.96456-9.875c-.0603-2.12783-2.64489-6.07624-3.29202-5.02916-.33687.54506-1.06486 2.18085-1.61776 3.6351C257.10749 91.84749 257.22112 92 260.02475 92c1.73243 0 2.96045-.52215 2.93981-1.25zM275 89.5V78l4.25.0153c4.86474.0175 5.96651.56604 7.68404 3.82543 1.74602 3.31346-.28901 7.98928-3.81063 8.7555C278.14432 91.6796 278 91.845 278 96.46862c0 3.36123-.38735 4.53138-1.5 4.53138-1.24638 0-1.5-1.94444-1.5-11.5zm7.8-2.7c1.69411-1.6941 1.48967-4.47485-.38179-5.193C278.99898 80.2949 278 80.94903 278 84.49999c0 2.70372.40952 3.5 1.8 3.5.99 0 2.34-.54 3-1.2zm4.18286 13.45001c-.0294-1.28574 10.29022-23.25 10.92369-23.25.52875 0 9.70253 19.94124 10.34462 22.4863.13686.54247-.54983 1.14012-1.52596 1.3281-1.23305.23747-2.10234-.59778-2.84783-2.7363C302.87691 95.20814 302.47461 95 297.92786 95c-4.40692 0-5.02589.28889-6.42786 3-1.37973 2.6681-4.47238 4.20856-4.51714 2.25zM301 91.45034c0-.30231-.72644-1.95445-1.61432-3.67141-1.68942-3.26698-2.33049-2.93724-3.8321 1.97107-.61001 1.99393-.33925 2.25 2.37903 2.25C299.61968 92 301 91.75265 301 91.45034zm15.0964 8.28492c-8.43608-4.33547-8.43463-16.9234.002-21.28637C321.34416 75.73643 328 77.20252 328 81.07037c0 1.66746-.32161 1.82788-1.93426.96482-3.0101-1.61096-7.61204-1.22316-10.18223.85805-1.76301 1.4276-2.33806 2.90206-2.33806 5.99495 0 6.79107 4.45636 9.71117 11.70455 7.66958 2.1629-.60922 2.75-.43872 2.75.79864 0 3.34508-7.21705 4.78736-11.9036 2.37885zm16.57027.59807C332.3 99.96667 332 94.79167 332 88.83333 332 78.66667 332.12308 78 334 78c1.66667 0 2 .66667 2 4v4h10v-4c0-2.8889.41667-4 1.5-4 1.24638 0 1.5 1.94445 1.5 11.5 0 9.55556-.25362 11.5-1.5 11.5-1.15152 0-1.5-1.27778-1.5-5.5V90h-10v5.5c0 3.91667-.38384 5.5-1.33333 5.5-.73334 0-1.63334-.3-2-.66667zm22 0C354.3 99.96667 354 94.79167 354 88.83333V78h6.5c5.11111 0 6.5.3205 6.5 1.5 0 1.1111-1.16667 1.5-4.5 1.5-4.13333 0-4.5.2037-4.5 2.5s.36667 2.5 4.5 2.5c3.83333 0 4.5.2963 4.5 2s-.66667 2-4.5 2c-4.47619 0-4.5.0185-4.5 3.5 0 3.48148.0238 3.5 4.5 3.5 3.83333 0 4.5.2963 4.5 2 0 1.77143-.66667 2-5.83333 2-3.20834 0-6.13334-.3-6.5-.66667z"/><path fill="#fff" stroke="#fff" stroke-width=".893" d="M43.66071 57.97954c-5.87202-2.6319-10.21184-9.48122-10.24824-16.17428-.0654-12.02546 14.15505-21.1413 24.60135-15.77039 7.06329 3.63156 10.20047 8.66106 10.20047 16.3533 0 9.9529-7.08272 16.90139-17.15194 16.82688-2.59768-.01922-5.92842-.5752-7.40164-1.2355zm.89286 114.61065c-7.58795-1.82615-17.03777-11.57354-19.275-19.88197-3.36549-12.49847 3.47547-26.76196 15.72686-32.79072 6.49233-3.19479 16.91213-3.10569 23.191.19832 5.70583 3.00248 10.7156 8.02367 13.65662 13.68775 3.14308 6.05322 3.36034 16.66337.46981 22.94318-2.4923 5.41464-9.07738 11.96894-14.38316 14.31594-4.75541 2.10355-13.9743 2.82994-19.38613 1.5275zm-.89286 92.31907c-8.70234-4.58776-12.41843-13.96243-8.88595-22.41682 4.34104-10.38957 17.04688-14.20612 26.19307-7.86781 10.46001 7.2488 9.3651 24.41854-1.9051 29.87434-4.6705 2.26096-11.54422 2.44406-15.40202.41029zm92.82021-51.03797c-10.33343-4.83576-13.36052-18.28561-6.06644-26.95414 6.31103-7.50023 18.22473-8.3791 25.61803-1.88984 5.24693 4.60535 6.81651 14.55947 3.36312 21.32867-3.99348 7.82786-14.7255 11.34763-22.91471 7.51531zm.02034-104.97269c-6.12136-2.66725-11.01454-11.56342-9.9542-18.09752 2.29523-14.14386 18.19159-20.14036 28.76972-10.85264 3.60541 3.1656 4.85376 5.21784 5.84362 9.60676 1.59898 7.08966-3.14569 16.66597-9.59173 19.35929-3.68506 1.53972-11.51623 1.53146-15.06741-.0159z"/></svg>