<svg xmlns="http://www.w3.org/2000/svg" role="img" viewBox="-8.01 -8.01 468.52 190.02"><title>Apache Airflow logo</title><g clip-path="url(#clip0)"><path fill="#017CEE" d="M4.18587 172.44L86.3959 88.1685c.515-.5279.6137-1.3441.1842-1.9436-5.0009-6.9807-14.2237-8.1906-17.6426-12.8804-10.1274-13.8923-12.697-21.7554-17.0488-21.2677-.304.0341-.575.1977-.7886.4166L21.4015 82.9367C4.31645 100.45 1.86636 139.01 1.41703 171.298c-.0203 1.459 1.74987 2.186 2.76884 1.142z"/><path fill="#00AD46" d="M172.44 170.357L88.1685 88.1466c-.5279-.515-1.3441-.6138-1.9436-.1843-6.9806 5.001-8.1905 14.2237-12.8804 17.6427-13.8923 10.127-21.7554 12.697-21.2677 17.049.0341.304.1977.575.4167.788l30.4432 29.699c17.5133 17.085 56.0733 19.535 88.3613 19.984 1.459.021 2.186-1.749 1.142-2.768z"/><path fill="#04D659" fill-rule="evenodd" d="M82.9363 153.141c-9.5667-9.332-14.0051-27.795 4.3352-65.8685-29.8068 13.3205-40.2521 30.8305-35.1137 35.8435l30.7785 30.025z" clip-rule="evenodd"/><path fill="#00C7D4" d="M170.355 2.10462L88.1451 86.376c-.515.5279-.6137 1.344-.1842 1.9435 5.0009 6.9807 14.2241 8.1906 17.6421 12.8805 10.128 13.892 12.698 21.755 17.049 21.268.304-.034.575-.198.789-.417l29.698-30.4433c17.086-17.5135 19.536-56.0731 19.985-88.36143.02-1.45908-1.75-2.18617-2.769-1.14165z"/><path fill="#11E1EE" fill-rule="evenodd" d="M153.14 91.6077c-9.333 9.5663-27.796 14.0053-65.8695-4.3352 13.3205 29.8065 30.8305 40.2525 35.8435 35.1135l30.026-30.7783z" clip-rule="evenodd"/><path fill="#E43921" d="M2.10315 4.18733L86.3745 86.3973c.5279.515 1.344.6138 1.9436.1843 6.9806-5.0009 8.1905-14.2237 12.8799-17.6426 13.893-10.1274 21.756-12.697 21.268-17.0488-.034-.304-.198-.575-.416-.7886L91.6063 21.403C74.0928 4.31792 35.5331 1.86783 3.2448 1.4185c-1.45908-.02031-2.18617 1.74986-1.14165 2.76883z"/><path fill="#FF7557" fill-rule="evenodd" d="M91.6057 21.4025c9.5663 9.3327 14.0053 27.7952-4.3352 65.8689 29.8065-13.3203 40.2525-30.8306 35.1135-35.8433L91.6057 21.4025z" clip-rule="evenodd"/><path fill="#0CB6FF" fill-rule="evenodd" d="M21.4025 82.9368c9.3327-9.5667 27.7952-14.0051 65.8689 4.3352C73.951 57.4652 56.4408 47.0199 51.4281 52.1583L21.4025 82.9368z" clip-rule="evenodd"/><circle cx="87.284" cy="87.261" r="3.676" fill="#4A4848" transform="rotate(-.71 87.284 87.26)"/><path fill="#51504F" d="M196.029 57.4277c-.173 0-.325-.065-.455-.1951s-.195-.2819-.195-.4553c0-.1735.011-.2927.032-.3577l8.066-21.0417c.173-.477.52-.7155 1.041-.7155h2.211c.52 0 .867.2385 1.041.7155l8.033 21.0417.065.3577c0 .1734-.065.3252-.195.4553s-.282.1951-.456.1951h-1.658c-.239 0-.423-.0542-.553-.1626-.13-.1301-.217-.2602-.26-.3902l-1.789-4.6182H200.29l-1.789 4.6182c-.043.13-.141.2601-.293.3902-.13.1084-.303.1626-.52.1626h-1.659zm13.985-7.9678l-4.391-11.5453-4.39 11.5453h8.781zm9.689 14.147c-.217 0-.401-.0759-.553-.2276-.13-.1301-.195-.3036-.195-.5204V41.2643c0-.2168.065-.3902.195-.5203.152-.1518.336-.2277.553-.2277h1.496c.217 0 .39.0759.52.2277.152.1301.228.3035.228.5203v1.431c1.214-1.6695 2.992-2.5042 5.333-2.5042 2.277 0 3.979.7155 5.106 2.1465 1.149 1.4309 1.767 3.2738 1.854 5.5287.022.2385.033.6071.033 1.1057 0 .4987-.011.8673-.033 1.1058-.087 2.2331-.705 4.0761-1.854 5.5287-1.149 1.431-2.851 2.1465-5.106 2.1465-2.254 0-4.011-.8131-5.268-2.4392v7.5451c0 .2168-.065.3903-.195.5204-.13.1517-.304.2276-.521.2276h-1.593zm6.894-8.4882c1.54 0 2.656-.477 3.35-1.431.716-.954 1.106-2.2115 1.171-3.7725.022-.2168.033-.5312.033-.9432 0-4.0977-1.518-6.1466-4.554-6.1466-1.496 0-2.623.4987-3.382 1.496-.737.9756-1.138 2.1464-1.203 3.5124l-.033 1.2358.033 1.2684c.043 1.2791.455 2.3957 1.236 3.3497.78.954 1.897 1.431 3.349 1.431zm16.414 2.6343c-1.062 0-2.048-.2169-2.959-.6505s-1.637-1.019-2.179-1.7562c-.52-.7588-.781-1.5935-.781-2.5042 0-1.4309.586-2.6017 1.757-3.5123 1.192-.9323 2.796-1.5394 4.813-1.8213l4.846-.6829v-.9432c0-2.2114-1.269-3.3172-3.805-3.3172-.954 0-1.735.206-2.342.6179-.607.3903-1.062.8564-1.366 1.3985-.065.1951-.152.336-.26.4228-.087.0867-.217.13-.39.13h-1.399c-.195 0-.368-.065-.52-.1951-.13-.1518-.195-.3252-.195-.5203.021-.5204.26-1.1058.715-1.7562.477-.6721 1.203-1.2467 2.179-1.7237.976-.4987 2.179-.748 3.61-.748 2.428 0 4.174.5746 5.236 1.7237 1.062 1.1274 1.594 2.5367 1.594 4.2278v10.5371c0 .2168-.076.4011-.228.5529-.13.1301-.304.1951-.52.1951h-1.496c-.217 0-.401-.065-.553-.1951-.13-.1518-.195-.3361-.195-.5529v-1.3984c-.477.6938-1.171 1.2792-2.082 1.7562-.91.477-2.07.7155-3.48.7155zm.683-2.4392c1.41 0 2.559-.4553 3.448-1.3659.91-.9323 1.366-2.2657 1.366-4.0002v-.9106l-3.773.5528c-1.539.2169-2.699.5854-3.48 1.1058-.78.4987-1.171 1.1383-1.171 1.9188 0 .8672.358 1.5394 1.074 2.0163.715.4554 1.561.683 2.536.683zm19.376 2.4392c-2.32 0-4.142-.6505-5.464-1.9514-1.301-1.3225-1.995-3.1654-2.082-5.5287l-.032-1.3009.032-1.3008c.087-2.3633.781-4.1954 2.082-5.4963 1.322-1.3225 3.144-1.9838 5.464-1.9838 1.561 0 2.883.2819 3.967.8456 1.084.5637 1.887 1.2575 2.407 2.0814.542.8239.835 1.6478.878 2.4716.022.2169-.043.3903-.195.5204-.152.1301-.336.1951-.553.1951h-1.561c-.217 0-.38-.0433-.488-.1301-.108-.0867-.217-.2601-.325-.5203-.369-1.0407-.889-1.7779-1.561-2.2115-.672-.4553-1.518-.683-2.537-.683-1.344 0-2.417.4228-3.22 1.2684-.78.8239-1.203 2.0922-1.268 3.8051l-.032 1.1708.032 1.1057c.065 1.7345.488 3.0137 1.268 3.8376.781.8239 1.854 1.2358 3.22 1.2358 1.019 0 1.865-.2168 2.537-.6504.672-.4553 1.192-1.2033 1.561-2.244.108-.2602.217-.4337.325-.5204.108-.1084.271-.1626.488-.1626h1.561c.217 0 .401.0759.553.2277.152.13.217.3035.195.5203-.043.8022-.336 1.6261-.878 2.4717-.52.8239-1.323 1.5177-2.407 2.0814-1.062.5637-2.385.8456-3.967.8456zm11.895-.3253c-.217 0-.401-.065-.553-.1951-.13-.1518-.195-.3361-.195-.5529V35.0852c0-.2169.065-.3903.195-.5204.152-.1518.336-.2276.553-.2276h1.626c.217 0 .39.0758.52.2276.152.1301.228.3035.228.5204v7.5776c.629-.8022 1.366-1.4093 2.211-1.8213.846-.4336 1.897-.6504 3.155-.6504 2.081 0 3.697.6721 4.846 2.0164 1.171 1.3225 1.756 3.0895 1.756 5.301v9.1712c0 .2168-.076.4011-.228.5529-.13.1301-.303.1951-.52.1951h-1.626c-.217 0-.401-.065-.553-.1951-.13-.1518-.195-.3361-.195-.5529v-9.0085c0-1.5394-.38-2.7319-1.138-3.5775-.738-.8455-1.811-1.2683-3.22-1.2683-1.366 0-2.461.4336-3.285 1.3009-.802.8455-1.203 2.0272-1.203 3.5449v9.0085c0 .2168-.076.4011-.228.5529-.13.1301-.303.1951-.52.1951h-1.626zm25.802.3253c-2.233 0-4.022-.683-5.366-2.0489-1.323-1.3876-2.049-3.2739-2.179-5.6588l-.033-1.1058.033-1.0732c.151-2.3416.889-4.2062 2.211-5.5938 1.344-1.3876 3.111-2.0814 5.301-2.0814 2.407 0 4.272.7697 5.594 2.3091 1.323 1.5177 1.984 3.5774 1.984 6.1791v.5529c0 .2168-.076.4011-.228.5529-.13.1301-.303.1951-.52.1951h-11.253v.2927c.065 1.4093.488 2.6126 1.269 3.6099.802.9757 1.853 1.4635 3.154 1.4635.998 0 1.811-.1951 2.439-.5854.651-.4119 1.128-.8347 1.431-1.2683.196-.2602.336-.412.423-.4553.109-.0651.293-.0976.553-.0976h1.594c.195 0 .357.0542.487.1626.131.1084.196.2602.196.4553 0 .477-.304 1.0516-.911 1.7237-.585.6721-1.42 1.2575-2.504 1.7562-1.063.477-2.288.7155-3.675.7155zm4.455-10.0168v-.0976c0-1.496-.412-2.7101-1.236-3.6424-.802-.954-1.886-1.431-3.252-1.431-1.366 0-2.45.477-3.252 1.431-.78.9323-1.171 2.1464-1.171 3.6424v.0976h8.911z"/><path fill="#51504F" d="M195.574 57.2326l-.177.1768.177-.1768zm-.163-.813l-.233-.0896-.004.0105.237.0791zm8.066-21.0417l.233.0894.002-.004-.235-.0854zm4.293 0l-.235.0854.001.0037.234-.0891zm8.033 21.0417l.246-.0448c-.003-.0151-.007-.03-.013-.0444l-.233.0892zm.065.3577h.25c0-.015-.002-.03-.004-.0447l-.246.0447zm-.195.4553l.176.1768-.176-.1768zm-2.667.0325l-.177.1768c.005.0053.011.0104.017.0153l.16-.1921zm-.26-.3902l.237-.0792-.004-.0111-.233.0903zm-1.789-4.6182l.233-.0902c-.037-.0963-.13-.1598-.233-.1598v.25zm-10.667 0v-.25c-.103 0-.196.0635-.233.1598l.233.0902zm-1.789 4.6182l-.233-.0904-.004.0113.237.0791zm-.293.3902l.16.1921.003-.0023-.163-.1898zm11.806-7.8052v.25c.082 0 .159-.0404.206-.1081.046-.0677.057-.154.028-.2308l-.234.0889zm-4.391-11.5453l.234-.0889a.25031.25031 0 0 0-.234-.1611c-.103 0-.196.0641-.233.1611l.233.0889zm-4.39 11.5453l-.234-.0889c-.029.0768-.019.1631.028.2308.047.0677.124.1081.206.1081v-.25zm-5.204 7.7178c-.102 0-.192-.0355-.278-.1219l-.354.3536c.174.1738.388.2683.632.2683v-.5zm-.278-.1219c-.086-.0863-.122-.1757-.122-.2785h-.5c0 .2441.094.4583.268.6321l.354-.3536zm-.122-.2785c0-.1754.012-.2567.02-.2787l-.475-.1581c-.036.1081-.045.2653-.045.4368h.5zm.016-.2683l8.065-21.0417-.467-.1789-8.065 21.0417.467.1789zm8.067-21.0457c.073-.1998.174-.3319.297-.416.123-.0845.287-.1349.509-.1349v-.5c-.299 0-.568.0688-.792.2228-.225.1544-.383.3801-.484.6572l.47.1709zm.806-.5509h2.211v-.5h-2.211v.5zm2.211 0c.222 0 .386.0504.509.1349.122.0841.224.2162.297.416l.47-.1709c-.101-.2771-.259-.5028-.484-.6572-.224-.154-.493-.2228-.792-.2228v.5zm.807.5546l8.033 21.0417.467-.1783-8.033-21.0417-.467.1783zm8.021 20.9973l.065.3577.492-.0894-.065-.3578-.492.0895zm.061.313c0 .1028-.036.1922-.122.2785l.353.3536c.174-.1738.269-.388.269-.6321h-.5zm-.122.2785c-.086.0864-.176.1219-.279.1219v.5c.244 0 .459-.0945.632-.2683l-.353-.3536zm-.279.1219h-1.658v.5h1.658v-.5zm-1.658 0c-.204 0-.323-.0464-.393-.1046l-.32.3841c.19.1586.439.2205.713.2205v-.5zm-.376-.0894c-.112-.1115-.173-.2096-.2-.2925l-.474.1581c.059.1773.171.3394.32.488l.354-.3536zm-.204-.3037l-1.789-4.6181-.466.1805 1.789 4.6182.466-.1806zm-2.022-4.7779H200.29v.5h10.667v-.5zm-10.9.1598l-1.789 4.6181.466.1806 1.789-4.6182-.466-.1805zm-1.793 4.6293c-.024.0718-.086.1662-.218.2795l.325.3796c.171-.1469.304-.3126.367-.501l-.474-.1581zm-.216.2773c-.073.0615-.185.1046-.36.1046v.5c.259 0 .494-.0652.68-.2205l-.32-.3841zm-.36.1046h-1.659v.5h1.659v-.5zm12.56-7.8067l-4.391-11.5453-.467.1777 4.39 11.5453.468-.1777zm-4.858-11.5453l-4.391 11.5453.468.1777 4.39-11.5453-.467-.1777zm-4.157 11.8842h8.781v-.5h-8.781v.5zm17.917 13.6693l-.177.1768.177-.1768zm0-22.6352l.177.1768-.177-.1768zm2.569 0l-.19.1627c.009.0097.018.0188.027.0271l.163-.1898zm.228 1.9513h-.25c0 .1083.07.2043.173.2377.103.0335.215-.0031.279-.0907l-.202-.147zm10.439-.3577l-.196.1547.001.0018.195-.1565zm1.854 5.5287l-.25.0096.001.013.249-.0226zm0 2.2115l-.249-.0227-.001.013.25.0097zm-1.854 5.5287l.195.1565.001-.0014-.196-.1551zm-10.374-.2927l.198-.1529c-.066-.0846-.178-.1182-.279-.0837a.25016.25016 0 0 0-.169.2366h.25zm-.195 8.0654l-.177-.1767c-.005.0045-.009.0092-.013.0141l.19.1626zm8.13-9.6915l-.2-.15-.002.003.202.147zm1.171-3.7725l-.249-.0249c0 .0048-.001.0096-.001.0145l.25.0104zm-7.903-5.5938l-.199-.1514v.0007l.199.1507zm-1.203 3.5124l-.25-.0119v.0053l.25.0066zm-.033 1.2358l-.25-.0066v.013l.25-.0064zm.033 1.2683l-.25.0065v.002l.25-.0085zm1.236 3.3498l.193-.1583-.193.1583zm-3.545 9.6692c-.151 0-.272-.0501-.376-.1544l-.354.3535c.199.1992.447.3009.73.3009v-.5zm-.376-.1544c-.075-.0749-.122-.1804-.122-.3436h-.5c0 .2704.083.5119.268.6971l.354-.3535zm-.122-.3436V41.2643h-.5v21.5946h.5zm0-21.5946c0-.1632.047-.2686.122-.3435l-.354-.3536c-.185.1853-.268.4268-.268.6971h.5zm.122-.3435c.104-.1044.225-.1545.376-.1545v-.5c-.283 0-.531.1017-.73.3009l.354.3536zm.376-.1545h1.496v-.5h-1.496v.5zm1.496 0c.151 0 .252.0491.33.1404l.38-.3254c-.182-.2123-.427-.315-.71-.315v.5zm.357.1675c.092.0782.141.1797.141.3305h.5c0-.2828-.103-.5282-.315-.7101l-.326.3796zm.141.3305v1.431h.5v-1.431h-.5zm.452 1.578c1.16-1.5954 2.857-2.4012 5.131-2.4012v-.5c-2.409 0-4.267.8636-5.535 2.6072l.404.294zm5.131-2.4012c2.221 0 3.842.6952 4.91 2.0512l.393-.3095c-1.187-1.5059-2.97-2.2417-5.303-2.2417v.5zm4.911 2.053c1.109 1.3803 1.714 3.168 1.799 5.3818l.5-.0192c-.088-2.2959-.719-4.1941-1.909-5.6757l-.39.3131zm1.8 5.3948c.021.2266.032.5858.032 1.0831h.5c0-.5-.011-.878-.034-1.1284l-.498.0453zm.032 1.0831c0 .4974-.011.8565-.032 1.0831l.498.0453c.023-.2504.034-.6284.034-1.1284h-.5zm-.033 1.0961c-.085 2.1914-.69 3.9802-1.8 5.3833l.392.3102c1.189-1.5022 1.82-3.3992 1.908-5.6741l-.5-.0194zm-1.799 5.3819c-1.09 1.3584-2.712 2.053-4.911 2.053v.5c2.312 0 4.094-.7365 5.301-2.24l-.39-.313zm-4.911 2.053c-2.186 0-3.865-.7838-5.07-2.3421l-.396.3058c1.31 1.6939 3.143 2.5363 5.466 2.5363v-.5zm-5.518-2.1892v7.5451h.5v-7.5451h-.5zm0 7.5451c0 .1632-.047.2687-.122.3436l.354.3535c.185-.1852.268-.4267.268-.6971h-.5zm-.135.3577c-.078.0912-.18.1403-.331.1403v.5c.283 0 .529-.1027.711-.315l-.38-.3253zm-.331.1403h-1.593v.5h1.593v-.5zm5.301-7.9882c1.593 0 2.798-.4963 3.552-1.5339l-.404-.2941c-.633.8703-1.661 1.328-3.148 1.328v.5zm3.55-1.531c.754-1.0052 1.154-2.3161 1.221-3.9121l-.5-.0208c-.063 1.526-.444 2.7302-1.121 3.6329l.4.3zm1.22-3.8977c.023-.2294.034-.5536.034-.968h-.5c0 .4096-.011.7141-.032.9183l.498.0497zm.034-.968c0-2.0724-.383-3.6722-1.188-4.7588-.815-1.1006-2.036-1.6378-3.616-1.6378v.5c1.456 0 2.512.4872 3.214 1.4355.713.9622 1.09 2.4358 1.09 4.4611h.5zm-4.804-6.3966c-1.557 0-2.765.5228-3.581 1.5946l.398.3028c.702-.9229 1.749-1.3974 3.183-1.3974v-.5zm-3.581 1.5953c-.771 1.0205-1.187 2.2412-1.254 3.6512l.5.0238c.063-1.3219.449-2.4428 1.153-3.3736l-.399-.3014zm-1.254 3.6565l-.033 1.2358.5.0132.033-1.2359-.5-.0131zm-.033 1.2488l.033 1.2684.5-.0129-.033-1.2683-.5.0128zm.033 1.2704c.045 1.3317.476 2.5015 1.292 3.4996l.387-.3166c-.744-.9098-1.138-1.9732-1.179-3.1999l-.5.0169zm1.292 3.4996c.837 1.0227 2.031 1.5227 3.543 1.5227v-.5c-1.392 0-2.431-.454-3.156-1.3393l-.387.3166zm16.998 3.2565l.107-.2257-.107.2257zm-2.179-1.7562l-.206.1415.005.0066.201-.1481zm.976-6.0165l.153.1973.001-.0004-.154-.1969zm4.813-1.8213l.034.2476h.001l-.035-.2476zm4.846-.6829l.035.2475c.123-.0174.215-.1229.215-.2475h-.25zm-6.147-3.6425l.135.2104.005-.0035-.14-.2069zm-1.366 1.3985l-.218-.1222c-.008.0137-.014.0282-.019.0431l.237.0791zm-.26.4228l-.156-.1953c-.008.0058-.014.012-.021.0185l.177.1768zm-2.309-.0651l-.19.1627c.008.0097.017.0188.027.0271l.163-.1898zm-.195-.5203l-.25-.0105v.0105h.25zm.715-1.7562l-.204-.1447-.001.0013.205.1434zm2.179-1.7237l.11.2246.004-.002-.114-.2226zm8.846.9757l-.183.1697.001.0017.182-.1714zm1.366 15.3178l.177.1768-.177-.1768zm-2.569 0l-.19.1627c.008.0097.017.0188.027.0271l.163-.1898zm-.195-1.9513h.25c0-.1095-.072-.2063-.176-.2388-.105-.0324-.218.0069-.28.0972l.206.1416zm-2.082 1.7562l-.116-.2215.116.2215zm.651-3.0896l-.179-.1747v.0001l.179.1746zm1.366-4.9108h.25c0-.0727-.032-.1417-.087-.1892a.25062.25062 0 0 0-.2-.0582l.037.2474zm-3.773.5528l.035.2476.001-.0002-.036-.2474zm-3.48 1.1058l.135.2107.004-.0027-.139-.208zm-.097 3.9351l-.139.2081.004.0029.135-.211zm1.853 2.8722c-1.027 0-1.976-.2094-2.852-.6262l-.215.4514c.946.4505 1.97.6748 3.067.6748v-.5zm-2.852-.6262c-.877-.4177-1.569-.9779-2.085-1.6786l-.402.2962c.568.7737 1.328 1.3843 2.272 1.8338l.215-.4514zm-2.08-1.6719c-.492-.7176-.737-1.5032-.737-2.3628h-.5c0 .9617.276 1.8456.825 2.6456l.412-.2828zm-.737-2.3628c0-1.3506.548-2.4497 1.66-3.315l-.307-.3947c-1.229.956-1.853 2.1984-1.853 3.7097h.5zm1.661-3.3154c1.147-.8974 2.706-1.4928 4.693-1.7706l-.069-.4952c-2.045.286-3.695.9048-4.932 1.8719l.308.3939zm4.694-1.7706l4.846-.683-.07-.4951-4.846.683.07.4951zm5.061-.9305v-.9432h-.5v.9432h.5zm0-.9432c0-1.1538-.333-2.0621-1.037-2.6763-.698-.6085-1.719-.8909-3.018-.8909v.5c1.237 0 2.119.2705 2.689.7678.564.4915.866 1.2418.866 2.2994h.5zm-4.055-3.5672c-.99 0-1.823.2137-2.482.6611l.28.4137c.555-.3765 1.283-.5748 2.202-.5748v-.5zm-2.477.6576c-.636.4088-1.123.9035-1.449 1.4866l.436.2443c.281-.5009.705-.9386 1.283-1.3103l-.27-.4206zm-1.468 1.5297c-.057.1701-.123.2612-.179.3066l.312.3905c.16-.1281.268-.3188.341-.539l-.474-.1581zm-.2.3251c-.023.0233-.078.0568-.213.0568v.5c.212 0 .417-.0531.567-.2033l-.354-.3535zm-.213.0568h-1.399v.5h1.399v-.5zm-1.399 0c-.134 0-.25-.0426-.357-.1349l-.326.3796c.196.1679.427.2553.683.2553v-.5zm-.33-.1078c-.093-.1077-.135-.2238-.135-.3576h-.5c0 .2563.087.4871.255.683l.38-.3254zm-.136-.3472c.019-.4538.23-.9929.671-1.6233l-.41-.2867c-.469.6705-.736 1.3022-.76 1.8891l.499.0209zm.67-1.6219c.446-.629 1.135-1.1795 2.085-1.6438l-.22-.4492c-1.001.4897-1.765 1.0883-2.273 1.8036l.408.2894zm2.089-1.6458c.931-.476 2.093-.7206 3.496-.7206v-.5c-1.459 0-2.704.2541-3.724.7754l.228.4452zm3.496-.7206c2.397 0 4.058.5679 5.053 1.6434l.367-.3394c-1.131-1.2228-2.96-1.804-5.42-1.804v.5zm5.054 1.6451c1.015 1.0766 1.526 2.4226 1.526 4.0564h.5c0-1.7485-.552-3.221-1.662-4.3993l-.364.3429zm1.526 4.0564v10.5371h.5V46.1426h-.5zm0 10.5371c0 .1513-.05.2718-.155.3761l.354.3536c.199-.1992.301-.4473.301-.7297h-.5zm-.155.3761c-.075.0749-.18.1219-.343.1219v.5c.27 0 .512-.083.697-.2683l-.354-.3536zm-.343.1219h-1.496v.5h1.496v-.5zm-1.496 0c-.163 0-.288-.0471-.391-.1349l-.325.3796c.201.1723.445.2553.716.2553v-.5zm-.363-.1078c-.088-.1025-.135-.2276-.135-.3902h-.5c0 .2711.083.5146.255.7156l.38-.3254zm-.135-.3902v-1.3984h-.5v1.3984h.5zm-.456-1.54c-.45.6536-1.109 1.2141-1.992 1.6763l.232.4429c.939-.4917 1.667-1.102 2.172-1.836l-.412-.2832zm-1.992 1.6763c-.864.4526-1.98.687-3.364.687v.5c1.436 0 2.639-.2427 3.596-.7441l-.232-.4429zm-2.681-1.2522c1.469 0 2.685-.4771 3.627-1.4413l-.358-.3492c-.837.857-1.919 1.2905-3.269 1.2905v.5zm3.627-1.4412c.969-.9928 1.437-2.3974 1.437-4.1749h-.5c0 1.6915-.444 2.9537-1.295 3.8255l.358.3494zm1.437-4.1749v-.9106h-.5v.9106h.5zm-.287-1.158l-3.772.5529.072.4947 3.773-.5529-.073-.4947zm-3.771.5527c-1.555.219-2.758.5948-3.583 1.1453l.277.416c.735-.4902 1.852-.8516 3.376-1.0662l-.07-.4951zm-3.579 1.1426c-.837.5347-1.287 1.2466-1.287 2.1295h.5c0-.6782.332-1.2454 1.056-1.7081l-.269-.4214zm-1.287 2.1295c0 .95.399 1.7005 1.185 2.2244l.277-.4161c-.645-.4301-.962-1.0238-.962-1.8083h-.5zm1.189 2.2273c.762.4845 1.655.722 2.671.722v-.5c-.935 0-1.733-.2178-2.402-.6439l-.269.4219zm16.583.9598l-.178.1754.003.0029.175-.1783zm-2.082-5.5287l-.249.0063v.0029l.249-.0092zm-.032-1.3009l-.25-.0062v.0125l.25-.0063zm.032-1.3008l-.249-.0092v.0029l.249.0063zm2.082-5.4963l.177.1768-.177-.1768zm9.431-1.1382l-.115.2218.115-.2218zm2.407 2.0814l-.212.1335.003.0039.209-.1374zm.878 2.4716l-.25.0132.001.0117.249-.0249zm-.195.5204l.163.1898-.163-.1898zm-2.602.065l.156-.1952-.156.1952zm-.325-.5203l-.236.0836.005.0125.231-.0961zm-1.561-2.2115l-.14.207.004.0031.136-.2101zm-5.757.5854l-.181-.1721v.0002l.181.1719zm-1.268 3.8051l-.25-.0095v.0025l.25.007zm-.032 1.1708l-.25-.007v.0143l.25-.0073zm.032 1.1057l-.25.0073v.0021l.25-.0094zm1.268 3.8376l-.181.1719.181-.1719zm5.757.5854l.135.2101.005-.0031-.14-.207zm1.561-2.244l-.231-.0963-.005.0128.236.0835zm.325-.5204l.156.1952a.43189.43189 0 0 0 .021-.0184l-.177-.1768zm2.602.0651l-.177.1767c.005.0046.009.0089.014.0131l.163-.1898zm.195.5203l-.249-.0249-.001.0114.25.0135zm-.878 2.4717l-.211-.1349-.001.0014.212.1335zm-2.407 2.0814l-.115-.2218-.002.0009.117.2209zm-3.967.5956c-2.272 0-4.024-.6356-5.289-1.8796l-.35.3565c1.38 1.3577 3.27 2.0231 5.639 2.0231v-.5zm-5.286-1.8767c-1.246-1.2668-1.925-3.0439-2.01-5.3626l-.499.0184c.088 2.4079.797 4.3166 2.153 5.6948l.356-.3506zm-2.01-5.3596l-.032-1.3009-.5.0125.033 1.3009.499-.0125zm-.032-1.2884l.032-1.3009-.499-.0125-.033 1.3009.5.0125zm.032-1.298c.085-2.3188.764-4.084 2.009-5.3286l-.354-.3535c-1.357 1.3571-2.066 3.2561-2.154 5.6638l.499.0183zm2.009-5.3286c1.265-1.2649 3.016-1.9106 5.287-1.9106v-.5c-2.37 0-4.261.6769-5.641 2.0571l.354.3535zm5.287-1.9106c1.531 0 2.812.2766 3.852.8174l.231-.4436c-1.129-.5867-2.493-.8738-4.083-.8738v.5zm3.852.8174c1.055.5484 1.819 1.215 2.31 1.9931l.423-.267c-.549-.8697-1.389-1.5907-2.502-2.1697l-.231.4436zm2.313 1.997c.522.7941.797 1.5758.837 2.3474l.5-.0263c-.046-.8761-.358-1.7422-.919-2.5959l-.418.2748zm.838 2.3591c.015.1441-.025.2342-.109.3057l.326.3796c.22-.1887.31-.4455.281-.735l-.498.0497zm-.109.3057c-.102.0878-.227.1349-.39.1349v.5c.271 0 .514-.083.716-.2553l-.326-.3796zm-.39.1349h-1.561v.5h1.561v-.5zm-1.561 0c-.19 0-.287-.0391-.332-.0753l-.312.3905c.171.1372.4.1848.644.1848v-.5zm-.332-.0753c-.056-.045-.145-.1676-.25-.4213l-.462.1923c.111.2668.239.491.4.6195l.312-.3905zm-.245-.4086c-.381-1.0733-.928-1.8649-1.662-2.3381l-.271.4202c.611.3941 1.104 1.0768 1.461 2.0849l.472-.167zm-1.657-2.335c-.723-.4897-1.621-.726-2.677-.726v.5c.982 0 1.775.2191 2.397.64l.28-.414zm-2.677-.726c-1.401 0-2.544.4432-3.401 1.3463l.363.3442c.747-.7881 1.751-1.1905 3.038-1.1905v-.5zm-3.401 1.3465c-.839.8856-1.271 2.2239-1.337 3.9675l.5.0189c.064-1.6821.478-2.8805 1.2-3.6426l-.363-.3438zm-1.337 3.97l-.032 1.1708.499.0139.033-1.1708-.5-.0139zm-.032 1.1851l.032 1.1057.5-.0147-.033-1.1057-.499.0147zm.032 1.1078c.066 1.7642.497 3.1139 1.337 4.0001l.363-.3439c-.722-.7615-1.136-1.9702-1.2-3.675l-.5.0188zm1.337 4.0001c.837.8837 1.982 1.3139 3.401 1.3139v-.5c-1.312 0-2.314-.3937-3.038-1.1578l-.363.3439zm3.401 1.3139c1.054 0 1.95-.2244 2.672-.6903l-.271-.4202c-.622.4013-1.417.6105-2.401.6105v.5zm2.677-.6934c.73-.4944 1.276-1.2944 1.657-2.3676l-.472-.1669c-.357 1.0082-.851 1.7042-1.465 2.1205l.28.414zm1.652-2.3549c.105-.2536.194-.3763.25-.4213l-.312-.3904c-.161.1284-.289.3527-.4.6194l.462.1923zm.271-.4397c.045-.045.133-.0894.311-.0894v-.5c-.255 0-.493.064-.665.2358l.354.3536zm.311-.0894h1.561v-.5h-1.561v.5zm1.561 0c.151 0 .272.0501.376.1544l.354-.3535c-.2-.1992-.448-.3009-.73-.3009v.5zm.39.1675c.084.0715.124.1616.109.3056l.498.0498c.029-.2896-.061-.5464-.281-.7351l-.326.3797zm.108.317c-.04.7495-.314 1.5321-.839 2.3503l.421.2698c.56-.873.871-1.7382.918-2.5931l-.5-.027zm-.84 2.3517c-.491.7781-1.255 1.4447-2.31 1.9931l.231.4436c1.113-.579 1.953-1.3 2.502-2.1697l-.423-.267zm-2.312 1.994c-1.017.5395-2.296.8165-3.85.8165v.5c1.611 0 2.976-.2868 4.084-.8748l-.234-.4417zm7.492.5461l-.19.1627c.008.0097.017.0188.027.0271l.163-.1898zm0-22.6678l.177.1768-.177-.1768zm2.699 0l-.19.1627c.009.0097.018.0188.027.0271l.163-.1898zm.228 8.098h-.25c0 .1066.067.2015.168.2363s.213.0018.279-.0821l-.197-.1542zm2.211-1.8213l.11.2248.004-.0023-.114-.2225zm8.001 1.366l-.19.1624.003.0033.187-.1657zm1.528 15.0251l-.177-.1768.177.1768zm-2.699 0l-.19.1627c.008.0097.018.0188.027.0271l.163-.1898zm-1.333-13.1389l-.189.1643.002.0027.187-.167zm-6.505.0326l-.181-.1722v.0001l.181.1721zm-1.431 13.1063l-.177-.1768.177.1768zm-2.146-.0549c-.163 0-.288-.0471-.39-.1349l-.326.3796c.201.1723.445.2553.716.2553v-.5zm-.363-.1078c-.088-.1025-.135-.2276-.135-.3902h-.5c0 .2711.083.5146.255.7156l.38-.3254zm-.135-.3902V35.0852h-.5v21.5945h.5zm0-21.5945c0-.1633.047-.2687.122-.3436l-.354-.3536c-.185.1853-.268.4268-.268.6972h.5zm.122-.3436c.104-.1044.224-.1544.376-.1544v-.5c-.283 0-.531.1016-.73.3008l.354.3536zm.376-.1544h1.626v-.5h-1.626v.5zm1.626 0c.151 0 .252.049.33.1403l.38-.3254c-.182-.2123-.427-.3149-.71-.3149v.5zm.357.1674c.092.0782.141.1797.141.3306h.5c0-.2828-.103-.5283-.315-.7102l-.326.3796zm.141.3306v7.5776h.5v-7.5776h-.5zm.447 7.7318c.607-.7749 1.315-1.3567 2.124-1.7507l-.219-.4495c-.883.4299-1.649 1.0623-2.299 1.8918l.394.3084zm2.128-1.753c.801-.4106 1.811-.6229 3.041-.6229v-.5c-1.285 0-2.378.2214-3.269.678l.228.4449zm3.041-.6229c2.023 0 3.563.6501 4.656 1.9288l.38-.3249c-1.205-1.4098-2.896-2.1039-5.036-2.1039v.5zm4.659 1.9321c1.12 1.2661 1.693 2.9689 1.693 5.1353h.5c0-2.2566-.598-4.0878-1.819-5.4667l-.374.3314zm1.693 5.1353v9.1712h.5v-9.1712h-.5zm0 9.1712c0 .1513-.05.2718-.155.3761l.354.3536c.199-.1992.301-.4473.301-.7297h-.5zm-.155.3761c-.074.0749-.18.1219-.343.1219v.5c.27 0 .512-.083.697-.2683l-.354-.3536zm-.343.1219h-1.626v.5h1.626v-.5zm-1.626 0c-.163 0-.288-.0471-.39-.1349l-.326.3796c.201.1723.445.2553.716.2553v-.5zm-.363-.1078c-.088-.1025-.135-.2276-.135-.3902h-.5c0 .2711.083.5146.255.7156l.38-.3254zm-.135-.3902v-9.0085h-.5v9.0085h.5zm0-9.0085c0-1.5789-.39-2.8388-1.202-3.7444l-.373.3339c.705.7856 1.075 1.9106 1.075 3.4105h.5zm-1.2-3.7417c-.796-.9135-1.947-1.3541-3.408-1.3541v.5c1.357 0 2.353.4049 3.031 1.1826l.377-.3285zm-3.408-1.3541c-1.424 0-2.588.4545-3.466 1.3787l.362.3443c.77-.8103 1.796-1.223 3.104-1.223v-.5zm-3.466 1.3788c-.859.9047-1.272 2.1552-1.272 3.717h.5c0-1.4737.388-2.5865 1.135-3.3729l-.363-.3441zm-1.272 3.717v9.0085h.5v-9.0085h-.5zm0 9.0085c0 .1513-.05.2718-.155.3761l.354.3536c.199-.1992.301-.4473.301-.7297h-.5zm-.155.3761c-.075.0749-.18.1219-.343.1219v.5c.27 0 .512-.083.697-.2683l-.354-.3536zm-.343.1219h-1.626v.5h1.626v-.5zm18.81-1.4736l-.181.1725.003.0028.178-.1753zm-2.179-5.6588l-.25.0073v.0063l.25-.0136zm-.033-1.1058l-.25-.0076v.015l.25-.0074zm.033-1.0732l-.25-.0162v.0086l.25.0076zm2.211-5.5938l-.179-.1739-.002.0014.181.1725zm10.895.2277l-.19.1629.002.0013.188-.1642zm1.756 7.2849l.177.1768-.177-.1768zm-11.773.1951v-.25c-.138 0-.25.1119-.25.25h.25zm0 .2927h-.25l.001.0115.249-.0115zm1.269 3.6099l-.197.1542.004.0046.193-.1588zm5.593.8781l.132.2125.002-.0013-.134-.2112zm1.431-1.2683l-.2-.1501-.004.0067.204.1434zm.423-.4553l.112.2236c.006-.0029.011-.006.017-.0093l-.129-.2143zm2.634.065l-.16.1921.16-.1921zm-.715 2.179l-.186-.1676-.003.0034.189.1642zm-2.504 1.7562l.102.228.002-.0009-.104-.2271zm.78-9.3013v.25c.138 0 .25-.1119.25-.25h-.25zm-1.236-3.74l-.191.1609.004.0046.187-.1655zm-6.504 0l-.191-.1609-.001.0004.192.1605zm-1.171 3.74h-.25c0 .1381.112.25.25.25v-.25zm4.456 9.7668c-2.178 0-3.899-.664-5.188-1.9743l-.356.3507c1.399 1.4216 3.256 2.1236 5.544 2.1236v-.5zm-5.185-1.9714c-1.272-1.3347-1.983-3.1594-2.111-5.5l-.499.0273c.133 2.4292.875 4.3771 2.248 5.8177l.362-.345zm-2.11-5.4937l-.033-1.1057-.5.0147.033 1.1057.5-.0147zm-.033-1.0908l.033-1.0732-.5-.0152-.033 1.0732.5.0152zm.032-1.0646c.149-2.2967.87-4.1013 2.143-5.4375l-.362-.345c-1.371 1.439-2.125 3.3636-2.28 5.7501l.499.0324zm2.142-5.436c1.29-1.3324 2.989-2.0054 5.121-2.0054v-.5c-2.247 0-4.083.7146-5.48 2.1575l.359.3479zm5.121-2.0054c2.349 0 4.138.7483 5.404 2.222l.38-.3259c-1.379-1.605-3.319-2.3961-5.784-2.3961v.5zm5.406 2.2233c1.272 1.4602 1.922 3.4555 1.922 6.0149h.5c0-2.644-.673-4.7682-2.045-6.3434l-.377.3285zm1.922 6.0149v.5529h.5v-.5529h-.5zm0 .5529c0 .1513-.05.2717-.155.3761l.354.3536c.199-.1992.301-.4473.301-.7297h-.5zm-.155.3761c-.074.0749-.18.1219-.343.1219v.5c.27 0 .512-.0831.697-.2683l-.354-.3536zm-.343.1219h-11.253v.5h11.253v-.5zm-11.503.25v.2927h.5v-.2927h-.5zm.001.3042c.067 1.455.505 2.7097 1.321 3.7525l.394-.3081c-.745-.9519-1.153-2.1038-1.216-3.4674l-.499.023zm1.325 3.7572c.851 1.0354 1.974 1.5547 3.347 1.5547v-.5c-1.228 0-2.208-.4563-2.961-1.3722l-.386.3175zm3.347 1.5547c1.029 0 1.891-.201 2.571-.623l-.263-.4248c-.578.3586-1.341.5478-2.308.5478v.5zm2.573-.6242c.667-.4222 1.173-.8661 1.502-1.3362l-.409-.2867c-.278.3972-.726.7989-1.36 1.2005l.267.4224zm1.497-1.3295c.095-.1266.173-.2219.236-.2889.031-.0334.056-.0574.075-.0738.02-.0174.028-.0209.024-.019l-.224-.4472c-.086.0432-.169.1212-.242.1998-.079.0848-.168.1955-.269.3291l.4.3zm.352-.391c.046-.0276.171-.0619.424-.0619v-.5c-.267 0-.511.0308-.681.1332l.257.4287zm.424-.0619h1.594v-.5h-1.594v.5zm1.594 0c.146 0 .249.0393.327.1047l.321-.3841c-.182-.1515-.404-.2206-.648-.2206v.5zm.327.1047c.064.0533.106.1297.106.2632h.5c0-.2567-.089-.4839-.285-.6473l-.321.3841zm.106.2632c0 .3793-.248.8937-.847 1.5561l.372.3352c.615-.6819.975-1.3166.975-1.8913h-.5zm-.85 1.5595c-.555.638-1.357 1.2046-2.42 1.6932l.209.4543c1.106-.5087 1.973-1.1129 2.589-1.8191l-.378-.3284zm-2.418 1.6923c-1.024.46-2.213.6936-3.572.6936v.5c1.416 0 2.677-.2435 3.777-.7375l-.205-.4561zm1.133-9.0732v-.0976h-.5v.0976h.5zm0-.0976c0-1.544-.426-2.8211-1.298-3.808l-.375.3311c.776.8778 1.173 2.0289 1.173 3.4769h.5zm-1.294-3.8033c-.855-1.0163-2.012-1.5201-3.444-1.5201v.5c1.3 0 2.311.4502 3.061 1.3419l.383-.3218zm-3.444-1.5201c-1.431 0-2.589.5038-3.443 1.5201l.382.3218c.75-.8917 1.761-1.3419 3.061-1.3419v-.5zm-3.444 1.5205c-.826.9869-1.229 2.2622-1.229 3.8029h.5c0-1.4513.378-2.6043 1.113-3.4819l-.384-.321zm-1.229 3.8029v.0976h.5v-.0976h-.5zm.25.3476h8.911v-.5h-8.911v.5zM189.267 133.808c-.441 0-.826-.166-1.157-.496-.33-.331-.496-.716-.496-1.157 0-.441.028-.743.083-.909l20.491-53.457c.44-1.2118 1.322-1.8177 2.644-1.8177h5.618c1.322 0 2.203.6059 2.644 1.8177l20.408 53.457.165.909c0 .441-.165.826-.496 1.157-.33.33-.716.496-1.156.496h-4.214c-.606 0-1.074-.138-1.405-.413-.33-.331-.551-.661-.661-.992l-4.544-11.732h-27.1l-4.545 11.732c-.11.331-.358.661-.743.992-.331.275-.772.413-1.322.413h-4.214zm35.528-20.243l-11.154-29.3314-11.154 29.3314h22.308zm23.872-30.736c-.551 0-1.019-.1652-1.405-.4957-.331-.3856-.496-.8538-.496-1.4046V76.467c0-.5508.165-1.019.496-1.4046.386-.3855.854-.5783 1.405-.5783h5.205c.551 0 1.019.1928 1.404.5783.386.3856.579.8538.579 1.4046v4.4617c0 .5508-.193 1.019-.579 1.4046-.385.3305-.853.4957-1.404.4957h-5.205zm.661 50.979c-.551 0-1.019-.166-1.405-.496-.331-.386-.496-.854-.496-1.405V92.7438c0-.5508.165-.9915.496-1.3219.386-.3856.854-.5784 1.405-.5784h3.965c.551 0 .992.1928 1.322.5784.386.3304.579.7711.579 1.3219v39.1632c0 .551-.193 1.019-.579 1.405-.33.33-.771.496-1.322.496h-3.965zm20.01 0c-.551 0-1.019-.166-1.405-.496-.33-.386-.495-.854-.495-1.405V92.8265c0-.5509.165-1.0191.495-1.4046.386-.3856.854-.5784 1.405-.5784h3.801c.55 0 1.019.1928 1.404.5784.386.3855.579.8537.579 1.4046v3.6354c2.258-3.7456 6.114-5.6184 11.567-5.6184h3.222c.551 0 .992.1928 1.322.5784.386.3304.578.7711.578 1.3219v3.3876c0 .5508-.192.9915-.578 1.322-.33.3305-.771.4957-1.322.4957h-4.957c-2.975 0-5.316.8813-7.023 2.6439-1.708 1.708-2.562 4.049-2.562 7.023v24.291c0 .551-.192 1.019-.578 1.405-.386.33-.854.496-1.405.496h-4.048zm35.683 0c-.55 0-1.019-.166-1.404-.496-.331-.386-.496-.854-.496-1.405V97.4534h-7.023c-.551 0-1.019-.1653-1.404-.4958-.331-.3856-.496-.8538-.496-1.4046v-2.8092c0-.5508.165-.9915.496-1.3219.385-.3856.853-.5784 1.404-.5784h7.023v-4.1312c0-9.3639 4.737-14.0459 14.211-14.0459h4.627c.551 0 .992.1928 1.322.5783.386.3305.579.7712.579 1.322v2.8092c0 .5508-.193 1.019-.579 1.4046-.33.3305-.771.4957-1.322.4957h-4.461c-2.479 0-4.214.661-5.206 1.983-.991 1.2669-1.487 3.2223-1.487 5.8662v3.7181h17.681V74.5667c0-.5508.166-.9915.496-1.322.386-.3855.854-.5783 1.405-.5783h3.8c.551 0 .992.1928 1.322.5783.386.3305.579.7712.579 1.322v57.3403c0 .551-.193 1.019-.579 1.405-.33.33-.771.496-1.322.496h-3.8c-.551 0-1.019-.166-1.405-.496-.33-.386-.496-.854-.496-1.405V97.4534h-17.681v34.4536c0 .551-.193 1.019-.578 1.405-.331.33-.771.496-1.322.496h-3.884zm60.944.826c-6.059 0-10.768-1.708-14.128-5.123-3.305-3.415-5.068-7.959-5.288-13.633l-.083-3.552.083-3.553c.22-5.619 2.01-10.1354 5.37-13.5505 3.36-3.4702 8.042-5.2052 14.046-5.2052s10.686 1.735 14.046 5.2052c3.36 3.4151 5.15 7.9315 5.371 13.5505.055.606.082 1.79.082 3.553 0 1.762-.027 2.946-.082 3.552-.221 5.674-2.011 10.218-5.371 13.633-3.305 3.415-7.987 5.123-14.046 5.123zm0-6.362c3.47 0 6.197-1.102 8.18-3.305 2.038-2.203 3.14-5.371 3.305-9.502.055-.551.082-1.597.082-3.139 0-1.543-.027-2.589-.082-3.14-.165-4.131-1.267-7.299-3.305-9.5018-1.983-2.2033-4.71-3.3049-8.18-3.3049-3.47 0-6.224 1.1016-8.262 3.3049-2.038 2.2028-3.112 5.3708-3.222 9.5018l-.083 3.14.083 3.139c.11 4.131 1.184 7.299 3.222 9.502 2.038 2.203 4.792 3.305 8.262 3.305zm40.118 5.536c-.716 0-1.267-.166-1.653-.496-.385-.331-.716-.854-.991-1.57l-11.733-38.3372-.165-.8262c0-.4958.165-.9089.496-1.2394.385-.3305.798-.4957 1.239-.4957h3.635c.551 0 .992.1652 1.322.4957.386.2754.634.5784.744.9089l9.171 31.1489 9.832-30.8184c.111-.4407.358-.8263.744-1.1567.386-.3856.909-.5784 1.57-.5784h2.809c.661 0 1.184.1928 1.57.5784.386.3304.633.716.744 1.1567l9.832 30.8184 9.171-31.1489c.055-.2754.248-.5784.578-.9089.386-.3305.854-.4957 1.405-.4957h3.718c.441 0 .826.1652 1.157.4957.33.3305.495.7436.495 1.2394l-.165.8262-11.65 38.3372c-.275.716-.606 1.239-.991 1.57-.386.33-.964.496-1.735.496h-3.223c-1.487 0-2.396-.689-2.726-2.066l-9.585-29.579-9.584 29.579c-.44 1.377-1.377 2.066-2.809 2.066h-3.222z"/></g><defs><clipPath id="clip0"><path fill="#fff" d="M0 0h453v175H0z"/></clipPath></defs></svg>