<svg xmlns="http://www.w3.org/2000/svg" role="img" viewBox="110.27 11.27 505.96 357.96"><title>Azure Data Factory logo</title><path fill="#59b4d9" d="M496.48 174.18637v-63.04609l-71.24 62.00401h-1.56v-62.00401l-71.24 62.00401V43.40481c0-10.94188-24.44-21.88377-56.68-21.88377-32.24 0-58.76 10.42084-58.76 21.88377v237.59518h260zM295.76 53.82565c-23.4 0-42.12-5.73146-42.12-11.98397 0-6.2525 18.72-11.98396 42.12-11.98396s42.12 5.21042 42.12 11.98396c-.52 6.25251-19.24 11.98397-42.12 11.98397zm122.72 184.96994h-28.6v-28.65732h28.6zm-50.44 0h-28.6v-28.65732h28.6zm72.8 0v-28.65732h28.6v28.65732z"/><path fill="#3999c6" d="M237 41.842h57.72V281H237z"/><path fill="#fff" d="M351.92 41.84168c0 11.46293-26 20.84169-57.72 20.84169S237 53.30461 237 41.84168C237 30.37876 263 21 294.72 21s57.2 8.85772 57.2 20.84168"/><path fill="#7fba00" d="M340.48 40.27856c0 7.81563-20.28 13.54709-45.76 13.54709-25.48 0-45.76-5.73146-45.76-13.54709 0-7.81563 20.28-13.5471 45.76-13.5471 25.48 0 45.76 6.25251 45.76 13.5471"/><path fill="#b8d432" d="M330.6 48.61523c6.24-2.08417 9.36-5.21042 9.36-8.33667 0-7.81563-20.28-13.5471-45.76-13.5471-25.48 0-45.76 6.25251-45.76 13.5471.52 3.12625 4.16 6.2525 9.88 8.33667 8.32-3.12625 21.32-5.21042 36.4-5.21042 14.56 0 27.56 2.08417 35.88 5.21042"/><path d="M152.96873 329.65105q0 5.28646-2.31771 9.58333-2.29166 4.29687-6.11979 6.66666-2.65625 1.64063-5.93749 2.36979-3.25521.72917-8.59375.72917h-9.79166v-38.77602h9.68749q5.67708 0 9.01042.83333 3.35937.8073 5.67708 2.23959 3.95833 2.47395 6.17187 6.58853t2.21354 9.76562zm-5.39062-.0781q0-4.55729-1.58855-7.68229-1.58854-3.125-4.73958-4.92187-2.29166-1.30208-4.86978-1.79687-2.57813-.52084-6.17188-.52084h-4.84374v29.92186h4.84374q3.72396 0 6.48438-.54688 2.78645-.54687 5.10416-2.03124 2.89062-1.84896 4.32291-4.86979 1.45834-3.02083 1.45834-7.55208zM183.51559 349h-4.86979v-3.09896q-.65104.44271-1.77084 1.25-1.09374.78125-2.13541 1.25-1.22396.59896-2.8125.98958-1.58854.41667-3.72396.41667-3.93228 0-6.66666-2.60416-2.73437-2.60417-2.73437-6.64062 0-3.30729 1.40625-5.33854 1.43229-2.05729 4.0625-3.22917 2.65624-1.17187 6.3802-1.58854 3.72396-.41667 7.99479-.625v-.75521q0-1.66666-.59896-2.76041-.57292-1.09375-1.66667-1.71875-1.04166-.59896-2.5-.80729-1.45833-.20833-3.04687-.20833-1.92708 0-4.29687.52083-2.36979.49479-4.89583 1.45833h-.26042v-4.97395q1.43229-.39063 4.14062-.85938 2.70834-.46875 5.33854-.46875 3.07292 0 5.33854.52083 2.29167.4948 3.95833 1.71875 1.64063 1.19792 2.5 3.09896.85938 1.90104.85938 4.71354zm-4.86979-7.16145v-8.09896q-2.23958.13021-5.28646.39063-3.02083.26041-4.79166.75521-2.10938.59895-3.41146 1.87499-1.30208 1.25-1.30208 3.46354 0 2.5 1.51041 3.77604 1.51042 1.25 4.60938 1.25 2.57812 0 4.71354-.98958 2.13541-1.01562 3.95833-2.42187zm29.40102 6.90103q-1.38021.36459-3.02083.59896-1.61459.23438-2.89063.23438-4.45312 0-6.77083-2.39584-2.3177-2.39583-2.3177-7.68228v-15.46874h-3.30729v-4.11458h3.30729v-8.35937h4.89583v8.35937h10.10416v4.11458h-10.10416v13.2552q0 2.29166.10416 3.59374.10417 1.27605.72917 2.39584.57292 1.04166 1.5625 1.53645 1.01562.46875 3.07291.46875 1.19792 0 2.5-.33854 1.30208-.36458 1.875-.59896h.26042zM236.56243 349h-4.86979v-3.09896q-.65104.44271-1.77083 1.25-1.09375.78125-2.13542 1.25-1.22395.59896-2.81249.98958-1.58855.41667-3.72396.41667-3.93229 0-6.66666-2.60416-2.73438-2.60417-2.73438-6.64062 0-3.30729 1.40625-5.33854 1.43229-2.05729 4.0625-3.22917 2.65625-1.17187 6.3802-1.58854 3.72396-.41667 7.99479-.625v-.75521q0-1.66666-.59896-2.76041-.57291-1.09375-1.66666-1.71875-1.04167-.59896-2.5-.80729-1.45833-.20833-3.04687-.20833-1.92709 0-4.29688.52083-2.36979.49479-4.89583 1.45833h-.26041v-4.97395q1.43229-.39063 4.14062-.85938 2.70833-.46875 5.33854-.46875 3.07291 0 5.33854.52083 2.29166.4948 3.95833 1.71875 1.64062 1.19792 2.5 3.09896.85937 1.90104.85937 4.71354zm-4.86979-7.16145v-8.09896q-2.23958.13021-5.28645.39063-3.02084.26041-4.79167.75521-2.10937.59895-3.41145 1.87499-1.30209 1.25-1.30209 3.46354 0 2.5 1.51042 3.77604 1.51042 1.25 4.60937 1.25 2.57813 0 4.71354-.98958 2.13542-1.01562 3.95833-2.42187zm58.20308-27.03124h-19.60936v10.9375h16.84895v4.58333h-16.84895V349h-5.15625v-38.77602h24.76561zM315.3905 349h-4.86979v-3.09896q-.65104.44271-1.77083 1.25-1.09375.78125-2.13541 1.25-1.22396.59896-2.8125.98958-1.58854.41667-3.72396.41667-3.93229 0-6.66666-2.60416-2.73438-2.60417-2.73438-6.64062 0-3.30729 1.40625-5.33854 1.43229-2.05729 4.0625-3.22917 2.65625-1.17187 6.38021-1.58854 3.72395-.41667 7.99478-.625v-.75521q0-1.66666-.59895-2.76041-.57292-1.09375-1.66667-1.71875-1.04167-.59896-2.5-.80729-1.45833-.20833-3.04687-.20833-1.92708 0-4.29687.52083-2.36979.49479-4.89584 1.45833h-.26041v-4.97395q1.43229-.39063 4.14062-.85938 2.70833-.46875 5.33854-.46875 3.07291 0 5.33854.52083 2.29166.4948 3.95833 1.71875 1.64062 1.19792 2.5 3.09896.85937 1.90104.85937 4.71354zm-4.86979-7.16145v-8.09896q-2.23958.13021-5.28645.39063-3.02083.26041-4.79167.75521-2.10937.59895-3.41145 1.87499-1.30208 1.25-1.30208 3.46354 0 2.5 1.51041 3.77604 1.51042 1.25 4.60937 1.25 2.57813 0 4.71354-.98958 2.13542-1.01562 3.95833-2.42187zm35.80728 5.33853q-2.44792 1.17188-4.66146 1.82292-2.1875.65104-4.66145.65104-3.15104 0-5.78125-.91146-2.63021-.9375-4.50521-2.81249-1.90104-1.875-2.9427-4.73959-1.04167-2.86458-1.04167-6.6927 0-7.13541 3.90625-11.19791 3.93229-4.0625 10.36458-4.0625 2.49999 0 4.89583.70313 2.42187.70312 4.42708 1.71875v5.4427h-.26042q-2.23958-1.74479-4.63541-2.68229-2.36979-.9375-4.63542-.9375-4.16666 0-6.58853 2.8125-2.39584 2.78646-2.39584 8.20312 0 5.26041 2.34375 8.09895 2.36979 2.8125 6.64062 2.8125 1.48438 0 3.02083-.39062 1.53646-.39063 2.76042-1.01563 1.06771-.54687 2.00521-1.14583.9375-.625 1.48437-1.06771h.26042zm21.38019 1.5625q-1.38021.36459-3.02083.59896-1.61458.23438-2.89063.23438-4.45312 0-6.77083-2.39584-2.3177-2.39583-2.3177-7.68228v-15.46874h-3.30729v-4.11458h3.30729v-8.35937h4.89583v8.35937h10.10416v4.11458h-10.10416v13.2552q0 2.29166.10417 3.59374.10416 1.27605.72916 2.39584.57292 1.04166 1.5625 1.53645 1.01562.46875 3.07292.46875 1.19791 0 2.49999-.33854 1.30209-.36458 1.875-.59896h.26042zm30.7031-14.27082q0 7.10937-3.64583 11.22395t-9.76562 4.11458q-6.17187 0-9.8177-4.11458-3.61979-4.11458-3.61979-11.22395t3.61979-11.22395q3.64583-4.14063 9.8177-4.14063 6.11979 0 9.76562 4.14063 3.64583 4.11458 3.64583 11.22395zm-5.05208 0q0-5.65104-2.21354-8.38541-2.21354-2.76042-6.14583-2.76042-3.98437 0-6.19791 2.76042-2.1875 2.73437-2.1875 8.38541 0 5.46875 2.21354 8.30729 2.21354 2.81249 6.17187 2.81249 3.90625 0 6.11979-2.78645 2.23958-2.8125 2.23958-8.33333zm30.78123-9.21875h-.26042q-1.09375-.26041-2.13541-.36458-1.01563-.13021-2.42188-.13021-2.26562 0-4.37499 1.01563-2.10938.98958-4.0625 2.57812V349h-4.89583v-29.08852h4.89583v4.29687q2.91666-2.34375 5.1302-3.30729 2.23959-.98958 4.55729-.98958 1.27604 0 1.84896.0781.57292.0521 1.71875.23438zm29.76561-5.33853l-16.97916 39.81768h-5.23437l5.41666-12.13541-11.58853-27.68227h5.3125l8.93228 21.56248 9.01041-21.56248zm55.49476 26.27602q-1.43229.625-2.60417 1.17188-1.14583.54687-3.02083 1.14583-1.58854.49479-3.46354.83333-1.84896.36458-4.08854.36458-4.21875 0-7.68229-1.17187-3.43749-1.19792-5.98958-3.72396-2.49999-2.47395-3.90624-6.27603-1.40625-3.82813-1.40625-8.88021 0-4.79166 1.35416-8.5677 1.35417-3.77604 3.90625-6.3802 2.47396-2.52604 5.96354-3.85417 3.51562-1.32812 7.78645-1.32812 3.125 0 6.22396.7552 3.125.75521 6.92708 2.65625v6.11979h-.39063q-3.20312-2.68229-6.35416-3.90625-3.15104-1.22395-6.74479-1.22395-2.9427 0-5.3125.96354-2.34374.9375-4.1927 2.9427-1.79687 1.95313-2.8125 4.94792-.98958 2.96875-.98958 6.87499 0 4.08854 1.09375 7.03125 1.11979 2.94271 2.86458 4.79166 1.82291 1.92709 4.24479 2.86458 2.44791.91146 5.15624.91146 3.72396 0 6.97917-1.27604 3.2552-1.27604 6.09374-3.82812h.36459zm31.69269-11.71874q0 7.10937-3.64583 11.22395t-9.76562 4.11458q-6.17187 0-9.8177-4.11458-3.61979-4.11458-3.61979-11.22395t3.61979-11.22395q3.64583-4.14063 9.8177-4.14063 6.11979 0 9.76562 4.14063 3.64583 4.11458 3.64583 11.22395zm-5.05208 0q0-5.65104-2.21354-8.38541-2.21354-2.76042-6.14583-2.76042-3.98437 0-6.19792 2.76042-2.18749 2.73437-2.18749 8.38541 0 5.46875 2.21354 8.30729 2.21354 2.81249 6.17187 2.81249 3.90625 0 6.11979-2.78645 2.23958-2.8125 2.23958-8.33333zm38.22915-.36458q0 3.54166-1.01562 6.48437-1.01563 2.91666-2.86459 4.94791-1.71874 1.92708-4.06249 2.99479-2.31771 1.04167-4.92187 1.04167-2.26563 0-4.11459-.4948-1.82291-.49479-3.72395-1.53645v12.18749h-4.89583v-39.81768h4.89583v3.04687q1.95312-1.64063 4.375-2.73437 2.44791-1.1198 5.20833-1.1198 5.26041 0 8.17707 3.98438 2.94271 3.95833 2.94271 11.01562zm-5.05208.1302q0-5.26041-1.79687-7.86457-1.79688-2.60417-5.52083-2.60417-2.10938 0-4.24479.91146-2.13542.91146-4.08854 2.39583v16.48436q2.08333.9375 3.5677 1.27605 1.51042.33854 3.41146.33854 4.08854 0 6.38021-2.76042 2.29166-2.76041 2.29166-8.17708zm37.70831-14.3229l-16.97916 39.81768h-5.23437l5.41667-12.13541-11.58854-27.68227h5.3125l8.93228 21.56248 9.01042-21.56248z"/></svg>