<svg xmlns="http://www.w3.org/2000/svg" role="img" viewBox="2.31 -0.13 13.07 16.57"><title>Azure Function App logo</title><defs><linearGradient id="a" x1="-175.993" x2="-175.993" y1="-343.723" y2="-359.232" gradientTransform="matrix(.80695 0 0 .7183 150.99 258.147)" gradientUnits="userSpaceOnUse"><stop offset="0" stop-color="#fea11b"/><stop offset=".284" stop-color="#fea51a"/><stop offset=".547" stop-color="#feb018"/><stop offset=".8" stop-color="#ffc314"/><stop offset="1" stop-color="#ffd70f"/></linearGradient></defs><path fill="#50e6ff" d="M6.46893 8.63106l-.4091.41027a.18638.18638 0 0 1-.26358.00038L2.75729 6.01136a.37206.37206 0 0 1-.00075-.52618l.41108-.41225L6.47053 8.3665a.18638.18638 0 0 1 .00038.26358z"/><path fill="#1490df" d="M5.996 2.48835l.41171.41055a.18637.18637 0 0 1 .00038.26356l-3.24452 3.2537-.4122-.41105a.37203.37203 0 0 1-.00075-.52613l2.9828-2.99125a.18637.18637 0 0 1 .26258.00062z"/><path fill="#50e6ff" d="M14.59887 5.07594l.41056.41172a.37203.37203 0 0 1-.00075.52613l-3.0387 3.03012a.18637.18637 0 0 1-.26356-.00037l-.40858-.40974a.18637.18637 0 0 1 .00037-.26356l3.30214-3.29281z"/><path fill="#1490df" d="M15.01368 6.00325l-.41176.41059-3.24476-3.25398a.18638.18638 0 0 1 .00038-.26358l.41175-.41059a.18638.18638 0 0 1 .26358.00038l2.98303 2.9915a.37206.37206 0 0 1-.00074.52618z"/><path fill="url(#a)" d="M8.50598 6.39403H6.00065a.13473.13473 0 0 1-.1396-.12635.11588.11588 0 0 1 .01256-.05235L8.87735.27207a.1438.1438 0 0 1 .12984-.074h2.96325a.13473.13473 0 0 1 .13961.12635.11518.11518 0 0 1-.02443.06981L8.55834 5.04399h3.44002a.13473.13473 0 0 1 .13961.12635.12286.12286 0 0 1-.0363.08516l-5.71639 5.94675c-.05375.0321-.43558.34903-.2485-.13193z"/><g><path d="M4.9714 11.63124h-.98046v.54688h.84244v.22917h-.84244v.9336h-.25782v-1.93881h1.23829zm1.48048 1.70964h-.2448v-.16146q-.1237.09766-.23698.14974-.11328.05208-.25.05208-.22916 0-.35677-.13932-.1276-.14063-.1276-.41146v-.94401h.2448v.82812q0 .11068.0104.19011.01042.07813.04428.13411.03515.0573.09114.08333.056.02604.16277.02604.09505 0 .20703-.04948.11328-.04948.21093-.1263v-1.08594h.2448zm1.69791 0H7.905v-.82812q0-.10026-.01172-.1875-.01171-.08854-.04296-.13803-.03256-.05469-.09375-.08073-.0612-.02734-.15886-.02734-.10026 0-.20964.04948-.10937.04948-.20963.1263v1.08595h-.2448v-1.45443h.2448v.16146q.11458-.09505.23698-.14844.1224-.0534.2513-.0534.23568 0 .35938.14193.1237.14193.1237.40886zm1.54688-.09114q-.1224.05859-.23307.09115-.10938.03255-.23307.03255-.15756 0-.28907-.04557-.1315-.04687-.22526-.14063-.09505-.09375-.14713-.23698-.05209-.14323-.05209-.33463 0-.35677.19532-.5599.19661-.20313.51823-.20313.125 0 .24479.03516.1211.03516.22135.08594v.27214h-.01302q-.11198-.08724-.23177-.13411-.11849-.04687-.23177-.04687-.20833 0-.32943.14062-.11979.13932-.11979.41016 0 .26302.11719.40494.11849.14063.33203.14063.07422 0 .15104-.01953.07682-.01953.13802-.05078.05339-.02734.10026-.05729.04688-.03125.07422-.05339h.01302zm1.06901.07812q-.069.01823-.15104.02995-.08073.01172-.14453.01172-.22266 0-.33854-.1198-.11589-.11979-.11589-.3841v-.77345h-.16536v-.20573h.16536v-.41797h.2448v.41797h.5052v.20573h-.5052v.66276q0 .11459.0052.1797.0052.0638.03646.11978.02865.05208.07813.07682.05078.02344.15364.02344.0599 0 .125-.01693.0651-.01823.09375-.02995h.01302zm.5586-1.6849h-.27604v-.2539h.27604zm-.01563 1.69792h-.2448v-1.45443h.2448zm1.72396-.72656q0 .35547-.18229.5612-.18229.20573-.48828.20573-.3086 0-.49089-.20573-.18099-.20573-.18099-.5612 0-.35547.181-.5612.18229-.20703.49088-.20703.30599 0 .48828.20703.1823.20573.1823.5612zm-.2526 0q0-.28255-.11068-.41927-.11068-.13802-.30729-.13802-.19922 0-.3099.13802-.10937.13672-.10937.41927 0 .27344.11068.41536.11067.14063.30859.14063.19531 0 .30599-.13932.11198-.14063.11198-.41667zm1.84766.72656h-.2448v-.82812q0-.10026-.01171-.1875-.01172-.08854-.04297-.13803-.03255-.05469-.09375-.08073-.0612-.02734-.15886-.02734-.10026 0-.20963.04948-.10938.04948-.20964.1263v1.08595h-.2448v-1.45443h.2448v.16146q.11458-.09505.23698-.14844.1224-.0534.2513-.0534.23568 0 .35938.14193.1237.14193.1237.40886zm-9.7912 2.28706h-.27474l-.1901-.54036h-.83855l-.1901.54036h-.26172l.70573-1.9388h.34375zm-.54427-.76172l-.33985-.95182-.34114.95182zm2.09896.01693q0 .17708-.05078.32422-.05078.14583-.14323.2474-.08594.09634-.20313.14973-.11588.05208-.2461.05208-.11327 0-.20572-.02474-.09115-.02474-.1862-.07682v.60938h-.2448v-1.99089h.2448v.15235q.09766-.08203.21875-.13672.1224-.056.26042-.056.26302 0 .40885.19923.14714.19791.14714.55078zm-.2526.0065q0-.26302-.08985-.39323-.08984-.1302-.27604-.1302-.10547 0-.21224.04556-.10677.04557-.20443.1198v.82421q.10417.04687.17839.0638.07552.01693.17057.01693.20443 0 .31901-.13802.11459-.13802.11459-.40885zm1.91406-.0065q0 .17708-.05078.32422-.05078.14583-.14323.2474-.08594.09634-.20313.14973-.11588.05208-.2461.05208-.11327 0-.20572-.02474-.09115-.02474-.1862-.07682v.60938h-.24479v-1.99089h.2448v.15235q.09765-.08203.21874-.13672.1224-.056.26042-.056.26302 0 .40885.19923.14714.19791.14714.55078zm-.2526.0065q0-.26302-.08985-.39323-.08984-.1302-.27604-.1302-.10547 0-.21224.04556-.10677.04557-.20443.1198v.82421q.10417.04687.17839.0638.07552.01693.17057.01693.20443 0 .31901-.13802.11459-.13802.11459-.40885z"/></g></svg>