<svg xmlns="http://www.w3.org/2000/svg" role="img" xmlns:xlink="http://www.w3.org/1999/xlink" viewBox="3.10 -0.90 58.73 59.54"><title>Azure Machine Learning logo</title><defs><radialGradient id="a" cx="24.04" cy="2101.86" r="23.44" gradientTransform="translate(1.76 -2104)" gradientUnits="userSpaceOnUse"><stop offset="0" stop-color="#0e90cf"/><stop offset="1" stop-color="#006daa"/></radialGradient><radialGradient id="c" cx="30.72" cy="2151.5" r="29.47" gradientTransform="translate(10.568 -1452.367) scale(.69043)" gradientUnits="userSpaceOnUse"><stop offset="0" stop-color="#1a447a"/><stop offset=".27" stop-color="#163e68"/><stop offset=".72" stop-color="#103651"/><stop offset="1" stop-color="#0e3348"/></radialGradient><radialGradient id="d" cx=".25" cy="2151.79" r="29.65" gradientTransform="translate(10.568 -1452.367) scale(.69043)" gradientUnits="userSpaceOnUse"><stop offset="0" stop-color="#49bdea"/><stop offset=".36" stop-color="#2ea4de"/><stop offset=".75" stop-color="#178ed3"/><stop offset="1" stop-color="#0e86cf"/></radialGradient><radialGradient id="e" cx="42.3" cy="2131.97" r="18.61" gradientTransform="translate(9.353 .301) scale(.69043)" xlink:href="#a"/><radialGradient id="b" cx="24.04" cy="2101.86" r="23.44" gradientTransform="translate(10.568 -1452.367) scale(.69043)" gradientUnits="userSpaceOnUse" xlink:href="#a"/></defs><path fill="url(#b)" d="M25.896.30118h11.01928v16.58416H25.89599z"/><path fill="url(#c)" d="M49.4259 44.48878H13.46822L10.73412 33.4626H52.16z"/><path fill="url(#d)" d="M13.46823 44.48878L10.73412 33.4626l15.16187-16.57726h11.10214z"/><path fill="url(#e)" d="M49.4259 44.48878L32.85553 27.90462l6.8767-8.28517L52.16 33.46259z"/><path d="M11.18559 57.37412h-1.03125V50.6918L7.99808 55.2387h-.61459l-2.14063-4.5469v6.68232h-.96354v-7.75523h1.40625L7.7533 53.9366l2-4.31772h1.4323zm6.9896 0h-4.90626v-7.75523h1.03125v6.83856h3.87501zm10.4167-2.21355q0 .45313-.21354.89584-.20833.4427-.58854.75-.41667.33333-.97396.52083-.55209.1875-1.33334.1875-.83854 0-1.51042-.15625-.66667-.15625-1.35938-.46354v-1.29167h.07292q.58854.48958 1.35938.75521.77083.26563 1.44792.26563.95834 0 1.48959-.35938.53646-.35938.53646-.95834 0-.51562-.25521-.76041-.25-.2448-.76563-.38022-.39063-.10416-.84896-.17187-.45313-.06771-.96354-.17188-1.03126-.21875-1.53126-.74479-.4948-.53125-.4948-1.38021 0-.97396.82293-1.59376.82292-.625 2.08854-.625.81772 0 1.5.15625.6823.15625 1.20835.38542v1.21875h-.07292q-.44271-.375-1.16667-.6198-.71876-.25-1.47397-.25-.82812 0-1.33333.34376-.5.34375-.5.88542 0 .48438.25.76042t.8802.42187q.33334.07292.94793.17709.61458.10417 1.04167.21354.86458.22917 1.30208.69271.4375.46354.4375 1.29688zm6.44794-.59375h-4.28647q0 .53646.16146.9375.16146.39584.4427.65104.27084.25.64063.375.375.125.82292.125.59376 0 1.19272-.23437.60416-.23958.85937-.46875h.05208v1.06771q-.49479.20833-1.01042.34896-.51562.14063-1.08333.14063-1.44793 0-2.26043-.78126-.8125-.78646-.8125-2.22917 0-1.42709.77604-2.26563.78126-.83855 2.0521-.83855 1.17708 0 1.8125.6875.64063.6875.64063 1.95314zm-.95313-.75q-.0052-.77084-.39062-1.19272-.38021-.42187-1.16147-.42187-.78646 0-1.2552.46354-.46355.46354-.52605 1.15105zm6.06773-1.19272h-.05208q-.21875-.05208-.42709-.07292-.20312-.02604-.48437-.02604-.45313 0-.875.20313-.42188.19792-.8125.51563v4.13022h-.97918v-5.81773h.97917v.85938q.58334-.46875 1.02605-.66146.44791-.19792.91146-.19792.2552 0 .36979.01563.11458.01042.34375.04687zm5.95314-1.0677l-2.35417 5.81772h-.98438l-2.33855-5.81773h1.0625l1.8021 4.63023 1.78646-4.63023zm2.33335-.97397h-1.10417V49.5668h1.10417zm-.0625 6.79169h-.97917v-5.81773h.97917zm6.2396-.36459q-.48959.23438-.9323.36459-.4375.1302-.93229.1302-.63021 0-1.15625-.18228-.52605-.1875-.90105-.5625-.3802-.375-.58854-.94793-.20834-.57292-.20834-1.33854 0-1.42709.78126-2.2396.78646-.8125 2.07292-.8125.5 0 .97917.14063.48438.14063.88542.34375v1.08855h-.05208q-.44792-.34896-.92709-.53646-.47396-.1875-.92708-.1875-.83334 0-1.31772.5625-.47916.5573-.47916 1.64063 0 1.05209.46875 1.6198.47396.5625 1.32813.5625.29687 0 .60416-.07813.3073-.07813.55209-.20313.21354-.10937.40104-.22917.1875-.125.29688-.21354h.05208zm6.12502-2.44271h-4.28647q0 .53646.16145.9375.16146.39584.44271.65104.27084.25.64063.375.375.125.82292.125.59375 0 1.19271-.23437.60417-.23958.85938-.46875h.05208v1.06771q-.4948.20833-1.01042.34896-.51563.14063-1.08334.14063-1.44792 0-2.26042-.78126-.8125-.78646-.8125-2.22917 0-1.42709.77604-2.26563.78125-.83855 2.0521-.83855 1.17708 0 1.8125.6875.64062.6875.64062 1.95314zm-.95313-.75q-.0052-.77084-.39063-1.19272-.3802-.42187-1.16146-.42187-.78646 0-1.25521.46354-.46354.46354-.52604 1.15105z"/></svg>