<svg xmlns="http://www.w3.org/2000/svg" role="img" viewBox="0.74 -0.63 16.51 16.39"><title>Azure Synapse Serverless logo</title><defs><linearGradient id="a" x1="9" x2="9" y1="5.38" gradientTransform="translate(3.033 -.263) scale(.65323)" gradientUnits="userSpaceOnUse"><stop offset=".199" stop-color="#005ba1"/><stop offset="1" stop-color="#0078d4"/></linearGradient><linearGradient id="b" x1="9" x2="9" y1="12.713" y2="5.287" gradientTransform="translate(3.033 -.263) scale(.65323)" gradientUnits="userSpaceOnUse"><stop offset="0" stop-color="#198ab3"/><stop offset=".172" stop-color="#32bedd"/><stop offset=".5" stop-color="#50e6ff"/><stop offset=".5" stop-color="#4fe4fd"/><stop offset=".5" stop-color="#4bddf8"/><stop offset=".5" stop-color="#44d2ee"/><stop offset=".5" stop-color="#3ac1e0"/><stop offset=".5" stop-color="#2dabce"/><stop offset=".5" stop-color="#1d90b8"/><stop offset=".5" stop-color="#198ab3"/><stop offset=".662" stop-color="#32bedd"/><stop offset=".975" stop-color="#50e6ff"/></linearGradient></defs><path fill="#0078d4" d="M 8.9121881,-0.26343529 3.7843528,2.6695559 V 8.5290061 L 8.9121881,11.494659 14.040023,8.5616676 V 2.6826204 Z M 13.092844,7.9476335 8.9121881,10.364576 4.7315326,7.9731094 V 3.2509283 L 8.9121881,0.83398683 13.092844,3.2574605 Z"/><path fill="url(#a)" d="M 8.9121881,-0.26343529 3.7843528,2.6695559 4.7315326,3.2509283 8.9121881,0.83398683 13.092844,3.2509283 14.040023,2.6695559 Z"/><path fill="#50e6ff" d="M 11.355259,6.579122 A 0.47685602,0.47685602 0 0 0 11.144267,6.392299 3.811582,3.811582 0 0 0 8.2191138,4.2066 L 12.450068,1.7615697 11.466307,1.1971813 6.6481019,3.982543 a 0.48992057,0.48992057 0 0 0 0.2456134,0.9145184 0.44680756,0.44680756 0 0 0 0.05879,-0.015024 l 0.081654,0.341638 A 2.8212893,2.8212893 0 0 1 10.19382,6.6855981 L 5.3932519,9.4598549 6.3730931,10.02555 11.176275,7.2486802 a 0.4762028,0.4762028 0 0 0 0.158081,-0.1541617 l 0.04899,-0.011758 c -0.0046,-0.018943 -0.01176,-0.035927 -0.01633,-0.054871 A 0.48012216,0.48012216 0 0 0 11.355262,6.579122 Z"/><path fill="url(#b)" d="m 10.931315,5.6241036 a 1.2084707,1.2084707 0 1 0 1.20847,1.2084707 1.2084707,1.2084707 0 0 0 -1.20847,-1.2084707 z M 6.8930621,3.1771136 A 1.2084707,1.2084707 0 1 0 8.1015329,4.3855844 1.2084707,1.2084707 0 0 0 6.8930621,3.1771136 Z"/><g><path d="M4.6784731 13.729225q0 .113281-.053386.223958-.052083.110678-.1471356.187501-.1041668.08333-.2434899.130208-.138021.04687-.3333338.04687-.2096357 0-.3776046-.03906-.1666669-.03906-.3398442-.115886v-.322917h.018229q.1471356.122396.3398442.188802.1927085.06641.3619796.06641.2395836 0 .3723963-.08984.1341148-.08984.1341148-.239584 0-.128906-.063802-.190104-.0625-.0612-.1914065-.09505-.097656-.02604-.2122399-.04297-.1132814-.01693-.2408857-.04297-.2578128-.05469-.382813-.186198-.123698-.132813-.123698-.345053 0-.24349.2057294-.398438.2057294-.15625.5221361-.15625.2044273 0 .3750004.03906.1705732.03906.3020838.09635v.304688h-.018229q-.1106772-.09375-.2916671-.154948-.1796877-.0625-.36849-.0625-.2070315 0-.3333338.08594-.1250001.08594-.1250001.221355 0 .121094.0625.190104.0625.06901.2200524.105469.083333.01823.2369795.04427.153646.02604.260417.05339.2161461.05729.3255212.173178.1093752.115885.1093752.324219zM6.2917564 12.828182L5.442797 14.81907H5.1810779L5.4519116 14.212298 4.8724838 12.828182h.2656253l.4466152 1.078126.4505214-1.078126zM7.8282168 14.282611h-.244792v-.828126q0-.100261-.011719-.1875-.011719-.08854-.042969-.138021-.032552-.05469-.09375-.08073-.061198-.02734-.1588544-.02734-.1002605 0-.2096357.04948-.1093751.04948-.2096357.126302v1.085939H6.6120694v-1.454429h.2447919v.161458q.1145835-.09505.2369795-.148437.122396-.05339.2513024-.05339.2356774 0 .3593755.141928.1236981.141927.1236981.408854zM9.4297813 14.282611H9.1862914v-.154948q-.032552.02214-.088542.0625-.054688.03906-.106771.0625-.061198.02995-.1406251.04948-.079427.02083-.1861982.02083-.1966148 0-.3333338-.130209-.1367189-.130208-.1367189-.332032 0-.165364.070313-.266927.071615-.102865.2031253-.161459.1328126-.05859.3190108-.07943.1861982-.02083.3997401-.03125v-.03776q0-.08333-.029948-.138021-.028646-.05469-.083333-.08594-.052083-.02995-.1250002-.04036-.072917-.01042-.1523439-.01042-.096354 0-.214844.02604-.1184898.02474-.244792.07292H8.323009v-.248698q.071615-.01953.2070316-.04297.1354168-.02344.2669274-.02344.153646 0 .2669274.02604.1145835.02474.1979169.08594.082031.0599.1250002.154948.042969.09505.042969.235677zM9.1862914 13.924538v-.404949q-.1119793.0065-.2643233.01953-.1510418.01302-.2395836.03776-.1054689.02995-.1705731.09375-.065104.0625-.065104.173177 0 .125.075521.188803.075521.0625.2304691.0625.1289064 0 .2356774-.04948.1067709-.05078.1979169-.121093zM11.181085 13.537818q0 .177084-.05078.324219-.05078.145834-.143229.247397-.08594.09635-.203125.149739-.115886.05208-.246095.05208-.113281 0-.205729-.02474-.09115-.02474-.186198-.07682V14.81907H9.9011359v-1.990888h.2447921v.152344q.09766-.08203.21875-.136719.122396-.05599.260417-.05599.263021 0 .408855.199219.147135.197917.147135.550782zm-.252604.0065q0-.263021-.08984-.39323-.08984-.130208-.276042-.130208-.105469 0-.21224.04557-.106771.04557-.204427.119791v.82422q.104167.04687.178386.0638.07552.01693.170573.01693.204427 0 .31901-.138021.114584-.138021.114584-.408854zM12.60166 13.86334q0 .199219-.165365.326823-.164062.127604-.449219.127604-.161459 0-.296875-.03776-.134115-.03906-.225261-.08464v-.27474h.01302q.115885.08724.257813.139323.141927.05078.272135.05078.161459 0 .252605-.05208.09115-.05208.09115-.164062 0-.08594-.04948-.130209-.04948-.04427-.190105-.07552-.05208-.01172-.136719-.02734-.08333-.01563-.152344-.03385-.191406-.05078-.272135-.148438-.07943-.09896-.07943-.242187 0-.08984.03646-.169271.03776-.07943.113281-.141928.07292-.0612.184896-.09635.113282-.03646.252605-.03646.130208 0 .263021.03255.134115.03125.222656.07682v.261719h-.01302q-.09375-.06901-.227865-.115886-.134115-.04818-.263021-.04818-.134115 0-.226563.05208-.09245.05078-.09245.152344 0 .08984.05599.135416.05469.04557.177084.07422.06771.01563.151042.03125.08464.01563.140625.02865.170573.03906.263021.134115.09245.09635.09245.255209zM14.169371 13.580787h-1.071616q0 .134115.04037.234375.04036.09896.110677.162761.06771.0625.160156.09375.09375.03125.20573.03125.148437 0 .298177-.05859.151042-.0599.214844-.117187h.01302v.266927q-.123698.05208-.252604.08724-.128907.03516-.270834.03516-.36198 0-.565105-.195313-.203125-.196614-.203125-.557292 0-.356771.19401-.566407.195313-.209636.513022-.209636.294271 0 .453125.171876.160157.171875.160157.488281zm-.238282-.1875q-.0013-.192709-.09766-.298178-.09505-.105469-.290365-.105469-.196615 0-.313802.115886-.115886.115886-.131511.287761z" transform="matrix(.589 0 0 .589 3.657 4.664)"/></g><g><path d="M3.2071981 16.530509q0 .05664-.026693.111979-.026042.05534-.073568.09375-.052083.04167-.1217445.0651-.06901.02344-.1666663.02344-.1048174 0-.1888016-.01953-.083333-.01953-.1699214-.05794V16.58585h.00911q.073567.0612.1699215.0944.096354.0332.1809891.0332.1197914 0 .1861975-.04492.067057-.04492.067057-.119792 0-.06445-.031901-.09505-.03125-.0306-.095703-.04753-.048828-.01302-.1061195-.02149-.056641-.0085-.1204424-.02148-.1289059-.02734-.1914058-.0931-.061849-.06641-.061849-.172525 0-.121745.1028643-.199219.1028644-.07812.2610671-.07812.1022133 0 .1874995.01953.085286.01953.1510413.04818v.152343h-.00911q-.055338-.04687-.145833-.07747-.089844-.03125-.1842443-.03125-.1035154 0-.1666663.04297-.0625.04297-.0625.110677 0 .06055.03125.09505.03125.0345.1100258.05273.041666.0091.1184893.02214.076823.01302.130208.02669.1080726.02865.16276.08659.054687.05794.054687.162109zM4.0131858 16.456291h-.535806q0 .06706.020182.117187.020182.04948.055338.08138.033854.03125.080078.04687.046875.01563.1028643.01563.074219 0 .1490882-.0293.075521-.02995.1074216-.05859h.00651v.133464q-.061849.02604-.1263018.04362-.064453.01758-.1354163.01758-.1809892 0-.2825514-.09766-.1015623-.09831-.1015623-.278645 0-.178385.097005-.283202.097656-.104818.2565098-.104818.147135 0 .2265619.08594.080078.08594.080078.24414zm-.1191404-.09375q-.000651-.09635-.048828-.149088-.047526-.05273-.1451819-.05273-.098307 0-.1569007.05794-.057942.05794-.065755.14388zM4.6525071 16.213453h-.00651q-.027344-.0065-.053385-.0091-.025391-.0033-.060547-.0033-.056641 0-.1093748.02539-.052734.02474-.1015622.06445v.516274H4.1987322V16.07999h.1223955v.107421q.072916-.05859.1282549-.08268.055989-.02474.113932-.02474.031901 0 .046224.002.014323.0013.042969.0059zM5.3966459 16.07999L5.1023758 16.807201H4.9793292L4.6870123 16.07999H4.8198244L5.0450843 16.658764 5.268391 16.07999zM6.1538055 16.456291H5.6179996q0 .06706.020182.117187.020182.04948.055338.08138.033854.03125.080078.04687.046875.01563.1028644.01563.074219 0 .1490881-.0293.075521-.02995.1074216-.05859h.00651v.133464q-.061849.02604-.1263017.04362-.064453.01758-.1354164.01758-.1809891 0-.2825513-.09766Q5.49365 16.628162 5.49365 16.447827q0-.178385.097005-.283202.097656-.104818.2565098-.104818.147135 0 .2265619.08594.080078.08594.080078.24414zm-.1191403-.09375q-.0006511-.09635-.048828-.149088-.047526-.05273-.1451819-.05273-.098307 0-.1569007.05794-.057943.05794-.065755.14388zM6.7931268 16.213453h-.00651q-.027344-.0065-.053385-.0091-.025391-.0033-.060547-.0033-.05664 0-.1093747.02539-.052734.02474-.1015623.06445v.516274H6.3393519V16.07999h.1223955v.107421q.072916-.05859.1282549-.08268.055989-.02474.113932-.02474.031901 0 .046224.002.014323.0013.042969.0059zM7.0320586 16.807201H6.9096631v-1.013018h.1223955zM7.8829677 16.456291H7.3471618q0 .06706.020182.117187.020182.04948.055338.08138.033854.03125.080078.04687.046875.01563.1028644.01563.074218 0 .1490881-.0293.075521-.02995.1074217-.05859h.00651v.133464q-.061849.02604-.1263018.04362-.064453.01758-.1354163.01758-.1809892 0-.2825514-.09766-.1015623-.09831-.1015623-.278645 0-.178385.097005-.283202.097656-.104818.2565098-.104818.147135 0 .2265619.08594.080078.08594.080078.24414zm-.1191403-.09375q-.000651-.09635-.048828-.149088-.047526-.05273-.1451819-.05273-.098307 0-.1569007.05794-.057943.05794-.065755.14388zM8.5880443 16.597566q0 .09961-.082682.163412-.082031.0638-.2246088.0638-.080729 0-.1484371-.01888-.067057-.01953-.1126299-.04232v-.13737h.00651q.057943.04362.1289059.06966.070963.02539.1360674.02539.080729 0 .1263017-.02604.045573-.02604.045573-.08203 0-.04297-.02474-.0651-.024739-.02213-.095052-.03776-.026042-.0059-.068359-.01367-.041667-.0078-.076172-.01693-.095703-.02539-.1360674-.07422-.039713-.04948-.039713-.121094 0-.04492.018229-.08463.01888-.03971.056641-.07096.036458-.0306.092448-.04818.05664-.01823.1263017-.01823.065104 0 .1315101.01628.067057.01563.1113279.03841v.130859h-.00651q-.046875-.0345-.113932-.05794-.067057-.02409-.1315101-.02409-.067057 0-.113281.02604-.046224.02539-.046224.07617 0 .04492.027995.06771.027344.02279.088541.03711.033854.0078.075521.01563.042318.0078.070312.01432.085286.01953.1315101.06706.046224.04818.046224.127603zM9.282704 16.597566q0 .09961-.082682.163412-.082031.0638-.2246089.0638-.080729 0-.1484371-.01888-.067057-.01953-.1126299-.04232v-.13737h.00651q.057942.04362.1289059.06966.070963.02539.1360674.02539.080729 0 .1263017-.02604.045573-.02604.045573-.08203 0-.04297-.02474-.0651-.024739-.02213-.095052-.03776-.026042-.0059-.068359-.01367-.041667-.0078-.076172-.01693-.095703-.02539-.1360674-.07422-.039713-.04948-.039713-.121094 0-.04492.018229-.08463.01888-.03971.056641-.07096.036458-.0306.092448-.04818.05664-.01823.1263017-.01823.065104 0 .1315101.01628.067057.01563.1113279.03841v.130859h-.00651q-.046875-.0345-.113932-.05794-.067057-.02409-.1315101-.02409-.067057 0-.113281.02604-.046224.02539-.046224.07617 0 .04492.027995.06771.027344.02279.088541.03711.033854.0078.075521.01563.042318.0078.070312.01432.085286.01953.1315101.06706.046224.04818.046224.127603zM10.640774 16.530509q0 .05664-.02669.111979-.02604.05534-.07357.09375-.05208.04167-.121745.0651-.06901.02344-.166666.02344-.104818 0-.188802-.01953-.083333-.01953-.1699212-.05794V16.58585h.00911q.073567.0612.1699212.0944.09635.0332.180989.0332.119791 0 .186197-.04492.06706-.04492.06706-.119792 0-.06445-.0319-.09505-.03125-.0306-.0957-.04753-.04883-.01302-.10612-.02149-.05664-.0085-.120442-.02148-.128906-.02734-.1914056-.0931-.061849-.06641-.061849-.172525 0-.121745.1028636-.199219.102865-.07812.261068-.07812.102213 0 .187499.01953.08529.01953.151041.04818v.152343h-.0091q-.05534-.04687-.145833-.07747-.08984-.03125-.184244-.03125-.103516 0-.166667.04297-.0625.04297-.0625.110677 0 .06055.03125.09505.03125.0345.110026.05273.04167.0091.118489.02214.07682.01302.130208.02669.108073.02865.16276.08659.05469.05794.05469.162109zM11.712386 17.044831q-.03906.0098-.07747.01367-.03776.0046-.07747.0046-.113281 0-.182291-.0625-.06836-.06185-.07422-.177734-.01563.0026-.0306.0033-.01432.0013-.02799.0013-.102213 0-.186198-.03385-.08333-.03385-.141926-.09831-.05859-.06445-.0905-.158202-.03125-.09375-.03125-.214192 0-.11849.03125-.212239.03125-.0944.09115-.161458.05729-.0638.141926-.09766.08529-.03386.185547-.03386.104166 0 .186848.03451.08333.03385.141276.097.05925.0651.0905.159504.0319.0944.0319.214193 0 .177734-.07292.299478-.07226.121745-.194661.170573.0026.07422.03516.115234.03255.04102.11849.04102.02669 0 .06315-.0085.03711-.0078.05274-.01432h.01758zM11.55874 16.322828q0-.188802-.08464-.291015-.08464-.102865-.231119-.102865-.147786 0-.232421.102865-.08399.102213-.08399.291015 0 .190754.08594.292317.08594.100911.230468.100911.144531 0 .229817-.100911.08594-.101563.08594-.292317zM12.510561 16.807201h-.61328v-.969398h.128906v.854815h.484374zM13.742329 16.130771q0 .06445-.02279.119791-.02214.05469-.0625.09505-.05013.05013-.11849.07552-.06836.02474-.172525.02474h-.128906v.361327h-.128906v-.969398h.26302q.08724 0 .147786.01497.06055.01432.107422.04557.05534.03711.08529.09245.0306.05534.0306.139974zm-.134114.0033q0-.05013-.01758-.08724-.01758-.03711-.05339-.06055-.03125-.02018-.07161-.02865-.03971-.0091-.100911-.0091H13.23712v.387368h.108723q.07813 0 .126953-.01367.04883-.01432.07943-.04492.0306-.03125.04297-.06575.01302-.0345.01302-.07747zM14.489723 16.443921q0 .177734-.09115.280598-.09114.102865-.24414.102865-.154296 0-.245442-.102865-.09049-.102864-.09049-.280598 0-.177734.09049-.280598.09115-.103516.245442-.103516.152995 0 .24414.103516.09115.102864.09115.280598zm-.126302 0q0-.141276-.05534-.209635-.05534-.06901-.153646-.06901-.09961 0-.154947.06901-.05469.06836-.05469.209635 0 .136718.05534.207682.05534.07031.154296.07031.09766 0 .152995-.06966.05599-.07031.05599-.208333zM15.298965 16.443921q0 .177734-.09115.280598-.09115.102865-.24414.102865-.154296 0-.245442-.102865-.09049-.102864-.09049-.280598 0-.177734.09049-.280598.09115-.103516.245442-.103516.152995 0 .24414.103516.09115.102864.09115.280598zm-.126302 0q0-.141276-.05534-.209635-.05534-.06901-.153646-.06901-.09961 0-.154947.06901-.05469.06836-.05469.209635 0 .136718.05534.207682.05534.07031.154296.07031.09766 0 .152995-.06966.05599-.07031.05599-.208333zM15.612116 16.807201H15.48972v-1.013018h.122396z" transform="translate(-1.918 -5.14) scale(1.20864)"/></g></svg>