<svg xmlns="http://www.w3.org/2000/svg" role="img" viewBox="2.23 0.04 13.97 13.54"><title>Azure Event Hub logo</title><g><g><path fill="#76bc2d" d="M10.83 8.42A.26.26 0 0 1 10.59 8.69H8.5A.26.26 0 0 1 8.23 8.45V6.89A.26.26 0 0 1 8.47 6.62h2.09a.26.26 0 0 1 .27.24zM14.54 10A.26.26 0 0 1 14.3 10.27H12.21A.26.26 0 0 1 11.94 10.03V8.48a.26.26 0 0 1 .24-.27h2.09a.26.26 0 0 1 .27.24zM10.83 11.6a.26.26 0 0 1-.24.27H8.5A.26.26 0 0 1 8.23 11.63V10.07A.26.26 0 0 1 8.47 9.8h2.09a.26.26 0 0 1 .27.24z" transform="translate(2.984 -.636) scale(.66368)"/><path fill="#86d633" d="M 7.12,6.84 A 0.25,0.25 0 0 1 6.89,7.1 H 4.74 A 0.26,0.26 0 0 1 4.47,6.87 V 5.25 A 0.26,0.26 0 0 1 4.71,5 H 6.8 c 0.22,0 0.32,0.11 0.32,0.27 z" transform="translate(2.984 -.636) scale(.66368)"/><path fill="#76bc2d" d="M7.12 10A.25.25 0 0 1 6.89 10.27H4.74A.26.26 0 0 1 4.47 10V8.42A.26.26 0 0 1 4.71 8.16H6.8c.22 0 .32.11.32.26zM7.12 13.19A.25.25 0 0 1 6.89 13.46H4.74A.26.26 0 0 1 4.47 13.22V11.6A.25.25 0 0 1 4.71 11.34H6.8c.22 0 .32.1.32.26z" transform="translate(2.984 -.636) scale(.66368)"/><g fill="#999"><path d="m 1.07,1.51 h 1.29 v 3.6 A 0.29,0.29 0 0 1 2.07,5.4 H 0.79 A 0.29,0.29 0 0 1 0.5,5.11 v -3 a 0.57,0.57 0 0 1 0.57,-0.6 z" transform="translate(2.984 -.636) scale(.66368)"/><path d="m 1.07,1.51 h 1.29 v 3.6 A 0.29,0.29 0 0 1 2.07,5.4 H 0.79 A 0.29,0.29 0 0 1 0.5,5.11 v -3 a 0.57,0.57 0 0 1 0.57,-0.6 z" opacity=".5" transform="translate(2.984 -.636) scale(.66368)"/></g><g fill="#999"><path d="m 15.64,1.51 h 1.29 a 0.57,0.57 0 0 1 0.57,0.57 v 3 A 0.29,0.29 0 0 1 17.21,5.37 H 15.92 A 0.29,0.29 0 0 1 15.63,5.08 V 1.51 Z" transform="translate(2.984 -.636) scale(.66368)"/><path d="m 15.64,1.51 h 1.29 a 0.57,0.57 0 0 1 0.57,0.57 v 3 A 0.29,0.29 0 0 1 17.21,5.37 H 15.92 A 0.29,0.29 0 0 1 15.63,5.08 V 1.51 Z" opacity=".5" transform="translate(2.984 -.636) scale(.66368)"/></g><path fill="#949494" d="m 8.66,-6.08 h 1.25 v 17 H 8.66 A 0.57,0.57 0 0 1 8.09,10.35 V -5.52 a 0.57,0.57 0 0 1 0.57,-0.56 z" transform="rotate(90 7.784 2.78) scale(.66368)"/><g fill="#999"><path d="m 0.79,12.76 h 1.29 a 0.29,0.29 0 0 1 0.29,0.29 v 3.6 H 1.07 A 0.57,0.57 0 0 1 0.5,16.08 V 13 a 0.29,0.29 0 0 1 0.29,-0.24 z" transform="translate(2.984 -.636) scale(.66368)"/><path d="m 0.79,12.76 h 1.29 a 0.29,0.29 0 0 1 0.29,0.29 v 3.6 H 1.07 A 0.57,0.57 0 0 1 0.5,16.08 V 13 a 0.29,0.29 0 0 1 0.29,-0.24 z" opacity=".5" transform="translate(2.984 -.636) scale(.66368)"/></g><g fill="#999"><path d="m 15.92,12.76 h 1.29 a 0.29,0.29 0 0 1 0.29,0.29 v 3 a 0.57,0.57 0 0 1 -0.57,0.57 H 15.64 V 13 a 0.29,0.29 0 0 1 0.28,-0.24 z" transform="translate(2.984 -.636) scale(.66368)"/><path d="m 15.92,12.76 h 1.29 a 0.29,0.29 0 0 1 0.29,0.29 v 3 a 0.57,0.57 0 0 1 -0.57,0.57 H 15.64 V 13 a 0.29,0.29 0 0 1 0.28,-0.24 z" opacity=".5" transform="translate(2.984 -.636) scale(.66368)"/></g><path fill="#949494" d="m 8.66,7.24 h 1.25 v 17 H 8.66 A 0.57,0.57 0 0 1 8.09,23.67 V 7.81 A 0.57,0.57 0 0 1 8.66,7.24 Z" transform="rotate(-90 7.147 8.636) scale(.66368)"/></g></g><g><path d="M3.6130566 15.395293H2.3357113v-1.938804h1.2773453v.229167H2.5935241v.53125h1.0195325v.229167H2.5935241v.720053h1.0195325zM5.2601941 13.940864L4.6716517 15.395293H4.4255576L3.8409215 13.940864h.2656253l.4505214 1.157554.4466152-1.157554zM6.774519 14.693469H5.7029031q0 .134115.040365.234376.040365.09896.1106772.16276.067708.0625.1601565.09375.09375.03125.2057294.03125.1484377 0 .2981775-.05859.1510418-.0599.214844-.117188h.013021v.266927q-.123698.05208-.2526045.08724-.1289064.03516-.2708336.03516-.3619797 0-.5651049-.195312-.2031253-.196615-.2031253-.557293 0-.356771.1940107-.566407Q5.8435282 13.9005 6.161237 13.9005q.2942712 0 .4531256.171875.1601564.171875.1601564.488282zm-.2382815-.1875q-.0013-.192708-.097656-.298177-.095052-.105469-.290365-.105469-.1966148 0-.3138025.115885-.1158855.115886-.1315105.287761zM8.3617608 15.395293h-.244792v-.828126q0-.10026-.011719-.1875-.011719-.08854-.042969-.138021-.032552-.05469-.09375-.08073-.061198-.02734-.1588543-.02734-.1002606 0-.2096357.04948-.1093752.04948-.2096357.126302v1.085939h-.244792v-1.454429h.244792v.161459q.1145835-.09505.2369795-.148438.122396-.05339.2513024-.05339.2356774 0 .3593754.141927.1236981.141927.1236981.408855zM9.5883246 15.382272q-.06901.01823-.1510418.02995-.080729.01172-.1445315.01172-.2226565 0-.3385421-.119792Q8.8383237 15.184355 8.8383237 14.920032V14.146594H8.6729589v-.20573h.1653648v-.417969h.244792v.417969h.5052089v.20573H9.0831157v.662761q0 .114583.00521.179688.00521.0638.036458.119792.028646.05208.078125.07682.050781.02344.153646.02344.059896 0 .1250002-.01693.065104-.01823.09375-.02995h.013021zM12.324006 15.395293h-.257813v-.94922h-.967449v.94922h-.257813v-1.938804h.257813v.760417h.967449v-.760417h.257813zM14.031038 15.395293h-.244792v-.161458q-.123698.09766-.236979.149739-.113282.05208-.25.05208-.229167 0-.356772-.139323-.127604-.140625-.127604-.411459V13.94086h.244792v.828126q0 .110678.01042.190105.01042.07813.04427.134115.03516.05729.09115.08333.05599.02604.162761.02604.09505 0 .207032-.04948.113281-.04948.210937-.126302v-1.085939h.244792zM15.79276 14.657011q0 .182292-.05208.328125-.05078.145834-.138021.244792-.09245.102865-.203126.154949-.110677.05078-.24349.05078-.123698 0-.216146-.02995-.09245-.02865-.182292-.07813l-.01563.06771H14.51281v-2.026044h.244792v.723959q.102865-.08464.218751-.138021.115885-.05469.260417-.05469.257813 0 .40625.197917.14974.197916.14974.558594zm-.252604.0065q0-.260417-.08594-.394531-.08594-.135417-.277344-.135417-.106771 0-.216146.04687-.109375.04557-.203126.11849v.833334q.104167.04687.178386.0651.07552.01823.170573.01823.203125 0 .317709-.132813.115886-.134115.115886-.419272z" transform="translate(.17 -2.096)"/></g></svg>