<svg xmlns="http://www.w3.org/2000/svg" role="img" viewBox="-0.29 0.64 18.52 16.65"><title>Azure Function App logo</title><defs><linearGradient id="a" x1="-175.993" x2="-175.993" y1="-343.723" y2="-359.232" gradientTransform="matrix(1.156 0 0 1.029 212.573 370.548)" gradientUnits="userSpaceOnUse"><stop offset="0" stop-color="#fea11b"/><stop offset=".284" stop-color="#fea51a"/><stop offset=".547" stop-color="#feb018"/><stop offset=".8" stop-color="#ffc314"/><stop offset="1" stop-color="#ffd70f"/></linearGradient></defs><path fill="#50e6ff" d="M5.5407 13.10503l-.58607.58773a.267.267 0 0 1-.3776.00053L.2236 9.35215a.533.533 0 0 1-.00107-.75378l.5889-.59056 4.73156 4.7182a.267.267 0 0 1 .00053.3776z"/><path fill="#1490df" d="M4.86372 4.3047l.58985.5882a.267.267 0 0 1 .00054.37759L.8058 9.93195l-.59056-.5889a.533.533 0 0 1-.00107-.75377l4.27336-4.28545a.267.267 0 0 1 .37618.00088z"/><path fill="#50e6ff" d="M17.18998 8.01206l.58819.58985a.533.533 0 0 1-.00107.75377l-4.35343 4.34115a.267.267 0 0 1-.3776-.00054l-.58536-.58702a.267.267 0 0 1 .00053-.3776l4.73086-4.71749z"/><path fill="#1490df" d="M17.78122 9.34093l-.58985.58819-4.6483-4.66146a.267.267 0 0 1 .00053-.3776l.58985-.58818a.267.267 0 0 1 .3776.00053l4.27335 4.28545a.533.533 0 0 1-.00106.75378z"/><path fill="url(#a)" d="M8.459 9.9H4.87a.193.193 0 0 1-.2-.181.166.166 0 0 1 .018-.075L8.991 1.13a.206.206 0 0 1 .186-.106h4.245a.193.193 0 0 1 .2.181.165.165 0 0 1-.035.1L8.534 7.966h4.928a.193.193 0 0 1 .2.181.176.176 0 0 1-.052.122l-8.189 8.519c-.077.046-.624.5-.356-.189z"/></svg>