<svg xmlns="http://www.w3.org/2000/svg" role="img" viewBox="-0.36 0.45 18.66 17.03"><title>Azure Active Directory logo</title><defs><linearGradient id="a" x1="13.25" x2="8.62" y1="13.02" y2="4.25" gradientUnits="userSpaceOnUse"><stop offset="0" stop-color="#1988d9"/><stop offset=".9" stop-color="#54aef0"/></linearGradient><linearGradient id="b" x1="11.26" x2="14.46" y1="10.47" y2="15.99" gradientUnits="userSpaceOnUse"><stop offset=".1" stop-color="#54aef0"/><stop offset=".29" stop-color="#4fabee"/><stop offset=".51" stop-color="#41a2e9"/><stop offset=".74" stop-color="#2a93e0"/><stop offset=".88" stop-color="#1988d9"/></linearGradient></defs><path fill="#50e6ff" d="M1.01 10.19L8.93 15.33 16.99 10.17 18 11.35 8.93 17.19 0 11.35 1.01 10.19z"/><path fill="#fff" d="M1.61 9.53L8.93 0.81 16.4 9.54 8.93 14.26 1.61 9.53z"/><path fill="#50e6ff" d="M8.93 0.81L8.93 14.26 1.61 9.53 8.93 0.81z"/><path fill="url(#a)" d="M8.93 0.81L8.93 14.26 16.4 9.54 8.93 0.81z"/><path fill="#53b1e0" d="M8.93 7.76L16.4 9.54 8.93 14.26 8.93 7.76z"/><path fill="#9cebff" d="M8.93 14.26L1.61 9.53 8.93 7.76 8.93 14.26z"/><path fill="url(#b)" d="M8.93 17.19L18 11.35 16.99 10.17 8.93 15.33 8.93 17.19z"/></svg>