<svg xmlns="http://www.w3.org/2000/svg" role="img" viewBox="0.61 0.17 16.90 16.77"><title>Azure Bot Services logo</title><defs><radialGradient id="a" cx="55.71" cy="71.92" r="9" gradientTransform="translate(-32.423 -45.776) scale(.73274)" gradientUnits="userSpaceOnUse"><stop offset=".67" stop-color="#6bb9f2"/><stop offset=".74" stop-color="#61b4f1"/><stop offset=".85" stop-color="#47a8ef"/><stop offset=".99" stop-color="#1d94eb"/><stop offset="1" stop-color="#1b93eb"/></radialGradient></defs><path fill="url(#a)" d="M 8.5870589,0.54235294 A 6.6258824,6.6258824 0 1 0 15.212941,7.1682354 6.6258824,6.6258824 0 0 0 8.5870589,0.54235294 Z"/><circle cx="8.587" cy="7.168" r="5.48" fill="#fff"/><circle cx="7.379" cy="7.168" r=".6" fill="#32bedd"/><path fill="#32bedd" d="M 5.6716706,5.4533011 H 5.3754547 A 0.22605952,0.22605952 0 0 0 5.1493952,5.6793606 V 10.13819 a 0.45991419,0.45991419 0 0 0 0.4599142,0.459914 h 4.341902 A 0.22605952,0.22605952 0 0 0 10.17727,10.364249 V 10.068033 A 0.22605952,0.22605952 0 0 0 9.9512114,9.8419736 H 6.0536332 A 0.10913218,0.10913218 0 0 1 5.9445011,9.7250466 V 5.6793606 A 0.22605952,0.22605952 0 0 0 5.6716706,5.4533011 Z"/><circle cx="9.795" cy="7.168" r=".6" fill="#32bedd"/><path fill="#32bedd" d="M 11.253002,3.7383668 H 7.2073163 A 0.22605952,0.22605952 0 0 0 6.9812568,3.9722215 v 0.2962159 a 0.22605952,0.22605952 0 0 0 0.2260595,0.2260595 h 3.8975777 a 0.11692734,0.11692734 0 0 1 0.116927,0.1169274 v 4.0456858 a 0.22605952,0.22605952 0 0 0 0.22606,0.2260595 h 0.296215 a 0.22605952,0.22605952 0 0 0 0.22606,-0.2260595 V 4.198281 A 0.45991419,0.45991419 0 0 0 11.518037,3.7383668 Z"/><g><path d="M2.4003056 16.005997q0 .144532-.054688.255209-.054688.110677-.1471356.182292-.1093751.08594-.2408857.122396-.1302085.03646-.3320317.03646H.93806411V14.663548H1.5122836q.2122399 0 .3177087.01563.1054689.01563.2018232.0651.106771.05599.1549481.144531.048177.08724.048177.209636 0 .138021-.070313.235677-.070313.09636-.1875003.154948v.01042q.1966149.04037.3098963.173177.1132814.131511.1132814.333334zM1.9667113 15.132298q0-.07031-.023438-.11849-.023437-.04818-.075521-.07813-.061198-.03516-.1484377-.04297-.08724-.0091-.2161461-.0091H1.1958769v.559896h.3333338q.1210939 0 .1927086-.01172.071615-.01302.1328127-.05208.061198-.03906.085938-.10026.026042-.0625.026042-.147136zm.1653648.884116q0-.117188-.035156-.186198-.035156-.06901-.1276044-.117188-.0625-.03255-.1523439-.04167-.088542-.01042-.2161461-.01042H1.1958769V16.3823h.3411463q.1692711 0 .2773441-.01693.1080731-.01823.1770836-.06511.072917-.05078.106771-.115885.033854-.0651.033854-.167969zM3.9862451 15.875789q0 .355469-.1822919.561198-.1822919.20573-.4882818.20573-.3085942 0-.4908861-.20573-.1809898-.205729-.1809898-.561198 0-.355469.1809898-.561199.1822919-.207031.4908861-.207031.3059899 0 .4882818.207031.1822919.20573.1822919.561199zm-.2526044 0q0-.282553-.1106773-.419272-.1106772-.138021-.307292-.138021-.199219 0-.3098963.138021Q2.8964 15.593236 2.8964 15.875789q0 .273438.1106772.415365.1106772.140625.3085942.140625.1953127 0 .3059899-.139323.1119794-.140625.1119794-.416667zM5.1203612 16.589331q-.06901.01823-.1510419.02995-.080729.01172-.1445314.01172-.2226566 0-.3385421-.119792Q4.3703602 16.391414 4.3703602 16.127091V15.353653H4.2049954v-.20573h.1653648v-.417969h.244792v.417969h.505209v.20573h-.505209v.662761q0 .114583.00521.179688.00521.0638.036458.119791.028646.05208.078125.07682.050781.02344.153646.02344.059896 0 .1250002-.01693.065104-.01823.09375-.02995h.013021zM7.7818228 16.048966q0 .113281-.053385.223959-.052083.110677-.1471356.1875-.1041668.08333-.2434899.130208-.138021.04687-.3333338.04687-.2096357 0-.3776046-.03906-.1666669-.03906-.3398442-.115886v-.322917h.018229q.1471356.122396.3398441.188803.1927086.06641.3619797.06641.2395836 0 .3723963-.08984.1341147-.08984.1341147-.239584 0-.128906-.063802-.190104-.0625-.0612-.1914065-.09505-.097656-.02604-.2122399-.04297Q6.9328633 15.740372 6.805259 15.71433 6.5474462 15.659643 6.422446 15.528132 6.2987479 15.395319 6.2987479 15.183079q0-.243489.2057295-.398438.2057294-.15625.5221361-.15625.2044273 0 .3750004.03906.1705732.03906.3020838.09635v.304688h-.018229q-.1106773-.09375-.2916671-.154948-.1796877-.0625-.36849-.0625-.2070315 0-.3333338.08594-.1250002.08594-.1250002.221355 0 .121094.0625.190104.0625.06901.2200524.105469.083333.01823.2369795.04427.153646.02604.260417.05339.2161461.05729.3255212.173177.1093752.115885.1093752.324219zM9.3938044 15.900528h-1.071616q0 .134115.040365.234376.040365.09896.1106773.16276.067708.0625.1601564.09375.09375.03125.2057294.03125.1484377 0 .2981775-.05859.1510419-.0599.214844-.117188h.013021v.266927q-.1236981.05208-.2526045.08724-.1289064.03516-.2708337.03516-.3619796 0-.5651049-.195312-.2031252-.196615-.2031252-.557293 0-.356771.1940106-.566407.1953128-.209635.5130215-.209635.2942712 0 .4531256.171875.1601565.171875.1601565.488282zm-.2382816-.1875q-.0013-.192708-.097656-.298177-.095052-.105469-.2903649-.105469-.1966149 0-.3138025.115885-.1158856.115886-.1315106.287761zM10.672451 15.414851h-.01302q-.05469-.01302-.106771-.01823-.05078-.0065-.121094-.0065-.113281 0-.21875.05078-.105469.04948-.203125.128907v1.032553H9.7648978V15.147923H10.00969v.214844q.145833-.117187.256511-.165365.111979-.04948.227864-.04948.0638 0 .09245.0039.02865.0026.08594.01172zM12.160734 15.147923l-.588542 1.454429h-.246094l-.584636-1.454429h.265625l.450521 1.157554.446616-1.157554zM12.744069 14.904433h-.276042v-.253906h.276042zm-.01563 1.697919h-.244792v-1.454429h.244792zM14.288342 16.511206q-.122396.05859-.233073.09115-.109376.03255-.233074.03255-.157552 0-.289063-.04557-.13151-.04687-.22526-.140625-.09505-.09375-.147136-.236979-.05208-.14323-.05208-.334636 0-.356771.195313-.559897.196614-.203125.518229-.203125.125001 0 .244792.03516.121094.03516.221355.08594v.272136h-.01302q-.111979-.08724-.231771-.134115-.11849-.04687-.231771-.04687-.208334 0-.329428.140625-.119792.139323-.119792.410157 0 .263021.117188.404948.11849.140625.332032.140625.07422 0 .151042-.01953.07682-.01953.138021-.05078.05339-.02734.10026-.05729.04687-.03125.07422-.05338h.01302zM15.819593 15.900528h-1.071616q0 .134115.04036.234376.04036.09896.110677.16276.06771.0625.160157.09375.09375.03125.205729.03125.148438 0 .298177-.05859.151042-.0599.214845-.117188h.01302v.266927q-.123698.05208-.252604.08724-.128907.03516-.270834.03516-.361979 0-.565105-.195312-.203125-.196615-.203125-.557293 0-.356771.194011-.566407.195312-.209635.513021-.209635.294271 0 .453126.171875.160156.171875.160156.488282zm-.238281-.1875q-.0013-.192708-.09766-.298177-.09505-.105469-.290365-.105469-.196614 0-.313802.115885-.115886.115886-.131511.287761zM17.229751 16.183081q0 .199219-.165364.326823-.164063.127604-.44922.127604-.161458 0-.296875-.03776-.134115-.03906-.225261-.08464v-.274739h.01302q.115886.08724.257813.139323.141927.05078.272136.05078.161458 0 .252604-.05208.09115-.05208.09115-.164063 0-.08594-.04948-.130209-.04948-.04427-.190104-.07552-.05208-.01172-.136719-.02734-.08333-.01563-.152344-.03386-.191407-.05078-.272136-.148437-.07943-.09896-.07943-.242188 0-.08984.03646-.169271.03776-.07943.113281-.141927.07292-.0612.184897-.09636.113281-.03646.252604-.03646.130209 0 .263021.03255.134115.03125.222657.07682v.261719h-.01302q-.09375-.06901-.227865-.115885-.134115-.04818-.263021-.04818-.134115 0-.226563.05208-.09245.05078-.09245.152344 0 .08984.05599.135417.05469.04557.177083.07422.06771.01563.151042.03125.08464.01563.140625.02865.170573.03906.263021.134115.09245.09635.09245.255209z"/></g></svg>