<svg xmlns="http://www.w3.org/2000/svg" role="img" viewBox="-12.12 -11.62 604.24 383.24"><title>Azure Purview logo</title><path fill="#00FF74" d="M134.9 173.7c-24-31-39.2-70.4-46.2-91.9C141 39.6 212.1 0 290.5 0c35.8 0 70.2 8.2 101.9 21.1-35.9.7-100.9 10.4-156.2 65.2-81.8 81.2-37.1 139.7-36.4 140.6-.5-.1-30.3-8.6-64.9-53.2z" opacity=".3"/><path fill="#00FF74" d="M290 120.2c-.1 1.3-.2 2.6-.2 4 0 27.5 22.3 49.8 49.8 49.8 4.6 0 9.1-.6 13.4-1.8.8 4 1.2 8.2 1.2 12.4 0 35.5-28.8 64.3-64.4 64.3-35.5 0-64.3-28.8-64.3-64.3s28.8-64.3 64.3-64.3h.2z" opacity=".3"/><path fill="#00FF74" d="M393.3 189s40.2 46.4 13.8 143.7c-35.7 16.5-75.1 27.5-116.6 27.5C130.1 360.2 0 194.3 0 180.1c0-6.1 24.2-40.4 64.5-77.5 7.5 29.3 31.8 96.2 104.6 146.3 91.1 62.8 219.7 36.5 224.2-59.9z" opacity=".3"/><path fill="#00FF74" d="M581 180.1c0 10.5-55.1 83.6-137.7 133.4C463.5 107.2 300.7 77.7 300.7 77.7c58.9-31.8 132.6-24 160.6-19.4C533.8 107.1 581 170.4 581 180.1z" opacity=".3"/><linearGradient id="a" x1="289.269" x2="290.436" y1="126.49" y2="255.174" gradientUnits="userSpaceOnUse"><stop offset="0" stop-color="#4ee3fd"/><stop offset=".856" stop-color="#2cbee1"/></linearGradient><path fill="url(#a)" d="M354.1 184.5c0 35.5-28.8 64.3-64.4 64.3-35.5 0-64.3-28.8-64.3-64.3s28.8-64.3 64.3-64.3h.2c-.1 1.3-.2 2.6-.2 4 0 27.5 22.3 49.8 49.8 49.8 4.6 0 9.1-.6 13.4-1.8.8 4 1.2 8.1 1.2 12.3z"/><linearGradient id="b" x1="140.918" x2="279.522" y1="186.157" y2="-1.333" gradientUnits="userSpaceOnUse"><stop offset="0" stop-color="#0078d4"/><stop offset="1" stop-color="#338ee3"/></linearGradient><path fill="url(#b)" d="M236.2 86.3c-81.8 81.2-37.1 139.7-36.4 140.6-.5-.1-30.3-8.6-64.9-53.2-24-31-39.2-70.4-46.2-91.9C141 39.6 212.1 0 290.5 0c35.8 0 70.2 8.2 101.9 21.1-35.9.7-101 10.3-156.2 65.2z"/><linearGradient id="c" x1="77.613" x2="358.047" y1="86.785" y2="339.841" gradientUnits="userSpaceOnUse"><stop offset="0" stop-color="#4ee3fd"/><stop offset="1" stop-color="#32bedd"/></linearGradient><path fill="url(#c)" d="M407.1 332.7c-35.7 16.5-75.1 27.5-116.6 27.5C130.1 360.2 0 194.3 0 180.1c0-6.1 24.2-40.4 64.5-77.5 7.5 29.3 31.8 96.2 104.6 146.3 91.1 62.8 219.8 36.5 224.2-59.8 0-.1 40.3 46.3 13.8 143.6z"/><linearGradient id="d" x1="385.706" x2="533.72" y1="41.953" y2="280.01" gradientUnits="userSpaceOnUse"><stop offset="0" stop-color="#5ea0ef"/><stop offset="1" stop-color="#006ec2"/></linearGradient><path fill="url(#d)" d="M581 180.1c0 10.5-55.1 83.6-137.7 133.4C463.5 107.2 300.7 77.7 300.7 77.7c58.9-31.8 132.6-24 160.6-19.4C533.8 107.1 581 170.4 581 180.1z"/></svg>