<svg xmlns="http://www.w3.org/2000/svg" role="img" viewBox="1.07 0.13 15.37 16.05"><title>Azure Logic Apps logo</title><defs><linearGradient id="a" x1="5.05" x2="5.05" y1="10.55" y2="13.48" gradientUnits="userSpaceOnUse"><stop offset="0" stop-color="#76bc2d"/><stop offset="1" stop-color="#5e9624"/></linearGradient><linearGradient id="b" x1="12.84" x2="12.84" y1="10.57" y2="13.5" gradientUnits="userSpaceOnUse"><stop offset="0" stop-color="#76bc2d"/><stop offset="1" stop-color="#5e9624"/></linearGradient></defs><g transform="translate(1 -1.584) scale(.8653)"><path fill="#949494" d="M3.19 15.6a2.49 2.49 0 0 1-1.53-.38 1.7 1.7 0 0 1-.45-1.36v-3.53c0-.58-.23-.89-.71-.89v-.88c.48 0 .71-.31.71-.92V4.17a1.79 1.79 0 0 1 .45-1.39 2.29 2.29 0 0 1 1.53-.38v.89c-.51 0-.79.27-.79.85v3.4c0 .78-.23 1.26-.74 1.46a1.42 1.42 0 0 1 .74 1.46v3.37a1.25 1.25 0 0 0 .17.68.74.74 0 0 0 .58.2v.89zM14.81 2.4a2.49 2.49 0 0 1 1.53.38 1.7 1.7 0 0 1 .45 1.36v3.53c0 .58.23.89.71.89v.88c-.48 0-.71.31-.71.92v3.43a1.8 1.8 0 0 1-.45 1.4 2.28 2.28 0 0 1-1.53.41v-.89c.51 0 .79-.27.79-.85v-3.4c0-.78.23-1.26.74-1.46a1.42 1.42 0 0 1-.74-1.46V4.17a1.25 1.25 0 0 0-.17-.68.74.74 0 0 0-.58-.2z"/><path fill="#005ba1" d="M9.41 8.35V7.08h-.9v1.27a.18.18 0 0 1-.18.18H5a.36.36 0 0 0-.36.36v1.65h.9v-.91a.18.18 0 0 1 .17-.18h6.54a.18.18 0 0 1 .18.18v.93h.89V8.89a.36.36 0 0 0-.35-.36H9.59a.18.18 0 0 1-.18-.18z"/><path fill="#0078d4" d="M10.61 3.21H7.25a.38.38 0 0 0-.38.37v3.36a.37.37 0 0 0 .38.37h3.36a.37.37 0 0 0 .39-.37V3.58a.38.38 0 0 0-.39-.37zm-.32 3.17a.25.25 0 0 1-.25.24H7.81a.25.25 0 0 1-.25-.24V4.15a.25.25 0 0 1 .25-.25H10a.25.25 0 0 1 .25.25z"/><rect width="2.94" height="2.94" x="3.58" y="10.55" fill="url(#a)" rx=".27"/><rect width="2.94" height="2.94" x="11.38" y="10.57" fill="url(#b)" rx=".27"/></g><path d="M3.87992 15.35294H2.65336v-1.9388h.25781v1.70963h.96875zm1.47787-.72656q0 .35547-.1823.5612-.18229.20572-.48828.20572-.30859 0-.49088-.20572-.181-.20573-.181-.5612 0-.35547.181-.5612.1823-.20703.49089-.20703.30599 0 .48828.20703.18229.20573.18229.5612zm-.2526 0q0-.28255-.11068-.41927-.11068-.13803-.3073-.13803-.19921 0-.3099.13803-.10937.13671-.10937.41927 0 .27344.11068.41536.11068.14063.3086.14063.1953 0 .30599-.13933.11197-.14062.11197-.41666zm1.8112.5612q0 .36979-.16797.54296-.16797.17318-.51693.17318-.11589 0-.22656-.01693-.10938-.01563-.21615-.04557v-.25h.01302q.0599.02344.1901.0573.13021.03515.26042.03515.125 0 .20703-.02995.08203-.02995.1276-.08333.04558-.05078.06511-.1224.01953-.0716.01953-.16015v-.13281q-.11068.08854-.21224.13281-.10026.04297-.2565.04297-.26043 0-.41407-.1875-.15235-.1888-.15235-.53125 0-.1875.05209-.32292.05338-.13672.14453-.23567.08463-.09246.20573-.14324.1211-.05208.24088-.05208.1263 0 .21094.02604.08594.02474.181.07682l.01562-.0625h.22916zm-.2448-.23438v-.79297q-.09765-.04427-.18229-.0625-.08333-.01953-.16667-.01953-.20182 0-.3177.13542-.11589.13542-.11589.39323 0 .24479.08594.3711.08594.1263.28515.1263.10678 0 .21355-.04037.10807-.04167.19791-.11067zm.98959-1.29818h-.27604v-.2539h.27604zm-.01563 1.69792h-.24479v-1.45443h.2448zm1.5599-.09115q-.1224.0586-.23307.09115-.10938.03255-.23308.03255-.15755 0-.28906-.04557-.13151-.04686-.22526-.14062-.09505-.09375-.14714-.23698-.05208-.14323-.05208-.33464 0-.35677.19531-.5599.19662-.20312.51823-.20312.125 0 .2448.03516.12109.03516.22135.08594v.27214h-.01302q-.11198-.08724-.23177-.13412-.1185-.04687-.23177-.04687-.20834 0-.32943.14063-.1198.13932-.1198.41016 0 .26302.1172.40494.11849.14063.33203.14063.07422 0 .15104-.01953.07682-.01953.13802-.05078.05339-.02734.10026-.0573.04688-.03124.07422-.05338h.01302zm2.79948.09115h-.27474l-.1901-.54037h-.83855l-.1901.54037h-.26172l.70573-1.9388h.34375zm-.54427-.76172l-.33984-.95182-.34115.95182zm2.09896.01693q0 .17708-.05078.32422-.05078.14583-.14323.2474-.08594.09635-.20312.14973-.11589.05208-.2461.05208-.11328 0-.20573-.02474-.09115-.02474-.1862-.07682v.60938h-.24479v-1.99089h.2448v.15235q.09765-.08203.21875-.13672.1224-.056.26041-.056.26302 0 .40886.19923.14713.19791.14713.55078zm-.2526.0065q0-.26302-.08984-.39323-.08984-.13021-.27605-.13021-.10546 0-.21224.04557-.10677.04557-.20442.1198v.82421q.10416.04687.17838.0638.07552.01693.17058.01693.20442 0 .319-.13802.11459-.13802.11459-.40885zm1.91406-.0065q0 .17708-.05078.32422-.05078.14583-.14323.2474-.08594.09635-.20312.14973-.11589.05208-.2461.05208-.11328 0-.20572-.02474-.09115-.02474-.1862-.07682v.60938h-.2448v-1.99089h.2448v.15235q.09766-.08203.21875-.13672.1224-.056.26041-.056.26303 0 .40886.19923.14714.19791.14714.55078zm-.2526.0065q0-.26302-.08984-.39323-.08984-.13021-.27604-.13021-.10547 0-.21224.04557-.10677.04557-.20443.1198v.82421q.10417.04687.17838.0638.07552.01693.17058.01693.20442 0 .319-.13802.1146-.13802.1146-.40885z"/></svg>