<svg xmlns="http://www.w3.org/2000/svg" role="img" viewBox="225.75 7.74 278.26 377.26"><title>Azure Data Factory Mapping Data Flows logo</title><path fill="#59b4d9" d="m 496.48,168.18637 v 0 -63.04609 l -71.24,62.00401 h -1.56 v -62.00401 l -71.24,62.00401 v 0 V 37.40481 C 352.44,26.46293 328,15.52104 295.76,15.52104 263.52,15.52104 237,25.94188 237,37.40481 V 274.99999 H 497 Z M 295.76,47.82565 c -23.4,0 -42.12,-5.73146 -42.12,-11.98397 0,-6.2525 18.72,-11.98396 42.12,-11.98396 23.4,0 42.12,5.21042 42.12,11.98396 -0.52,6.25251 -19.24,11.98397 -42.12,11.98397 z m 122.72,184.96994 h -28.6 v -28.65732 h 28.6 z m -50.44,0 h -28.6 v -28.65732 h 28.6 z m 72.8,0 v -28.65732 h 28.6 v 28.65732 z"/><path fill="#3999c6" d="M237 35.842H294.72V275H237z"/><path fill="#fff" d="m 351.92,35.84168 c 0,11.46293 -26,20.84169 -57.72,20.84169 -31.72,0 -57.2,-9.37876 -57.2,-20.84169 C 237,24.37876 263,15 294.72,15 c 31.72,0 57.2,8.85772 57.2,20.84168"/><path fill="#7fba00" d="m 340.48,34.27856 c 0,7.81563 -20.28,13.54709 -45.76,13.54709 -25.48,0 -45.76,-5.73146 -45.76,-13.54709 0,-7.81563 20.28,-13.5471 45.76,-13.5471 25.48,0 45.76,6.25251 45.76,13.5471"/><path fill="#b8d432" d="m 330.6,42.61523 c 6.24,-2.08417 9.36,-5.21042 9.36,-8.33667 0,-7.81563 -20.28,-13.5471 -45.76,-13.5471 -25.48,0 -45.76,6.25251 -45.76,13.5471 0.52,3.12625 4.16,6.2525 9.88,8.33667 8.32,-3.12625 21.32,-5.21042 36.4,-5.21042 14.56,0 27.56,2.08417 35.88,5.21042"/><g text-anchor="middle"><path d="M288.25126 324h-4.125v-26.72919l-8.62501 18.18752h-2.45834l-8.5625-18.18752V324h-3.85417v-31.02086h5.625l8.27084 17.27085 8.00001-17.27085h5.72917zM314.35544 324h-3.89583v-2.47917q-.52084.35417-1.41667 1-.875.625-1.70834 1-.97916.47917-2.25.79167-1.27083.33333-2.97917.33333-3.14583 0-5.33333-2.08333-2.1875-2.08334-2.1875-5.31251 0-2.64583 1.125-4.27083 1.14583-1.64584 3.25-2.58334 2.125-.9375 5.10417-1.27083 2.97917-.33333 6.39584-.5v-.60417q0-1.33333-.47917-2.20833-.45833-.875-1.33333-1.375-.83334-.47917-2.00001-.64584-1.16666-.16667-2.4375-.16667-1.54167 0-3.4375.41667-1.89583.39584-3.91667 1.16667h-.20833v-3.97917q1.14583-.3125 3.3125-.6875 2.16667-.375 4.27084-.375 2.45833 0 4.27083.41667 1.83334.39583 3.16667 1.375 1.3125.95833 2 2.47917.6875 1.52083.6875 3.77083zm-3.89583-5.72917v-6.47917q-1.79167.10416-4.22917.3125-2.41667.20833-3.83334.60416-1.6875.47917-2.72917 1.50001-1.04166 1-1.04166 2.77083 0 2 1.20833 3.02084 1.20833 1 3.6875 1 2.0625 0 3.77084-.79167 1.70833-.8125 3.16667-1.9375zM342.3763 312.08332q0 2.83334-.8125 5.18751-.8125 2.33333-2.29167 3.95833-1.375 1.54167-3.25 2.39584-1.85417.83333-3.93751.83333-1.8125 0-3.29167-.39583-1.45833-.39583-2.97916-1.22917v9.75001h-3.91667v-31.85419h3.91667v2.4375q1.5625-1.3125 3.5-2.1875 1.95833-.89583 4.16667-.89583 4.20833 0 6.54167 3.1875 2.35417 3.16667 2.35417 8.8125zm-4.04167.10417q0-4.20834-1.4375-6.29167-1.4375-2.08334-4.41667-2.08334-1.6875 0-3.39584.72917-1.70833.72917-3.27083 1.91667v13.18751q1.66666.75 2.85416 1.02083 1.20834.27084 2.72917.27084 3.27084 0 5.10417-2.20834 1.83334-2.20833 1.83334-6.54167zM368.95965 312.08332q0 2.83334-.8125 5.18751-.8125 2.33333-2.29167 3.95833-1.375 1.54167-3.25 2.39584-1.85417.83333-3.9375.83333-1.8125 0-3.29167-.39583-1.45834-.39583-2.97917-1.22917v9.75001h-3.91667v-31.85419h3.91667v2.4375q1.5625-1.3125 3.5-2.1875 1.95834-.89583 4.16667-.89583 4.20834 0 6.54167 3.1875 2.35417 3.16667 2.35417 8.8125zm-4.04167.10417q0-4.20834-1.4375-6.29167-1.4375-2.08334-4.41667-2.08334-1.6875 0-3.39583.72917-1.70834.72917-3.27084 1.91667v13.18751q1.66667.75 2.85417 1.02083 1.20833.27084 2.72917.27084 3.27083 0 5.10417-2.20834 1.83333-2.20833 1.83333-6.54167zM379.27216 296.83331h-4.41667v-4.0625h4.41667zM379.02216 324h-3.91667v-23.27085h3.91667zM406.23051 324h-3.91667v-13.25001q0-1.60417-.1875-3-.1875-1.41667-.6875-2.20834-.52083-.875-1.5-1.29166-.97917-.43751-2.54167-.43751-1.60416 0-3.35417.79167-1.75.79167-3.35417 2.02084V324h-3.91666v-23.27085h3.91666v2.58333q1.83334-1.52083 3.79167-2.375 1.95834-.85416 4.02084-.85416 3.77084 0 5.75001 2.27083 1.97916 2.27084 1.97916 6.54167zM432.6472 321.35416q0 5.91668-2.6875 8.68751-2.6875 2.77084-8.27084 2.77084-1.85417 0-3.625-.27084-1.75-.25-3.45834-.72916v-4.00001h.20834q.95833.375 3.04166.91667 2.08334.5625 4.16667.5625 2.00001 0 3.31251-.47917 1.3125-.47916 2.04167-1.33333.72916-.8125 1.04166-1.95834.3125-1.14583.3125-2.5625v-2.125q-1.77083 1.41667-3.39583 2.125-1.60417.6875-4.10417.6875-4.16667 0-6.62501-3-2.4375-3.02083-2.4375-8.50001 0-3 .83333-5.16667.85417-2.1875 2.31251-3.77083 1.35416-1.47917 3.29167-2.29167 1.9375-.83333 3.85416-.83333 2.02084 0 3.37501.41666 1.375.39584 2.89583 1.22917l.25-1h3.66667zm-3.91667-3.75v-12.68751q-1.5625-.70833-2.91667-1-1.33333-.3125-2.66666-.3125-3.22917 0-5.08334 2.16667-1.85417 2.16667-1.85417 6.29167 0 3.91667 1.375 5.93751 1.375 2.02083 4.5625 2.02083 1.70834 0 3.41667-.64583 1.72917-.66667 3.16667-1.77084zM259.25124 361.85419q0 4.22917-1.85417 7.66668-1.83334 3.4375-4.89584 5.33333-2.125 1.31251-4.75 1.89584-2.60417.58333-6.87501.58333h-7.83334v-31.02085h7.75001q4.54167 0 7.20834.66666 2.6875.64584 4.54167 1.79167 3.16667 1.97917 4.9375 5.27084 1.77084 3.29167 1.77084 7.8125zm-4.31251-.0625q0-3.64583-1.27083-6.14583-1.27083-2.5-3.79167-3.93751-1.83333-1.04166-3.89584-1.4375-2.0625-.41666-4.9375-.41666h-3.875v23.93751h3.875q2.97917 0 5.1875-.4375 2.22917-.4375 4.08334-1.625 2.3125-1.47917 3.45834-3.89583 1.16666-2.41667 1.16666-6.04168zM283.68875 377.33337h-3.89583v-2.47917q-.52084.35417-1.41667 1.00001-.875.625-1.70833 1-.97917.47916-2.25001.79166-1.27083.33334-2.97917.33334-3.14583 0-5.33333-2.08334-2.1875-2.08333-2.1875-5.3125 0-2.64584 1.125-4.27084 1.14583-1.64583 3.25-2.58333 2.125-.9375 5.10417-1.27084 2.97917-.33333 6.39584-.5v-.60417q0-1.33333-.47917-2.20833-.45833-.875-1.33333-1.375-.83334-.47917-2.00001-.64584-1.16666-.16666-2.4375-.16666-1.54167 0-3.4375.41666-1.89583.39584-3.91667 1.16667h-.20833v-3.97917q1.14583-.3125 3.3125-.6875 2.16667-.375 4.27084-.375 2.45833 0 4.27083.41667 1.83334.39583 3.16667 1.375 1.3125.95833 2 2.47917.6875 1.52083.6875 3.77083zm-3.89583-5.72917v-6.47917q-1.79167.10417-4.22917.3125-2.41667.20833-3.83334.60417-1.6875.47917-2.72917 1.5-1.04166 1-1.04166 2.77083 0 2.00001 1.20833 3.02084 1.20833 1 3.6875 1 2.0625 0 3.77084-.79167 1.70833-.8125 3.16667-1.9375zM303.31377 377.12504q-1.10417.29167-2.41667.47917-1.29167.1875-2.3125.1875-3.5625 0-5.41667-1.91667-1.85417-1.91667-1.85417-6.14584v-12.37501h-2.64584v-3.29167h2.64584v-6.6875h3.91667v6.6875h8.08334v3.29167h-8.08334v10.60418q0 1.83333.0833 2.875.0833 1.02083.58334 1.91667.45833.83333 1.25 1.22916.8125.375 2.45833.375.95834 0 2-.27083 1.04167-.29167 1.5-.47917h.20834zM326.12628 377.33337h-3.89583v-2.47917q-.52084.35417-1.41667 1.00001-.875.625-1.70833 1-.97917.47916-2.25001.79166-1.27083.33334-2.97916.33334-3.14584 0-5.33334-2.08334-2.1875-2.08333-2.1875-5.3125 0-2.64584 1.125-4.27084 1.14583-1.64583 3.25-2.58333 2.125-.9375 5.10417-1.27084 2.97917-.33333 6.39584-.5v-.60417q0-1.33333-.47917-2.20833-.45833-.875-1.33333-1.375-.83334-.47917-2-.64584-1.16667-.16666-2.43751-.16666-1.54166 0-3.4375.41666-1.89583.39584-3.91667 1.16667h-.20833v-3.97917q1.14583-.3125 3.3125-.6875 2.16667-.375 4.27084-.375 2.45833 0 4.27083.41667 1.83334.39583 3.16667 1.375 1.3125.95833 2 2.47917.6875 1.52083.6875 3.77083zm-3.89583-5.72917v-6.47917q-1.79167.10417-4.22917.3125-2.41667.20833-3.83334.60417-1.6875.47917-2.72917 1.5-1.04166 1-1.04166 2.77083 0 2.00001 1.20833 3.02084 1.20833 1 3.6875 1 2.0625 0 3.77084-.79167 1.70833-.8125 3.16667-1.9375zM368.79298 349.97919h-15.68751v8.75h13.47918v3.66667h-13.47918v14.93751h-4.125v-31.02085h19.81251zM377.14716 377.33337h-3.91667v-32.41669h3.91667zM404.73051 365.70836q0 5.68751-2.91667 8.97918-2.91667 3.29167-7.8125 3.29167-4.93751 0-7.85418-3.29167-2.89583-3.29167-2.89583-8.97918 0-5.6875 2.89583-8.97917 2.91667-3.3125 7.85418-3.3125 4.89583 0 7.8125 3.3125 2.91667 3.29167 2.91667 8.97917zm-4.04167 0q0-4.52083-1.77083-6.70833-1.77084-2.20834-4.91667-2.20834-3.18751 0-4.95834 2.20834-1.75 2.1875-1.75 6.70833 0 4.37501 1.77083 6.64584 1.77084 2.25 4.93751 2.25 3.125 0 4.89583-2.22916 1.79167-2.25001 1.79167-6.66668zM440.06388 354.06252l-6.06251 23.27085h-3.625l-5.97917-17.93751-5.93751 17.93751h-3.60417l-6.125-23.27085h4.08334l4.27083 18.02085 5.81251-18.02085h3.22917l5.95833 18.02085 4.04167-18.02085zM462.33472 370.62503q0 3.18751-2.64583 5.22918-2.62501 2.04166-7.18751 2.04166-2.58334 0-4.75-.60416-2.14584-.625-3.60417-1.35417v-4.39584h.20833q1.85417 1.39584 4.125 2.22917 2.27084.8125 4.35417.8125 2.58334 0 4.04167-.83333 1.45834-.83334 1.45834-2.625 0-1.37501-.79167-2.08334-.79167-.70833-3.04167-1.20833-.83333-.1875-2.1875-.4375-1.33333-.25-2.4375-.54167-3.0625-.8125-4.35417-2.375-1.27084-1.58334-1.27084-3.87501 0-1.4375.58334-2.70833.60416-1.27084 1.8125-2.27084 1.16667-.97916 2.95833-1.54166 1.81251-.58334 4.04167-.58334 2.08334 0 4.20834.52084 2.14584.5 3.5625 1.22916v4.18751h-.20833q-1.5-1.10417-3.64584-1.85417-2.14583-.77084-4.20833-.77084-2.14584 0-3.62501.83334-1.47916.8125-1.47916 2.4375 0 1.4375.89583 2.16667.875.72917 2.83334 1.1875 1.08333.25 2.41666.5 1.35417.25 2.25001.45833 2.72917.625 4.20833 2.14584 1.47917 1.54167 1.47917 4.08333z" style="text-align:center"/></g></svg>