<svg xmlns="http://www.w3.org/2000/svg" role="img" viewBox="19.87 7.37 171.27 280.02"><title>Azure Data Lake Storage logo</title><g><path fill="#3e3e3e" d="M 36.545421,38.805686 V 171.91588 c 0,13.9353 30.606208,24.9307 68.859059,24.9307 V 38.805686 Z"/><path fill="#a0a1a2" d="m 104.32346,197.21557 h 1.08874 c 37.89037,0 68.85905,-11.36439 68.85905,-24.93718 V 38.805686 H 104.3247 Z"/><path fill="#3999c6" d="m 104.31025,197.22229 v -65.99814 c -10.197652,0 -18.945302,-5.5043 -24.040771,-13.57279 -5.102186,8.06849 -13.480359,13.57279 -23.684745,13.57279 -8.015691,0 -14.937126,-3.30263 -20.039313,-8.80021 v 49.86764 c 0,13.56632 30.243699,24.56821 67.764829,24.93071 z"/><path fill="#59b4d9" d="m 153.12975,131.22415 c -10.19766,0 -19.30755,-5.5043 -24.40975,-13.57279 -4.73296,8.06849 -13.48036,13.20357 -23.67802,13.57279 v 65.99814 c 37.89011,0 68.85879,-11.36439 68.85879,-24.93071 v -50.23686 c -5.10194,5.49783 -12.38612,9.16943 -20.77102,9.16943 z"/><path fill="#fff" d="m 174.27647,37.737861 c 0,13.856069 -30.60616,24.805395 -68.85878,24.805395 -38.252864,0 -68.859064,-10.949326 -68.859064,-24.805395 0,-13.500292 30.96871,-24.805389 68.859064,-24.805389 37.89011,0 68.85878,11.305097 68.85878,24.805389 z"/><path fill="#7fba00" d="m 160.07111,36.274397 c 0,9.116627 -24.40975,16.413767 -54.64694,16.413767 -30.23695,0 -54.646728,-7.29714 -54.646728,-16.413767 0,-9.123105 24.409778,-16.420493 54.646728,-16.420493 30.23719,0 54.64694,7.297388 54.64694,16.420493 z"/><path fill="#b8d432" d="m 148.77922,46.48526 c 7.28393,-2.913474 11.29189,-6.202905 11.29189,-10.210863 0,-9.123105 -24.40975,-16.420493 -54.64694,-16.420493 -30.23695,0 -54.646728,7.297388 -54.646728,16.420493 0,3.645455 4.370245,7.297389 11.291914,10.210863 9.835161,-4.007958 25.503992,-6.565408 43.354814,-6.565408 17.48832,0 33.15067,2.55745 43.35505,6.565408 z"/><g stroke-width=".341" text-anchor="middle"><path style="text-align:center" d="M45.353161 222.7459q0 3.24361-1.422075 5.88004-1.406097 2.63643-3.754917 4.09046-1.629794 1.00664-3.643068 1.45403-1.997297.4474-5.272862.4474h-6.007867v-23.79179h5.943953q3.483285 0 5.528516.5113 2.06121.49533 3.483285 1.37414 2.428712 1.51795 3.786873 4.04253 1.358162 2.52458 1.358162 5.99189zm-3.307523-.0479q0-2.79621-.97468-4.71361-.974681-1.91741-2.908064-3.01992-1.406096-.79892-2.987955-1.1025-1.581858-.31957-3.786873-.31957h-2.971977v18.35915h2.971977q2.284906 0 3.978614-.33555 1.709685-.33555 3.13176-1.24631 1.773599-1.13447 2.65241-2.98796.894788-1.85349.894788-4.63373zM64.095788 234.61783h-2.987955v-1.90143q-.399459.27163-1.086529.76696-.671092.47936-1.310226.76697-.750984.3675-1.725664.60717-.974681.25566-2.284907.25566-2.412734 0-4.090463-1.59784-1.677729-1.59784-1.677729-4.07448 0-2.02926.862832-3.27557.878811-1.26229 2.492626-1.98132 1.629794-.71902 3.914701-.97468 2.284906-.25565 4.905359-.38348v-.46337q0-1.02262-.367502-1.69371-.351525-.67109-1.022616-1.05457-.639135-.3675-1.533924-.49533-.894788-.12783-1.869469-.12783-1.182399 0-2.636431.31957-1.454032.30359-3.003933.89479h-.159784v-3.05187q.87881-.23968 2.540561-.52729 1.66175-.28761 3.275565-.28761 1.885448 0 3.275566.31957 1.406097.30359 2.428713 1.05457 1.006637.73501 1.533923 1.90143.527286 1.16642.527286 2.89208zm-2.987955-4.39405v-4.96928q-1.37414.0799-3.243609.23968-1.853491.15978-2.94002.46337-1.294248.3675-2.093167 1.15044-.798918.76697-.798918 2.12513 0 1.53392.926745 2.31686.926746.76696 2.828172.76696 1.581859 0 2.892085-.60717 1.310226-.62316 2.428712-1.48599zM79.147414 234.45804q-.846853.2237-1.853491.36751-.990659.1438-1.773599.1438-2.732301 0-4.154376-1.47001-1.422075-1.47001-1.422075-4.71362v-9.49115H67.91462v-2.52458h2.029253v-5.12906h3.003934v5.12906h6.199607v2.52458h-6.199607v8.13299q0 1.4061.06391 2.20502.06391.78294.447395 1.47001.351524.63913.958702.94272.623156.28761 1.885447.28761.735005 0 1.533924-.20772.798918-.22369 1.150443-.3675h.159783zM96.643728 234.61783h-2.987956v-1.90143q-.399459.27163-1.086529.76696-.671091.47936-1.310226.76697-.750984.3675-1.725664.60717-.974681.25566-2.284907.25566-2.412734 0-4.090463-1.59784-1.677728-1.59784-1.677728-4.07448 0-2.02926.862831-3.27557.878811-1.26229 2.492626-1.98132 1.629794-.71902 3.914701-.97468 2.284907-.25565 4.905359-.38348v-.46337q0-1.02262-.367502-1.69371-.351524-.67109-1.022616-1.05457-.639135-.3675-1.533923-.49533-.894789-.12783-1.86947-.12783-1.182399 0-2.636431.31957-1.454031.30359-3.003933.89479h-.159784v-3.05187q.87881-.23968 2.540561-.52729 1.66175-.28761 3.275566-.28761 1.885447 0 3.275566.31957 1.406096.30359 2.428712 1.05457 1.006637.73501 1.533923 1.90143.527287 1.16642.527287 2.89208zm-2.987956-4.39405v-4.96928q-1.374139.0799-3.243609.23968-1.853491.15978-2.94002.46337-1.294248.3675-2.093166 1.15044-.798919.76697-.798919 2.12513 0 1.53392.926746 2.31686.926745.76696 2.828171.76696 1.581859 0 2.892085-.60717 1.310226-.62316 2.428712-1.48599zM129.22362 234.61783H114.172v-23.79179h3.16371v20.9796h11.88791zM146.01689 234.61783h-2.98795v-1.90143q-.39946.27163-1.08653.76696-.67109.47936-1.31023.76697-.75098.3675-1.72566.60717-.97468.25566-2.28491.25566-2.41273 0-4.09046-1.59784-1.67773-1.59784-1.67773-4.07448 0-2.02926.86283-3.27557.87881-1.26229 2.49263-1.98132 1.62979-.71902 3.9147-.97468 2.2849-.25565 4.90536-.38348v-.46337q0-1.02262-.36751-1.69371-.35152-.67109-1.02261-1.05457-.63914-.3675-1.53392-.49533-.89479-.12783-1.86947-.12783-1.1824 0-2.63643.31957-1.45404.30359-3.00394.89479h-.15978v-3.05187q.87881-.23968 2.54056-.52729 1.66175-.28761 3.27556-.28761 1.88545 0 3.27557.31957 1.4061.30359 2.42871 1.05457 1.00664.73501 1.53393 1.90143.52728 1.16642.52728 2.89208zm-2.98795-4.39405v-4.96928q-1.37414.0799-3.24361.23968-1.85349.15978-2.94002.46337-1.29425.3675-2.09317 1.15044-.79892.76697-.79892 2.12513 0 1.53392.92675 2.31686.92674.76696 2.82817.76696 1.58186 0 2.89209-.60717 1.31022-.62316 2.42871-1.48599zM168.00312 234.61783h-3.96263l-7.15831-7.81342-1.94936 1.85349v5.95993h-3.00394v-24.86235h3.00394v15.94642l8.67625-8.93191h3.78688l-8.29278 8.24484zM185.78705 226.00549h-13.1502q0 1.64577.49533 2.8761.49533 1.21436 1.35816 1.9973.83088.76696 1.96534 1.15044 1.15045.38348 2.52459.38348 1.82153 0 3.65904-.71902 1.85349-.73501 2.63643-1.43806h.15979v3.27557q-1.51795.63913-3.09981 1.07055-1.58186.43142-3.3235.43142-4.44198 0-6.93461-2.39676-2.49263-2.41273-2.49263-6.83874 0-4.37808 2.38078-6.95059 2.39676-2.57252 6.29548-2.57252 3.61111 0 5.56047 2.10914 1.96534 2.10915 1.96534 5.99189zm-2.92404-2.30089q-.016-2.3648-1.19838-3.65904-1.16642-1.29425-3.56317-1.29425-2.41274 0-3.85079 1.42207-1.42208 1.42208-1.61382 3.53122zM66.931949 268.73165q0 1.39012-.655113 2.74828-.639135 1.35816-1.805556 2.30088-1.278269 1.02262-2.987955 1.59784-1.693707.57522-4.090462.57522-2.572518 0-4.633728-.47935-2.045231-.47935-4.170354-1.42207v-3.96264h.223697q1.805556 1.50197 4.170354 2.31686 2.364799.8149 4.441987.8149 2.94002 0 4.569814-1.10251 1.645772-1.10251 1.645772-2.94002 0-1.58186-.78294-2.33284-.766962-.75098-2.34882-1.16642-1.198378-.31957-2.604475-.52729-1.390118-.20772-2.955998-.52728-3.163717-.67109-4.697641-2.28491-1.517945-1.62979-1.517945-4.23427 0-2.98795 2.524582-4.88938 2.524583-1.9174 6.407327-1.9174 2.508604 0 4.60177.47935 2.093167.47935 3.706982 1.1824v3.73894H65.74955q-1.358161-1.15045-3.579155-1.90143-2.205015-.76696-4.521879-.76696-2.54056 0-4.090462 1.05457-1.533924 1.05457-1.533924 2.71632 0 1.48599.766962 2.33285.766962.84685 2.700345 1.29424 1.022615.2237 2.908063.54327 1.885447.31956 3.195674.65511 2.652409.70305 3.994592 2.12512 1.342183 1.42208 1.342183 3.97862zM81.040851 275.36267q-.846854.2237-1.853491.3675-.990659.14381-1.773599.14381-2.732302 0-4.154376-1.47001-1.422075-1.47001-1.422075-4.71362v-9.49115h-2.029253v-2.52458h2.029253v-5.12906h3.003933v5.12906h6.199608v2.52458h-6.199608v8.13299q0 1.4061.06391 2.20501.06391.78294.447394 1.47001.351524.63914.958702.94273.623157.28761 1.885448.28761.735005 0 1.533923-.20772.798919-.2237 1.150443-.3675h.159784zM99.879349 266.60652q0 4.3621-2.236972 6.88668-2.236972 2.52458-5.991889 2.52458-3.786873 0-6.023845-2.52458-2.220993-2.52458-2.220993-6.88668 0-4.36209 2.220993-6.88667 2.236972-2.54056 6.023845-2.54056 3.754917 0 5.991889 2.54056 2.236972 2.52458 2.236972 6.88667zm-3.099804 0q0-3.4673-1.358161-5.14503-1.358162-1.69371-3.770896-1.69371-2.44469 0-3.802852 1.69371-1.342183 1.67773-1.342183 5.14503 0 3.35546 1.358162 5.0971 1.358161 1.72567 3.786873 1.72567 2.396756 0 3.754917-1.70969 1.37414-1.72566 1.37414-5.11308zM115.66598 260.95018h-.15978q-.6711-.15978-1.31023-.2237-.62316-.0799-1.48599-.0799-1.39012 0-2.68437.62316-1.29424.60718-2.49262 1.58186v12.67085h-3.00393v-17.84784h3.00393v2.63643q1.78958-1.43806 3.14774-2.02926 1.37414-.60717 2.79621-.60717.78294 0 1.13447.0479.35152.032 1.05457.14381zM131.78815 275.52246h-2.98795v-1.90143q-.39946.27163-1.08653.76696-.67109.47935-1.31023.76696-.75098.36751-1.72566.60718-.97468.25565-2.28491.25565-2.41273 0-4.09046-1.59783-1.67773-1.59784-1.67773-4.07449 0-2.02925.86283-3.27556.87881-1.26229 2.49263-1.98132 1.62979-.71903 3.9147-.97468 2.28491-.25565 4.90536-.38348v-.46337q0-1.02262-.3675-1.69371-.35153-.67109-1.02262-1.05457-.63913-.36751-1.53392-.49533-.89479-.12783-1.86947-.12783-1.1824 0-2.63643.31957-1.45404.30359-3.00394.89479h-.15978v-3.05187q.87881-.23968 2.54056-.52729 1.66175-.28761 3.27557-.28761 1.88544 0 3.27556.31957 1.4061.30359 2.42871 1.05457 1.00664.735 1.53393 1.90143.52728 1.16642.52728 2.89208zm-2.98795-4.39406v-4.96927q-1.37414.0799-3.24361.23968-1.85349.15978-2.94002.46337-1.29425.3675-2.09317 1.15044-.79892.76696-.79892 2.12512 0 1.53393.92675 2.31687.92675.76696 2.82817.76696 1.58186 0 2.89209-.60718 1.31022-.62315 2.42871-1.48599zM152.04873 273.4932q0 4.53786-2.06121 6.66298-2.06121 2.12513-6.34341 2.12513-1.42208 0-2.78024-.20772-1.34218-.19174-2.65241-.55925v-3.06784h.15978q.73501.28761 2.33285.70305 1.59783.43141 3.19567.43141 1.53392 0 2.54056-.3675 1.00664-.3675 1.56588-1.02262.55924-.62315.79892-1.50196.23967-.87881.23967-1.96534v-1.6298q-1.35816 1.08653-2.60447 1.6298-1.23033.52728-3.14774.52728-3.19567 0-5.08112-2.30088-1.86947-2.31687-1.86947-6.51918 0-2.30088.63914-3.96263.65511-1.67773 1.77359-2.89209 1.0386-1.13446 2.52459-1.75762 1.48599-.63913 2.956-.63913 1.5499 0 2.58849.31956 1.05457.30359 2.22099.94273l.19175-.76696h2.81219zm-3.00394-2.8761v-9.73083q-1.19837-.54327-2.23697-.76696-1.02261-.23968-2.04523-.23968-2.47665 0-3.89872 1.66175-1.42208 1.66175-1.42208 4.82547 0 3.00393 1.05458 4.55383 1.05457 1.54991 3.49926 1.54991 1.31023 0 2.62045-.49533 1.32621-.51131 2.42871-1.35816zM172.9005 266.91011h-13.1502q0 1.64578.49533 2.87611.49533 1.21436 1.35816 1.9973.83088.76696 1.96534 1.15044 1.15044.38348 2.52458.38348 1.82154 0 3.65905-.71903 1.85349-.735 2.63643-1.43805h.15978v3.27557q-1.51794.63913-3.0998 1.07055-1.58186.43141-3.3235.43141-4.44199 0-6.93461-2.39675-2.49263-2.41274-2.49263-6.83874 0-4.37808 2.38078-6.9506 2.39675-2.57251 6.29548-2.57251 3.61111 0 5.56047 2.10914 1.96534 2.10915 1.96534 5.99189zm-2.92404-2.30088q-.016-2.3648-1.19838-3.65905-1.16642-1.29425-3.56318-1.29425-2.41273 0-3.85078 1.42208-1.42208 1.42207-1.61382 3.53122z"/></g></g></svg>