<svg xmlns="http://www.w3.org/2000/svg" role="img" viewBox="73.32 -3.43 438.36 331.36"><title>Azure Purview logo</title><g transform="translate(81.964 5.018) scale(.72542)"><path fill="#00ff74" d="M134.9 173.7c-24-31-39.2-70.4-46.2-91.9C141 39.6 212.1 0 290.5 0c35.8 0 70.2 8.2 101.9 21.1-35.9.7-100.9 10.4-156.2 65.2-81.8 81.2-37.1 139.7-36.4 140.6-.5-.1-30.3-8.6-64.9-53.2z" opacity=".3"/><path fill="#00ff74" d="M290 120.2c-.1 1.3-.2 2.6-.2 4 0 27.5 22.3 49.8 49.8 49.8 4.6 0 9.1-.6 13.4-1.8.8 4 1.2 8.2 1.2 12.4 0 35.5-28.8 64.3-64.4 64.3-35.5 0-64.3-28.8-64.3-64.3s28.8-64.3 64.3-64.3h.2z" opacity=".3"/><path fill="#00ff74" d="M393.3 189s40.2 46.4 13.8 143.7c-35.7 16.5-75.1 27.5-116.6 27.5C130.1 360.2 0 194.3 0 180.1c0-6.1 24.2-40.4 64.5-77.5 7.5 29.3 31.8 96.2 104.6 146.3 91.1 62.8 219.7 36.5 224.2-59.9z" opacity=".3"/><path fill="#00ff74" d="M581 180.1c0 10.5-55.1 83.6-137.7 133.4C463.5 107.2 300.7 77.7 300.7 77.7c58.9-31.8 132.6-24 160.6-19.4C533.8 107.1 581 170.4 581 180.1z" opacity=".3"/><linearGradient id="a" x1="289.269" x2="290.436" y1="126.49" y2="255.174" gradientUnits="userSpaceOnUse"><stop offset="0" stop-color="#4ee3fd"/><stop offset=".856" stop-color="#2cbee1"/></linearGradient><path fill="url(#a)" d="M354.1 184.5c0 35.5-28.8 64.3-64.4 64.3-35.5 0-64.3-28.8-64.3-64.3s28.8-64.3 64.3-64.3h.2c-.1 1.3-.2 2.6-.2 4 0 27.5 22.3 49.8 49.8 49.8 4.6 0 9.1-.6 13.4-1.8.8 4 1.2 8.1 1.2 12.3z"/><linearGradient id="b" x1="140.918" x2="279.522" y1="186.157" y2="-1.333" gradientUnits="userSpaceOnUse"><stop offset="0" stop-color="#0078d4"/><stop offset="1" stop-color="#338ee3"/></linearGradient><path fill="url(#b)" d="M236.2 86.3c-81.8 81.2-37.1 139.7-36.4 140.6-.5-.1-30.3-8.6-64.9-53.2-24-31-39.2-70.4-46.2-91.9C141 39.6 212.1 0 290.5 0c35.8 0 70.2 8.2 101.9 21.1-35.9.7-101 10.3-156.2 65.2z"/><linearGradient id="c" x1="77.613" x2="358.047" y1="86.785" y2="339.841" gradientUnits="userSpaceOnUse"><stop offset="0" stop-color="#4ee3fd"/><stop offset="1" stop-color="#32bedd"/></linearGradient><path fill="url(#c)" d="M407.1 332.7c-35.7 16.5-75.1 27.5-116.6 27.5C130.1 360.2 0 194.3 0 180.1c0-6.1 24.2-40.4 64.5-77.5 7.5 29.3 31.8 96.2 104.6 146.3 91.1 62.8 219.8 36.5 224.2-59.8 0-.1 40.3 46.3 13.8 143.6z"/><linearGradient id="d" x1="385.706" x2="533.72" y1="41.953" y2="280.01" gradientUnits="userSpaceOnUse"><stop offset="0" stop-color="#5ea0ef"/><stop offset="1" stop-color="#006ec2"/></linearGradient><path fill="url(#d)" d="M581 180.1c0 10.5-55.1 83.6-137.7 133.4C463.5 107.2 300.7 77.7 300.7 77.7c58.9-31.8 132.6-24 160.6-19.4C533.8 107.1 581 170.4 581 180.1z"/></g><path d="M220.99643 294.58508q0 2.32032-.82031 4.3125-.79688 1.96875-2.25 3.42188-1.80469 1.80469-4.26563 2.71875-2.46094.89062-6.21094.89062h-4.64062v13.00782h-4.64063v-34.89844h9.46875q3.14063 0 5.32032.53906 2.17968.51563 3.86718 1.64063 1.99219 1.33593 3.07032 3.32812 1.10156 1.99219 1.10156 5.03906zm-4.82813.11719q0-1.80469-.63281-3.14062-.63281-1.33594-1.92187-2.17969-1.125-.72656-2.57813-1.03125-1.42969-.32813-3.63281-.32813h-4.59375v13.94532h3.91406q2.8125 0 4.57031-.49219 1.75782-.51563 2.85938-1.61719 1.10156-1.125 1.54687-2.36719.46875-1.24218.46875-2.78906zm32.29688 24.23438h-4.40625v-2.90625q-2.22656 1.75781-4.26563 2.69531-2.03906.9375-4.5.9375-4.125 0-6.42187-2.50781-2.29688-2.53125-2.29688-7.40625v-16.99219h4.40625v14.90625q0 1.99219.1875 3.42187.1875 1.40625.79688 2.41407.63281 1.03125 1.64062 1.5 1.00782.46875 2.92969.46875 1.71094 0 3.72656-.89063 2.03907-.89062 3.79688-2.27344v-19.54687h4.40625zm25.00781-21.375h-.23437q-.98438-.23438-1.92188-.32813-.91406-.11719-2.17969-.11719-2.03906 0-3.9375.91407-1.89843.89062-3.65625 2.32031v18.58594h-4.40625v-26.17969h4.40625v3.86719q2.625-2.10938 4.61719-2.97657 2.01563-.89062 4.10156-.89062 1.14844 0 1.66407.0703.51562.0469 1.54687.21094zm26.78906-4.80469l-10.59375 26.17969h-4.42968l-10.52344-26.17969h4.78125l8.10937 20.83594 8.03907-20.83594zm10.5-4.38281h-4.96875v-4.57032h4.96875zm-.28125 30.5625h-4.40625v-26.17969h4.40625zm30.63282-12.63282h-19.28907q0 2.41407.72657 4.21875.72656 1.78125 1.99218 2.92969 1.21875 1.125 2.88282 1.6875 1.6875.5625 3.70312.5625 2.67188 0 5.36719-1.05469 2.71875-1.07812 3.86719-2.10937h.23437v4.80469q-2.22656.9375-4.54687 1.57031-2.32032.63281-4.875.63281-6.51563 0-10.17188-3.51562-3.65625-3.53907-3.65625-10.03125 0-6.42188 3.49219-10.19532 3.51562-3.77343 9.23437-3.77343 5.29688 0 8.15625 3.09375 2.88282 3.09375 2.88282 8.78906zm-4.28907-3.375q-.0234-3.46875-1.75781-5.36718-1.71094-1.89844-5.22656-1.89844-3.53906 0-5.64844 2.08594-2.08594 2.08593-2.36719 5.17968zm43.89844-10.17187l-6.82031 26.17969h-4.07813l-6.72656-20.17969-6.67969 20.17969h-4.05468l-6.89063-26.17969h4.59375l4.80469 20.27344 6.53906-20.27344h3.63281l6.70313 20.27344 4.54687-20.27344z"/></svg>