<svg xmlns="http://www.w3.org/2000/svg" role="img" viewBox="3.43 -0.13 10.70 13.39"><title>Azure API Management Service logo</title><defs><linearGradient id="a" x1="9" x2="9" y1="16.82" y2="1.18" gradientTransform="translate(3.397 -.547) scale(.60162)" gradientUnits="userSpaceOnUse"><stop offset="0" stop-color="#198ab3"/><stop offset=".09" stop-color="#1f9dc4"/><stop offset=".24" stop-color="#28b5d9"/><stop offset=".4" stop-color="#2dc6e9"/><stop offset=".57" stop-color="#31d1f2"/><stop offset=".78" stop-color="#32d4f5"/></linearGradient><linearGradient id="b" x1="8.36" x2="8.36" y1="11.35" y2="14.46" gradientTransform="translate(3.397 -.547) scale(.60162)" gradientUnits="userSpaceOnUse"><stop offset="0" stop-color="#c69aeb"/><stop offset="1" stop-color="#6f4bb2"/></linearGradient></defs><path fill="url(#a)" d="M 11.927869,2.9967531 A 2.9178783,2.9178783 0 0 0 8.949828,0.16310213 3.008122,3.008122 0 0 0 6.0921122,2.1424465 2.7734885,2.7734885 0 0 0 3.6976471,4.8678049 a 2.8095859,2.8095859 0 0 0 2.8817808,2.7073102 1.8048732,1.8048732 0 0 0 0.2526823,0 H 7.5540595 A 0.88438787,0.88438787 0 0 1 7.487881,7.2382053 v 0 A 0.90845281,0.90845281 0 0 1 7.6082057,6.7990193 H 6.7659315 6.5794279 A 2.0515392,2.0515392 0 0 1 4.4617101,4.8678049 2.0034093,2.0034093 0 0 1 6.212437,2.9004931 L 6.6696717,2.8282984 6.8200777,2.3891126 A 2.2440589,2.2440589 0 0 1 8.949828,0.92716513 2.1658479,2.1658479 0 0 1 11.163805,3.0027693 v 0.6617868 l 0.655771,0.090244 a 1.5582072,1.5582072 0 0 1 1.359672,1.4980444 1.5822721,1.5822721 0 0 1 -1.576256,1.5281259 h -0.09024 -0.04813 -0.601625 a 2.3583676,2.3583676 0 0 0 -2.3282852,-1.9131655 0.38503961,0.38503961 0 1 0 0,0.764063 1.5943046,1.5943046 0 0 1 0,3.1825934 0.38503961,0.38503961 0 1 0 0,0.7640626 2.3583676,2.3583676 0 0 0 2.3282852,-2.0094256 h 0.631707 a 0.38503961,0.38503961 0 0 0 0.120325,0 2.3523514,2.3523514 0 0 0 2.310237,-2.3162538 2.3222702,2.3222702 0 0 0 -1.997393,-2.2560914 z"/><rect width="1.877" height="1.877" x="7.488" y="6.282" fill="url(#b)" rx=".927"/><g text-anchor="middle"><path style="text-align:center" d="M8.7050466 13.595294H8.5676772L8.4726253 13.325112H8.0533555l-.095052.270182H7.8274446L8.1803083 12.625895H8.3521829zM8.4329119 13.214436L8.2629904 12.738525 8.0924179 13.214436zM9.4862947 12.918863q0 .06445-.022786.119792-.022135.05469-.0625.09505-.05013.05013-.1184893.07552-.068359.02474-.1725256.02474h-.128906v.361327H8.8521817v-.969399h.2630202q.087239 0 .1477861.01497.060547.01432.1074216.04557.055338.03711.085286.09245.030599.05534.030599.139973zm-.1341142.0033q0-.05013-.017578-.08724-.017578-.03711-.053385-.06055-.03125-.02018-.071614-.02864-.039713-.0091-.1009112-.0091H8.9810876v.387369h.1087237q.078125 0 .1269528-.01367.048828-.01432.079427-.04492.030599-.03125.042969-.06575.013021-.0345.013021-.07747zM9.9980122 13.595294H9.6152007v-.09896H9.7421535V12.724853H9.6152007v-.09896h.3828115v.09896H9.8710594v.771483h.1269528zM5.6152105 15.261957H5.4863046V14.426672L5.216774 14.99503H5.1399513L4.8723738 14.426672v.835285H4.7519314v-.969399h.1757808l.2584629.539712.2499994-.539712h.179036zM6.4309637 15.261957H6.3092192v-.07747q-.016276.01107-.044271.03125-.027344.01953-.053385.03125-.030599.01497-.070312.02474-.039714.01042-.093099.01042-.098307 0-.1666662-.0651-.068359-.0651-.068359-.166015 0-.08268.035156-.133464.035807-.05143.1015622-.08073.066406-.0293.1595048-.03971.093099-.01042.1998693-.01563v-.01888q0-.04167-.014974-.06901-.014323-.02734-.041667-.04297-.026042-.01497-.0625-.02018-.036458-.0052-.076172-.0052-.048177 0-.1074216.01302-.059245.01237-.1223955.03646h-.00651V14.55037q.035807-.0098.1035153-.02148.067708-.01172.1334632-.01172.076823 0 .1334632.01302.057292.01237.098958.04297.041016.02995.0625.07747.021484.04753.021484.117838zM6.3092192 15.082921v-.202474q-.055989.0033-.1321611.0098-.075521.0065-.1197914.01888-.052734.01497-.085286.04687-.032552.03125-.032552.08659 0 .0625.03776.0944.03776.03125.1152341.03125.064453 0 .1178382-.02474.053385-.02539.098958-.06055zM7.2747117 15.261957H7.1523162v-.414062q0-.05013-.00586-.09375-.00586-.04427-.021484-.06901-.016276-.02734-.046875-.04036-.030599-.01367-.079427-.01367-.05013 0-.1048174.02474-.054687.02474-.1048175.06315v.542968h-.122395v-.727212h.1223955v.08073q.057291-.04753.1184893-.07422.061198-.02669.1256507-.02669.1178383 0 .1796871.07096.061849.07096.061849.204427zM8.0754909 15.261957H7.9537464v-.07747q-.016276.01107-.044271.03125-.027344.01953-.053385.03125-.030599.01497-.070312.02474-.039713.01042-.093099.01042-.098307 0-.1666662-.0651-.068359-.0651-.068359-.166015 0-.08268.035156-.133464.035807-.05143.1015623-.08073.066406-.0293.1595048-.03971.093099-.01042.1998693-.01563v-.01888q0-.04167-.014974-.06901-.014323-.02734-.041667-.04297-.026042-.01497-.0625-.02018-.036458-.0052-.076172-.0052-.048177 0-.1074216.01302-.059245.01237-.1223955.03646h-.00651V14.55037q.035807-.0098.1035153-.02148.067708-.01172.1334632-.01172.076823 0 .1334632.01302.057292.01237.098958.04297.041016.02995.0625.07747.021484.04753.021484.117838zM7.9537464 15.082921v-.202474q-.055989.0033-.1321611.0098-.075521.0065-.1197914.01888-.052734.01497-.085286.04687-.032552.03125-.032552.08659 0 .0625.03776.0944.03776.03125.1152341.03125.064453 0 .1178382-.02474.053385-.02539.098958-.06055zM8.9010098 15.179274q0 .184896-.083984.271484-.083984.08659-.2584629.08659-.057943 0-.113281-.0085-.054687-.0078-.1080726-.02279v-.125h.00651q.029948.01172.095052.02865.065104.01758.130208.01758.0625 0 .1035154-.01497.041016-.01497.063802-.04167.022786-.02539.032552-.0612.00977-.03581.00977-.08008v-.06641q-.055338.04427-.1061195.06641-.05013.02148-.1282549.02148-.130208 0-.2070307-.09375-.076172-.0944-.076172-.265624 0-.09375.026042-.161458.026693-.06836.072265-.117838.042318-.04622.1028644-.07161.060547-.02604.1204424-.02604.063151 0 .1054685.01302.042969.01237.090495.03841l.00781-.03125H8.9010098zM8.7786142 15.062087v-.396483q-.048828-.02214-.091146-.03125-.041667-.0098-.083333-.0098-.1009112 0-.1588538.06771-.057943.06771-.057943.196615 0 .122395.042969.185546.042969.06315.1425778.06315.053385 0 .1067705-.02018.054036-.02083.098958-.05534zM9.750617 14.911046H9.2148111q0 .06706.020182.117187.020182.04948.055338.08138.033854.03125.080078.04687.046875.01563.1028644.01563.074219 0 .1490881-.0293.075521-.02995.1074216-.05859h.00651v.133463q-.061849.02604-.1263017.04362-.064453.01758-.1354164.01758-.1809891 0-.2825513-.09766-.1015623-.09831-.1015623-.278646 0-.178385.097005-.283202.097656-.104817.2565098-.104817.147135 0 .2265619.08594.080078.08594.080078.24414zm-.1191403-.09375q-.000651-.09635-.048828-.149088-.047526-.05273-.1451819-.05273-.098307 0-.1569007.05794-.057943.05794-.065755.14388zM10.997358 15.261957h-.122395v-.414062q0-.04687-.0046-.09049-.0039-.04362-.01758-.06966-.01497-.028-.04297-.04232-.02799-.01432-.08073-.01432-.05143 0-.102864.02604-.05143.02539-.102865.0651.002.01497.0033.03516.0013.01953.0013.03906v.465494h-.122396v-.414062q0-.04818-.0046-.09115-.0039-.04362-.01758-.06966-.01497-.02799-.04297-.04167-.02799-.01432-.08073-.01432-.05013 0-.100911.02474-.05013.02474-.10026.06315v.542968H9.9361632v-.727212h.1223958v.08073q.05729-.04753.113932-.07422.05729-.02669.121744-.02669.07422 0 .125651.03125.05208.03125.07747.08659.07422-.0625.135416-.08984.0612-.02799.130859-.02799.119791 0 .176432.07292.05729.07226.05729.202474zM11.841758 14.911046h-.535806q0 .06706.02018.117187.02018.04948.05534.08138.03385.03125.08008.04687.04687.01563.102865.01563.07422 0 .149088-.0293.07552-.02995.107421-.05859h.0065v.133463q-.06185.02604-.126302.04362-.06445.01758-.135416.01758-.180989 0-.282552-.09766-.101562-.09831-.101562-.278646 0-.178385.097-.283202.09766-.104817.25651-.104817.147135 0 .226562.08594.08008.08594.08008.24414zm-.119141-.09375q-.000651-.09635-.04883-.149088-.04752-.05273-.145181-.05273-.09831 0-.156901.05794-.05794.05794-.06576.14388zM12.635375 15.261957H12.51298v-.414062q0-.05013-.0059-.09375-.0059-.04427-.02148-.06901-.01628-.02734-.04687-.04036-.0306-.01367-.07943-.01367-.05013 0-.104817.02474-.05469.02474-.104818.06315v.542968H12.02727v-.727212h.122395v.08073q.05729-.04753.11849-.07422.0612-.02669.12565-.02669.117839 0 .179688.07096.06185.07096.06185.204427zM13.248655 15.255446q-.0345.0091-.07552.01497-.04036.0059-.07227.0059-.111328 0-.16927-.0599-.05794-.0599-.05794-.192057v-.386718h-.08268v-.102864h.08268v-.208984h.122396v.208984h.252603v.102864h-.252603v.33138q0 .05729.0026.08984.0026.0319.01823.0599.01432.02604.03906.03841.02539.01172.07682.01172.02995 0 .0625-.0085.03255-.0091.04687-.01497h.0065z" transform="translate(-.148 -2.52)"/></g></svg>