<svg xmlns="http://www.w3.org/2000/svg" role="img" viewBox="1.52 0.52 15.28 15.28"><title>Azure Data Share logo</title><defs><linearGradient id="a" x1=".5" x2="11.43" y1="9.99" y2="9.99" gradientUnits="userSpaceOnUse"><stop offset="0" stop-color="#005ba1"/><stop offset=".07" stop-color="#0060a9"/><stop offset=".36" stop-color="#0071c8"/><stop offset=".52" stop-color="#0078d4"/><stop offset=".64" stop-color="#0074cd"/><stop offset=".82" stop-color="#006abb"/><stop offset="1" stop-color="#005ba1"/></linearGradient></defs><g><path fill="#949494" d="M13.06 8.97L11.17 8.97 11.17 9.77 13.08 9.77 15.27 14.27 16 13.91 13.78 9.35 16 4.79 15.27 4.43z" transform="translate(1.729 -.607) scale(.80318)"/><path fill="#fff" d="m 15.63,6.14 a 1.45,1.45 0 0 1 -0.81,-0.24 1.47,1.47 0 0 1 -0.68,-1 1.53,1.53 0 0 1 1.49,-1.87 1.51,1.51 0 0 1 0.82,0.24 1.54,1.54 0 0 1 0.67,1 1.53,1.53 0 0 1 -1.49,1.86 z" transform="translate(1.729 -.607) scale(.80318)"/><path fill="#32bedd" d="m 15.63,3.42 a 1.2,1.2 0 0 1 0.64,0.19 1.17,1.17 0 0 1 0.52,0.74 1.19,1.19 0 0 1 -0.15,0.9 1.21,1.21 0 0 1 -1,0.55 A 1.18,1.18 0 0 1 15,5.62 1.2,1.2 0 0 1 14.47,4.87 1.2,1.2 0 0 1 15.63,3.42 m 0,-0.68 a 1.87,1.87 0 1 0 1,0.29 1.85,1.85 0 0 0 -1,-0.29 z" transform="translate(1.729 -.607) scale(.80318)"/><path fill="#fff" d="m 15.63,15.62 a 1.45,1.45 0 0 1 -0.81,-0.24 1.51,1.51 0 0 1 -0.48,-2.1 1.52,1.52 0 0 1 2.11,-0.48 1.53,1.53 0 0 1 -0.82,2.82 z" transform="translate(1.729 -.607) scale(.80318)"/><path fill="#32bedd" d="m 15.63,12.9 a 1.2,1.2 0 0 1 0.64,0.19 1.17,1.17 0 0 1 0.52,0.74 1.19,1.19 0 0 1 -0.15,0.9 1.21,1.21 0 0 1 -1,0.55 A 1.18,1.18 0 0 1 15,15.1 1.2,1.2 0 0 1 14.47,14.35 1.2,1.2 0 0 1 15.63,12.9 m 0,-0.68 a 1.87,1.87 0 1 0 1,0.29 1.85,1.85 0 0 0 -1,-0.29 z" transform="translate(1.729 -.607) scale(.80318)"/><g><path fill="url(#a)" d="M 6,5.72 C 3,5.72 0.5,4.83 0.5,3.74 v 10.52 c 0,1.09 2.41,2 5.39,2 H 6 c 3,0 5.47,-0.88 5.47,-2 V 3.74 C 11.43,4.83 9,5.72 6,5.72 Z" transform="translate(1.729 -.607) scale(.80318)"/><path fill="#e8e8e8" d="m 11.43,3.74 c 0,1.09 -2.45,2 -5.47,2 C 2.94,5.74 0.5,4.83 0.5,3.74 0.5,2.65 3,1.76 6,1.76 c 3,0 5.47,0.88 5.47,2" transform="translate(1.729 -.607) scale(.80318)"/><path fill="#50e6ff" d="M 10.15,3.58 C 10.15,4.27 8.28,4.83 5.96,4.83 3.64,4.83 1.77,4.27 1.77,3.58 1.77,2.89 3.65,2.32 6,2.32 c 2.35,0 4.19,0.56 4.19,1.26" transform="translate(1.729 -.607) scale(.80318)"/><path fill="#198ab3" d="M 6,3.87 A 10.12,10.12 0 0 0 2.69,4.34 9.67,9.67 0 0 0 6,4.83 9.78,9.78 0 0 0 9.32,4.34 10.14,10.14 0 0 0 6,3.87 Z" transform="translate(1.729 -.607) scale(.80318)"/></g></g><g><path d="M3.4866752 14.51255q0 .264324-.1158856.479168-.1145835.214844-.3059899.333333-.1328127.08203-.2968754.11849Q2.6051636 15.48 2.3382362 15.48H1.8486523v-1.938805h.4843756q.2838545 0 .4505214.04167.167969.04036.2838545.111979.1979169.123698.3085942.329428.1106772.205729.1106772.488281zm-.2695316-.0039q0-.227865-.079427-.384115-.079427-.15625-.2369795-.246094-.1145834-.0651-.2434899-.08984-.1289064-.02604-.3085941-.02604H2.1064651v1.496096h.2421878q.1861982 0 .3242192-.02734.1393231-.02734.2552086-.101562.1445315-.09245.2161461-.24349.072917-.151042.072917-.377605zM5.0140209 15.48H4.770531v-.154949q-.032552.02214-.088542.0625-.054688.03906-.106771.0625-.061198.02995-.1406251.04948-.079427.02083-.1861982.02083-.1966148 0-.3333338-.130208-.1367189-.130209-.1367189-.332032 0-.165365.070313-.266927.071615-.102865.2031253-.161459.1328126-.05859.3190108-.07943.1861982-.02083.3997401-.03125V14.4813q0-.08333-.029948-.138021-.028646-.05469-.083333-.08594-.052083-.02995-.1250002-.04036-.072917-.01042-.1523439-.01042-.096354 0-.214844.02604-.1184898.02474-.244792.07292h-.013021v-.248698q.071615-.01953.2070316-.04297.1354168-.02344.2669274-.02344.153646 0 .2669274.02604.1145835.02474.1979169.08594.082031.0599.1250002.154948.042969.09505.042969.235677zM4.770531 15.121926v-.404948q-.1119793.0065-.2643233.01953-.1510418.01302-.2395836.03776-.1054689.02995-.1705731.09375-.065104.0625-.065104.173177 0 .125.075521.188802.075521.0625.2304691.0625.1289064 0 .2356774-.04948.1067709-.05078.1979169-.121094zM6.2405851 15.466979q-.069011.01823-.1510419.02995-.080729.01172-.1445314.01172-.2226566 0-.3385421-.119791Q5.4905841 15.269062 5.4905841 15.004739V14.2313H5.3252193v-.205729h.1653648v-.41797h.244792v.41797h.505209V14.2313h-.505209v.662761q0 .114584.00521.179688.00521.0638.036458.119792.028646.05208.078125.07682.050781.02344.153646.02344.059896 0 .1250002-.01693.065104-.01823.09375-.02995h.013021zM7.6663677 15.48H7.4228778v-.154949q-.032552.02214-.088542.0625-.054688.03906-.106771.0625-.061198.02995-.1406252.04948-.079427.02083-.1861981.02083-.1966149 0-.3333338-.130208-.1367189-.130209-.1367189-.332032 0-.165365.070313-.266927.071615-.102865.2031252-.161459.1328127-.05859.3190108-.07943.1861982-.02083.3997401-.03125V14.4813q0-.08333-.029948-.138021-.028646-.05469-.083334-.08594-.052083-.02995-.1250001-.04036-.072917-.01042-.152344-.01042-.096354 0-.214844.02604-.1184897.02474-.244792.07292h-.013021v-.248698q.071615-.01953.2070315-.04297.1354168-.02344.2669274-.02344.1536461 0 .2669275.02604.1145834.02474.1979169.08594.082031.0599.1250001.154948.042969.09505.042969.235677zM7.4228778 15.121926v-.404948q-.1119793.0065-.2643232.01953-.1510419.01302-.2395837.03776-.1054688.02995-.1705731.09375-.065104.0625-.065104.173177 0 .125.075521.188802.075521.0625.230469.0625.1289065 0 .2356774-.04948.106771-.05078.1979169-.121094zM10.503611 14.926613q0 .113282-.05338.223959-.05208.110677-.147136.1875-.104167.08333-.24349.130209-.138021.04687-.3333337.04687-.2096357 0-.3776047-.03906-.1666668-.03906-.3398441-.115885v-.322917h.018229q.1471357.122396.3398442.188802.1927086.06641.3619797.06641.2395836 0 .3723965-.08984.134115-.08984.134115-.239583 0-.128907-.0638-.190105-.0625-.0612-.1914061-.09505-.097656-.02604-.2122399-.04297-.1132814-.01693-.2408857-.04297-.2578128-.05469-.382813-.186199-.1236981-.132812-.1236981-.345052 0-.24349.2057295-.398438.2057294-.15625.522136-.15625.2044274 0 .3750003.03906.170573.03906.302084.09635v.304687h-.01823q-.110677-.09375-.291667-.154948-.179688-.0625-.3684903-.0625-.2070316 0-.3333338.08594-.1250002.08594-.1250002.221354 0 .121094.0625.190105.0625.06901.2200524.105469.083333.01823.2369795.04427.153646.02604.2604173.05339.216146.05729.325521.173177.109375.115886.109375.324219zM12.114291 15.48h-.244792v-.828127q0-.10026-.01172-.1875-.01172-.08854-.04297-.138021-.03255-.05469-.09375-.08073-.0612-.02734-.158854-.02734-.100261 0-.209636.04948-.109375.04948-.209636.126303V15.48h-.244792v-2.026045h.244792v.733074q.114584-.09505.23698-.148438.122396-.05339.251302-.05339.235677 0 .359375.141927.123699.141927.123699.408855zM13.715855 15.48h-.24349v-.154949q-.03255.02214-.08854.0625-.05469.03906-.106771.0625-.0612.02995-.140625.04948-.07943.02083-.186198.02083-.196615 0-.333334-.130208-.136719-.130209-.136719-.332032 0-.165365.07031-.266927.07161-.102865.203125-.161459.132813-.05859.319011-.07943.186198-.02083.39974-.03125V14.4813q0-.08333-.02995-.138021-.02865-.05469-.08333-.08594-.05208-.02995-.125001-.04036-.07292-.01042-.152344-.01042-.09635 0-.214844.02604-.118489.02474-.244792.07292h-.01302v-.248698q.07161-.01953.207031-.04297.135417-.02344.266928-.02344.153646 0 .266927.02604.114583.02474.197917.08594.08203.0599.125.154948.04297.09505.04297.235677zm-.24349-.358074v-.404948q-.111979.0065-.264323.01953-.151042.01302-.239584.03776-.105469.02995-.170573.09375-.0651.0625-.0651.173177 0 .125.07552.188802.07552.0625.230469.0625.128906 0 .235677-.04948.106771-.05078.197917-.121094zM15.094763 14.292498h-.01302q-.05469-.01302-.106771-.01823-.05078-.0065-.121094-.0065-.113281 0-.21875.05078-.105469.04948-.203126.128906V15.48h-.244792v-1.454429h.244792v.214844q.145834-.117188.256511-.165365.11198-.04948.227865-.04948.0638 0 .09245.0039.02865.0026.08594.01172zM16.542681 14.778176h-1.071616q0 .134114.04037.234375.04036.09896.110677.162761.06771.0625.160157.09375.09375.03125.205729.03125.148438 0 .298178-.05859.151041-.0599.214844-.117188h.01302v.266928q-.123699.05208-.252605.08724-.128906.03516-.270834.03516-.361979 0-.565105-.195313-.203125-.196615-.203125-.557292 0-.356772.194011-.566407.195313-.209636.513021-.209636.294272 0 .453126.171875.160156.171875.160156.488282zM16.3044 14.590675q-.0013-.192708-.09766-.298177-.09505-.105469-.290365-.105469-.196614 0-.313802.115886-.115886.115885-.131511.28776z"/></g></svg>