<svg xmlns="http://www.w3.org/2000/svg" role="img" viewBox="1.84 -0.16 13.95 18.14"><title>Azure Stream Analytics logo</title><defs><linearGradient id="a" x1="11.08" x2="11.08" y1="31.2" y2="15.71" gradientTransform="matrix(1 0 0 .99 0 -14.32)" gradientUnits="userSpaceOnUse"><stop offset="0" stop-color="#949494"/><stop offset=".33" stop-color="#9b9b9b"/><stop offset=".82" stop-color="#aeafb0"/><stop offset="1" stop-color="#b6b8b9"/></linearGradient></defs><g><path fill="url(#a)" d="M 18,9.69 V 7.9 L 17.9,7.81 16.06,7.19 15.59,6 16.5,4.12 16.6,3.91 16,3.3 15.3,2.61 15.06,2.73 13.26,3.64 12.05,3.3 11.27,1.3 H 9.48 L 9.39,1.39 8.77,3.22 7.51,3.69 5.43,2.69 4.15,3.94 4.27,4.18 5.23,6 A 6,6 0 0 1 8.43,5.14 6.26,6.26 0 0 1 12,6.28 3.32,3.32 0 0 1 12.36,6.54 v 0 a 3.25,3.25 0 0 1 0.93,1.35 v 0 A 3,3 0 0 1 13.5,9 a 3.23,3.23 0 0 1 -3.25,3.23 3.27,3.27 0 0 1 -1.87,-0.59 6.31,6.31 0 0 1 -4,1.75 l -0.19,0.39 1.28,1.29 0.26,-0.07 1.8,-1 1.24,0.51 0.79,2.16 h 1.8 L 11.43,16.42 12.07,14.51 13.29,14 15.4,15 16.67,13.74 16.55,13.5 15.62,11.71 16,10.46 Z" transform="translate(2.203 -.717) scale(.73702)"/><path fill="#50e6ff" d="m 4,10.65 v 0 A 3.6,3.6 0 0 1 1.44,9.6 0.46,0.46 0 1 1 2.09,9 2.65,2.65 0 0 0 4,9.73 v 0 A 2.62,2.62 0 0 0 5.88,9 3.55,3.55 0 0 1 8.43,8 3.64,3.64 0 0 1 11,9 0.46,0.46 0 1 1 10.35,9.65 2.69,2.69 0 0 0 8.46,8.87 v 0 A 2.61,2.61 0 0 0 6.58,9.65 3.61,3.61 0 0 1 4,10.65 Z" transform="translate(2.203 -.717) scale(.73702)"/><path fill="#50e6ff" d="m 4,8.82 v 0 A 1.79,1.79 0 0 1 2.74,8.3 0.46,0.46 0 0 1 3.39,7.65 0.84,0.84 0 0 0 4,7.9 v 0 a 1.08,1.08 0 0 0 0.6,-0.25 5.46,5.46 0 0 1 7.67,0 A 0.46,0.46 0 0 1 11.62,8.3 4.55,4.55 0 0 0 5.21,8.3 1.94,1.94 0 0 1 4,8.82 Z" transform="translate(2.203 -.717) scale(.73702)"/><path fill="#32bedd" d="m 4,12.48 a 5.41,5.41 0 0 1 -3.87,-1.59 0.47,0.47 0 0 1 0,-0.64 0.47,0.47 0 0 1 0.66,0 4.47,4.47 0 0 0 3.21,1.32 4.5,4.5 0 0 0 3.2,-1.33 1.94,1.94 0 0 1 1.21,-0.49 1.83,1.83 0 0 1 1.25,0.52 0.46,0.46 0 0 1 0,0.65 0.47,0.47 0 0 1 -0.66,0 0.83,0.83 0 0 0 -0.59,-0.25 v 0 A 1,1 0 0 0 7.81,10.93 5.41,5.41 0 0 1 4,12.48 Z" transform="translate(2.203 -.717) scale(.73702)"/></g><g text-anchor="middle"><path style="text-align:center" d="M5.2161404 13.232496q0 .113281-.053385.223958-.052083.110678-.1471356.187501-.1041668.08333-.2434899.130208-.138021.04687-.3333337.04687-.2096357 0-.3776047-.03906-.1666669-.03906-.3398442-.115886v-.322917h.018229q.1471356.122396.3398442.188802.1927086.06641.3619796.06641.2395837 0 .3723964-.08984.1341147-.08984.1341147-.239584 0-.128906-.063802-.190104-.0625-.0612-.1914064-.09505-.097656-.02604-.2122399-.04297-.1132814-.01693-.2408857-.04297-.2578129-.05469-.382813-.186198-.1236981-.132813-.1236981-.345053 0-.24349.2057294-.398438.2057295-.15625.5221361-.15625.2044274 0 .3750005.03906.1705731.03906.3020837.09635v.304688h-.018229q-.1106772-.09375-.291667-.154948-.1796877-.0625-.3684901-.0625-.2070315 0-.3333337.08594-.1250002.08594-.1250002.221355 0 .121094.0625.190104.0625.06901.2200524.105469.083333.01823.2369794.04427.1536461.02604.260417.05339.2161461.05729.3255213.173178.1093751.115885.1093751.324219zM6.3658815 13.772861q-.069011.01823-.1510419.02995-.080729.01172-.1445314.01172-.2226565 0-.3385421-.119792Q5.6158805 13.574944 5.6158805 13.310621V12.537182H5.4505157v-.205729h.1653648v-.417969h.244792v.417969h.505209v.205729h-.505209v.662762q0 .114583.00521.179687.00521.0638.036458.119792.028646.05208.078125.07682.050781.02344.1536461.02344.059896 0 .1250001-.01693.065104-.01823.09375-.02995h.013021zM7.569008 12.59838h-.013021q-.054687-.01302-.1067709-.01823-.050781-.0065-.1210939-.0065-.1132814 0-.2187503.05078-.1054689.04948-.2031253.128907v1.032553h-.244792v-1.454429h.244792v.214844q.1458336-.117188.2565108-.165365.1119793-.04948.2278649-.04948.063802 0 .092448.0039.028646.0026.085938.01172zM9.0169266 13.084058H7.9453107q0 .134115.040365.234375.040365.09896.1106773.162761.067708.0625.1601564.09375.09375.03125.2057294.03125.1484377 0 .2981775-.05859.1510419-.05989.214844-.117187h.013021v.266927q-.1236981.05208-.2526045.08724-.1289064.03516-.2708337.03516-.3619796 0-.5651049-.195313-.2031252-.196614-.2031252-.557292 0-.356771.1940106-.566407.1953128-.209636.5130215-.209636.2942712 0 .4531256.171876.1601564.171875.1601564.488282zm-.2382815-.1875q-.0013-.192709-.097656-.298178-.095052-.105468-.2903649-.105468-.1966149 0-.3138025.115885-.1158856.115886-.1315106.287761zM10.51823 13.785882h-.24349v-.154948q-.03255.02214-.08854.0625-.05469.03906-.106771.0625-.0612.02995-.1406255.04948-.079427.02083-.1861981.02083-.1966148 0-.3333338-.130209-.1367189-.130208-.1367189-.332032 0-.165364.070313-.266927.071615-.102865.2031253-.161459.1328126-.05859.3190108-.07943.1861986-.02083.3997396-.03125v-.03776q0-.08333-.02995-.138021-.02865-.05469-.08333-.08594-.05208-.02995-.125-.04036-.072917-.01042-.152344-.01042-.096354 0-.2148441.02604-.1184897.02474-.2447919.07292h-.013021v-.248698q.071615-.01953.2070315-.04297.1354169-.02344.2669275-.02344.1536459 0 .2669269.02604.114584.02474.197917.08594.08203.0599.125001.154948.04297.09505.04297.235678zM10.27474 13.427809V13.02286q-.111979.0065-.264323.01953-.1510416.01302-.2395834.03776-.1054689.02995-.1705732.09375-.065104.0625-.065104.173177 0 .125001.075521.188803.075521.0625.2304691.0625.1289064 0 .2356778-.04948.106771-.05078.197916-.121094zM13.111984 13.785882h-.244792v-.828126q0-.09375-.0091-.18099-.0078-.08724-.03516-.139323-.02995-.05599-.08594-.08464-.05599-.02864-.161458-.02864-.102865 0-.20573.05208-.102865.05078-.205729.130209.0039.02995.0065.07031.0026.03906.0026.07813v.930991h-.244792v-.828126q0-.09635-.0091-.182292-.0078-.08724-.03516-.139323-.02995-.05599-.08594-.08333-.05599-.02864-.161459-.02864-.10026 0-.201823.04948-.10026.04948-.200521.126302v1.085939h-.244792v-1.454429h.244792v.161459q.114583-.09505.227865-.148438.114583-.05339.24349-.05339.148437 0 .251302.0625.104167.0625.154948.173178.148438-.125.270834-.179688.122396-.05599.261719-.05599.239584 0 .352865.145834.114584.144531.114584.404948zM4.2421808 17.11922H3.9674409L3.7773365 16.578854H2.9387938L2.7486893 17.11922h-.261719l.70573-1.938805H3.5364508zM3.6979093 16.3575L3.3580651 15.405676 3.0169189 16.3575zM5.7330682 17.11922h-.244792v-.828126q0-.100261-.011719-.187501-.011719-.08854-.042969-.138021-.032552-.05469-.09375-.08073-.061198-.02734-.1588544-.02734-.1002605 0-.2096356.04948-.1093752.04948-.2096357.126303v1.085939h-.244792v-1.454429h.244792v.161458q.1145834-.09505.2369794-.148437.122396-.05339.2513024-.05339.2356774 0 .3593755.141927.1236981.141928.1236981.408855zM7.3346328 17.11922H7.0911429v-.154949q-.032552.02214-.088542.0625-.054688.03906-.106771.0625-.061198.02995-.1406252.04948-.079427.02083-.1861981.02083-.1966149 0-.3333338-.130208-.1367189-.130209-.1367189-.332032 0-.165365.070313-.266927.071615-.102865.2031252-.161459.1328127-.05859.3190108-.07943.1861982-.02083.3997401-.03125v-.03776q0-.08333-.029948-.138021-.028646-.05469-.083333-.08594-.052083-.02995-.1250001-.04036-.072917-.01042-.152344-.01042-.096354 0-.214844.02604-.1184897.02474-.244792.07292h-.013021v-.248698q.071615-.01953.2070315-.04297.1354168-.02344.2669274-.02344.1536461 0 .2669274.02604.1145835.02474.197917.08594.082031.0599.1250001.154948.042969.09505.042969.235677zM7.0911429 16.761146v-.404948q-.1119793.0065-.2643232.01953-.1510419.01302-.2395837.03776-.1054688.02995-.1705731.09375-.065104.0625-.065104.173177 0 .125.075521.188802.075521.0625.230469.0625.1289064 0 .2356774-.04948.106771-.05078.1979169-.121094zM8.0533836 17.11922h-.244792v-2.026045h.244792zM9.7955735 15.664791L8.9466141 17.655679H8.684895L8.9557287 17.048907 8.3763009 15.664791h.2656253l.4466152 1.078126.4505214-1.078126zM10.871096 17.106199q-.06901.01823-.151042.02995-.08073.01172-.144532.01172-.222656 0-.338542-.119791-.115885-.119792-.115885-.384115V15.87052H9.9557299v-.205729h.1653651v-.41797h.244792v.41797h.505209v.205729h-.505209v.662761q0 .114584.0052.179688.0052.0638.03646.119792.02865.05208.07813.07682.05078.02344.153646.02344.0599 0 .125001-.01693.0651-.01823.09375-.02995h.01302zM11.42969 15.421301h-.276042v-.253907h.276042zm-.01563 1.697919h-.244792v-1.454429h.244792zM12.973963 17.028074q-.122396.05859-.233073.09115-.109375.03255-.233073.03255-.157553 0-.289063-.04557-.131511-.04687-.225261-.140625-.09505-.09375-.147135-.23698-.05208-.143229-.05208-.334636 0-.356771.195313-.559896.196615-.203126.51823-.203126.125 0 .244792.03516.121094.03516.221354.08594v.272136h-.01302q-.111979-.08724-.231771-.134115-.11849-.04687-.231771-.04687-.208334 0-.329427.140625-.119792.139324-.119792.410157 0 .263021.117187.404949.11849.140625.332032.140625.07422 0 .151042-.01953.07682-.01953.138021-.05078.05339-.02734.10026-.05729.04688-.03125.07422-.05339h.01302zM14.326829 16.699948q0 .199219-.165365.326824-.164063.127604-.449219.127604-.161459 0-.296876-.03776-.134114-.03906-.22526-.08463v-.27474h.01302q.115885.08724.257812.139323.141928.05078.272136.05078.161459 0 .252605-.05208.09115-.05208.09115-.164063 0-.08594-.04948-.130208-.04948-.04427-.190104-.07552-.05208-.01172-.136719-.02734-.08333-.01563-.152344-.03385-.191406-.05078-.272136-.148438-.07943-.09896-.07943-.242188 0-.08984.03646-.169271.03776-.07943.113281-.141927.07292-.0612.184896-.09635.113281-.03646.252605-.03646.130208 0 .263021.03255.134114.03125.222656.07682v.26172h-.01302q-.09375-.06901-.227865-.115886-.134114-.04818-.263021-.04818-.134114 0-.226562.05208-.09245.05078-.09245.152344 0 .08984.05599.135417.05469.04557.177084.07422.06771.01563.151042.03125.08463.01563.140625.02865.170573.03906.263021.134115.09245.09635.09245.255208z"/></g></svg>