<svg xmlns="http://www.w3.org/2000/svg" role="img" viewBox="2.70 -0.17 12.60 18.79"><title>Azure Data Explorer logo</title><defs><linearGradient id="a" x1="1.3" x2="17.5" y1="8.6" y2="8.6" gradientUnits="userSpaceOnUse"><stop offset=".1" stop-color="#54aef0"/><stop offset="1" stop-color="#1988d9"/></linearGradient><linearGradient id="b" x1=".5" x2="8.11" y1="13.7" y2="13.7" gradientTransform="rotate(45 4.304 13.703)" gradientUnits="userSpaceOnUse"><stop offset="0" stop-color="#b3b2b3"/><stop offset="1" stop-color="#979797"/></linearGradient><linearGradient id="c" x1=".5" x2="5.72" y1="10.08" y2="10.08" gradientTransform="rotate(45 3.115 10.08)" gradientUnits="userSpaceOnUse"><stop offset="0" stop-color="#b3b2b3"/><stop offset="1" stop-color="#979797"/></linearGradient><linearGradient id="d" x1="5.28" x2="10.49" y1="14.89" y2="14.89" gradientTransform="rotate(45 7.88 14.894)" gradientUnits="userSpaceOnUse"><stop offset="0" stop-color="#b3b2b3"/><stop offset="1" stop-color="#979797"/></linearGradient></defs><g transform="translate(2.779 -.144) scale(.69407)"><path fill="url(#a)" d="M1.47 1.47l15.06 15.06a.57.57 0 0 0 1-.4V1.07a.57.57 0 0 0-.6-.57H1.87a.57.57 0 0 0-.4.97z"/><path fill="#50e6ff" d="M5.53 5.53l6.94 6.94 5-5v-6.4a.57.57 0 0 0-.54-.57h-6.37z"/><rect width="9.37" height="1.7" x="-.38" y="12.85" fill="url(#b)" rx=".27" transform="rotate(-45 4.307 13.706)"/><rect width="5.99" height="1.7" x=".12" y="9.23" fill="url(#c)" rx=".27" transform="rotate(-45 3.107 10.083)"/><rect width="5.99" height="1.7" x="4.89" y="14.04" fill="url(#d)" rx=".27" transform="rotate(-45 7.877 14.887)"/><rect width="1.7" height="1.7" x="9.19" y="4.75" fill="#fff" rx=".38" transform="rotate(-45 10.04 5.601)"/><rect width="1.7" height="1.7" x="11.59" y="2.35" fill="#fff" rx=".38" transform="rotate(-45 12.435 3.2)"/><rect width="1.7" height="1.7" x="11.59" y="7.15" fill="#fff" rx=".38" transform="rotate(-45 12.442 7.996)"/><path fill="#fff" d="M13.91 5.33l.66-.66a.38.38 0 0 1 .54 0l.66.66a.38.38 0 0 1 0 .54l-.66.66a.38.38 0 0 1-.54 0l-.66-.66a.38.38 0 0 1 0-.54"/></g><path style="text-align:center" d="M7.13012 13.47526q0 .26432-.11589.47916-.11458.21485-.30599.33334-.1328.08203-.29687.11849-.16276.03646-.42969.03646H5.4921v-1.9388h.48437q.28386 0 .45052.04166.16797.04036.28386.11198.19792.1237.3086.32943.11067.20573.11067.48828zm-.26953-.0039q0-.22787-.07943-.38412-.07943-.15625-.23698-.2461-.11458-.0651-.24349-.08983-.1289-.02604-.3086-.02604h-.24218v1.4961h.24219q.1862 0 .32422-.02735.13932-.02734.2552-.10156.14454-.09245.21615-.24349.07292-.15104.07292-.3776zm1.79688.97134h-.2435v-.15494q-.03255.02214-.08854.0625-.05468.03906-.10677.0625-.0612.02995-.14062.04948-.07943.02083-.1862.02083-.19662 0-.33333-.13021-.13672-.1302-.13672-.33203 0-.16537.07031-.26693.07161-.10286.20313-.16146.1328-.05859.319-.07943.1862-.02083.39975-.03125V13.444q0-.08333-.02995-.13802-.02865-.05469-.08333-.08594-.05209-.02995-.125-.04036-.07292-.01042-.15235-.01042-.09635 0-.21484.02604-.1185.02474-.2448.07292H7.5507v-.2487q.07162-.01953.20704-.04297.13541-.02344.26692-.02344.15365 0 .26693.02604.11458.02474.19792.08594.08203.0599.125.15495.04297.09505.04297.23568zm-.2435-.35807v-.40495q-.11197.0065-.26432.01953-.15104.01302-.23958.03776-.10547.02995-.17057.09375-.0651.0625-.0651.17318 0 .125.07551.1888.07552.0625.23047.0625.1289 0 .23568-.04948.10677-.05078.19792-.12109zm1.47006.34505q-.06901.01823-.15104.02995-.08073.01172-.14453.01172-.22266 0-.33855-.11979-.11588-.1198-.11588-.38412v-.77343h-.16537v-.20573h.16537v-.41797h.2448v.41797h.5052v.20573h-.5052v.66276q0 .11458.0052.17969.00521.0638.03646.11979.02864.05208.07812.07682.05078.02344.15365.02344.0599 0 .125-.01693.0651-.01823.09375-.02995h.01302zm1.42578.01303h-.24349v-.15495q-.03255.02214-.08854.0625-.05469.03906-.10677.0625-.0612.02995-.14062.04948-.07943.02083-.1862.02083-.19662 0-.33333-.13021-.13672-.13021-.13672-.33203 0-.16537.0703-.26693.07162-.10286.20313-.16146.13281-.05859.31901-.07943.1862-.02083.39974-.03125V13.444q0-.08333-.02995-.13802-.02865-.05469-.08333-.08594-.05208-.02995-.125-.04036-.07292-.01042-.15234-.01042-.09635 0-.21485.02604-.11849.02474-.24479.07292h-.01302v-.2487q.07161-.01953.20704-.04297.13541-.02344.26692-.02344.15365 0 .26693.02604.11458.02474.19792.08594.08203.0599.125.15495.04297.09505.04297.23568zm-.24349-.35808v-.40495q-.11198.0065-.26432.01953-.15104.01302-.23958.03776-.10547.02995-.17058.09375-.0651.0625-.0651.17318 0 .125.07552.1888.07552.0625.23047.0625.1289 0 .23568-.04948.10677-.05078.19792-.12109zm-6.24415 3.69141H3.54483v-1.9388h1.27734v.22917H3.80264v.53125h1.01953v.22916H3.80264v.72006h1.01953zm1.64844 0h-.30859l-.41276-.5586-.41537.5586h-.28515l.5677-.72526-.5625-.72917h.3086l.41016.54948.41146-.54948h.28645l-.57161.71615zm1.59896-.74479q0 .17708-.05078.32422-.05078.14583-.14323.2474-.08593.09635-.20312.14973-.11589.05208-.2461.05208-.11328 0-.20572-.02474-.09115-.02474-.1862-.07682v.60938h-.2448v-1.99089h.2448v.15235q.09765-.08203.21875-.13672.1224-.056.26041-.056.26303 0 .40886.19923.14713.19791.14713.55078zm-.2526.0065q0-.26302-.08984-.39323-.08985-.1302-.27605-.1302-.10547 0-.21224.04556-.10677.04557-.20442.1198v.82421q.10416.04687.17838.0638.07552.01693.17058.01693.20442 0 .319-.13802.11459-.13802.11459-.40885zm.88151.7383h-.2448V15.75h.2448zm1.72396-.72657q0 .35547-.18229.5612-.1823.20573-.48828.20573-.3086 0-.49089-.20573-.18099-.20573-.18099-.5612 0-.35547.181-.5612.18228-.20703.49088-.20703.30599 0 .48828.20703.1823.20573.1823.5612zm-.2526 0q0-.28255-.11068-.41927-.11068-.13802-.3073-.13802-.19921 0-.30989.13802-.10937.13672-.10937.41927 0 .27344.11067.41537.11068.14062.3086.14062.19531 0 .30599-.13932.11198-.14063.11198-.41667zm1.53906-.46094h-.01302q-.05469-.01302-.10677-.01823-.05078-.0065-.1211-.0065-.11327 0-.21874.05078-.10547.04948-.20313.1289v1.03256h-.24479v-1.45443h.2448v.21485q.14582-.1172.2565-.16537.11198-.04948.22787-.04948.0638 0 .09245.0039.02865.0026.08594.01172zm1.44792.48568H12.0852q0 .13411.04037.23437.04036.09896.11068.16277.06771.0625.16016.09375.09375.03125.20573.03125.14844 0 .29817-.0586.15105-.0599.21485-.11718h.01302v.26693q-.1237.05208-.2526.08724-.12891.03516-.27084.03516-.36198 0-.5651-.19532-.20313-.19661-.20313-.55729 0-.35677.19401-.5664.19531-.20964.51302-.20964.29427 0 .45313.17187.16015.17188.16015.48828zm-.23828-.1875q-.0013-.19271-.09766-.29818-.09505-.10547-.29037-.10547-.19661 0-.3138.11589-.11588.11588-.1315.28776zm1.51693-.29818h-.01302q-.0547-.01302-.10677-.01823-.05078-.0065-.1211-.0065-.11328 0-.21875.05078-.10547.04948-.20312.1289v1.03256h-.2448v-1.45443h.2448v.21485q.14583-.1172.2565-.16537.11199-.04948.22787-.04948.0638 0 .09245.0039.02865.0026.08594.01172z" text-anchor="middle"/></svg>