<svg xmlns="http://www.w3.org/2000/svg" role="img" viewBox="2.12 -0.13 13.25 16.32"><title>Azure IoT Hub logo</title><defs><linearGradient id="a" x1="9.13" x2="8.85" y1="18.81" y2="-8.1" gradientTransform="translate(2.135 -.165) scale(.73793)" gradientUnits="userSpaceOnUse"><stop offset="0" stop-color="#198ab3"/><stop offset="0" stop-color="#198ab3"/><stop offset=".09" stop-color="#22a5cb"/><stop offset=".19" stop-color="#29bade"/><stop offset=".29" stop-color="#2ec9eb"/><stop offset=".42" stop-color="#31d1f3"/><stop offset=".62" stop-color="#32d4f5"/></linearGradient></defs><circle cx="10.547" cy="6.063" r="1.454" fill="#fff"/><circle cx="12.982" cy="10.387" r="1.144" fill="#fff"/><circle cx="8.459" cy="9.605" r=".981" fill="#fff"/><circle cx="7.751" cy="2.13" r="1.218" fill="#fff"/><circle cx="4.489" cy="6.616" r=".981" fill="#fff"/><path fill="#949494" d="M9.92016 5.76796l-5.46068.45013.05165.63462 5.40903-.45013L8.127 9.3838l.53869.3247 1.84483-3.0698 2.19165 3.82986.54607-.30993-2.45731-4.30213-.24352.1402.19924-.14758-2.782-3.9553-.50916.36896z"/><path d="M15.07091.74265a.53869.53869 0 0 0-.53869-.53869H11.7281a.26565.26565 0 0 0-.26565.26566V1.5101a.26565.26565 0 0 0 .26565.26566h1.73414v1.69723a.28041.28041 0 0 0 .27303.27304h1.0331a.28041.28041 0 0 0 .27304-.27304V.74265zM5.82465 11.17698H4.061V9.47975a.28041.28041 0 0 0-.27304-.27304h-1.0331a.28041.28041 0 0 0-.27303.27304v2.73034a.53869.53869 0 0 0 .53869.5313h2.80413a.26565.26565 0 0 0 .26565-.26565v-1.0331a.26565.26565 0 0 0-.26565-.26566z" fill="#949494"/><path fill="url(#a)" d="M10.54732 4.62372a1.47586 1.47586 0 1 1-1.47585 1.43896 1.47586 1.47586 0 0 1 1.47585-1.43896zm-3.98481-2.4942A1.22496 1.22496 0 1 0 7.75795.91194a1.21758 1.21758 0 0 0-1.19544 1.21758zM3.50749 6.60875a.98144.98144 0 1 0 .98144-.98145.98144.98144 0 0 0-.98144.98145zm3.97005 2.9886a.98882.98882 0 1 0 .98882-.98144.98144.98144 0 0 0-.98882.98145zm4.36854.7896a1.14379 1.14379 0 1 0 1.14379-1.13642 1.12903 1.12903 0 0 0-1.1438 1.13641z"/><path d="M4.66861 15.8682H3.8842v-.20277h.26013V14.0846H3.8842v-.20278h.78441v.20278h-.26014v1.58083h.26014zm1.69956-.74439q0 .3642-.18676.57497-.18677.21078-.50026.21078-.31617 0-.50294-.21078-.18543-.21078-.18543-.57497t.18543-.57497q.18677-.21211.50294-.21211.3135 0 .50026.21211.18676.21078.18676.57497zm-.2588 0q0-.28948-.1134-.42956-.11338-.1414-.31482-.1414-.20411 0-.3175.1414-.11207.14008-.11207.42956 0 .28015.1134.42556.1134.14408.31617.14408.2001 0 .3135-.14275.11472-.14407.11472-.42689zm2.08377-1.0072h-.7097v1.7516h-.26415v-1.7516h-.7097v-.23479h1.68355zm2.74678 1.7516h-.26414v-.97252H9.6846v.97252h-.26414v-1.98639h.26414v.77908h.9912v-.77908h.26413zm1.74893 0h-.2508v-.16542q-.12674.10005-.2428.15341-.11606.05336-.25613.05336-.2348 0-.36553-.14274-.13073-.14408-.13073-.42156v-.96718h.2508v.84845q0 .1134.01067.19477.01068.08004.04536.1374.03602.0587.09338.08538.05737.02668.16676.02668.09738 0 .21211-.0507.11606-.05069.21612-.1294v-1.11258h.2508zm1.80495-.7564q0 .18676-.05336.33617-.05202.14942-.1414.2508-.09472.1054-.20811.15875-.1134.05203-.24947.05203-.12673 0-.22145-.03069-.09472-.02935-.18676-.08004l-.01602.06937h-.23479v-2.07576h.2508v.74172q.10539-.08672.22412-.1414.11873-.05604.2668-.05604.26415 0 .41623.20277.15341.20278.15341.5723zm-.2588.00666q0-.26681-.08805-.40422-.08805-.13874-.28415-.13874-.1094 0-.22145.04802-.11206.04669-.20811.1214v.85378q.10672.04802.18276.0667.07738.01868.17476.01868.20811 0 .3255-.13607.11874-.13741.11874-.42956z"/></svg>