<svg xmlns="http://www.w3.org/2000/svg" role="img" viewBox="2.51 -0.67 12.54 18.79"><title>Azure Synapse Analytics logo</title><defs><linearGradient id="a" x1="9" x2="9" y1="5.38" gradientTransform="translate(3.033 -.263) scale(.65323)" gradientUnits="userSpaceOnUse"><stop offset=".199" stop-color="#005ba1"/><stop offset="1" stop-color="#0078d4"/></linearGradient><linearGradient id="b" x1="9" x2="9" y1="12.713" y2="5.287" gradientTransform="translate(3.033 -.263) scale(.65323)" gradientUnits="userSpaceOnUse"><stop offset="0" stop-color="#198ab3"/><stop offset=".172" stop-color="#32bedd"/><stop offset=".5" stop-color="#50e6ff"/><stop offset=".5" stop-color="#4fe4fd"/><stop offset=".5" stop-color="#4bddf8"/><stop offset=".5" stop-color="#44d2ee"/><stop offset=".5" stop-color="#3ac1e0"/><stop offset=".5" stop-color="#2dabce"/><stop offset=".5" stop-color="#1d90b8"/><stop offset=".5" stop-color="#198ab3"/><stop offset=".662" stop-color="#32bedd"/><stop offset=".975" stop-color="#50e6ff"/></linearGradient></defs><path fill="#0078d4" d="M8.91219-.26344l-5.12784 2.933V8.529l5.12784 2.96565 5.12783-2.933V2.68263zm4.18065 8.21107L8.9122 10.36458 4.73153 7.9731V3.25093L8.9122.83399l4.18065 2.42347z"/><path fill="url(#a)" d="M8.91219-.26344l-5.12784 2.933.94718.58137L8.9122.83399l4.18065 2.41694.94718-.58137z"/><path fill="#50e6ff" d="M11.35526 6.57912a.47686.47686 0 0 0-.211-.18682 3.81158 3.81158 0 0 0-2.92515-2.1857l4.23096-2.44503-.98376-.56439-4.8182 2.78536a.48992.48992 0 0 0 .2456.91452.4468.4468 0 0 0 .0588-.01502l.08165.34164a2.82129 2.82129 0 0 1 3.15966 1.46192L5.39325 9.45985l.97984.5657 4.80319-2.77687a.4762.4762 0 0 0 .15808-.15416l.04899-.01176c-.0046-.01894-.01176-.03593-.01633-.05487a.48012.48012 0 0 0-.01176-.44877z"/><path fill="url(#b)" d="M10.93131 5.6241a1.20847 1.20847 0 1 0 1.20847 1.20847 1.20847 1.20847 0 0 0-1.20847-1.20847zM6.89306 3.17711a1.20847 1.20847 0 1 0 1.20847 1.20847 1.20847 1.20847 0 0 0-1.20847-1.20847z"/><path d="M4.72238 13.30984q0 .11328-.05339.22396-.05208.11067-.14713.1875-.10417.08333-.2435.1302-.13801.04687-.33333.04687-.20963 0-.3776-.03906-.16667-.03906-.33985-.11588v-.32292h.01823q.14714.1224.33985.1888.1927.06641.36198.06641.23958 0 .3724-.08984.1341-.08984.1341-.23958 0-.1289-.0638-.1901-.0625-.0612-.1914-.09505-.09766-.02605-.21224-.04298-.11328-.01693-.24088-.04297-.25782-.05469-.38282-.1862-.1237-.13281-.1237-.34505 0-.24349.20573-.39844.20573-.15625.52214-.15625.20443 0 .375.03906t.30208.09635v.30469h-.01823q-.11067-.09375-.29166-.15495-.17969-.0625-.3685-.0625-.20702 0-.33333.08594-.125.08594-.125.22136 0 .1211.0625.1901.0625.06901.22006.10547.08333.01823.23698.04427.15364.02604.26041.05339.21615.05729.32552.17318.10938.11588.10938.32422zm1.61328-.90105l-.84896 1.9909h-.26172l.27084-.60678-.57943-1.38412H5.182l.44662 1.07813.45052-1.07813zm1.53646 1.45443h-.24479v-.82812q0-.10026-.01172-.1875-.01172-.08854-.04297-.13802-.03255-.0547-.09375-.08073-.0612-.02734-.15885-.02734-.10026 0-.20964.04948-.10937.04948-.20963.1263v1.08594h-.2448V12.4088h.2448v.16146q.11458-.09505.23698-.14844.1224-.0534.2513-.0534.23568 0 .35937.14194.1237.14192.1237.40885zm1.60157 0h-.2435v-.15495q-.03254.02213-.08853.0625-.0547.03906-.10678.0625-.0612.02995-.14062.04948-.07943.02084-.1862.02084-.19661 0-.33333-.13021t-.13672-.33203q0-.16537.07031-.26693.07162-.10287.20313-.16146.1328-.0586.319-.07943t.39975-.03125v-.03776q0-.08333-.02995-.13802-.02865-.0547-.08334-.08594-.05208-.02995-.125-.04036-.07291-.01042-.15234-.01042-.09635 0-.21484.02604-.1185.02474-.2448.07292h-.01302v-.2487q.07162-.01953.20703-.04297.13542-.02344.26693-.02344.15365 0 .26693.02604.11458.02474.19792.08594.08203.0599.125.15495.04297.09505.04297.23568zm-.2435-.35807v-.40495q-.11197.0065-.26432.01953-.15104.01302-.23958.03776-.10547.02995-.17057.09375-.0651.0625-.0651.17318 0 .125.07551.1888.07553.0625.23047.0625.1289 0 .23568-.04948.10677-.05078.19792-.1211zm1.9948-.38672q0 .17708-.05078.32422-.05078.14583-.14323.2474-.08594.09635-.20312.14974-.11589.05208-.2461.05208-.11328 0-.20573-.02474-.09115-.02474-.1862-.07682v.60937h-.24479V12.4088h.2448v.15235q.09765-.08203.21874-.13672.1224-.056.26042-.056.26302 0 .40886.19923.14713.19791.14713.55078zm-.2526.0065q0-.26302-.08984-.39323-.08984-.1302-.27605-.1302-.10546 0-.21224.04556-.10677.04557-.20442.1198v.82421q.10416.04687.17838.0638.07552.01693.17058.01693.20442 0 .319-.13802.1146-.13802.1146-.40885zm1.67318.31902q0 .19922-.16537.32683-.16406.1276-.44922.1276-.16146 0-.29687-.03776-.13412-.03906-.22526-.08464v-.27474h.01302q.11588.08724.2578.13932.14194.05078.27214.05078.16146 0 .2526-.05208.09116-.05208.09116-.16406 0-.08594-.04948-.1302-.04948-.04428-.1901-.07553-.05208-.01172-.13672-.02734-.08333-.01563-.15235-.03386-.1914-.05078-.27213-.14844-.07943-.09896-.07943-.24218 0-.08984.03646-.16927.03776-.07943.11328-.14193.07292-.0612.1849-.09636.11328-.03646.2526-.03646.1302 0 .26302.03255.13411.03125.22266.07682v.26172h-.01302q-.09375-.06901-.22787-.11589-.13411-.04818-.26302-.04818-.13411 0-.22656.05208-.09245.05078-.09245.15235 0 .08984.05599.13541.05469.04557.17708.07422.06771.01563.15104.03125.08464.01563.14063.02865.17057.03906.26302.13412.09245.09635.09245.2552zm1.5677-.28255h-1.0716q0 .13411.04035.23437.04037.09896.11068.16276.0677.0625.16015.09375.09375.03125.20573.03125.14844 0 .29818-.05859.15104-.0599.21485-.11718h.01302v.26692q-.1237.05208-.2526.08724-.12892.03516-.27084.03516-.36198 0-.5651-.1953-.20313-.19662-.20313-.5573 0-.35677.194-.5664.19532-.20964.51303-.20964.29427 0 .45312.17187.16016.17188.16016.48828zm-.23827-.1875q-.0013-.19271-.09766-.29818-.09505-.10547-.29037-.10547-.19662 0-.3138.11589-.11589.11588-.13151.28776z"/><path d="M4.62264 17.2243H4.3479l-.1901-.54036h-.83855l-.1901.54036h-.26172l.70573-1.9388h.34375zm-.54427-.76172l-.33984-.95182-.34115.95182zm2.03516.76172h-.2448v-.82812q0-.10026-.01171-.1875-.01172-.08854-.04297-.13802-.03255-.0547-.09375-.08073-.0612-.02734-.15886-.02734-.10026 0-.20963.04948-.10938.04948-.20964.1263v1.08594h-.24479v-1.45443h.2448v.16146q.11458-.09505.23697-.14844.1224-.05338.2513-.05338.23568 0 .35938.14193.1237.14192.1237.40885zm1.60156 0H7.4716v-.15494q-.03255.02214-.08854.0625-.05469.03906-.10677.0625-.0612.02995-.14062.04948-.07943.02083-.1862.02083-.19662 0-.33334-.13021-.13672-.13021-.13672-.33203 0-.16537.07032-.26693.07161-.10287.20312-.16146.13282-.05859.31901-.07943.1862-.02083.39974-.03125v-.03776q0-.08333-.02994-.13802-.02865-.0547-.08334-.08594-.05208-.02995-.125-.04036-.07291-.01042-.15234-.01042-.09636 0-.21485.02604-.11849.02474-.24479.07292h-.01302v-.2487q.07162-.01953.20703-.04297.13542-.02344.26693-.02344.15365 0 .26693.02604.11458.02474.19792.08594.08203.0599.125.15495.04296.09505.04296.23568zm-.24349-.35807v-.40495q-.11198.0065-.26432.01953-.15104.01302-.23958.03776-.10547.02995-.17058.09375-.0651.0625-.0651.17318 0 .125.07552.1888.07552.0625.23047.0625.1289 0 .23568-.04948.10677-.05078.19791-.1211zm.96224.35807h-.24479v-2.02604h.2448zm1.7422-1.45442l-.84897 1.99088h-.26171l.27083-.60677-.57943-1.38411h.26563L9.469 16.848l.45052-1.07812zm1.07552 1.4414q-.06901.01823-.15105.02995-.08073.01172-.14453.01172-.22265 0-.33854-.11979-.11589-.1198-.11589-.38411v-.77345h-.16536v-.20573h.16537v-.41796h.24479v.41796h.5052v.20573h-.5052v.66277q0 .11458.0052.17968.0052.0638.03646.1198.02865.05207.07813.07681.05078.02345.15364.02345.0599 0 .125-.01693.0651-.01823.09375-.02995h.01302zm.55859-1.6849h-.27604v-.2539h.27604zm-.01563 1.69792h-.2448v-1.45442h.2448zm1.5599-.09114q-.1224.05859-.23307.09115-.10937.03255-.23307.03255-.15755 0-.28907-.04557-.1315-.04687-.22526-.14063-.09505-.09375-.14713-.23698-.05208-.14323-.05208-.33463 0-.35677.19531-.5599.19661-.20312.51823-.20312.125 0 .2448.03516.12109.03516.22135.08594v.27213h-.01302q-.11198-.08724-.23177-.13411-.1185-.04687-.23177-.04687-.20834 0-.32943.14062-.1198.13933-.1198.41016 0 .26302.1172.40495.11848.14062.33203.14062.07422 0 .15104-.01953.07682-.01953.13802-.05078.05339-.02734.10026-.05729.04687-.03125.07422-.05338h.01302zm1.35287-.32813q0 .19922-.16537.32683-.16406.1276-.44921.1276-.16146 0-.29688-.03776-.13412-.03906-.22526-.08463v-.27474h.01302q.11589.08724.25781.13932.14193.05078.27214.05078.16146 0 .2526-.05208.09115-.05208.09115-.16406 0-.08594-.04948-.1302-.04948-.04428-.1901-.07553-.05208-.01172-.13672-.02734-.08333-.01563-.15234-.03385-.19141-.05078-.27214-.14844-.07943-.09896-.07943-.24218 0-.08984.03646-.16927.03776-.07943.11328-.14193.07292-.0612.1849-.09636.11328-.03646.2526-.03646.13021 0 .26302.03255.13412.03125.22266.07682v.26172h-.01302q-.09375-.06901-.22787-.11589-.13411-.04818-.26302-.04818-.13411 0-.22656.05208-.09245.05078-.09245.15235 0 .08984.05599.13541.05469.04557.17708.07422.06771.01563.15105.03125.08464.01563.14062.02865.17057.03906.26302.13412.09245.09635.09245.2552z"/></svg>