<svg xmlns="http://www.w3.org/2000/svg" role="img" viewBox="0.80 -0.64 16.34 16.84"><title>Azure Synapse Dedicated Pools logo</title><defs><linearGradient id="a" x1="9" x2="9" y1="5.38" gradientTransform="translate(3.033 -.263) scale(.65323)" gradientUnits="userSpaceOnUse"><stop offset=".199" stop-color="#005ba1"/><stop offset="1" stop-color="#0078d4"/></linearGradient><linearGradient id="b" x1="9" x2="9" y1="12.713" y2="5.287" gradientTransform="translate(3.033 -.263) scale(.65323)" gradientUnits="userSpaceOnUse"><stop offset="0" stop-color="#198ab3"/><stop offset=".172" stop-color="#32bedd"/><stop offset=".5" stop-color="#50e6ff"/><stop offset=".5" stop-color="#4fe4fd"/><stop offset=".5" stop-color="#4bddf8"/><stop offset=".5" stop-color="#44d2ee"/><stop offset=".5" stop-color="#3ac1e0"/><stop offset=".5" stop-color="#2dabce"/><stop offset=".5" stop-color="#1d90b8"/><stop offset=".5" stop-color="#198ab3"/><stop offset=".662" stop-color="#32bedd"/><stop offset=".975" stop-color="#50e6ff"/></linearGradient></defs><path fill="#0078d4" d="M8.91219-.26344l-5.12784 2.933V8.529l5.12784 2.96565 5.12783-2.933V2.68263zm4.18065 8.21107L8.9122 10.36458 4.73153 7.9731V3.25093L8.9122.83399l4.18065 2.42347z"/><path fill="url(#a)" d="M8.91219-.26344l-5.12784 2.933.94718.58137L8.9122.83399l4.18065 2.41694.94718-.58137z"/><path fill="#50e6ff" d="M11.35526 6.57912a.47686.47686 0 0 0-.211-.18682 3.81158 3.81158 0 0 0-2.92515-2.1857l4.23096-2.44503-.98376-.56439-4.8182 2.78536a.48992.48992 0 0 0 .2456.91452.4468.4468 0 0 0 .0588-.01502l.08165.34164a2.82129 2.82129 0 0 1 3.15966 1.46192L5.39325 9.45985l.97984.5657 4.80319-2.77687a.4762.4762 0 0 0 .15808-.15416l.04899-.01176c-.0046-.01894-.01176-.03593-.01633-.05487a.48012.48012 0 0 0-.01176-.44877z"/><path fill="url(#b)" d="M10.93131 5.6241a1.20847 1.20847 0 1 0 1.20847 1.20847 1.20847 1.20847 0 0 0-1.20847-1.20847zM6.89306 3.17711a1.20847 1.20847 0 1 0 1.20847 1.20847 1.20847 1.20847 0 0 0-1.20847-1.20847z"/><path d="M6.35099 12.90288q0 .07366-.03471.14562-.03387.07196-.09567.12191-.06773.05419-.15832.08467-.08974.03047-.21674.03047-.1363 0-.24552-.0254-.10837-.0254-.22097-.07535v-.20996h.01185q.09567.07958.22097.12276.1253.04318.23537.04318.15578 0 .24213-.05841.0872-.05842.0872-.15578 0-.08382-.04148-.12361-.04064-.0398-.12446-.0618-.0635-.01693-.138-.02794-.07365-.01101-.15662-.02794-.16763-.03556-.24891-.12107-.08043-.08636-.08043-.22436 0-.15832.13377-.25906.13376-.1016.3395-.1016.13292 0 .24382.0254.11091.0254.19642.06264v.19812h-.01185q-.07196-.06096-.18965-.10075-.11683-.04064-.2396-.04064-.1346 0-.21673.05588-.08127.05588-.08127.14393 0 .07873.04063.1236.04064.04487.14308.06858.05419.01185.15409.02878.0999.01694.16933.03472.14054.03725.21165.1126.07112.07535.07112.21081zm1.04897-.58587l-.552 1.2945H6.6778l.1761-.39453-.37675-.89997h.17271l.2904.70101.29293-.701zm.99902.94569h-.15916v-.53846q0-.06519-.00762-.12191-.00762-.05757-.02794-.08975-.02117-.03556-.06096-.05249-.03979-.01777-.10329-.01777-.06519 0-.1363.03217-.07112.03217-.13631.08212v.70609h-.15917V12.317h.15917v.10499q.0745-.0618.15409-.09652.07958-.03471.1634-.03471.15324 0 .23367.09228.08042.09228.08042.26584zm1.04136 0h-.15832v-.10075q-.02117.0144-.05757.04064-.03556.0254-.06943.04063-.03979.01948-.09143.03218-.05165.01354-.12107.01354-.12784 0-.21674-.08466-.0889-.08467-.0889-.2159 0-.10751.04573-.17355.04656-.06689.13207-.10498.08636-.0381.20742-.05165.12107-.01354.25992-.02032v-.02455q0-.05418-.01947-.08974-.01863-.03556-.05419-.05588-.03386-.01948-.08127-.02625-.04742-.00677-.09906-.00677-.06265 0-.1397.01693-.07704.01609-.15916.04741H8.7207v-.1617q.04657-.0127.13462-.02794.08805-.01524.17356-.01524.0999 0 .17356.01693.0745.01609.12868.05588.05334.03895.08128.10075.02794.0618.02794.15324zm-.15832-.23283v-.2633q-.07281.00423-.17187.0127-.0982.00847-.15578.02455-.06857.01948-.1109.06096-.04234.04064-.04234.1126 0 .08128.0491.12276.04911.04064.14986.04064.08382 0 .15324-.03217.06942-.03302.12869-.07874zm1.29703-.25145q0 .11515-.03301.21082-.03302.09482-.09313.16086-.05588.06264-.13208.09736-.07535.03386-.16001.03386-.07366 0-.13377-.01609-.05926-.01608-.12107-.04995v.39623h-.15916V12.317h.15916v.09906q.0635-.05334.14224-.0889.07958-.0364.16932-.0364.17102 0 .26584.12953.09567.12869.09567.35812zm-.16424.00423q0-.17102-.05842-.25568-.05841-.08466-.17948-.08466-.06858 0-.138.02963-.06943.02963-.13292.07789v.53591q.06773.03048.11598.04149.0491.011.11091.011.13292 0 .20743-.08974.0745-.08974.0745-.26584zm1.08792.20743q0 .12954-.10753.2125-.10667.08298-.29208.08298-.10499 0-.19303-.02456-.0872-.0254-.14647-.05503v-.17864h.00846q.07535.05673.16764.09059.09228.03302.17694.03302.10498 0 .16425-.03387.05926-.03386.05926-.10667 0-.05588-.03217-.08466-.03217-.02879-.1236-.0491-.03387-.00763-.0889-.01778-.05418-.01017-.09906-.02201-.12445-.03302-.17694-.09652-.05165-.06434-.05165-.15747 0-.05842.0237-.11006.02456-.05165.07366-.09229.04742-.03979.12023-.06264.07365-.02371.16424-.02371.08466 0 .17102.02116.0872.02032.14477.04995v.17018h-.00846q-.06096-.04488-.14816-.07536-.0872-.03132-.17102-.03132-.0872 0-.14731.03386-.06012.03302-.06012.09906 0 .05841.0364.08805.03557.02963.11515.04825.04403.01017.09821.02032.05503.01017.09144.01863.1109.0254.17101.0872.06012.06265.06012.16594zm1.01934-.18372h-.69678q0 .0872.02625.1524.02624.06434.07196.10583.04403.04063.10414.06095.06096.02032.13377.02032.09651 0 .19387-.0381.09821-.03894.1397-.07619h.00846v.17356q-.08043.03386-.16424.05672-.08382.02286-.1761.02286-.23536 0-.36744-.127-.13207-.12783-.13207-.36235 0-.23197.12615-.36828.12699-.1363.33357-.1363.19134 0 .29462.11175.10414.11175.10414.31748zm-.15494-.12191q-.00084-.1253-.0635-.19388-.0618-.06858-.1888-.06858-.12784 0-.20403.07535-.07535.07535-.08551.1871z"/><path d="M2.14459 15.03743q0 .16183-.07095.29337-.07016.13154-.18735.20409-.08132.05021-.18176.07254-.09966.02232-.26308.02232H1.1417V14.4427h.29656q.17379 0 .27583.02551.10284.02471.1738.06856.12117.07574.18893.2017.06777.12596.06777.29895zm-.16503-.00245q0-.13952-.04862-.23518-.04864-.09561-.1451-.15062-.07015-.03986-.14908-.055-.07892-.01595-.18894-.01595h-.14828v.916h.14828q.114 0 .19851-.01674.0853-.01674.15625-.06218.0885-.0566.13234-.14908.04464-.09248.04464-.2312zm1.15357.16508h-.6561q0 .08211.0247.1435.02472.06058.06777.09965.04146.03826.09806.05739.0574.01914.12596.01914.09088 0 .18256-.03588.09248-.03667.13154-.07174h.00797v.16343q-.07574.03188-.15466.0534-.07892.02154-.16582.02154-.22162 0-.34599-.1196-.12436-.12037-.12436-.3412 0-.21843.11878-.34678.11958-.12836.3141-.12836.18017 0 .27743.10524.09806.10524.09806.29895zm-.14589-.1148q-.0008-.11798-.0598-.18256-.05819-.06457-.17777-.06457-.12038 0-.19213.07095-.07095.07095-.08052.17618zm1.09537.5445h-.14988v-.09328q-.06457.0558-.13473.0869-.07015.03108-.15226.03108-.15945 0-.25352-.12277-.09327-.12277-.09327-.3404 0-.11321.03189-.2017.03268-.0885.0877-.15067.0542-.0606.12595-.09248.07255-.03189.14988-.03189.07015 0 .12436.01515.05421.01435.114.04544v-.38585h.14988zm-.14988-.21924v-.51101q-.06058-.02711-.10842-.03747-.04783-.01041-.10443-.01041-.12596 0-.19612.08769-.07015.08769-.07015.24873 0 .15864.05421.24155.05421.08212.1738.08212.06377 0 .12914-.0279.06537-.02871.12197-.07336zm.60588-.82033h-.169v-.15546h.169zm-.00956 1.03956h-.14988v-.89048h.14988zm.95506-.0558q-.07494.03588-.1427.0558-.06697.01994-.1427.01994-.09647 0-.17699-.02791-.08051-.0287-.13791-.0861-.0582-.05739-.09009-.14509-.03189-.08769-.03189-.20488 0-.21844.11958-.3428.12038-.12437.3173-.12437.07653 0 .14987.02153.07414.02153.13553.05262v.16661h-.00797q-.06856-.0534-.1419-.08211-.07256-.0287-.14191-.0287-.12756 0-.2017.0861-.07334.0853-.07334.25111 0 .16104.07175.24794.07255.0861.20329.0861.04544 0 .09247-.012.04704-.012.0845-.0311.0327-.01674.0614-.03508.0287-.01914.04543-.03268h.00798zm.8841.0558h-.14907v-.09486q-.01993.01356-.05421.03827-.03349.02391-.06538.03826-.03746.01833-.0861.0303-.04862.01276-.114.01276-.12037 0-.20408-.07972-.0837-.07972-.0837-.20329 0-.10124.04304-.16343.04385-.06297.12437-.09885.08131-.03588.19531-.04863.114-.01276.24475-.01914v-.02312q0-.05102-.01834-.0845-.01754-.03348-.05102-.05262-.03189-.01833-.07653-.0247-.04465-.00638-.09328-.00638-.059 0-.13154.01595-.07254.01514-.14987.04464h-.00797v-.15226q.04384-.012.12675-.0263.08291-.01436.16343-.01436.09407 0 .16343.01594.07015.01515.12117.05262.05023.03668.07654.09487.0263.0582.0263.1443zm-.14907-.21923v-.24793q-.06856.00404-.16184.012-.09247.00796-.14668.02312-.06458.01833-.10444.0574-.03986.03826-.03986.10602 0 .07653.04624.1156.04624.03826.1411.03826.07893 0 .1443-.0303.06537-.03108.12118-.07414zm.90005.21126q-.04225.01115-.09248.01833-.04943.00723-.08849.00723-.13632 0-.20727-.07335-.07096-.07335-.07096-.23518v-.47358h-.10124v-.12596h.10124v-.2559h.14988v.2559h.30932v.12596h-.30932v.40578q0 .07015.00318.11.00319.03907.02233.07336.01753.03188.04783.04703.03109.01435.09407.01435.03667 0 .07653-.0104.03986-.01115.0574-.01834h.00797zm.92636-.42172h-.6561q0 .08211.0247.1435.02472.06058.06777.09965.04145.03826.09806.05739.0574.01914.12595.01914.09089 0 .18257-.03588.09247-.03667.13154-.07174H8.028v.16343q-.07574.03188-.15466.0534-.07893.02154-.16582.02154-.22163 0-.346-.1196-.12436-.12037-.12436-.3412 0-.21843.11879-.34678.11958-.12836.3141-.12836.18017 0 .27743.10524.09806.10524.09806.29895zm-.1459-.1148q-.00079-.11798-.05978-.18256-.0582-.06457-.17778-.06457-.12038 0-.19213.07095-.07095.07095-.08052.17618zm1.09538.5445h-.14988v-.09328q-.06457.0558-.13473.0869-.07015.03108-.15227.03108-.15944 0-.2535-.12277-.09328-.12277-.09328-.3404 0-.11321.03189-.2017.03268-.0885.08769-.15067.0542-.0606.12596-.09248.07254-.03189.14987-.03189.07016 0 .12437.01515.05421.01435.114.04544v-.38585h.14988zm-.14988-.21924v-.51101q-.06059-.02711-.10842-.03747-.04783-.01041-.10443-.01041-.12596 0-.19612.08769-.07015.08769-.07015.24873 0 .15864.0542.24155.05422.08212.1738.08212.06378 0 .12915-.0279.06537-.02871.12197-.07336zm1.89338-.11958q0 .06936-.03268.13712-.0319.06776-.0901.1148-.06377.05102-.14907.07971-.0845.0287-.20409.0287-.12835 0-.23119-.0239-.10204-.02392-.20807-.07096v-.1977h.01115q.09009.07494.20808.11559.11798.04065.22162.04065.14669 0 .228-.055.08212-.055.08212-.14669 0-.07892-.03906-.11639-.03827-.03747-.11719-.0582-.0598-.01594-.12994-.02632-.06936-.0104-.14749-.0263-.15785-.03348-.23438-.114-.07573-.08132-.07573-.21126 0-.14908.12596-.24395.12596-.09566.31968-.09566.12516 0 .2296.02392.10443.02391.18495.059v.18654h-.01114q-.06777-.0574-.17858-.09486-.11001-.03827-.22561-.03827-.12676 0-.20409.05262-.07653.05262-.07653.13552 0 .07415.03827.1164.03826.04224.13473.06456.05102.01115.14509.02711.09407.01595.15944.03269.13234.03508.1993.10603.06697.07095.06697.1985zm1.3122.6298q-.04782.012-.09486.01674-.04623.00563-.09486.00563-.13871 0-.22322-.07653-.0837-.07574-.09088-.21764-.01914.00318-.03747.00404-.01754.00159-.03428.00159-.12516 0-.228-.04145-.10204-.04145-.1738-.12038-.07174-.07892-.1108-.19372-.03827-.1148-.03827-.26229 0-.14509.03827-.25989.03827-.1156.1116-.1977.07016-.07813.1738-.1196.10443-.04145.2272-.04145.12755 0 .2288.04225.10204.04145.173.11878.07254.07972.1108.19532.03906.1156.03906.26228 0 .21764-.08929.36672-.0885.14908-.23836.20887.00318.09088.04305.1411.03986.05023.1451.05023.03268 0 .07732-.0104.04544-.00956.06457-.01754h.02153zm-.18813-.88411q0-.2312-.10365-.35635-.10363-.12596-.283-.12596-.18097 0-.28461.12596-.10284.12516-.10284.35635 0 .23358.10524.35795.10523.12356.28221.12356.17698 0 .28142-.12356.10523-.12437.10523-.35795zm1.16552.59312h-.75097v-1.18704h.15784v1.04673h.59313zm1.50832-.8283q0 .07892-.0279.14669-.02711.06697-.07653.11639-.06139.06138-.1451.09247-.0837.0303-.21126.0303h-.15784v.44245h-.15785V14.4427h.32207q.10683 0 .18097.01834.07415.01753.13154.0558.06776.04544.10444.1132.03747.06777.03747.1714zm-.16422.00404q0-.06138-.02153-.10682-.02153-.04545-.06536-.07415-.03827-.02471-.0877-.03508-.04862-.01114-.12356-.01114h-.15626v.47434h.13313q.09567 0 .15546-.01674.0598-.01754.09726-.05501.03747-.03827.05262-.08051.01594-.04225.01594-.09487zm1.07942.37942q0 .21764-.11161.3436-.11162.12596-.29896.12596-.18894 0-.30054-.12596-.11082-.12596-.11082-.3436 0-.21764.11082-.3436.1116-.12676.30054-.12676.18735 0 .29896.12676.11161.12596.11161.3436zm-.15466 0q0-.173-.06776-.2567-.06777-.0845-.18814-.0845-.12198 0-.18974.0845-.06697.0837-.06697.2567 0 .16741.06777.25431.06776.0861.18894.0861.11958 0 .18734-.0853.06856-.0861.06856-.25511zm1.1456 0q0 .21764-.11162.3436-.1116.12596-.29895.12596-.18894 0-.30055-.12596-.11082-.12596-.11082-.3436 0-.21764.11082-.3436.11161-.12676.30055-.12676.18734 0 .29895.12676.11162.12596.11162.3436zm-.15466 0q0-.173-.06777-.2567-.06776-.0845-.18814-.0845-.12197 0-.18974.0845-.06696.0837-.06696.2567 0 .16741.06776.25431.06777.0861.18894.0861.11959 0 .18734-.0853.06857-.0861.06857-.25511zm.53811.44484h-.14987V14.3893h.14987z"/></svg>