<svg xmlns="http://www.w3.org/2000/svg" role="img" viewBox="1.25 -0.13 15.63 16.32"><title>Azure Cosmos DB logo</title><defs><radialGradient id="a" cx="-105.006" cy="-10.409" r="5.954" gradientTransform="matrix(1.036 0 0 1.027 117.739 19.644)" gradientUnits="userSpaceOnUse"><stop offset=".183" stop-color="#5ea0ef"/><stop offset="1" stop-color="#0078d4"/></radialGradient><clipPath id="b"><path fill="none" d="M14.969 7.53a6.137 6.137 0 1 1-7.395-4.543 6.137 6.137 0 0 1 7.395 4.543z"/></clipPath></defs><path fill="#50e6ff" d="M4.20333 3.66382a.12818.12818 0 0 1-.12891-.12891 1.4737 1.4737 0 0 0-1.4715-1.4715.12891.12891 0 0 1-.12891-.12818.12891.12891 0 0 1 .1289-.12891A1.4737 1.4737 0 0 0 4.07442.33409a.12818.12818 0 0 1 .12892-.12891.12818.12818 0 0 1 .12891.1289 1.4737 1.4737 0 0 0 1.4715 1.4715.12818.12818 0 0 1 .12891.12892.12818.12818 0 0 1-.12891.12891 1.47296 1.47296 0 0 0-1.4715 1.4715.12964.12964 0 0 1-.12891.12891zm9.27066 8.9286a.10328.10328 0 0 1-.10328-.10327 1.17852 1.17852 0 0 0-1.17705-1.17705.10328.10328 0 0 1-.10327-.10255.10328.10328 0 0 1 .10327-.10327 1.17778 1.17778 0 0 0 1.17705-1.17706.10328.10328 0 0 1 .10328-.10327.10328.10328 0 0 1 .10328.10327 1.17778 1.17778 0 0 0 1.17705 1.17706.10328.10328 0 1 1 0 .20655 1.17852 1.17852 0 0 0-1.17705 1.17705.10328.10328 0 0 1-.10328.10254z"/><path fill="url(#a)" d="M14.969 7.53a6.137 6.137 0 1 1-7.395-4.543 6.137 6.137 0 0 1 7.395 4.543z" transform="translate(2.04 -.193) scale(.73245)"/><g fill="#f2f2f2" clip-path="url(#b)" transform="translate(2.04 -.193) scale(.73245)"><path d="M5.709 13.115a1.638 1.638 0 1 0 .005-3.275 1.307 1.307 0 0 0 .007-.14A1.651 1.651 0 0 0 4.06 8.064H2.832a6.251 6.251 0 0 0 1.595 5.051zm9.336-5.3c0-.015 0-.03-.007-.044a5.978 5.978 0 0 0-1.406-2.88 1.825 1.825 0 0 0-.289-.09 1.806 1.806 0 0 0-2.3 1.663 2 2 0 0 0-.2-.013 1.737 1.737 0 0 0-.581 3.374 1.451 1.451 0 0 0 .541.1h2.03a13.453 13.453 0 0 0 2.212-2.11z"/></g><path fill="#50e6ff" d="M14.63127 2.61348c-.46072-.76688-1.53816-1.06572-3.04335-.84159a10.69821 10.69821 0 0 0-1.52497.33107 4.72872 4.72872 0 0 1 1.1192.5618c.17651-.03883.35377-.08497.5237-.1106a5.48607 5.48607 0 0 1 .8079-.0652 1.6026 1.6026 0 0 1 1.43487.53103c.28053.4673.04395 1.26641-.64895 2.19736a12.24882 12.24882 0 0 1-3.47842 2.96717 12.27445 12.27445 0 0 1-4.26581 1.65681c-1.14556.1714-1.96444 0-2.24497-.46584-.28053-.46584-.04395-1.26714.64895-2.1937.0857-.115.10694-.1714.20436-.28712a4.5793 4.5793 0 0 1 .01904-1.1939 8.4613 8.4613 0 0 0-.85697 1.00493c-.9075 1.21367-1.15361 2.30503-.69363 3.0719a2.31821 2.31821 0 0 0 2.12411.91484 6.17751 6.17751 0 0 0 .9163-.07325 13.07795 13.07795 0 0 0 4.55513-1.75789 13.04353 13.04353 0 0 0 3.70694-3.17298c.91044-1.2166 1.15655-2.30723.69657-3.07484z"/><g><path d="M3.19781 15.7629q-.07161.03125-.1302.0586-.0573.02733-.15105.05728-.07942.02474-.17317.04167-.09245.01823-.20443.01823-.21094 0-.38412-.05859-.17187-.0599-.29947-.1862-.125-.1237-.19532-.3138-.07031-.1914-.07031-.444 0-.2396.0677-.4284.06772-.1888.19532-.319.1237-.1263.29818-.19271.17578-.06641.38932-.06641.15625 0 .3112.03776.15625.03776.34635.1328v.306h-.01953q-.16015-.13411-.3177-.19531-.15756-.0612-.33725-.0612-.14713 0-.26562.04818-.11719.04687-.20964.14713-.08984.09766-.14062.2474-.04948.14844-.04948.34375 0 .20443.05469.35156.05599.14714.14323.23959.09114.09635.21224.14323.1224.04557.2578.04557.1862 0 .34897-.0638.16276-.0638.30469-.19141h.01823zm1.58464-.58593q0 .35546-.18229.5612-.1823.20572-.48828.20572-.3086 0-.49089-.20573-.18099-.20573-.18099-.5612 0-.35546.181-.5612.18228-.20702.49088-.20702.30599 0 .48828.20703.1823.20573.1823.5612zm-.2526 0q0-.28256-.11068-.41928-.11068-.13802-.3073-.13802-.19921 0-.30989.13802-.10937.13672-.10937.41928 0 .27343.11067.41536.11068.14063.3086.14063.19531 0 .30599-.13933.11198-.14062.11198-.41666zm1.67057.30729q0 .19922-.16536.32682-.16406.1276-.44922.1276-.16146 0-.29688-.03776-.13411-.03906-.22526-.08464v-.27473h.01302q.11589.08724.25782.13932.14192.05078.27213.05078.16146 0 .2526-.05208.09115-.05208.09115-.16406 0-.08594-.04948-.1302-.04948-.04428-.1901-.07553-.05208-.01172-.13672-.02734-.08333-.01563-.15234-.03385-.19141-.05078-.27214-.14844-.07943-.09896-.07943-.24218 0-.08984.03646-.16928.03776-.07943.11328-.14192.07292-.0612.1849-.09635.11328-.03646.2526-.03646.13021 0 .26302.03255.13412.03125.22266.07682v.26172h-.01302q-.09375-.06901-.22786-.11589-.13412-.04818-.26303-.04818-.13411 0-.22656.05208-.09245.05078-.09245.15235 0 .08984.056.13541.05468.04557.17708.07422.0677.01563.15104.03125.08463.01563.14062.02865.17058.03906.26303.13412.09244.09635.09244.2552zm2.47266.41927H8.4283v-.82813q0-.09375-.00911-.18099-.00781-.08724-.03516-.13932-.02994-.05599-.08593-.08463-.056-.02865-.16146-.02865-.10287 0-.20573.05208-.10287.05078-.20573.1302.0039.02996.0065.07032.0026.03906.0026.07813v.93099H7.4895v-.82813q0-.09635-.00911-.18229-.00781-.08724-.03516-.13932-.02995-.056-.08594-.08333-.05599-.02865-.16146-.02865-.10026 0-.20182.04948-.10026.04948-.20052.1263v1.08594h-.2448V14.4491h.2448v.16146q.11458-.09505.22786-.14844.11458-.05339.24349-.05339.14844 0 .2513.0625.10417.0625.15495.17318.14844-.125.27083-.17969.1224-.05599.26172-.05599.23959 0 .35287.14583.11458.14453.11458.40495zm1.71094-.72656q0 .35546-.18229.5612-.1823.20572-.48828.20572-.3086 0-.49089-.20573-.18099-.20573-.18099-.5612 0-.35546.181-.5612.18228-.20702.49088-.20702.30599 0 .48828.20703.1823.20573.1823.5612zm-.2526 0q0-.28256-.11068-.41928-.11068-.13802-.3073-.13802-.19921 0-.30989.13802-.10937.13672-.10937.41928 0 .27343.11067.41536.11068.14063.3086.14063.19531 0 .30599-.13933.11198-.14062.11198-.41666zm1.67057.30729q0 .19922-.16536.32682-.16406.1276-.44922.1276-.16146 0-.29688-.03776-.13411-.03906-.22526-.08464v-.27473h.01302q.11589.08724.25782.13932.14192.05078.27213.05078.16146 0 .2526-.05208.09116-.05208.09116-.16406 0-.08594-.04948-.1302-.04948-.04428-.19011-.07553-.05208-.01172-.13672-.02734-.08333-.01563-.15234-.03385-.1914-.05078-.27214-.14844-.07943-.09896-.07943-.24218 0-.08984.03646-.16928.03776-.07943.11328-.14192.07292-.0612.1849-.09635.11328-.03646.2526-.03646.13021 0 .26303.03255.13411.03125.22265.07682v.26172h-.01302q-.09375-.06901-.22786-.11589-.13412-.04818-.26302-.04818-.13412 0-.22657.05208-.09245.05078-.09245.15235 0 .08984.056.13541.05468.04557.17708.07422.0677.01563.15104.03125.08464.01563.14062.02865.17058.03906.26302.13412.09245.09635.09245.2552zm2.94532-.54818q0 .26432-.11589.47917-.11458.21484-.30599.33333-.13281.08203-.29687.1185-.16276.03645-.42969.03645h-.48958v-1.9388h.48437q.28386 0 .45052.04167.16797.04036.28386.11198.19791.1237.3086.32942.11067.20573.11067.48829zm-.26953-.0039q0-.22787-.07943-.38411-.07943-.15626-.23698-.2461-.11459-.0651-.2435-.08984-.1289-.02604-.30859-.02604h-.24218v1.4961h.24218q.1862 0 .32422-.02734.13933-.02734.25521-.10157.14453-.09245.21615-.24349.07292-.15104.07292-.3776zm2.14844.375q0 .14453-.0547.2552-.05468.11068-.14713.1823-.10937.08594-.24088.1224-.13021.03645-.33203.03645h-.6875v-1.9388h.57421q.21224 0 .31771.01563.10547.01563.20183.0651.10677.05599.15494.14453.04818.08724.04818.20963 0 .13803-.0703.23568-.07032.09635-.1875.15495v.01042q.1966.04036.30989.17318.11328.1315.11328.33333zm-.4336-.8737q0-.07031-.02344-.1185-.02344-.04818-.07552-.07813-.0612-.03516-.14844-.04297-.08724-.0091-.21614-.0091h-.3073v.5599h.33334q.1211 0 .1927-.01172.07162-.01302.13282-.05208.0612-.03906.08594-.10026.02604-.0625.02604-.14713zm.16537.88411q0-.11719-.03516-.1862-.03516-.069-.1276-.11718-.0625-.03255-.15235-.04167-.08854-.01042-.21615-.01042h-.40494v.72135h.34114q.16927 0 .27735-.01693.10807-.01823.17708-.06511.07292-.05078.10677-.11589.03385-.0651.03385-.16796z"/></g></svg>