<svg xmlns="http://www.w3.org/2000/svg" role="img" viewBox="1.45 -0.67 14.90 18.59"><title>Azure Synapse Workspace logo</title><defs><linearGradient id="a" x1="9" x2="9" y1="5.38" gradientTransform="translate(3.033 -.263) scale(.65323)" gradientUnits="userSpaceOnUse"><stop offset=".199" stop-color="#005ba1"/><stop offset="1" stop-color="#0078d4"/></linearGradient><linearGradient id="b" x1="9" x2="9" y1="12.713" y2="5.287" gradientTransform="translate(3.033 -.263) scale(.65323)" gradientUnits="userSpaceOnUse"><stop offset="0" stop-color="#198ab3"/><stop offset=".172" stop-color="#32bedd"/><stop offset=".5" stop-color="#50e6ff"/><stop offset=".5" stop-color="#4fe4fd"/><stop offset=".5" stop-color="#4bddf8"/><stop offset=".5" stop-color="#44d2ee"/><stop offset=".5" stop-color="#3ac1e0"/><stop offset=".5" stop-color="#2dabce"/><stop offset=".5" stop-color="#1d90b8"/><stop offset=".5" stop-color="#198ab3"/><stop offset=".662" stop-color="#32bedd"/><stop offset=".975" stop-color="#50e6ff"/></linearGradient></defs><path fill="#0078d4" d="M8.91219-.26344l-5.12784 2.933V8.529l5.12784 2.96565 5.12783-2.933V2.68263zm4.18065 8.21107L8.9122 10.36458 4.73153 7.9731V3.25093L8.9122.83399l4.18065 2.42347z"/><path fill="url(#a)" d="M8.91219-.26344l-5.12784 2.933.94718.58137L8.9122.83399l4.18065 2.41694.94718-.58137z"/><path fill="#50e6ff" d="M11.35526 6.57912a.47686.47686 0 0 0-.211-.18682 3.81158 3.81158 0 0 0-2.92515-2.1857l4.23096-2.44503-.98376-.56439-4.8182 2.78536a.48992.48992 0 0 0 .2456.91452.4468.4468 0 0 0 .0588-.01502l.08165.34164a2.82129 2.82129 0 0 1 3.15966 1.46192L5.39325 9.45985l.97984.5657 4.80319-2.77687a.4762.4762 0 0 0 .15808-.15416l.04899-.01176c-.0046-.01894-.01176-.03593-.01633-.05487a.48012.48012 0 0 0-.01176-.44877z"/><path fill="url(#b)" d="M10.93131 5.6241a1.20847 1.20847 0 1 0 1.20847 1.20847 1.20847 1.20847 0 0 0-1.20847-1.20847zM6.89306 3.17711a1.20847 1.20847 0 1 0 1.20847 1.20847 1.20847 1.20847 0 0 0-1.20847-1.20847z"/><path d="M4.72238 13.30984q0 .11328-.05339.22396-.05208.11067-.14713.1875-.10417.08333-.2435.1302-.13801.04687-.33333.04687-.20963 0-.3776-.03906-.16667-.03906-.33985-.11588v-.32292h.01823q.14714.1224.33985.1888.1927.06641.36198.06641.23958 0 .3724-.08984.1341-.08984.1341-.23958 0-.1289-.0638-.1901-.0625-.0612-.1914-.09505-.09766-.02605-.21224-.04298-.11328-.01693-.24088-.04297-.25782-.05469-.38282-.1862-.1237-.13281-.1237-.34505 0-.24349.20573-.39844.20573-.15625.52214-.15625.20443 0 .375.03906t.30208.09635v.30469h-.01823q-.11067-.09375-.29166-.15495-.17969-.0625-.3685-.0625-.20702 0-.33333.08594-.125.08594-.125.22136 0 .1211.0625.1901.0625.06901.22006.10547.08333.01823.23698.04427.15364.02604.26041.05339.21615.05729.32552.17318.10938.11588.10938.32422zm1.61328-.90105l-.84896 1.9909h-.26172l.27084-.60678-.57943-1.38412H5.182l.44662 1.07813.45052-1.07813zm1.53646 1.45443h-.24479v-.82812q0-.10026-.01172-.1875-.01172-.08854-.04297-.13802-.03255-.0547-.09375-.08073-.0612-.02734-.15885-.02734-.10026 0-.20964.04948-.10937.04948-.20963.1263v1.08594h-.2448V12.4088h.2448v.16146q.11458-.09505.23698-.14844.1224-.0534.2513-.0534.23568 0 .35937.14194.1237.14192.1237.40885zm1.60157 0h-.2435v-.15495q-.03254.02213-.08853.0625-.0547.03906-.10678.0625-.0612.02995-.14062.04948-.07943.02084-.1862.02084-.19661 0-.33333-.13021t-.13672-.33203q0-.16537.07031-.26693.07162-.10287.20313-.16146.1328-.0586.319-.07943t.39975-.03125v-.03776q0-.08333-.02995-.13802-.02865-.0547-.08334-.08594-.05208-.02995-.125-.04036-.07291-.01042-.15234-.01042-.09635 0-.21484.02604-.1185.02474-.2448.07292h-.01302v-.2487q.07162-.01953.20703-.04297.13542-.02344.26693-.02344.15365 0 .26693.02604.11458.02474.19792.08594.08203.0599.125.15495.04297.09505.04297.23568zm-.2435-.35807v-.40495q-.11197.0065-.26432.01953-.15104.01302-.23958.03776-.10547.02995-.17057.09375-.0651.0625-.0651.17318 0 .125.07551.1888.07553.0625.23047.0625.1289 0 .23568-.04948.10677-.05078.19792-.1211zm1.9948-.38672q0 .17708-.05078.32422-.05078.14583-.14323.2474-.08594.09635-.20312.14974-.11589.05208-.2461.05208-.11328 0-.20573-.02474-.09115-.02474-.1862-.07682v.60937h-.24479V12.4088h.2448v.15235q.09765-.08203.21874-.13672.1224-.056.26042-.056.26302 0 .40886.19923.14713.19791.14713.55078zm-.2526.0065q0-.26302-.08984-.39323-.08984-.1302-.27605-.1302-.10546 0-.21224.04556-.10677.04557-.20442.1198v.82421q.10416.04687.17838.0638.07552.01693.17058.01693.20442 0 .319-.13802.1146-.13802.1146-.40885zm1.67318.31902q0 .19922-.16537.32683-.16406.1276-.44922.1276-.16146 0-.29687-.03776-.13412-.03906-.22526-.08464v-.27474h.01302q.11588.08724.2578.13932.14194.05078.27214.05078.16146 0 .2526-.05208.09116-.05208.09116-.16406 0-.08594-.04948-.1302-.04948-.04428-.1901-.07553-.05208-.01172-.13672-.02734-.08333-.01563-.15235-.03386-.1914-.05078-.27213-.14844-.07943-.09896-.07943-.24218 0-.08984.03646-.16927.03776-.07943.11328-.14193.07292-.0612.1849-.09636.11328-.03646.2526-.03646.1302 0 .26302.03255.13411.03125.22266.07682v.26172h-.01302q-.09375-.06901-.22787-.11589-.13411-.04818-.26302-.04818-.13411 0-.22656.05208-.09245.05078-.09245.15235 0 .08984.05599.13541.05469.04557.17708.07422.06771.01563.15104.03125.08464.01563.14063.02865.17057.03906.26302.13412.09245.09635.09245.2552zm1.5677-.28255h-1.0716q0 .13411.04035.23437.04037.09896.11068.16276.0677.0625.16015.09375.09375.03125.20573.03125.14844 0 .29818-.05859.15104-.0599.21485-.11718h.01302v.26692q-.1237.05208-.2526.08724-.12892.03516-.27084.03516-.36198 0-.5651-.1953-.20313-.19662-.20313-.5573 0-.35677.194-.5664.19532-.20964.51303-.20964.29427 0 .45312.17187.16016.17188.16016.48828zm-.23827-.1875q-.0013-.19271-.09766-.29818-.09505-.10547-.29037-.10547-.19662 0-.3138.11589-.11589.11588-.13151.28776z"/><path d="M4.2309 15.13183l-.5039 1.9388h-.29036l-.40756-1.60937-.39844 1.60938H2.3468l-.51302-1.9388h.26432l.40755 1.61197.40105-1.61198h.26172l.40494 1.6276.40495-1.6276zm1.47006 1.21224q0 .35547-.1823.5612-.18228.20573-.48827.20573-.3086 0-.49089-.20573-.18099-.20573-.18099-.5612 0-.35547.181-.5612.18228-.20703.49088-.20703.30599 0 .48828.20704.1823.20572.1823.5612zm-.2526 0q0-.28255-.11068-.41927-.11068-.13802-.3073-.13802-.19921 0-.30989.13802-.10937.13672-.10937.41927 0 .27344.11067.41537.11068.14062.3086.14062.19531 0 .30599-.13932.11198-.14062.11198-.41667zm1.53906-.46093H6.9744q-.05469-.01302-.10677-.01823-.05078-.0065-.1211-.0065-.11328 0-.21875.05077-.10546.04948-.20312.12891v1.03255h-.2448v-1.45442h.2448v.21484q.14583-.11719.25651-.16537.11198-.04948.22786-.04948.0638 0 .09245.0039.02865.0026.08594.01172zm1.55078 1.1875H8.2153l-.58334-.63672-.15885.15104v.48568h-.2448v-2.02605h.2448v1.29948l.70703-.72786h.3086l-.67579.67187zm1.29688-.41928q0 .19922-.16536.32683-.16407.1276-.44922.1276-.16146 0-.29688-.03776-.13411-.03906-.22526-.08464v-.27474h.01302q.11589.08724.25781.13933.14193.05078.27214.05078.16146 0 .2526-.05208.09115-.05208.09115-.16407 0-.08594-.04948-.1302-.04948-.04427-.1901-.07552-.05209-.01173-.13672-.02735-.08333-.01562-.15235-.03384-.1914-.05079-.27213-.14844-.07943-.09896-.07943-.2422 0-.08983.03646-.16926.03776-.07943.11328-.14193.07292-.0612.1849-.09635.11328-.03646.2526-.03646.13021 0 .26302.03255.13412.03125.22266.07682v.26172h-.01302q-.09375-.06901-.22787-.11589-.13411-.04818-.26302-.04818-.13411 0-.22656.05208-.09245.05078-.09245.15235 0 .08984.056.13542.05468.04557.17707.07422.06771.01563.15105.03125.08463.01563.14062.02865.17057.03906.26302.13411.09245.09635.09245.2552zm1.63021-.32552q0 .17709-.05078.32422-.05078.14584-.14323.2474-.08594.09635-.20312.14974-.11589.05208-.2461.05208-.11328 0-.20573-.02474-.09115-.02474-.1862-.07682v.60937h-.24479v-1.99088h.2448v.15234q.09765-.08203.21875-.13672.1224-.05599.26041-.05599.26302 0 .40886.19922.14713.19792.14713.55078zm-.2526.0065q0-.26302-.08984-.39323-.08984-.1302-.27604-.1302-.10547 0-.21224.04556-.10678.04557-.20443.1198v.82422q.10416.04687.17838.0638.07552.01693.17058.01693.20442 0 .319-.13802.1146-.13803.1146-.40886zm1.76432.7383h-.24349v-.15495q-.03255.02213-.08854.0625-.05469.03906-.10677.0625-.0612.02995-.14062.04948-.07943.02083-.1862.02083-.19662 0-.33334-.1302-.13671-.13022-.13671-.33204 0-.16537.0703-.26693.07161-.10286.20313-.16146.13281-.05859.31901-.07943.1862-.02083.39974-.03125v-.03776q0-.08333-.02995-.13802-.02865-.05469-.08333-.08594-.05208-.02995-.125-.04037-.07292-.01042-.15234-.01042-.09636 0-.21485.02604-.11849.02474-.24479.07292h-.01302v-.2487q.07161-.01953.20703-.04297.13542-.02344.26693-.02344.15365 0 .26693.02604.11458.02474.19791.08594.08203.0599.125.15495.04297.09505.04297.23568zm-.24349-.35808v-.40494q-.11198.0065-.26432.01953-.15104.01302-.23958.03776-.10547.02995-.17058.09375-.0651.0625-.0651.17317 0 .125.07552.1888.07552.0625.23047.0625.1289 0 .23568-.04948.10677-.05078.19792-.12109zm1.79037.26693q-.1224.0586-.23307.09115-.10938.03255-.23308.03255-.15755 0-.28906-.04557-.13151-.04687-.22526-.14062-.09505-.09375-.14714-.23698-.05208-.14323-.05208-.33464 0-.35677.19532-.5599.19661-.20312.51823-.20312.125 0 .24479.03516.1211.03516.22135.08594v.27213h-.01302q-.11198-.08724-.23177-.1341-.11849-.04689-.23177-.04689-.20833 0-.32943.14063-.11979.13932-.11979.41015 0 .26302.11719.40495.11849.14063.33203.14063.07422 0 .15104-.01953.07682-.01953.13802-.05078.05338-.02734.10026-.0573.04687-.03124.07422-.05338h.01302zm1.53125-.61068h-1.07162q0 .13412.04037.23438.04036.09896.11068.16276.06771.0625.16016.09375.09375.03125.20573.03125.14844 0 .29818-.0586.15104-.0599.21484-.11718h.01302v.26693q-.1237.05208-.2526.08724-.12891.03516-.27084.03516-.36198 0-.5651-.19531-.20313-.19662-.20313-.5573 0-.35677.19401-.5664.19531-.20964.51302-.20964.29427 0 .45313.17188.16015.17187.16015.48828zm-.23828-.1875q-.0013-.1927-.09766-.29818-.09505-.10546-.29036-.10546-.19662 0-.3138.11588-.1159.11589-.13152.28776z"/></svg>