<svg xmlns="http://www.w3.org/2000/svg" role="img" viewBox="231.81 61.80 270.14 270.14"><title>Azure Data Factory logo</title><path fill="#59b4d9" d="m 496.48,220.18637 v 0 -63.04609 l -71.24,62.00401 h -1.56 v -62.00401 l -71.24,62.00401 v 0 V 89.40481 C 352.44,78.46293 328,67.52104 295.76,67.52104 263.52,67.52104 237,77.94188 237,89.40481 V 326.99999 H 497 Z M 295.76,99.82565 c -23.4,0 -42.12,-5.73146 -42.12,-11.98397 0,-6.2525 18.72,-11.98396 42.12,-11.98396 23.4,0 42.12,5.21042 42.12,11.98396 -0.52,6.25251 -19.24,11.98397 -42.12,11.98397 z m 122.72,184.96994 h -28.6 v -28.65732 h 28.6 z m -50.44,0 h -28.6 v -28.65732 h 28.6 z m 72.8,0 v -28.65732 h 28.6 v 28.65732 z"/><path fill="#3999c6" d="M237 87.842H294.72V327H237z"/><path fill="#fff" d="m 351.92,87.84168 c 0,11.46293 -26,20.84169 -57.72,20.84169 -31.72,0 -57.2,-9.37876 -57.2,-20.84169 C 237,76.37876 263,67 294.72,67 c 31.72,0 57.2,8.85772 57.2,20.84168"/><path fill="#7fba00" d="m 340.48,86.27856 c 0,7.81563 -20.28,13.54709 -45.76,13.54709 -25.48,0 -45.76,-5.73146 -45.76,-13.54709 0,-7.81563 20.28,-13.5471 45.76,-13.5471 25.48,0 45.76,6.25251 45.76,13.5471"/><path fill="#b8d432" d="m 330.6,94.61523 c 6.24,-2.08417 9.36,-5.21042 9.36,-8.33667 0,-7.81563 -20.28,-13.5471 -45.76,-13.5471 -25.48,0 -45.76,6.25251 -45.76,13.5471 0.52,3.12625 4.16,6.2525 9.88,8.33667 8.32,-3.12625 21.32,-5.21042 36.4,-5.21042 14.56,0 27.56,2.08417 35.88,5.21042"/></svg>