<svg xmlns="http://www.w3.org/2000/svg" role="img" viewBox="2.18 -0.01 14.01 16.57"><title>Azure Analysis Services logo</title><defs><linearGradient id="a" x1="3.96" x2="3.96" y1="2.52" y2="7.82" gradientTransform="translate(2.14 -1.625) scale(.78775)" gradientUnits="userSpaceOnUse"><stop offset="0" stop-color="#32d4f5"/><stop offset="1" stop-color="#198ab3"/></linearGradient><linearGradient id="b" x1="14.04" x2="14.04" y1="5.58" y2="10.89" gradientTransform="translate(2.14 -1.625) scale(.78775)" gradientUnits="userSpaceOnUse"><stop offset="0" stop-color="#32d4f5"/><stop offset="1" stop-color="#198ab3"/></linearGradient><linearGradient id="c" x1="5.29" x2="5.29" y1="10.18" y2="15.48" gradientTransform="translate(2.14 -1.625) scale(.78775)" gradientUnits="userSpaceOnUse"><stop offset="0" stop-color="#32d4f5"/><stop offset="1" stop-color="#198ab3"/></linearGradient></defs><rect width="5.451" height="4.183" x="2.533" y=".36" fill="url(#a)" rx=".221"/><rect width="5.451" height="4.183" x="10.473" y="2.771" fill="url(#b)" rx=".221"/><rect width="5.451" height="4.183" x="3.573" y="6.394" fill="url(#c)" rx=".331"/><path fill="#773adc" d="M12.49792 5.40157l.18118-.50416-6.7431-2.4814-.18118.49629zm.4175-.0709l-.25207-.47264-6.3571 3.34791.2442.47265zM6.0778 8.90704l.52779-.09453-1.07134-6.07352-.52779.09453z"/><circle cx="8.534" cy="11.175" r=".851" fill="#fff" transform="rotate(-32.41)"/><circle cx="3.129" cy="4.888" r=".851" fill="#fff" transform="rotate(-32.41)"/><circle cx=".781" cy="10.539" r=".851" fill="#fff" transform="rotate(-32.41)"/><path d="M5.13495 12.91765H4.8602l-.1901-.54037h-.83855l-.1901.54037h-.26172l.70573-1.9388h.34375zm-.54427-.76172l-.33985-.95183-.34114.95183zm2.03515.76172h-.24479v-.82813q0-.10026-.01172-.1875-.01172-.08854-.04297-.13802-.03255-.0547-.09375-.08073-.0612-.02734-.15885-.02734-.10026 0-.20964.04948-.10937.04948-.20963.1263v1.08594h-.2448v-1.45443h.2448v.16146q.11458-.09505.23698-.14844.1224-.05339.2513-.05339.23568 0 .35938.14193.1237.14193.1237.40885zm1.60157 0h-.2435v-.15495q-.03254.02214-.08853.0625-.05469.03906-.10677.0625-.0612.02995-.14063.04948-.07943.02083-.1862.02083-.19661 0-.33333-.13021-.13672-.1302-.13672-.33203 0-.16537.07031-.26693.07162-.10286.20313-.16146.13281-.05859.319-.07943.1862-.02083.39975-.03125v-.03776q0-.08333-.02995-.13802-.02864-.05469-.08333-.08594-.05208-.02995-.125-.04036-.07292-.01042-.15235-.01042-.09635 0-.21484.02604-.11849.02474-.2448.07292h-.01301v-.2487q.07161-.01953.20703-.04297.13542-.02344.26693-.02344.15364 0 .26692.02604.11459.02474.19792.08594.08203.0599.125.15495.04297.09505.04297.23568zm-.2435-.35808v-.40495q-.11197.0065-.26431.01954-.15105.01302-.23959.03776-.10547.02995-.17057.09375-.0651.0625-.0651.17317 0 .125.07552.1888.07552.0625.23047.0625.1289 0 .23567-.04947.10677-.05078.19792-.1211zm.96225.35808h-.2448V10.8916h.2448zm1.74219-1.45443l-.84896 1.99089h-.26172l.27084-.60678-.57943-1.38411h.26562l.44662 1.07812.45052-1.07812zm1.35938 1.03515q0 .19922-.16537.32683-.16406.1276-.44922.1276-.16146 0-.29687-.03776-.13412-.03906-.22526-.08464v-.27474h.01302q.11588.08724.2578.13933.14194.05078.27215.05078.16145 0 .2526-.05208.09115-.05208.09115-.16407 0-.08594-.04948-.1302-.04948-.04428-.1901-.07553-.05208-.01172-.13672-.02734-.08333-.01563-.15235-.03385-.1914-.05078-.27213-.14843-.07943-.09896-.07943-.2422 0-.08983.03646-.16926.03776-.07943.11328-.14193.07292-.0612.1849-.09635.11328-.03646.2526-.03646.1302 0 .26302.03255.13411.03125.22266.07682v.26172h-.01302q-.09375-.06901-.22787-.11589-.13411-.04818-.26302-.04818-.13411 0-.22656.05208-.09245.05078-.09245.15235 0 .08984.05599.13542.05469.04557.17708.07422.06771.01563.15104.03125.08464.01563.14063.02865.17057.03906.26302.13411.09245.09635.09245.2552zm.61328-1.27864h-.27604v-.2539h.27604zm-.01563 1.69792h-.2448v-1.45443h.2448zm1.52344-.41928q0 .19922-.16536.32683-.16406.1276-.44922.1276-.16146 0-.29688-.03776-.13411-.03906-.22526-.08464v-.27474h.01302q.11589.08724.25782.13933.14192.05078.27213.05078.16146 0 .2526-.05208.09116-.05208.09116-.16407 0-.08594-.04948-.1302-.04948-.04428-.1901-.07553-.05209-.01172-.13673-.02734-.08333-.01563-.15234-.03385-.1914-.05078-.27214-.14843-.07943-.09896-.07943-.2422 0-.08983.03646-.16926.03776-.07943.11328-.14193.07292-.0612.1849-.09635.11328-.03646.2526-.03646.13021 0 .26303.03255.13411.03125.22265.07682v.26172h-.01302q-.09375-.06901-.22786-.11589-.13412-.04818-.26302-.04818-.13412 0-.22657.05208-.09245.05078-.09245.15235 0 .08984.056.13542.05468.04557.17708.07422.0677.01563.15104.03125.08463.01563.14062.02865.17058.03906.26303.13411.09245.09635.09245.2552zM5.01516 15.6976q0 .11328-.0534.22396-.05207.11067-.14713.1875-.10416.08333-.24349.1302-.13802.04687-.33333.04687-.20964 0-.3776-.03906-.16667-.03906-.33985-.11588v-.32292h.01823q.14714.1224.33984.1888.19271.06641.36198.06641.23959 0 .3724-.08984.13412-.08984.13412-.23958 0-.1289-.0638-.1901-.0625-.0612-.19141-.09505-.09766-.02604-.21224-.04297-.11328-.01693-.24089-.04297-.25781-.0547-.38281-.1862-.1237-.13282-.1237-.34506 0-.24349.20573-.39843.20573-.15625.52214-.15625.20442 0 .375.03906.17057.03906.30208.09635v.30468H4.9188q-.11068-.09375-.29167-.15494-.17968-.0625-.36849-.0625-.20703 0-.33333.08594-.125.08594-.125.22135 0 .1211.0625.1901.0625.06902.22005.10547.08334.01823.23698.04427.15365.02604.26042.0534.21614.05728.32552.17317.10938.11589.10938.32422zm1.61198-.14844H5.55552q0 .13412.04037.23438.04036.09896.11067.16276.06771.0625.16016.09375.09375.03125.20573.03125.14844 0 .29818-.0586.15104-.0599.21484-.11718h.01302v.26693q-.1237.05208-.2526.08724-.12891.03516-.27084.03516-.36198 0-.5651-.19532-.20313-.19661-.20313-.55729 0-.35677.19401-.5664.19532-.20964.51303-.20964.29427 0 .45312.17187.16016.17188.16016.48829zm-.23828-.1875q-.0013-.1927-.09766-.29818-.09505-.10547-.29037-.10547-.19661 0-.3138.11589-.11588.11589-.1315.28776zm1.51692-.29818h-.01302q-.05468-.01302-.10677-.01823-.05078-.0065-.1211-.0065-.11327 0-.21874.05078-.10547.04948-.20313.1289V16.251h-.24479v-1.45443h.2448v.21485q.14583-.1172.2565-.16537.11198-.04948.22787-.04948.0638 0 .09245.0039.02864.0026.08593.01172zm1.48829-.26693l-.58854 1.45443h-.2461l-.58464-1.45442h.26563l.45052 1.15755.44662-1.15756zm.58333-.24348h-.27604v-.25391h.27604zm-.01562 1.69791h-.2448v-1.45442h.2448zm1.5599-.09114q-.1224.05859-.23308.09115-.10937.03255-.23307.03255-.15755 0-.28906-.04557-.13152-.04687-.22527-.14063-.09505-.09375-.14713-.23698-.05208-.14323-.05208-.33463 0-.35677.19531-.5599.19662-.20312.51823-.20312.125 0 .2448.03516.12109.03516.22135.08594v.27213h-.01302q-.11198-.08724-.23177-.13411-.1185-.04687-.23177-.04687-.20834 0-.32943.14062-.1198.13933-.1198.41016 0 .26302.1172.40495.11848.14062.33203.14062.07422 0 .15104-.01953.07682-.01953.13802-.05078.05338-.02734.10026-.05729.04687-.03125.07422-.05339h.01302zm1.53125-.61068H11.9813q0 .13412.04036.23438.04036.09896.11068.16276.0677.0625.16015.09375.09375.03125.20573.03125.14844 0 .29818-.0586.15104-.0599.21485-.11718h.01302v.26693q-.1237.05208-.2526.08724-.12892.03516-.27084.03516-.36198 0-.5651-.19532-.20313-.19661-.20313-.55729 0-.35677.194-.5664.19532-.20964.51303-.20964.29427 0 .45312.17187.16016.17188.16016.48829zm-.23829-.1875q-.0013-.1927-.09766-.29818-.09505-.10547-.29036-.10547-.19661 0-.3138.11589-.11589.11589-.13151.28776zm1.64844.47005q0 .19922-.16536.32683-.16406.1276-.44922.1276-.16146 0-.29688-.03776-.13411-.03906-.22526-.08464V15.889h.01302q.11589.08724.25782.13932.14192.05078.27213.05078.16146 0 .2526-.05208.09116-.05208.09116-.16406 0-.08594-.04948-.1302-.04948-.04428-.1901-.07553-.05209-.01172-.13673-.02734-.08333-.01563-.15234-.03385-.1914-.05078-.27214-.14843-.07943-.09896-.07943-.2422 0-.08983.03646-.16926.03776-.07943.11329-.14193.07292-.0612.1849-.09635.11327-.03646.2526-.03646.1302 0 .26302.03255.13411.03125.22265.07682v.26172h-.01302q-.09375-.06901-.22786-.11589-.13412-.04818-.26302-.04818-.13412 0-.22657.05208-.09245.05078-.09245.15235 0 .08984.056.13541.05468.04557.17708.07422.0677.01563.15104.03125.08464.01563.14062.02865.17058.03906.26303.13412.09245.09635.09245.2552z"/></svg>