<svg xmlns="http://www.w3.org/2000/svg" role="img" viewBox="0.08 -0.23 17.96 18.39"><title>Azure Cognitive Services logo</title><defs><linearGradient id="a" x1="9" x2="9" y1="19.13" y2="-.29" gradientTransform="translate(.445 -2.37) scale(.95854)" gradientUnits="userSpaceOnUse"><stop offset="0" stop-color="#0078d4"/><stop offset=".16" stop-color="#1380da"/><stop offset=".53" stop-color="#3c91e5"/><stop offset=".82" stop-color="#559cec"/><stop offset="1" stop-color="#5ea0ef"/></linearGradient></defs><path fill="url(#a)" d="M17.69848 8.5391a3.83417 3.83417 0 0 0-3.36449-3.71915A4.88857 4.88857 0 0 0 9.30164.14225a5.03235 5.03235 0 0 0-4.81188 3.23988A4.601 4.601 0 0 0 .4447 7.85853a4.69686 4.69686 0 0 0 4.8598 4.51473h8.29141a.74766.74766 0 0 0 .21087 0 3.93003 3.93003 0 0 0 3.89169-3.83417z"/><path fill="#9cebff" d="M5.64 7.59013h-.8435a1.04481 1.04481 0 1 0 0 .4697H5.64a.1917.1917 0 0 1 .19172.1917v4.12173h.46968V8.25154a.6614.6614 0 0 0-.6614-.6614zm-1.86915.84352a.61347.61347 0 1 1 .61347-.61346.61347.61347 0 0 1-.61347.61346z"/><path fill="#f2f2f2" d="M9.01408 7.80101v-.95854a.67098.67098 0 0 0-.67098-.67098H6.85736a.1917.1917 0 0 1-.19171-.1917V.88991l-.22046.11502-.24923.1342v4.79272a.6614.6614 0 0 0 .6614.66139H8.3431a.2013.2013 0 0 1 .2013.2013v.95854a1.03523 1.03523 0 0 0-.81477 1.01605A1.04481 1.04481 0 1 0 9.01408 7.7531zm-.23964 1.62953a.61347.61347 0 1 1 .61347-.61347.61347.61347 0 0 1-.61347.61347z"/><path fill="#9cebff" d="M14.37234 5.77849a1.04481 1.04481 0 0 0-.23964 2.06087v.1917a.2013.2013 0 0 1-.2013.2013h-1.91708V4.85829a.6614.6614 0 0 0-.6614-.6614h-.9873a1.03523 1.03523 0 0 0-1.01605-.81476 1.04481 1.04481 0 1 0 1.01606 1.28445h1.02564a.1917.1917 0 0 1 .1917.1917v7.51499h.4697V8.70204h1.91708a.67098.67098 0 0 0 .67098-.67098v-.1917a1.04481 1.04481 0 0 0 .81476-1.01606 1.04481 1.04481 0 0 0-1.08315-1.04481zM9.34957 5.0404a.61347.61347 0 1 1 .61347-.61347.61347.61347 0 0 1-.61347.61347zm5.02277 2.39636a.61347.61347 0 1 1 .60388-.61347.61347.61347 0 0 1-.60388.61347z"/><path d="M4.78605 14.3229q-.07161.03125-.1302.0586-.0573.02733-.15105.05728-.07943.02474-.17318.04167-.09245.01823-.20442.01823-.21094 0-.38412-.05859-.17188-.0599-.29948-.1862-.125-.1237-.19531-.3138-.07032-.1914-.07032-.444 0-.2396.06771-.4284t.19532-.319q.1237-.1263.29817-.19271.17578-.06641.38933-.06641.15625 0 .3112.03776.15625.03776.34635.13281v.30599h-.01953q-.16016-.13411-.31771-.19531-.15755-.0612-.33724-.0612-.14714 0-.26563.04818-.11718.04687-.20963.14713-.08985.09766-.14063.2474-.04948.14844-.04948.34375 0 .20443.0547.35156.05598.14714.14322.23959.09115.09635.21224.14323.1224.04557.25781.04557.1862 0 .34896-.0638t.3047-.19141h.01822zm1.58464-.58593q0 .35547-.1823.5612-.18229.20572-.48828.20572-.30859 0-.49088-.20572-.181-.20573-.181-.5612 0-.35547.181-.5612.18229-.20703.49088-.20703.306 0 .48829.20703.18229.20573.18229.5612zm-.2526 0q0-.28256-.11068-.41927-.11068-.13803-.3073-.13803-.19922 0-.3099.13803-.10937.13671-.10937.41927 0 .27343.11068.41536.11068.14063.3086.14063.1953 0 .30598-.13933.11198-.14062.11198-.41666zm1.8112.5612q0 .36979-.16798.54296-.16796.17318-.51692.17318-.11589 0-.22657-.01693-.10937-.01563-.21614-.04557v-.25h.01302q.0599.02344.1901.0573.13021.03515.26042.03515.125 0 .20703-.02995.08203-.02995.1276-.08333.04558-.05078.06511-.1224.01953-.0716.01953-.16015v-.13281q-.11068.08854-.21224.1328-.10026.04298-.25651.04298-.26042 0-.41406-.1875-.15235-.1888-.15235-.53125 0-.1875.05209-.32292.05338-.13672.14453-.23568.08463-.09245.20573-.14323.1211-.05208.24088-.05208.1263 0 .21094.02604.08594.02474.18099.07682l.01563-.0625h.22916zm-.2448-.23438v-.79297q-.09765-.04427-.1823-.0625-.08332-.01953-.16666-.01953-.20182 0-.3177.13542-.1159.13541-.1159.39323 0 .24479.08595.3711.08593.1263.28515.1263.10677 0 .21354-.04037.10808-.04167.19792-.11067zm1.94271.39974h-.24479v-.82813q0-.10026-.01172-.1875-.01172-.08854-.04297-.13802-.03255-.05469-.09375-.08073-.0612-.02734-.15885-.02734-.10026 0-.20964.04948-.10937.04948-.20963.1263v1.08594h-.2448v-1.45442h.2448v.16145q.11458-.09505.23698-.14843.1224-.0534.2513-.0534.23568 0 .35937.14193.1237.14193.1237.40886zm.73438-1.69792h-.27604v-.2539h.27604zm-.01563 1.69792h-.2448V13.0091h.2448zm1.23959-.01302q-.06901.01823-.15104.02995-.08073.01172-.14454.01172-.22265 0-.33854-.1198-.11588-.11978-.11588-.3841v-.77345h-.16537v-.20573h.16537v-.41797h.24479v.41797h.5052v.20573h-.5052v.66276q0 .11458.0052.17969.0052.0638.03646.1198.02865.05207.07813.07681.05078.02344.15364.02344.0599 0 .125-.01693.06511-.01823.09375-.02995h.01302zm.5586-1.6849h-.27605v-.2539h.27604zm-.01564 1.69792h-.24479V13.0091h.2448zm1.7422-1.45443l-.58855 1.45443h-.24609l-.58464-1.45443h.26563l.45052 1.15755.44662-1.15755zm1.51432.7526h-1.07161q0 .13412.04036.23438.04036.09896.11067.16276.06771.0625.16016.09375.09375.03125.20573.03125.14844 0 .29818-.05859.15104-.0599.21484-.11719h.01302v.26693q-.1237.05208-.2526.08724-.12891.03516-.27084.03516-.36198 0-.5651-.19531-.20313-.19662-.20313-.5573 0-.35677.19401-.5664.19532-.20964.51302-.20964.29428 0 .45313.17188.16016.17187.16016.48828zm-.23828-.1875q-.0013-.1927-.09766-.29817-.09505-.10547-.29036-.10547-.19662 0-.3138.11589-.1159.11588-.13152.28776zM4.69751 17.24349q0 .11328-.05339.22396-.05208.11068-.14713.1875-.10417.08333-.2435.1302-.13801.04688-.33333.04688-.20963 0-.3776-.03906-.16667-.03906-.33985-.11589v-.32292h.01823q.14714.1224.33985.1888.1927.06642.36198.06642.23958 0 .3724-.08984.1341-.08984.1341-.23959 0-.1289-.0638-.1901-.0625-.0612-.1914-.09505-.09766-.02604-.21224-.04297-.11328-.01693-.24089-.04297-.2578-.05469-.3828-.1862-.1237-.13281-.1237-.34505 0-.24349.20572-.39844.20573-.15625.52214-.15625.20443 0 .375.03906t.30208.09635v.30469h-.01823q-.11067-.09375-.29166-.15495-.1797-.0625-.3685-.0625-.20702 0-.33333.08594-.125.08594-.125.22136 0 .12109.0625.1901.0625.06901.22006.10547.08333.01823.23697.04427.15365.02604.26042.05339.21615.05729.32552.17318.10938.11588.10938.32421zm1.61198-.14844H5.23787q0 .13412.04037.23438.04036.09896.11068.16276.0677.0625.16015.09375.09375.03125.20573.03125.14844 0 .29818-.0586.15104-.0599.21484-.11718h.01302v.26693q-.1237.05208-.2526.08724t-.27083.03516q-.36198 0-.5651-.19531-.20313-.19662-.20313-.5573 0-.35677.194-.5664.19532-.20964.51303-.20964.29427 0 .45312.17188.16016.17187.16016.48828zm-.23828-.1875q-.0013-.1927-.09766-.29817-.09505-.10547-.29036-.10547-.19662 0-.3138.11588-.1159.11589-.13152.28776zm1.51693-.29817h-.01302q-.0547-.01302-.10677-.01823-.05079-.0065-.1211-.0065-.11328 0-.21875.05078-.10547.04948-.20312.1289v1.03256h-.2448v-1.45443h.2448v.21484q.14583-.11719.2565-.16536.11199-.04948.22787-.04948.0638 0 .09245.0039.02865.0026.08594.01172zm1.48828-.26693l-.58854 1.45443h-.2461l-.58463-1.45443h.26562l.45052 1.15755.44662-1.15755zm.58333-.2435h-.27604v-.2539h.27604zm-.01562 1.69793h-.2448v-1.45443h.2448zm1.5599-.09115q-.1224.0586-.23308.09115-.10937.03255-.23307.03255-.15755 0-.28906-.04557-.13151-.04687-.22526-.14062-.09505-.09375-.14714-.23698-.05208-.14323-.05208-.33464 0-.35677.19531-.5599.19662-.20312.51823-.20312.125 0 .2448.03516.12109.03516.22135.08594v.27213h-.01302q-.11198-.08724-.23177-.13411-.1185-.04687-.23177-.04687-.20834 0-.32943.14063-.1198.13932-.1198.41015 0 .26302.1172.40495.11849.14063.33203.14063.07422 0 .15104-.01953.07682-.01953.13802-.05078.0534-.02734.10026-.0573.04687-.03124.07422-.05337h.01302zm1.53125-.61068h-1.07162q0 .13412.04036.23438.04037.09896.11068.16276.06771.0625.16016.09375.09375.03125.20573.03125.14843 0 .29817-.0586.15105-.0599.21485-.11718h.01302v.26693q-.1237.05208-.2526.08724-.12891.03516-.27084.03516-.36198 0-.5651-.19531-.20313-.19662-.20313-.5573 0-.35677.19401-.5664.19531-.20964.51302-.20964.29427 0 .45313.17188.16015.17187.16015.48828zm-.23828-.1875q-.0013-.1927-.09766-.29817-.09505-.10547-.29037-.10547-.19661 0-.3138.11588-.11589.11589-.13151.28776zm1.64844.47006q0 .19921-.16537.32682-.16406.1276-.44922.1276-.16146 0-.29687-.03776-.13412-.03906-.22526-.08464v-.27474h.01302q.11588.08724.2578.13933.14194.05078.27215.05078.16145 0 .2526-.05208.09115-.05208.09115-.16407 0-.08594-.04948-.1302-.04948-.04427-.1901-.07552-.05208-.01172-.13672-.02734-.08333-.01563-.15235-.03385-.1914-.05078-.27213-.14844-.07943-.09896-.07943-.24219 0-.08984.03646-.16927.03776-.07943.11328-.14193.07292-.0612.1849-.09635.11328-.03646.2526-.03646.1302 0 .26302.03255.13411.03125.22266.07682v.26172h-.01302q-.09375-.069-.22787-.11588-.13411-.04818-.26302-.04818-.13411 0-.22656.05208-.09245.05078-.09245.15234 0 .08984.05599.13542.05469.04557.17708.07422.06771.01563.15104.03125.08464.01563.14063.02864.17057.03906.26302.13411.09245.09635.09245.25521z"/></svg>