<svg xmlns="http://www.w3.org/2000/svg" role="img" viewBox="-0.36 0.83 18.79 16.60"><title>Azure Kubernetes Service logo</title><defs><linearGradient id="a" x1="2.94" x2="8.67" y1="3.74" y2="3.74" gradientUnits="userSpaceOnUse"><stop offset="0" stop-color="#b77af4"/><stop offset="1" stop-color="#773adc"/></linearGradient><linearGradient id="b" x1="9.13" x2="14.85" y1="3.79" y2="3.79" gradientUnits="userSpaceOnUse"><stop offset="0" stop-color="#b77af4"/><stop offset="1" stop-color="#773adc"/></linearGradient><linearGradient id="c" x1=".01" x2="5.73" y1="9.12" y2="9.12" gradientUnits="userSpaceOnUse"><stop offset="0" stop-color="#b77af4"/><stop offset="1" stop-color="#773adc"/></linearGradient><linearGradient id="d" x1="6.18" x2="11.9" y1="9.08" y2="9.08" gradientUnits="userSpaceOnUse"><stop offset="0" stop-color="#b77af4"/><stop offset="1" stop-color="#773adc"/></linearGradient><linearGradient id="e" x1="12.35" x2="18.08" y1="9.13" y2="9.13" gradientUnits="userSpaceOnUse"><stop offset="0" stop-color="#b77af4"/><stop offset="1" stop-color="#773adc"/></linearGradient><linearGradient id="f" x1="2.87" x2="8.6" y1="14.56" y2="14.56" gradientUnits="userSpaceOnUse"><stop offset="0" stop-color="#b77af4"/><stop offset="1" stop-color="#773adc"/></linearGradient><linearGradient id="g" x1="9.05" x2="14.78" y1="14.6" y2="14.6" gradientUnits="userSpaceOnUse"><stop offset="0" stop-color="#b77af4"/><stop offset="1" stop-color="#773adc"/></linearGradient></defs><path fill="url(#a)" d="M5.8 1.22L2.94 1.75 2.94 5.65 5.8 6.26 8.67 5.11 8.67 2.2 5.8 1.22z"/><path fill="none" d="M5.91,6.2,8.53,5.14A.2.2,0,0,0,8.65,5V2.36a.21.21,0,0,0-.13-.18l-2.65-.9H5.75l-2.6.48A.2.2,0,0,0,3,1.94V5.47a.19.19,0,0,0,.15.19l2.63.55A.32.32,0,0,0,5.91,6.2Z"/><path fill="#341a6e" d="M2.94,1.75v3.9l2.89.61v-5Zm1.22,3.6-.81-.16v-3l.81-.13Zm1.26.23-.93-.15V2l.93-.16Z"/><path fill="url(#b)" d="M11.99 1.27L9.13 1.8 9.13 5.7 11.99 6.31 14.85 5.15 14.85 2.25 11.99 1.27z"/><path fill="#341a6e" d="M9.13,1.8V5.7L12,6.31v-5Zm1.21,3.6-.81-.16v-3l.81-.13Zm1.26.23-.93-.15V2.05l.93-.17Z"/><path fill="url(#c)" d="M2.87 6.6L0.01 7.13 0.01 11.03 2.87 11.64 5.74 10.49 5.74 7.58 2.87 6.6z"/><path fill="#341a6e" d="M0,7.13V11l2.89.61v-5Zm1.21,3.61-.81-.17v-3l.81-.14ZM2.48,11l-.93-.15V7.38l.93-.16Z"/><path fill="url(#d)" d="M9.04 6.56L6.18 7.09 6.18 10.99 9.04 11.61 11.9 10.45 11.9 7.54 9.04 6.56z"/><path fill="#341a6e" d="M6.18,7.09V11l2.88.61v-5ZM7.39,10.7l-.81-.17v-3l.81-.14Zm1.26.22-.93-.15V7.34l.93-.16Z"/><path fill="url(#e)" d="M15.21 6.61L12.35 7.14 12.35 11.04 15.21 11.65 18.08 10.5 18.08 7.59 15.21 6.61z"/><path fill="#341a6e" d="M12.35,7.14V11l2.89.61v-5Zm1.22,3.61-.81-.17v-3l.81-.14Zm1.26.22-.93-.15V7.39l.93-.16Z"/><path fill="url(#f)" d="M5.73 12.04L2.87 12.56 2.87 16.46 5.73 17.08 8.6 15.92 8.6 13.02 5.73 12.04z"/><path fill="none" d="M5.84,17,8.45,16a.18.18,0,0,0,.12-.18v-2.6A.2.2,0,0,0,8.44,13L5.8,12.1a.17.17,0,0,0-.12,0l-2.6.47a.19.19,0,0,0-.16.19v3.54a.19.19,0,0,0,.15.19L5.7,17A.23.23,0,0,0,5.84,17Z"/><path fill="#341a6e" d="M2.87,12.56v3.9l2.89.62V12Zm1.22,3.61L3.28,16V13l.81-.14Zm1.26.23-.93-.15V12.81l.93-.16Z"/><path fill="url(#g)" d="M11.91 12.08L9.05 12.61 9.05 16.51 11.91 17.12 14.78 15.97 14.78 13.06 11.91 12.08z"/><path fill="#341a6e" d="M9.05,12.61v3.9l2.89.61v-5Zm1.22,3.61-.81-.17v-3l.81-.14Zm1.26.22-.93-.15V12.86l.93-.16Z"/></svg>