<svg xmlns="http://www.w3.org/2000/svg" role="img" viewBox="230.47 8.47 272.81 339.56"><title>Azure Data Factory Orchestration logo</title><path fill="#59b4d9" d="m 496.48,168.18637 v 0 -63.04609 l -71.24,62.00401 h -1.56 v -62.00401 l -71.24,62.00401 v 0 V 37.40481 C 352.44,26.46293 328,15.52104 295.76,15.52104 263.52,15.52104 237,25.94188 237,37.40481 V 274.99999 H 497 Z M 295.76,47.82565 c -23.4,0 -42.12,-5.73146 -42.12,-11.98397 0,-6.2525 18.72,-11.98396 42.12,-11.98396 23.4,0 42.12,5.21042 42.12,11.98396 -0.52,6.25251 -19.24,11.98397 -42.12,11.98397 z m 122.72,184.96994 h -28.6 v -28.65732 h 28.6 z m -50.44,0 h -28.6 v -28.65732 h 28.6 z m 72.8,0 v -28.65732 h 28.6 v 28.65732 z"/><path fill="#3999c6" d="M237 35.842H294.72V275H237z"/><path fill="#fff" d="m 351.92,35.84168 c 0,11.46293 -26,20.84169 -57.72,20.84169 -31.72,0 -57.2,-9.37876 -57.2,-20.84169 C 237,24.37876 263,15 294.72,15 c 31.72,0 57.2,8.85772 57.2,20.84168"/><path fill="#7fba00" d="m 340.48,34.27856 c 0,7.81563 -20.28,13.54709 -45.76,13.54709 -25.48,0 -45.76,-5.73146 -45.76,-13.54709 0,-7.81563 20.28,-13.5471 45.76,-13.5471 25.48,0 45.76,6.25251 45.76,13.5471"/><path fill="#b8d432" d="m 330.6,42.61523 c 6.24,-2.08417 9.36,-5.21042 9.36,-8.33667 0,-7.81563 -20.28,-13.5471 -45.76,-13.5471 -25.48,0 -45.76,6.25251 -45.76,13.5471 0.52,3.12625 4.16,6.2525 9.88,8.33667 8.32,-3.12625 21.32,-5.21042 36.4,-5.21042 14.56,0 27.56,2.08417 35.88,5.21042"/><g><path d="M261.16991 317.03428q1.65885 1.82292 2.53385 4.46614.89323 2.64323.89323 5.99739 0 3.35417-.91146 6.01562-.89323 2.64323-2.51562 4.41146-1.67709 1.84114-3.97396 2.77083-2.27864.92969-5.21354.92969-2.86197 0-5.21353-.94792-2.33333-.94792-3.97396-2.7526-1.64062-1.80469-2.53385-4.42968-.875-2.625-.875-5.9974 0-3.3177.875-5.9427.875-2.64323 2.55208-4.52083 1.60417-1.78646 3.97396-2.73437 2.38802-.94792 5.1953-.94792 2.91667 0 5.23177.96615 2.33333.94791 3.95573 2.71614zm-.32813 10.46353q0-5.28645-2.36979-8.14843-2.36979-2.8802-6.47135-2.8802-4.13801 0-6.5078 2.8802-2.35156 2.86198-2.35156 8.14843 0 5.34115 2.40624 8.18489 2.40625 2.82552 6.45312 2.82552 4.04688 0 6.43489-2.82552 2.40625-2.84374 2.40625-8.18489zM282.75322 324.43532h-.18229q-.76562-.18229-1.49479-.25521-.71094-.0912-1.69531-.0912-1.58594 0-3.0625.71094-1.47656.69271-2.84375 1.80469v14.45571h-3.42708v-20.36196h3.42708v3.00781q2.04167-1.64062 3.59115-2.3151 1.5677-.69271 3.1901-.69271.89323 0 1.29427.0547.40104.0365 1.20312.16406zM301.03706 339.78426q-1.71354.82031-3.26302 1.27604-1.53125.45573-3.26302.45573-2.20572 0-4.04687-.63802-1.84114-.65625-3.15364-1.96875-1.33073-1.3125-2.0599-3.3177-.72916-2.00521-.72916-4.68489 0-4.99479 2.73437-7.83854 2.7526-2.84375 7.2552-2.84375 1.75 0 3.42708.49219 1.69531.49219 3.09896 1.20312v3.8099h-.18229q-1.56771-1.22136-3.24479-1.87761-1.65885-.65625-3.24479-.65625-2.91666 0-4.61198 1.96875-1.67708 1.95052-1.67708 5.74219 0 3.68228 1.64063 5.66926 1.65885 1.96875 4.64843 1.96875 1.03906 0 2.11458-.27344 1.07552-.27343 1.93229-.71093.7474-.38282 1.40365-.80209.65625-.4375 1.03906-.74739h.18229zM322.45631 341.0603h-3.42708v-11.59374q0-1.40364-.16406-2.625-.16406-1.23958-.60156-1.93229-.45573-.76562-1.3125-1.1302-.85677-.38281-2.22396-.38281-1.40364 0-2.93489.6927-1.53125.69271-2.93489 1.76823v15.20311h-3.42709v-28.36456h3.42709v10.26302q1.60416-1.33073 3.3177-2.07813 1.71354-.74739 3.51823-.74739 3.29947 0 5.03124 1.98697 1.73177 1.98698 1.73177 5.72396zM346.09952 331.23479h-15.00259q0 1.8776.5651 3.28125.5651 1.38541 1.54948 2.27864.94791.875 2.24218 1.3125 1.3125.4375 2.88021.4375 2.07812 0 4.17448-.82031 2.11458-.83854 3.00781-1.64063h.18229v3.73698q-1.73177.72917-3.53646 1.22135-1.80468.49219-3.79166.49219-5.06771 0-7.91145-2.73437-2.84375-2.7526-2.84375-7.80208 0-4.99479 2.71614-7.92968 2.73438-2.93489 7.18229-2.93489 4.11979 0 6.34374 2.40625 2.24219 2.40624 2.24219 6.83593zm-3.33594-2.625q-.0182-2.69791-1.36718-4.17447-1.33073-1.47656-4.0651-1.47656-2.75261 0-4.39323 1.62239-1.62239 1.62239-1.84114 4.02864zM365.8417 335.19052q0 2.78906-2.31511 4.57551-2.29687 1.78646-6.28905 1.78646-2.26042 0-4.15625-.52865-1.8776-.54687-3.15364-1.18489v-3.84635h.18229q1.62239 1.22135 3.60937 1.95052 1.98698.71093 3.80989.71093 2.26042 0 3.53646-.72916 1.27604-.72917 1.27604-2.29687 0-1.20313-.69271-1.82292-.69271-.61979-2.66146-1.05729-.72916-.16406-1.91406-.38281-1.16666-.21875-2.13281-.47396-2.67968-.71094-3.80989-2.07812-1.11198-1.38542-1.11198-3.39063 0-1.25781.51042-2.36979.52864-1.11197 1.58593-1.98697 1.02084-.85677 2.58854-1.34896 1.58594-.51042 3.53646-.51042 1.82291 0 3.68229.45573 1.8776.4375 3.11718 1.07552v3.66406h-.18229q-1.3125-.96614-3.1901-1.62239-1.8776-.67448-3.68229-.67448-1.8776 0-3.17187.72916-1.29427.71094-1.29427 2.13282 0 1.25781.78385 1.89583.76563.63802 2.47917 1.03906.94791.21875 2.11458.4375 1.18489.21875 1.96875.40104 2.38802.54687 3.68229 1.8776 1.29427 1.34896 1.29427 3.57292zM381.31824 340.87801q-.96614.25521-2.11458.41927-1.13021.16406-2.02344.16406-3.11718 0-4.73958-1.67708-1.62239-1.67708-1.62239-5.3776v-10.82811h-2.3151v-2.88021h2.3151v-5.85156h3.42708v5.85156h7.07291v2.88021h-7.07291v9.27863q0 1.60417.0729 2.51563.0729.89323.51041 1.67708.40104.72917 1.09375 1.07552.71094.32812 2.15104.32812.83854 0 1.75-.23697.91146-.25521 1.3125-.41928h.18229zM398.16197 324.43532h-.18229q-.76562-.18229-1.49479-.25521-.71094-.0912-1.69531-.0912-1.58594 0-3.0625.71094-1.47656.69271-2.84374 1.80469v14.45571h-3.42708v-20.36196h3.42708v3.00781q2.04166-1.64062 3.59114-2.3151 1.56771-.69271 3.1901-.69271.89323 0 1.29427.0547.40104.0365 1.20312.16406zM416.55519 341.0603h-3.40885v-2.16927q-.45573.3099-1.23958.875-.76563.54688-1.49479.875-.85677.41927-1.96875.69271-1.11198.29167-2.60677.29167-2.7526 0-4.66666-1.82292-1.91406-1.82291-1.91406-4.64843 0-2.3151.98437-3.73698 1.0026-1.4401 2.84375-2.26041 1.85937-.82031 4.46614-1.11198 2.60677-.29167 5.59635-.4375v-.52865q0-1.16666-.41927-1.93229-.40104-.76562-1.16667-1.20312-.72916-.41927-1.75-.5651-1.02083-.14584-2.13281-.14584-1.34895 0-3.00781.36459-1.65885.34635-3.42708 1.02083h-.18229v-3.48177q1.0026-.27344 2.89844-.60156 1.89583-.32813 3.73697-.32813 2.15104 0 3.73698.36459 1.60416.34635 2.77083 1.20312 1.14844.83854 1.75 2.16927.60156 1.33073.60156 3.29948zm-3.40885-5.01301v-5.66927q-1.56771.0912-3.70052.27344-2.11458.18229-3.35416.52864-1.47656.41927-2.38802 1.3125-.91146.875-.91146 2.42448 0 1.75 1.05729 2.64323 1.05729.87499 3.22656.87499 1.80469 0 3.29948-.6927 1.49479-.71094 2.77083-1.69531zM433.72705 340.87801q-.96614.25521-2.11458.41927-1.1302.16406-2.02343.16406-3.11719 0-4.73958-1.67708-1.6224-1.67708-1.6224-5.3776v-10.82811h-2.3151v-2.88021h2.3151v-5.85156h3.42708v5.85156h7.07291v2.88021h-7.07291v9.27863q0 1.60417.0729 2.51563.0729.89323.51042 1.67708.40104.72917 1.09375 1.07552.71093.32812 2.15104.32812.83854 0 1.74999-.23697.91146-.25521 1.3125-.41928h.18229zM441.54736 317.28949h-3.86458v-3.55468h3.86458zm-.21875 23.77081h-3.42708v-20.36196h3.42708zM465.464 330.88844q0 4.97655-2.55208 7.85676-2.55208 2.88021-6.83593 2.88021-4.32031 0-6.87239-2.88021-2.53385-2.88021-2.53385-7.85676 0-4.97656 2.53385-7.85677 2.55208-2.89843 6.87239-2.89843 4.28385 0 6.83593 2.89843 2.55208 2.88021 2.55208 7.85677zm-3.53645 0q0-3.95573-1.54948-5.86979-1.54948-1.93229-4.30208-1.93229-2.78906 0-4.33854 1.93229-1.53125 1.91406-1.53125 5.86979 0 3.82812 1.54948 5.8151 1.54948 1.96874 4.32031 1.96874 2.73437 0 4.28385-1.95052 1.56771-1.96874 1.56771-5.83332zM487.79471 341.0603h-3.42708v-11.59374q0-1.40364-.16407-2.625-.16406-1.23958-.60156-1.93229-.45573-.76562-1.3125-1.1302-.85677-.38281-2.22395-.38281-1.40365 0-2.9349.6927-1.53125.69271-2.93489 1.76823v15.20311h-3.42708v-20.36196h3.42708v2.26042q1.60416-1.33073 3.3177-2.07813 1.71355-.74739 3.51823-.74739 3.29948 0 5.03125 1.98697 1.73177 1.98698 1.73177 5.72396z"/></g></svg>