<svg xmlns="http://www.w3.org/2000/svg" role="img" viewBox="1.76 -0.06 14.55 15.99"><title>Azure SQL logo</title><defs><radialGradient id="b" cx="9.36" cy="10.57" r="7.07" gradientTransform="translate(2 -.12) scale(.77535)" gradientUnits="userSpaceOnUse"><stop offset="0" stop-color="#f2f2f2"/><stop offset=".58" stop-color="#eee"/><stop offset="1" stop-color="#e6e6e6"/></radialGradient><linearGradient id="a" x1="2.59" x2="15.41" y1="10.16" y2="10.16" gradientTransform="translate(2 -.12) scale(.77535)" gradientUnits="userSpaceOnUse"><stop offset="0" stop-color="#005ba1"/><stop offset=".07" stop-color="#0060a9"/><stop offset=".36" stop-color="#0071c8"/><stop offset=".52" stop-color="#0078d4"/><stop offset=".64" stop-color="#0074cd"/><stop offset=".82" stop-color="#006abb"/><stop offset="1" stop-color="#005ba1"/></linearGradient></defs><path fill="url(#a)" d="m 8.9788235,3.8646875 c -2.7447426,0 -4.97,-0.775351 -4.97,-1.7988144 v 9.5833389 c 0,0.984695 2.1864898,1.783308 4.9002185,1.798814 h 0.069782 c 2.744742,0 4.969999,-0.775351 4.969999,-1.798814 V 2.0658731 c 0,1.0002029 -2.225257,1.7988144 -4.9699995,1.7988144 z"/><path fill="#e8e8e8" d="m 13.948823,2.0658731 c 0,1.0002029 -2.225258,1.7988144 -4.9699995,1.7988144 -2.7447426,0 -4.97,-0.775351 -4.97,-1.7988144 0,-1.0234633 2.2252574,-1.79881428 4.97,-1.79881428 2.7447415,0 4.9699995,0.77535098 4.9699995,1.79881428"/><path fill="#50e6ff" d="m 12.79355,1.9185565 c 0,0.6357877 -1.713526,1.1475195 -3.8147265,1.1475195 -2.1012012,0 -3.814727,-0.5117318 -3.814727,-1.1475195 0,-0.6357879 1.7135258,-1.13976601 3.814727,-1.13976601 2.1012005,0 3.8147265,0.51173161 3.8147265,1.13976601"/><path fill="#198ab3" d="M 8.9788235,2.2054364 A 8.9553042,8.9553042 0 0 0 5.9627081,2.6473865 8.8545086,8.8545086 0 0 0 8.9788235,3.066076 8.6451638,8.6451638 0 0 0 11.994939,2.6163724 9.1801561,9.1801561 0 0 0 8.9788235,2.2054364 Z"/><path fill="url(#b)" d="M 12.002692,8.7183849 V 6.0821914 h -0.697816 v 3.2021997 h 1.907363 V 8.7183849 Z M 6.4666862,7.4235487 A 1.4188923,1.4188923 0 0 1 6.0712572,7.1831898 0.34115445,0.34115445 0 0 1 5.9782151,6.9350776 0.26361934,0.26361934 0 0 1 6.0945177,6.7024722 0.52723869,0.52723869 0 0 1 6.4201652,6.6094301 1.2560686,1.2560686 0 0 1 7.1955162,6.8342818 V 6.16748 A 2.0004057,2.0004057 0 0 0 6.4201652,6.0434239 1.2715757,1.2715757 0 0 0 5.5750326,6.3070432 0.8373791,0.8373791 0 0 0 5.2493851,6.9971056 c 0,0.3954291 0.2481124,0.7055695 0.7753511,0.9381747 A 2.2330109,2.2330109 0 0 1 6.5054538,8.2144067 0.32564743,0.32564743 0 0 1 6.6217564,8.462519 0.29463339,0.29463339 0 0 1 6.4977003,8.7028779 0.62803432,0.62803432 0 0 1 6.1487923,8.7881664 1.2870827,1.2870827 0 0 1 5.3036597,8.462519 V 9.1835955 A 1.6825117,1.6825117 0 0 0 6.1332853,9.3696797 1.4576599,1.4576599 0 0 0 7.0481995,9.1138139 0.8373791,0.8373791 0 0 0 7.3040653,8.4082444 0.81411856,0.81411856 0 0 0 7.1102275,7.8654988 1.8763494,1.8763494 0 0 0 6.4666862,7.4235487 Z M 10.529525,8.6563568 A 1.8143213,1.8143213 0 0 0 10.785391,7.6794144 1.7988143,1.7988143 0 0 0 10.529525,6.8575425 1.4033853,1.4033853 0 0 0 9.9867794,6.2760291 1.5507021,1.5507021 0 0 0 9.2114288,6.0744379 1.6359907,1.6359907 0 0 0 8.3740497,6.2837827 1.4421528,1.4421528 0 0 0 7.8080435,6.8575425 1.9073634,1.9073634 0 0 0 7.6064522,7.7414426 1.7522933,1.7522933 0 0 0 7.7925365,8.5167935 1.3646178,1.3646178 0 0 0 8.3275286,9.0905534 1.5972231,1.5972231 0 0 0 9.1028797,9.3231586 L 9.7696814,10.09851 H 10.707856 L 9.7541744,9.2456235 A 1.3878783,1.3878783 0 0 0 10.529525,8.6563568 Z M 9.7541744,8.462519 A 0.72882995,0.72882995 0 0 1 9.1649077,8.7338919 0.71332294,0.71332294 0 0 1 8.575641,8.4547655 1.1785336,1.1785336 0 0 1 8.3507892,7.6794144 1.1862871,1.1862871 0 0 1 8.575641,6.9040635 0.77535101,0.77535101 0 0 1 9.1804147,6.6171836 0.67455538,0.67455538 0 0 1 9.7619284,6.9040635 1.2560686,1.2560686 0 0 1 9.9712724,7.6794144 1.1320125,1.1320125 0 0 1 9.7541744,8.462519 Z"/><g><path d="M3.221365 14.853196q0 .08496-.040039.167969-.039063.08301-.1103516.140625-.078125.0625-.1826171.09766-.1035157.03516-.25.03516-.1572266 0-.2832032-.0293-.125-.0293-.2548828-.08692v-.242187h.013672q.1103516.0918.2548828.141602.1445313.0498.2714844.0498.1796875 0 .2792969-.06738.1005859-.06738.1005859-.179687 0-.09668-.047852-.142578-.046875-.0459-.1435547-.07129-.073242-.01953-.1591796-.03223-.084961-.0127-.1806641-.03223-.1933594-.04102-.2871094-.139649-.092773-.09961-.092773-.258789 0-.182617.1542969-.298828.1542968-.117188.3916015-.117188.1533203 0 .28125.0293.1279297.0293.2265625.07227v.228516h-.013672q-.083008-.07031-.21875-.116211-.1347656-.04687-.2763671-.04687-.1552735 0-.25.06445-.09375.06445-.09375.166015 0 .09082.046875.142579.046875.05176.165039.0791.0625.01367.1777344.0332.1152344.01953.1953125.04004.1621094.04297.2441406.129883.082031.08691.082031.243164zM4.8287868 15.624681q-.058594.01465-.1162109.02051-.056641.0068-.1162109.0068-.1699219 0-.2734375-.09375-.1025391-.09277-.1113282-.266601-.023437.0039-.045898.0049-.021484.002-.041992.002-.1533203 0-.2792969-.05078-.125-.05078-.2128906-.147461-.087891-.09668-.1357422-.237304-.046875-.140625-.046875-.321289 0-.177735.046875-.31836.046875-.141601.1367188-.242187.085937-.0957.2128906-.146485.1279297-.05078.2783203-.05078.15625 0 .2802735.05176.125.05078.211914.145508.088867.09766.1357422.239258.047852.141601.047852.321289 0 .266601-.109375.449218-.1083985.182618-.2919922.25586.00391.111328.052734.172851.048828.06152.1777343.06152.040039 0 .094727-.01269.055664-.01172.079102-.02149h.026367zM4.5983181 14.541673q0-.283203-.1269531-.436524-.1269532-.154297-.3466797-.154297-.2216797 0-.3486328.154297-.1259766.153321-.1259766.436524 0 .286133.1289063.438476.1289062.151367.3457031.151367.2167969 0 .3447265-.151367.1289063-.152343.1289063-.438476zM6.0260525 15.268235H5.1061306V13.814134H5.29949v1.282226h.7265625zM8.1510525 14.542649q0 .198242-.086914.359375-.085937.161133-.2294922.25-.099609.06152-.2226562.08887-.1220703.02734-.3222657.02734H6.9225368v-1.454101h.3632813q.2128906 0 .3378906.03125.1259766.03027.2128906.08398.1484375.09277.2314454.24707.083008.154297.083008.366211zM7.948904 14.53972q0-.170899-.05957-.288086-.05957-.117188-.1777344-.184571-.085937-.04883-.1826171-.06738-.09668-.01953-.2314454-.01953H7.1158962v1.122071h.1816406q.1396485 0 .2431641-.02051.1044922-.02051.1914063-.07617.1083984-.06934.1621093-.182617.054687-.113282.054687-.283203zM9.2965603 15.268235H9.1139431v-.116211q-.024414.0166-.066406.04687-.041016.0293-.080078.04687-.045898.02246-.1054687.03711-.05957.01563-.1396485.01563-.1474609 0-.25-.09766-.102539-.09766-.102539-.249023 0-.124023.052734-.200195.053711-.07715.1523438-.121094.099609-.04394.2392578-.05957.1396484-.01563.2998047-.02344v-.02832q0-.0625-.022461-.103516-.021484-.04101-.0625-.06445-.039063-.02246-.09375-.03027-.054687-.0078-.1142579-.0078-.072266 0-.1611328.01953-.088867.01856-.1835937.05469h-.00977v-.186524q.053711-.01465.1552734-.03223.1015625-.01758.2001953-.01758.1152344 0 .2001953.01953.085937.01855.1484375.06445.061523.04492.09375.116211.032227.07129.032227.176758zM9.1139431 14.999681V14.69597q-.083984.0049-.1982422.01465-.1132812.0098-.1796875.02832-.079102.02246-.1279297.07031-.048828.04687-.048828.129883 0 .09375.056641.141601.056641.04687.1728516.04687.09668 0 .1767578-.03711.080078-.03809.1484375-.09082zM10.216482 15.25847q-.05176.01367-.113281.02246-.06055.0088-.1083985.0088-.1669922 0-.2539063-.08984-.086914-.08984-.086914-.288086V14.331712H9.5299587v-.154297h.1240235v-.313477h.1835937v.313477h.3789061v.154297H9.8375759v.49707q0 .08594.00391.134766.00391.04785.027344.08984.021484.03906.058594.05762.038086.01758.1152343.01758.04492 0 .09375-.0127.04883-.01367.07031-.02246h.0098zM11.285818 15.268235h-.182617v-.116211q-.02441.0166-.06641.04687-.04102.0293-.08008.04687-.0459.02246-.105469.03711-.05957.01563-.139649.01563-.147461 0-.25-.09766-.102539-.09766-.102539-.249023 0-.124023.05274-.200195.05371-.07715.152343-.121094.09961-.04394.239258-.05957.139649-.01563.299805-.02344v-.02832q0-.0625-.02246-.103516-.02148-.04101-.0625-.06445-.03906-.02246-.09375-.03027-.05469-.0078-.114258-.0078-.07226 0-.161133.01953-.08887.01856-.183593.05469h-.0098v-.186524q.05371-.01465.155273-.03223.101563-.01758.200196-.01758.115234 0 .200195.01953.08594.01855.148438.06445.06152.04492.09375.116211.03223.07129.03223.176758zM11.103201 14.999681V14.69597q-.08398.0049-.198242.01465-.113282.0098-.179688.02832-.0791.02246-.127929.07031-.04883.04687-.04883.129883 0 .09375.05664.141601.05664.04687.172852.04687.09668 0 .176757-.03711.08008-.03809.148438-.09082zM12.599295 14.714524q0 .136719-.03906.246094-.03809.109375-.103515.183594-.06934.07715-.152344.116211-.08301.03809-.182617.03809-.09277 0-.16211-.02246-.06934-.02149-.136719-.05859l-.01172.05078h-.171875v-1.519531h.183593v.542969q.07715-.06348.164063-.103516.08691-.04102.195312-.04102.19336 0 .304688.148438.112305.148437.112305.418945zm-.189453.0049q0-.195312-.06445-.295898-.06445-.101563-.208007-.101563-.08008 0-.16211.03516-.08203.03418-.152344.08887v.625q.07813.03516.13379.04883.05664.01367.127929.01367.152344 0 .238281-.09961.08691-.100586.08691-.314453zM13.733084 15.268235h-.182617v-.116211q-.02441.0166-.06641.04687-.04101.0293-.08008.04687-.0459.02246-.105469.03711-.05957.01563-.139648.01563-.147461 0-.25-.09766-.102539-.09766-.102539-.249023 0-.124023.05273-.200195.05371-.07715.152344-.121094.09961-.04394.239258-.05957.139648-.01563.299805-.02344v-.02832q0-.0625-.02246-.103516-.02149-.04101-.0625-.06445-.03906-.02246-.09375-.03027-.05469-.0078-.114258-.0078-.07227 0-.161133.01953-.08887.01856-.183594.05469h-.0098v-.186524q.05371-.01465.155273-.03223.101563-.01758.200195-.01758.115235 0 .200196.01953.08594.01855.148437.06445.06152.04492.09375.116211.03223.07129.03223.176758zM13.550467 14.999681V14.69597q-.08399.0049-.198243.01465-.113281.0098-.179687.02832-.0791.02246-.12793.07031-.04883.04687-.04883.129883 0 .09375.05664.141601.05664.04687.172851.04687.09668 0 .176758-.03711.08008-.03809.148438-.09082zM14.865896 14.953782q0 .149414-.124023.245117-.123047.0957-.336914.0957-.121094 0-.222657-.02832-.100585-.0293-.168945-.06348v-.206055h.0098q.08691.06543.193359.104492.106445.03809.204102.03809.121093 0 .189453-.03906.06836-.03906.06836-.123046 0-.06445-.03711-.09766-.03711-.0332-.142578-.05664-.03906-.0088-.102539-.02051-.0625-.01172-.114258-.02539-.143555-.03809-.204102-.111328-.05957-.07422-.05957-.18164 0-.06738.02734-.126954.02832-.05957.08496-.106445.05469-.0459.138672-.07227.08496-.02734.189453-.02734.09766 0 .197265.02441.100586.02344.166992.05762v.196289h-.0098q-.07031-.05176-.170899-.08691-.100586-.03613-.197265-.03613-.100586 0-.169922.03906-.06934.03809-.06934.114257 0 .06738.04199.101563.04102.03418.132813.05566.05078.01172.113281.02344.06348.01172.105469.02148.127929.0293.197265.100586.06934.07226.06934.191406zM16.041677 14.741868h-.80371q0 .100586.03027.175781.03027.07422.08301.122071.05078.04687.120117.07031.07031.02344.154297.02344.111328 0 .223633-.04395.113281-.04492.161132-.08789h.0098v.200195q-.09277.03906-.189453.06543-.09668.02637-.203125.02637-.271484 0-.423828-.146485-.152344-.14746-.152344-.417968 0-.267578.145508-.424805.146484-.157227.384766-.157227.220703 0 .339843.128907.120117.128906.120117.366211zm-.17871-.140625q-.000977-.144531-.07324-.223633-.07129-.0791-.217773-.0791-.147461 0-.235352.08691-.08691.08691-.09863.21582z"/></g></svg>