<svg xmlns="http://www.w3.org/2000/svg" role="img" viewBox="-0.48 -0.17 18.72 17.34"><title>Azure Virtual Machine logo</title><defs><linearGradient id="a" x1="8.88" x2="8.88" y1="12.21" y2=".21" gradientUnits="userSpaceOnUse"><stop offset="0" stop-color="#0078d4"/><stop offset=".82" stop-color="#5ea0ef"/></linearGradient><linearGradient id="b" x1="8.88" x2="8.88" y1="16.84" y2="12.21" gradientUnits="userSpaceOnUse"><stop offset=".15" stop-color="#ccc"/><stop offset="1" stop-color="#707070"/></linearGradient></defs><rect width="18" height="12" x="-.12" y=".21" fill="url(#a)" rx=".6"/><path fill="#50e6ff" d="M11.88 4.46L11.88 7.95 8.88 9.71 8.88 6.21 11.88 4.46z"/><path fill="#c3f1ff" d="M11.88 4.46L8.88 6.22 5.88 4.46 8.88 2.71 11.88 4.46z"/><path fill="#9cebff" d="M8.88 6.22L8.88 9.71 5.88 7.95 5.88 4.46 8.88 6.22z"/><path fill="#c3f1ff" d="M5.88 7.95L8.88 6.21 8.88 9.71 5.88 7.95z"/><path fill="#9cebff" d="M11.88 7.95L8.88 6.21 8.88 9.71 11.88 7.95z"/><path fill="url(#b)" d="M12.49,15.84c-1.78-.28-1.85-1.56-1.85-3.63H7.11c0,2.07-.06,3.35-1.84,3.63a1,1,0,0,0-.89,1h9A1,1,0,0,0,12.49,15.84Z"/></svg>