<svg xmlns="http://www.w3.org/2000/svg" role="img" viewBox="0.52 -3.23 350.22 91.97"><title>BI Builders AS logo</title><path d="M7.4 58.6V39.3c0-2 1.6-3.7 3.7-3.7h26.7c1.7 0 3.5.2 5.1.8 3.1 1.1 4.8 3.4 5.4 6.5.8 3.8.2 7.4-1.5 10.9-.5 1-.9 1.9-1.4 2.9-.2.5-.2.9 0 1.4.5.8 1 1.6 1.4 2.4 1.8 3.1 2.5 6.5 2.4 10.1-.1 2-.4 3.9-1.2 5.8-1.4 3.1-4 4.8-7.3 5.2-.8.1-1.7.1-2.5.1H11.3c-1.7 0-2.8-.9-3.5-2.2-.2-.3-.2-.8-.2-1.2-.2-6.6-.2-13.1-.2-19.7zm20.2 16.3h.8c1.9 0 3.8 0 5.6-.6 2-.6 3.4-1.9 3.9-4 .3-1.2.3-2.4.1-3.6-.2-1.6-.8-3-2.1-4-1.1-.8-2.4-1.3-3.8-1.3-2.8-.1-5.6-.2-8.4-.2-.7 0-1.4.1-2.1.2-1.9.3-2.8 1.1-3 3-.2 2.3-.2 4.7 0 7 .1 1.9 1.1 2.8 3 3 2.1.3 6 .5 6 .5zm-.3-32.6h-1.8c-1.4 0-2.8.1-4.2.2-1.5.2-2.3.9-2.5 2.4-.3 2.1-.3 4.3 0 6.4.2 2 1 2.8 3 3.2h.4c1.5.1 3 .2 4.5.2 2.1 0 4.2.1 6.3-.3 1.8-.3 3.3-1.1 4.1-2.8.8-2 .8-4-.1-5.9-.9-1.9-2.4-3-4.5-3.2-1.8-.1-5.2-.2-5.2-.2zm64.2 16.2V39.1c0-2.3.9-3.4 3.2-3.8 1.5-.3 3.1-.2 4.6.3 1.4.5 2.5 1.4 2.5 3.4-.1 2.5 0 5.1 0 7.7 0 1.4.2 1.6 1.6 1.6h13.8c2.3 0 4.6.4 6.6 1.8 1.8 1.2 2.7 3 3 5.2.1.7.1 1.4.1 2.1v16.1c0 3.6-3 7.3-5.8 8-.5.1-1 .2-1.5.2H94c-.5 0-.8-.1-1.1-.5-.8-1-1.3-2-1.3-3.3-.1-6.5-.1-13-.1-19.4zm10.2 7.1c.1 2 .1 4 .3 6 .3 2.8 1.7 4.3 4.4 4.9 2.4.5 4.8.4 7.1 0 2.3-.5 3.8-1.9 4.2-4.2.2-1 .3-2 .3-3 .1-2.6 0-5.2 0-7.8 0-.8-.1-1.6-.2-2.4-.4-2.6-1.8-4-4.3-4.5-2.3-.5-4.6-.5-6.9-.1-1.1.2-2.2.6-3.1 1.4-1.2 1.2-1.6 2.7-1.7 4.3 0 1.9 0 5.4-.1 5.4zm138.4-7v19.9c0 1.2-.3 2-1.8 2.6-1 .4-2 .6-3.1.6h-16.6c-2.2 0-4.5-.2-6.6-.8-3.5-1-5.6-3.3-6.4-6.8-.4-2-.6-4.1-.6-6.1-.1-2.8 0-5.7.3-8.5.3-2.4.9-4.8 2.1-6.9 1.7-2.8 4.2-4.2 7.5-4.3h13.5c.7 0 1.2-.3 1.4-.9.1-.5.3-1 .3-1.5v-7.2c0-1.4.6-2.4 1.9-2.9 2.2-.8 4.4-.8 6.5.2 1.1.5 1.6 1.4 1.6 2.7v19.9zm-10 1.1c0-.3-.1-.5-.1-.8-.3-2.5-1.6-3.9-4.1-4.3-2.2-.3-4.4-.3-6.5 0-1.5.2-2.9.9-3.6 2.3-.5 1-.7 2-.7 3.1v9.1c0 .7.1 1.4.1 2.1.3 2.7 1.7 4.2 4.3 4.6 1.6.2 3.3.2 4.9.2.6 0 1.2-.1 1.8-.2 2.4-.5 3.6-1.7 3.9-4.2V59.7zm37.7 7.5h-8.6c-2 0-3 .8-3.6 2.7-.4 1.2-.3 2.4.1 3.6.4 1.4 1.4 2.2 2.9 2.5.9.2 1.9.2 2.8.2h13.9c1.2 0 2 .5 2.3 1.7.1.5.2 1.1.1 1.7-.1 1.3-.8 1.9-2.2 2.1-.4.1-.9.1-1.3.1h-11c-3.3 0-6.5-.1-9.8-.7-1.6-.3-3.2-.8-4.5-1.8-1.7-1.3-2.4-3.1-2.9-5-.5-2.2-.6-4.3-.6-6.6 0-2.6.1-5.1.2-7.7.1-2.2.6-4.4 1.6-6.4 1.5-3.1 4-4.9 7.4-5.3 1.7-.2 3.4-.4 5.1-.4 3.3 0 6.7 0 10 .2 2.8.2 5.3 1.1 7.3 3.2 1.2 1.3 2 2.8 2.6 4.4.9 2.5 1.3 5.1 1 7.8-.1.5-.2 1-.5 1.5-.6 1.4-1.7 2.2-3.4 2.2-2.9-.1-5.9 0-8.9 0zM263 54.3s-2.3.1-3.5.1c-1.1 0-2.2.2-3 1-1.3 1.1-1.3 2.6-.9 4.1.4 1.4 1.4 2.1 2.7 2.2 1.3.2 2.6.2 3.9.2 1.5 0 3 0 4.6-.1 1.5-.1 2.9-.7 3.3-2.4.2-.8.2-1.8.1-2.6-.2-1.3-1.2-2.1-2.8-2.3-1.4-.1-2.9-.1-4.4-.2zM166.9 65v13.2c0 1.9-1.7 3.6-3.5 3.6h-20.3c-2.8 0-5.4-.8-7.6-2.6-2.1-1.6-3.2-3.7-3.2-6.4V58.7c0-2.2.1-4.5 0-6.8-.1-2.2.9-3.2 3-3.6 1.6-.3 3.2-.3 4.8.3s2.3 1.7 2.3 3.4v19.5c0 1.6.6 2.8 1.9 3.5 3 1.7 6.4 2 10 .3 1.6-.8 2.4-2.3 2.4-4.1 0-6.5.1-13 .1-19.5 0-1.7.6-2.6 2.2-3.1 2-.7 4.1-.7 6.1.3 1.2.6 1.8 1.6 1.8 3V65zm157 16.8H313c-1.2 0-1.8-.4-2.2-1.5-.4-.9-.4-1.9-.1-2.9.2-.8.8-1.5 2-1.5h16.6c.9 0 1.9-.2 2.7-.6 1.8-.9 2.2-2.8 1-4.4-1-1.2-2.4-1.9-4-1.9-3.3 0-6.6.1-9.9 0-2.6-.1-5-.7-6.8-2.6-1.2-1.2-1.8-2.6-2.1-4.2-.5-2.3-.4-4.6.1-6.9.8-3.4 3-5.4 6.4-6.3 2.2-.6 4.4-.7 6.6-.7H336c1.3 0 2 .5 2.3 1.8.3 1.1.2 2.1-.2 3.1-.4.8-1 1.3-2 1.3h-11.3c-.7 0-1.3 0-2 .1-1.4.2-2.1.8-2.3 1.8-.2 1.2.3 2.4 1.3 3.1 1.1.7 2.4 1 3.8 1 2.5 0 4.9 0 7.4.1 2 0 3.9.2 5.8.8 2.3.8 3.9 2.3 4.6 4.7.9 3.1 1 6.3.2 9.5-.9 3.5-3.3 5.4-6.8 6-1.1.2-2.2.3-3.3.3-3.3-.1-6.4-.1-9.6-.1zM54.6 58.7V38.5c0-1.1.5-1.8 1.4-2.2 1.5-.7 3.1-.8 4.7-.7 1.3.1 2.6.3 3.8.9.9.4 1.3 1.1 1.3 2v40.4c0 1-.4 1.6-1.2 2-1.7.8-3.4 1-5.2.9-1.1-.1-2.2-.3-3.3-.7-1.1-.3-1.5-1-1.5-2.2V58.7zm145-.3v19c0 .5-.1 1-.1 1.5-.2 1.3-1.1 2.1-2.3 2.4-1.7.4-3.4.4-5.1 0-1.7-.4-2.5-1.6-2.6-3.4v-.8-37.3c0-.4 0-.8.1-1.1.3-2 1.5-3.1 3.4-3.2 1.1-.1 2.3-.1 3.5.1 2.1.4 3.2 1.7 3.2 3.9-.1 6.2-.1 12.5-.1 18.9zm97-10.1h6.8c.8 0 1.6.2 2.3.6 1.3.6 1.9 1.8 1.6 3.3-.2 1.1-1.1 1.9-2.6 2-.9.1-1.8.2-2.7.1-2.6 0-4.3 1.3-5.5 3.4-.8 1.3-1.1 2.8-1.1 4.4v16.6c0 1.7-.9 2.6-2.2 3-2 .6-4.1.6-6.1-.2-1.3-.5-1.9-1.4-1.9-2.8V51.9c0-1.4.8-2.2 1.8-2.8.9-.5 1.9-.8 2.9-.8h6.7zM173.4 65.4V51.8c0-1.7.6-2.6 2.2-3.1s3.3-.5 5-.1c1.6.4 2.4 1.4 2.6 3.1.1.5.1.9.1 1.4v25.5c0 1.5-.5 2.3-1.9 2.9-2.2.9-4.4.9-6.5-.2-1-.5-1.6-1.3-1.5-2.5V65.4zm4.9-41.8h-2.1c-1.6 0-2.8-1.2-2.8-2.8v-4.2c0-1.7 1.1-2.8 2.8-2.9h4.3c1.6 0 2.8 1.2 2.8 2.9v4.2c0 1.6-1.2 2.8-2.8 2.8h-2.2zm4.9-14.8v-2c0-1.7 1.1-2.9 2.8-3h4.3c1.7 0 2.8 1.2 2.8 2.9v4.2c0 1.6-1.2 2.8-2.7 2.8H186c-1.6 0-2.8-1.2-2.8-2.8V8.8zm0 29.5v2.1c0 1.5-1.1 2.7-2.7 2.8h-4.6c-1.5 0-2.6-1.2-2.6-2.8v-4.3c0-1.6 1.1-2.8 2.7-2.8h4.4c1.6 0 2.8 1.2 2.8 2.8v2.2zm29.6-29.5V11c0 1.4-1.1 2.6-2.6 2.7h-4.7c-1.5 0-2.6-1.2-2.6-2.8V6.7c0-1.8 1.1-2.9 2.8-3h4.2c1.7 0 2.8 1.2 2.8 2.9.1.8.1 1.5.1 2.2zm9.9 19.7v2.2c0 1.5-1.1 2.7-2.6 2.7h-4.6c-1.5 0-2.6-1.2-2.6-2.7v-4.3c0-1.6 1.1-2.8 2.8-2.9h4.3c1.6 0 2.8 1.2 2.8 2.9-.1.7-.1 1.4-.1 2.1zM203 18.7v2.1c0 1.6-1.2 2.7-2.8 2.7h-4.3c-1.6 0-2.8-1.2-2.8-2.8v-4.3c0-1.6 1.2-2.8 2.8-2.8h4.3c1.6 0 2.8 1.2 2.8 2.9v2.2zm-9.9 9.8v2.3c0 1.3-1.2 2.5-2.5 2.6-1.5 0-3.1.1-4.6.1-1.6 0-2.7-1.2-2.8-2.8v-4.3c0-1.6 1.1-2.8 2.8-2.9h4.3c1.6 0 2.8 1.2 2.8 2.9v2.1z" fill="#231F20" fill-rule="evenodd" clip-rule="evenodd"/></svg>