<svg xmlns="http://www.w3.org/2000/svg" role="img" viewBox="-1.91 -1.91 99.58 26.08"><title>CData Software logo</title><path fill="#10C3F4" d="M38.9 22.3H26.2c-4.6 0-6.5-3.9-6.7-6.6V11.3c0-2.3 1-3.7 1.8-4.5C23.1 5 25.7 5 26.3 5h6.3l4.2 4.3H26.1c-.3 0-1.3.1-1.8.6-.1.1-.4.4-.4 1.3v4.2c.1.8.4 2.5 2.4 2.5h10.5V0h4.3v20.1c0 1.2-1 2.2-2.2 2.2m20.7 0H49.1c-4.6 0-6.5-3.9-6.7-6.6V11.3c0-2.3 1-3.7 1.8-4.5 1.9-1.7 4.4-1.8 5-1.8h12.6c1.2 0 2.1 1 2.1 2.2v15h-4.3V9.3H49c-.3 0-1.3.1-1.8.6-.1.1-.4.4-.4 1.3v4.2c.1.8.4 2.5 2.4 2.5h6.1l4.3 4.4zm31.8 0H80.9c-4.6 0-6.5-3.9-6.7-6.6V11.3c0-2.3.9-3.7 1.8-4.5C77.9 5.1 80.4 5 81 5h12.6c1.2 0 2.2 1 2.2 2.2v15h-4.4V9.3H80.8c-.3 0-1.3.1-1.9.6-.1.1-.4.4-.4 1.3v4.2c.1.8.4 2.5 2.4 2.5h6.2l4.3 4.4z"/><path fill="#10C3F4" d="M72 18h-.6c-1 0-1.3-.4-1.4-.5-.5-.5-.5-1.5-.5-1.7V7.3h3V3h-3V0h-4.3v15.5c0 .5 0 3 1.7 4.8.8.8 2.2 1.9 4.5 1.9h4.9L72 18z"/><path fill="#333332" d="M21.4 22.3H6.7c-4.6 0-6.5-3.9-6.7-6.6V11.3C0 9 1 7.6 1.8 6.8 3.6 5.1 6.2 5 6.7 5h14.6L17 9.4H6.6c-.3 0-1.3.1-1.8.6-.1.1-.4.4-.4 1.3v4.2c0 .8.3 2.5 2.3 2.5H17l4.4 4.3z"/><path fill="#10C3F4" d="M12.7 13.7L17 18V9.3z"/></svg>