<svg xmlns="http://www.w3.org/2000/svg" role="img" viewBox="-23.98 -23.98 1246.96 578.96"><title>CluedIn Data Quality logo</title><path fill="#1b3c4f" d="M487.6 130.6s.4 2.7-1.5 10.4-2.8 9-2.8 9-14.2-5.2-29.1-5.2c-14.9 0-42.8 6.4-42.8 52.1s32.2 49.1 43.1 49.1c21.8 0 29.2-4.5 29.2-4.5s1.2.3 3.5 9.4c2.2 9.1 1.7 9.5 1.7 9.5s-10.2 6.2-38.8 6.2c-28.6 0-63.7-15.9-63.7-69 0-45.6 24.2-72.4 67.5-72.4 23.9.2 33.7 5.4 33.7 5.4zM514 78.3s.8-.8 11.6-.8c10.8 0 12.4.8 12.4.8v152.4c0 11 7.5 16.7 14.6 16.7 11.7 0 13.1-.2 13.1-.2s.8.5 1.5 8.5.4 8.5.4 8.5.2 2.4-17.2 2.4c-17.2 0-36.4-6.9-36.4-34.5zm72.4 49.3s.1-.8 12.1-.8c12.1 0 12.1.8 12.1.8v82.3c0 30 17.6 36 32.4 36 23.8 0 30-2.4 30-2.4V127.6s1-.8 11.6-.8 12.2.8 12.2.8v130.9s-19.1 8.2-50.1 8.2c-36.8 0-60.4-15.4-60.4-57.8s.1-81.3.1-81.3zm256.9 73.2c2.2-25.3-.9-75.9-57.6-75.9-39 0-62.1 30.1-62.1 71 0 30.8 13.9 71 67.7 71 27.7 0 43.9-7.1 43.9-7.1s.4-.8-1.3-9.4c-1.7-8.6-2.7-9.9-2.7-9.9s-9 5.4-44.1 5.4c-38.2 0-36.9-45-36.9-45h93.1zm-57.6-56.5c35.8 0 34.3 39 34.3 39h-69.6c.1 0 2.7-39 35.3-39zm173.8-66v51.8s-8.7-4.4-29-4.4-65.7 12.6-65.7 71.4c0 58.8 42 69.6 67.1 69.6 25.1 0 51.7-7.3 51.7-7.3V78.3s-4.1-.8-11.9-.8c-7.8 0-12.2.8-12.2.8zm0 164.8s-7.3 4.7-26.2 3.4c-17.8-1.2-42.6-6.1-42.6-49.1 0-45.6 30.9-53.1 44.6-52.2 20.8 1.3 24.1 5.1 24.1 5.1v92.8zm50-112.1h43.2v135.1s-.2.8-12.6.8-13.1-.8-13.1-.8V151.2h-17.4s-.5-.6-.5-10.1.4-10.1.4-10.1zm40.8-24.9s-1.1.5-14.6.5-14.8-.5-14.8-.5-.5-1.5-.5-14 .5-13.1.5-13.1.6-.6 14.8-.6c14.2 0 14.6.6 14.6.6s.4 2.6.4 14-.4 13.1-.4 13.1zm37.6 23.9s.4-.7 10.1-.7 10.1.7 10.1.7 2.3 14.8 1.7 25.9c0 0 12.9-28.3 45.5-28.3s44.5 21 44.5 48.2v90.3s-1.5.8-12.3.8c-10.9 0-12.2-.8-12.2-.8v-87.9c0-12.5-5.5-29.7-26.7-29.7-23.6 0-37 23.3-37 44.3v73.3s-1.4.8-11.8.8-12-.8-12-.8V130z"/><linearGradient id="a" x1="79.397" x2="290.513" y1="361.944" y2="34.079" gradientUnits="userSpaceOnUse"><stop offset="0" stop-color="#243d75"/><stop offset=".435" stop-color="#0fa0a3"/><stop offset="1" stop-color="#11abab"/></linearGradient><path fill="url(#a)" d="M325.5 329.4s0-.1 0 0c.2-.2.3-.4.5-.6.1-.2.3-.4.4-.7.1-.2.2-.5.3-.7.1-.2.2-.5.3-.7v-.1c.1-.2.1-.4.2-.7v-.1c0-.2.1-.4.1-.6v-.2-.6-.1-.1-.5-.3c0-.2 0-.3-.1-.5v-.3c0-.2-.1-.4-.1-.5 0-.1 0-.1-.1-.2-.1-.2-.1-.4-.2-.6 0-.1 0-.1-.1-.2l-.3-.6s0-.1-.1-.1l-.3-.6s0-.1-.1-.1c-.1-.2-.2-.3-.3-.5 0-.1-.1-.1-.1-.2l-.3-.3c-.1-.1-.1-.2-.2-.3l-31.1-31.1-30.6-30.6-.3-.3c-.1-.1-.2-.2-.3-.2-.1-.1-.2-.2-.3-.2-.1-.1-.2-.2-.3-.2-.1-.1-.2-.1-.3-.2-.1-.1-.2-.1-.3-.2-.1-.1-.2-.1-.4-.2-.1-.1-.2-.1-.3-.2-.1-.1-.2-.1-.4-.1-.1 0-.2-.1-.4-.1-.1 0-.2-.1-.4-.1-.1 0-.2-.1-.4-.1-.1 0-.2 0-.4-.1-.1 0-.3 0-.4-.1h-2c-.1 0-.3 0-.4.1-.1 0-.2.1-.4.1-.1 0-.2.1-.4.1-.1 0-.2.1-.4.1-.1 0-.2.1-.4.1-.1 0-.2.1-.4.2-.1.1-.2.1-.3.2-.1.1-.2.1-.4.2-.1.1-.2.1-.3.2-.1.1-.2.2-.3.2-.1.1-.2.1-.3.2l-.3.3-.2.2c-1 .9-2.1 1.9-3.1 2.8-15.9 13.4-35.9 20.7-56.8 20.7-48.6 0-88.2-39.6-88.2-88.2s39.6-88.2 88.2-88.2c21.8 0 42.7 8 58.9 22.6l.1.1.3.3c.1.1.2.1.3.2.1.1.2.2.3.2.1.1.2.1.3.2.1.1.2.1.4.2.1.1.2.1.3.2.1.1.2.1.4.2.1 0 .2.1.4.1.1 0 .2.1.4.1.1 0 .2.1.4.1.1 0 .2.1.4.1.1 0 .3 0 .4.1h2c.1 0 .2 0 .4-.1.1 0 .3 0 .4-.1.1 0 .2-.1.3-.1.1 0 .3-.1.4-.1.1 0 .2-.1.3-.1.1 0 .3-.1.4-.1.1 0 .2-.1.3-.2.1-.1.2-.1.4-.2.1-.1.2-.1.3-.2.1-.1.2-.1.3-.2.1-.1.3-.2.4-.3.1-.1.2-.1.2-.2.2-.2.4-.3.6-.5l31.6-31.6L324 64.2c.2-.2.4-.4.5-.6.9-1.1 1.4-2.3 1.7-3.6v-.1c0-.2.1-.4.1-.6V59v-.5-.2-.5-.3c0-.2 0-.3-.1-.5 0-.1 0-.2-.1-.3 0-.2-.1-.3-.1-.5 0-.1-.1-.2-.1-.3-.1-.2-.1-.3-.2-.5 0-.1-.1-.2-.1-.2-.1-.2-.1-.3-.2-.5 0-.1-.1-.2-.1-.2-.1-.1-.2-.3-.3-.4-.1-.1-.1-.2-.2-.3-.1-.1-.2-.2-.3-.4l-.3-.3c-.1-.1-.1-.2-.2-.2 0 0-.1 0-.1-.1l-.1-.1C288.1 18.7 241.2 0 191.8 0c-43.6 0-86.2 15-120.1 42.3C38.3 69.1 14.6 106.7 5 148.2v.1c0 .2-.1.4-.1.6v2.1c0 .2.1.5.1.7 0 .1 0 .1.1.2.1.2.1.4.2.6 0 .1.1.2.1.2.1.2.1.4.2.5 0 .1.1.2.1.3.1.2.2.3.3.5.1.1.1.2.2.3.1.2.2.3.3.5 0 .1.1.1.1.2v.1c.2.2.3.4.5.6l.6.6.2.2c.2.1.3.2.5.3.1.1.2.1.2.1.2.1.3.2.5.3.1 0 .2.1.2.1.2.1.4.2.6.2.1 0 .2.1.2.1.2.1.4.1.6.2.1 0 .2 0 .2.1.2 0 .4.1.6.1H57c.5 0 1.1-.1 1.6-.2.2 0 .3-.1.5-.1.1 0 .2 0 .3-.1.2-.1.4-.1.5-.2.1 0 .1 0 .2-.1.2-.1.3-.2.5-.2.1 0 .1-.1.2-.1.1-.1.3-.2.4-.2.1-.1.2-.1.3-.2.1-.1.2-.2.3-.2.1-.1.2-.2.3-.2l.2-.2c.1-.1.2-.2.4-.3.1-.1.1-.1.1-.2l.4-.4s.1-.1.1-.2c.1-.2.2-.3.3-.5.1-.1.1-.2.2-.2.1-.1.2-.3.2-.4.3-.5.5-1 .6-1.5 17.4-56 68.5-93.7 127.2-93.7 31.1 0 60.8 10.7 84.6 30.4L256 109.4c-18.2-14.1-40.5-21.8-63.8-21.8-54.8 0-99.8 42.5-103.9 96.2H8c-4.4 0-8 3.6-8 8s3.6 8 8 8h80.5c4.1 53.7 49.1 96.2 103.9 96.2 23.7 0 46.5-8 64.9-22.7l20.3 20.4c-24 20.2-54.1 31.3-85.8 31.3-58.7 0-109.8-37.6-127.2-93.7l-.6-1.5c-.1-.1-.1-.2-.2-.4-.1-.1-.1-.2-.2-.3-.1-.2-.2-.3-.3-.4 0-.1-.1-.1-.1-.2-.1-.1-.2-.3-.4-.4l-.2-.2c-.1-.1-.2-.2-.4-.3l-.2-.2-.3-.3c-.1-.1-.2-.1-.3-.2-.1-.1-.2-.1-.3-.2-.1-.1-.2-.1-.4-.2-.1 0-.2-.1-.3-.1-.1-.1-.3-.1-.4-.2-.1 0-.2-.1-.3-.1-.1 0-.3-.1-.4-.1-.2-.1-.3-.1-.5-.1-.1 0-.2 0-.2-.1-.5-.1-1.1-.2-1.7-.2H11.7c-.2 0-.4.1-.6.1-.1 0-.2 0-.2.1-.2.1-.4.1-.6.2-.1 0-.2.1-.2.1-.2.1-.4.1-.6.2-.1 0-.2.1-.2.1-.2.1-.3.2-.5.3-.1 0-.2.1-.2.1-.2.1-.3.2-.5.4-.1 0-.1.1-.2.1l-.6.6-.6.6-.1.1c-.1.2-.2.3-.4.5 0 .1-.1.2-.1.2-.1.2-.2.3-.3.5 0 .1-.1.2-.1.2-.1.2-.2.4-.2.6 0 .1-.1.1-.1.2-.1.2-.1.4-.2.6 0 .1 0 .1-.1.2-.1.2-.1.5-.1.7v2.2c0 .2.1.4.1.6v.1c9.6 41.5 33.3 79.1 66.7 105.9 33.9 27.3 76.6 42.3 120.1 42.3 49.8 0 97-19 132.8-53.5l.2-.2.1-.1.1-.1.3-.3c0 .3.1.2.1.2zM191.8 42.7c-32.5 0-63.4 10.3-89.3 29.7C79.1 90 61 114.5 51.2 142H23.1C45 67.3 113 16 191.8 16c42.5 0 83 15.1 115 42.8l-19 18.9c-26.8-22.6-60.6-35-96-35zm0 325c-78.8 0-146.8-51.3-168.7-126h28.1c9.8 27.5 27.8 52.1 51.3 69.6 25.9 19.4 56.8 29.7 89.3 29.7 35.9 0 70.1-12.7 97.1-36l18.9 18.9c-32 28.3-72.9 43.8-116 43.8z"/><path d="M390.08912 483.77807q0 8.45833-3.70834 15.33333-3.66666 6.87499-9.79166 10.66666-4.25 2.625-9.49999 3.79166-5.20834 1.16667-13.75 1.16667h-15.66666v-62.04164h15.5q9.08332 0 14.41666 1.33333 5.37499 1.29167 9.08333 3.58333 6.33333 3.95833 9.87499 10.54167 3.54167 6.58333 3.54167 15.62499zm-8.625-.125q0-7.29166-2.54167-12.29166-2.54166-5-7.58333-7.875-3.66666-2.08333-7.79166-2.875-4.125-.83333-9.87499-.83333h-7.75v47.87498h7.75q5.95833 0 10.37499-.875 4.45833-.875 8.16666-3.25 4.625-2.95833 6.91667-7.79166 2.33333-4.83333 2.33333-12.08333zm57.49997 31.08332h-7.79166v-4.95833q-1.04167.70833-2.83333 2-1.75 1.25-3.41667 2-1.95833.95833-4.5 1.58333-2.54166.66667-5.95833.66667-6.29166 0-10.66666-4.16667-4.375-4.16666-4.375-10.625 0-5.29166 2.25-8.54166 2.29167-3.29166 6.5-5.16666 4.25-1.875 10.20833-2.54167 5.95833-.66666 12.79166-1v-1.20833q0-2.66667-.95833-4.41667-.91667-1.74999-2.66667-2.74999-1.66666-.95834-4-1.29167-2.33333-.33333-4.875-.33333-3.08333 0-6.87499.83333-3.79167.79167-7.83333 2.33333h-.41667v-7.95833q2.29167-.625 6.625-1.375t8.54166-.75q4.91667 0 8.54166.83334 3.66667.79166 6.33334 2.74999 2.62499 1.91667 3.99999 4.95834 1.375 3.04166 1.375 7.54166zm-7.79166-11.45833v-12.95833q-3.58333.20834-8.45833.625-4.83333.41667-7.66666 1.20834-3.375.95833-5.45833 2.99999-2.08334 2-2.08334 5.54167 0 4 2.41667 6.04166 2.41666 2 7.375 2 4.12499 0 7.54166-1.58333 3.41666-1.625 6.33333-3.875zm47.04165 11.04166q-2.20834.58334-4.83334.95834-2.58333.375-4.62499.375-7.125 0-10.83333-3.83334-3.70833-3.83333-3.70833-12.29166v-24.74999h-5.29167v-6.58333h5.29167v-13.37499h7.83333v13.37499h16.16666v6.58333h-16.16666v21.20833q0 3.66666.16666 5.74999.16667 2.04167 1.16667 3.83334.91666 1.66666 2.5 2.45833 1.625.75 4.91666.75 1.91667 0 4-.54167 2.08333-.58333 3-.95833h.41667zm45.62498.41667h-7.79166v-4.95833q-1.04167.70833-2.83333 2-1.75 1.25-3.41667 2-1.95833.95833-4.5 1.58333-2.54166.66667-5.95833.66667-6.29166 0-10.66666-4.16667-4.375-4.16666-4.375-10.625 0-5.29166 2.25-8.54166 2.29167-3.29166 6.5-5.16666 4.25-1.875 10.20833-2.54167 5.95833-.66666 12.79166-1v-1.20833q0-2.66667-.95833-4.41667-.91667-1.74999-2.66667-2.74999-1.66667-.95834-4-1.29167-2.33333-.33333-4.875-.33333-3.08333 0-6.87499.83333-3.79167.79167-7.83333 2.33333h-.41667v-7.95833q2.29167-.625 6.625-1.375t8.54166-.75q4.91667 0 8.54166.83334 3.66667.79166 6.33333 2.74999 2.625 1.91667 4 4.95834 1.375 3.04166 1.375 7.54166zm-7.79166-11.45833v-12.95833q-3.58333.20834-8.45833.625-4.83333.41667-7.66666 1.20834-3.375.95833-5.45834 2.99999-2.08333 2-2.08333 5.54167 0 4 2.41667 6.04166 2.41666 2 7.37499 2 4.125 0 7.54167-1.58333 3.41666-1.625 6.33333-3.875zm108.83328 26.66666q-2.5.625-4.95834.875-2.41666.29166-4.95833.29166-7.24999 0-11.66666-4-4.375-3.95833-4.75-11.37499-1 .16667-1.95833.20833-.91667.0833-1.79167.0833-6.54166 0-11.91666-2.16667-5.33333-2.16667-9.08333-6.29166-3.75-4.125-5.79166-10.125-2-6-2-13.70833 0-7.58333 2-13.58333 2-6.04166 5.83333-10.33332 3.66666-4.08334 9.08333-6.25 5.45833-2.16667 11.87499-2.16667 6.66667 0 11.95833 2.20833 5.33333 2.16667 9.04167 6.20834 3.79166 4.16666 5.79166 10.20832 2.04167 6.04167 2.04167 13.70833 0 11.375-4.66667 19.16666-4.625 7.79166-12.45833 10.91666.16667 4.75 2.25 7.375t7.58333 2.625q1.70833 0 4.04167-.54167 2.375-.5 3.375-.91666h1.125zm-9.83333-46.20832q0-12.08333-5.41667-18.62499-5.41666-6.58333-14.79166-6.58333-9.45833 0-14.87499 6.58333-5.375 6.54166-5.375 18.62499 0 12.20833 5.5 18.70833 5.49999 6.45833 14.74999 6.45833t14.70833-6.45833q5.5-6.5 5.5-18.70833zm59.62497 30.99999h-7.83333v-5.16667q-3.95833 3.125-7.58333 4.79167-3.625 1.66667-7.99999 1.66667-7.33333 0-11.41667-4.45834-4.08333-4.49999-4.08333-13.16666v-30.20832h7.83333v26.49999q0 3.54167.33334 6.08333.33333 2.5 1.41666 4.29167 1.125 1.83333 2.91667 2.66666 1.79166.83334 5.20833.83334 3.04166 0 6.625-1.58334 3.62499-1.58333 6.74999-4.04166v-34.74999h7.83333zm51.58331 0h-7.79167v-4.95833q-1.04166.70833-2.83333 2-1.75 1.25-3.41666 2-1.95834.95833-4.5 1.58333-2.54167.66667-5.95833.66667-6.29167 0-10.66666-4.16667-4.375-4.16666-4.375-10.625 0-5.29166 2.25-8.54166 2.29166-3.29166 6.49999-5.16666 4.25-1.875 10.20833-2.54167 5.95833-.66666 12.79166-1v-1.20833q0-2.66667-.95833-4.41667-.91667-1.74999-2.66666-2.74999-1.66667-.95834-4-1.29167-2.33334-.33333-4.875-.33333-3.08333 0-6.875.83333-3.79166.79167-7.83333 2.33333h-.41666v-7.95833q2.29166-.625 6.62499-1.375t8.54167-.75q4.91666 0 8.54166.83334 3.66666.79166 6.33333 2.74999 2.625 1.91667 4 4.95834 1.375 3.04166 1.375 7.54166zm-7.79167-11.45833v-12.95833q-3.58333.20834-8.45833.625-4.83333.41667-7.66666 1.20834-3.375.95833-5.45833 2.99999-2.08333 2-2.08333 5.54167 0 4 2.41666 6.04166 2.41667 2 7.375 2 4.125 0 7.54166-1.58333 3.41667-1.625 6.33333-3.875zm30.79168 11.45833h-7.83333v-64.83331h7.83333zm23.91666-54.33331h-8.83333v-8.125h8.83333zm-.5 54.33331h-7.83333v-46.54165h7.83333zm39.66665-.41667q-2.20834.58334-4.83334.95834-2.58333.375-4.62499.375-7.125 0-10.83333-3.83334-3.70833-3.83333-3.70833-12.29166v-24.74999h-5.29167v-6.58333h5.29167v-13.37499h7.83333v13.37499h16.16666v6.58333h-16.16666v21.20833q0 3.66666.16666 5.74999.16667 2.04167 1.16667 3.83334.91666 1.66666 2.5 2.45833 1.625.75 4.91666.75 1.91667 0 4-.54167 2.08333-.58333 3-.95833h.41667zm49.29164-46.12498l-27.16666 63.70831h-8.375l8.66667-19.41666-18.54166-44.29165h8.49999l14.29166 34.49999 14.41667-34.49999z"/></svg>