<svg xmlns="http://www.w3.org/2000/svg" role="img" viewBox="-23.98 -23.98 1246.96 430.96"><title>CluedIn logo</title><path fill="#1B3C4F" d="M487.6 130.6s.4 2.7-1.5 10.4-2.8 9-2.8 9-14.2-5.2-29.1-5.2-42.8 6.4-42.8 52.1 32.2 49.1 43.1 49.1c21.8 0 29.2-4.5 29.2-4.5s1.2.3 3.5 9.4c2.2 9.1 1.7 9.5 1.7 9.5s-10.2 6.2-38.8 6.2-63.7-15.9-63.7-69c0-45.6 24.2-72.4 67.5-72.4 23.9.2 33.7 5.4 33.7 5.4zM514 78.3s.8-.8 11.6-.8 12.4.8 12.4.8v152.4c0 11 7.5 16.7 14.6 16.7 11.7 0 13.1-.2 13.1-.2s.8.5 1.5 8.5.4 8.5.4 8.5.2 2.4-17.2 2.4c-17.2 0-36.4-6.9-36.4-34.5V78.3zm72.4 49.3s.1-.8 12.1-.8c12.1 0 12.1.8 12.1.8v82.3c0 30 17.6 36 32.4 36 23.8 0 30-2.4 30-2.4V127.6s1-.8 11.6-.8 12.2.8 12.2.8v130.9s-19.1 8.2-50.1 8.2c-36.8 0-60.4-15.4-60.4-57.8s.1-81.3.1-81.3zm256.9 73.2c2.2-25.3-.9-75.9-57.6-75.9-39 0-62.1 30.1-62.1 71 0 30.8 13.9 71 67.7 71 27.7 0 43.9-7.1 43.9-7.1s.4-.8-1.3-9.4-2.7-9.9-2.7-9.9-9 5.4-44.1 5.4c-38.2 0-36.9-45-36.9-45h93.1zm-57.6-56.5c35.8 0 34.3 39 34.3 39h-69.6c.1 0 2.7-39 35.3-39zm173.8-66v51.8s-8.7-4.4-29-4.4-65.7 12.6-65.7 71.4 42 69.6 67.1 69.6 51.7-7.3 51.7-7.3V78.3s-4.1-.8-11.9-.8-12.2.8-12.2.8zm0 164.8s-7.3 4.7-26.2 3.4c-17.8-1.2-42.6-6.1-42.6-49.1 0-45.6 30.9-53.1 44.6-52.2 20.8 1.3 24.1 5.1 24.1 5.1v92.8zm50-112.1h43.2v135.1s-.2.8-12.6.8-13.1-.8-13.1-.8V151.2h-17.4s-.5-.6-.5-10.1.4-10.1.4-10.1zm40.8-24.9s-1.1.5-14.6.5-14.8-.5-14.8-.5-.5-1.5-.5-14 .5-13.1.5-13.1.6-.6 14.8-.6 14.6.6 14.6.6.4 2.6.4 14-.4 13.1-.4 13.1zm37.6 23.9s.4-.7 10.1-.7 10.1.7 10.1.7 2.3 14.8 1.7 25.9c0 0 12.9-28.3 45.5-28.3s44.5 21 44.5 48.2v90.3s-1.5.8-12.3.8c-10.9 0-12.2-.8-12.2-.8v-87.9c0-12.5-5.5-29.7-26.7-29.7-23.6 0-37 23.3-37 44.3v73.3s-1.4.8-11.8.8-12-.8-12-.8V130z"/><linearGradient id="a" x1="79.397" x2="290.514" y1="361.944" y2="34.079" gradientUnits="userSpaceOnUse"><stop offset="0" stop-color="#243d75"/><stop offset=".435" stop-color="#0fa0a3"/><stop offset="1" stop-color="#11abab"/></linearGradient><path fill="url(#a)" d="M325.5 329.4s0-.1 0 0c.2-.2.3-.4.5-.6.1-.2.3-.4.4-.7.1-.2.2-.5.3-.7.1-.2.2-.5.3-.7v-.1c.1-.2.1-.4.2-.7v-.1c0-.2.1-.4.1-.6v-.2-.6-.1-.1-.5-.3c0-.2 0-.3-.1-.5v-.3c0-.2-.1-.4-.1-.5 0-.1 0-.1-.1-.2-.1-.2-.1-.4-.2-.6 0-.1 0-.1-.1-.2l-.3-.6s0-.1-.1-.1l-.3-.6s0-.1-.1-.1c-.1-.2-.2-.3-.3-.5 0-.1-.1-.1-.1-.2l-.3-.3c-.1-.1-.1-.2-.2-.3l-31.1-31.1-30.6-30.6-.3-.3c-.1-.1-.2-.2-.3-.2-.1-.1-.2-.2-.3-.2-.1-.1-.2-.2-.3-.2-.1-.1-.2-.1-.3-.2-.1-.1-.2-.1-.3-.2-.1-.1-.2-.1-.4-.2-.1-.1-.2-.1-.3-.2-.1-.1-.2-.1-.4-.1-.1 0-.2-.1-.4-.1-.1 0-.2-.1-.4-.1-.1 0-.2-.1-.4-.1-.1 0-.2 0-.4-.1-.1 0-.3 0-.4-.1h-2c-.1 0-.3 0-.4.1-.1 0-.2.1-.4.1-.1 0-.2.1-.4.1-.1 0-.2.1-.4.1-.1 0-.2.1-.4.1-.1 0-.2.1-.4.2-.1.1-.2.1-.3.2-.1.1-.2.1-.4.2-.1.1-.2.1-.3.2-.1.1-.2.2-.3.2-.1.1-.2.1-.3.2l-.3.3-.2.2c-1 .9-2.1 1.9-3.1 2.8-15.9 13.4-35.9 20.7-56.8 20.7-48.6 0-88.2-39.6-88.2-88.2s39.6-88.2 88.2-88.2c21.8 0 42.7 8 58.9 22.6l.1.1.3.3c.1.1.2.1.3.2.1.1.2.2.3.2.1.1.2.1.3.2.1.1.2.1.4.2.1.1.2.1.3.2.1.1.2.1.4.2.1 0 .2.1.4.1.1 0 .2.1.4.1.1 0 .2.1.4.1.1 0 .2.1.4.1.1 0 .3 0 .4.1h2c.1 0 .2 0 .4-.1.1 0 .3 0 .4-.1.1 0 .2-.1.3-.1.1 0 .3-.1.4-.1.1 0 .2-.1.3-.1.1 0 .3-.1.4-.1.1 0 .2-.1.3-.2.1-.1.2-.1.4-.2.1-.1.2-.1.3-.2.1-.1.2-.1.3-.2.1-.1.3-.2.4-.3.1-.1.2-.1.2-.2.2-.2.4-.3.6-.5l31.6-31.6L324 64.2c.2-.2.4-.4.5-.6.9-1.1 1.4-2.3 1.7-3.6v-.1c0-.2.1-.4.1-.6V59v-.5-.2-.5-.3c0-.2 0-.3-.1-.5 0-.1 0-.2-.1-.3 0-.2-.1-.3-.1-.5 0-.1-.1-.2-.1-.3-.1-.2-.1-.3-.2-.5 0-.1-.1-.2-.1-.2-.1-.2-.1-.3-.2-.5 0-.1-.1-.2-.1-.2-.1-.1-.2-.3-.3-.4-.1-.1-.1-.2-.2-.3-.1-.1-.2-.2-.3-.4l-.3-.3c-.1-.1-.1-.2-.2-.2 0 0-.1 0-.1-.1l-.1-.1C288.1 18.7 241.2 0 191.8 0c-43.6 0-86.2 15-120.1 42.3C38.3 69.1 14.6 106.7 5 148.2v.1c0 .2-.1.4-.1.6v2.1c0 .2.1.5.1.7 0 .1 0 .1.1.2.1.2.1.4.2.6 0 .1.1.2.1.2.1.2.1.4.2.5 0 .1.1.2.1.3.1.2.2.3.3.5.1.1.1.2.2.3.1.2.2.3.3.5 0 .1.1.1.1.2v.1c.2.2.3.4.5.6l.6.6.2.2c.2.1.3.2.5.3.1.1.2.1.2.1.2.1.3.2.5.3.1 0 .2.1.2.1.2.1.4.2.6.2.1 0 .2.1.2.1.2.1.4.1.6.2.1 0 .2 0 .2.1.2 0 .4.1.6.1H57c.5 0 1.1-.1 1.6-.2.2 0 .3-.1.5-.1.1 0 .2 0 .3-.1.2-.1.4-.1.5-.2.1 0 .1 0 .2-.1.2-.1.3-.2.5-.2.1 0 .1-.1.2-.1.1-.1.3-.2.4-.2.1-.1.2-.1.3-.2.1-.1.2-.2.3-.2.1-.1.2-.2.3-.2l.2-.2c.1-.1.2-.2.4-.3.1-.1.1-.1.1-.2l.4-.4s.1-.1.1-.2c.1-.2.2-.3.3-.5.1-.1.1-.2.2-.2.1-.1.2-.3.2-.4.3-.5.5-1 .6-1.5 17.4-56 68.5-93.7 127.2-93.7 31.1 0 60.8 10.7 84.6 30.4L256 109.4c-18.2-14.1-40.5-21.8-63.8-21.8-54.8 0-99.8 42.5-103.9 96.2H8c-4.4 0-8 3.6-8 8s3.6 8 8 8h80.5c4.1 53.7 49.1 96.2 103.9 96.2 23.7 0 46.5-8 64.9-22.7l20.3 20.4c-24 20.2-54.1 31.3-85.8 31.3-58.7 0-109.8-37.6-127.2-93.7l-.6-1.5c-.1-.1-.1-.2-.2-.4-.1-.1-.1-.2-.2-.3-.1-.2-.2-.3-.3-.4 0-.1-.1-.1-.1-.2-.1-.1-.2-.3-.4-.4l-.2-.2c-.1-.1-.2-.2-.4-.3l-.2-.2-.3-.3c-.1-.1-.2-.1-.3-.2-.1-.1-.2-.1-.3-.2-.1-.1-.2-.1-.4-.2-.1 0-.2-.1-.3-.1-.1-.1-.3-.1-.4-.2-.1 0-.2-.1-.3-.1-.1 0-.3-.1-.4-.1-.2-.1-.3-.1-.5-.1-.1 0-.2 0-.2-.1-.5-.1-1.1-.2-1.7-.2H11.7c-.2 0-.4.1-.6.1-.1 0-.2 0-.2.1-.2.1-.4.1-.6.2-.1 0-.2.1-.2.1-.2.1-.4.1-.6.2-.1 0-.2.1-.2.1-.2.1-.3.2-.5.3-.1 0-.2.1-.2.1-.2.1-.3.2-.5.4-.1 0-.1.1-.2.1l-.6.6-.6.6-.1.1c-.1.2-.2.3-.4.5 0 .1-.1.2-.1.2-.1.2-.2.3-.3.5 0 .1-.1.2-.1.2-.1.2-.2.4-.2.6 0 .1-.1.1-.1.2-.1.2-.1.4-.2.6 0 .1 0 .1-.1.2-.1.2-.1.5-.1.7v2.2c0 .2.1.4.1.6v.1c9.6 41.5 33.3 79.1 66.7 105.9 33.9 27.3 76.6 42.3 120.1 42.3 49.8 0 97-19 132.8-53.5l.2-.2.1-.1.1-.1.3-.3c0 .3.1.2.1.2zM191.8 42.7c-32.5 0-63.4 10.3-89.3 29.7C79.1 90 61 114.5 51.2 142H23.1C45 67.3 113 16 191.8 16c42.5 0 83 15.1 115 42.8l-19 18.9c-26.8-22.6-60.6-35-96-35zm0 325c-78.8 0-146.8-51.3-168.7-126h28.1c9.8 27.5 27.8 52.1 51.3 69.6 25.9 19.4 56.8 29.7 89.3 29.7 35.9 0 70.1-12.7 97.1-36l18.9 18.9c-32 28.3-72.9 43.8-116 43.8z"/></svg>