<svg xmlns="http://www.w3.org/2000/svg" role="img" viewBox="-3.20 -3.20 166.14 43.89"><title>Collibra logo</title><path fill="#6FC100" fill-rule="evenodd" d="M18.9 0c-.8 0-1.5.7-1.5 1.5S18.1 3 18.9 3s1.5-.7 1.5-1.5S19.8 0 18.9 0m0 34.6c-.8 0-1.5.7-1.5 1.5s.7 1.5 1.5 1.5 1.5-.7 1.5-1.5-.6-1.5-1.5-1.5M31.2 8.2c.8 0 1.5-.7 1.5-1.5s-.7-1.5-1.5-1.5-1.5.7-1.5 1.5c-.1.8.6 1.5 1.5 1.5m0 21.4c-.8 0-1.5.7-1.5 1.5s.7 1.5 1.5 1.5 1.5-.7 1.5-1.5c0-.9-.7-1.5-1.5-1.5m-24.6 0c-.8 0-1.5.7-1.5 1.5s.7 1.5 1.5 1.5 1.5-.7 1.5-1.5c.1-.9-.6-1.5-1.5-1.5" clip-rule="evenodd"/><g transform="translate(0 17.155)"><defs><filter id="a" width="3.1" height="3.1" x="0" y=".2" filterUnits="userSpaceOnUse"><feColorMatrix values="1 0 0 0 0 0 1 0 0 0 0 0 1 0 0 0 0 0 1 0"/></filter></defs><mask id="b" width="3.1" height="3.1" x="0" y=".2" maskUnits="userSpaceOnUse"><g filter="url(#a)"><path fill="#FFF" fill-rule="evenodd" d="M0 .2h3.1v3.1H0z" clip-rule="evenodd"/></g></mask><path fill="#6FC100" fill-rule="evenodd" d="M3.1 1.7C3.1.9 2.4.2 1.6.2.7.2 0 .9 0 1.7s.7 1.5 1.5 1.5c.9.1 1.6-.6 1.6-1.5" clip-rule="evenodd" mask="url(#b)"/></g><path fill="#6FC100" fill-rule="evenodd" d="M36.3 17.3c-.8 0-1.5.7-1.5 1.5s.7 1.5 1.5 1.5 1.5-.7 1.5-1.5-.7-1.5-1.5-1.5M6.6 8.1c.8 0 1.5-.7 1.5-1.5s-.6-1.5-1.5-1.5-1.5.6-1.5 1.5.7 1.5 1.5 1.5m12.3-3c-.8 0-1.5.7-1.5 1.5v6.1c0 .8.7 1.5 1.5 1.5s1.5-.7 1.5-1.5V6.6c0-.8-.6-1.5-1.5-1.5m0 18.4c-.8 0-1.5.7-1.5 1.5v6.1c0 .8.7 1.5 1.5 1.5s1.5-.7 1.5-1.5V25c0-.8-.6-1.5-1.5-1.5m-3.1-6.2H6.7c-.8 0-1.5.7-1.5 1.5s.7 1.5 1.5 1.5h9.2c.8 0 1.5-.7 1.5-1.5s-.7-1.5-1.6-1.5m15.4 3.1c.8 0 1.5-.7 1.5-1.5s-.7-1.5-1.5-1.5H22c-.8 0-1.5.7-1.5 1.5s.7 1.5 1.5 1.5h9.2zM25 14.3c.8 0 1.5-.7 1.5-1.5V2.6c0-.8-.7-1.5-1.5-1.5s-1.5.7-1.5 1.5v10.1c0 .9.7 1.6 1.5 1.6m-12.3 9.2c-.8 0-1.5.7-1.5 1.5v10.1c0 .8.7 1.5 1.5 1.5s1.5-.7 1.5-1.5V25c.1-.8-.6-1.5-1.5-1.5M2.6 14.2h10.1c.8 0 1.5-.7 1.5-1.5s-.7-1.5-1.5-1.5H2.6c-.8 0-1.5.7-1.5 1.5 0 .9.7 1.5 1.5 1.5m32.6 9.3H25c-.8 0-1.5.7-1.5 1.5s.7 1.5 1.5 1.5h10.1c.8 0 1.5-.7 1.5-1.5s-.6-1.5-1.4-1.5M12.8 8.2c.8 0 1.5-.7 1.5-1.5v-4c0-.8-.7-1.5-1.5-1.5s-1.5.7-1.5 1.5v4c-.1.8.6 1.5 1.5 1.5M6.6 26.5c.8 0 1.5-.7 1.5-1.5s-.7-1.5-1.5-1.5h-4c-.8 0-1.5.7-1.5 1.5s.7 1.5 1.5 1.5h4zm24.6-12.2h4c.8 0 1.5-.7 1.5-1.5s-.7-1.5-1.5-1.5h-4c-.8 0-1.5.7-1.5 1.5s.6 1.5 1.5 1.5M25 29.6c-.8 0-1.5.7-1.5 1.5v4c0 .8.7 1.5 1.5 1.5s1.5-.7 1.5-1.5v-4c.1-.9-.6-1.5-1.5-1.5" clip-rule="evenodd"/><path fill="#606060" fill-rule="evenodd" d="M62.9 10.6c3.2 0 6 2.2 6.7 5.1l.1.3 3.2-.4-.1-.3c-1-4.4-5.2-7.6-9.9-7.6-6.2 0-10.8 4.7-10.8 11.1 0 3.2 1.1 6 3.1 8.1 2 2 4.7 3 7.6 3 4.7 0 8.8-3 9.9-7.2l.1-.3-3.1-.6-.1.3c-.8 2.9-3.6 5-6.8 5-4.4 0-7.5-3.5-7.5-8.2 0-4.8 3.2-8.3 7.6-8.3m20.4 16.5c-3 0-5.1-2.2-5.1-5.4 0-3.1 2.1-5.3 5.1-5.3s5.1 2.2 5.1 5.3c0 3.1-2.1 5.4-5.1 5.4m0-13.5c-4.8 0-8.1 3.3-8.1 8.1s3.3 8.1 8.1 8.1c4.7 0 8.1-3.4 8.1-8.1 0-4.7-3.4-8.1-8.1-8.1m28-5.6c-1 0-1.8.7-1.8 1.7s.8 1.8 1.8 1.8 1.8-.8 1.8-1.8-.8-1.7-1.8-1.7m-1.5 21.5h3V14.3h-3zm14.7-13c2.9 0 5.1 2.3 5.1 5.4 0 3.1-2.1 5.4-5.1 5.4-2.9 0-5.1-2.3-5.1-5.4 0-3.1 2.2-5.4 5.1-5.4m.3-2.8c-2.2 0-4.2.9-5.3 2.4V8.2h-3v21.3h3v-1.9c1.2 1.6 3 2.5 5.3 2.5 4.5 0 7.9-3.5 7.9-8.2-.1-4.7-3.4-8.2-7.9-8.2m-31 12.9V8.2h3v17.7c0 .9.5 1 1.3 1h1v2.6h-1.6c-2 0-3.7-.7-3.7-2.9m7.7 0V8.2h3v17.7c0 .9.5 1 1.3 1h1v2.6h-1.6c-2 0-3.7-.7-3.7-2.9m40.1-12.5c-1.5 0-2.7.6-3.6 1.8v-1.6h-3v15.2h3v-8.2c0-2.7 1.1-4.3 3.4-4.3 1.5 0 2.2.4 2.2.4v-2.9s-.6-.4-2-.4" clip-rule="evenodd"/><g transform="translate(144.704 13.623)"><defs><filter id="c" width="15.2" height="16.2" x="0" y=".1" filterUnits="userSpaceOnUse"><feColorMatrix values="1 0 0 0 0 0 1 0 0 0 0 0 1 0 0 0 0 0 1 0"/></filter></defs><mask id="d" width="15.2" height="16.2" x="0" y=".1" maskUnits="userSpaceOnUse"><g filter="url(#c)"><path fill="#FFF" fill-rule="evenodd" d="M0 .1h15.2v16.2H0z" clip-rule="evenodd"/></g></mask><path fill="#606060" fill-rule="evenodd" d="M5.9 13.7C4.1 13.7 3 13 3 11.8c0-1.7 2.1-2.4 3.9-2.6l3.7-.4v.9c0 2.4-1.9 4-4.7 4zm9-.4c-.7 0-1.2-.1-1.3-1V5.9C13.6 2.4 11 .1 7.1.1S.7 2.2.7 5.5v.3h3.1v-.3c0-.7.2-1.2.6-1.7.6-.6 1.6-.9 2.7-.9 2.2 0 3.5 1.1 3.5 2.9v.3l-3.7.5C2.5 7.1 0 9 0 11.9c0 2.7 2.2 4.5 5.6 4.5 2.2 0 3.9-.8 5-2.3h.2c.5 1.4 1.9 1.8 3.4 1.8h1v-2.6h-.3z" clip-rule="evenodd" mask="url(#d)"/></g></svg>