<svg xmlns="http://www.w3.org/2000/svg" role="img" viewBox="141.46 264.71 366.08 250.58"><title>Databricks SQL Analytics logo</title><style>.st2{fill:#f0562c}</style><style>.st2{fill:#f0562c}</style><style>.st2{fill:#f0562c}</style><style>.st2{fill:#f0562c}</style><style id="style6">.st2{fill:#f0562c}</style><path id="path10" fill="#dc2327" stroke-width="1.132" d="M265.28605 294.28344l-.11322.11321v14.60518l15.51092 8.03852-15.51092 8.0385v14.7184l41.89082 21.85116h4.3023l41.89081-21.85116v-14.7184l-15.51092-8.0385 15.51092-8.03852v-14.60518l-.11322-.11321-43.92874-22.53047z"/><path id="path12" stroke-width="1.132" d="M309.2148 331.98517l-28.53105-14.94482-15.51092 8.0385 44.04197 22.98335 44.04196-22.98335-15.51092-8.0385z" class="st2"/><path id="path14" stroke-width="1.132" d="M265.17283 294.39665L309.2148 317.38l44.04196-22.98335-44.04196-22.64368z" class="st2"/><path id="path16" fill="#444545" stroke-width=".706" d="M178.11382 401.30492h.21183s-.21183-2.40083-.21183-2.68328v-18.99479h-5.71962v-4.87228h11.65107v54.08928h5.43718v4.87227h-9.95638l-.84735-5.50778h-.28245s-3.67186 6.07268-12.56905 6.07268c-9.74453 0-17.08825-6.56698-17.08825-19.06541 0-12.21598 7.90861-18.99479 17.15887-18.99479 9.39147.0706 12.21598 5.0841 12.21598 5.0841m0 21.88992v-16.59397c-1.05919-1.55348-4.16615-5.29595-11.08619-5.29595-5.93145 0-12.42781 4.37798-12.42781 13.98131 0 9.60331 5.86085 14.05191 12.49842 14.05191 4.4486 0 8.96781-2.11838 11.01558-6.1433m41.66145 4.37799s-3.24819 6.70819-14.05192 6.70819c-7.62616 0-12.71027-4.5192-12.71027-10.6625 0-6.84943 6.49636-10.45067 16.87642-10.45067h9.32087v-3.10696c0-6.35513-3.67186-9.03842-10.38006-9.03842-6.42575 0-9.67393 3.10696-9.67393 7.20249v.77674h-5.43718v-1.83593c0-5.36656 4.73105-11.01557 15.25233-11.01557 9.95639 0 16.17029 4.44859 16.17029 14.05192v18.50051h4.4486v4.87227h-8.82657l-.70613-6.1433h-.28245zm-.63552-10.09761h-8.9678c-6.49636 0-11.36864 1.90653-11.36864 6.1433 0 3.67185 3.38941 6.00207 8.12046 6.00207 8.54413 0 12.21598-6.42575 12.21598-6.42575zm22.66666-30.50466v9.88577h11.7217v4.73105h-11.7217v19.91276c0 5.22533 2.33022 7.76739 6.1433 7.76739 4.09553 0 6.63759-1.20042 6.63759-1.20042v5.01349s-3.03635 1.27104-7.62617 1.27104c-7.13187 0-11.15679-4.09554-11.15679-12.49844v-20.26582h-5.64902v-4.73105h5.64902l1.05918-9.88577zm43.0737 40.60227s-3.24818 6.70819-14.05191 6.70819c-7.62616 0-12.71027-4.5192-12.71027-10.6625 0-6.84943 6.49636-10.45067 16.87641-10.45067h9.32087v-3.10696c0-6.35513-3.67185-9.03842-10.38006-9.03842-6.42574 0-9.67393 3.10696-9.67393 7.20249v.77674h-5.43717v-1.83593c0-5.36656 4.73105-11.01557 15.25233-11.01557 9.95638 0 16.17029 4.44859 16.17029 14.05192v18.50051h4.4486v4.87227h-8.9678l-.70613-6.1433h-.14123zm-.63551-10.09761h-8.96781c-6.49636 0-11.36863 1.90653-11.36863 6.1433 0 3.67185 3.38941 6.00207 8.12045 6.00207 8.54413 0 12.21599-6.42575 12.21599-6.42575zm21.2544 10.73312l-.91797 5.50778h-4.5192v-54.08927h-5.43717v-4.87228h11.36863v23.86707c0 .28245-.21184 2.68328-.21184 2.68328h.21184s3.31879-5.0841 12.35721-5.0841c9.17964 0 17.08826 6.77881 17.08826 18.99479 0 12.49843-7.34372 19.06541-17.01765 19.06541-8.9678 0-12.63966-6.07268-12.63966-6.07268zm.49429-21.67808v16.59397c1.97715 4.02492 6.56697 6.1433 11.08619 6.1433 6.56696 0 12.42781-4.51921 12.42781-14.05192 0-9.67393-6.42574-13.9813-12.35721-13.9813-6.77881 0-10.02699 3.67186-11.15679 5.29595m58.32603-4.23676c-.84735-.28245-2.33022-.5649-4.16615-.5649-9.17963 0-11.08618 10.94496-11.08618 10.94496v16.2409h6.00207v4.87227h-17.44131v-4.87227h5.43717V401.7286h-5.43717v-4.87227h9.95638l.5649 9.39148h.21184s1.83593-9.95639 11.86292-9.95639c1.6947 0 3.10695.21185 4.02492.42368v5.5784zm16.80581 26.55035h5.29595v4.87227H369.7565v-4.87227h5.43717V401.7286h-5.43717v-4.87227h11.36863zm-3.24819-38.69573c-2.54205 0-4.58981-2.04776-4.58981-4.73103 0-2.54206 2.04776-4.58983 4.58981-4.58983 2.61267 0 4.73105 2.04777 4.73105 4.58983 0 2.68327-2.11838 4.73103-4.73105 4.73103m16.24091 25.13811c0 9.67393 6.21391 14.05191 13.27517 14.05191 8.61475 0 12.07477-4.02492 12.07477-4.02492l2.04776 4.30737s-4.09553 4.73105-14.5462 4.73105c-11.01557 0-18.78296-6.77881-18.78296-19.06541 0-12.85151 7.06126-18.99481 18.35929-18.99481 11.58047 0 15.74661 6.35515 15.74661 13.20457v1.97715h-5.43717v-1.20041c0-5.50779-3.17757-9.03842-10.38006-9.03842-7.34372 0-12.35721 3.74247-12.35721 14.05192m41.9439-3.03635h9.17965l8.82657-10.6625h-4.58982v-4.73105h16.73519v4.73105h-5.71962l-10.73312 13.06333 11.29803 14.40498h5.649v4.73104h-8.9678l-12.99272-16.87642h-8.68536v11.93354h5.29595v4.94288h-16.8058v-4.94288h5.57839v-49.217h-5.57839v-4.87228h11.50985zm38.83695 9.53271v.84734c0 3.81309 3.17757 6.77882 9.88577 6.77882 6.77881 0 9.81516-2.18899 9.81516-5.86085 0-3.81308-4.87228-5.08411-10.23884-6.00207-6.63758-1.20041-14.05191-2.89512-14.05191-10.94496 0-6.35514 6.00207-10.38005 14.26375-10.38005 10.94496 0 14.96988 4.5192 14.96988 10.0976v2.68328h-5.50779v-1.62409c0-3.9543-2.61266-6.28452-9.17964-6.28452-4.30737 0-8.61474 1.76531-8.61474 5.649 0 4.37799 5.22533 5.15473 10.59189 6.1433 6.99066 1.34165 13.69885 3.46003 13.69885 10.73313 0 5.93145-4.44859 10.6625-15.53478 10.6625-11.36863 0-15.60538-5.08411-15.60538-10.30944v-2.33022h5.50778z"/><g id="text15"><path id="path17" d="M192.41468 491.03929q0 1.8125-.85416 3.58334-.83334 1.77083-2.35417 3-1.66667 1.33333-3.89584 2.08333-2.20833.75-5.33334.75-3.35417 0-6.04167-.625-2.66667-.625-5.4375-1.85416v-5.16668h.29166q2.35417 1.95834 5.43751 3.02084 3.08333 1.0625 5.79167 1.0625 3.83334 0 5.95834-1.4375 2.14583-1.4375 2.14583-3.83334 0-2.0625-1.02083-3.04167-1-.97916-3.0625-1.52083-1.5625-.41667-3.39584-.6875-1.8125-.27083-3.85417-.6875-4.125-.875-6.125-2.97917-1.97917-2.125-1.97917-5.52084 0-3.89583 3.29167-6.375 3.29167-2.5 8.35417-2.5 3.27084 0 6 .625 2.72917.625 4.83334 1.54166v4.87501h-.29167q-1.77083-1.5-4.66667-2.47917-2.875-1-5.89583-1-3.31251 0-5.33334 1.375-2 1.375-2 3.54167 0 1.9375 1 3.04167 1 1.10417 3.52083 1.6875 1.33334.29167 3.79167.70833 2.45834.41667 4.16667.85417 3.45834.91667 5.20834 2.77084 1.75 1.85416 1.75 5.1875z"/><path id="path19" d="M226.70638 507.49764q-1.25001.3125-2.47917.4375-1.20834.14583-2.47917.14583-3.625 0-5.83334-2-2.1875-1.97917-2.375-5.68751-.5.0833-.97917.10417-.45833.0417-.89583.0417-3.27084 0-5.95834-1.08334-2.66667-1.08333-4.54167-3.14583t-2.89584-5.06251q-1-3-1-6.85417 0-3.79167 1-6.79167 1-3.02084 2.91667-5.16667 1.83334-2.04167 4.54167-3.125 2.72917-1.08334 5.93751-1.08334 3.33333 0 5.97917 1.10417 2.66667 1.08333 4.52084 3.10417 1.89583 2.08333 2.89583 5.10417 1.02083 3.02084 1.02083 6.85417 0 5.68751-2.33333 9.58334-2.3125 3.89584-6.22917 5.45834.0833 2.375 1.125 3.6875 1.04167 1.3125 3.79167 1.3125.85417 0 2.02083-.27083 1.1875-.25 1.6875-.45833h.56251zm-4.91668-23.10419q0-6.04167-2.70833-9.31251-2.70834-3.29166-7.39584-3.29166-4.72917 0-7.4375 3.29166-2.68751 3.27084-2.68751 9.31251 0 6.10417 2.75001 9.35418 2.75 3.22916 7.375 3.22916t7.35417-3.22916q2.75-3.25001 2.75-9.35418z"/><path id="path21" d="M252.24806 499.89346h-19.62502v-31.02085h4.12501v27.35418h15.50001z"/><path id="path23" d="M295.83143 499.89346h-4.39584l-3.04167-8.64584h-13.41668l-3.04166 8.64584h-4.18751l11.29168-31.02085h5.5zm-8.70834-12.18751l-5.43751-15.22917-5.45833 15.22917z"/><path id="path25" d="M319.68561 499.89346h-3.91667v-13.25001q0-1.60416-.1875-3-.1875-1.41667-.6875-2.20833-.52083-.875-1.5-1.29167-.97917-.4375-2.54167-.4375-1.60417 0-3.35417.79167-1.75.79166-3.35417 2.02083v17.37501h-3.91667v-23.27085h3.91667v2.58334q1.83334-1.52084 3.79167-2.375 1.95834-.85417 4.02084-.85417 3.77083 0 5.75 2.27083 1.97917 2.27084 1.97917 6.54168z"/><path id="path27" d="M345.31062 499.89346h-3.89583v-2.47917q-.52084.35417-1.41667 1.00001-.875.625-1.70833 1-.97917.47916-2.25001.79166-1.27083.33334-2.97916.33334-3.14584 0-5.33334-2.08334-2.1875-2.08333-2.1875-5.3125 0-2.64584 1.125-4.27084 1.14583-1.64583 3.25-2.58333 2.125-.9375 5.10417-1.27084 2.97917-.33333 6.39584-.5v-.60417q0-1.33333-.47917-2.20833-.45833-.875-1.33333-1.375-.83334-.47917-2-.64584-1.16667-.16666-2.43751-.16666-1.54166 0-3.4375.41666-1.89583.39584-3.91667 1.16667h-.20833v-3.97917q1.14583-.3125 3.3125-.6875t4.27084-.375q2.45833 0 4.27083.41667 1.83334.39583 3.16667 1.375 1.3125.95833 2 2.47917.6875 1.52083.6875 3.77083zm-3.89583-5.72917v-6.47917q-1.79167.10417-4.22917.3125-2.41667.20833-3.83334.60417-1.6875.47917-2.72917 1.5-1.04166 1-1.04166 2.77083 0 2.00001 1.20833 3.02084 1.20833 1 3.6875 1 2.0625 0 3.77084-.79167 1.70833-.8125 3.16667-1.9375z"/><path id="path29" d="M356.81064 499.89346h-3.91667v-32.41669h3.91667z"/><path id="path31" d="M384.68567 476.62261l-13.58335 31.85419h-4.1875l4.33334-9.70834-9.27084-22.14585h4.25l7.14584 17.25002 7.20834-17.25002z"/><path id="path33" d="M401.89401 499.68513q-1.10417.29167-2.41667.47917-1.29167.1875-2.3125.1875-3.5625 0-5.41667-1.91667-1.85417-1.91667-1.85417-6.14584v-12.37501h-2.64584v-3.29167h2.64584v-6.6875h3.91667v6.6875h8.08334v3.29167h-8.08334v10.60418q0 1.83333.0833 2.875.0833 1.02083.58334 1.91667.45833.83333 1.25 1.22916.8125.375 2.45833.375.95834 0 2-.27083 1.04167-.29167 1.50001-.47917h.20833z"/><path id="path35" d="M410.83152 472.72678h-4.41667v-4.06251h4.41667zm-.25 27.16668h-3.91667v-23.27085h3.91667z"/><path id="path37" d="M435.53987 498.43513q-1.95833.9375-3.72917 1.45833-1.75.52084-3.72917.52084-2.52083 0-4.625-.72917-2.10417-.75-3.60417-2.25-1.52083-1.5-2.35417-3.79167-.83333-2.29167-.83333-5.35417 0-5.70834 3.125-8.95834 3.14584-3.25 8.29167-3.25 2 0 3.91667.5625 1.9375.5625 3.54167 1.375v4.35417h-.20833q-1.79167-1.39584-3.70834-2.14584-1.89583-.75-3.70833-.75-3.33334 0-5.27084 2.25-1.91667 2.22917-1.91667 6.56251 0 4.20833 1.875 6.47917 1.89584 2.25 5.31251 2.25 1.1875 0 2.41666-.3125 1.22917-.3125 2.20834-.8125.85417-.4375 1.60417-.91667.75-.5 1.1875-.85416h.20833z"/><path id="path39" d="M457.18572 493.18512q0 3.18751-2.64583 5.22918-2.625 2.04166-7.18751 2.04166-2.58333 0-4.75-.60416-2.14583-.625-3.60417-1.35417v-4.39584h.20833q1.85417 1.39584 4.12501 2.22917 2.27083.8125 4.35417.8125 2.58333 0 4.04167-.83333 1.45833-.83334 1.45833-2.625 0-1.37501-.79167-2.08334-.79166-.70833-3.04166-1.20833-.83334-.1875-2.18751-.4375-1.33333-.25-2.4375-.54167-3.0625-.8125-4.35417-2.375-1.27083-1.58334-1.27083-3.87501 0-1.4375.58333-2.70833.60417-1.27084 1.8125-2.27084 1.16667-.97916 2.95834-1.54166 1.8125-.58334 4.04167-.58334 2.08333 0 4.20833.52084 2.14584.5 3.56251 1.22916v4.18751h-.20834q-1.5-1.10417-3.64583-1.85417-2.14584-.77084-4.20834-.77084-2.14583 0-3.625.83334-1.47917.8125-1.47917 2.4375 0 1.4375.89584 2.16667.875.72917 2.83333 1.1875 1.08333.25 2.41667.5 1.35417.25 2.25.45833 2.72917.625 4.20834 2.14584 1.47916 1.54167 1.47916 4.08333z"/></g></svg>