<svg xmlns="http://www.w3.org/2000/svg" role="img" viewBox="7.22 20.97 105.56 17.69"><title>Data Robort logo</title><g fill-rule="evenodd" clip-rule="evenodd"><path fill="#424242" d="M22.1 31c-.1.7-.2 1.5-.4 2.2-.1.4-.2.7-.4 1-.2.4-.5.8-.8 1.1-.6.5-1.3.9-2.1 1.1-.7.2-1.4.2-2.1.2h-7V23.3h5.9c.6 0 1.2 0 1.7.1.6.1 1.2.2 1.7.4s1 .4 1.5.8c.4.3.8.8 1.1 1.3.3.6.5 1.3.7 2.1.3.9.3 1.9.2 3zm-3.4-2.7c-.1-.5-.3-1.1-.6-1.5-.3-.5-.7-.8-1.3-1-.5-.1-1.1-.2-1.6-.2h-3v8.7h3c.3 0 .7 0 1.1-.1s.7-.2 1.1-.3c.3-.2.5-.4.8-.7.2-.3.3-.7.5-1 .2-.7.3-1.4.3-2.2-.1-.6-.1-1.1-.3-1.7zm8.7 8.3h-1.1c-.4 0-.8-.1-1.1-.2-.6-.1-1.1-.5-1.5-1-.3-.5-.5-1.1-.5-1.7 0-.5.1-.9.3-1.4.2-.4.5-.8.9-1.1.2-.1.4-.2.7-.3s.5-.1.8-.2c.3 0 .5-.1.8-.1h4.2v-.2c0-.3 0-.6-.1-.8s-.2-.4-.4-.5c-.4 0-.6-.1-.9-.1H23.9v-2.1H29.8c.9 0 1.6.2 2.2.5s1.1.9 1.3 1.7c.1.3.2.7.2 1v6.5zm3.4-3.9h-3.7c-.3 0-.5.1-.7.2s-.3.4-.3.7c0 .2 0 .4.1.5s.2.2.4.3c.1 0 .3.1.5.1h3.8zm8.9 3.9c-.6 0-1.3-.1-1.9-.4-.6-.2-1-.7-1.2-1.4-.1-.3-.2-.6-.2-1v-5h-1.8v-2.1h1.8v-3.6h2.8v3.6h2.6v2.1h-2.6v4.3c0 .3.1.6.2.8s.3.3.5.3c.2.1.4.1.6.1H41.8v2.1h-2.1zm7.1 0h-1.1c-.4 0-.8-.1-1.1-.2-.6-.1-1.1-.5-1.5-1-.3-.5-.5-1.1-.5-1.7 0-.5.1-.9.3-1.4.2-.4.5-.8.9-1.1.2-.1.4-.2.7-.3s.5-.1.8-.2c.5-.1 1-.1 1.5-.1h3.4v-.2c0-.3 0-.6-.1-.8s-.2-.4-.4-.5-.4-.2-.7-.2H43.4v-2.1H49.3c.9 0 1.6.2 2.2.5.7.4 1.1 1 1.3 1.7.1.3.2.7.2 1v6.5c0 .1-6.2.1-6.2.1zm3.4-3.9h-3.7c-.3 0-.5.1-.7.2s-.3.4-.3.7c0 .2.1.4.1.5.1.1.2.2.4.3.1.1.3.1.5.1h3.8v-1.8z"/><path fill="#2d8fe2" d="M64.5 36.6c-.1-.3-.2-.6-.2-.9l-.1-1c0-.5-.2-1-.3-1.5-.2-.4-.4-.7-.7-1-.3-.2-.7-.4-1.1-.5-.5-.1-1.1-.2-1.6-.2h-2.4v5.1h-3V23.3h6.8c.5 0 1 0 1.6.1.5 0 1 .1 1.5.2 1.6.4 2.7 1.8 2.6 3.4 0 .9-.2 1.7-.6 2.4-.5.7-1.2 1.3-2 1.5.3.1.6.2.8.3.4.2.8.5 1 .9.1.2.2.4.4.7.2.4.3.9.3 1.4s.1.9.1 1.4c0 .3.1.7.2 1.1zm-.3-10.1c-.1-.2-.3-.4-.4-.5-.2-.1-.4-.2-.7-.3-.3 0-.5-.1-.8-.1h-4.2v3.6h4.2c.7 0 1.2-.1 1.6-.4s.6-.8.6-1.5c-.1-.3-.2-.6-.3-.8zM79 33.9c-.3.6-.6 1.1-1.1 1.5s-1.1.7-1.7.9c-.7.2-1.4.3-2.2.3-1.7 0-3-.4-3.9-1.3s-1.4-2.1-1.4-3.8c0-.8.1-1.4.4-2.1.3-.6.6-1.1 1.1-1.6.5-.4 1.1-.8 1.7-1 .7-.2 1.4-.4 2.2-.3 1.7 0 3 .4 4 1.3s1.4 2.2 1.4 3.8c-.1 1-.2 1.7-.5 2.3zm-2.6-3.3c-.1-.4-.2-.7-.4-.9-.2-.3-.5-.5-.8-.6s-.7-.2-1.2-.2-.9.1-1.2.2c-.3.2-.6.4-.8.6-.2.3-.3.6-.4.9-.2.8-.2 1.6 0 2.3.1.3.2.6.4.9s.5.5.8.6.7.2 1.2.2.9-.1 1.2-.2.6-.4.8-.6c.2-.3.3-.6.4-.9.2-.8.2-1.6 0-2.3zM90.8 34c-.4.8-1 1.4-1.7 1.8-.6.3-1.1.5-1.7.6s-1.2.1-1.9.1H81V23.3h2.8v3.6h2.5c1.6 0 2.9.4 3.8 1.2s1.3 2 1.3 3.5c0 .9-.2 1.7-.6 2.4zm-2.9-4.3c-.4-.5-1.1-.7-2.1-.7h-2.1v5.6h2.1c.9 0 1.6-.3 2-.8s.7-1.2.7-2c.1-1-.1-1.7-.6-2.1zm14.7 4.2c-.3.6-.6 1.1-1.1 1.5s-1.1.7-1.7.9c-.7.2-1.4.3-2.2.3-1.7 0-3-.4-3.9-1.3s-1.4-2.1-1.4-3.8c0-.8.1-1.4.4-2.1.3-.6.6-1.1 1.1-1.6.5-.4 1.1-.8 1.7-1 .7-.2 1.4-.4 2.2-.3 1.7 0 3 .4 4 1.3s1.4 2.2 1.4 3.8c-.1 1-.2 1.7-.5 2.3zm-2.6-3.3c-.1-.4-.2-.7-.4-.9-.2-.3-.4-.5-.8-.6-.4-.2-.8-.2-1.2-.2-.5 0-.9.1-1.2.2-.3.2-.6.4-.8.6-.2.3-.3.6-.4.9-.2.8-.1 1.6 0 2.3.1.3.2.6.4.9s.5.5.8.6.7.2 1.2.2.9-.1 1.2-.2.6-.4.8-.6c.2-.3.3-.6.4-.9.2-.8.2-1.6 0-2.3zm8.7 6c-.7 0-1.3-.1-1.9-.4s-1-.7-1.2-1.4c-.1-.3-.2-.6-.2-1v-5h-1.8v-2.1h1.8v-3.6h2.8v3.6h2.6v2.1h-2.6v4.3c0 .3.1.6.2.8s.3.3.5.3c.2.1.4.1.6.1H110.8v2.1h-2.1z"/></g></svg>