<svg xmlns="http://www.w3.org/2000/svg" role="img" viewBox="75.53 261.03 518.44 249.94"><title>Databricks Inc. logo</title><style>.st2{fill:#f0562c}</style><style>.st2{fill:#f0562c}</style><style>.st2{fill:#f0562c}</style><style>.st2{fill:#f0562c}</style><style id="style6">.st2{fill:#f0562c}</style><path id="path10" fill="#dc2327" stroke-width="1.603" d="M250.91121 303.06126l-.16034.16033v20.68352l21.96622 11.38396-21.96622 11.38395v20.84386l59.32483 30.94511h6.09282l59.32482-30.94511v-20.84386l-21.96622-11.38395 21.96622-11.38396v-20.68352l-.16034-.16033-62.21089-31.90714z"/><path id="path12" stroke-width="1.603" d="M313.12211 356.4536l-40.40502-21.16453-21.96622 11.38395 62.37124 32.54849 62.37123-32.54849-21.96622-11.38395z" class="st2"/><path id="path14" stroke-width="1.603" d="M250.75087 303.22159l62.37124 32.54849 62.37123-32.54849-62.37123-32.06747z" class="st2"/><path id="path16" fill="#444545" d="M127.45988 454.62265h.3s-.3-3.4-.3-3.8v-26.9h-8.1v-6.9h16.5v76.6h7.7v6.9h-14.1l-1.2-7.8h-.4s-5.2 8.6-17.8 8.6c-13.8 0-24.2-9.3-24.2-27 0-17.3 11.2-26.9 24.3-26.9 13.3.1 17.3 7.2 17.3 7.2m0 31v-23.5c-1.5-2.2-5.9-7.5-15.7-7.5-8.4 0-17.6 6.2-17.6 19.8 0 13.6 8.3 19.9 17.7 19.9 6.3 0 12.7-3 15.6-8.7m59 6.2s-4.6 9.5-19.9 9.5c-10.8 0-18-6.4-18-15.1 0-9.7 9.2-14.8 23.9-14.8h13.2v-4.4c0-9-5.2-12.8-14.7-12.8-9.1 0-13.7 4.4-13.7 10.2v1.1h-7.7v-2.6c0-7.6 6.7-15.6 21.6-15.6 14.1 0 22.9 6.3 22.9 19.9v26.2h6.3v6.9h-12.5l-1-8.7h-.4zm-.9-14.3h-12.7c-9.2 0-16.1 2.7-16.1 8.7 0 5.2 4.8 8.5 11.5 8.5 12.1 0 17.3-9.1 17.3-9.1zm32.1-43.2v14h16.6v6.7h-16.6v28.2c0 7.4 3.3 11 8.7 11 5.8 0 9.4-1.7 9.4-1.7v7.1s-4.3 1.8-10.8 1.8c-10.1 0-15.8-5.8-15.8-17.7v-28.7h-8v-6.7h8l1.5-14zm61 57.5s-4.6 9.5-19.9 9.5c-10.8 0-18-6.4-18-15.1 0-9.7 9.2-14.8 23.9-14.8h13.2v-4.4c0-9-5.2-12.8-14.7-12.8-9.1 0-13.7 4.4-13.7 10.2v1.1h-7.7v-2.6c0-7.6 6.7-15.6 21.6-15.6 14.1 0 22.9 6.3 22.9 19.9v26.2h6.3v6.9h-12.7l-1-8.7h-.2zm-.9-14.3h-12.7c-9.2 0-16.1 2.7-16.1 8.7 0 5.2 4.8 8.5 11.5 8.5 12.1 0 17.3-9.1 17.3-9.1zm30.1 15.2l-1.3 7.8h-6.4v-76.6h-7.7v-6.9h16.1v33.8c0 .4-.3 3.8-.3 3.8h.3s4.7-7.2 17.5-7.2c13 0 24.2 9.6 24.2 26.9 0 17.7-10.4 27-24.1 27-12.7 0-17.9-8.6-17.9-8.6zm.7-30.7v23.5c2.8 5.7 9.3 8.7 15.7 8.7 9.3 0 17.6-6.4 17.6-19.9 0-13.7-9.1-19.8-17.5-19.8-9.6 0-14.2 5.2-15.8 7.5m82.6-6c-1.2-.4-3.3-.8-5.9-.8-13 0-15.7 15.5-15.7 15.5v23h8.5v6.9h-24.7v-6.9h7.7v-38.5h-7.7v-6.9h14.1l.8 13.3h.3s2.6-14.1 16.8-14.1c2.4 0 4.4.3 5.7.6v7.9zm23.8 37.6h7.5v6.9h-23.6v-6.9h7.7v-38.4h-7.7v-6.9h16.1zm-4.6-54.8c-3.6 0-6.5-2.9-6.5-6.7 0-3.6 2.9-6.5 6.5-6.5 3.7 0 6.7 2.9 6.7 6.5 0 3.8-3 6.7-6.7 6.7m23 35.6c0 13.7 8.8 19.9 18.8 19.9 12.2 0 17.1-5.7 17.1-5.7l2.9 6.1s-5.8 6.7-20.6 6.7c-15.6 0-26.6-9.6-26.6-27 0-18.2 10-26.9 26-26.9 16.4 0 22.3 9 22.3 18.7v2.8h-7.7v-1.7c0-7.8-4.5-12.8-14.7-12.8-10.4 0-17.5 5.3-17.5 19.9m59.4-4.3h13l12.5-15.1h-6.5v-6.7h23.7v6.7h-8.1l-15.2 18.5 16 20.4h8v6.7h-12.7l-18.4-23.9h-12.3v16.9h7.5v7h-23.8v-7h7.9v-69.7h-7.9v-6.9h16.3zm55 13.5v1.2c0 5.4 4.5 9.6 14 9.6 9.6 0 13.9-3.1 13.9-8.3 0-5.4-6.9-7.2-14.5-8.5-9.4-1.7-19.9-4.1-19.9-15.5 0-9 8.5-14.7 20.2-14.7 15.5 0 21.2 6.4 21.2 14.3v3.8h-7.8v-2.3c0-5.6-3.7-8.9-13-8.9-6.1 0-12.2 2.5-12.2 8 0 6.2 7.4 7.3 15 8.7 9.9 1.9 19.4 4.9 19.4 15.2 0 8.4-6.3 15.1-22 15.1-16.1 0-22.1-7.2-22.1-14.6v-3.3h7.8z"/></svg>