<svg xmlns="http://www.w3.org/2000/svg" role="img" viewBox="-14.68 -14.68 763.36 226.86"><title>Denodo logo</title><defs><clipPath id="a"><path d="M103 101h88v96.82813h-88zm0 0"/></clipPath><clipPath id="b"><path d="M304 101h91v96.82813h-91zm0 0"/></clipPath><clipPath id="c"><path d="M405 55h91v142.82813h-91zm0 0"/></clipPath><clipPath id="d"><path d="M0 55h90v142.82813H0zm0 0"/></clipPath><clipPath id="e"><path d="M510 100h90v97.82813h-90zm0 0"/></clipPath><clipPath id="f"><path d="M696 78h38.1289v39H696zm0 0"/></clipPath><clipPath id="g"><path d="M696 22h38.1289v39H696zm0 0"/></clipPath></defs><g clip-path="url(#a)"><path fill="#231f21" d="M154.63672 197.40234c-16.39063 0-28.94531-4.10547-37.6875-12.3164-8.73047-8.21485-13.09766-19.90625-13.09766-35.09375 0-14.85547 4.07422-26.71485 12.21094-35.57422 8.14063-8.86328 19.52734-13.29688 34.16797-13.29688 13.29687 0 23.29687 3.76172 29.98828 11.26954 6.69922 7.51171 10.05078 18.26562 10.05078 32.26171v10.20703h-59.28516c.25391 4.21485 1.10938 7.75 2.5547 10.57032 1.4375 2.84375 3.34374 5.08984 5.71874 6.77344 2.3164 1.67187 5.02344 2.875 8.11328 3.61328 3.08985.71484 6.45703 1.07812 10.125 1.07812 3.14844 0 6.23828-.36328 9.26953-1.07812 3.04688-.73828 5.83204-1.69922 8.35547-2.88282 2.20703-1.03125 4.26563-2.14062 6.14063-3.32812 1.89062-1.17969 3.41406-2.23828 4.60156-3.15625h2.86328V189.875c-2.21094.91016-4.24219 1.77344-6.07031 2.55078-1.83203.78125-4.34766 1.57422-7.53516 2.39453-2.93359.80078-5.96875 1.4336-9.08984 1.89844-3.10938.44922-6.91797.6836-11.39453.6836m8.96484-59.64063c-.15625-6-1.48437-10.5586-3.97656-13.69922-2.50781-3.13281-6.33203-4.70703-11.48438-4.70703-5.24609 0-9.36328 1.65234-12.33203 4.95312-2.96484 3.28907-4.59765 7.77344-4.89843 13.45313h32.6914"/></g><path fill="#231f21" d="M290.29688 194.96875h-27.21094v-45.13281c0-3.67578-.14063-7.33594-.4336-10.9961-.27343-3.63672-.79687-6.32422-1.58203-8.05078-.91797-2.05078-2.26172-3.52344-4.01172-4.41797-1.7539-.89062-4.10546-1.33984-7.03515-1.33984-2.21485 0-4.46094.4375-6.72266 1.29688-2.27344.87109-4.69531 2.24609-7.27344 4.1328v64.50782h-27.05078v-91h27.05078v10.04688c4.4375-3.94922 8.75-7.02344 12.95313-9.25 4.1914-2.20704 8.85156-3.3125 13.94922-3.3125 8.86719 0 15.63672 2.93359 20.33203 8.79296 4.6914 5.85938 7.03515 14.35938 7.03515 25.48047v59.24219"/><g clip-path="url(#b)"><path fill="#231f21" d="M394.47656 149.52734c0 14.97266-3.90234 26.76172-11.71094 35.375-7.80468 8.6211-18.86328 12.92578-33.14843 12.92578-14.15235 0-25.17188-4.30468-33.03125-12.92578-7.84766-8.61328-11.76563-20.40234-11.76563-35.375 0-15.1289 3.91797-26.97265 11.76563-35.53906 7.85937-8.5625 18.8789-12.84766 33.03125-12.84766 14.23437 0 25.28125 4.31641 33.11328 12.92579 7.83203 8.625 11.7461 20.4414 11.7461 35.46093m-27.76173.16407c0-5.40235-.43359-9.89844-1.28125-13.4922-.84765-3.60155-2.01953-6.47265-3.51171-8.6289-1.60938-2.28125-3.41407-3.85547-5.41797-4.7461-2.01172-.88671-4.3125-1.33593-6.88672-1.33593-2.41016 0-4.60547.39453-6.5625 1.17578-1.95313.78516-3.7539 2.28125-5.39844 4.4961-1.54688 2.10937-2.78516 5-3.71484 8.67187-.92579 3.67578-1.39063 8.28906-1.39063 13.85938 0 5.5664.4375 10.0625 1.3125 13.49218.8789 3.4336 2.0039 6.17188 3.40625 8.21875 1.4336 2.1172 3.23828 3.65625 5.40235 4.62891 2.15625.97266 4.55468 1.45313 7.17578 1.45313 2.16796 0 4.3789-.48047 6.61328-1.45313 2.24219-.97266 4.03515-2.42969 5.36719-4.375 1.60937-2.32031 2.8164-5.125 3.64843-8.39063.82813-3.26953 1.23828-7.79296 1.23828-13.57421"/></g><g clip-path="url(#c)"><path fill="#231f21" d="M467.63281 55.79688v52.54296c-3.875-2.09375-10.15234-5.1914-13.55469-6.09765-2.95703-.78906-6.6289-1.5-11.16796-1.5-4.98829 0-9.73829 1.15234-14.21485 3.44922-4.4961 2.29687-8.30078 5.40625-11.4414 9.35156-.75782.9414-1.45704 1.9414-2.125 2.96484-6.23047 8.26953-9.35157 19.13281-9.35157 32.60156 0 14.95704 3.92188 26.75 11.78516 35.375 7.85938 8.6172 18.875 12.92579 33.05078 12.92579 14.27735 0 25.3164-4.3086 33.1211-12.92578 7.5664-8.35547 11.54296-19.70704 11.77734-34.01563V55.79687zm-1.17969 107.04296c-.8164 3.27735-2.03515 6.06641-3.6289 8.39453-1.33985 1.94141-3.13281 3.40235-5.3789 4.375-2.23048.96094-4.44141 1.46094-6.60157 1.46094-2.6289 0-5.02734-.5-7.1875-1.46094-2.16797-.97265-3.96875-2.51562-5.42188-4.61718-1.3828-2.0586-2.51562-4.80078-3.39062-8.23047-.88281-3.42578-1.32031-7.92969-1.32031-13.49219 0-5.5664.47265-10.1875 1.39453-13.86328.92578-3.67188 2.17578-6.5586 3.71094-8.67188 1.64453-2.20703 3.45703-3.71874 5.41406-4.5 1.95703-.77343 4.14062-1.17187 6.57031-1.17187 2.57422 0 4.86719.45703 6.86719 1.33984 2.02344.89063 3.82812 2.46875 5.41797 4.73438 1.5 2.16797 2.66797 5.04687 3.51562 8.63281.85547 3.59375 1.27735 8.09766 1.27735 13.5 0 5.77344-.41016 10.30469-1.23829 13.57031"/></g><g clip-path="url(#d)"><path fill="#231f21" d="M61.85938 55.79688v52.54296c-3.87891-2.09375-10.15626-5.1914-13.5625-6.09765-2.95313-.78906-6.625-1.5-11.16016-1.5-4.98828 0-9.73828 1.15234-14.21875 3.44922-4.49219 2.29687-8.30078 5.40625-11.44531 9.35156-.75.9414-1.45313 1.9414-2.1211 2.96484C3.125 124.77734 0 135.64062 0 149.10937c0 14.95704 3.92578 26.75 11.78516 35.375 7.86328 8.6172 18.87109 12.92579 33.05078 12.92579 14.27734 0 25.32031-4.3086 33.1211-12.92578 7.5664-8.35547 11.54687-19.70704 11.77733-34.01563V55.79687zm-1.17579 107.04296c-.82422 3.27735-2.03515 6.06641-3.63672 8.39453-1.33984 1.94141-3.1328 3.40235-5.375 4.375-2.23437.96094-4.4453 1.46094-6.60546 1.46094-2.62891 0-5.02344-.5-7.1836-1.46094-2.16797-.97265-3.97656-2.51562-5.41797-4.61718-1.38672-2.0586-2.51953-4.80078-3.40234-8.23047-.8789-3.42578-1.3164-7.92969-1.3164-13.49219 0-5.5664.47265-10.1875 1.39453-13.86328.92578-3.67188 2.16796-6.5586 3.71484-8.67188 1.64844-2.20703 3.45703-3.71874 5.41406-4.5 1.95313-.77343 4.13672-1.17187 6.5664-1.17187 2.57813 0 4.8672.45703 6.8711 1.33984 2.01563.89063 3.82422 2.46875 5.42188 4.73438 1.49218 2.16797 2.66015 5.04687 3.51562 8.63281.85156 3.59375 1.26953 8.09766 1.26953 13.5 0 5.77344-.41015 10.30469-1.23047 13.57031"/></g><g clip-path="url(#e)"><path fill="#231f21" d="M599.70703 149.10938c0 14.95703-3.89844 26.7539-11.70703 35.36718-7.80469 8.625-18.85547 12.9336-33.1211 12.9336-14.17187 0-25.1914-4.3086-33.04687-12.9336-7.86328-8.61328-11.78906-20.41015-11.78906-35.36719 0-15.1328 3.92578-26.97656 11.78906-35.53125 7.85547-8.5703 18.875-12.85156 33.04688-12.85156 14.21875 0 25.24218 4.30078 33.07812 12.92969 7.83984 8.6211 11.75 20.42578 11.75 35.45313m-27.75.15234c0-5.39844-.41797-9.89453-1.26172-13.48047-.85937-3.59766-2.03515-6.47656-3.53125-8.63672-1.59765-2.26953-3.41015-3.84375-5.41797-4.73828-2-.88672-4.29296-1.34375-6.86718-1.34375-2.41797 0-4.6211.39844-6.57032 1.17969-1.95703.78125-3.76562 2.28515-5.41015 4.5-1.53907 2.10156-2.77735 4.99219-3.71485 8.67578-.92187 3.66406-1.39453 8.28516-1.39453 13.84375 0 5.5664.4336 10.07422 1.32422 13.5.8711 3.4375 2.0039 6.17187 3.39844 8.22656 1.4375 2.10547 3.24219 3.65625 5.41406 4.6211 2.16016.97656 4.54688 1.45703 7.1836 1.45703 2.16796 0 4.37109-.48047 6.60156-1.45703 2.2461-.96485 4.03515-2.4297 5.375-4.375 1.60156-2.32422 2.8164-5.125 3.63672-8.39454.8203-3.26172 1.23437-7.79297 1.23437-13.57812"/></g><path fill="#f0534a" d="M623.48828 78.64844l13.95313 24.14062-24.16797 13.94531-13.95313-24.16406 24.16797-13.92187m29.28125 32.97656h27.91406v27.91406h-27.91406V111.625"/><g clip-path="url(#f)"><path fill="#f0534a" d="M696.0039 102.78516l13.96094-24.13672 24.16797 13.92578-13.96093 24.15625-24.16797-13.94531"/></g><g clip-path="url(#g)"><path fill="#f0534a" d="M709.96484 60.92578l-13.95703-24.16797 24.16016-13.95703 13.96484 24.17188-24.16797 13.95312"/></g><path fill="#231f21" d="M680.6836 83.74219h-27.91016V55.8203h27.91015V83.7422"/><path fill="#f0534a" d="M680.6836 27.91016h-27.91016V-.00391L680.68359 0v27.91016m-43.24218 8.84765L623.48828 60.9297l-24.16797-13.95313 13.95313-24.17187L637.4414 36.7578"/></svg>