<svg xmlns="http://www.w3.org/2000/svg" role="img" viewBox="-19.24 -19.24 1000.48 316.48"><title>Dimodelo Data Warehouse Studio logo</title><path fill="#056FA0" d="M39.7 239l107.2-61.9v-124S102 76 69 136.7C36.5 196.5 39.7 239 39.7 239z"/><path fill="#035377" d="M181.7 82.8c.6.5 1.3 1.1 2 1.7 12.8 11.2 31.3 30.7 47 59.6 14.7 27 21.6 50.1 24.8 66.7l-73.8-42.6V82.8m-15.4-29.7v124L273.6 239s3.1-42.5-29.4-102.3c-33-60.7-77.9-83.6-77.9-83.6zm-117 199.6L156.7 191 264 253.3s-42.3 27.3-111.4 25.4c-68.1-2-103.3-26-103.3-26z"/><path fill="#818991" d="M313.3 273.3l-18.7-25.2-1.2 11.1-134.6-78.9v-156l10.1 4.6L156.7 0l-12.3 28.9 10.2-4.6v156L19.9 259.2l-1.2-11.1L0 273.3l31.1-4-9-6.5L156.7 184l134.5 78.8-9 6.5z"/><path d="M383 80.7h17.6c13.9 0 23.3 3 31.5 9.9 9.6 8 14.8 19.5 14.8 32.9 0 13.5-5.1 24.9-15 33-8.5 7.1-17.5 9.9-31.4 9.9H383V80.7zm18 76.9c10.5 0 18.1-2.4 24.5-7.8 7.6-6.3 11.7-15.7 11.7-26.1 0-10.5-4.2-20-11.6-26.2-6.4-5.4-14.1-7.8-24.7-7.8h-8.4v68h8.5zm68.6 8.8H460V80.7h9.6v85.7zM498.8 76l32.9 72.4 33.7-72.5 13.2 90.6h-9.8l-8-59.6-29.1 63.1-28.8-63.2-8.5 59.6h-9.8L498.8 76zm179.6 47.6c0 24.5-20.2 44.3-45 44.3-12.2 0-24.7-5.7-33.2-15-7.2-8.1-11.1-18.3-11.1-29.8 0-23.6 20.6-43.8 44.7-43.8 24.6 0 44.6 20.1 44.6 44.3zm-79.5-.5c0 10.5 3.7 19.3 10.9 26.1 6.6 6.2 15.3 9.8 23.8 9.8 19.5 0 35.2-15.7 35.2-35.3 0-19.5-15.6-35.3-35-35.3-19.1-.1-34.9 15.7-34.9 34.7zm95.2-42.4h17.6c13.9 0 23.3 3 31.5 9.9 9.6 8 14.8 19.5 14.8 32.9 0 13.5-5.1 24.9-15 33-8.5 7.1-17.5 9.9-31.4 9.9h-17.5V80.7zm18 76.9c10.5 0 18.1-2.4 24.5-7.8 7.6-6.3 11.7-15.7 11.7-26.1 0-10.5-4.2-20-11.6-26.2-6.4-5.4-14.1-7.8-24.7-7.8h-8.4v68h8.5zm69-68v25.6h33.8v8.9h-33.8v33.5h34.7v8.9h-44.3V80.7h44.3v8.9h-34.7zm60.3 68h23.5v8.9h-33.2V80.7h9.6v76.9zm121.6-34c0 24.5-20.2 44.3-45 44.3-12.2 0-24.7-5.7-33.2-15-7.2-8.1-11.1-18.3-11.1-29.8 0-23.6 20.6-43.8 44.7-43.8 24.5 0 44.6 20.1 44.6 44.3zm-79.6-.5c0 10.5 3.7 19.3 10.9 26.1 6.6 6.2 15.3 9.8 23.8 9.8 19.5 0 35.2-15.7 35.2-35.3 0-19.5-15.6-35.3-35-35.3-19.1-.1-34.9 15.7-34.9 34.7z" fill="#555"/><path d="M408.6 228.2c-1.6-3.1-3.6-4.5-6.4-4.5-3 0-5.5 2.3-5.5 5.1 0 2.6 1.5 4.1 7.4 6.5 5.3 2.2 6.6 2.9 8.7 4.4 3.3 2.4 5.1 5.7 5.1 10 0 8.5-6.7 14.8-15.6 14.8-7.6 0-13-4-15.9-11.6l6.9-2.9c2.6 5.5 4.8 7.4 9.1 7.4s7.5-3.1 7.5-7.1c0-3.5-1.6-5.2-7.4-7.6-10.5-4.6-13.2-7.3-13.2-13.3 0-7.3 5.7-12.7 13.3-12.7 5.6 0 9.7 2.6 12.5 8.2l-6.5 3.3zm92.5 12.3c0 13.5-10.5 24-24.3 24-13.5 0-24-10.7-24-24.4 0-13 10.9-23.5 24.2-23.5 13.6 0 24.1 10.4 24.1 23.9zm-40.2-.2c0 9.9 6.6 17 15.9 17 9.5 0 16.3-6.9 16.3-16.8 0-9.8-6.8-16.8-16.2-16.8-9.2 0-16 7.1-16 16.6zm86.2 22.8h-7.8V183h7.8v80.1zm49.4-19c0 4.3.4 6.6 1.4 8.6 1.5 2.9 4.9 4.6 8.9 4.6 3.8 0 7.3-1.8 8.8-4.6 1-2 1.4-4.3 1.4-8.6v-26.6h7.8V245c0 6.7-1.1 10.3-4.2 13.7-3.3 3.7-8.2 5.7-13.8 5.7-5.7 0-10.7-2-14-5.7-3.1-3.4-4.2-7-4.2-13.7v-27.5h7.8v26.6zm78.3 19H667v-38.4h-4.7v-7.3h4.7v-16.5h7.8v16.5h8.1v7.3h-8.1v38.4zm52.6-62.8c0 3.1-2.5 5.6-5.6 5.6s-5.6-2.5-5.6-5.7c0-3 2.5-5.5 5.6-5.5s5.6 2.5 5.6 5.6zm-1.8 62.8h-7.8v-45.6h7.8v45.6zm86.7-22.6c0 13.5-10.5 24-24.3 24-13.5 0-24-10.7-24-24.4 0-13 10.9-23.5 24.2-23.5 13.6 0 24.1 10.4 24.1 23.9zm-40.2-.2c0 9.9 6.6 17 15.9 17 9.5 0 16.3-6.9 16.3-16.8 0-9.8-6.8-16.8-16.2-16.8-9.2 0-16 7.1-16 16.6zm86.3-22.8v5.5c4-4.8 7.5-6.6 13.2-6.6 5.5 0 10.5 2.4 13.1 6.3 1.8 2.9 2.5 6.3 2.5 12.2v28.2h-7.8v-26.9c0-4.8-.3-7-1.5-8.9-1.4-2.4-4.4-3.8-8.1-3.8-7.9 0-11.3 5.1-11.3 16.9v22.7h-7.8v-45.6h7.7zm88.9 10.7c-1.6-3.1-3.6-4.5-6.4-4.5-3 0-5.5 2.3-5.5 5.1 0 2.6 1.5 4.1 7.4 6.5 5.3 2.2 6.6 2.9 8.7 4.4 3.3 2.4 5.1 5.7 5.1 10 0 8.5-6.7 14.8-15.6 14.8-7.6 0-13-4-15.9-11.6l6.9-2.9c2.6 5.5 4.8 7.4 9.1 7.4s7.5-3.1 7.5-7.1c0-3.5-1.6-5.2-7.4-7.6-10.5-4.6-13.2-7.3-13.2-13.3 0-7.3 5.7-12.7 13.3-12.7 5.6 0 9.7 2.6 12.5 8.2l-6.5 3.3z" fill="#BCBCBC"/></svg>