<svg xmlns="http://www.w3.org/2000/svg" role="img" viewBox="-5.42 -10.42 619.84 280.84"><title>Dremio Data Reflections logo</title><g fill="none" fill-rule="evenodd"><path d="M522.22 57.966c0 3.43333-1.18267 6.18267-3.54267 8.144-2.31066 2.012-5.08133 2.992-8.26266 2.992-3.17867 0-5.95067-.98-8.26134-2.992-2.36266-1.96133-3.54-4.71067-3.54-8.144 0-3.48267 1.17734-6.18133 3.54-8.19333C504.464 47.81 507.236 46.83 510.41467 46.83c3.18133 0 5.952.98 8.26266 2.94267 2.36 2.012 3.54267 4.71066 3.54267 8.19333" fill="#393c42"/><path fill="#393c42" d="M520.372 78.475v66.628h-19.756V78.475z"/><path d="M301.95 93.979c-1.79467-.44266-3.95067-.88266-6.36133-1.37466-2.46534-.49067-5.08267-.68534-7.904-.68534-1.232 0-2.76934.09733-4.51734.29334-1.79466.244-3.128.44133-4.00266.736v52.15333H258.946V80.487c3.592-1.22666 7.90133-2.35466 12.828-3.43466 4.928-1.08 10.42-1.61867 16.47333-1.61867 1.08 0 2.41334.048 3.95334.196 1.54133.09733 3.07866.29333 4.61733.48933 1.54133.24533 3.08.492 4.61733.78533 1.54133.29467 2.824.68534 3.90267 1.128L301.95 93.979" fill="#393c42"/><path d="M582.31466 110.85667c0-5.98534-1.23333-10.696-3.696-14.08133-2.516-3.43334-6.056-5.15067-10.67333-5.15067-4.62 0-8.16 1.71733-10.72933 5.15067-2.512 3.38533-3.79467 8.096-3.79467 14.08133 0 5.936 1.28267 10.69466 3.79467 14.17733 2.56933 3.536 6.10933 5.25067 10.72933 5.25067 4.61734 0 8.15734-1.71467 10.67334-5.25067 2.46266-3.48267 3.696-8.24133 3.696-14.17733m20.68266 0c0 5.34933-.824 10.25333-2.46267 14.71866-1.644 4.46534-4.00666 8.244-7.08666 11.432-3.076 3.13867-6.72133 5.59334-11.03067 7.31067-4.312 1.71733-9.136 2.6-14.472 2.6-5.236 0-10.00933-.88267-14.31866-2.6-4.312-1.71733-8.008-4.172-11.03334-7.31067-3.08-3.188-5.49333-6.96666-7.23733-11.432-1.69067-4.46533-2.56533-9.36933-2.56533-14.71866 0-5.396.87466-10.256 2.66933-14.66933 1.74667-4.416 4.20933-8.19334 7.33733-11.284 3.08-3.14 6.82667-5.54534 11.08534-7.26267 4.31066-1.76533 8.97866-2.6 14.06266-2.6 5.184 0 9.904.83467 14.21334 2.6 4.25866 1.71733 7.956 4.12267 11.03466 7.26267 3.07867 3.09066 5.49067 6.868 7.18534 11.284 1.744 4.41333 2.61866 9.27333 2.61866 14.66933" fill="#393c42"/><path d="M356.905 104.083c-.05067-1.61867-.36267-3.236-.87333-4.80667-.512-1.52-1.28534-2.94266-2.31067-4.12-1.02267-1.228-2.35867-2.208-3.95067-2.99333-1.54-.78533-3.54266-1.17733-5.90266-1.17733-2.25734 0-4.20934.392-5.79734 1.128-1.644.73733-2.976 1.668-4.10666 2.89466-1.07734 1.22534-1.89867 2.6-2.51467 4.22-.56133 1.61867-.976 3.236-1.28 4.85467zm-47.47333 7.41067c0-6.08534.97733-11.38267 2.928-15.89733 1.896-4.56267 4.46133-8.33867 7.64266-11.33334 3.18667-3.04133 6.828-5.34667 10.936-6.916 4.10667-1.52133 8.36134-2.308 12.67467-2.308 10.15867 0 18.168 2.94534 24.01733 8.88134 5.90267 5.93733 8.82667 14.62133 8.82667 26.15066 0 1.12667-.052 2.356-.10267 3.68-.10533 1.372-.20667 2.55067-.308 3.58H330.169c.46 3.976 2.412 7.11333 5.84667 9.46933 3.44 2.35467 8.05733 3.48267 13.85866 3.48267 3.69334 0 7.33467-.29333 10.928-.93067 3.544-.68666 6.46667-1.472 8.724-2.40533l2.72133 15.70133c-1.07733.49067-2.51333 1.03067-4.30933 1.52134-1.85067.53733-3.84933.98-6.056 1.372-2.208.39333-4.61733.736-7.136.98266-2.51333.24534-5.07866.392-7.59333.392-6.41333 0-12.00667-.932-16.78133-2.74666-4.72-1.81734-8.67467-4.27067-11.80134-7.45734-3.13066-3.14133-5.44133-6.86933-6.92933-11.18533-1.49067-4.368-2.20933-9.028-2.20933-14.03333z" fill="#393c42"/><path d="M426.902 108.89167c0-6.22934-.81867-10.644-2.51467-13.24534-1.69466-2.6-4.568-3.87466-8.61866-3.87466-1.28534 0-2.56534.04933-3.95467.19466-1.336.09733-2.668.29467-3.90133.44267v52.69333h-20.268v-65.94c1.74533-.44266 3.748-.88266 6.05466-1.37333 2.31067-.44133 4.77467-.884 7.34-1.27733 2.564-.392 5.23334-.68534 7.95467-.88267 2.71733-.244 5.38933-.34267 8.004-.34267 5.13467 0 9.34133.636 12.52267 1.864 3.232 1.276 5.904 2.74667 7.952 4.51334 2.92933-2.01067 6.212-3.58134 10.00933-4.70934 3.74533-1.128 7.18666-1.668 10.36533-1.668 5.69733 0 10.368.736 14.06133 2.256 3.64534 1.52 6.57067 3.68 8.72534 6.428 2.20533 2.796 3.69733 6.084 4.516 9.86134.76933 3.828 1.18 8.04533 1.18 12.70533v38.56533h-20.21867v-36.21066c0-6.22934-.81867-10.644-2.51333-13.24534-1.644-2.6-4.51733-3.87466-8.624-3.87466-1.07733 0-2.56533.24533-4.516.784-1.948.49066-3.54134 1.128-4.82134 1.91333.612 2.012 1.02267 4.12267 1.22934 6.32933.152 2.20667.25867 4.56267.25867 7.06534v37.23866H426.902v-36.21066" fill="#393c42"/><path d="M223.89666 129.64667c-1.02666.19733-2.25866.344-3.79733.44266-1.54133.14667-3.23333.19467-5.03066.19467-5.54134 0-9.69867-1.81467-12.52-5.444-2.77067-3.632-4.20934-8.44-4.20934-14.376 0-12.46133 4.824-18.692 14.42134-18.692 2.05066 0 4.10533.24533 6.156.78533 2.05466.48934 3.69866 1.17467 4.98 1.912zm0-77.58533v26.316c-2.25866-.932-4.51733-1.668-6.724-2.208-2.20666-.48934-4.72-.73467-7.54266-.73467-5.08133 0-9.59867.78266-13.49733 2.45333-3.952 1.61733-7.28667 4.02267-10.008 7.11333-2.71867 3.14-4.77067 6.91734-6.20934 11.38134-1.436 4.46533-2.20666 9.41866-2.20666 14.964 0 5.44533.87333 10.35333 2.51333 14.71733 1.69467 4.368 4.10667 8.09733 7.28933 11.188 3.18134 3.04267 7.02934 5.448 11.64934 7.06533 4.61733 1.668 9.852 2.45334 15.75466 2.45334 2.464 0 5.028-.1 7.7-.29334 2.66667-.24666 5.284-.492 7.84933-.884 2.56534-.34533 5.028-.73733 7.39067-1.228 2.36133-.44133 4.41467-.93066 6.26-1.472V46.83067z" fill="#393c42"/><path d="M51.00233 122.63067c-5.924 2.68667-17.45333 8.7-16.36 15.21733 1.504 4.00667 6.19867-.228 7.93067-1.91333 3.736-3.50933 6.69733-8.384 8.42933-13.304m35.36-14.39733c-3.91867 10.25066-15.356 15.12666-18.54533 13.396-1.596-.86667.136-4.10134.18133-6.33334-2.324.91067-6.152 2.596-8.476 3.55334 5.56 4.14533 8.43067 11.29866 8.38534 18.088 0 6.96933-2.86934 13.39333-8.248 17.81333 9.56933 14.16666 4.696 26.376-8.47467 35.89866l-.82133.54667-.27334-.956c-1.95733-6.74267-4.42-12.43733-9.068-17.81467-2.324-2.68666-4.968-5.148-7.564-7.608C30.041 161.58267 26.761 158.304 23.661 154.796c-13.032-13.85066-18.18267-37.86-16.49467-56.40266.864-9.56667 3.78267-18.724 8.24667-27.19867C18.96767 64.452 23.47833 58.256 28.67433 52.7 40.157 40.39734 55.377 30.692 71.55433 25.90934c14.216-4.23467 30.48267-4.96534 44.01867 2.00533 2.18666 1.13867 5.468 3.14267 7.29066 4.64667 1.14134 1.04666 2.27734 2.14133 3.372 3.18933.136.0907.27467.228.36534.36267l63.29466-32.3c5.23867-2.596 9.15733-2.596 10.75333-.72667 1.868 2.18534-.728 6.74-4.41866 9.42933l-54.228 39.36267c.956 3.14267-.63867 7.69867-3.00933 10.38667 7.248 2.50533.86666 13.12-2.32267 16.90266-9.068 10.752-25.7 19.18-40.50933 25.33067-3.96534 1.68533-6.24267 2.416-9.79867 3.73467" fill="#393c42"/><path d="M135.98666 71.104c4.056-5.10266 1.23067-8.064-1.59466-5.19333-5.56 5.69333-13.98934 7.652-21.59867 6.42267-11.12133-1.868-11.61867-3.55334-9.752-5.19467 13.124 4.78533 28.388-1.456 34.72133-11.79867 2.73467-3.91733-6.424-7.06133-11.84533-14.396C99.988 5.95467 18.83067 36.48 11.084 97.66534c-2.37067 18.404 2.77867 38.768 15.44933 53.11866 9.476 10.75333 19.77467 15.21867 25.60667 32.12133 11.348-9.75066 9.56933-20.77466 1.27867-30.43333 14.16933-7.38133 12.11866-26.56266 2.14-32.39333-4.64667 17.084-21.32667 29.704-25.2 17.58533-2.50534-12.34666 17.81866-20.54533 50.39866-32.892 27.25067-10.20666 44.84-18.63466 55.22933-33.668" fill="#55bfce"/><path d="M135.98666 71.10334c4.056-5.10267 1.23067-8.064-1.59466-5.19334-4.78267 4.92-11.984 7.06267-18.54667 6.74267C104.636 71.83267 95.704 69.646 87.50266 70.51 71.36933 72.15 55.64933 82.35534 47.22 90.966c-14.21733 14.58-29.89333 44.82933-14.08 50.708-1.18533-.73067-2.14267-2.05067-2.78133-4.01067-2.50534-12.34666 17.81866-20.54533 50.39866-32.892 27.25067-10.20666 44.84-18.63466 55.22933-33.668" fill="#fff"/><path d="M66.22033 94.97633c8.38534 4.1 6.7 18.496 5.46934 22.09734 15.90266-4.512 11.164-28.064 18.548-35.264-9.252-.27334-26.56934 9.02-24.01734 13.16666" fill="#55bfce"/><path d="M93.10667 52.33267c2.27733-1.184 5.05866-.364 6.28933 1.91466 1.184 2.232.31733 5.01067-1.916 6.24134-2.232 1.184-5.056.36266-6.24267-1.91334-1.22933-2.23333-.364-5.012 1.86934-6.24266" fill="#393c42"/><path d="M131.70333 54.29267l63.796-44.42c1.776-1.27467 4.148-4.00934 3.18934-5.33067-.95467-1.32-3.736-.592-6.10534.456L123.59 42.26467c-2.23067 4.64666 2.28 14.44266 8.11333 12.028" fill="#55bfce"/><path d="M126.099 45.49967l66.66666-39.22534c2.916-1.732 4.056-1.68666 5.83067-1.86933-1.00133-1.13733-3.736-.45467-6.01333.592l-68.992 37.26667c-1.684 3.508.50267 10.024 4.19333 11.892-1.32133-2.87067-2.18666-5.87734-1.68533-8.656" fill="#fff"/><path d="M27.898 62.94767c2.18667-.364 3.87467 1.14 3.828 3.37333 0 2.23067-1.776 4.328-3.96267 4.692-2.14266.36267-3.83066-1.14-3.78266-3.32667 0-2.232 1.77466-4.328 3.91733-4.73866" fill="#25abad"/><path d="M40.84 48.688c1.91467-.31867 3.41733 1.00267 3.37067 2.96267-.04534 2.00533-1.59467 3.82533-3.508 4.19066-1.91334.32-3.41867-1.00266-3.372-2.96133.04533-1.95867 1.59466-3.828 3.50933-4.192" fill="#25abad"/><path d="M79.98333 29.828c1.96.09067 3.144 1.73067 2.64267 3.644-.456 1.91467-2.41467 3.372-4.328 3.28-1.91733-.09067-3.1-1.732-2.644-3.644.45467-1.91467 2.41467-3.372 4.32933-3.28" fill="#25abad"/><path d="M91.96733 27.86833c1.59467.364 2.368 1.82134 1.732 3.37067-.63866 1.50267-2.46133 2.46133-4.00933 2.14133-1.59467-.364-2.372-1.82266-1.73333-3.37066.63733-1.50267 2.46-2.46134 4.01066-2.14134" fill="#25abad"/><path d="M40.97667 57.61667c1.41066-.228 2.552.77466 2.50533 2.23333 0 1.45733-1.18533 2.824-2.59733 3.05333-1.412.27334-2.50534-.72933-2.50534-2.188.04534-1.45733 1.184-2.82533 2.59734-3.09866" fill="#25abad"/><path d="M20.79 74.38333c1.45867-.272 2.644.77467 2.59867 2.28 0 1.548-1.22934 2.96-2.68934 3.23334-1.504.228-2.644-.77467-2.644-2.27734.048-1.54933 1.23067-3.00666 2.73467-3.236" fill="#25abad"/><path d="M140.088 33.38067l-2.96 1.59466c.22533 4.328 3.78 9.568 6.33067 10.43334-2.004-3.052-3.82534-8.33867-3.37067-12.028m15.90267-8.60934l-2.596 1.412c.31866 3.872 3.508 8.51867 5.10266 8.792-1.23066-1.86666-2.82533-7.06-2.50666-10.204m15.72133-8.52l-2.00533 1.09334c-.04533 2.55066 1.824 6.37733 3.91733 6.92533-1.00133-1.59467-2.232-4.876-1.912-8.01867m15.12933-8.15466l-1.73333.956c.13867 1.68666 2.09733 4.82933 3.19067 5.33066-.41067-1.22933-1.64-3.73466-1.45734-6.28666" fill="#25abad"/></g><path d="M142.88013 240.91415q0 4.75782-2.08594 8.625-2.0625 3.86719-5.50781 6-2.39063 1.47657-5.34375 2.13282-2.92969.65625-7.73438.65625h-8.8125v-34.89844h8.71875q5.10938 0 8.10938.75 3.02343.72656 5.10937 2.01562 3.5625 2.22657 5.55469 5.92969 1.99219 3.70313 1.99219 8.78906zm-4.85157-.0703q0-4.10156-1.42968-6.91406-1.42969-2.8125-4.26563-4.42969-2.0625-1.17187-4.38281-1.61719-2.32031-.46875-5.55469-.46875h-4.35937v26.92969h4.35937q3.35156 0 5.83594-.49219 2.50781-.49218 4.59375-1.82812 2.60156-1.66406 3.89062-4.38281 1.3125-2.71875 1.3125-6.79688zm32.34375 17.48437h-4.38281v-2.78907q-.58594.39844-1.59375 1.125-.98437.70313-1.92187 1.125-1.10157.53907-2.53125.89063-1.42969.375-3.35157.375-3.53906 0-6-2.34375-2.46093-2.34375-2.46093-5.97656 0-2.97657 1.26562-4.80469 1.28906-1.85156 3.65625-2.90625 2.39063-1.05469 5.74219-1.42969t7.19531-.5625v-.67969q0-1.5-.53906-2.48437-.51563-.98438-1.5-1.54688-.9375-.53906-2.25-.72656t-2.74219-.1875q-1.73437 0-3.86719.46875-2.13281.44531-4.40625 1.3125h-.23437v-4.47656q1.28906-.35156 3.72656-.77344 2.4375-.42187 4.80469-.42187 2.76562 0 4.80469.46875 2.0625.44531 3.5625 1.54687 1.47656 1.07813 2.25 2.78906.77343 1.71094.77343 4.24219zm-4.38281-6.44532v-7.28906q-2.01562.11719-4.75781.35156-2.71875.23438-4.3125.67969-1.89844.53906-3.07031 1.6875-1.17188 1.125-1.17188 3.11719 0 2.25 1.35938 3.39844 1.35937 1.125 4.14843 1.125 2.32032 0 4.24219-.89063 1.92188-.91406 3.5625-2.17969zm26.46094 6.21094q-1.24219.32813-2.71875.53906-1.45313.21094-2.60156.21094-4.00782 0-6.09375-2.15625-2.08594-2.15625-2.08594-6.91406v-13.92188h-2.97656v-3.70312h2.97656v-7.52344h4.40625v7.52344h9.09375v3.70312h-9.09375v11.92969q0 2.0625.0937 3.23438.0937 1.14843.65625 2.15625.51562.9375 1.40625 1.38281.91406.42187 2.76562.42187 1.07813 0 2.25-.30468 1.17188-.32813 1.6875-.53907h.23438zm25.66406.23438h-4.38281v-2.78907q-.58594.39844-1.59375 1.125-.98438.70313-1.92188 1.125-1.10156.53907-2.53125.89063-1.42968.375-3.35156.375-3.53906 0-6-2.34375t-2.46094-5.97656q0-2.97657 1.26563-4.80469 1.28906-1.85156 3.65625-2.90625 2.39062-1.05469 5.74219-1.42969 3.35156-.375 7.19531-.5625v-.67969q0-1.5-.53906-2.48437-.51563-.98438-1.5-1.54688-.9375-.53906-2.25-.72656t-2.74219-.1875q-1.73438 0-3.86719.46875-2.13281.44531-4.40625 1.3125h-.23437v-4.47656q1.28906-.35156 3.72656-.77344 2.4375-.42187 4.80469-.42187 2.76562 0 4.80468.46875 2.0625.44531 3.5625 1.54687 1.47657 1.07813 2.25 2.78906.77344 1.71094.77344 4.24219zm-4.38281-6.44532v-7.28906q-2.01563.11719-4.75781.35156-2.71875.23438-4.3125.67969-1.89844.53906-3.07032 1.6875-1.17187 1.125-1.17187 3.11719 0 2.25 1.35937 3.39844 1.35938 1.125 4.14844 1.125 2.32031 0 4.24219-.89063 1.92187-.91406 3.5625-2.17969zm58.96875 6.44532H266.677l-11.67187-13.875h-6.53907v13.875h-4.64062v-34.89844h9.77344q3.16406 0 5.27343.42187 2.10938.39844 3.79688 1.45313 1.89844 1.19531 2.95312 3.02344 1.07813 1.80468 1.07813 4.59375 0 3.77343-1.89844 6.32812-1.89844 2.53125-5.22656 3.82031zm-10.85156-25.07813q0-1.5-.53907-2.64844-.51562-1.17187-1.73437-1.96875-1.00781-.67968-2.39063-.9375-1.38281-.28125-3.25781-.28125h-5.46094v13.17188h4.6875q2.20313 0 3.84375-.375 1.64063-.39844 2.78907-1.45313 1.05468-.98437 1.54687-2.25.51563-1.28906.51563-3.25781zm35.74218 12.44531H278.302q0 2.41407.72656 4.21875.72657 1.78125 1.99219 2.92969 1.21875 1.125 2.88281 1.6875 1.6875.5625 3.70313.5625 2.67187 0 5.36719-1.05469 2.71875-1.07812 3.86718-2.10937h.23438v4.80469q-2.22656.9375-4.54688 1.57031-2.32031.63281-4.875.63281-6.51562 0-10.17187-3.51562-3.65625-3.53907-3.65625-10.03125 0-6.42188 3.49219-10.19532 3.51562-3.77343 9.23437-3.77343 5.29688 0 8.15625 3.09375 2.88281 3.09375 2.88281 8.78906zm-4.28906-3.375q-.0234-3.46875-1.75781-5.36718-1.71094-1.89844-5.22656-1.89844-3.53907 0-5.64844 2.08594-2.08594 2.08593-2.36719 5.17968zm25.05469-16.19531h-.23438q-.72656-.21094-1.89843-.42187-1.17188-.23438-2.0625-.23438-2.83594 0-4.125 1.26563-1.26563 1.24218-1.26563 4.52343v.89063h7.94531v3.70312h-7.80468v22.47657h-4.40625v-22.47657h-2.97657v-3.70312h2.97657v-.86719q0-4.66406 2.32031-7.14844 2.32031-2.50781 6.70312-2.50781 1.47657 0 2.64844.14063 1.19531.14062 2.17969.32812zm7.24219 32.20313h-4.40625v-36.46875h4.40625zm30.63281-12.63282h-19.28906q0 2.41407.72656 4.21875.72656 1.78125 1.99219 2.92969 1.21875 1.125 2.88281 1.6875 1.6875.5625 3.70312.5625 2.67188 0 5.36719-1.05469 2.71875-1.07812 3.86719-2.10937h.23437v4.80469q-2.22656.9375-4.54687 1.57031-2.32031.63281-4.875.63281-6.51563 0-10.17188-3.51562-3.65625-3.53907-3.65625-10.03125 0-6.42188 3.49219-10.19532 3.51563-3.77343 9.23438-3.77343 5.29687 0 8.15625 3.09375 2.88281 3.09375 2.88281 8.78906zm-4.28906-3.375q-.0234-3.46875-1.75782-5.36718-1.71093-1.89844-5.22656-1.89844-3.53906 0-5.64844 2.08594-2.08593 2.08593-2.36718 5.17968zm30.32812 14.36719q-2.20312 1.05469-4.19531 1.64063-1.96875.58593-4.19531.58593-2.83594 0-5.20313-.82031-2.36719-.84375-4.05469-2.53125-1.71093-1.6875-2.64843-4.26562-.9375-2.57813-.9375-6.02344 0-6.42188 3.51562-10.07813 3.53906-3.65625 9.32813-3.65625 2.25 0 4.40625.63282 2.17968.63281 3.98437 1.54687v4.89844h-.23437q-2.01563-1.57031-4.17188-2.41406-2.13281-.84375-4.17187-.84375-3.75 0-5.92969 2.53125-2.15625 2.50781-2.15625 7.38281 0 4.73437 2.10937 7.28906 2.13282 2.53125 5.97657 2.53125 1.33593 0 2.71875-.35156 1.38281-.35156 2.48437-.91406.96094-.49219 1.80469-1.03125.84375-.5625 1.33594-.96094h.23437zm19.24219 1.40625q-1.24219.32813-2.71875.53906-1.45313.21094-2.60156.21094-4.00782 0-6.09375-2.15625-2.08594-2.15625-2.08594-6.91406v-13.92188h-2.97656v-3.70312h2.97656v-7.52344h4.40625v7.52344h9.09375v3.70312h-9.09375v11.92969q0 2.0625.0937 3.23438.0937 1.14843.65625 2.15625.51562.9375 1.40625 1.38281.91406.42187 2.76562.42187 1.07813 0 2.25-.30468 1.17188-.32813 1.6875-.53907h.23438zm10.05469-30.32812h-4.96875v-4.57032h4.96875zm-.28125 30.5625h-4.40625v-26.17969h4.40625zm31.03125-13.07813q0 6.39844-3.28125 10.10156-3.28125 3.70313-8.78907 3.70313-5.55468 0-8.83593-3.70313-3.25782-3.70312-3.25782-10.10156 0-6.39844 3.25782-10.10156 3.28125-3.72656 8.83593-3.72656 5.50782 0 8.78907 3.72656 3.28125 3.70312 3.28125 10.10156zm-4.54688 0q0-5.08594-1.99219-7.54687-1.99218-2.48438-5.53125-2.48438-3.58593 0-5.57812 2.48438-1.96875 2.46093-1.96875 7.54687 0 4.92188 1.99219 7.47656 1.99218 2.53125 5.55468 2.53125 3.51563 0 5.50782-2.50781 2.01562-2.53125 2.01562-7.5zm33.25781 13.07813h-4.40625v-14.90625q0-1.80469-.21093-3.375-.21094-1.59375-.77344-2.48438-.58594-.98437-1.6875-1.45312-1.10156-.49219-2.85938-.49219-1.80468 0-3.77343.89062-1.96875.89063-3.77344 2.27344v19.54688h-4.40625v-26.17969h4.40625v2.90625q2.0625-1.71094 4.26562-2.67188 2.20313-.96093 4.52344-.96093 4.24219 0 6.46875 2.55468 2.22656 2.55469 2.22656 7.35938zm27.1875-7.54688q0 3.58594-2.97656 5.88281-2.95312 2.29688-8.08594 2.29688-2.90625 0-5.34375-.67969-2.41406-.70312-4.05468-1.52344v-4.94531h.23437q2.08594 1.57031 4.64063 2.50781 2.55468.91407 4.89843.91407 2.90625 0 4.54688-.9375 1.64062-.9375 1.64062-2.95313 0-1.54687-.89062-2.34375-.89063-.79687-3.42188-1.35937-.9375-.21094-2.46093-.49219-1.5-.28125-2.74219-.60938-3.44531-.91406-4.89844-2.67187-1.42969-1.78125-1.42969-4.35938 0-1.61718.65625-3.04687.67969-1.42969 2.03907-2.55469 1.3125-1.10156 3.32812-1.73437 2.03906-.65625 4.54688-.65625 2.34375 0 4.73437.58593 2.41406.5625 4.00781 1.38282v4.71093h-.23437q-1.6875-1.24218-4.10156-2.08593-2.41407-.86719-4.73438-.86719-2.41406 0-4.07812.9375-1.66407.91406-1.66407 2.74219 0 1.61718 1.00782 2.4375.98437.82031 3.1875 1.33593 1.21875.28125 2.71875.5625 1.52343.28125 2.53125.51563 3.07031.70312 4.73437 2.41406 1.66406 1.73438 1.66406 4.59375z"/></svg>