<svg xmlns="http://www.w3.org/2000/svg" role="img" viewBox="-21.75 -19.25 2431.00 521.00"><title>Dundas logo</title><path d="M1552.3 380.301V278.846c0-12.453-1.099-24.54-3.297-35.894-5.494-.366-11.354-.366-17.214-.366-52.376 0-102.188 8.058-144.674 22.342-13.918 4.761-27.104 9.889-39.556 15.749-5.86 2.564-11.354 5.86-16.848 8.79-24.906 18.313-39.19 44.318-39.19 78.747 0 46.149 35.161 89.002 93.764 89.002 34.429 0 64.463-12.453 83.142-35.894h1.831l5.494 29.301h81.311c-3.298-16.115-4.763-43.218-4.763-70.322m-87.171-35.528c0 5.494-.733 10.622-1.831 15.383-5.86 18.313-24.906 33.33-46.882 33.33-20.145 0-35.528-11.354-35.528-34.429 0-34.429 36.626-45.783 84.241-45.783v31.499zM312.862 88.755C274.771 59.82 224.959 47.001 148.41 47.001c-45.05 0-88.636 2.93-121.6 8.79v392.635c21.976 2.93 55.672 5.86 102.554 5.86 78.381 0 143.209-16.848 185.33-51.643 38.091-32.597 65.928-85.34 65.928-162.255-.001-71.055-26.372-120.867-67.76-151.633M148.043 383.964c-10.622 0-23.441 0-31.499-1.831V120.254c7.692-1.831 21.61-3.663 41.022-3.663 78.38 0 127.094 41.022 127.094 127.094 0 95.594-53.841 140.645-136.617 140.279m524.124-26.738c0 38.091 1.099 68.858 2.564 93.397h-78.38l-4.029-41.022h-1.831c-11.354 17.947-38.458 47.614-90.833 47.614-59.335 0-102.188-36.993-102.188-126.361V160.543h90.101v156.395c0 42.12 13.552 67.759 45.783 67.759 24.906 0 39.556-17.214 45.05-31.499 2.198-5.494 3.663-11.72 3.663-19.778V160.543h90.101v196.683zm19.046-104.751c0-36.26-1.099-66.294-2.564-92.665h78.747l4.029 40.289h1.831c12.087-19.046 41.022-46.882 89.735-46.882 59.335 0 104.019 39.923 104.019 125.262v171.778h-90.101v-160.79c0-37.359-12.819-62.997-45.783-62.997-24.906 0-39.923 17.214-46.516 33.696-2.198 5.86-2.93 14.284-2.93 22.342v167.749h-90.101l-.366-197.782zm839.844-54.573c-19.046-27.104-52.01-44.684-105.484-44.684-52.742 0-92.665 15.017-112.809 26.005l17.581 59.701c54.572-25.273 124.162-40.656 200.712-41.022m240.635-27.104c-17.947-9.157-47.614-17.214-81.311-17.214-48.347 0-84.973 18.679-104.019 47.248 63.73 6.226 121.233 23.441 166.284 48.347l19.046-78.381zm-199.614 78.38c-.366 34.063 22.708 67.026 83.142 86.805 33.33 11.354 42.12 18.313 42.12 33.696 0 15.017-11.354 23.807-38.824 23.807-26.737 0-61.166-11.354-77.648-21.243l-16.116 64.096c21.976 11.72 56.038 20.877 93.764 20.877 83.142 0 125.262-39.923 125.262-94.496-.366-18.679-4.761-34.795-14.651-48.347-43.219-36.993-115.007-63.364-197.05-69.956.368 1.099.001 2.93.001 4.761m-294.11 114.275V28.688h-90.467v157.494h-1.099c-13.186-19.778-40.289-32.598-76.549-32.598-69.59 0-130.756 57.137-130.024 154.563 0 90.101 55.306 148.703 124.53 148.703 37.359 0 72.886-16.848 90.833-48.713h1.831l3.296 42.12h80.212c-1.098-19.412-2.563-53.474-2.563-86.804m-90.101-42.12c0 6.959-.733 14.284-1.831 20.145-5.128 25.638-26.737 43.219-52.742 43.219-37.359 0-61.899-30.766-61.899-79.479 0-45.783 20.877-82.776 62.265-82.776 27.836 0 47.248 19.778 52.742 43.952 1.099 5.494 1.099 11.354 1.099 16.482v38.458h.366z" fill="#323232"/><path fill="#2896D3" d="M2363.344 46.03v63.12c-1.1 93.42-34.88 146.05-87.7 178.96V46.03h87.7zm0 223.83v180.52h-87.7v-108.5c50.18-22.24 69.38-47.63 87.7-72.02zm-134.82 89.02c-34.03 10.04-72.16 16.3-110.72 18.82-4.48.58-9.06.86-13.68.86h-57.61v-.45c-31.19-1.7-61.11-5.95-87.7-12.68v84.95h147.56c66.62 0 140.82-24.78 150.52-100.89-8.65 3.22-18.07 6.35-28.37 9.39zm-182.01-82.97h65.2c36.28 0 60.75 15.18 59.91 51.18-.01.23-.01.46-.02.68 9.73-1.92 19.36-4.28 28.8-7.15 18.96-5.75 36.82-12.39 53.28-20.41-17.43-59.96-82.34-66.49-82.34-66.49v-1.69s67.78-15.19 67.78-87.47c0-90.56-94.78-98.53-134.16-98.53h-146.15v274.59s36.96 9.06 87.7 12.88v-57.59zm0-158.35h52.27c20.39 0 54.14 3.66 53.85 43.6-.28 39.93-37.96 46.26-59.34 46.26h-46.78v-89.86z"/><path fill="#B1E7FF" d="M2046.514 333.5v44.61c-31.19-1.7-61.11-5.95-87.7-12.68v-44.81s36.96 9.06 87.7 12.88zm211.45-1.34c0 6.05-.36 11.83-1.07 17.33-8.65 3.22-18.07 6.35-28.37 9.39-34.03 10.04-72.16 16.3-110.72 18.82 28.56-3.65 52.74-19.22 53.8-49.93 9.73-1.92 19.36-4.28 28.8-7.15 18.96-5.75 36.82-12.39 53.28-20.41 2.72 9.3 4.28 19.9 4.28 31.95zm105.38-223.01v160.71c-18.32 24.39-37.52 49.78-87.7 72.02v-53.77c52.82-32.91 86.6-85.54 87.7-178.96z"/></svg>