<svg xmlns="http://www.w3.org/2000/svg" role="img" viewBox="6.31 11.44 107.25 37.00"><title>Fivetran Integrations logo</title><path d="M47.2 23.4v2.5h-6.7v2.7h6.2v2.5h-6.2v5.2h-3.2V23.4zm2.6 0h2.8v2.2h-2.8zm0 3.3h2.8v9.6h-2.8zm4.8 0h3c1.2 4.2 1.4 5.1 1.7 6.9.4-2.1.4-2.4 1-4.6l.6-2.3h2.9l-3.1 9.5h-2.9zm19.8 7.2c-.3.5-.7 1-1.2 1.4-1 .9-2.3 1.4-3.6 1.4-2.8 0-4.8-1.8-4.8-4.9 0-2.3 1.1-5.3 4.9-5.3 1.3 0 2.5.5 3.4 1.4 1.2 1.3 1.3 3.2 1.4 4.3h-6.8c0 1.2.7 2.4 2.2 2.4s2.1-1 2.4-1.7zm-2.8-3.6c0-.5-.2-1-.5-1.4-.4-.3-.9-.5-1.4-.5s-1.1.2-1.4.6-.5.8-.6 1.3zm5.7-6.3h2.8v3h1.8v1.7H80V33c0 .6 0 1.1.7 1.1h1v2.2c-.5.1-1 .1-1.5.1-1 0-2-.1-2.7-.9-.4-.6-.4-1.2-.4-2.2v-4.6h-1.4V27h1.4zm9.7 3.7c.8-.7 1.7-1.1 2.8-1.1v2.5l-.9.1c-1.4.2-1.8.4-1.8 1.6v5.4h-2.8v-9.6H87zm4.8 1.8c0-.8.4-1.6 1-2.1.9-.7 2-.8 3.1-.8s4 .3 4 2.7v5.5c0 1 .1 1.2.3 1.5h-2.7v-.9c-.7.5-1.5 1.1-2.9 1.1-2.2 0-3.1-1.6-3.1-2.9 0-1.5 1.2-2.4 2-2.7 1.2-.4 2.5-.7 3.8-.9v-.5c0-.4-.1-1.2-1.1-1.2-1.2 0-1.4.8-1.5 1.1zm3.5 2.8c-.5.2-1.2.4-1.2 1.2 0 .6.5 1 1.1 1 .3 0 .7-.1 1-.3.9-.6 1-1.5 1-2.5zm10.6-4.7c.3-.3.6-.6 1-.7.5-.2 1.1-.4 1.7-.4s1.2.1 1.7.4c1 .5 1.3 1.4 1.3 2.9v6.5h-2.8v-5.4c0-.5 0-1-.1-1.4-.2-.5-.7-.8-1.3-.7-1.5 0-1.5 1.2-1.5 2.4v5.2h-2.8v-9.5h2.8zM24.8 30h3.3c.3 0 .5-.2.5-.5v-.2l-5.7-15.5c-.1-.2-.2-.3-.4-.3h-3.3c-.3 0-.5.2-.5.5v.2l5.7 15.6c0 .1.2.2.4.2zm-.6 16.5h3.3c.3 0 .5-.2.5-.5v-.2l-11.8-32c-.1-.2-.3-.3-.5-.3h-3.3c-.3 0-.5.2-.5.5v.2l11.8 32c.1.2.3.3.5.3zm-6.5 0H21c.3 0 .5-.2.5-.5v-.2l-5.7-15.5c-.1-.2-.2-.3-.4-.3h-3.3c-.3 0-.5.2-.5.5v.2l5.7 15.5c0 .2.2.3.4.3zm7.5-32.3l2.7 7.3c.1.2.2.3.4.3h3.3c.3 0 .5-.2.5-.5v-.2l-2.7-7.3c-.1-.2-.2-.3-.4-.3h-3.3c-.3 0-.5.2-.5.5zM11.6 46.5h3.3c.3 0 .5-.2.5-.5v-.2l-2.7-7.3c-.1-.2-.3-.3-.5-.3H8.9c-.3 0-.5.2-.5.5v.2l2.7 7.3c.1.2.3.3.5.3z" fill="#0073ff"/></svg>