<svg xmlns="http://www.w3.org/2000/svg" role="img" viewBox="-8.40 -13.40 748.80 175.30"><title>HVR Software logo</title><linearGradient id="a" x1="12.61" x2="151.209" y1="51.549" y2="99.492" gradientUnits="userSpaceOnUse"><stop offset="0" stop-color="#124097"/><stop offset="1" stop-color="#44afbf"/></linearGradient><path fill="url(#a)" d="M45.9 144.8C28.3 139 17 122.2 17 122.2l73.6 25.1c0-.1-29.4 2.6-44.7-2.5zM68.1 2l73.6 25.1s-11.4-16.9-28.9-22.7C97.4-.7 68.1 2 68.1 2zm-61 83.5l25.1-73.6S15.3 23.3 9.5 40.8C4.4 56.1 7.1 85.5 7.1 85.5zM152.3 63l-25.1 73.6s16.9-11.4 22.7-28.9c5.1-15.3 2.4-44.7 2.4-44.7z"/><path d="M334.6 21.9v38.2h-90V21.9h-27v102.6h27V87.1h90v37.4h27V21.9zm194.7 0l-57.7 78.7L414 21.9l-35 .3 70.8 93.7c11 14.5 32.7 14.5 43.7 0l70.8-93.7-35-.3zM726.2 52c-1.5-16.9-15.6-30.1-32.9-30.1H581.5v102.7h27V98.1h90.8v26.5h27v-22.8c0-7.3-4.2-13.7-10.2-16.9 6.1-3.3 10.2-9.8 10.2-17.3V52h-.1zm-26.8 19.1h-90.8V48.9h90.8v22.2z"/></svg>