<svg xmlns="http://www.w3.org/2000/svg" role="img" viewBox="-1.07 -1.95 101.27 33.27"><title>Immuta Query Engine logo</title><path d="M65.5 2.6h2.6v5.2c0 3.5-2.2 5.7-5.2 5.7s-5.1-2.2-5.1-5.7V2.6h2.6v5.2c0 2.1.9 3.3 2.5 3.3s2.6-1.2 2.6-3.3V2.6zm-37.4 7.9l-3.8-7.9h-2.9v10.7H24V7.9l2.6 5.5h2.9l2.6-5.5v5.4h2.6V2.6h-2.9zM53 2.6h-2.9l-3.7 7.8-3.8-7.8h-2.9v10.7h2.6V7.9l2.6 5.5h2.9l2.6-5.5v5.4H53V2.6zm29.1 0H71.9V5h3.8v8.3h2.6V5h3.8V2.6zm14 10.8h-2.8l-.7-1.7h-5.2l-.7 1.7H84l4.6-10.7h2.9zm-4.4-3.8l-1.7-4-1.7 4zM16.9 0v16H.9V0h16zm-3.4 2.6h-2.6v10.7h2.6zm84.3 0l-.6 1.1-.6-1.1h-.3v1.7h.4v-1l.5.8h.2l.5-.8v1h.4V2.6zm-3.4.4h.6v1.4h.4V3h.6v-.4h-1.5z"/><path d="M30.48123 29.16859q-.23438.05859-.46485.08203-.22656.02733-.46484.02733-.67969 0-1.09375-.375-.41016-.37109-.44531-1.0664-.09375.01563-.1836.01953-.08594.0078-.16796.0078-.61329 0-1.1172-.20313-.5-.20312-.85155-.58984-.35157-.38672-.54297-.94922-.1875-.5625-.1875-1.28515 0-.71094.1875-1.27344.1875-.5664.54687-.96875.34375-.38281.85156-.58594.51172-.20312 1.11329-.20312.625 0 1.12109.20703.5.20312.84766.58203.35546.39062.54296.95703.19141.5664.19141 1.28516 0 1.0664-.4375 1.79687-.4336.73047-1.16797 1.02344.01563.44531.21094.6914.19531.2461.71094.2461.16015 0 .3789-.05078.22266-.04687.3164-.08594h.10548zm-.92188-4.33204q0-1.1328-.50781-1.74609-.50781-.61719-1.38672-.61719-.88672 0-1.39453.61719-.5039.61328-.5039 1.7461 0 1.14453.51562 1.7539.51562.60547 1.38281.60547.86719 0 1.3789-.60547.51563-.60938.51563-1.7539zm5.58985 2.90625h-.73438v-.48437q-.3711.29297-.71094.44922-.33984.15625-.75.15625-.6875 0-1.0703-.41797-.38282-.42188-.38282-1.23438v-2.83203h.73437v2.48438q0 .33203.03125.57031.03125.23438.13282.40234.10547.17188.27343.25.16797.07813.48829.07813.28515 0 .62109-.14843.33984-.14844.63281-.37891v-3.25781h.73438zm5.09765-2.10546h-3.21484q0 .40234.1211.70312.12109.29688.33202.48828.20313.1875.48047.28125.28125.09375.61719.09375.44531 0 .89453-.17578.45313-.17969.64453-.35156h.03906v.80078q-.37109.15625-.7578.26172-.38673.10547-.8125.10547-1.08595 0-1.69532-.58594-.60938-.58985-.60938-1.67188 0-1.0703.58203-1.69921.58594-.62891 1.53907-.62891.88281 0 1.35937.51562.48047.51563.48047 1.46485zm-.71484-.5625q-.0039-.57813-.29297-.89454-.28516-.3164-.8711-.3164-.58984 0-.9414.34765-.34766.34766-.39453.86329zm4.55078-.89454h-.03906q-.16406-.03906-.32031-.05469-.15235-.01953-.36328-.01953-.33985 0-.65625.15235-.31641.14843-.60938.38672v3.09765h-.73437v-4.36328h.73437v.64453q.4375-.35156.76953-.4961.33594-.14843.6836-.14843.1914 0 .27734.01172.08594.0078.25781.03516zm4.46484-.80078l-2.54687 5.97266h-.78516l.8125-1.82031-1.73828-4.15235h.79688l1.33984 3.23438 1.35156-3.23438zm7.42579 2.25782h-3.21485q0 .40234.1211.70312.12109.29688.33203.48828.20312.1875.48047.28125.28125.09375.61718.09375.44531 0 .89453-.17578.45313-.17969.64454-.35156h.03906v.80078q-.3711.15625-.75782.26172-.38672.10547-.8125.10547-1.08593 0-1.69531-.58594-.60938-.58985-.60938-1.67188 0-1.0703.58204-1.69921.58593-.62891 1.53906-.62891.88281 0 1.35937.51562.48047.51563.48047 1.46485zm-.71485-.5625q-.0039-.57813-.29297-.89454-.28515-.3164-.8711-.3164-.58983 0-.9414.34765-.34765.34766-.39453.86329zm5.47656 2.66796h-.73437v-2.48437q0-.30078-.03516-.5625-.03516-.26563-.1289-.41406-.09767-.16407-.28126-.2422-.1836-.08202-.47656-.08202-.30078 0-.6289.14844-.32813.14843-.62891.3789v3.25782h-.73438v-4.36329h.73438v.48438q.34375-.28516.71094-.44531.36718-.16016.7539-.16016.70703 0 1.07813.42578.37109.42578.37109 1.22656zm4.95313-.49609q0 1.10938-.5039 1.6289-.50391.51954-1.55079.51954-.34765 0-.67969-.05078-.32812-.04687-.64843-.13672v-.75h.03906q.17969.0703.57031.17187.39063.10547.78125.10547.375 0 .6211-.08984.24609-.08984.3828-.25.13672-.15234.19532-.36718.05859-.21485.05859-.48047v-.39844q-.33203.26562-.63672.39844-.30078.1289-.76953.1289-.78125 0-1.24219-.5625-.45703-.5664-.45703-1.59375 0-.5625.15625-.96875.16016-.41015.4336-.70703.2539-.27734.61718-.42969.36328-.15625.72266-.15625.3789 0 .6328.07813.25782.07422.54298.23047l.04687-.1875h.6875zm-.73438-.70313v-2.3789q-.29296-.13281-.54687-.1875-.25-.0586-.5-.0586-.60547 0-.95313.40626-.34765.40625-.34765 1.17969 0 .73437.25781 1.11328.25781.3789.85547.3789.32031 0 .64062-.12109.32422-.125.59375-.33203zm2.96875-3.89453h-.82812v-.76171h.82812zm-.04687 5.09375h-.73437v-4.36328h.73437zm5.10156 0h-.73437v-2.48437q0-.30078-.03516-.5625-.03516-.26563-.1289-.41406-.09767-.16407-.28126-.2422-.1836-.08202-.47656-.08202-.30078 0-.6289.14844-.32813.14843-.62891.3789v3.25782h-.73438v-4.36329h.73438v.48438q.34375-.28516.71093-.44531.3672-.16016.75391-.16016.70703 0 1.07813.42578.37109.42578.37109 1.22656zm5.0664-2.10546h-3.21484q0 .40234.1211.70312.1211.29688.33203.48828.20312.1875.48047.28125.28125.09375.61719.09375.4453 0 .89453-.17578.45312-.17969.64453-.35156h.03906v.80078q-.3711.15625-.75781.26172-.38672.10547-.8125.10547-1.08594 0-1.69532-.58594-.60937-.58985-.60937-1.67188 0-1.0703.58203-1.69921.58594-.62891 1.53906-.62891.88282 0 1.35938.51562.48047.51563.48047 1.46485zm-.71484-.5625q-.0039-.57813-.29296-.89454-.28516-.3164-.8711-.3164-.58984 0-.9414.34765-.34766.34766-.39454.86329z"/></svg>