<svg xmlns="http://www.w3.org/2000/svg" role="img" viewBox="-3.32 -3.32 172.51 42.51"><title>Incorta Data Science logo</title><path fill="#1C1D1F" fill-rule="evenodd" d="M34.4 35.3h-8V18.9c0-2.5-2-4.5-4.5-4.5s-4.5 2-4.5 4.5v16.4h-8V18.9c0-6.8 5.6-12.4 12.5-12.4s12.5 5.6 12.5 12.4v16.4zM0 9.4h8v25.9H0V9.4zm64.7 15.9C62.6 32 57.2 36 50.4 36c-4.3 0-7.7-1.4-10.6-4.4-2.7-2.8-4.1-6.5-4.1-10.4S37.2 13.8 40 11c2.8-2.9 6.3-4.4 10.3-4.4 7 0 12.2 3.8 14.4 10.9H56c-1.1-1.9-3.1-3-5.8-3-3.7 0-6.4 2.8-6.4 6.6 0 4.3 2.7 6.9 6.6 6.9 2.2 0 4.1-.9 5.4-2.7h8.9zm5.1-14.2c2.8-2.8 6.5-4.4 10.3-4.4 4.1 0 7.5 1.4 10.4 4 3 2.8 4.6 6.6 4.6 10.4 0 4.2-1.4 7.7-4.2 10.4-2.8 2.8-6.4 4.4-10.6 4.4-4.3 0-7.7-1.4-10.6-4.4-2.7-2.8-4.1-6.4-4.1-10.3 0-3.8 1.4-7.4 4.2-10.1zm10.4 17.1c3.6 0 6.6-3 6.6-6.8s-3-6.9-6.6-6.9-6.6 3-6.6 6.9c0 3.8 3.1 6.8 6.6 6.8zm16.2-5.5v12.5h8V22.7c0-4.3 3.5-7.7 7.7-7.7V7c-8.7.1-15.7 7.1-15.7 15.7zm31-7.8V7h-5.9V.4h-8v34.9h8V14.9h5.9zM148.5 7v3.5C146.6 8.1 144 7 140.6 7c-3.5 0-6.7 1.3-9.3 3.8-2.9 2.8-4.5 6.4-4.5 10.4 0 4.4 1.7 8.1 4.9 10.9 2.4 2.2 5.4 3.3 8.7 3.3 3.3 0 5.8-.9 8.3-3.3v3.1h8V7h-8.2zm-6.1 21c-4.2 0-7.2-3-7.2-6.8 0-3.7 3-6.9 6.9-6.9 3.8 0 6.8 3 6.8 7-.1 3.8-3 6.7-6.5 6.7zM0 8.1V0h8v8.1H0zm158 27.2v-8.1h8v8.1h-8z" clip-rule="evenodd"/></svg>