<svg xmlns="http://www.w3.org/2000/svg" role="img" viewBox="21.09 -0.53 138.32 102.19"><title>Information Builders Analytics logo</title><g fill="#253873" transform="translate(21.434 -.57) scale(.77198)"><path d="M5.207 73.606V84.81H3.094V73.606zm3.809 3.265v1.281h.224c.32-.736 1.056-1.409 2.513-1.409 1.761 0 3.089 1.265 3.089 3.329v4.738h-2.017v-4.546c0-1.104-.641-1.761-1.793-1.761-1.296 0-1.985.801-1.985 2.209v4.098H7.031v-7.939zm8.738 0v-1.633c0-.928.672-1.632 1.601-1.632h2.081v1.729h-1.217c-.288 0-.448.16-.448.479v1.057h2.081V78.6h-2.081v6.211h-2.017V78.6h-2.017v-1.729zm8.883-.224c2.337 0 4.162 1.696 4.162 4.193s-1.825 4.193-4.162 4.193c-2.337 0-4.162-1.696-4.162-4.193s1.825-4.193 4.162-4.193zm0 6.595c1.281 0 2.145-.961 2.145-2.401s-.864-2.4-2.145-2.4c-1.28 0-2.145.96-2.145 2.4s.865 2.401 2.145 2.401zm7.459-5.219h.224c.304-.88.976-1.185 1.984-1.185h.769v1.825h-1.185c-1.024 0-1.761.544-1.761 1.665v4.481H32.11V76.87h1.985v1.153zm5.985-1.152v1.185h.224c.336-.769.992-1.312 2.097-1.312 1.024 0 1.777.544 2.113 1.345h.224c.352-.736.992-1.345 2.257-1.345 1.457 0 2.625 1.104 2.625 2.753v5.314h-2.017v-5.154c0-.736-.528-1.152-1.296-1.152-.833 0-1.441.48-1.441 1.473v4.834H42.85v-5.154c0-.736-.528-1.152-1.297-1.152-.832 0-1.44.48-1.44 1.473v4.834h-2.017v-7.939h1.985zm14.933-.224c2.161 0 3.569 1.232 3.569 3.089v5.074h-1.984v-1.12h-.224c-.256.528-.816 1.344-2.497 1.344-1.793 0-2.978-.96-2.978-2.48 0-1.265 1.104-2.145 2.625-2.305l3.041-.337v-.191c0-.753-.576-1.345-1.665-1.345-1.057 0-1.713.544-2.209 1.377l-1.633-1.057c.945-1.184 2.018-2.049 3.955-2.049zm-.64 6.723c1.409 0 2.193-.832 2.193-1.921v-.128l-2.433.288c-.752.096-1.12.368-1.12.832-.001.544.463.929 1.36.929zm6.93-6.499v-2.465h2.017v2.465h2.177V78.6H63.32v4.002c0 .32.16.48.448.48h1.28v1.729h-2.177c-.896 0-1.568-.641-1.568-1.537V78.6h-2.017v-1.729zm6.546-3.682c.8 0 1.424.561 1.424 1.377s-.624 1.377-1.424 1.377c-.8 0-1.425-.561-1.425-1.377s.624-1.377 1.425-1.377zm1.008 11.622h-2.017v-7.939h2.017zm5.474-8.164c2.337 0 4.162 1.696 4.162 4.193s-1.825 4.193-4.162 4.193c-2.337 0-4.162-1.696-4.162-4.193s1.825-4.193 4.162-4.193zm0 6.595c1.281 0 2.145-.961 2.145-2.401s-.864-2.4-2.145-2.4c-1.28 0-2.145.96-2.145 2.4s.864 2.401 2.145 2.401zm7.458-6.371v1.281h.224c.32-.736 1.056-1.409 2.513-1.409 1.761 0 3.089 1.265 3.089 3.329v4.738h-2.017v-4.546c0-1.104-.641-1.761-1.793-1.761-1.296 0-1.985.801-1.985 2.209v4.098h-2.017v-7.939zM35.232 88.606c1.937 0 3.313 1.088 3.313 3.009 0 1.345-.8 2.177-1.889 2.481v.191c1.088.305 1.889 1.137 1.889 2.497 0 1.856-1.393 3.025-3.313 3.025h-5.106V88.606zm-2.993 4.625h2.785c.896 0 1.505-.447 1.505-1.36 0-.912-.608-1.345-1.505-1.345h-2.785zm0 4.659h2.785c.896 0 1.505-.448 1.505-1.36 0-.912-.608-1.377-1.505-1.377h-2.785zm13.412 1.921v-1.28h-.224c-.32.736-1.056 1.408-2.513 1.408-1.761 0-3.089-1.265-3.089-3.329v-4.738h2.017v4.546c0 1.104.64 1.761 1.792 1.761 1.296 0 1.985-.8 1.985-2.209v-4.098h2.017v7.939zm4.786-11.622c.8 0 1.424.561 1.424 1.377s-.624 1.377-1.424 1.377c-.8 0-1.425-.561-1.425-1.377s.624-1.377 1.425-1.377zm1.008 11.622h-2.017v-7.939h2.017zm3.809 0h-2.017V88.606h2.017zm9.7 0h-1.985v-1.12h-.224c-.416.672-1.121 1.344-2.529 1.344-1.984 0-3.649-1.761-3.649-4.193 0-2.432 1.665-4.193 3.649-4.193 1.409 0 2.113.672 2.529 1.345h.192v-4.386h2.017zm-6.371-3.97c0 1.537.96 2.401 2.177 2.401 1.249 0 2.177-.896 2.177-2.401s-.928-2.4-2.177-2.4c-1.217-.001-2.177.864-2.177 2.4zm11.667-4.194c2.305 0 3.857 1.616 3.857 4.001v.785H68.33c.08 1.056.833 1.872 1.985 1.872 1.121 0 1.713-.624 1.985-1.185l1.648.961c-.544.832-1.473 1.952-3.601 1.952-2.369 0-4.082-1.792-4.082-4.257 0-2.4 1.649-4.129 3.985-4.129zm1.809 3.377c-.144-1.008-.784-1.648-1.825-1.648-1.136 0-1.729.672-1.889 1.648zm5.281-2.001h.224c.304-.88.976-1.185 1.984-1.185h.769v1.825h-1.185c-1.024 0-1.761.544-1.761 1.665v4.481h-2.017V91.87h1.985v1.153zm6.77-1.376c1.632 0 2.785.72 3.857 1.841L86.51 94.64c-.608-.721-1.409-1.36-2.465-1.36-.752 0-1.168.319-1.168.8 0 .576.592.721 1.424.816l.272.032c2.545.304 3.49.96 3.49 2.417 0 1.553-1.457 2.688-3.57 2.688-2.193 0-3.409-1.12-4.146-2.24l1.601-1.009c.496 1.041 1.569 1.585 2.593 1.585.816 0 1.568-.353 1.568-.977 0-.592-.816-.704-1.681-.801l-.272-.031c-2.225-.257-3.233-.977-3.233-2.449s1.347-2.464 3.187-2.464z"/><path fill-rule="evenodd" d="M42.666 27.117h11.32v42.68h-11.32z" clip-rule="evenodd"/><circle cx="47.962" cy="11.602" r="7.594" fill-rule="evenodd" clip-rule="evenodd"/><path fill-rule="evenodd" d="M162.525 27.117h11.32v42.68h-11.32z" clip-rule="evenodd"/><circle cx="167.822" cy="11.602" r="7.594" fill-rule="evenodd" clip-rule="evenodd"/><circle cx="107.973" cy="11.602" r="7.594" fill-rule="evenodd" clip-rule="evenodd"/><circle cx="107.504" cy="71.637" r="7.594" fill-rule="evenodd" clip-rule="evenodd"/><path d="M137.397 71.633c0 15.7-12.21 28.54-27.65 29.55v-11.84c8.9-.98 16.1-8.54 16.1-17.71 0-9.82-8.24-17.81-18.06-17.81-9.2 0-17.06 7.01-17.99 15.97h-11.68V3.513h11.45v44.78c5.02-3.93 11.35-6.27 18.22-6.27 16.35-.001 29.61 13.259 29.61 29.61z"/></g><path d="M67.87724 96.44968h-1.3737l-.95051-2.70182h-4.1927l-.95052 2.70182h-1.30859l3.52864-9.69399h1.71875zm-2.72134-3.80859l-1.69922-4.7591-1.70572 4.7591zm10.17575 3.80859H74.1077v-4.14062q0-.5013-.0586-.9375-.05858-.4427-.21484-.6901-.16276-.27344-.46875-.40364-.30599-.13672-.79427-.13672-.5013 0-1.04817.2474-.54687.24739-1.04817.6315v5.42968h-1.22396v-7.27212h1.22396v.80729q.57291-.47526 1.18489-.74219.61198-.26692 1.2565-.26692 1.17839 0 1.79688.70963.61848.70963.61848 2.04427zm8.0078 0H82.122v-.77474q-.16276.11068-.4427.3125-.27344.19531-.53386.3125-.30599.14974-.70312.2474-.39714.10416-.93099.10416-.98307 0-1.66666-.65104-.6836-.65104-.6836-1.66015 0-.82682.35157-1.33463.35807-.51433 1.01562-.8073.66406-.29296 1.59505-.39713.93098-.10417 1.99869-.15625v-.1888q0-.41667-.14974-.6901-.14323-.27344-.41667-.42969-.26041-.14974-.625-.20182-.36458-.05208-.76171-.05208-.48177 0-1.07422.1302-.59244.1237-1.22395.36459h-.0651V89.3338q.35807-.09766 1.03515-.21484.67708-.11719 1.33463-.11719.76823 0 1.33464.13021.57291.1237.98958.42969.41015.29947.625.77473.21484.47526.21484 1.17839zM82.122 94.65932v-2.02474q-.5599.03255-1.32161.09766-.7552.0651-1.19791.1888-.52735.14974-.85287.46875-.32552.3125-.32552.86589 0 .625.3776.944.3776.3125 1.15235.3125.64453 0 1.17838-.2474.53385-.2539.98958-.60546zm4.81118 1.79036h-1.22395V86.31949h1.22395zm8.71092-7.27212l-4.24478 9.9544h-1.30859l1.35416-3.03385-2.89713-6.92055h1.32813l2.23306 5.39061 2.2526-5.39061zm5.37759 7.20701q-.34505.09114-.7552.14974-.40365.0586-.72266.0586-1.11328 0-1.6927-.59897-.57943-.59895-.57943-1.92056V90.2062h-.82682v-1.02864h.82682v-2.08984h1.22396v2.08984h2.52603v1.02864h-2.52603V93.52q0 .5729.02604.89843.02604.319.18229.59896.14323.26041.39062.3841.2539.1172.76823.1172.29948 0 .625-.08463.32552-.09115.46875-.14974h.0651zm2.79296-8.42445h-1.3802v-1.26953h1.3802zm-.0781 8.48956h-1.22396v-7.27212h1.22396zm7.79944-.45573q-.61198.29297-1.16537.45573-.54687.16276-1.16536.16276-.78776 0-1.44531-.22787-.65755-.23437-1.12629-.70312-.47526-.46875-.73568-1.1849-.26042-.71614-.26042-1.67317 0-1.78385.97656-2.79947.98307-1.01562 2.59114-1.01562.625 0 1.22396.17578.60547.17578 1.10677.42969v1.36067h-.0651q-.55989-.4362-1.15885-.67057-.59245-.23438-1.15885-.23438-1.04166 0-1.64713.70313-.59896.69661-.59896 2.05077 0 1.3151.58594 2.02474.59244.70312 1.66015.70312.37109 0 .75521-.09766.38411-.09766.6901-.2539.26693-.13672.5013-.28646.23437-.15625.37109-.26693h.0651zm6.7643-1.64062q0 .99609-.82682 1.6341-.82031.63803-2.24609.63803-.80729 0-1.48437-.1888-.67057-.19532-1.1263-.42318v-1.3737h.0651q.57942.4362 1.28906.69662.70963.2539 1.36067.2539.80729 0 1.26302-.26041.45573-.26042.45573-.82031 0-.42969-.2474-.65104-.24739-.22136-.95052-.3776-.26041-.0586-.68359-.13672-.41666-.07813-.76172-.16927-.95702-.25391-1.36067-.74219-.39713-.4948-.39713-1.21093 0-.44922.18229-.84636.1888-.39713.5664-.70963.36458-.30599.92448-.48177.5664-.1823 1.26302-.1823.65104 0 1.3151.16277.67057.15625 1.11328.38411v1.3086h-.0651q-.46875-.34506-1.13932-.57943-.67057-.24089-1.3151-.24089-.67057 0-1.13281.26042-.46224.2539-.46224.76172 0 .44921.27995.67708.27344.22786.88541.37109.33855.07812.75521.15625.42318.07813.70312.14323.85287.19531 1.3151.67057.46224.48177.46224 1.27604z"/></svg>