<svg xmlns="http://www.w3.org/2000/svg" role="img" viewBox="-0.45 0.05 179.27 104.52"><title>Information Builders MDM logo</title><g fill="#253873"><path d="M5.207 73.606V84.81H3.094V73.606h2.113zm3.809 3.265v1.281h.224c.32-.736 1.056-1.409 2.513-1.409 1.761 0 3.089 1.265 3.089 3.329v4.738h-2.017v-4.546c0-1.104-.641-1.761-1.793-1.761-1.296 0-1.985.801-1.985 2.209v4.098H7.031v-7.939h1.985zm8.738 0v-1.633c0-.928.672-1.632 1.601-1.632h2.081v1.729h-1.217c-.288 0-.448.16-.448.479v1.057h2.081V78.6h-2.081v6.211h-2.017V78.6h-2.017v-1.729h2.017zm8.883-.224c2.337 0 4.162 1.696 4.162 4.193s-1.825 4.193-4.162 4.193-4.162-1.696-4.162-4.193 1.825-4.193 4.162-4.193zm0 6.595c1.281 0 2.145-.961 2.145-2.401s-.864-2.4-2.145-2.4c-1.28 0-2.145.96-2.145 2.4s.865 2.401 2.145 2.401zm7.459-5.219h.224c.304-.88.976-1.185 1.984-1.185h.769v1.825h-1.185c-1.024 0-1.761.544-1.761 1.665v4.481H32.11V76.87h1.985v1.153zm5.985-1.152v1.185h.224c.336-.769.992-1.312 2.097-1.312 1.024 0 1.777.544 2.113 1.345h.224c.352-.736.992-1.345 2.257-1.345 1.457 0 2.625 1.104 2.625 2.753v5.314h-2.017v-5.154c0-.736-.528-1.152-1.296-1.152-.833 0-1.441.48-1.441 1.473v4.834H42.85v-5.154c0-.736-.528-1.152-1.297-1.152-.832 0-1.44.48-1.44 1.473v4.834h-2.017v-7.939h1.985zm14.933-.224c2.161 0 3.569 1.232 3.569 3.089v5.074h-1.984v-1.12h-.224c-.256.528-.816 1.344-2.497 1.344-1.793 0-2.978-.96-2.978-2.48 0-1.265 1.104-2.145 2.625-2.305l3.041-.337v-.191c0-.753-.576-1.345-1.665-1.345-1.057 0-1.713.544-2.209 1.377l-1.633-1.057c.945-1.184 2.018-2.049 3.955-2.049zm-.64 6.723c1.409 0 2.193-.832 2.193-1.921v-.128l-2.433.288c-.752.096-1.12.368-1.12.832-.001.544.463.929 1.36.929zm6.93-6.499v-2.465h2.017v2.465h2.177V78.6H63.32v4.002c0 .32.16.48.448.48h1.28v1.729h-2.177c-.896 0-1.568-.641-1.568-1.537V78.6h-2.017v-1.729h2.018zm6.546-3.682c.8 0 1.424.561 1.424 1.377s-.624 1.377-1.424 1.377-1.425-.561-1.425-1.377.624-1.377 1.425-1.377zm1.008 11.622h-2.017v-7.939h2.017v7.939zm5.474-8.164c2.337 0 4.162 1.696 4.162 4.193s-1.825 4.193-4.162 4.193-4.162-1.696-4.162-4.193 1.825-4.193 4.162-4.193zm0 6.595c1.281 0 2.145-.961 2.145-2.401s-.864-2.4-2.145-2.4c-1.28 0-2.145.96-2.145 2.4s.864 2.401 2.145 2.401zm7.458-6.371v1.281h.224c.32-.736 1.056-1.409 2.513-1.409 1.761 0 3.089 1.265 3.089 3.329v4.738h-2.017v-4.546c0-1.104-.641-1.761-1.793-1.761-1.296 0-1.985.801-1.985 2.209v4.098h-2.017v-7.939h1.986zM35.232 88.606c1.937 0 3.313 1.088 3.313 3.009 0 1.345-.8 2.177-1.889 2.481v.191c1.088.305 1.889 1.137 1.889 2.497 0 1.856-1.393 3.025-3.313 3.025h-5.106V88.606h5.106zm-2.993 4.625h2.785c.896 0 1.505-.447 1.505-1.36 0-.912-.608-1.345-1.505-1.345h-2.785v2.705zm0 4.659h2.785c.896 0 1.505-.448 1.505-1.36s-.608-1.377-1.505-1.377h-2.785v2.737zm13.412 1.921v-1.28h-.224c-.32.736-1.056 1.408-2.513 1.408-1.761 0-3.089-1.265-3.089-3.329v-4.738h2.017v4.546c0 1.104.64 1.761 1.792 1.761 1.296 0 1.985-.8 1.985-2.209v-4.098h2.017v7.939h-1.985zm4.786-11.622c.8 0 1.424.561 1.424 1.377s-.624 1.377-1.424 1.377-1.425-.561-1.425-1.377.624-1.377 1.425-1.377zm1.008 11.622h-2.017v-7.939h2.017v7.939zm3.809 0h-2.017V88.606h2.017v11.205zm9.7 0h-1.985v-1.12h-.224c-.416.672-1.121 1.344-2.529 1.344-1.984 0-3.649-1.761-3.649-4.193s1.665-4.193 3.649-4.193c1.409 0 2.113.672 2.529 1.345h.192v-4.386h2.017v11.203zm-6.371-3.97c0 1.537.96 2.401 2.177 2.401 1.249 0 2.177-.896 2.177-2.401s-.928-2.4-2.177-2.4c-1.217-.001-2.177.864-2.177 2.4zm11.667-4.194c2.305 0 3.857 1.616 3.857 4.001v.785H68.33c.08 1.056.833 1.872 1.985 1.872 1.121 0 1.713-.624 1.985-1.185l1.648.961c-.544.832-1.473 1.952-3.601 1.952-2.369 0-4.082-1.792-4.082-4.257 0-2.4 1.649-4.129 3.985-4.129zm1.809 3.377c-.144-1.008-.784-1.648-1.825-1.648-1.136 0-1.729.672-1.889 1.648h3.714zm5.281-2.001h.224c.304-.88.976-1.185 1.984-1.185h.769v1.825h-1.185c-1.024 0-1.761.544-1.761 1.665v4.481h-2.017V91.87h1.985v1.153zm6.77-1.376c1.632 0 2.785.72 3.857 1.841L86.51 94.64c-.608-.721-1.409-1.36-2.465-1.36-.752 0-1.168.319-1.168.8 0 .576.592.721 1.424.816l.272.032c2.545.304 3.49.96 3.49 2.417 0 1.553-1.457 2.688-3.57 2.688-2.193 0-3.409-1.12-4.146-2.24l1.601-1.009c.496 1.041 1.569 1.585 2.593 1.585.816 0 1.568-.353 1.568-.977 0-.592-.816-.704-1.681-.801l-.272-.031c-2.225-.257-3.233-.977-3.233-2.449s1.347-2.464 3.187-2.464z"/><path fill-rule="evenodd" d="M42.666 27.117h11.32v42.68h-11.32z" clip-rule="evenodd"/><circle cx="47.962" cy="11.602" r="7.594" fill-rule="evenodd" clip-rule="evenodd"/><path fill-rule="evenodd" d="M162.525 27.117h11.32v42.68h-11.32z" clip-rule="evenodd"/><circle cx="167.822" cy="11.602" r="7.594" fill-rule="evenodd" clip-rule="evenodd"/><circle cx="107.973" cy="11.602" r="7.594" fill-rule="evenodd" clip-rule="evenodd"/><circle cx="107.504" cy="71.637" r="7.594" fill-rule="evenodd" clip-rule="evenodd"/><path d="M137.397 71.633c0 15.7-12.21 28.54-27.65 29.55v-11.84c8.9-.98 16.1-8.54 16.1-17.71 0-9.82-8.24-17.81-18.06-17.81-9.2 0-17.06 7.01-17.99 15.97h-11.68V3.513h11.45v44.78c5.02-3.93 11.35-6.27 18.22-6.27 16.35-.001 29.61 13.259 29.61 29.61z"/></g></svg>