<svg xmlns="http://www.w3.org/2000/svg" role="img" viewBox="21.09 -0.53 138.32 101.69"><title>Information Builders Data Quality logo</title><g fill="#253873" transform="translate(21.434 -.57) scale(.77198)"><path d="M5.207 73.606V84.81H3.094V73.606zm3.809 3.265v1.281h.224c.32-.736 1.056-1.409 2.513-1.409 1.761 0 3.089 1.265 3.089 3.329v4.738h-2.017v-4.546c0-1.104-.641-1.761-1.793-1.761-1.296 0-1.985.801-1.985 2.209v4.098H7.031v-7.939zm8.738 0v-1.633c0-.928.672-1.632 1.601-1.632h2.081v1.729h-1.217c-.288 0-.448.16-.448.479v1.057h2.081V78.6h-2.081v6.211h-2.017V78.6h-2.017v-1.729zm8.883-.224c2.337 0 4.162 1.696 4.162 4.193s-1.825 4.193-4.162 4.193c-2.337 0-4.162-1.696-4.162-4.193s1.825-4.193 4.162-4.193zm0 6.595c1.281 0 2.145-.961 2.145-2.401s-.864-2.4-2.145-2.4c-1.28 0-2.145.96-2.145 2.4s.865 2.401 2.145 2.401zm7.459-5.219h.224c.304-.88.976-1.185 1.984-1.185h.769v1.825h-1.185c-1.024 0-1.761.544-1.761 1.665v4.481H32.11V76.87h1.985v1.153zm5.985-1.152v1.185h.224c.336-.769.992-1.312 2.097-1.312 1.024 0 1.777.544 2.113 1.345h.224c.352-.736.992-1.345 2.257-1.345 1.457 0 2.625 1.104 2.625 2.753v5.314h-2.017v-5.154c0-.736-.528-1.152-1.296-1.152-.833 0-1.441.48-1.441 1.473v4.834H42.85v-5.154c0-.736-.528-1.152-1.297-1.152-.832 0-1.44.48-1.44 1.473v4.834h-2.017v-7.939h1.985zm14.933-.224c2.161 0 3.569 1.232 3.569 3.089v5.074h-1.984v-1.12h-.224c-.256.528-.816 1.344-2.497 1.344-1.793 0-2.978-.96-2.978-2.48 0-1.265 1.104-2.145 2.625-2.305l3.041-.337v-.191c0-.753-.576-1.345-1.665-1.345-1.057 0-1.713.544-2.209 1.377l-1.633-1.057c.945-1.184 2.018-2.049 3.955-2.049zm-.64 6.723c1.409 0 2.193-.832 2.193-1.921v-.128l-2.433.288c-.752.096-1.12.368-1.12.832-.001.544.463.929 1.36.929zm6.93-6.499v-2.465h2.017v2.465h2.177V78.6H63.32v4.002c0 .32.16.48.448.48h1.28v1.729h-2.177c-.896 0-1.568-.641-1.568-1.537V78.6h-2.017v-1.729zm6.546-3.682c.8 0 1.424.561 1.424 1.377s-.624 1.377-1.424 1.377c-.8 0-1.425-.561-1.425-1.377s.624-1.377 1.425-1.377zm1.008 11.622h-2.017v-7.939h2.017zm5.474-8.164c2.337 0 4.162 1.696 4.162 4.193s-1.825 4.193-4.162 4.193c-2.337 0-4.162-1.696-4.162-4.193s1.825-4.193 4.162-4.193zm0 6.595c1.281 0 2.145-.961 2.145-2.401s-.864-2.4-2.145-2.4c-1.28 0-2.145.96-2.145 2.4s.864 2.401 2.145 2.401zm7.458-6.371v1.281h.224c.32-.736 1.056-1.409 2.513-1.409 1.761 0 3.089 1.265 3.089 3.329v4.738h-2.017v-4.546c0-1.104-.641-1.761-1.793-1.761-1.296 0-1.985.801-1.985 2.209v4.098h-2.017v-7.939zM35.232 88.606c1.937 0 3.313 1.088 3.313 3.009 0 1.345-.8 2.177-1.889 2.481v.191c1.088.305 1.889 1.137 1.889 2.497 0 1.856-1.393 3.025-3.313 3.025h-5.106V88.606zm-2.993 4.625h2.785c.896 0 1.505-.447 1.505-1.36 0-.912-.608-1.345-1.505-1.345h-2.785zm0 4.659h2.785c.896 0 1.505-.448 1.505-1.36 0-.912-.608-1.377-1.505-1.377h-2.785zm13.412 1.921v-1.28h-.224c-.32.736-1.056 1.408-2.513 1.408-1.761 0-3.089-1.265-3.089-3.329v-4.738h2.017v4.546c0 1.104.64 1.761 1.792 1.761 1.296 0 1.985-.8 1.985-2.209v-4.098h2.017v7.939zm4.786-11.622c.8 0 1.424.561 1.424 1.377s-.624 1.377-1.424 1.377c-.8 0-1.425-.561-1.425-1.377s.624-1.377 1.425-1.377zm1.008 11.622h-2.017v-7.939h2.017zm3.809 0h-2.017V88.606h2.017zm9.7 0h-1.985v-1.12h-.224c-.416.672-1.121 1.344-2.529 1.344-1.984 0-3.649-1.761-3.649-4.193 0-2.432 1.665-4.193 3.649-4.193 1.409 0 2.113.672 2.529 1.345h.192v-4.386h2.017zm-6.371-3.97c0 1.537.96 2.401 2.177 2.401 1.249 0 2.177-.896 2.177-2.401s-.928-2.4-2.177-2.4c-1.217-.001-2.177.864-2.177 2.4zm11.667-4.194c2.305 0 3.857 1.616 3.857 4.001v.785H68.33c.08 1.056.833 1.872 1.985 1.872 1.121 0 1.713-.624 1.985-1.185l1.648.961c-.544.832-1.473 1.952-3.601 1.952-2.369 0-4.082-1.792-4.082-4.257 0-2.4 1.649-4.129 3.985-4.129zm1.809 3.377c-.144-1.008-.784-1.648-1.825-1.648-1.136 0-1.729.672-1.889 1.648zm5.281-2.001h.224c.304-.88.976-1.185 1.984-1.185h.769v1.825h-1.185c-1.024 0-1.761.544-1.761 1.665v4.481h-2.017V91.87h1.985v1.153zm6.77-1.376c1.632 0 2.785.72 3.857 1.841L86.51 94.64c-.608-.721-1.409-1.36-2.465-1.36-.752 0-1.168.319-1.168.8 0 .576.592.721 1.424.816l.272.032c2.545.304 3.49.96 3.49 2.417 0 1.553-1.457 2.688-3.57 2.688-2.193 0-3.409-1.12-4.146-2.24l1.601-1.009c.496 1.041 1.569 1.585 2.593 1.585.816 0 1.568-.353 1.568-.977 0-.592-.816-.704-1.681-.801l-.272-.031c-2.225-.257-3.233-.977-3.233-2.449s1.347-2.464 3.187-2.464z"/><path fill-rule="evenodd" d="M42.666 27.117h11.32v42.68h-11.32z" clip-rule="evenodd"/><circle cx="47.962" cy="11.602" r="7.594" fill-rule="evenodd" clip-rule="evenodd"/><path fill-rule="evenodd" d="M162.525 27.117h11.32v42.68h-11.32z" clip-rule="evenodd"/><circle cx="167.822" cy="11.602" r="7.594" fill-rule="evenodd" clip-rule="evenodd"/><circle cx="107.973" cy="11.602" r="7.594" fill-rule="evenodd" clip-rule="evenodd"/><circle cx="107.504" cy="71.637" r="7.594" fill-rule="evenodd" clip-rule="evenodd"/><path d="M137.397 71.633c0 15.7-12.21 28.54-27.65 29.55v-11.84c8.9-.98 16.1-8.54 16.1-17.71 0-9.82-8.24-17.81-18.06-17.81-9.2 0-17.06 7.01-17.99 15.97h-11.68V3.513h11.45v44.78c5.02-3.93 11.35-6.27 18.22-6.27 16.35-.001 29.61 13.259 29.61 29.61z"/></g><path d="M59.85842 91.09852q0 1.3216-.57942 2.39583-.57292 1.07421-1.52995 1.66666-.66406.41015-1.48437.59244-.8138.1823-2.14843.1823h-2.4479v-9.694h2.42186q1.41927 0 2.2526.20834.83984.20182 1.41927.5599.98958.61848 1.54296 1.64713.55338 1.02864.55338 2.4414zm-1.34765-.01953q0-1.13932-.39713-1.92057-.39714-.78125-1.1849-1.23047-.57291-.32552-1.21744-.44921-.64453-.13021-1.54297-.13021H52.9574v7.48045h1.21093q.931 0 1.6211-.13672.6966-.13672 1.27603-.50781.72266-.46224 1.08073-1.21745.36458-.7552.36458-1.88801zm8.98435 4.85675h-1.21744v-.77473q-.16276.11067-.4427.3125-.27344.1953-.53386.3125-.30599.14973-.70312.2474-.39714.10416-.931.10416-.98306 0-1.66665-.65104-.6836-.65104-.6836-1.66015 0-.82682.35157-1.33464.35807-.51432 1.01562-.80729.66406-.29296 1.59505-.39713.93098-.10417 1.99869-.15625v-.1888q0-.41667-.14974-.6901-.14323-.27344-.41667-.4297-.26041-.14973-.625-.20181-.36458-.05208-.76171-.05208-.48177 0-1.07422.1302-.59244.1237-1.22395.36459h-.0651v-1.24349q.35807-.09766 1.03515-.21484.67708-.11719 1.33463-.11719.76823 0 1.33464.1302.57291.1237.98958.4297.41015.29947.625.77473.21484.47526.21484 1.17838zm-1.21744-1.79035v-2.02474q-.5599.03255-1.32161.09766-.7552.0651-1.19792.1888-.52734.14974-.85286.46875-.32552.3125-.32552.86588 0 .625.3776.94401.3776.3125 1.15235.3125.64453 0 1.17838-.2474.53385-.2539.98958-.60546zm7.35024 1.72525q-.34505.09115-.7552.14974-.40365.05859-.72266.05859-1.11328 0-1.6927-.59896-.57943-.59895-.57943-1.92056v-3.86718h-.82682v-1.02864h.82682v-2.08984h1.22396v2.08984h2.52603v1.02864H71.1019v3.3138q0 .57291.02604.89843.02604.31901.18229.59896.14323.26041.39062.38411.2539.11719.76823.11719.29948 0 .625-.08463.32552-.09115.46875-.14974h.0651zm7.12889.0651h-1.21745v-.77473q-.16276.11067-.4427.3125-.27344.1953-.53386.3125-.30598.14973-.70312.2474-.39713.10416-.93099.10416-.98307 0-1.66666-.65104-.6836-.65104-.6836-1.66015 0-.82682.35157-1.33464.35807-.51432 1.01562-.80729.66406-.29296 1.59505-.39713.93099-.10417 1.9987-.15625v-.1888q0-.41667-.14974-.6901-.14323-.27344-.41667-.4297-.26042-.14973-.625-.20181-.36458-.05208-.76172-.05208-.48177 0-1.07421.1302-.59245.1237-1.22396.36459h-.0651v-1.24349q.35807-.09766 1.03516-.21484.67708-.11719 1.33463-.11719.76823 0 1.33463.1302.57292.1237.98958.4297.41016.29947.625.77473.21484.47526.21484 1.17838zm-1.21745-1.79035v-2.02474q-.55989.03255-1.3216.09766-.75521.0651-1.19792.1888-.52734.14974-.85286.46875-.32552.3125-.32552.86588 0 .625.3776.94401.3776.3125 1.15234.3125.64453 0 1.17838-.2474.53386-.2539.98958-.60546zm17.00517 4.16665q-.39062.09766-.77474.13672-.3776.04557-.77474.04557-1.1328 0-1.8229-.625-.6836-.61849-.7422-1.77734-.15624.02604-.30598.03255-.14323.01302-.27995.01302-1.02213 0-1.86197-.33854-.83334-.33854-1.41927-.98307-.58594-.64453-.90495-1.58203-.3125-.9375-.3125-2.14192 0-1.1849.3125-2.12239.3125-.944.91146-1.61458.57291-.63802 1.41927-.97656.85286-.33854 1.85546-.33854 1.04166 0 1.86848.34505.83334.33854 1.41276.97005.59245.65104.90495 1.59505.319.944.319 2.14192 0 1.77734-.72916 2.99479-.72265 1.21744-1.9466 1.70572.02603.74219.35155 1.15234.32552.41016 1.1849.41016.26692 0 .6315-.08464.3711-.07813.52735-.14323h.17578zm-1.53645-7.22003q0-1.88802-.84636-2.91015-.84635-1.02865-2.31119-1.02865-1.47786 0-2.32421 1.02865-.83984 1.02213-.83984 2.91015 0 1.90754.85937 2.92317.85937 1.0091 2.30468 1.0091 1.44531 0 2.29817-1.0091.85937-1.01563.85937-2.92317zm9.31638 4.84373h-1.22396v-.80728q-.61848.48828-1.18489.7487-.5664.2604-1.25.2604-1.14583 0-1.78385-.6966-.63801-.70313-.63801-2.0573v-4.72003h1.22395v4.14061q0 .55339.05208.95052.05208.39062.22135.67057.17579.28646.45573.41667.27995.1302.8138.1302.47526 0 1.03516-.24739.5664-.2474 1.05468-.6315v-5.42968h1.22396zm8.05987 0h-1.21744v-.77473q-.16276.11067-.44271.3125-.27344.1953-.53385.3125-.30599.14973-.70313.2474-.39713.10416-.93098.10416-.98307 0-1.66667-.65104-.68359-.65104-.68359-1.66015 0-.82682.35156-1.33464.35808-.51432 1.01563-.80729.66406-.29296 1.59504-.39713.93099-.10417 1.9987-.15625v-.1888q0-.41667-.14974-.6901-.14323-.27344-.41667-.4297-.26041-.14973-.625-.20181-.36458-.05208-.76171-.05208-.48177 0-1.07422.1302-.59244.1237-1.22395.36459h-.0651v-1.24349q.35807-.09766 1.03516-.21484.67708-.11719 1.33463-.11719.76823 0 1.33463.1302.57292.1237.98958.4297.41016.29947.625.77473.21484.47526.21484 1.17838zm-1.21744-1.79035v-2.02474q-.5599.03255-1.32161.09766-.75521.0651-1.19792.1888-.52734.14974-.85286.46875-.32552.3125-.32552.86588 0 .625.3776.94401.37761.3125 1.15234.3125.64453 0 1.17839-.2474.53385-.2539.98958-.60546zm4.81118 1.79035h-1.22395V85.80557h1.22395zm3.73698-8.48956h-1.38021v-1.26952h1.38021zm-.0781 8.48957H118.413v-7.27212h1.22395zm6.19787-.0651q-.34505.09114-.7552.14973-.40365.05859-.72266.05859-1.11328 0-1.6927-.59896-.57943-.59895-.57943-1.92056v-3.86718h-.82682v-1.02865h.82682V86.5738h1.22396v2.08984h2.52603v1.02864h-2.52603v3.3138q0 .57291.026.89843.026.31901.18229.59896.14323.26041.39062.38411.25391.11719.76823.11719.29948 0 .625-.08463.32552-.09115.46875-.14974h.0651zm7.70181-7.20702l-4.24478 9.9544h-1.3086l1.35417-3.03385-2.89713-6.92055h1.32812l2.23307 5.39061 2.2526-5.39061z"/></svg>