<svg xmlns="http://www.w3.org/2000/svg" role="img" viewBox="-6.22 -6.22 323.18 89.68"><title>Informatica Data Quality logo</title><g fill="none" fill-rule="evenodd"><path fill="#FF4D00" d="M34.294 45.155l22.963 13.016.856-9.896-6.375-6.883-9.409-1.575z"/><path fill="#FF7D00" d="M38.17.134l19.087 58.038 19.085-19.347z"/><path fill="#001AFF" d="M35.1 30.874l-.805 14.282 29.33-6.329z"/><path fill="#E23400" d="M20.381 59.486l3.796-5.153-.683-6.191-9.352-6.152L.001 38.828z"/><path fill="#FF4D00" d="M0 38.827l23.493 9.315L36.106 2.229z"/><path fill="#FF7D00" d="M20.381 59.486L38.17 77.521l16.717-16.944-31.393-12.435z"/><path fill="#373737" d="M101.746 49.86h-3.57V20.58l3.57-2.11zm159.782-26.081h-3.671V19.895h3.671z"/><path d="M117.7019 27.29046c-2.86312 0-5.1347 1.23175-6.76345 3.66438v-3.20288h-3.48993v22.10975h3.48993V37.23546c0-3.861 2.42388-6.55687 5.89458-6.55687 3.39374 0 5.42005 2.35787 5.42005 6.305V49.8617h3.49154V36.18896c0-2.62437-.73101-4.8425-2.11608-6.41875-1.42355-1.62337-3.4739-2.47975-5.92664-2.47975m43.16151 11.53604v.0845c0 4.6215-3.12924 8.10712-7.27644 8.10712-4.10231 0-7.31651-3.59775-7.31651-8.19162v-.08288c0-4.64587 3.1116-8.14775 7.23796-8.14775 4.12316 0 7.355 3.61563 7.355 8.23063m-7.27645-11.53588c-2.99938 0-5.77113 1.21875-7.80546 3.43363-1.98623 2.16287-3.07954 5.03912-3.07954 8.10225v.0845c0 6.422 4.74676 11.453 10.80645 11.453 2.99939 0 5.77915-1.21875 7.8231-3.43363 2.00065-2.16612 3.10198-5.044 3.10198-8.10387v-.08288c0-6.422-4.766-11.453-10.84653-11.453m18.58338 5.3183V27.7518h-3.48994v22.10975h3.48994V41.0053c0-5.89225 3.08916-9.84425 7.86958-9.84425h.46169v-3.7765l-.21642-.00975c-3.37932-.14788-6.35466 1.79237-8.11485 5.23412m35.30795-5.31846c-3.01862 0-5.36394 1.33413-7.1578 4.07713-1.3402-2.6325-3.66307-4.07713-6.5807-4.07713-3.27993 0-5.1331 1.79725-6.36909 3.57988v-3.11838h-3.48993v22.10975h3.48993v-12.584c0-3.82362 2.29723-6.59912 5.46013-6.59912 3.14688 0 5.0257 2.32537 5.0257 6.22212v12.961h3.49154V37.15096c0-1.97112.54986-3.63187 1.58866-4.79862.96186-1.079 2.30846-1.67375 3.79132-1.67375 3.22061 0 5.06577 2.29937 5.06577 6.305V49.8617h3.48993V36.2296c0-5.51363-2.99137-8.93913-7.80546-8.93913m46.14375 3.76496V27.7518H247.067v-7.69763l-3.49154 2.06375v5.63388h-3.80093v3.30362h3.80093v12.83913c0 5.5185 3.75285 6.344 5.98916 6.344 1.4027 0 2.60342-.30225 3.7801-.949l.11702-.065v-3.27113l-.32543.16738c-1.01476.51675-1.84356.72962-2.85992.72962-2.16097 0-3.20939-1.10337-3.20939-3.3735v-12.4215h6.55505zm28.98552 12.81345c-1.8612 2.119-3.84742 3.14763-6.07091 3.14763-4.07988 0-7.27644-3.59613-7.27644-8.19v-.08288c0-4.5695 3.11-8.14775 7.07926-8.14775 2.77976 0 4.54156 1.53238 6.03243 3.1915l.16833.18525 2.31486-2.6-.13626-.15437c-1.62233-1.82813-4.03659-3.92763-8.33929-3.92763-2.91442 0-5.62525 1.21875-7.63232 3.43525-1.9702 2.17263-3.0555 5.04888-3.0555 8.10063v.0845c0 3.03062 1.0853 5.88737 3.0555 8.04375 2.00707 2.19862 4.7179 3.40925 7.63232 3.40925 4.33797 0 6.82276-2.2815 8.5012-4.26888l.13627-.16087-2.25235-2.24413-.1571.17875zm-48.46775-4.65757v2.4635c0 3.21262-2.83908 5.6355-6.60474 5.6355-3.3729 0-4.90867-2.11738-4.90867-4.08525v-.0845c0-1.79238.99552-3.92925 5.73747-3.92925h5.77594zm-5.57876-11.921c-3.30558 0-5.65571.92137-7.52011 1.82325l-.18115.08775 1.05644 3.07287.22764-.1105c1.67683-.81412 3.5749-1.56812 6.10137-1.56812 3.75124 0 5.89457 1.742 5.89457 5.772h-6.09175c-5.68938 0-8.95007 2.51387-8.95007 6.89975v.08287c0 4.576 3.94521 6.97125 7.84393 6.97125 3.5781 0 5.86732-1.68675 7.1979-3.29387l-.00161 2.834h3.33443V36.39842c0-2.78525-.7262-5.13337-2.15616-6.6495-1.53736-1.6315-3.81055-2.45862-6.75543-2.45862zm-92.94636-1.59949c0-3.18175.80636-4.3745 3.28474-4.3745.95704 0 1.72492.18038 2.89518.53463l.21642.065v-3.27438l-.07214-.02762c-1.0404-.3965-2.03432-.559-3.43382-.559-1.89486 0-3.46589.60287-4.54317 1.74525-1.20232 1.27562-1.83875 3.25325-1.83875 5.72325v2.22787h-3.79933v3.30363h3.79933v18.80612h3.49154V31.05494h6.55505V27.7513h-6.55505v-2.0605zM261.437 49.861h-3.49v-22.11h3.49zm40.7772-10.64808v2.4635c0 3.21425-2.83908 5.63713-6.60635 5.63713-3.3729 0-4.90867-2.119-4.90867-4.08688v-.0845c0-1.79237.99552-3.92925 5.73747-3.92925h5.77754zm-5.57877-11.92262c-3.30718 0-5.65731.92137-7.52171 1.82325l-.18275.08775 1.05964 3.07287.22604-.10887c1.67683-.81575 3.5765-1.56975 6.10137-1.56975 3.75284 0 5.89617 1.74362 5.89617 5.77362h-6.09335c-5.68938 0-8.95167 2.51388-8.95167 6.89975v.08288c0 4.57762 3.94681 6.97287 7.84714 6.97287 3.5781 0 5.86571-1.68675 7.19788-3.2955l-.0016 2.83563h3.33443V36.40005c0-2.78525-.7262-5.135-2.15616-6.65113-1.53736-1.6315-3.81055-2.45862-6.75543-2.45862zm11.80085 2.27809h.44566c.13626-.00325.24687-.03738.33024-.10075.08496-.06338.12504-.14625.12504-.25025 0-.14138-.03527-.2405-.11062-.299-.07374-.0585-.2068-.08775-.39596-.08775h-.39436v.73775zm0 .3705v.97662h-.40238v-2.45537h.78712c.29176 0 .5178.06337.6781.19012.16032.12675.24047.30875.24047.55088 0 .23725-.12023.41762-.3639.54275.23085.0975.34787.29412.35108.5915v.1755c0 .16575.01603.286.04809.35912v.0455h-.4136c-.02725-.06825-.04007-.19337-.04007-.3705 0-.17875-.00321-.28437-.00962-.31687-.03046-.18525-.1539-.28275-.37352-.28925h-.50177zm-1.27767-.21938c0 .3315.07535.63863.22764.92138.1523.28112.3591.50375.6204.663.2629.16087.54505.23887.84964.23887.30619 0 .58994-.07962.85284-.24375.26291-.1625.4681-.3835.6172-.663.14908-.2795.22443-.585.22443-.9165 0-.32825-.07535-.63212-.22444-.91162-.14908-.27788-.35428-.49725-.61719-.65813-.2629-.16087-.54665-.2405-.85284-.2405-.30459 0-.58834.078-.85124.23725-.2613.15925-.46971.37863-.6204.65975-.1507.28275-.22604.58663-.22604.91325zm-.32863.00163c0-.39.08977-.75075.26772-1.08388.17634-.33312.42321-.59637.73742-.78812.3158-.19175.65566-.28763 1.02117-.28763.3655 0 .70376.09588 1.01796.28763.3142.19175.55948.455.73743.78812.17794.33313.2661.69388.2661 1.08388 0 .38025-.08496.73612-.25649 1.06762-.16992.3315-.4136.598-.7278.7995-.31581.2015-.66047.30225-1.0372.30225-.37513 0-.7198-.09912-1.034-.299-.3158-.19987-.55948-.46637-.73261-.79787-.17313-.3315-.2597-.68738-.2597-1.0725z" fill="#373737"/></g></svg>