<svg xmlns="http://www.w3.org/2000/svg" role="img" viewBox="21.77 -4.48 272.22 151.22"><title>Informatica Data Engineering Streaming logo</title><g fill="none" fill-rule="evenodd"><path fill="#ff4d00" d="M170.81598 43.41236l-5.63937-6.08873-8.32225-1.39282-7.10701 4.72178 20.31142 11.5134z"/><path fill="#ff7d00" d="M186.93978 35.05315L153.17579.8292l16.8827 51.33736z"/><path fill="#001aff" d="M175.69178 35.05458l-25.23189-7.03452-.71183 12.6331z"/><path fill="#e23400" d="M140.194 43.29463l-8.2726-5.4419-12.50817-2.79714 18.02702 18.27338 3.35782-4.55793z"/><path fill="#ff4d00" d="M151.35026 2.6824l-31.9376 32.37261 20.78077 8.23905z"/><path fill="#ff7d00" d="M167.96268 54.29345L140.194 43.29464l-2.75375 10.03433 15.73554 15.952z"/><path fill="#373737" d="M64.94078 82.11805l3.0333-1.79211v26.67035h-3.0333zm135.92891.42337v-.71315h2.60272v2.7535h-2.60272z"/><path d="M81.52996 87.81873c-2.43262 0-4.36265 1.04654-5.7465 3.1134v-2.72129h-2.96518v18.78533h2.96518V96.2684c0-3.28046 2.05943-5.57098 5.00827-5.57098 2.88346 0 4.6051 2.00334 4.6051 5.35698v10.94177h2.96654V95.37925c0-2.22977-.6211-4.11438-1.7979-5.45362-1.2095-1.37929-2.95157-2.1069-5.0355-2.1069m36.67174 9.80148v.0718c0 3.9266-2.65873 6.88813-6.18236 6.88813-3.48549 0-6.2164-3.05679-6.2164-6.95993v-.07041c0-3.94732 2.64374-6.92265 6.14966-6.92265 3.5032 0 6.2491 3.07198 6.2491 6.99306m-6.18236-9.80134c-2.5484 0-4.90338 1.0355-6.63183 2.91734-1.68758 1.83767-2.6165 4.28145-2.6165 6.884v.0718c0 5.45638 4.03304 9.73092 9.1816 9.73092 2.5484 0 4.91019-1.0355 6.6468-2.91734 1.69984-1.84043 2.63557-4.28559 2.63557-6.88538v-.07041c0-5.45639-4.04938-9.73093-9.21564-9.73093m15.78918 4.51864v-4.1268h-2.96519v18.78532h2.96519v-7.52462c0-5.0063 2.62467-8.36407 6.68631-8.36407h.39227v-3.20867l-.18388-.00828c-2.8712-.12564-5.39917 1.52287-6.8947 4.44712m29.99905-4.51878c-2.56474 0-4.55742 1.13353-6.08156 3.46409-1.13867-2.23668-3.11229-3.46409-5.59122-3.46409-2.78676 0-4.3613 1.52702-5.41143 3.0416v-2.64949h-2.96519v18.78533h2.96519V96.3043c0-3.2487 1.95182-5.60688 4.63915-5.60688 2.6737 0 4.27003 1.97573 4.27003 5.28656v11.01219h2.96655V96.1966c0-1.67475.46718-3.08579 1.34979-4.0771.81723-.91677 1.96135-1.4221 3.22125-1.4221 2.73636 0 4.30409 1.95365 4.30409 5.35699v10.94177h2.96518v-11.5824c0-4.6846-2.54159-7.59504-6.63183-7.59504m39.20558 3.19886V88.2107h-5.56944v-6.5402l-2.96655 1.75344v4.78676h-3.22942v2.8069h3.22942v10.90863c0 4.68874 3.18856 5.39011 5.08863 5.39011 1.19179 0 2.21197-.2568 3.21172-.8063l.09943-.05523v-2.77928l-.2765.1422c-.86218.43906-1.56636.61993-2.4299.61993-1.83605 0-2.72683-.93747-2.72683-2.86626V91.0176zm24.62725 10.88682c-1.58134 1.8004-3.26893 2.67435-5.15809 2.67435-3.46642 0-6.18235-3.05541-6.18235-6.95855v-.07041c0-3.88243 2.64238-6.92265 6.01481-6.92265 2.3618 0 3.8587 1.30196 5.1254 2.71162l.14303.1574 1.9668-2.20907-.11578-.13116c-1.3784-1.55325-3.42965-3.33707-7.0854-3.33707-2.4762 0-4.77943 1.0355-6.48472 2.91873-1.67396 1.84595-2.59607 4.28973-2.59607 6.88261v.0718c0 2.57494.92211 5.00215 2.59607 6.8343 1.70529 1.86803 4.00852 2.89663 6.48473 2.89663 3.68571 0 5.79689-1.93846 7.22296-3.62701l.11578-.13669-1.91369-1.9067zm-41.18014-3.95726v2.09309c0 2.72957-2.4122 4.78815-5.61165 4.78815-2.86576 0-4.1706-1.79901-4.1706-3.471v-.0718c0-1.52286.84583-3.33844 4.87478-3.33844zm-4.73993-10.12856c-2.80856 0-4.80532.78284-6.3894 1.5491l-.1539.07457.8976 2.61083.1934-.09388c1.4247-.69172 3.03737-1.33234 5.18397-1.33234 3.1872 0 5.00826 1.48007 5.00826 4.90412h-5.1758c-4.83392 0-7.60433 2.13589-7.60433 5.8623v.07041c0 3.88795 3.352 5.92305 6.66452 5.92305 3.0401 0 4.9851-1.43313 6.11561-2.7986l-.0017 2.40788h2.83307V95.55722c0-2.36646-.61701-4.36152-1.83196-5.64968-1.30621-1.38619-3.2376-2.08895-5.73968-2.08895zM96.74939 86.4596c0-2.70334.68511-3.71675 2.79084-3.71675.81315 0 1.46557.15326 2.45987.45424l.18388.05523v-2.78204l-.0613-.02347c-.88397-.33688-1.72844-.47495-2.91751-.47495-1.60995 0-2.94476.51223-3.86006 1.48283-1.02153 1.08383-1.56227 2.7641-1.56227 4.8627v1.8929h-3.22806v2.80689h3.22806v15.97844h2.96655V91.01718h5.56943v-2.8069h-5.56943zm103.93858 3.74851v-1.99782h2.96518v18.78533h-2.96518zm37.61101 7.74042v2.09309c0 2.73096-2.41219 4.78953-5.61301 4.78953-2.86576 0-4.1706-1.80039-4.1706-3.47238v-.07179c0-1.52287.84583-3.33845 4.87478-3.33845zm-4.73994-10.12994c-2.8099 0-4.80667.78284-6.39074 1.5491l-.15527.07457.9003 2.61083.19206-.0925c1.4247-.6931 3.03874-1.33372 5.18397-1.33372 3.18856 0 5.00962 1.48145 5.00962 4.9055h-5.17715c-4.83393 0-7.6057 2.13589-7.6057 5.8623v.07042c0 3.88933 3.35337 5.92443 6.66724 5.92443 3.0401 0 4.98375-1.43313 6.11561-2.79998l-.0017 2.40926h2.83307V95.5586c0-2.36646-.61701-4.3629-1.83196-5.65106-1.3062-1.38619-3.2376-2.08895-5.73969-2.08895zm10.02648 1.93556h.37865c.11577-.00272.20975-.03175.28057-.0856.07222-.05385.10625-.12426.10625-.21263 0-.12011-.02999-.20434-.09399-.25404-.06261-.0497-.1757-.07455-.33642-.07455h-.33506zm0 .31479v.82978h-.34188v-2.08619h.66877c.24789 0 .43994.05385.57615.16154.1362.1077.2043.26233.2043.46805 0 .20157-.10215.35483-.30918.46114.19614.08284.29556.2499.29829.50256v.14911c0 .14083.0136.243.04087.30513v.03866h-.35141c-.0232-.05799-.03407-.1643-.03407-.3148 0-.15186-.00255-.2416-.0085-.26922-.02592-.1574-.13076-.24024-.31736-.24576zm-1.08556-.18639c0 .28166.06406.5426.19341.78284.1294.23885.3051.428.52712.5633.22338.1367.4631.20296.72188.20296.26016 0 .50124-.06765.72461-.2071.22338-.13806.39773-.32583.5244-.5633.12666-.23748.19068-.49704.19068-.7787 0-.2789-.06397-.53708-.19069-.77455-.12666-.2361-.301-.42249-.52439-.55917-.22337-.13669-.46445-.20434-.7246-.20434-.2588 0-.49988.06627-.72325.20158-.22202.1353-.39909.3217-.52712.56055-.12803.24023-.19205.49842-.19205.77593zm-.27922.00136c0-.33136.0763-.63787.22746-.9209.14983-.28304.35958-.5067.62655-.66963.26832-.16292.55707-.24437.86762-.24437s.59795.08145.8649.24437c.26697.16292.47536.38659.62655.66963.15119.28303.2261.58954.2261.9209 0 .32307-.07222.62544-.21793.9071-.14438.28165-.35141.50808-.61837.67928-.26832.1712-.56117.2568-.88125.2568-.31872 0-.61156-.08421-.87852-.25404-.26833-.16982-.47536-.39625-.62246-.6779-.1471-.28166-.22065-.58402-.22065-.91124z" fill="#373737"/><path d="M38.4413 130.96337q0 1.85027-.8112 3.35418-.80209 1.50391-2.14194 2.33333-.92969.57422-2.07813.82943-1.13932.25521-3.00781.25521h-3.4271v-13.57164h3.39064q1.98698 0 3.15365.29167 1.17578.28255 1.98698.78386 1.38542.86588 2.16016 2.30599.77474 1.44011.77474 3.41797zm-1.88673-.0273q0-1.59505-.55599-2.68881-.55599-1.09375-1.65886-1.72266-.80208-.45573-1.70443-.6289-.90234-.1823-2.16016-.1823h-1.69531v10.47268h1.69531q1.3034 0 2.26954-.19141.97526-.1914 1.78646-.71094 1.01172-.64713 1.51302-1.70443.51042-1.05729.51042-2.64323zm12.57815 6.79945h-1.70443v-1.08464q-.22787.15495-.6198.43751-.3828.27343-.7474.4375-.42838.20963-.98437.34635-.55599.14583-1.30339.14583-1.3763 0-2.33333-.91146-.95704-.91146-.95704-2.32422 0-1.15755.4922-1.86849.5013-.72005 1.42187-1.13021.92969-.41016 2.23308-.55599 1.30338-.14584 2.79818-.21875v-.26433q0-.58333-.20964-.96614-.20052-.38282-.58333-.60157-.36459-.20963-.875-.28255-.51042-.0729-1.06641-.0729-.67448 0-1.50391.1823-.82943.17317-1.71355.51041h-.09115v-1.74089q.5013-.13671 1.44923-.30078.94791-.16406 1.86849-.16406 1.07552 0 1.8685.18229.80208.17318 1.38541.60157.57422.41927.875 1.08463.30078.66537.30078 1.64975zm-1.70443-2.50651v-2.83464q-.78386.0456-1.85027.13672-1.05729.0911-1.67708.26432-.73828.20963-1.19401.65625-.45573.4375-.45573 1.21224 0 .875.52864 1.32162.52865.4375 1.61329.4375.90234 0 1.64974-.34636.7474-.35546 1.38542-.84765zm10.29038 2.41537q-.48307.1276-1.0573.20963-.5651.082-1.01171.082-1.5586 0-2.3698-.83854-.8112-.83854-.8112-2.68881v-5.41407h-1.15755v-1.44011h1.15755v-2.92578h1.71355v2.92578h3.53646v1.44011h-3.53646v4.63933q0 .80209.03646 1.25782.03646.44661.2552.83854.20053.36458.54688.53776.35547.16406 1.07553.16406.41927 0 .875-.11849.45573-.1276.65625-.20963h.09115zm9.9805.09114h-1.70444v-1.08464q-.22787.15495-.6198.43751-.3828.27343-.74739.4375-.42839.20963-.98438.34635-.55599.14583-1.30338.14583-1.3763 0-2.33334-.91146-.95703-.91146-.95703-2.32422 0-1.15755.49218-1.86849.5013-.72005 1.42188-1.13021.92969-.41016 2.23308-.55599 1.30339-.14584 2.79818-.21875v-.26433q0-.58333-.20963-.96614-.20053-.38282-.58334-.60157-.36458-.20963-.875-.28255-.51042-.0729-1.06641-.0729-.67448 0-1.5039.1823-.82944.17317-1.71355.51041h-.09115v-1.74089q.5013-.13671 1.44922-.30078.94792-.16406 1.8685-.16406 1.07551 0 1.86848.18229.80209.17318 1.38542.60157.57422.41927.875 1.08463.30079.66537.30079 1.64975zm-1.70444-2.50651v-2.83464q-.78385.0456-1.85026.13672-1.0573.0911-1.67709.26432-.73828.20963-1.19401.65625-.45573.4375-.45573 1.21224 0 .875.52864 1.32162.52865.4375 1.61329.4375.90234 0 1.64974-.34636.7474-.35546 1.38542-.84765zm20.64457 2.50651h-8.94143v-13.57164h8.94143v1.60417h-7.13673v3.71876h7.13673v1.60417h-7.13673v5.04037h7.13673zm11.2383 0h-1.71355v-5.79688q0-.70183-.08203-1.31251-.08203-.61979-.30078-.96614-.22786-.38282-.65625-.56511-.42839-.19141-1.11198-.19141-.70183 0-1.46745.34636-.76563.34635-1.46745.88412v7.60157h-1.71355v-10.18101h1.71355v1.13021q.80208-.66536 1.65886-1.03906.85677-.3737 1.75911-.3737 1.64974 0 2.51563.99349.86589.99349.86589 2.86199zm11.55731-1.15755q0 2.58854-1.17578 3.80079-1.17578 1.21224-3.6185 1.21224-.8112 0-1.58594-.11849-.76562-.10938-1.51302-.31901v-1.75001h.0911q.41928.16407 1.33074.40105.91146.24609 1.82292.24609.875 0 1.44922-.20964.57422-.20963.89323-.58333.31901-.35547.45573-.85677.13672-.50131.13672-1.1211v-.92969q-.77474.6198-1.48568.92969-.70183.30078-1.79558.30078-1.82292 0-2.89844-1.3125-1.06641-1.32162-1.06641-3.71876 0-1.3125.36458-2.26042.3737-.95703 1.01172-1.64974.59245-.64714 1.44011-1.0026.84766-.36459 1.6862-.36459.88412 0 1.47657.18229.60156.17318 1.26693.53776l.10937-.4375h1.60417zm-1.71354-1.64063v-5.55079q-.6836-.3099-1.27605-.4375-.58333-.13672-1.16667-.13672-1.41276 0-2.22396.94792-.8112.94792-.8112 2.75261 0 1.71354.60157 2.59766.60156.88411 1.99609.88411.7474 0 1.4948-.28255.75651-.29167 1.38542-.77474zm6.92709-9.08726h-1.9323v-1.77734h1.9323zm-.10938 11.88544h-1.71354v-10.18101h1.71354zm11.90367 0h-1.71354v-5.79688q0-.70183-.082-1.31251-.082-.61979-.30079-.96614-.22786-.38282-.65625-.56511-.42838-.19141-1.11198-.19141-.70182 0-1.46745.34636-.76562.34635-1.46745.88412v7.60157h-1.71354v-10.18101h1.71354v1.13021q.80209-.66536 1.65886-1.03906.85677-.3737 1.75912-.3737 1.64974 0 2.51563.99349.86588.99349.86588 2.86199zm11.82164-4.91277h-7.50132q0 .93881.28256 1.64063.28255.69271.77474 1.13933.47396.4375 1.12109.65625.65626.21875 1.44011.21875 1.03907 0 2.08724-.41016 1.0573-.41927 1.50391-.82031h.0911v1.86849q-.86589.36458-1.76823.61068-.90235.24609-1.89584.24609-2.53386 0-3.95574-1.36719-1.42187-1.3763-1.42187-3.90105 0-2.4974 1.35807-3.96485 1.36719-1.46745 3.59115-1.46745 2.0599 0 3.17188 1.20313 1.1211 1.20313 1.1211 3.41797zm-1.66797-1.3125q-.009-1.34896-.6836-2.08724-.66536-.73829-2.03255-.73829-1.37631 0-2.19662.8112-.8112.8112-.92058 2.01433zm12.78778 1.3125h-7.50131q0 .93881.28255 1.64063.28255.69271.77474 1.13933.47396.4375 1.1211.65625.65625.21875 1.4401.21875 1.03907 0 2.08725-.41016 1.05729-.41927 1.50391-.82031h.0911v1.86849q-.86589.36458-1.76823.61068-.90235.24609-1.89584.24609-2.53386 0-3.95573-1.36719-1.42188-1.3763-1.42188-3.90105 0-2.4974 1.35807-3.96485 1.36719-1.46745 3.59116-1.46745 2.0599 0 3.17188 1.20313 1.12109 1.20313 1.12109 3.41797zm-1.66797-1.3125q-.009-1.34896-.68359-2.08724-.66537-.73829-2.03256-.73829-1.3763 0-2.19662.8112-.8112.8112-.92057 2.01433zm10.61851-2.08724h-.0911q-.38281-.0911-.74739-.12761-.35547-.0456-.84766-.0456-.79297 0-1.53125.35547-.73829.34635-1.42188.90234v7.22788h-1.71355v-10.18101h1.71355v1.50391q1.02083-.82031 1.79557-1.15755.78386-.34636 1.59506-.34636.44661 0 .64714.0273.20052.0182.60156.082zm3.45444-3.57293h-1.9323v-1.77734h1.9323zm-.10938 11.88544h-1.71354v-10.18101h1.71354zm11.90367 0h-1.71355v-5.79688q0-.70183-.082-1.31251-.082-.61979-.30078-.96614-.22786-.38282-.65625-.56511-.42839-.19141-1.11198-.19141-.70183 0-1.46745.34636-.76563.34635-1.46745.88412v7.60157h-1.71355v-10.18101h1.71355v1.13021q.80208-.66536 1.65886-1.03906.85677-.3737 1.75911-.3737 1.64975 0 2.51563.99349.86589.99349.86589 2.86199zm11.55731-1.15755q0 2.58854-1.17579 3.80079-1.17578 1.21224-3.61849 1.21224-.8112 0-1.58594-.11849-.76563-.10938-1.51303-.31901v-1.75001h.0911q.41927.16407 1.33073.40105.91146.24609 1.82292.24609.875 0 1.44922-.20964.57422-.20963.89323-.58333.31901-.35547.45573-.85677.13672-.50131.13672-1.1211v-.92969q-.77474.6198-1.48568.92969-.70182.30078-1.79557.30078-1.82292 0-2.89845-1.3125-1.06641-1.32162-1.06641-3.71876 0-1.3125.36459-2.26042.3737-.95703 1.01172-1.64974.59245-.64714 1.44011-1.0026.84765-.36459 1.6862-.36459.88411 0 1.47656.18229.60157.17318 1.26693.53776l.10938-.4375h1.60417zm-1.71355-1.64063v-5.55079q-.68359-.3099-1.27604-.4375-.58334-.13672-1.16667-.13672-1.41276 0-2.22396.94792-.8112.94792-.8112 2.75261 0 1.71354.60156 2.59766.60156.88411 1.9961.88411.74739 0 1.49479-.28255.75651-.29167 1.38542-.77474zm21.64717-1.07552q0 .79297-.3737 1.56771-.36458.77474-1.02995 1.3125-.72917.58333-1.70443.91146-.96615.32813-2.33334.32813-1.46745 0-2.64323-.27344-1.16667-.27344-2.37891-.8112v-2.26042h.1276q1.02995.85677 2.37891 1.32161 1.34896.46485 2.53386.46485 1.67709 0 2.60678-.62891.9388-.62891.9388-1.67708 0-.90235-.44661-1.33074-.43751-.42838-1.33985-.66536-.6836-.18229-1.48568-.30078-.79297-.11849-1.6862-.30079-1.80469-.38281-2.67969-1.30338-.86589-.92969-.86589-2.41537 0-1.70443 1.44011-2.78907 1.4401-1.09375 3.65495-1.09375 1.43099 0 2.62501.27344 1.19401.27343 2.11458.67448v2.13281h-.1276q-.77474-.65625-2.04167-1.08463-1.25782-.4375-2.57943-.4375-1.44923 0-2.33334.60156-.875.60156-.875 1.54948 0 .84766.4375 1.33073.4375.48308 1.54036.73828.58334.12761 1.65886.3099t1.82292.3737q1.51303.40104 2.27865 1.21224.76563.8112.76563 2.26954zm8.0482 3.78256q-.48307.1276-1.05729.20963-.56511.082-1.01172.082-1.5586 0-2.3698-.83854-.8112-.83854-.8112-2.68881v-5.41407h-1.15755v-1.44011h1.15755v-2.92578h1.71355v2.92578h3.53646v1.44011h-3.53646v4.63933q0 .80209.0365 1.25782.0365.44661.2552.83854.20053.36458.54688.53776.35547.16406 1.07552.16406.41928 0 .87501-.11849.45573-.1276.65625-.20963h.0911zm8.42189-8.22137h-.0911q-.38281-.0911-.7474-.12761-.35547-.0456-.84766-.0456-.79297 0-1.53125.35547-.73828.34635-1.42188.90234v7.22788h-1.71354v-10.18101h1.71354v1.50391q1.02084-.82031 1.79558-1.15755.78386-.34636 1.59505-.34636.44662 0 .64714.0273.20052.0182.60156.082zm10.13544 3.39974h-7.50132q0 .93881.28255 1.64063.28255.69271.77474 1.13933.47396.4375 1.1211.65625.65625.21875 1.44011.21875 1.03906 0 2.08724-.41016 1.05729-.41927 1.50391-.82031h.0911v1.86849q-.86588.36458-1.76823.61068-.90234.24609-1.89583.24609-2.53386 0-3.95574-1.36719-1.42188-1.3763-1.42188-3.90105 0-2.4974 1.35808-3.96485 1.36719-1.46745 3.59115-1.46745 2.0599 0 3.17188 1.20313 1.1211 1.20313 1.1211 3.41797zm-1.66798-1.3125q-.009-1.34896-.68359-2.08724-.66537-.73829-2.03256-.73829-1.3763 0-2.19662.8112-.8112.8112-.92057 2.01433zm12.17711 6.22527h-1.70443v-1.08464q-.22787.15495-.61979.43751-.38282.27343-.7474.4375-.42839.20963-.98438.34635-.55599.14583-1.30339.14583-1.3763 0-2.33333-.91146-.95704-.91146-.95704-2.32422 0-1.15755.49219-1.86849.50131-.72005 1.42188-1.13021.92969-.41016 2.23308-.55599 1.30338-.14584 2.79818-.21875v-.26433q0-.58333-.20964-.96614-.20052-.38282-.58333-.60157-.36459-.20963-.875-.28255-.51042-.0729-1.06641-.0729-.67448 0-1.50391.1823-.82943.17317-1.71354.51041h-.0911v-1.74089q.5013-.13671 1.44922-.30078.94792-.16406 1.86849-.16406 1.07553 0 1.8685.18229.80208.17318 1.38542.60157.57422.41927.875 1.08463.30078.66537.30078 1.64975zm-1.70443-2.50651v-2.83464q-.78386.0456-1.85026.13672-1.0573.0911-1.67709.26432-.73828.20963-1.19401.65625-.45573.4375-.45573 1.21224 0 .875.52864 1.32162.52865.4375 1.61329.4375.90234 0 1.64974-.34636.7474-.35546 1.38542-.84765zm19.86071 2.50651h-1.71355v-5.79688q0-.65625-.0638-1.26693-.0547-.61068-.24609-.97527-.20964-.39192-.60157-.59244-.39193-.20053-1.13021-.20053-.72005 0-1.4401.36459-.72006.35547-1.44011.91146.0273.20963.0456.49219.0182.27343.0182.54687v6.51694h-1.71354v-5.79688q0-.67448-.0638-1.27605-.0547-.61068-.24609-.97526-.20964-.39193-.60156-.58333-.39193-.20053-1.13021-.20053-.70183 0-1.41277.34636-.70182.34635-1.40365.88412v7.60157h-1.71354v-10.18101h1.71354v1.13021q.80209-.66536 1.59506-1.03906.80208-.3737 1.70443-.3737 1.03906 0 1.75912.4375.72916.4375 1.08463 1.21224 1.03907-.875 1.89584-1.25781.85677-.39193 1.83204-.39193 1.67708 0 2.47005 1.02084.80209 1.01172.80209 2.83464zm5.14063-11.88544h-1.9323v-1.77734h1.9323zm-.10938 11.88544h-1.71354v-10.18101h1.71354zm11.90367 0h-1.71354v-5.79688q0-.70183-.082-1.31251-.082-.61979-.30079-.96614-.22786-.38282-.65625-.56511-.42838-.19141-1.11198-.19141-.70182 0-1.46745.34636-.76563.34635-1.46745.88412v7.60157h-1.71354v-10.18101h1.71354v1.13021q.80209-.66536 1.65886-1.03906.85677-.3737 1.75912-.3737 1.64974 0 2.51563.99349.86588.99349.86588 2.86199zm11.55732-1.15755q0 2.58854-1.17578 3.80079-1.17578 1.21224-3.6185 1.21224-.8112 0-1.58594-.11849-.76562-.10938-1.51302-.31901v-1.75001h.0912q.41927.16407 1.33073.40105.91146.24609 1.82292.24609.875 0 1.44922-.20964.57422-.20963.89323-.58333.31901-.35547.45573-.85677.13672-.50131.13672-1.1211v-.92969q-.77474.6198-1.48568.92969-.70182.30078-1.79558.30078-1.82292 0-2.89844-1.3125-1.06641-1.32162-1.06641-3.71876 0-1.3125.36459-2.26042.37369-.95703 1.01172-1.64974.59245-.64714 1.4401-1.0026.84766-.36459 1.6862-.36459.88412 0 1.47657.18229.60156.17318 1.26693.53776l.10937-.4375h1.60417zm-1.71354-1.64063v-5.55079q-.6836-.3099-1.27604-.4375-.58334-.13672-1.16667-.13672-1.41277 0-2.22397.94792-.8112.94792-.8112 2.75261 0 1.71354.60157 2.59766.60156.88411 1.9961.88411.74739 0 1.49479-.28255.75651-.29167 1.38542-.77474z" fill="#000"/></g></svg>