<svg xmlns="http://www.w3.org/2000/svg" role="img" viewBox="43.66 -3.59 225.94 147.94"><title>Informatica Workflow Orchestration logo</title><g fill="none" fill-rule="evenodd"><path fill="#ff4d00" d="M170.81598 43.41236l-5.63937-6.08873-8.32225-1.39282-7.10701 4.72178 20.31142 11.5134z"/><path fill="#ff7d00" d="M186.93978 35.05315L153.17579.8292l16.8827 51.33736z"/><path fill="#001aff" d="M175.69178 35.05458l-25.23189-7.03452-.71183 12.6331z"/><path fill="#e23400" d="M140.194 43.29463l-8.2726-5.4419-12.50817-2.79714 18.02702 18.27338 3.35782-4.55793z"/><path fill="#ff4d00" d="M151.35026 2.6824l-31.9376 32.37261 20.78077 8.23905z"/><path fill="#ff7d00" d="M167.96268 54.29345L140.194 43.29464l-2.75375 10.03433 15.73554 15.952z"/><path fill="#373737" d="M64.94078 82.11805l3.0333-1.79211v26.67035h-3.0333zm135.92891.42337v-.71315h2.60272v2.7535h-2.60272z"/><path d="M81.52996 87.81873c-2.43262 0-4.36265 1.04654-5.7465 3.1134v-2.72129h-2.96518v18.78533h2.96518V96.2684c0-3.28046 2.05943-5.57098 5.00827-5.57098 2.88346 0 4.6051 2.00334 4.6051 5.35698v10.94177h2.96654V95.37925c0-2.22977-.6211-4.11438-1.7979-5.45362-1.2095-1.37929-2.95157-2.1069-5.0355-2.1069m36.67174 9.80148v.0718c0 3.9266-2.65873 6.88813-6.18236 6.88813-3.48549 0-6.2164-3.05679-6.2164-6.95993v-.07041c0-3.94732 2.64374-6.92265 6.14966-6.92265 3.5032 0 6.2491 3.07198 6.2491 6.99306m-6.18236-9.80134c-2.5484 0-4.90338 1.0355-6.63183 2.91734-1.68758 1.83767-2.6165 4.28145-2.6165 6.884v.0718c0 5.45638 4.03304 9.73092 9.1816 9.73092 2.5484 0 4.91019-1.0355 6.6468-2.91734 1.69984-1.84043 2.63557-4.28559 2.63557-6.88538v-.07041c0-5.45639-4.04938-9.73093-9.21564-9.73093m15.78918 4.51864v-4.1268h-2.96519v18.78532h2.96519v-7.52462c0-5.0063 2.62467-8.36407 6.68631-8.36407h.39227v-3.20867l-.18388-.00828c-2.8712-.12564-5.39917 1.52287-6.8947 4.44712m29.99905-4.51878c-2.56474 0-4.55742 1.13353-6.08156 3.46409-1.13867-2.23668-3.11229-3.46409-5.59122-3.46409-2.78676 0-4.3613 1.52702-5.41143 3.0416v-2.64949h-2.96519v18.78533h2.96519V96.3043c0-3.2487 1.95182-5.60688 4.63915-5.60688 2.6737 0 4.27003 1.97573 4.27003 5.28656v11.01219h2.96655V96.1966c0-1.67475.46718-3.08579 1.34979-4.0771.81723-.91677 1.96135-1.4221 3.22125-1.4221 2.73636 0 4.30409 1.95365 4.30409 5.35699v10.94177h2.96518v-11.5824c0-4.6846-2.54159-7.59504-6.63183-7.59504m39.20558 3.19886V88.2107h-5.56944v-6.5402l-2.96655 1.75344v4.78676h-3.22942v2.8069h3.22942v10.90863c0 4.68874 3.18856 5.39011 5.08863 5.39011 1.19179 0 2.21197-.2568 3.21172-.8063l.09943-.05523v-2.77928l-.2765.1422c-.86218.43906-1.56636.61993-2.4299.61993-1.83605 0-2.72683-.93747-2.72683-2.86626V91.0176zm24.62725 10.88682c-1.58134 1.8004-3.26893 2.67435-5.15809 2.67435-3.46642 0-6.18235-3.05541-6.18235-6.95855v-.07041c0-3.88243 2.64238-6.92265 6.01481-6.92265 2.3618 0 3.8587 1.30196 5.1254 2.71162l.14303.1574 1.9668-2.20907-.11578-.13116c-1.3784-1.55325-3.42965-3.33707-7.0854-3.33707-2.4762 0-4.77943 1.0355-6.48472 2.91873-1.67396 1.84595-2.59607 4.28973-2.59607 6.88261v.0718c0 2.57494.92211 5.00215 2.59607 6.8343 1.70529 1.86803 4.00852 2.89663 6.48473 2.89663 3.68571 0 5.79689-1.93846 7.22296-3.62701l.11578-.13669-1.91369-1.9067zm-41.18014-3.95726v2.09309c0 2.72957-2.4122 4.78815-5.61165 4.78815-2.86576 0-4.1706-1.79901-4.1706-3.471v-.0718c0-1.52286.84583-3.33844 4.87478-3.33844zm-4.73993-10.12856c-2.80856 0-4.80532.78284-6.3894 1.5491l-.1539.07457.8976 2.61083.1934-.09388c1.4247-.69172 3.03737-1.33234 5.18397-1.33234 3.1872 0 5.00826 1.48007 5.00826 4.90412h-5.1758c-4.83392 0-7.60433 2.13589-7.60433 5.8623v.07041c0 3.88795 3.352 5.92305 6.66452 5.92305 3.0401 0 4.9851-1.43313 6.11561-2.7986l-.0017 2.40788h2.83307V95.55722c0-2.36646-.61701-4.36152-1.83196-5.64968-1.30621-1.38619-3.2376-2.08895-5.73968-2.08895zM96.74939 86.4596c0-2.70334.68511-3.71675 2.79084-3.71675.81315 0 1.46557.15326 2.45987.45424l.18388.05523v-2.78204l-.0613-.02347c-.88397-.33688-1.72844-.47495-2.91751-.47495-1.60995 0-2.94476.51223-3.86006 1.48283-1.02153 1.08383-1.56227 2.7641-1.56227 4.8627v1.8929h-3.22806v2.80689h3.22806v15.97844h2.96655V91.01718h5.56943v-2.8069h-5.56943zm103.93858 3.74851v-1.99782h2.96518v18.78533h-2.96518zm37.61101 7.74042v2.09309c0 2.73096-2.41219 4.78953-5.61301 4.78953-2.86576 0-4.1706-1.80039-4.1706-3.47238v-.07179c0-1.52287.84583-3.33845 4.87478-3.33845zm-4.73994-10.12994c-2.8099 0-4.80667.78284-6.39074 1.5491l-.15527.07457.9003 2.61083.19206-.0925c1.4247-.6931 3.03874-1.33372 5.18397-1.33372 3.18856 0 5.00962 1.48145 5.00962 4.9055h-5.17715c-4.83393 0-7.6057 2.13589-7.6057 5.8623v.07042c0 3.88933 3.35337 5.92443 6.66724 5.92443 3.0401 0 4.98375-1.43313 6.11561-2.79998l-.0017 2.40926h2.83307V95.5586c0-2.36646-.61701-4.3629-1.83196-5.65106-1.3062-1.38619-3.2376-2.08895-5.73969-2.08895zm10.02648 1.93556h.37865c.11577-.00272.20975-.03175.28057-.0856.07222-.05385.10625-.12426.10625-.21263 0-.12011-.02999-.20434-.09399-.25404-.06261-.0497-.1757-.07455-.33642-.07455h-.33506zm0 .31479v.82978h-.34188v-2.08619h.66877c.24789 0 .43994.05385.57615.16154.1362.1077.2043.26233.2043.46805 0 .20157-.10215.35483-.30918.46114.19614.08284.29556.2499.29829.50256v.14911c0 .14083.0136.243.04087.30513v.03866h-.35141c-.0232-.05799-.03407-.1643-.03407-.3148 0-.15186-.00255-.2416-.0085-.26922-.02592-.1574-.13076-.24024-.31736-.24576zm-1.08556-.18639c0 .28166.06406.5426.19341.78284.1294.23885.3051.428.52712.5633.22338.1367.4631.20296.72188.20296.26016 0 .50124-.06765.72461-.2071.22338-.13806.39773-.32583.5244-.5633.12666-.23748.19068-.49704.19068-.7787 0-.2789-.06397-.53708-.19069-.77455-.12666-.2361-.301-.42249-.52439-.55917-.22337-.13669-.46445-.20434-.7246-.20434-.2588 0-.49988.06627-.72325.20158-.22202.1353-.39909.3217-.52712.56055-.12803.24023-.19205.49842-.19205.77593zm-.27922.00136c0-.33136.0763-.63787.22746-.9209.14983-.28304.35958-.5067.62655-.66963.26832-.16292.55707-.24437.86762-.24437s.59795.08145.8649.24437c.26697.16292.47536.38659.62655.66963.15119.28303.2261.58954.2261.9209 0 .32307-.07222.62544-.21793.9071-.14438.28165-.35141.50808-.61837.67928-.26832.1712-.56117.2568-.88125.2568-.31872 0-.61156-.08421-.87852-.25404-.26833-.16982-.47536-.39625-.62246-.6779-.1471-.28166-.22065-.58402-.22065-.91124z" fill="#373737"/><path d="M64.92811 126.25985l-3.52735 13.57163h-2.03255l-2.85287-11.26564-2.78907 11.26564H51.7393l-3.59115-13.57163h1.85026l2.85287 11.28387 2.8073-11.28387h1.83203l2.83464 11.39324 2.83464-11.39324zm10.29039 8.48569q0 2.48828-1.27605 3.92839-1.27604 1.44011-3.41797 1.44011-2.16016 0-3.4362-1.44011-1.26693-1.44011-1.26693-3.92839 0-2.48829 1.26693-3.92839 1.27604-1.44923 3.4362-1.44923 2.14193 0 3.41798 1.44923 1.27604 1.4401 1.27604 3.92839zm-1.76823 0q0-1.97787-.77475-2.9349-.77474-.96615-2.15104-.96615-1.39453 0-2.16927.96615-.76563.95703-.76563 2.9349 0 1.91406.77474 2.90755.77474.98438 2.16016.98438 1.36719 0 2.14193-.97526.78386-.98438.78386-2.91667zm10.77345-3.22657h-.09115q-.3828-.0912-.7474-.12761-.35546-.0456-.84765-.0456-.79297 0-1.53125.35547-.73829.34636-1.42188.90235v7.22787h-1.71355v-10.181h1.71355v1.50391q1.02083-.82032 1.79558-1.15756.78385-.34635 1.59505-.34635.44662 0 .64714.0273.20052.0182.60156.082zm10.8555 8.31251h-2.26043l-4.08334-4.45704-1.11198 1.0573v3.39974h-1.71355v-14.18231h1.71355v9.09637l4.94923-5.09506h2.16016l-4.73048 4.70313zm7.28256-12.52346h-.0911q-.28255-.082-.73828-.16406-.45573-.0911-.80209-.0911-1.10286 0-1.60417.49218-.49219.48308-.49219 1.75912v.34636h3.08985v1.4401h-3.03516v8.7409H96.9751v-8.7409h-1.15756v-1.4401h1.15756v-.33724q0-1.81381.90234-2.77996.90235-.97526 2.60678-.97526.57422 0 1.02995.0547.46484.0547.84766.1276zm2.81641 12.52346h-1.71355v-14.18231h1.71355zm12.06773-5.08594q0 2.48828-1.27605 3.92839-1.27604 1.44011-3.41797 1.44011-2.16016 0-3.4362-1.44011-1.26693-1.44011-1.26693-3.92839 0-2.48829 1.26693-3.92839 1.27604-1.44923 3.4362-1.44923 2.14193 0 3.41797 1.44923 1.27605 1.4401 1.27605 3.92839zm-1.76823 0q0-1.97787-.77474-2.9349-.77475-.96615-2.15105-.96615-1.39453 0-2.16927.96615-.76563.95703-.76563 2.9349 0 1.91406.77474 2.90755.77474.98438 2.16016.98438 1.36719 0 2.14193-.97526.78386-.98438.78386-2.91667zm17.22659-5.09506l-2.65235 10.181h-1.58594l-2.61589-7.84767-2.59766 7.84767h-1.57682l-2.6797-10.181h1.78646l1.8685 7.88413 2.54297-7.88413h1.41276l2.60678 7.88413 1.76823-7.88413zm19.28649-1.83204q.82943.91146 1.26693 2.23308.44662 1.32162.44662 2.9987 0 1.67709-.45573 3.00782-.44662 1.32162-1.25782 2.20573-.83854.92058-1.98698 1.38542-1.13933.46485-2.60678.46485-1.43099 0-2.60677-.47396-1.16667-.47396-1.98699-1.37631-.82031-.90234-1.26693-2.21484-.4375-1.31251-.4375-2.99871 0-1.65886.4375-2.97136.43751-1.32161 1.27605-2.26042.80208-.89323 1.98698-1.36719 1.19401-.47396 2.59766-.47396 1.45834 0 2.61589.48308 1.16667.47396 1.97787 1.35807zm-.16406 5.23178q0-2.64323-1.1849-4.07422-1.1849-1.44011-3.23568-1.44011-2.06902 0-3.25392 1.44011-1.17578 1.43099-1.17578 4.07422 0 2.67058 1.20313 4.09246 1.20313 1.41276 3.22657 1.41276t3.21745-1.41276q1.20313-1.42188 1.20313-4.09246zm10.95575-1.53125h-.0911q-.38282-.0912-.7474-.12761-.35547-.0456-.84766-.0456-.79297 0-1.53125.35547-.73828.34636-1.42188.90235v7.22787h-1.71354v-10.181h1.71354v1.50391q1.02084-.82032 1.79558-1.15756.78385-.34635 1.59505-.34635.44662 0 .64714.0273.20052.0182.60156.082zm9.14194 7.67449q-.85677.41016-1.63151.63802-.76563.22787-1.63151.22787-1.10287 0-2.02345-.31901-.92057-.32813-1.57682-.98438-.66537-.65625-1.02995-1.65886-.36458-1.0026-.36458-2.34245 0-2.4974 1.36719-3.91928 1.3763-1.42187 3.62761-1.42187.875 0 1.71354.24609.84766.2461 1.54948.60156v1.90496h-.0911q-.78386-.61068-1.6224-.93881-.82943-.32812-1.6224-.32812-1.45834 0-2.30599.98437-.83855.97527-.83855 2.8711 0 1.84115.82032 2.83464.82942.98438 2.32422.98438.51953 0 1.05729-.13672t.96615-.35547q.3737-.19141.70182-.40104.32813-.21875.51954-.3737h.0911zm10.70966.63802h-1.71354v-5.79688q0-.70183-.082-1.3125-.082-.6198-.30078-.96615-.22786-.38281-.65625-.56511-.42839-.1914-1.11198-.1914-.70182 0-1.46745.34635-.76563.34636-1.46745.88412v7.60157h-1.71355v-14.18231h1.71355v5.13152q.80208-.66537 1.65886-1.03907.85677-.3737 1.75911-.3737 1.64975 0 2.51563.9935.86589.99349.86589 2.86198zm11.82163-4.91277h-7.50132q0 .93881.28256 1.64063.28255.69271.77474 1.13933.47396.4375 1.12109.65625.65625.21875 1.44011.21875 1.03906 0 2.08724-.41016 1.0573-.41927 1.50391-.82031h.0911v1.86849q-.86589.36459-1.76823.61068-.90235.24609-1.89584.24609-2.53386 0-3.95574-1.36719-1.42187-1.3763-1.42187-3.90104 0-2.49741 1.35807-3.96486 1.36719-1.46745 3.59115-1.46745 2.0599 0 3.17188 1.20313 1.1211 1.20313 1.1211 3.41798zm-1.66797-1.3125q-.009-1.34896-.6836-2.08724-.66536-.73828-2.03255-.73828-1.37631 0-2.19662.8112-.8112.8112-.92058 2.01432zm11.53908 3.29037q0 1.39454-1.15755 2.28777-1.14844.89323-3.14454.89323-1.13021 0-2.07813-.26432-.9388-.27344-1.57682-.59245v-1.92318h.0911q.8112.61067 1.80469.97526.99349.35547 1.90495.35547 1.13021 0 1.76824-.36459.63802-.36458.63802-1.14844 0-.60156-.34636-.91146-.34635-.30989-1.33073-.52864-.36458-.082-.95703-.19141-.58334-.10938-1.06641-.23698-1.33985-.35547-1.90495-1.03906-.55599-.69271-.55599-1.69532 0-.62891.25521-1.1849.26432-.55599.79297-.99349.51042-.42838 1.29427-.67448.79297-.25521 1.76823-.25521.91146 0 1.84115.22787.93881.21875 1.5586.53776v1.83203h-.0912q-.65625-.48307-1.59505-.8112-.93881-.33724-1.84115-.33724-.9388 0-1.58594.36459-.64714.35547-.64714 1.06641 0 .6289.39193.94791.38281.31901 1.23959.51954.47395.10937 1.05729.21875.59245.10937.98438.20052 1.19401.27344 1.84115.9388.64713.67448.64713 1.78646zm7.7383 2.84376q-.48307.1276-1.05729.20963-.56511.082-1.01172.082-1.5586 0-2.3698-.83855-.8112-.83854-.8112-2.6888v-5.41408h-1.15755v-1.4401h1.15755v-2.92579h1.71354v2.92579h3.53647v1.4401h-3.53647v4.63933q0 .80209.0365 1.25782.0365.44661.25521.83854.20052.36459.54688.53776.35547.16407 1.07552.16407.41927 0 .875-.11849.45573-.12761.65625-.20964h.0911zm8.42189-8.22137h-.0911q-.38282-.0912-.7474-.12761-.35547-.0456-.84766-.0456-.79297 0-1.53125.35547-.73828.34636-1.42188.90235v7.22787h-1.71354v-10.181h1.71354v1.50391q1.02084-.82032 1.79558-1.15756.78385-.34635 1.59505-.34635.44662 0 .64714.0273.20052.0182.60156.082zm9.19663 8.31251h-1.70443v-1.08463q-.22787.15495-.61979.4375-.38282.27344-.7474.4375-.42839.20963-.98438.34635-.55599.14584-1.30339.14584-1.3763 0-2.33333-.91146-.95704-.91146-.95704-2.32423 0-1.15755.49219-1.86849.50131-.72005 1.42188-1.13021.92969-.41016 2.23308-.55599 1.30338-.14583 2.79818-.21875v-.26432q0-.58334-.20964-.96615-.20052-.38281-.58333-.60156-.36458-.20964-.875-.28256-.51042-.0729-1.06641-.0729-.67448 0-1.50391.18229-.82943.17318-1.71354.51042h-.0911v-1.74089q.5013-.13672 1.44922-.30079.94792-.16406 1.86849-.16406 1.07553 0 1.8685.18229.80208.17318 1.38542.60157.57422.41927.875 1.08464.30078.66536.30078 1.64974zm-1.70443-2.50651v-2.83464q-.78386.0456-1.85026.13672-1.0573.0911-1.67709.26432-.73828.20964-1.19401.65625-.45573.4375-.45573 1.21224 0 .87501.52864 1.32162.52865.4375 1.61329.4375.90234 0 1.64974-.34635.7474-.35547 1.38542-.84766zm10.29038 2.41537q-.48308.1276-1.0573.20963-.5651.082-1.01172.082-1.55859 0-2.36979-.83855-.8112-.83854-.8112-2.6888v-5.41408H231.862v-1.4401h1.15756v-2.92579h1.71354v2.92579h3.53647v1.4401h-3.53647v4.63933q0 .80209.0365 1.25782.0365.44661.25521.83854.20052.36459.54688.53776.35547.16407 1.07552.16407.41927 0 .875-.11849.45573-.12761.65625-.20964h.0911zm3.91016-11.79429h-1.93229v-1.77735h1.93229zm-.10937 11.88543h-1.71355v-10.181h1.71355zm12.06773-5.08594q0 2.48828-1.27605 3.92839-1.27604 1.44011-3.41797 1.44011-2.16016 0-3.4362-1.44011-1.26693-1.44011-1.26693-3.92839 0-2.48829 1.26693-3.92839 1.27604-1.44923 3.4362-1.44923 2.14193 0 3.41797 1.44923 1.27605 1.4401 1.27605 3.92839zm-1.76823 0q0-1.97787-.77474-2.9349-.77475-.96615-2.15105-.96615-1.39453 0-2.16928.96615-.76562.95703-.76562 2.9349 0 1.91406.77474 2.90755.77474.98438 2.16016.98438 1.36719 0 2.14193-.97526.78386-.98438.78386-2.91667zm12.93362 5.08594h-1.71355v-5.79688q0-.70183-.082-1.3125-.082-.6198-.30078-.96615-.22786-.38281-.65625-.56511-.42839-.1914-1.11198-.1914-.70183 0-1.46745.34635-.76563.34636-1.46745.88412v7.60157h-1.71355v-10.181h1.71355v1.13021q.80208-.66537 1.65885-1.03907.85678-.3737 1.75912-.3737 1.64974 0 2.51563.9935.86589.99349.86589 2.86198z" fill="#000"/></g></svg>