<svg xmlns="http://www.w3.org/2000/svg" role="img" viewBox="38.34 -3.66 229.06 146.56"><title>Informatica Data Catalog logo</title><g fill="none" fill-rule="evenodd"><g><g><g><path fill="#ff4d00" d="m 170.51598,42.380356 -5.63937,-6.08873 -8.32225,-1.392818 -7.10701,4.721784 20.31142,11.513392 z" transform="translate(.3 1.032)"/><path fill="#ff7d00" d="M 186.63978,34.021146 152.87579,-0.2028049 169.75849,51.134558 Z" transform="translate(.3 1.032)"/><path fill="#001aff" d="m 175.39178,34.022583 -25.23189,-7.034524 -0.71183,12.633108 z" transform="translate(.3 1.032)"/><path fill="#e23400" d="m 139.894,42.262635 -8.2726,-5.44191 -12.50817,-2.797136 18.02702,18.273377 3.35782,-4.557924 z" transform="translate(.3 1.032)"/><path fill="#ff4d00" d="m 151.05026,1.6504055 -31.9376,32.3726085 20.78077,8.239047 z" transform="translate(.3 1.032)"/><path fill="#ff7d00" d="M 167.66268,53.261446 139.894,42.262635 l -2.75375,10.034331 15.73554,15.952011 z" transform="translate(.3 1.032)"/><path fill="#373737" d="M64.64078 81.086046l3.033298-1.792106v26.67035H64.64078zM200.56969 81.509419v-.713146h2.60272v2.75349h-2.60272z" transform="translate(.3 1.032)"/><g fill="#373737"><path d="M10.294902 9.8944625c-2.8631242 0-5.1347066 1.2317495-6.7634489 3.6643745v-3.202874h-3.489933v22.10975h3.489933V19.839462c0-3.861 2.4238763-6.556874 5.8945722-6.556874 3.3937477 0 5.4200567 2.357875 5.4200567 6.305v12.878125h3.491536v-13.67275c0-2.624376-.73101-4.8425-2.116082-6.41875-1.423547-1.623376-3.473903-2.4797505-5.926634-2.4797505M53.456411 21.4305v.0845c0 4.6215-3.129237 8.107125-7.276438 8.107125-4.102314 0-7.316515-3.59775-7.316515-8.191625v-.08287c0-4.645875 3.111603-8.14775 7.237964-8.14775 4.123154 0 7.354989 3.615625 7.354989 8.230625M46.179973 9.894625c-2.999386 0-5.771134 1.21875-7.805459 3.433625-1.986231 2.162875-3.079541 5.039125-3.079541 8.10225v.0845c0 6.422 4.746758 11.453 10.806449 11.453 2.999386 0 5.779149-1.21875 7.823092-3.433625 2.00066-2.166125 3.101985-5.044 3.101985-8.103875v-.08287c0-6.422-4.765995-11.453-10.846526-11.453M64.763345 15.212925V10.3558h-3.489933v22.10975h3.489933V23.6093c0-5.89225 3.08916-9.84425 7.869583-9.84425h.461691V9.98855L72.878201 9.9788c-3.37932-.147875-6.35466 1.792375-8.114856 5.234125M100.0713 9.8944625c-3.01862 0-5.363945 1.3341255-7.157806 4.0771255-1.340185-2.6325-3.663067-4.0771255-6.580696-4.0771255-3.279927 0-5.133103 1.7972505-6.369087 3.5798755v-3.118375h-3.489933v22.10975h3.489933V19.881712c0-3.823625 2.297232-6.599124 5.460134-6.599124 3.146871 0 5.025696 2.325374 5.025696 6.222124v12.961001h3.491536v-12.71075c0-1.971126.549861-3.631876 1.588665-4.798625.961855-1.079001 2.308453-1.67375 3.791314-1.67375 3.220614 0 5.065774 2.299375 5.065774 6.305v12.878125h3.48993V18.833587c0-5.513624-2.99137-8.9391245-7.80546-8.9391245M146.21505 13.659425V10.3558H139.66V2.658175l-3.49154 2.06375V10.3558h-3.80093v3.303625h3.80093V26.49855c0 5.5185 3.75284 6.344 5.98916 6.344 1.4027 0 2.60342-.30225 3.78009-.949l.11703-.065v-3.271125l-.32543.167375c-1.01476.51675-1.84356.729625-2.85992.729625-2.16097 0-3.20939-1.103375-3.20939-3.3735v-12.4215zM175.20057 26.472875c-1.86119 2.119-3.84743 3.147625-6.07091 3.147625-4.07988 0-7.27644-3.596125-7.27644-8.19v-.08287c0-4.5695 3.11-8.14775 7.07925-8.14775 2.77977 0 4.54157 1.532375 6.03244 3.1915l.16833.18525 2.31486-2.6-.13626-.154375c-1.62233-1.828125-4.03659-3.927625-8.33929-3.927625-2.91442 0-5.62525 1.21875-7.63232 3.43525-1.9702 2.172625-3.0555 5.048875-3.0555 8.100625v.0845c0 3.030625 1.0853 5.887375 3.0555 8.04375 2.00707 2.198625 4.7179 3.40925 7.63232 3.40925 4.33797 0 6.82276-2.2815 8.5012-4.268875l.13627-.160875-2.25235-2.244125zM126.73282 21.8153v2.4635c0 3.212625-2.83908 5.6355-6.60474 5.6355-3.37291 0-4.90867-2.117375-4.90867-4.08525v-.0845c0-1.792375.99552-3.92925 5.73747-3.92925zm-5.57876-11.921c-3.30558 0-5.65571.921375-7.52011 1.82325l-.18115.08775 1.05644 3.072875.22764-.1105c1.67683-.814125 3.57489-1.568125 6.10137-1.568125 3.75124 0 5.89457 1.742 5.89457 5.772h-6.09175c-5.68938 0-8.95007 2.513875-8.95007 6.89975v.08287c0 4.576 3.94521 6.97125 7.84393 6.97125 3.57811 0 5.86732-1.68675 7.19789-3.293875l-.002 2.834h3.33443v-13.46312c0-2.78525-.7262-5.133375-2.15616-6.6495-1.53737-1.6315-3.81055-2.458625-6.75543-2.458625zM28.2077 8.2948125c0-3.18175.806356-4.3745 3.284737-4.3745.957046 0 1.724928.180375 2.895186.534625l.216417.065V1.2455625L34.5319 1.2179375c-1.040407-.3965-2.034325-.559-3.433825-.559-1.894855 0-3.465886.602875-4.543165 1.74525-1.202319 1.275625-1.838747 3.25325-1.838747 5.72325v2.2278755h-3.79933v3.303625h3.79933V32.465063H28.2077V13.658938h6.555046V10.355313H28.2077zM150.54019 12.706687v-2.351374h3.48993v22.10975h-3.48993zM194.80719 21.816925v2.4635c0 3.21425-2.83907 5.637125-6.60634 5.637125-3.37291 0-4.90867-2.119-4.90867-4.086875v-.0845c0-1.792375.99552-3.92925 5.73747-3.92925zM189.22843 9.8943c-3.30718 0-5.65731.921375-7.52171 1.82325l-.18275.08775 1.05964 3.072875.22604-.108875c1.67683-.81575 3.5765-1.56975 6.10137-1.56975 3.75284 0 5.89617 1.743625 5.89617 5.773625h-6.09335c-5.68938 0-8.95167 2.513875-8.95167 6.89975v.08288c0 4.577625 3.94681 6.972875 7.84714 6.972875 3.5781 0 5.86571-1.68675 7.19788-3.2955l-.002 2.835625h3.33443V19.00405c0-2.78525-.7262-5.135-2.15616-6.651125-1.53736-1.6315-3.81055-2.458625-6.75543-2.458625zM201.02928 12.172387h.44566c.13626-.0032.24687-.03737.33023-.100749.085-.06338.12505-.146251.12505-.25025 0-.141375-.0353-.240501-.11062-.299-.0737-.0585-.2068-.08775-.39596-.08775h-.39436zm0 .370501v.976624h-.40238v-2.455375h.78712c.29176 0 .5178.06338.67811.190125.16031.126751.24046.30875.24046.550876 0 .23725-.12023.417625-.3639.54275.23085.0975.34787.294125.35108.5915v.1755c0 .165749.016.286.0481.359125v.0455h-.4136c-.0273-.06825-.0401-.193374-.0401-.370499 0-.17875-.003-.284375-.01-.316875-.0305-.18525-.1539-.28275-.37352-.28925zm-1.27767-.219375c0 .3315.0754.638625.22764.921375.1523.281125.35909.503749.6204.662999.26291.160876.54505.238875.84964.238875.30619 0 .58994-.07963.85284-.243749.26291-.162501.46811-.383501.61719-.663.14909-.2795.22444-.585.22444-.9165 0-.32825-.0753-.632126-.22444-.911625-.14908-.277875-.35428-.49725-.61719-.658125-.2629-.160875-.54665-.2405-.85284-.2405-.30459 0-.58834.078-.85124.237249-.26131.15925-.46971.378626-.6204.659751-.15069.28275-.22604.586625-.22604.91325zm-.32863.0016c0-.39.0898-.75075.26771-1.083875.17635-.333125.42322-.596376.73743-.788125.31581-.19175.65566-.287625 1.02117-.287625.3655 0 .70376.09587 1.01796.287625.31421.191749.55948.455.73742.788125.17795.333125.26612.693875.26612 1.083875 0 .38025-.085.736125-.2565 1.067625-.16993.3315-.4136.598-.7278.7995-.31581.201499-.66048.30225-1.0372.30225-.37513 0-.71979-.09912-1.034-.299-.31581-.199875-.55948-.466375-.73261-.797875-.17313-.3315-.2597-.687375-.2597-1.0725z" transform="translate(72.783 79.412) scale(.84964)"/></g><g><g fill="#000"><path d="M51.48603 133.70927h-8.941423v-13.57163h8.941423v1.60416h-7.136732v3.71876h7.136732v1.60417h-7.136732v5.04037h7.136732zM62.724331 133.70927h-1.713545v-5.79688q0-.70183-.08203-1.3125-.08203-.6198-.300782-.96615-.227865-.38281-.656251-.56511-.428386-.1914-1.111981-.1914-.701824 0-1.467451.34635-.765626.34636-1.46745.88412v7.60157h-1.713545v-10.181h1.713545v1.13021q.802085-.66537 1.658857-1.03907.856772-.3737 1.759118-.3737 1.649742 0 2.515629.9935.865887.99349.865887 2.86198zM71.310285 133.61813q-.483074.1276-1.057294.20963-.565105.082-1.01172.082-1.558597 0-2.369796-.83855-.8112-.83854-.8112-2.6888v-5.41408h-1.157554v-1.4401h1.157554v-2.92579h1.713545v2.92579h3.536465v1.4401H67.77382v4.63933q0 .80209.03646 1.25782.03646.44661.255209.83854.200521.36459.546876.53776.35547.16407 1.075523.16407.419272 0 .875002-.11849.45573-.12761.656251-.20964h.09115zM81.901448 128.79651h-7.501316q0 .9388.282553 1.64062.282552.69271.774741 1.13933.473959.4375 1.121096.65625.656251.21875 1.440106.21875 1.039065 0 2.087244-.41016 1.057293-.41927 1.503909-.82031h.09115v1.86849q-.865887.36459-1.768233.61068-.902345.24609-1.895836.24609-2.533859 0-3.955737-1.36719-1.421877-1.3763-1.421877-3.90104 0-2.49741 1.358075-3.96486 1.36719-1.46745 3.591152-1.46745 2.0599 0 3.171881 1.20313 1.121096 1.20313 1.121096 3.41798zM80.233476 127.484q-.0091-1.34896-.683595-2.08724-.665366-.73828-2.032556-.73828-1.376304 0-2.196618.8112-.8112.8112-.920575 2.01432zM90.851985 125.39676h-.09115q-.382813-.0911-.747397-.12761-.355469-.0456-.847658-.0456-.79297 0-1.531253.35547-.738282.34636-1.421877.90235v7.22787h-1.713545v-10.181h1.713545v1.50391q1.020835-.82032 1.795576-1.15756.783856-.34635 1.595055-.34635.446615 0 .647137.0273.200521.0182.601563.082zM101.42492 128.49572q0 1.23959-.35547 2.26954-.35547 1.02083-1.0026 1.73177-.601568.67448-1.421882 1.04818-.8112.36459-1.72266.36459-.79297 0-1.440107-.17318-.638022-.17318-1.303387-.53776v4.26563h-1.713545v-13.93622h1.713545v1.0664q.683595-.57422 1.531252-.95703.856773-.39193 1.82292-.39193 1.84115 0 2.861984 1.39454 1.02995 1.38542 1.02995 3.85547zm-1.768232.0456q0-1.84115-.628907-2.75261-.628908-.91146-1.932295-.91146-.738283 0-1.48568.31901-.747397.31901-1.430992.83854v5.76954q.729168.32813 1.2487.44662.528647.11849 1.194012.11849 1.430993 0 2.233077-.96615.802085-.96615.802085-2.86198zM110.44837 125.39676h-.0911q-.38281-.0911-.7474-.12761-.35547-.0456-.84766-.0456-.79297 0-1.53125.35547-.73828.34636-1.42188.90235v7.22787h-1.71354v-10.181h1.71354v1.50391q1.02084-.82032 1.79558-1.15756.78386-.34635 1.59505-.34635.44662 0 .64714.0273.20052.0182.60156.082zM113.90281 121.82384h-1.9323v-1.77735h1.9323zm-.10938 11.88543h-1.71354v-10.181h1.71354zM124.45752 130.77437q0 1.39454-1.15756 2.28777-1.14844.89323-3.14454.89323-1.13021 0-2.07812-.26432-.93881-.27344-1.57683-.59245v-1.92318h.0911q.8112.61067 1.80469.97526.99349.35547 1.90495.35547 1.13021 0 1.76823-.36459.63802-.36458.63802-1.14844 0-.60156-.34635-.91146-.34636-.30989-1.33073-.52864-.36459-.082-.95704-.19141-.58333-.10938-1.06641-.23698-1.33984-.35547-1.90495-1.03906-.55599-.69271-.55599-1.69532 0-.62891.25521-1.1849.26432-.55599.79297-.99349.51042-.42838 1.29427-.67448.79298-.25521 1.76824-.25521.91146 0 1.84115.22787.9388.21875 1.55859.53776v1.83203h-.0911q-.65625-.48307-1.59506-.8112-.9388-.33724-1.84115-.33724-.9388 0-1.58594.36459-.64713.35547-.64713 1.06641 0 .6289.39192.94791.38282.31902 1.23959.51954.47396.10937 1.05729.21875.59245.10937.98438.20052 1.19401.27344 1.84115.9388.64714.67448.64714 1.78646zM135.4315 128.79651h-7.50132q0 .9388.28255 1.64062.28256.69271.77474 1.13933.47396.4375 1.1211.65625.65625.21875 1.44011.21875 1.03906 0 2.08724-.41016 1.05729-.41927 1.50391-.82031h.0911v1.86849q-.86589.36459-1.76824.61068-.90234.24609-1.89583.24609-2.53386 0-3.95574-1.36719-1.42188-1.3763-1.42188-3.90104 0-2.49741 1.35808-3.96486 1.36719-1.46745 3.59115-1.46745 2.0599 0 3.17188 1.20313 1.1211 1.20313 1.1211 3.41798zm-1.66798-1.31251q-.009-1.34896-.68359-2.08724-.66537-.73828-2.03256-.73828-1.3763 0-2.19661.8112-.8112.8112-.92058 2.01432zM156.19455 126.93713q0 1.85026-.8112 3.35417-.80208 1.50391-2.14193 2.33334-.92969.57422-2.07813.82943-1.13932.2552-3.00782.2552h-3.42709v-13.57163h3.39064q1.98698 0 3.15365.29166 1.17578.28255 1.98698.78386 1.38542.86588 2.16016 2.30599.77474 1.44011.77474 3.41798zm-1.88672-.0273q0-1.59505-.55599-2.6888-.55599-1.09376-1.65886-1.72266-.80208-.45573-1.70443-.62891-.90234-.18229-2.16016-.18229h-1.69532v10.47267h1.69532q1.30339 0 2.26954-.1914.97526-.19141 1.78646-.71094 1.01172-.64714 1.51302-1.70443.51042-1.0573.51042-2.64324zM166.88598 133.70927h-1.70443v-1.08463q-.22786.15495-.61979.4375-.38282.27344-.7474.4375-.42839.20963-.98438.34635-.55599.14584-1.30338.14584-1.37631 0-2.33334-.91146-.95703-.91146-.95703-2.32423 0-1.15755.49218-1.86849.50131-.72005 1.42188-1.13021.92969-.41016 2.23308-.55599 1.30339-.14583 2.79818-.21875v-.26432q0-.58334-.20964-.96615-.20052-.38281-.58333-.60156-.36458-.20964-.875-.28256-.51042-.0729-1.06641-.0729-.67448 0-1.50391.18229-.82943.17318-1.71354.51042h-.0911v-1.74089q.5013-.13672 1.44922-.30079.94792-.16406 1.8685-.16406 1.07552 0 1.86849.18229.80208.17318 1.38542.60157.57422.41927.875 1.08464.30078.66536.30078 1.64974zm-1.70443-2.50651v-2.83464q-.78385.0456-1.85026.13672-1.0573.0911-1.67709.26432-.73828.20964-1.19401.65625-.45573.4375-.45573 1.21224 0 .87501.52864 1.32162.52865.4375 1.61329.4375.90234 0 1.64974-.34635.7474-.35547 1.38542-.84766zM175.47193 133.61813q-.48308.1276-1.05729.20963-.56511.082-1.01173.082-1.55859 0-2.36979-.83855-.8112-.83854-.8112-2.6888v-5.41408h-1.15755v-1.4401h1.15755v-2.92579h1.71354v2.92579h3.53647v1.4401h-3.53647v4.63933q0 .80209.0365 1.25782.0365.44661.25521.83854.20052.36459.54688.53776.35547.16407 1.07552.16407.41927 0 .875-.11849.45573-.12761.65625-.20964h.0911zM185.45242 133.70927h-1.70443v-1.08463q-.22787.15495-.6198.4375-.38281.27344-.74739.4375-.42839.20963-.98438.34635-.55599.14584-1.30339.14584-1.3763 0-2.33333-.91146-.95704-.91146-.95704-2.32423 0-1.15755.49219-1.86849.5013-.72005 1.42188-1.13021.92969-.41016 2.23308-.55599 1.30338-.14583 2.79818-.21875v-.26432q0-.58334-.20964-.96615-.20052-.38281-.58333-.60156-.36459-.20964-.875-.28256-.51042-.0729-1.06641-.0729-.67448 0-1.50391.18229-.82943.17318-1.71355.51042h-.0911v-1.74089q.5013-.13672 1.44922-.30079.94792-.16406 1.86849-.16406 1.07552 0 1.86849.18229.80209.17318 1.38542.60157.57422.41927.87501 1.08464.30078.66536.30078 1.64974zm-1.70443-2.50651v-2.83464q-.78386.0456-1.85027.13672-1.05729.0911-1.67708.26432-.73829.20964-1.19402.65625-.45573.4375-.45573 1.21224 0 .87501.52865 1.32162.52865.4375 1.61329.4375.90234 0 1.64974-.34635.7474-.35547 1.38542-.84766zM205.93292 132.7249q-.5013.21875-.91146.41015-.40104.19141-1.05729.40105-.55599.17317-1.21224.29166-.64714.12761-1.431.12761-1.47656 0-2.6888-.41016-1.20313-.41927-2.09636-1.30339-.875-.86588-1.36719-2.19661-.49219-1.33985-.49219-3.10808 0-1.67709.47396-2.99871.47396-1.32161 1.36719-2.23307.86589-.88412 2.08724-1.34896 1.23047-.46485 2.72527-.46485 1.09375 0 2.17839.26432 1.09375.26433 2.42448.92969v2.14193h-.13672q-1.12109-.9388-2.22396-1.36719-1.10287-.42838-2.36068-.42838-1.02995 0-1.85938.33724-.82031.32812-1.46745 1.02995-.62891.68359-.98438 1.73177-.34635 1.03907-.34635 2.40626 0 1.43099.38281 2.46094.39193 1.02995 1.00261 1.67708.63802.67449 1.48568 1.00261.85677.31901 1.80469.31901 1.30339 0 2.44271-.44661 1.13933-.44662 2.13282-1.33985h.1276zM216.25976 133.70927h-1.70443v-1.08463q-.22787.15495-.61979.4375-.38282.27344-.7474.4375-.42839.20963-.98438.34635-.55599.14584-1.30338.14584-1.37631 0-2.33334-.91146-.95704-.91146-.95704-2.32423 0-1.15755.49219-1.86849.50131-.72005 1.42188-1.13021.92969-.41016 2.23308-.55599 1.30339-.14583 2.79818-.21875v-.26432q0-.58334-.20964-.96615-.20052-.38281-.58333-.60156-.36458-.20964-.875-.28256-.51042-.0729-1.06641-.0729-.67448 0-1.50391.18229-.82943.17318-1.71354.51042h-.0911v-1.74089q.5013-.13672 1.44922-.30079.94792-.16406 1.86849-.16406 1.07553 0 1.8685.18229.80208.17318 1.38542.60157.57422.41927.875 1.08464.30078.66536.30078 1.64974zm-1.70443-2.50651v-2.83464q-.78386.0456-1.85026.13672-1.0573.0911-1.67709.26432-.73828.20964-1.19401.65625-.45573.4375-.45573 1.21224 0 .87501.52864 1.32162.52865.4375 1.61329.4375.90234 0 1.64974-.34635.7474-.35547 1.38542-.84766zM224.84572 133.61813q-.48307.1276-1.05729.20963-.56511.082-1.01172.082-1.5586 0-2.3698-.83855-.8112-.83854-.8112-2.6888v-5.41408h-1.15755v-1.4401h1.15755v-2.92579h1.71355v2.92579h3.53646v1.4401h-3.53646v4.63933q0 .80209.0365 1.25782.0365.44661.25521.83854.20052.36459.54687.53776.35547.16407 1.07552.16407.41928 0 .87501-.11849.45573-.12761.65625-.20964h.0911zM234.8262 133.70927h-1.70443v-1.08463q-.22787.15495-.6198.4375-.38281.27344-.74739.4375-.42839.20963-.98438.34635-.55599.14584-1.30339.14584-1.3763 0-2.33334-.91146-.95703-.91146-.95703-2.32423 0-1.15755.49219-1.86849.5013-.72005 1.42188-1.13021.92969-.41016 2.23307-.55599 1.30339-.14583 2.79819-.21875v-.26432q0-.58334-.20964-.96615-.20052-.38281-.58333-.60156-.36459-.20964-.87501-.28256-.51041-.0729-1.0664-.0729-.67448 0-1.50391.18229-.82943.17318-1.71355.51042h-.0911v-1.74089q.5013-.13672 1.44922-.30079.94792-.16406 1.86849-.16406 1.07552 0 1.86849.18229.80209.17318 1.38542.60157.57422.41927.87501 1.08464.30078.66536.30078 1.64974zm-1.70443-2.50651v-2.83464q-.78386.0456-1.85027.13672-1.05729.0911-1.67708.26432-.73829.20964-1.19402.65625-.45573.4375-.45573 1.21224 0 .87501.52865 1.32162.52865.4375 1.61328.4375.90235 0 1.64975-.34635.74739-.35547 1.38542-.84766zM239.85747 133.70927h-1.71355v-14.18231h1.71355zM251.9252 128.62333q0 2.48828-1.27605 3.92839-1.27604 1.44011-3.41797 1.44011-2.16016 0-3.43621-1.44011-1.26693-1.44011-1.26693-3.92839 0-2.48829 1.26693-3.92839 1.27605-1.44923 3.43621-1.44923 2.14193 0 3.41797 1.44923 1.27605 1.4401 1.27605 3.92839zm-1.76824 0q0-1.97787-.77474-2.9349-.77474-.96615-2.15104-.96615-1.39454 0-2.16928.96615-.76562.95703-.76562 2.9349 0 1.91406.77474 2.90755.77474.98438 2.16016.98438 1.36719 0 2.14193-.97526.78385-.98438.78385-2.91667zM262.83536 132.55172q0 2.58855-1.17578 3.80079-1.17578 1.21224-3.6185 1.21224-.8112 0-1.58594-.11849-.76562-.10937-1.51302-.31901v-1.75h.0911q.41927.16406 1.33073.40104.91146.24609 1.82292.24609.875 0 1.44922-.20963.57422-.20964.89323-.58334.31901-.35547.45573-.85677.13672-.5013.13672-1.1211v-.92968q-.77474.61979-1.48568.92968-.70183.30079-1.79558.30079-1.82292 0-2.89844-1.31251-1.06641-1.32161-1.06641-3.71875 0-1.31251.36459-2.26042.37369-.95704 1.01172-1.64975.59244-.64713 1.4401-1.0026.84766-.36459 1.6862-.36459.88412 0 1.47657.1823.60156.17317 1.26693.53776l.10937-.4375h1.60417zm-1.71354-1.64063v-5.55079q-.6836-.3099-1.27605-.4375-.58333-.13672-1.16666-.13672-1.41277 0-2.22397.94792-.8112.94792-.8112 2.75261 0 1.71354.60157 2.59766.60156.88412 1.99609.88412.7474 0 1.4948-.28256.75651-.29166 1.38542-.77474z" transform="translate(.3 1.032)"/></g></g></g></g></g></g></svg>