<svg xmlns="http://www.w3.org/2000/svg" role="img" viewBox="21.09 -0.53 138.32 99.19"><title>Information Builders Data Governance logo</title><g fill="#253873" transform="translate(21.434 -.57) scale(.77198)"><path d="M5.207 73.606V84.81H3.094V73.606zm3.809 3.265v1.281h.224c.32-.736 1.056-1.409 2.513-1.409 1.761 0 3.089 1.265 3.089 3.329v4.738h-2.017v-4.546c0-1.104-.641-1.761-1.793-1.761-1.296 0-1.985.801-1.985 2.209v4.098H7.031v-7.939zm8.738 0v-1.633c0-.928.672-1.632 1.601-1.632h2.081v1.729h-1.217c-.288 0-.448.16-.448.479v1.057h2.081V78.6h-2.081v6.211h-2.017V78.6h-2.017v-1.729zm8.883-.224c2.337 0 4.162 1.696 4.162 4.193s-1.825 4.193-4.162 4.193c-2.337 0-4.162-1.696-4.162-4.193s1.825-4.193 4.162-4.193zm0 6.595c1.281 0 2.145-.961 2.145-2.401s-.864-2.4-2.145-2.4c-1.28 0-2.145.96-2.145 2.4s.865 2.401 2.145 2.401zm7.459-5.219h.224c.304-.88.976-1.185 1.984-1.185h.769v1.825h-1.185c-1.024 0-1.761.544-1.761 1.665v4.481H32.11V76.87h1.985v1.153zm5.985-1.152v1.185h.224c.336-.769.992-1.312 2.097-1.312 1.024 0 1.777.544 2.113 1.345h.224c.352-.736.992-1.345 2.257-1.345 1.457 0 2.625 1.104 2.625 2.753v5.314h-2.017v-5.154c0-.736-.528-1.152-1.296-1.152-.833 0-1.441.48-1.441 1.473v4.834H42.85v-5.154c0-.736-.528-1.152-1.297-1.152-.832 0-1.44.48-1.44 1.473v4.834h-2.017v-7.939h1.985zm14.933-.224c2.161 0 3.569 1.232 3.569 3.089v5.074h-1.984v-1.12h-.224c-.256.528-.816 1.344-2.497 1.344-1.793 0-2.978-.96-2.978-2.48 0-1.265 1.104-2.145 2.625-2.305l3.041-.337v-.191c0-.753-.576-1.345-1.665-1.345-1.057 0-1.713.544-2.209 1.377l-1.633-1.057c.945-1.184 2.018-2.049 3.955-2.049zm-.64 6.723c1.409 0 2.193-.832 2.193-1.921v-.128l-2.433.288c-.752.096-1.12.368-1.12.832-.001.544.463.929 1.36.929zm6.93-6.499v-2.465h2.017v2.465h2.177V78.6H63.32v4.002c0 .32.16.48.448.48h1.28v1.729h-2.177c-.896 0-1.568-.641-1.568-1.537V78.6h-2.017v-1.729zm6.546-3.682c.8 0 1.424.561 1.424 1.377s-.624 1.377-1.424 1.377c-.8 0-1.425-.561-1.425-1.377s.624-1.377 1.425-1.377zm1.008 11.622h-2.017v-7.939h2.017zm5.474-8.164c2.337 0 4.162 1.696 4.162 4.193s-1.825 4.193-4.162 4.193c-2.337 0-4.162-1.696-4.162-4.193s1.825-4.193 4.162-4.193zm0 6.595c1.281 0 2.145-.961 2.145-2.401s-.864-2.4-2.145-2.4c-1.28 0-2.145.96-2.145 2.4s.864 2.401 2.145 2.401zm7.458-6.371v1.281h.224c.32-.736 1.056-1.409 2.513-1.409 1.761 0 3.089 1.265 3.089 3.329v4.738h-2.017v-4.546c0-1.104-.641-1.761-1.793-1.761-1.296 0-1.985.801-1.985 2.209v4.098h-2.017v-7.939zM35.232 88.606c1.937 0 3.313 1.088 3.313 3.009 0 1.345-.8 2.177-1.889 2.481v.191c1.088.305 1.889 1.137 1.889 2.497 0 1.856-1.393 3.025-3.313 3.025h-5.106V88.606zm-2.993 4.625h2.785c.896 0 1.505-.447 1.505-1.36 0-.912-.608-1.345-1.505-1.345h-2.785zm0 4.659h2.785c.896 0 1.505-.448 1.505-1.36 0-.912-.608-1.377-1.505-1.377h-2.785zm13.412 1.921v-1.28h-.224c-.32.736-1.056 1.408-2.513 1.408-1.761 0-3.089-1.265-3.089-3.329v-4.738h2.017v4.546c0 1.104.64 1.761 1.792 1.761 1.296 0 1.985-.8 1.985-2.209v-4.098h2.017v7.939zm4.786-11.622c.8 0 1.424.561 1.424 1.377s-.624 1.377-1.424 1.377c-.8 0-1.425-.561-1.425-1.377s.624-1.377 1.425-1.377zm1.008 11.622h-2.017v-7.939h2.017zm3.809 0h-2.017V88.606h2.017zm9.7 0h-1.985v-1.12h-.224c-.416.672-1.121 1.344-2.529 1.344-1.984 0-3.649-1.761-3.649-4.193 0-2.432 1.665-4.193 3.649-4.193 1.409 0 2.113.672 2.529 1.345h.192v-4.386h2.017zm-6.371-3.97c0 1.537.96 2.401 2.177 2.401 1.249 0 2.177-.896 2.177-2.401s-.928-2.4-2.177-2.4c-1.217-.001-2.177.864-2.177 2.4zm11.667-4.194c2.305 0 3.857 1.616 3.857 4.001v.785H68.33c.08 1.056.833 1.872 1.985 1.872 1.121 0 1.713-.624 1.985-1.185l1.648.961c-.544.832-1.473 1.952-3.601 1.952-2.369 0-4.082-1.792-4.082-4.257 0-2.4 1.649-4.129 3.985-4.129zm1.809 3.377c-.144-1.008-.784-1.648-1.825-1.648-1.136 0-1.729.672-1.889 1.648zm5.281-2.001h.224c.304-.88.976-1.185 1.984-1.185h.769v1.825h-1.185c-1.024 0-1.761.544-1.761 1.665v4.481h-2.017V91.87h1.985v1.153zm6.77-1.376c1.632 0 2.785.72 3.857 1.841L86.51 94.64c-.608-.721-1.409-1.36-2.465-1.36-.752 0-1.168.319-1.168.8 0 .576.592.721 1.424.816l.272.032c2.545.304 3.49.96 3.49 2.417 0 1.553-1.457 2.688-3.57 2.688-2.193 0-3.409-1.12-4.146-2.24l1.601-1.009c.496 1.041 1.569 1.585 2.593 1.585.816 0 1.568-.353 1.568-.977 0-.592-.816-.704-1.681-.801l-.272-.031c-2.225-.257-3.233-.977-3.233-2.449s1.347-2.464 3.187-2.464z"/><path fill-rule="evenodd" d="M42.666 27.117h11.32v42.68h-11.32z" clip-rule="evenodd"/><circle cx="47.962" cy="11.602" r="7.594" fill-rule="evenodd" clip-rule="evenodd"/><path fill-rule="evenodd" d="M162.525 27.117h11.32v42.68h-11.32z" clip-rule="evenodd"/><circle cx="167.822" cy="11.602" r="7.594" fill-rule="evenodd" clip-rule="evenodd"/><circle cx="107.973" cy="11.602" r="7.594" fill-rule="evenodd" clip-rule="evenodd"/><circle cx="107.504" cy="71.637" r="7.594" fill-rule="evenodd" clip-rule="evenodd"/><path d="M137.397 71.633c0 15.7-12.21 28.54-27.65 29.55v-11.84c8.9-.98 16.1-8.54 16.1-17.71 0-9.82-8.24-17.81-18.06-17.81-9.2 0-17.06 7.01-17.99 15.97h-11.68V3.513h11.45v44.78c5.02-3.93 11.35-6.27 18.22-6.27 16.35-.001 29.61 13.259 29.61 29.61z"/></g><path d="M43.4123 91.09852q0 1.3216-.57943 2.39583-.57292 1.07421-1.52994 1.66666-.66407.41015-1.48438.59244-.8138.1823-2.14843.1823h-2.4479v-9.694h2.42186q1.41927 0 2.2526.20834.83984.20182 1.41927.5599.98958.61848 1.54296 1.64713.55338 1.02864.55338 2.4414zm-1.34766-.01953q0-1.13932-.39713-1.92057-.39714-.78125-1.1849-1.23047-.57291-.32552-1.21744-.44921-.64453-.13021-1.54296-.13021h-1.21094v7.48045h1.21093q.931 0 1.6211-.13672.6966-.13672 1.27603-.50781.72266-.46224 1.08073-1.21745.36458-.7552.36458-1.88801zm8.98436 4.85675h-1.21745v-.77473q-.16276.11067-.4427.3125-.27344.1953-.53386.3125-.30599.14973-.70312.2474-.39714.10416-.93099.10416-.98307 0-1.66666-.65104-.6836-.65104-.6836-1.66015 0-.82682.35157-1.33464.35807-.51432 1.01562-.80729.66406-.29296 1.59505-.39713.93098-.10417 1.99869-.15625v-.1888q0-.41667-.14974-.6901-.14323-.27344-.41666-.4297-.26042-.14973-.625-.20181-.36459-.05208-.76172-.05208-.48177 0-1.07422.1302-.59244.1237-1.22395.36459h-.0651v-1.24349q.35807-.09766 1.03515-.21484.67708-.11719 1.33463-.11719.76823 0 1.33464.1302.57291.1237.98958.4297.41015.29947.625.77473.21484.47526.21484 1.17838zm-1.21745-1.79035v-2.02474q-.5599.03255-1.32161.09766-.7552.0651-1.19791.1888-.52735.14974-.85287.46875-.32552.3125-.32552.86588 0 .625.3776.94401.3776.3125 1.15235.3125.64453 0 1.17838-.2474.53385-.2539.98958-.60546zm7.35024 1.72525q-.34505.09115-.7552.14974-.40365.05859-.72266.05859-1.11328 0-1.6927-.59896-.57943-.59895-.57943-1.92056v-3.86718h-.82682v-1.02865h.82682V86.5738h1.22396v2.08984h2.52603v1.02864h-2.52603v3.3138q0 .57291.02604.89843.02604.31901.18229.59896.14323.26041.39062.38411.2539.11719.76823.11719.29948 0 .625-.08463.32552-.09115.46875-.14974h.0651zm7.12889.0651h-1.21745v-.77473q-.16275.11067-.4427.3125-.27344.1953-.53385.3125-.306.14973-.70313.2474-.39713.10416-.93098.10416-.98308 0-1.66667-.65104-.68359-.65104-.68359-1.66015 0-.82682.35156-1.33464.35807-.51432 1.01562-.80729.66407-.29296 1.59505-.39713.93099-.10417 1.9987-.15625v-.1888q0-.41667-.14974-.6901-.14323-.27344-.41667-.4297-.26041-.14973-.625-.20181-.36458-.05208-.76171-.05208-.48177 0-1.07422.1302-.59245.1237-1.22396.36459h-.0651v-1.24349q.35808-.09766 1.03516-.21484.67708-.11719 1.33463-.11719.76823 0 1.33463.1302.57292.1237.98958.4297.41016.29947.625.77473.21484.47526.21484 1.17838zm-1.21745-1.79035v-2.02474q-.55989.03255-1.3216.09766-.75521.0651-1.19792.1888-.52734.14974-.85286.46875-.32552.3125-.32552.86588 0 .625.3776.94401.3776.3125 1.15234.3125.64453 0 1.17839-.2474.53385-.2539.98958-.60546zm16.44528 1.07421q-.79427.36458-1.73828.63802-.9375.26693-1.8164.26693-1.13281 0-2.07682-.3125-.944-.3125-1.60807-.9375-.67057-.6315-1.03515-1.57552-.36459-.95052-.36459-2.22004 0-2.32422 1.35417-3.66536 1.36067-1.34765 3.73046-1.34765.82682 0 1.6862.20182.86587.19531 1.86197.67057v1.52995h-.1172q-.20181-.15625-.58593-.41016-.38411-.2539-.7552-.42318-.44922-.20182-1.02214-.33203-.5664-.13671-1.28906-.13671-1.6276 0-2.57811 1.04817-.94401 1.04166-.94401 2.82551 0 1.88151.98958 2.92968.98958 1.04167 2.6953 1.04167.625 0 1.24349-.1237.625-.1237 1.09375-.319v-2.3763h-2.59765v-1.13282h3.87369zm8.35284-2.91666q0 1.77734-.91146 2.80598-.91145 1.02865-2.4414 1.02865-1.54296 0-2.45442-1.02865-.90494-1.02864-.90494-2.80598t.90494-2.80598q.91146-1.03515 2.45442-1.03515 1.52995 0 2.4414 1.03515.91146 1.02864.91146 2.80598zm-1.26302 0q0-1.41276-.55338-2.09635-.55339-.6901-1.53646-.6901-.99609 0-1.54947.6901-.54688.6836-.54688 2.09635 0 1.36719.55339 2.07682.55338.70312 1.54296.70312.97656 0 1.52995-.69661.5599-.70312.5599-2.08333zm9.34894-3.63931l-2.9427 7.27212H91.8041l-2.92317-7.27212h1.32812l2.2526 5.78774 2.23307-5.78774zm7.57159 3.76301H98.1908q0 .67057.20183 1.17187.20182.4948.55338.8138.33854.3125.80078.46875.46875.15625 1.02864.15625.74219 0 1.49088-.29297.75521-.29948 1.07422-.58593h.0651v1.33463q-.61848.26041-1.26301.4362-.64453.17578-1.35417.17578-1.80989 0-2.82551-.97656-1.01562-.98308-1.01562-2.78646 0-1.78384.97005-2.83202.97656-1.04817 2.56509-1.04817 1.47135 0 2.26562.85937.80078.85937.80078 2.4414zm-1.1914-.9375q-.007-.96354-.48828-1.49088-.47526-.52734-1.45182-.52734-.98307 0-1.569.57942-.57943.57943-.65756 1.4388zm7.58461-1.49088h-.0651q-.27344-.0651-.53385-.09114-.25391-.03255-.60547-.03255-.5664 0-1.09375.2539-.52734.2474-1.01562.64454v5.16274h-1.22395v-7.27211h1.22395v1.07421q.72917-.58593 1.28255-.82682.55989-.2474 1.13932-.2474.31901 0 .46224.01954.14323.01302.42968.05859zm7.23306 5.93748h-1.22395v-4.1406q0-.50131-.0586-.9375-.0586-.44271-.21484-.6901-.16276-.27345-.46875-.40365-.30599-.13672-.79427-.13672-.5013 0-1.04817.2474-.54687.24739-1.04818.6315v5.42967h-1.22395v-7.27211h1.22395v.80729q.57292-.47526 1.1849-.74219.61198-.26692 1.2565-.26692 1.17839 0 1.79688.70963.61848.70963.61848 2.04426zm8.00779 0h-1.21744v-.77473q-.16276.11067-.44271.3125-.27343.1953-.53385.3125-.30599.14973-.70312.2474-.39714.10416-.93099.10416-.98307 0-1.66666-.65104-.6836-.65104-.6836-1.66015 0-.82682.35157-1.33464.35807-.51432 1.01562-.80729.66406-.29296 1.59505-.39713.93098-.10417 1.99869-.15625v-.1888q0-.41667-.14974-.6901-.14323-.27344-.41667-.4297-.26041-.14973-.62499-.20181-.36459-.05208-.76172-.05208-.48177 0-1.07422.1302-.59244.1237-1.22395.36459h-.0651v-1.24349q.35808-.09766 1.03516-.21484.67708-.11719 1.33463-.11719.76823 0 1.33463.1302.57292.1237.98958.4297.41016.29947.625.77473.21484.47526.21484 1.17838zm-1.21744-1.79035v-2.02474q-.5599.03255-1.32161.09766-.75521.0651-1.19792.1888-.52734.14974-.85286.46875-.32552.3125-.32552.86588 0 .625.37761.94401.3776.3125 1.15234.3125.64453 0 1.17838-.2474.53385-.2539.98958-.60546zm9.65492 1.79035h-1.22396v-4.1406q0-.50131-.0586-.9375-.0586-.44271-.21484-.6901-.16276-.27345-.46875-.40365-.30599-.13672-.79427-.13672-.5013 0-1.04817.2474-.54688.24739-1.04818.6315v5.42967h-1.22395v-7.27211h1.22395v.80729q.57292-.47526 1.18489-.74219.61198-.26692 1.25651-.26692 1.17838 0 1.79687.70963t.61849 2.04426zm7.73435-.45572q-.61197.29297-1.16536.45573-.54687.16275-1.16536.16275-.78776 0-1.44531-.22786-.65755-.23437-1.1263-.70312-.47526-.46875-.73567-1.1849-.26042-.71614-.26042-1.67317 0-1.78385.97656-2.79947.98307-1.01562 2.59114-1.01562.625 0 1.22396.17578.60546.17578 1.10676.42969v1.36067h-.0651q-.55989-.4362-1.15885-.67057-.59245-.23438-1.15885-.23438-1.04167 0-1.64713.70313-.59896.6966-.59896 2.05077 0 1.3151.58594 2.02474.59244.70312 1.66015.70312.37109 0 .7552-.09766.38412-.09766.69011-.2539.26692-.13672.5013-.28646.23437-.15625.37109-.26693h.0651zm7.65624-3.05338h-5.35806q0 .67057.20182 1.17187.20182.4948.55339.8138.33854.3125.80078.46875.46874.15625 1.02864.15625.74218 0 1.49088-.29297.75521-.29948 1.07422-.58593h.0651v1.33463q-.61849.26041-1.26302.4362-.64453.17578-1.35416.17578-1.80989 0-2.82551-.97656-1.01563-.98308-1.01563-2.78646 0-1.78384.97005-2.83202.97656-1.04817 2.5651-1.04817 1.47135 0 2.26562.85937.80078.85937.80078 2.4414zm-1.1914-.9375q-.007-.96354-.48828-1.49088-.47526-.52734-1.45182-.52734-.98307 0-1.56901.57942-.57943.57943-.65755 1.4388z"/></svg>