<svg xmlns="http://www.w3.org/2000/svg" role="img" viewBox="21.09 -0.53 138.32 99.94"><title>Information Builders MDM logo</title><g fill="#253873" transform="translate(21.434 -.57) scale(.77198)"><path d="M5.207 73.606V84.81H3.094V73.606zm3.809 3.265v1.281h.224c.32-.736 1.056-1.409 2.513-1.409 1.761 0 3.089 1.265 3.089 3.329v4.738h-2.017v-4.546c0-1.104-.641-1.761-1.793-1.761-1.296 0-1.985.801-1.985 2.209v4.098H7.031v-7.939zm8.738 0v-1.633c0-.928.672-1.632 1.601-1.632h2.081v1.729h-1.217c-.288 0-.448.16-.448.479v1.057h2.081V78.6h-2.081v6.211h-2.017V78.6h-2.017v-1.729zm8.883-.224c2.337 0 4.162 1.696 4.162 4.193s-1.825 4.193-4.162 4.193c-2.337 0-4.162-1.696-4.162-4.193s1.825-4.193 4.162-4.193zm0 6.595c1.281 0 2.145-.961 2.145-2.401s-.864-2.4-2.145-2.4c-1.28 0-2.145.96-2.145 2.4s.865 2.401 2.145 2.401zm7.459-5.219h.224c.304-.88.976-1.185 1.984-1.185h.769v1.825h-1.185c-1.024 0-1.761.544-1.761 1.665v4.481H32.11V76.87h1.985v1.153zm5.985-1.152v1.185h.224c.336-.769.992-1.312 2.097-1.312 1.024 0 1.777.544 2.113 1.345h.224c.352-.736.992-1.345 2.257-1.345 1.457 0 2.625 1.104 2.625 2.753v5.314h-2.017v-5.154c0-.736-.528-1.152-1.296-1.152-.833 0-1.441.48-1.441 1.473v4.834H42.85v-5.154c0-.736-.528-1.152-1.297-1.152-.832 0-1.44.48-1.44 1.473v4.834h-2.017v-7.939h1.985zm14.933-.224c2.161 0 3.569 1.232 3.569 3.089v5.074h-1.984v-1.12h-.224c-.256.528-.816 1.344-2.497 1.344-1.793 0-2.978-.96-2.978-2.48 0-1.265 1.104-2.145 2.625-2.305l3.041-.337v-.191c0-.753-.576-1.345-1.665-1.345-1.057 0-1.713.544-2.209 1.377l-1.633-1.057c.945-1.184 2.018-2.049 3.955-2.049zm-.64 6.723c1.409 0 2.193-.832 2.193-1.921v-.128l-2.433.288c-.752.096-1.12.368-1.12.832-.001.544.463.929 1.36.929zm6.93-6.499v-2.465h2.017v2.465h2.177V78.6H63.32v4.002c0 .32.16.48.448.48h1.28v1.729h-2.177c-.896 0-1.568-.641-1.568-1.537V78.6h-2.017v-1.729zm6.546-3.682c.8 0 1.424.561 1.424 1.377s-.624 1.377-1.424 1.377c-.8 0-1.425-.561-1.425-1.377s.624-1.377 1.425-1.377zm1.008 11.622h-2.017v-7.939h2.017zm5.474-8.164c2.337 0 4.162 1.696 4.162 4.193s-1.825 4.193-4.162 4.193c-2.337 0-4.162-1.696-4.162-4.193s1.825-4.193 4.162-4.193zm0 6.595c1.281 0 2.145-.961 2.145-2.401s-.864-2.4-2.145-2.4c-1.28 0-2.145.96-2.145 2.4s.864 2.401 2.145 2.401zm7.458-6.371v1.281h.224c.32-.736 1.056-1.409 2.513-1.409 1.761 0 3.089 1.265 3.089 3.329v4.738h-2.017v-4.546c0-1.104-.641-1.761-1.793-1.761-1.296 0-1.985.801-1.985 2.209v4.098h-2.017v-7.939zM35.232 88.606c1.937 0 3.313 1.088 3.313 3.009 0 1.345-.8 2.177-1.889 2.481v.191c1.088.305 1.889 1.137 1.889 2.497 0 1.856-1.393 3.025-3.313 3.025h-5.106V88.606zm-2.993 4.625h2.785c.896 0 1.505-.447 1.505-1.36 0-.912-.608-1.345-1.505-1.345h-2.785zm0 4.659h2.785c.896 0 1.505-.448 1.505-1.36 0-.912-.608-1.377-1.505-1.377h-2.785zm13.412 1.921v-1.28h-.224c-.32.736-1.056 1.408-2.513 1.408-1.761 0-3.089-1.265-3.089-3.329v-4.738h2.017v4.546c0 1.104.64 1.761 1.792 1.761 1.296 0 1.985-.8 1.985-2.209v-4.098h2.017v7.939zm4.786-11.622c.8 0 1.424.561 1.424 1.377s-.624 1.377-1.424 1.377c-.8 0-1.425-.561-1.425-1.377s.624-1.377 1.425-1.377zm1.008 11.622h-2.017v-7.939h2.017zm3.809 0h-2.017V88.606h2.017zm9.7 0h-1.985v-1.12h-.224c-.416.672-1.121 1.344-2.529 1.344-1.984 0-3.649-1.761-3.649-4.193 0-2.432 1.665-4.193 3.649-4.193 1.409 0 2.113.672 2.529 1.345h.192v-4.386h2.017zm-6.371-3.97c0 1.537.96 2.401 2.177 2.401 1.249 0 2.177-.896 2.177-2.401s-.928-2.4-2.177-2.4c-1.217-.001-2.177.864-2.177 2.4zm11.667-4.194c2.305 0 3.857 1.616 3.857 4.001v.785H68.33c.08 1.056.833 1.872 1.985 1.872 1.121 0 1.713-.624 1.985-1.185l1.648.961c-.544.832-1.473 1.952-3.601 1.952-2.369 0-4.082-1.792-4.082-4.257 0-2.4 1.649-4.129 3.985-4.129zm1.809 3.377c-.144-1.008-.784-1.648-1.825-1.648-1.136 0-1.729.672-1.889 1.648zm5.281-2.001h.224c.304-.88.976-1.185 1.984-1.185h.769v1.825h-1.185c-1.024 0-1.761.544-1.761 1.665v4.481h-2.017V91.87h1.985v1.153zm6.77-1.376c1.632 0 2.785.72 3.857 1.841L86.51 94.64c-.608-.721-1.409-1.36-2.465-1.36-.752 0-1.168.319-1.168.8 0 .576.592.721 1.424.816l.272.032c2.545.304 3.49.96 3.49 2.417 0 1.553-1.457 2.688-3.57 2.688-2.193 0-3.409-1.12-4.146-2.24l1.601-1.009c.496 1.041 1.569 1.585 2.593 1.585.816 0 1.568-.353 1.568-.977 0-.592-.816-.704-1.681-.801l-.272-.031c-2.225-.257-3.233-.977-3.233-2.449s1.347-2.464 3.187-2.464z"/><path fill-rule="evenodd" d="M42.666 27.117h11.32v42.68h-11.32z" clip-rule="evenodd"/><circle cx="47.962" cy="11.602" r="7.594" fill-rule="evenodd" clip-rule="evenodd"/><path fill-rule="evenodd" d="M162.525 27.117h11.32v42.68h-11.32z" clip-rule="evenodd"/><circle cx="167.822" cy="11.602" r="7.594" fill-rule="evenodd" clip-rule="evenodd"/><circle cx="107.973" cy="11.602" r="7.594" fill-rule="evenodd" clip-rule="evenodd"/><circle cx="107.504" cy="71.637" r="7.594" fill-rule="evenodd" clip-rule="evenodd"/><path d="M137.397 71.633c0 15.7-12.21 28.54-27.65 29.55v-11.84c8.9-.98 16.1-8.54 16.1-17.71 0-9.82-8.24-17.81-18.06-17.81-9.2 0-17.06 7.01-17.99 15.97h-11.68V3.513h11.45v44.78c5.02-3.93 11.35-6.27 18.22-6.27 16.35-.001 29.61 13.259 29.61 29.61z"/></g><path d="M59.61587 96.621h-1.28906v-8.35285l-2.6953 5.68358h-.76823l-2.67577-5.68358V96.621h-1.20443v-9.69398h1.75781l2.58463 5.39712 2.5-5.39712h1.79035zm8.15754 0h-1.21745v-.77474q-.16276.11067-.4427.3125-.27344.1953-.53386.3125-.30599.14973-.70312.2474-.39714.10416-.93099.10416-.98307 0-1.66666-.65104-.6836-.65104-.6836-1.66015 0-.82683.35157-1.33464.35807-.51432 1.01562-.80729.66406-.29296 1.59505-.39713.93099-.10417 1.9987-.15625v-.1888q0-.41667-.14975-.6901-.14323-.27344-.41666-.4297-.26042-.14973-.625-.20181-.36458-.05208-.76172-.05208-.48177 0-1.07422.1302-.59244.1237-1.22395.36459h-.0651v-1.24349q.35807-.09766 1.03515-.21484.67708-.11719 1.33463-.11719.76823 0 1.33464.1302.57291.1237.98958.4297.41015.29947.625.77473.21484.47526.21484 1.17838zm-1.21745-1.79037V92.8059q-.5599.03255-1.32161.09766-.7552.0651-1.19791.1888-.52735.14974-.85287.46875-.32552.3125-.32552.86588 0 .625.3776.94401.37761.3125 1.15235.3125.64453 0 1.17838-.2474.53385-.2539.98958-.60546zm8.76951-.30598q0 .99609-.82682 1.6341-.82031.63803-2.24609.63803-.80729 0-1.48437-.1888-.67057-.19532-1.1263-.42318v-1.3737h.0651q.57943.4362 1.28906.69662.70963.2539 1.36067.2539.8073 0 1.26302-.26041.45573-.26042.45573-.82031 0-.4297-.2474-.65104-.2474-.22136-.95051-.3776-.26042-.0586-.6836-.13673-.41666-.07813-.76171-.16927-.95703-.2539-1.36068-.74218-.39713-.4948-.39713-1.21094 0-.44921.18229-.84635.1888-.39713.5664-.70963.36459-.306.92448-.48177.5664-.1823 1.26302-.1823.65104 0 1.3151.16277.67057.15625 1.11328.38411v1.3086h-.0651q-.46875-.34506-1.13932-.57944-.67057-.24088-1.3151-.24088-.67057 0-1.13281.26042-.46224.2539-.46224.76171 0 .44922.27995.67709.27343.22786.88541.37109.33854.07812.7552.15625.42318.07813.70313.14323.85286.1953 1.3151.67057.46224.48177.46224 1.27604zm5.52733 2.03124q-.34505.09114-.7552.14974-.40365.05859-.72266.05859-1.11328 0-1.6927-.59896-.57943-.59895-.57943-1.92057v-3.86717H76.276v-1.02864h.82682v-2.08984h1.22396v2.08984h2.52603v1.02864h-2.52603v3.3138q0 .57291.02604.89843.02604.319.18229.59896.14323.26041.39062.38411.2539.11719.76823.11719.29948 0 .625-.08463.32552-.09114.46875-.14974h.0651zm7.56508-3.444h-5.35805q0 .67057.20182 1.17187.20182.4948.55338.8138.33854.3125.80078.46875.46875.15625 1.02864.15625.74219 0 1.49089-.29297.7552-.29948 1.07421-.58594h.0651v1.33464q-.61849.26041-1.26302.4362-.64453.17578-1.35416.17578-1.8099 0-2.82551-.97657-1.01563-.98306-1.01563-2.78645 0-1.78385.97005-2.83202.97656-1.04818 2.5651-1.04818 1.47135 0 2.26562.85938.80078.85937.80078 2.4414zm-1.1914-.9375q-.0065-.96354-.48828-1.49088-.47526-.52734-1.45182-.52734-.98307 0-1.569.57942-.57943.57943-.65756 1.4388zm7.58462-1.49088h-.0651q-.27344-.0651-.53386-.09115-.2539-.03255-.60546-.03255-.5664 0-1.09375.2539-.52734.2474-1.01562.64453V96.621h-1.22396v-7.27211h1.22396v1.07421q.72916-.58593 1.28255-.82682.55989-.2474 1.13932-.2474.319 0 .46224.01954.14322.01302.42968.05859zm14.12757 1.10026q0 1.3216-.57943 2.39582-.57291 1.07422-1.52994 1.66667-.66406.41015-1.48437.59244-.8138.1823-2.14844.1823h-2.44791v-9.694h2.42187q1.41927 0 2.2526.20834.83984.20182 1.41927.5599.98958.61848 1.54296 1.64713.55339 1.02864.55339 2.4414zm-1.34766-.01953q0-1.13932-.39713-1.92057-.39714-.78125-1.18489-1.23047-.57292-.32552-1.21745-.44921-.64453-.13021-1.54296-.13021h-1.21094v7.48045h1.21094q.93098 0 1.62109-.13672.69661-.13672 1.27603-.50781.72266-.46224 1.08073-1.21745.36458-.7552.36458-1.88801zm8.98435 4.85675h-1.21744v-.77473q-.16276.11067-.44271.3125-.27343.1953-.53385.3125-.30599.14973-.70312.2474-.39714.10416-.93099.10416-.98307 0-1.66666-.65104t-.68359-1.66015q0-.82683.35156-1.33464.35807-.51432 1.01562-.80729.66406-.29296 1.59505-.39713.93098-.10417 1.99869-.15625v-.1888q0-.41667-.14974-.6901-.14323-.27344-.41666-.4297-.26042-.14973-.625-.20181-.36459-.05208-.76172-.05208-.48177 0-1.07422.1302-.59244.1237-1.22395.36459h-.0651v-1.24349q.35808-.09766 1.03516-.21484.67708-.11719 1.33463-.11719.76823 0 1.33463.1302.57292.1237.98958.4297.41016.29947.625.77473.21484.47526.21484 1.17838zm-1.21744-1.79036V92.8059q-.55989.03255-1.32161.09766-.75521.0651-1.19791.1888-.52735.14974-.85287.46875-.32552.3125-.32552.86588 0 .625.37761.94401.3776.3125 1.15234.3125.64453 0 1.17838-.2474.53385-.2539.98958-.60546zm7.35025 1.72526q-.34505.09114-.75521.14974-.40364.05859-.72265.05859-1.11328 0-1.69271-.59896-.57942-.59895-.57942-1.92057v-3.86717h-.82682v-1.02865h.82682v-2.08983h1.22395v2.08983h2.52604v1.02865h-2.52604v3.3138q0 .5729.026.89843.026.319.18229.59895.14323.26042.39063.38412.2539.11718.76823.11718.29947 0 .62499-.08463.32552-.09114.46875-.14973h.0651zm7.12888.0651h-1.21744v-.77473q-.16276.11067-.44271.3125-.27344.1953-.53385.3125-.30599.14973-.70312.2474-.39714.10416-.93099.10416-.98307 0-1.66666-.65104-.6836-.65104-.6836-1.66015 0-.82683.35156-1.33464.35808-.51432 1.01563-.80729.66406-.29296 1.59505-.39713.93098-.10417 1.99869-.15625v-.1888q0-.41667-.14974-.6901-.14323-.27344-.41667-.4297-.26041-.14973-.62499-.20181-.36459-.05208-.76172-.05208-.48177 0-1.07422.1302-.59244.1237-1.22395.36459h-.0651v-1.24349q.35807-.09766 1.03516-.21484.67708-.11719 1.33463-.11719.76823 0 1.33463.1302.57292.1237.98958.4297.41016.29947.625.77473.21484.47526.21484 1.17838zm-1.21744-1.79036V92.8059q-.5599.03255-1.32161.09766-.75521.0651-1.19792.1888-.52734.14974-.85286.46875-.32552.3125-.32552.86588 0 .625.3776.94401.37761.3125 1.15235.3125.64452 0 1.17838-.2474.53385-.2539.98958-.60546z"/></svg>