<svg xmlns="http://www.w3.org/2000/svg" role="img" viewBox="43.25 -2.75 221.00 133.75"><title>Informatica Master Data Management logo</title><g fill="none" fill-rule="evenodd"><path fill="#ff4d00" d="M172.18583 51.54703l-6.63736-7.16624-9.79501-1.6393-8.36472 5.55739 23.90588 13.55088z"/><path fill="#ff7d00" d="M191.16301 41.70851L151.4239 1.42804l19.87038 60.4224z"/><path fill="#001aff" d="M177.92448 41.7102l-29.6971-8.2794-.83781 14.86876z"/><path fill="#e23400" d="M136.14476 51.40848l-9.73658-6.40495-14.72171-3.29214 21.21721 21.50716 3.95205-5.36452z"/><path fill="#ff4d00" d="M149.27531 3.60921l-37.58951 38.1015 24.45829 9.69709z"/><path fill="#ff7d00" d="M168.82759 64.35372l-32.68283-12.94524-3.24108 11.81008 18.52022 18.77499z"/><path fill="#373737" d="M47.57418 97.10236l3.57009-2.10925v31.39013h-3.5701zM196.17995 82.0306v-.83935h3.06332v3.24077h-3.06332z"/><path d="M67.0999 103.81246c-2.86312 0-5.1347 1.23175-6.76345 3.66438v-3.20288h-3.48993v22.10975h3.48993v-12.62625c0-3.861 2.42388-6.55687 5.89458-6.55687 3.39374 0 5.42005 2.35787 5.42005 6.305v12.87812h3.49154v-13.67275c0-2.62437-.73101-4.8425-2.11608-6.41875-1.42355-1.62337-3.4739-2.47975-5.92664-2.47975m43.16151 11.53604v.0845c0 4.6215-3.12924 8.10713-7.27644 8.10713-4.10231 0-7.31651-3.59775-7.31651-8.19163v-.08287c0-4.64587 3.1116-8.14775 7.23796-8.14775 4.12316 0 7.355 3.61563 7.355 8.23063m-7.27645-11.53588c-2.99938 0-5.77113 1.21875-7.80546 3.43362-1.98623 2.16288-3.07954 5.03913-3.07954 8.10225v.0845c0 6.422 4.74676 11.453 10.80645 11.453 2.99939 0 5.77915-1.21875 7.8231-3.43362 2.00065-2.16613 3.10198-5.044 3.10198-8.10388v-.08287c0-6.422-4.766-11.453-10.84653-11.453m18.58337 5.3183v-4.85713h-3.48993v22.10975h3.48993v-8.85625c0-5.89225 3.08916-9.84425 7.86959-9.84425h.46169v-3.7765l-.21642-.00975c-3.37932-.14787-6.35466 1.79238-8.11486 5.23413m35.30796-5.31847c-3.01862 0-5.36395 1.33413-7.1578 4.07713-1.3402-2.6325-3.66307-4.07713-6.5807-4.07713-3.27993 0-5.1331 1.79725-6.36909 3.57988v-3.11838h-3.48993v22.10975h3.48993v-12.584c0-3.82362 2.29723-6.59912 5.46013-6.59912 3.14688 0 5.0257 2.32537 5.0257 6.22212v12.961h3.49154v-12.71075c0-1.97112.54986-3.63187 1.58866-4.79862.96186-1.079 2.30845-1.67375 3.79132-1.67375 3.22061 0 5.06577 2.29937 5.06577 6.305v12.87812h3.48993V112.7516c0-5.51363-2.99137-8.93913-7.80546-8.93913m46.14375 3.76497v-3.30363H196.465v-7.69762l-3.49154 2.06375v5.63387h-3.80093v3.30363h3.80093v12.83912c0 5.5185 3.75284 6.344 5.98916 6.344 1.4027 0 2.60342-.30225 3.78009-.949l.11703-.065v-3.27112l-.32543.16737c-1.01476.51675-1.84356.72963-2.85992.72963-2.16097 0-3.20939-1.10338-3.20939-3.3735v-12.4215zm28.98552 12.81345c-1.86119 2.119-3.84743 3.14762-6.07091 3.14762-4.07988 0-7.27644-3.59612-7.27644-8.19v-.08287c0-4.5695 3.11-8.14775 7.07925-8.14775 2.77977 0 4.54157 1.53238 6.03244 3.1915l.16833.18525 2.31486-2.6-.13626-.15437c-1.62233-1.82813-4.03659-3.92763-8.33929-3.92763-2.91442 0-5.62525 1.21875-7.63232 3.43525-1.9702 2.17263-3.0555 5.04888-3.0555 8.10063v.0845c0 3.03062 1.0853 5.88737 3.0555 8.04375 2.00707 2.19862 4.7179 3.40925 7.63232 3.40925 4.33797 0 6.82276-2.2815 8.5012-4.26888l.13627-.16087-2.25235-2.24413zm-48.46775-4.65758v2.4635c0 3.21263-2.83908 5.6355-6.60474 5.6355-3.37291 0-4.90867-2.11737-4.90867-4.08525v-.0845c0-1.79237.99552-3.92925 5.73747-3.92925zm-5.57876-11.921c-3.30558 0-5.65571.92138-7.52011 1.82325l-.18115.08775 1.05644 3.07288.22764-.1105c1.67683-.81413 3.57489-1.56813 6.10137-1.56813 3.75124 0 5.89457 1.742 5.89457 5.772h-6.09175c-5.68938 0-8.95007 2.51388-8.95007 6.89975v.08287c0 4.576 3.94521 6.97125 7.84393 6.97125 3.57811 0 5.86732-1.68675 7.19789-3.29387l-.002 2.834h3.33443v-13.46312c0-2.78525-.7262-5.13338-2.15616-6.6495-1.53737-1.6315-3.81055-2.45863-6.75543-2.45863zm-92.94636-1.59949c0-3.18175.80636-4.3745 3.28474-4.3745.95704 0 1.72493.18038 2.89518.53463l.21642.065v-3.27438l-.07214-.02762c-1.0404-.3965-2.03432-.559-3.43383-.559-1.89485 0-3.46588.60287-4.54316 1.74525-1.20232 1.27562-1.83875 3.25325-1.83875 5.72325v2.22787h-3.79933v3.30363h3.79933v18.80612h3.49154v-18.80612h6.55505v-3.30363H85.0127zm122.33249 4.41188v-2.35138h3.48993v22.10975h-3.48993zm44.267 9.11024v2.4635c0 3.21425-2.83907 5.63712-6.60634 5.63712-3.37291 0-4.90867-2.119-4.90867-4.08687v-.0845c0-1.79238.99552-3.92926 5.73747-3.92926zm-5.57876-11.92263c-3.30718 0-5.65731.92138-7.52171 1.82325l-.18275.08775 1.05964 3.07288.22604-.10888c1.67683-.81575 3.5765-1.56975 6.10137-1.56975 3.75284 0 5.89617 1.74363 5.89617 5.77363h-6.09335c-5.68938 0-8.95167 2.51387-8.95167 6.89975v.08288c0 4.57762 3.94681 6.97287 7.84714 6.97287 3.5781 0 5.86571-1.68675 7.19788-3.2955l-.002 2.83563h3.33443v-13.46476c0-2.78525-.7262-5.135-2.15616-6.65112-1.53736-1.6315-3.81055-2.45863-6.75543-2.45863zm11.80085 2.27809h.44566c.13626-.0032.24687-.03737.33023-.10075.085-.06338.12505-.14625.12505-.25025 0-.14138-.0353-.2405-.11062-.299-.0737-.0585-.2068-.08775-.39596-.08775h-.39436zm0 .3705v.97662h-.40238v-2.45537h.78712c.29176 0 .5178.06338.67811.19012.16031.12675.24046.30875.24046.55088 0 .23725-.12023.41762-.3639.54275.23085.0975.34787.29412.35108.5915v.1755c0 .16575.016.286.0481.35912v.0455h-.4136c-.0273-.06825-.0401-.19337-.0401-.3705 0-.17875-.003-.28437-.01-.31687-.0305-.18525-.1539-.28275-.37352-.28925zm-1.27767-.21938c0 .3315.0754.63863.22764.92138.1523.28112.35909.50375.6204.663.26291.16087.54505.23887.84964.23887.30619 0 .58994-.07963.85284-.24375.26291-.1625.46811-.3835.61719-.663.14909-.2795.22444-.585.22444-.9165 0-.32825-.0753-.63212-.22444-.91162-.14908-.27788-.35428-.49725-.61719-.65813-.2629-.16087-.54665-.2405-.85284-.2405-.30459 0-.58834.078-.85124.23725-.26131.15925-.46971.37863-.6204.65975-.15069.28275-.22604.58663-.22604.91325zm-.32863.0016c0-.39.0898-.75075.26771-1.08387.17635-.33313.42322-.59638.73743-.78813.31581-.19175.65566-.28762 1.02117-.28762.3655 0 .70376.09587 1.01796.28762.31421.19175.55948.455.73742.78813.17795.33312.26612.69387.26612 1.08387 0 .38025-.085.73613-.2565 1.06763-.16993.3315-.4136.598-.7278.7995-.31581.2015-.66048.30225-1.0372.30225-.37513 0-.71979-.09912-1.034-.299-.31581-.19988-.55948-.46638-.73261-.79788s-.2597-.68737-.2597-1.0725z" fill="#373737"/></g></svg>