<svg xmlns="http://www.w3.org/2000/svg" role="img" viewBox="61.26 -2.74 187.98 144.60"><title>Informatica Axon Business Glossary logo</title><g fill="none" fill-rule="evenodd"><path fill="#ff4d00" d="M170.81598 43.41236l-5.63937-6.08873-8.32225-1.39282-7.10701 4.72178 20.31142 11.5134z"/><path fill="#ff7d00" d="M186.93978 35.05315L153.17579.8292l16.8827 51.33736z"/><path fill="#001aff" d="M175.69178 35.05458l-25.23189-7.03452-.71183 12.6331z"/><path fill="#e23400" d="M140.194 43.29463l-8.2726-5.4419-12.50817-2.79714 18.02702 18.27338 3.35782-4.55793z"/><path fill="#ff4d00" d="M151.35026 2.6824l-31.9376 32.37261 20.78077 8.23905z"/><path fill="#ff7d00" d="M167.96268 54.29345L140.194 43.29464l-2.75375 10.03433 15.73554 15.952z"/><path fill="#373737" d="M64.94078 82.11805l3.0333-1.79211v26.67035h-3.0333zm135.92891.42337v-.71315h2.60272v2.7535h-2.60272z"/><path d="M81.52996 87.81873c-2.43262 0-4.36265 1.04654-5.7465 3.1134v-2.72129h-2.96518v18.78533h2.96518V96.2684c0-3.28046 2.05943-5.57098 5.00827-5.57098 2.88346 0 4.6051 2.00334 4.6051 5.35698v10.94177h2.96654V95.37925c0-2.22977-.6211-4.11438-1.7979-5.45362-1.2095-1.37929-2.95157-2.1069-5.0355-2.1069m36.67174 9.80148v.0718c0 3.9266-2.65873 6.88813-6.18236 6.88813-3.48549 0-6.2164-3.05679-6.2164-6.95993v-.07041c0-3.94732 2.64374-6.92265 6.14966-6.92265 3.5032 0 6.2491 3.07198 6.2491 6.99306m-6.18236-9.80134c-2.5484 0-4.90338 1.0355-6.63183 2.91734-1.68758 1.83767-2.6165 4.28145-2.6165 6.884v.0718c0 5.45638 4.03304 9.73092 9.1816 9.73092 2.5484 0 4.91019-1.0355 6.6468-2.91734 1.69984-1.84043 2.63557-4.28559 2.63557-6.88538v-.07041c0-5.45639-4.04938-9.73093-9.21564-9.73093m15.78918 4.51864v-4.1268h-2.96519v18.78532h2.96519v-7.52462c0-5.0063 2.62467-8.36407 6.68631-8.36407h.39227v-3.20867l-.18388-.00828c-2.8712-.12564-5.39917 1.52287-6.8947 4.44712m29.99905-4.51878c-2.56474 0-4.55742 1.13353-6.08156 3.46409-1.13867-2.23668-3.11229-3.46409-5.59122-3.46409-2.78676 0-4.3613 1.52702-5.41143 3.0416v-2.64949h-2.96519v18.78533h2.96519V96.3043c0-3.2487 1.95182-5.60688 4.63915-5.60688 2.6737 0 4.27003 1.97573 4.27003 5.28656v11.01219h2.96655V96.1966c0-1.67475.46718-3.08579 1.34979-4.0771.81723-.91677 1.96135-1.4221 3.22125-1.4221 2.73636 0 4.30409 1.95365 4.30409 5.35699v10.94177h2.96518v-11.5824c0-4.6846-2.54159-7.59504-6.63183-7.59504m39.20558 3.19886V88.2107h-5.56944v-6.5402l-2.96655 1.75344v4.78676h-3.22942v2.8069h3.22942v10.90863c0 4.68874 3.18856 5.39011 5.08863 5.39011 1.19179 0 2.21197-.2568 3.21172-.8063l.09943-.05523v-2.77928l-.2765.1422c-.86218.43906-1.56636.61993-2.4299.61993-1.83605 0-2.72683-.93747-2.72683-2.86626V91.0176zm24.62725 10.88682c-1.58134 1.8004-3.26893 2.67435-5.15809 2.67435-3.46642 0-6.18235-3.05541-6.18235-6.95855v-.07041c0-3.88243 2.64238-6.92265 6.01481-6.92265 2.3618 0 3.8587 1.30196 5.1254 2.71162l.14303.1574 1.9668-2.20907-.11578-.13116c-1.3784-1.55325-3.42965-3.33707-7.0854-3.33707-2.4762 0-4.77943 1.0355-6.48472 2.91873-1.67396 1.84595-2.59607 4.28973-2.59607 6.88261v.0718c0 2.57494.92211 5.00215 2.59607 6.8343 1.70529 1.86803 4.00852 2.89663 6.48473 2.89663 3.68571 0 5.79689-1.93846 7.22296-3.62701l.11578-.13669-1.91369-1.9067zm-41.18014-3.95726v2.09309c0 2.72957-2.4122 4.78815-5.61165 4.78815-2.86576 0-4.1706-1.79901-4.1706-3.471v-.0718c0-1.52286.84583-3.33844 4.87478-3.33844zm-4.73993-10.12856c-2.80856 0-4.80532.78284-6.3894 1.5491l-.1539.07457.8976 2.61083.1934-.09388c1.4247-.69172 3.03737-1.33234 5.18397-1.33234 3.1872 0 5.00826 1.48007 5.00826 4.90412h-5.1758c-4.83392 0-7.60433 2.13589-7.60433 5.8623v.07041c0 3.88795 3.352 5.92305 6.66452 5.92305 3.0401 0 4.9851-1.43313 6.11561-2.7986l-.0017 2.40788h2.83307V95.55722c0-2.36646-.61701-4.36152-1.83196-5.64968-1.30621-1.38619-3.2376-2.08895-5.73968-2.08895zM96.74939 86.4596c0-2.70334.68511-3.71675 2.79084-3.71675.81315 0 1.46557.15326 2.45987.45424l.18388.05523v-2.78204l-.0613-.02347c-.88397-.33688-1.72844-.47495-2.91751-.47495-1.60995 0-2.94476.51223-3.86006 1.48283-1.02153 1.08383-1.56227 2.7641-1.56227 4.8627v1.8929h-3.22806v2.80689h3.22806v15.97844h2.96655V91.01718h5.56943v-2.8069h-5.56943zm103.93858 3.74851v-1.99782h2.96518v18.78533h-2.96518zm37.61101 7.74042v2.09309c0 2.73096-2.41219 4.78953-5.61301 4.78953-2.86576 0-4.1706-1.80039-4.1706-3.47238v-.07179c0-1.52287.84583-3.33845 4.87478-3.33845zm-4.73994-10.12994c-2.8099 0-4.80667.78284-6.39074 1.5491l-.15527.07457.9003 2.61083.19206-.0925c1.4247-.6931 3.03874-1.33372 5.18397-1.33372 3.18856 0 5.00962 1.48145 5.00962 4.9055h-5.17715c-4.83393 0-7.6057 2.13589-7.6057 5.8623v.07042c0 3.88933 3.35337 5.92443 6.66724 5.92443 3.0401 0 4.98375-1.43313 6.11561-2.79998l-.0017 2.40926h2.83307V95.5586c0-2.36646-.61701-4.3629-1.83196-5.65106-1.3062-1.38619-3.2376-2.08895-5.73969-2.08895zm10.02648 1.93556h.37865c.11577-.00272.20975-.03175.28057-.0856.07222-.05385.10625-.12426.10625-.21263 0-.12011-.02999-.20434-.09399-.25404-.06261-.0497-.1757-.07455-.33642-.07455h-.33506zm0 .31479v.82978h-.34188v-2.08619h.66877c.24789 0 .43994.05385.57615.16154.1362.1077.2043.26233.2043.46805 0 .20157-.10215.35483-.30918.46114.19614.08284.29556.2499.29829.50256v.14911c0 .14083.0136.243.04087.30513v.03866h-.35141c-.0232-.05799-.03407-.1643-.03407-.3148 0-.15186-.00255-.2416-.0085-.26922-.02592-.1574-.13076-.24024-.31736-.24576zm-1.08556-.18639c0 .28166.06406.5426.19341.78284.1294.23885.3051.428.52712.5633.22338.1367.4631.20296.72188.20296.26016 0 .50124-.06765.72461-.2071.22338-.13806.39773-.32583.5244-.5633.12666-.23748.19068-.49704.19068-.7787 0-.2789-.06397-.53708-.19069-.77455-.12666-.2361-.301-.42249-.52439-.55917-.22337-.13669-.46445-.20434-.7246-.20434-.2588 0-.49988.06627-.72325.20158-.22202.1353-.39909.3217-.52712.56055-.12803.24023-.19205.49842-.19205.77593zm-.27922.00136c0-.33136.0763-.63787.22746-.9209.14983-.28304.35958-.5067.62655-.66963.26832-.16292.55707-.24437.86762-.24437s.59795.08145.8649.24437c.26697.16292.47536.38659.62655.66963.15119.28303.2261.58954.2261.9209 0 .32307-.07222.62544-.21793.9071-.14438.28165-.35141.50808-.61837.67928-.26832.1712-.56117.2568-.88125.2568-.31872 0-.61156-.08421-.87852-.25404-.26833-.16982-.47536-.39625-.62246-.6779-.1471-.28166-.22065-.58402-.22065-.91124z" fill="#373737"/><path d="M141.57586 138.03496h-1.92318l-1.33074-3.78256h-5.8698l-1.33073 3.78256h-1.83203l4.94011-13.57164h2.40625zm-3.80991-5.33204l-2.37891-6.66277-2.38802 6.66277zm14.5469 5.33204h-2.16016l-2.88932-3.91016-2.90756 3.91016h-1.9961l3.97397-5.07683-3.93751-5.10418h2.16016l2.8711 3.84636 2.88021-3.84636h2.00521l-4.0013 5.01303zm10.69143-5.08595q0 2.48829-1.27604 3.9284-1.27605 1.4401-3.41798 1.4401-2.16016 0-3.4362-1.4401-1.26693-1.44011-1.26693-3.9284 0-2.48828 1.26693-3.92839 1.27604-1.44922 3.4362-1.44922 2.14193 0 3.41798 1.44922 1.27604 1.44011 1.27604 3.92839zm-1.76823 0q0-1.97786-.77474-2.9349-.77474-.96615-2.15105-.96615-1.39453 0-2.16927.96615-.76563.95704-.76563 2.9349 0 1.91407.77474 2.90756.77474.98438 2.16016.98438 1.36719 0 2.14193-.97526.78386-.98438.78386-2.91668zm12.93361 5.08595h-1.71354v-5.79689q0-.70182-.082-1.3125-.082-.61979-.30079-.96615-.22786-.38281-.65625-.5651-.42838-.19141-1.11198-.19141-.70182 0-1.46745.34636-.76562.34635-1.46745.88411v7.60158h-1.71354v-10.18101h1.71354v1.13021q.80209-.66536 1.65886-1.03906.85677-.3737 1.75912-.3737 1.64974 0 2.51563.99349.86588.99349.86588 2.86199z" fill="#000"/></g></svg>