<svg xmlns="http://www.w3.org/2000/svg" role="img" viewBox="-9.06 -9.06 458.12 106.12"><title>Kyligence logo</title><path fill="#0C58A9" d="M105.1 16.9h9.1v37l26.9-37h11.1l-18.4 25 22.9 26.6h-12.9l-16-18.5-13.5 18.5h-9.2zm53.3 17.8h8.7v20.6c0 3.3 3.5 6.3 7 6.3 4.8 0 8.5-3.5 8.5-10V34.9h9v39.3c0 2.6-2.2 14.3-17.8 14.3-13.5 0-16.7-7.5-16.7-7.5l7.4-6s2.5 4.7 9.2 4.7 9-4.9 9-7.9v-6.5s-3.2 4.1-10.9 4.1-13.7-5-13.7-14.3.3-20.4.3-20.4zm42.1-20.5h8.9v41c0 4.4.5 6.2 3.7 6.2s4.5-.9 4.5-.9l1.8 7.3s-1.9 1.9-7.8 1.9-11.1-4.2-11.1-11.1V14.2zm23.6 20.5h9.1v33.8h-9.1z"/><circle cx="228.6" cy="23" r="5.6" fill="#DE175E"/><path fill="#0C58A9" d="M268.7 34.7v2.7s-3.2-3.8-10.8-3.8c-7.6 0-17.2 5.6-17.2 17.9 0 12.3 9 17.9 16.6 17.9 7.6 0 11.2-3.7 11.2-3.7v5.4c0 3.6-2.8 8.7-9.9 8.7-7.2 0-9.7-5-9.7-5l-7.1 6.2s3.2 7.1 16.5 7.1 19-7.9 19-14.6V34.6h-8.6zm-10 27.4c-5.5 0-9.9-4.7-9.9-10.4 0-5.8 4.4-10.4 9.9-10.4s9.9 4.7 9.9 10.4-4.4 10.4-9.9 10.4zm43.5-28.4c-12.4 0-17.6 9.6-17.6 18 0 8.9 5.8 17.9 17.3 17.9 13 0 16.5-10.1 16.5-10.1l-7.8-1.9s-2.3 4.6-8.2 4.6c-5.9 0-9-5-9-8.1h25.9c.6-7.9-3.8-20.4-17.1-20.4zm-8.6 14.1s1.4-6.4 8.3-6.4 8.2 6.4 8.2 6.4h-16.5zm129.7-14.1c-12.4 0-17.6 9.6-17.6 18 0 8.9 5.8 17.9 17.3 17.9 13 0 16.5-10.1 16.5-10.1l-7.8-1.9s-2.3 4.6-8.2 4.6c-5.9 0-9-5-9-8.1h25.9c.6-7.9-3.8-20.4-17.1-20.4zm-8.6 14.1s1.4-6.4 8.3-6.4 8.2 6.4 8.2 6.4h-16.5zm-88.5-13.1h8.8V38s3.4-4.3 11.1-4.3 13.5 5.5 13.5 14.1v20.7h-8.9V49.7c0-3.5-2.3-8.1-6.8-8.1-6 0-8.6 4.9-8.6 9.7v17.1h-9V34.7zM402 57.1c-2.3 7.3-9.3 12.7-17.7 12.8-10.4.1-18.9-7.9-19-18-.1-10.1 8.1-18.4 18.5-18.5 8.5-.1 15.7 5.2 18.2 12.7h-.3l-8.5 2.3c-1.2-4-4.6-6.8-9.3-6.8-5.4 0-9.8 4.3-9.8 10.1 0 5.6 4 10.3 9.8 10.3 5 0 8.2-3 9.3-7.1l8.8 2.2z"/><path fill="#6399D7" d="M54.6 72.3l-12 12c-.2.2-.6.2-.8 0l-12-12c-.2-.2-.2-.6 0-.8l12-12c.2-.2.6-.2.8 0l12 12c.2.2.2.6 0 .8zm0-29.7l-12 12c-.2.2-.6.2-.8 0l-12-12c-.2-.2-.2-.6 0-.8l12-12c.2-.2.6-.2.8 0l12 12c.2.2.2.6 0 .8z"/><path fill="#0C58A9" d="M24.9 42.6l-12 12c-.2.2-.6.2-.8 0l-12-12c-.2-.2-.2-.6 0-.8l12-12c.2-.2.6-.2.8 0l12 12c.2.2.2.6 0 .8zm14.8-14.8l-12 12c-.2.2-.6.2-.8 0l-12-12c-.2-.2-.2-.6 0-.8l12-12c.2-.2.6-.2.8 0l12 12c.3.2.3.6 0 .8zm0 29.7l-12 12c-.2.2-.6.2-.8 0l-12-12c-.2-.2-.2-.6 0-.8l12-12c.2-.2.6-.2.8 0l12 12c.3.2.3.5 0 .8z"/><path fill="#6399D7" d="M54.6 12.9l-12 12c-.2.2-.6.2-.8 0l-12-12c-.2-.2-.2-.6 0-.8l12-12c.2-.2.6-.2.8 0l12 12c.2.3.2.6 0 .8z"/><path fill="#DE175E" d="M72.1 29.7L58 39c-.3.2-.6.1-.8-.2l-9.3-14.1c-.2-.3-.1-.6.2-.8l14.1-9.3c.3-.2.6-.1.8.2l9.3 14.1c.2.2.1.6-.2.8zm0 29.7L58 68.8c-.3.2-.6.1-.8-.2l-9.3-14.1c-.2-.3-.1-.6.2-.8l14.1-9.3c.3-.2.6-.1.8.2l9.3 14.1c.2.2.1.5-.2.7zm20-9.2l-15.6 6.4c-.3.1-.6 0-.8-.3l-6.4-15.6c-.1-.3 0-.6.3-.8l15.6-6.4c.3-.1.6 0 .8.3l6.4 15.6c.1.3 0 .7-.3.8z"/></svg>