<svg xmlns="http://www.w3.org/2000/svg" role="img" viewBox="-7.52 -21.52 1795.04 519.04"><title>Lyftron logo</title><style>svg {enable-background:new 0 0 1780.8 476.8}</style><path fill="#f2951a" d="M27 252.4v94.4h32v-62.4h62.4v-32H27zm186.9 116.5v62.4h-62.4v32h94.4v-94.4h-32zm-154.9 0H27v94.4h94.4v-32H59v-62.4zm92.5-116.5v32h62.4v62.4h32v-94.4h-94.4z"/><path fill="#030008" d="M151.5 135.9v94.4h32v-62.4h62.4v-32h-94.4zm186.9 116.5v62.4H276v32h94.4v-94.4h-32zm-154.9 0h-32v94.4h94.4v-32h-62.4v-62.4zM276 135.9v32h62.4v62.4h32v-94.4H276z"/><path fill="#503989" d="M276 19.4v94.4h32V51.4h62.4v-32H276zm186.9 116.5v62.4h-62.4v32h94.4v-94.4h-32zm-154.9 0h-32v94.4h94.4v-32H308v-62.4zm92.5-116.5v32h62.4v62.4h32V19.4h-94.4zm166.7-5.9h41.1v311.2h-41.1zm742.2 101.1l-4 32.2c-.2 2-2.1 3.3-4.1 2.9-3.8-.8-10.3-1.9-18.9-2.7-20.7-1.8-38.1 3.2-54.8 43.8v133.8h-41.1V110h25.4c6.8 0 12.4 5.5 12.4 12.3l.2 26.2.2.5c7.5-13.4 29.2-46 61.7-43.1 10.3.9 17.6 3.6 21.1 5.2 1.3.6 2.1 2 1.9 3.5zM641.5 110l88.2 200.8-39.4 85.5h34.9c2.7 0 5.2-1.6 6.3-4.1L854.4 110h-35.2c-4 0-7.5 2.4-9 6l-57.4 140.9-1.5 5.5h-2l-1.3-5.5-59-141c-1.5-3.6-5-6-9-6h-38.5zm359.4-86.2v17.7c0 3.9-3.2 7.1-7.1 7.1h-17.6c-20.2 0-36.5 16.3-36.7 36.4l-.2 28.3h59.2V143h-58v181.6h-41.1V143h-11.3c-8.9 0-22.4-3-22.4-11.9v-17.9h33.7V86c0-38.3 31-69.3 69.3-69.3h25.1c3.9 0 7.1 3.2 7.1 7.1zm150.9 286.4c-6.5 5-25 17.3-50.8 17.3-45.4 0-54-32.6-54-49.9v-30.2V143h-19.5c-8.9 0-13.4-2.3-13.4-11.2v-13.9l32.9-4.7h.3l11.3-72.7h29.9v72.7h60.9V143H1088v121.7c0 21 8.8 29.2 22.8 29.2 8.7 0 16.8-4.7 21.7-8.2 2.7-1.9 6.5-1.2 8.3 1.6l11.7 18c1.1 1.7.8 3.8-.7 4.9zm271.9-204.5c-57.1 0-103.4 40.5-103.4 110.5 0 71.7 46.3 110.5 103.4 110.5 57.1 0 103.4-36.2 103.4-110.5 0-72.9-46.3-110.5-103.4-110.5zm0 188.6c-41 0-60.2-27.3-60.2-77.7 0-49.2 21.7-77.7 60.2-77.7 38.9 0 60.2 26.4 60.2 77.7 0 52.3-20.2 77.7-60.2 77.7zm329-118.7c0-34-24.4-69-70.1-69-35.9 0-62.5 23.4-72.2 33.4l-.1-17.8c-.1-6.8-5.6-12.3-12.4-12.3h-25.4v214.7h41.1V190.9l-.2-3.4v-19.7s21.9-29.2 59.5-29.2 39.9 41.4 39.9 50.1v136.1h41.1v-86.2c-.1-.1-1.2-28.9-1.2-63z"/></svg>