<svg xmlns="http://www.w3.org/2000/svg" role="img" viewBox="16.19 3.07 87.49 72.99"><title>Matillion ETL logo</title><path fill="#333" d="M37.7676 51.00867h1.11422l-3.82017-9.7273h-.65439l-3.9086 9.7273h1.09653l1.20265-3.00662h3.74943zm-3.2719-7.26894l.21223-.60133c.07074.22992.14148.42447.21223.56595l1.22033 3.23654H33.24zm10.64697 7.26894H44.0815V42.5194h-3.32497l-.45984-1.06116h7.85259v1.06116h-3.00662zm6.72068-9.55044h1.06116v9.55044h-1.06116zm6.89754 8.66614h4.4215v.8843h-5.48266v-9.55044h1.06116zm9.37358 0h4.4215v.8843H67.0733v-9.55044h1.06116z"/><path fill="#669a41" d="M76.44689 41.45823h1.06116v9.55044h-1.06116zm9.76267 9.76267c-1.34414 0-2.42298-.45983-3.20117-1.36182-.7605-.8843-1.14959-2.12232-1.14959-3.64331 0-1.521.3891-2.74133 1.16728-3.62563.77818-.8843 1.85703-1.34414 3.20116-1.34414 1.34414 0 2.42299.45984 3.20117 1.34414.7605.8843 1.14959 2.10463 1.14959 3.62563 0 1.521-.3891 2.74133-1.14959 3.62563-.79587.91967-1.87472 1.3795-3.21885 1.3795zm.01768-8.98448c-1.04347 0-1.87471.33603-2.44066 1.02578-.56596.68976-.86662 1.68017-.86662 2.97125s.28298 2.29918.84893 2.98894c.56595.68975 1.36182 1.02578 2.44067 1.02578 1.07884 0 1.87471-.33603 2.44067-1.02578.56595-.68976.84892-1.69786.84892-3.00662 0-1.29108-.28297-2.29918-.84892-2.98894-.56596-.65438-1.36183-.99041-2.42299-.99041z"/><path fill="#333" d="M101.03043 41.45823h1.06116v9.55044h-1.07885l-5.12894-7.7111.01769 1.55637v6.15473h-1.06116v-9.55044h1.06116l5.12894 7.69341m-74.10434-7.6934h-1.20265l-3.21885 6.57918-3.21886-6.57919h-1.3795v9.55044h1.06116V43.9166l-.01769-.90199 3.20117 6.59688h.68975l3.18348-6.54382c-.01769.2476.01769.53058.01769.77818v7.16283h1.06116v-9.55044z"/><path fill="#669a41" d="M60.026 4.778L32.12 32.683h9.683l23.063-23zm1.197 27.905l8.486-8.486 8.486 8.486h9.683l-18.17-18.17-18.17 18.17z"/><g><path d="M52.87677 74.51055h-9.58008V59.96954h9.58008v1.71875h-7.64648v3.98437h7.64648v1.71875h-7.64648v5.4004h7.64648zm13.4375-12.82226h-5.19531v12.82226h-1.9336V61.6883h-5.1953v-1.71875h12.32421zm11.15234 12.82226H68.2674V59.96954h1.9336V72.7918h7.26562z"/></g></svg>