<svg xmlns="http://www.w3.org/2000/svg" role="img" viewBox="11.82 4.82 100.36 71.48"><title>Matillion Data Loader logo</title><path fill="#333" d="M37.7676 53.00867h1.11422l-3.82017-9.7273h-.65439l-3.9086 9.7273h1.09653l1.20265-3.00662h3.74943zm-3.2719-7.26894l.21223-.60133c.07074.22992.14148.42447.21223.56595l1.22033 3.23654H33.24zm10.64697 7.26894H44.0815V44.5194h-3.32497l-.45984-1.06116h7.85259v1.06116h-3.00662zm6.72068-9.55044h1.06116v9.55044h-1.06116zm6.89754 8.66614h4.4215v.8843h-5.48266v-9.55044h1.06116zm9.37358 0h4.4215v.8843H67.0733v-9.55044h1.06116z"/><path fill="#669a41" d="M76.44689 43.45823h1.06116v9.55044h-1.06116zm9.76267 9.76267c-1.34414 0-2.42298-.45983-3.20117-1.36182-.7605-.8843-1.14959-2.12232-1.14959-3.64331 0-1.521.3891-2.74133 1.16728-3.62563.77818-.8843 1.85703-1.34414 3.20116-1.34414 1.34414 0 2.42299.45984 3.20117 1.34414.7605.8843 1.14959 2.10463 1.14959 3.62563 0 1.521-.3891 2.74133-1.14959 3.62563-.79587.91967-1.87472 1.3795-3.21885 1.3795zm.01768-8.98448c-1.04347 0-1.87471.33603-2.44066 1.02578-.56596.68976-.86662 1.68017-.86662 2.97125s.28298 2.29918.84893 2.98894c.56595.68975 1.36182 1.02578 2.44067 1.02578 1.07884 0 1.87471-.33603 2.44067-1.02578.56595-.68976.84892-1.69786.84892-3.00662 0-1.29108-.28297-2.29918-.84892-2.98894-.56596-.65438-1.36183-.99041-2.42299-.99041z"/><path fill="#333" d="M101.03043 43.45823h1.06116v9.55044h-1.07885l-5.12894-7.7111.01769 1.55637v6.15473h-1.06116v-9.55044h1.06116l5.12894 7.69341m-74.10434-7.6934h-1.20265l-3.21885 6.57918-3.21886-6.57919h-1.3795v9.55044h1.06116V45.9166l-.01769-.90199 3.20117 6.59688h.68975l3.18348-6.54382c-.01769.2476.01769.53058.01769.77818v7.16283h1.06116v-9.55044z"/><path fill="#669a41" d="M60.026 6.778L32.12 34.683h9.683l23.063-23zm1.197 27.905l8.486-8.486 8.486 8.486h9.683l-18.17-18.17-18.17 18.17z"/><g><path d="M23.59792 68.36038q0 1.58594-.69531 2.875-.6875 1.28906-1.83594 2-.79688.49219-1.78125.71094-.97656.21875-2.57813.21875h-2.9375V62.53226h2.90625q1.70313 0 2.70313.25 1.00781.24219 1.70312.67187 1.1875.74219 1.85156 1.97657.66407 1.23437.66407 2.92968zm-1.61719-.02344q0-1.36719-.47656-2.30469t-1.42188-1.47656q-.6875-.39062-1.46094-.53906-.77343-.15625-1.85156-.15625h-1.45312v8.97656h1.45312q1.11719 0 1.94531-.16406.83594-.16406 1.53126-.60938.86718-.55468 1.29687-1.46093.4375-.90625.4375-2.26563zm10.78125 5.82813h-1.46094v-.92969q-.19531.13281-.53125.375-.32812.23438-.64062.375-.36719.17969-.84375.29688-.47656.125-1.11719.125-1.17969 0-2-.78125-.82031-.78125-.82031-1.99219 0-.99219.42187-1.60156.42969-.61719 1.21875-.96875.79688-.35156 1.91406-.47656 1.1172-.125 2.39844-.1875v-.22657q0-.5-.17969-.82812-.17187-.32813-.5-.51563-.3125-.17969-.75-.24219t-.91406-.0625q-.57812 0-1.28906.15626-.71094.14843-1.46875.4375h-.07813V65.626q.42969-.11718 1.24219-.2578.8125-.14063 1.60156-.14063.92188 0 1.60156.15625.6875.14844 1.1875.51563.49219.35937.75.92968.25781.57031.25781 1.41406zm-1.46094-2.14844v-2.42969q-.67187.03907-1.58594.1172-.90624.07812-1.4375.22656-.6328.17968-1.02343.5625-.39063.375-.39063 1.03906 0 .75.45313 1.13281.45312.375 1.38281.375.77344 0 1.41406-.29688.64063-.30468 1.1875-.72656zm8.82032 2.07031q-.41407.10938-.90626.1797-.48437.0703-.86718.0703-1.33594 0-2.03125-.71875-.69532-.71875-.69532-2.30469v-4.64062h-.99218V65.4385h.99218v-2.5078h1.46876v2.5078h3.03124v1.23438h-3.03124v3.97656q0 .6875.03124 1.07813.03126.3828.21876.71875.17187.3125.46874.46093.3047.14063.92188.14063.35938 0 .75-.10156.39063-.10938.5625-.1797h.07813zm8.55468.07813H47.2151v-.92969q-.1953.13281-.53124.375-.32813.23438-.64063.375-.36719.17969-.84375.29688-.47656.125-1.11719.125-1.17969 0-2-.78125-.82031-.78125-.82031-1.99219 0-.99219.42188-1.60156.42968-.61719 1.21874-.96875.79688-.35156 1.91407-.47656 1.11718-.125 2.39843-.1875v-.22657q0-.5-.17968-.82812-.17188-.32813-.5-.51563-.3125-.17969-.75-.24219t-.91407-.0625q-.57812 0-1.28906.15626-.71094.14843-1.46875.4375h-.07813V65.626q.42969-.11718 1.24219-.2578.8125-.14063 1.60156-.14063.92188 0 1.60156.15625.6875.14844 1.1875.51563.4922.35937.75.92968.25782.57031.25782 1.41406zm-1.46094-2.14844v-2.42969q-.67187.03907-1.58593.1172-.90625.07812-1.4375.22656-.63282.17968-1.02344.5625-.39063.375-.39063 1.03906 0 .75.45313 1.13281.45313.375 1.38281.375.77344 0 1.41406-.29688.64063-.30468 1.1875-.72656zm17.39063 2.14844h-7.35937V62.53226h1.54687v10.25781h5.8125zm8.86719-4.35938q0 2.13282-1.09375 3.3672-1.09375 1.23437-2.92969 1.23437-1.85156 0-2.94531-1.23438-1.08594-1.23437-1.08594-3.36719 0-2.1328 1.08594-3.36718 1.09375-1.24219 2.94531-1.24219 1.83594 0 2.92969 1.24219 1.09375 1.23437 1.09375 3.36719zm-1.51563 0q0-1.6953-.66406-2.51562-.66406-.82813-1.84375-.82813-1.19531 0-1.85937.82813-.65625.82031-.65625 2.51563 0 1.64062.66406 2.49218.66406.84375 1.85156.84375 1.17188 0 1.83594-.83594.67187-.84374.67187-2.5zm10.57031 4.35938h-1.46093v-.92969q-.19532.13281-.53125.375-.32813.23438-.64063.375-.36719.17969-.84375.29688-.47656.125-1.11719.125-1.17968 0-2-.78125-.8203-.78125-.8203-1.99219 0-.99219.42187-1.60156.42968-.61719 1.21875-.96875.79687-.35156 1.91406-.47656 1.11719-.125 2.39844-.1875v-.22657q0-.5-.17969-.82812-.17188-.32813-.5-.51563-.3125-.17969-.75-.24219t-.91406-.0625q-.57813 0-1.28907.15626-.71093.14843-1.46875.4375h-.07813V65.626q.4297-.11718 1.2422-.2578.8125-.14063 1.60155-.14063.92188 0 1.60157.15625.6875.14844 1.1875.51563.49218.35937.75.92968.25781.57031.25781 1.41406zm-1.46093-2.14844v-2.42969q-.67188.03907-1.58594.1172-.90625.07812-1.4375.22656-.63281.17968-1.02344.5625-.39062.375-.39062 1.03906 0 .75.45312 1.13281.45313.375 1.38281.375.77344 0 1.41407-.29688.64062-.30468 1.1875-.72656zm11.36718 2.14844H90.9651v-.91406q-.6328.54687-1.3203.85156t-1.4922.30469q-1.5625 0-2.48437-1.20313-.91406-1.20312-.91406-3.33594 0-1.10937.3125-1.97656.32031-.86719.85937-1.47656.53125-.59375 1.23438-.90625.71093-.3125 1.46875-.3125.6875 0 1.21875.14844.53125.14062 1.11718.44531v-3.78125h1.46875zm-1.46875-2.14844v-5.00781q-.59375-.26563-1.0625-.36719-.46875-.10156-1.02343-.10156-1.23438 0-1.92188.85938-.6875.85937-.6875 2.4375 0 1.55468.53125 2.36718.53125.80469 1.70313.80469.625 0 1.26562-.27344.64063-.28125 1.19531-.71875zm11.66407-2.0625h-6.42969q0 .80469.24219 1.40625.24219.59375.66406.97656.40625.375.96094.5625.5625.1875 1.23437.1875.89063 0 1.78907-.35156.90625-.35937 1.28906-.70312h.0781v1.60156q-.74218.3125-1.51562.52344-.77344.21094-1.625.21094-2.17188 0-3.39063-1.17188-1.21875-1.17969-1.21875-3.34375 0-2.14063 1.16407-3.39844 1.17187-1.25781 3.07812-1.25781 1.76563 0 2.71875 1.03125.96094 1.03125.96094 2.92969zm-1.42969-1.125q-.008-1.15625-.58594-1.78906-.57031-.63281-1.74218-.63281-1.1797 0-1.88282.69531-.69531.69531-.78906 1.72656zm9.10156-1.78906h-.0781q-.32813-.07813-.64063-.10938-.30468-.03905-.72656-.03905-.67969 0-1.3125.30468-.63281.29688-1.21875.77344v6.19531h-1.46875v-8.72656h1.46875v1.28906q.875-.70312 1.53906-.99219.67188-.29687 1.36719-.29687.38281 0 .55469.02344.17187.01563.51562.07031z"/></g></svg>