<svg xmlns="http://www.w3.org/2000/svg" role="img" viewBox="145.45 1080.45 2706.60 836.60"><title>Mode Analytics, Inc. logo</title><path fill="#38B068" d="M198.351 1867.688v-735.375c142.218 81.515 282.703 163.031 423.188 244.548 140.485-81.517 279.235-161.299 421.454-244.548v733.641c-71.11-39.89-140.485-79.781-209.86-121.406v-244.547c-72.844 41.626-142.218 81.517-211.594 123.14-69.375-39.889-137.015-79.78-206.391-117.936-1.735 1.733-3.468 1.733-3.468 1.733s-1.735 0-1.735 1.735c0 1.733-1.734 3.467-1.734 3.467v234.143c-67.642 39.889-137.017 79.78-209.86 121.405z"/><path fill="#3EB16B" d="M1256.32 1314.422h86.719c31.219 50.296 62.438 100.594 95.391 154.36 32.953-53.767 64.172-104.064 97.125-154.36h86.719v367.687h-78.047v-228.938c-1.734 0-3.47-1.733-5.203-1.733-13.875 15.609-22.547 34.688-34.688 50.297-12.14 17.344-24.281 36.422-36.422 55.5h-60.703c-22.547-32.953-45.093-67.641-67.641-102.328-1.733 0-3.468 1.733-3.468 1.733v225.469h-79.781c-.001-121.406-.001-242.812-.001-367.687z"/><path fill="#3DB16A" d="M1676.039 1500c0-109.266 84.984-190.781 197.718-190.781 109.268 0 192.517 83.25 192.517 190.781 0 109.265-84.983 190.781-197.719 190.781-109.267 0-192.516-83.25-192.516-190.781zm84.984-6.938c0 43.359 13.875 76.313 43.359 98.86 46.828 36.422 117.938 27.751 152.625-19.079 38.157-50.295 29.485-130.077-20.812-166.499-36.422-26.017-74.578-31.219-116.204-12.141-38.155 22.546-57.233 58.968-58.968 98.859zm360.75 190.782v-367.688c3.469-1.734 5.203-3.47 6.938-3.47 57.233 0 114.469-1.733 171.702 3.47 76.313 6.937 137.016 64.171 154.359 135.281 19.078 78.046-10.405 156.094-74.578 197.719-32.953 22.547-71.109 31.219-109.266 32.952h-137.016c-5.2 1.736-6.935 3.47-12.139 1.736zm81.517-74.579c29.483 0 57.234 1.735 84.983 0 13.876-1.733 29.485-8.67 41.626-15.608 39.89-26.017 50.296-64.173 45.094-109.266-5.204-39.891-26.016-69.375-62.438-84.985-34.688-13.875-71.11-10.405-107.532-10.405-1.733 71.108-1.733 145.687-1.733 220.264z"/><path fill="#3AB169" d="M2775.633 1461.844v72.844h-171.701V1611h197.718v71.108h-277.5v-365.952h274.031v71.109h-194.249v74.578c57.232.001 112.734.001 171.701.001z"/></svg>