<svg xmlns="http://www.w3.org/2000/svg" role="img" viewBox="22.52 17.52 1064.96 741.96"><title>oh22data logo</title><path fill="#FFF" d="M583.062 212.977h.01c-.01.11-.01.23-.01.34v-.34zm30.091 0h.01v.34c0-.109 0-.229-.01-.34z"/><path fill="#EC8545" d="M555.153 38.847c-129.07 0-233.7 104.63-233.7 233.7 0 22.74 3.25 44.71 9.31 65.49l182.5-268.01c1.36-1.99 3.86-2.87 6.17-2.16s3.88 2.84 3.88 5.26v68.56h111.5c12.96 0 23.5 10.54 23.5 23.5v21.85c0 3.04-2.46 5.5-5.5 5.5s-5.5-2.46-5.5-5.5c0-10.13-8.63-14.66-17.19-14.66h-14.28l112.09 92.25c1.51 1.24 2.25 3.2 1.93 5.13-.17 1.07-4.26 25.09-22.8 33.99v85.1c0 3.37.9 5.89 2.76 7.68 3.27 3.15 8.74 3.5 10.14 3.54h.54c3 0 5.44 2.4 5.5 5.4.05 2.99-2.31 5.48-5.3 5.59-.11.01-.31.01-.58.01h-105.56c-13.06 0-23.69-10.63-23.69-23.69v-58.81h-36.3c-20.25 0-38.82-11.89-47.31-30.29l-32.45-70.38c-1.27-2.76-.07-6.03 2.69-7.3 2.76-1.27 6.03-.07 7.3 2.69l32.45 70.39c6.69 14.51 21.34 23.89 37.32 23.89h41.8c3.04 0 5.5 2.46 5.5 5.5v64.31c0 6.99 5.69 12.69 12.69 12.69h84.24c-1.8-3.21-2.74-7.01-2.74-11.22v-120.82c0-3.03 2.46-5.5 5.5-5.5s5.5 2.47 5.5 5.5v22.65c6.8-5.81 10-15.01 11.26-19.71l-119.79-98.59h-14.99c-12.62 0-22.89 10.27-22.89 22.89v36.78c0 3.94 3.21 7.14 7.14 7.14h57.93c3.03 0 5.5 2.46 5.5 5.5s-2.47 5.5-5.5 5.5h-57.93c-10 0-18.14-8.14-18.14-18.14v-36.78c0-18.69 15.21-33.89 33.89-33.89h46.58c6.63 0 12.53 1.78 17.19 4.89v-1.08c0-6.89-5.61-12.5-12.5-12.5h-117c-3.04 0-5.5-2.46-5.5-5.5v-56.21l-177.26 260.31c.42 1.17.84 2.33 1.28 3.49h76.07c18.37 0 35.37 9.96 44.35 25.99l62.5 111.49v-158.98c0-3.03 2.46-5.5 5.5-5.5s5.5 2.47 5.5 5.5v171.65c8.18.88 16.49 1.32 24.9 1.32 129.07 0 233.71-104.63 233.71-233.7s-104.64-233.7-233.71-233.7zm58.82 182.101c0 1.5-1.22 2.72-2.72 2.72h-26.28c-1.5 0-2.72-1.22-2.72-2.72v-7.29c0-.12 0-.25.01-.36.24-6.5 7.25-11.71 15.85-11.71s15.61 5.21 15.85 11.71c.01.11.01.24.01.36v7.29zm-64.32 58.649c0-10.34 8.41-18.75 18.75-18.75h110.75c3.04 0 5.5 2.46 5.5 5.5 0 3.03-2.46 5.5-5.5 5.5h-110.75c-4.27 0-7.75 3.47-7.75 7.75v26.97c0 3.03-2.46 5.5-5.5 5.5-3.03 0-5.5-2.47-5.5-5.5v-26.97zm-102.49 106.551c-7.04-12.56-20.36-20.37-34.76-20.37h-71.61c30.51 70.05 94.34 122.24 171.48 136.54l-65.11-116.17z"/><path fill="#FFF" d="M583.062 212.977h.01c-.01.11-.01.23-.01.34v-.34zm30.101 0v.34c0-.11 0-.23-.01-.34h.01z"/><path fill="#FFF" d="M583.073 212.977c-.01.11-.01.23-.01.34v-.34h.01zm30.09 0v.34c0-.11 0-.23-.01-.34h.01z"/><path fill="#2C3F4C" d="M121.51 633.469v42.516H55.594v-42.516H43.156v103.25h12.437v-48.5h65.916v48.5h12.428v-103.25H121.51z"/><path fill="#2C3F4C" d="M214.812 723.375v-34.656h38.25V676.5h-38.25v-30.938h73.312v-12.094h-86.036v103.25h88.661v-13.344h-75.937z"/><path fill="#2C3F4C" d="M398.186 633.469h-50.581v103.25h47.352c32.339 0 51.23-20.12 51.23-51.25.001-29.735-17.361-52-48.001-52zm-1.29 90.469h-36.865v-78.375h37.688c21.63 0 36.094 19.594 36.094 39.656-.001 18.469-14.257 38.719-36.917 38.719z"/><path fill="#2C3F4C" d="M553.53 633.469h-50.581v103.25h47.352c32.339 0 51.23-20.12 51.23-51.25 0-29.735-17.361-52-48.001-52zm-1.29 90.469h-36.865v-78.375h37.688c21.63 0 36.094 19.594 36.094 39.656-.001 18.469-14.257 38.719-36.917 38.719z"/><path fill="#2C3F4C" d="M703.625 633.469h-12.638l-49.753 103.25h14.62l16.082-35.75h49.594l16.594 35.75h14.062l-48.561-103.25zm-25.781 55.219l19.359-40.716 18.61 40.716h-37.969z"/><path fill="#2C3F4C" d="M807.656 720.844c-5.198 0-9.118 3.913-9.118 9.106 0 5.836 4.59 8.894 9.118 8.894 5.147 0 8.891-3.744 8.891-8.894 0-5.278-3.744-9.106-8.891-9.106z"/><g fill="#2C3F4C"><path d="M881.098 632.719v104.75h13.572v-104.75h-13.572z"/><path d="M880.646 632.219v105.75h14.475v-105.75h-14.475zm13.573 104.75h-12.67v-103.75h12.67v103.75z"/></g><path fill="#2C3F4C" d="M1011.309 630.719c-32.24 0-55.635 22.743-55.635 54.079 0 31.475 23.395 54.327 55.635 54.327 32.355 0 55.847-22.852 55.847-54.327 0-31.842-22.97-54.079-55.847-54.079zm-.002 95.328c-12.52 0-23.28-4.141-31.136-11.974-7.539-7.516-11.699-17.967-11.699-29.44 0-11.484 4.16-21.934 11.699-29.45 7.856-7.833 18.616-11.964 31.136-11.964 24.94 0 43.053 17.414 43.053 41.414-.001 24.378-17.708 41.414-43.053 41.414z"/></svg>