<svg xmlns="http://www.w3.org/2000/svg" role="img" viewBox="-8.16 -7.91 411.32 112.07"><title>Okera Inc. logo</title><path d="M338.6 94.7l6.9-17.9h30.7l8 17.9h11.2l-28.8-70.6h-11.1l-28.1 70.6h11.2zM361.1 36l12 31.6H349L361.1 36zM307 44.2c0-13-9.3-20.1-26.3-20.1h-23.8v70.6h11.2V65.9h10.2L297 94.7h13L290.5 65c9.9-1.6 16.5-9.9 16.5-20.8zm-38.8 12.4V33.4h11.1c8.1 0 9 .1 11.4 1.9 2.8 2.1 4.3 5.2 4.3 9.3 0 3.8-1.2 6.7-3.8 9-3.1 2.7-4.6 3-11.8 3h-11.2zm-74.8 28.8V63h26.9v-9.2h-26.9V33.4h32.5v-9.3h-43.8v70.6h44.7v-9.3z"/><path d="M99.4 24.1h11.2v70.6H99.4zm58.5 0h-15l-28.7 35.3 29.7 35.3h15.8L128 59.4z"/><path d="M37.1 22.3C16.6 22.3 0 38.9 0 59.4s16.6 37.1 37.1 37.1 37.1-16.6 37.1-37.1-16.7-37.1-37.1-37.1zm0 62.9c-14.3 0-25.8-11.6-25.8-25.8s11.6-25.8 25.8-25.8 25.8 11.6 25.8 25.8-11.6 25.8-25.8 25.8z"/><g fill="#FF5B21"><circle cx="204" cy="4.8" r="4.8"/><circle cx="186.9" cy="4.8" r="4.8"/><circle cx="221.2" cy="4.8" r="4.8"/></g></svg>