<svg xmlns="http://www.w3.org/2000/svg" role="img" viewBox="-8.16 -7.91 411.32 166.07"><title>Okera Query Engine logo</title><path d="M338.6 94.7l6.9-17.9h30.7l8 17.9h11.2l-28.8-70.6h-11.1l-28.1 70.6h11.2zM361.1 36l12 31.6H349zM307 44.2c0-13-9.3-20.1-26.3-20.1h-23.8v70.6h11.2V65.9h10.2L297 94.7h13L290.5 65c9.9-1.6 16.5-9.9 16.5-20.8zm-38.8 12.4V33.4h11.1c8.1 0 9 .1 11.4 1.9 2.8 2.1 4.3 5.2 4.3 9.3 0 3.8-1.2 6.7-3.8 9-3.1 2.7-4.6 3-11.8 3h-11.2zM193.4 63h26.9v-9.2h-26.9V33.4h32.5v-9.3h-43.8v70.6h44.7v-9.3h-33.4z"/><path d="M99.4 24.1h11.2v70.6H99.4zm43.5 0l-28.7 35.3 29.7 35.3h15.8L128 59.4l29.9-35.3z"/><path d="M37.1 22.3C16.6 22.3 0 38.9 0 59.4s16.6 37.1 37.1 37.1 37.1-16.6 37.1-37.1-16.7-37.1-37.1-37.1zm0 62.9c-14.3 0-25.8-11.6-25.8-25.8 0-14.2 11.6-25.8 25.8-25.8 14.2 0 25.8 11.6 25.8 25.8 0 14.2-11.6 25.8-25.8 25.8z"/><g fill="#ff5b21"><circle cx="204" cy="4.8" r="4.8"/><circle cx="186.9" cy="4.8" r="4.8"/><circle cx="221.2" cy="4.8" r="4.8"/></g><path d="M112.66924 149.51944q-.9375.23437-1.85938.32812-.90625.10938-1.85937.10938-2.71875 0-4.375-1.5-1.64063-1.48438-1.78125-4.26563-.375.0625-.73438.0781-.34375.0312-.67187.0312-2.45313 0-4.46875-.8125-2-.8125-3.40626-2.35938-1.40624-1.54687-2.17187-3.79687-.75-2.25-.75-5.14063 0-2.84375.75-5.09375.75-2.26562 2.1875-3.875 1.375-1.53125 3.40625-2.34375 2.04688-.8125 4.45313-.8125 2.5 0 4.48437.82813 2 .8125 3.39063 2.32812 1.42187 1.5625 2.17187 3.82813.76563 2.26562.76563 5.14062 0 4.26563-1.75 7.1875-1.73438 2.92188-4.67188 4.09375.0625 1.78125.84375 2.76563.78125.98437 2.84375.98437.64063 0 1.51563-.20312.89062-.1875 1.26562-.34375h.42188zm-3.6875-17.32813q0-4.53125-2.03125-6.98437-2.03125-2.46875-5.54688-2.46875-3.54688 0-5.57813 2.46875-2.01562 2.45312-2.01562 6.98437 0 4.57813 2.0625 7.01563 2.0625 2.42187 5.53125 2.42187t5.51563-2.42187q2.0625-2.4375 2.0625-7.01563zm22.35937 11.625h-2.9375v-1.9375q-1.48437 1.17188-2.84375 1.79688-1.35937.625-3 .625-2.75 0-4.28125-1.67188-1.53125-1.6875-1.53125-4.9375v-11.32812h2.9375v9.9375q0 1.32812.125 2.28125.125.9375.53125 1.60937.42188.6875 1.09375 1 .67188.3125 1.95313.3125 1.14062 0 2.48437-.59375 1.35938-.59375 2.53125-1.51562v-13.03125h2.9375zm20.39063-8.42187h-12.85938q0 1.60937.48438 2.8125.48437 1.1875 1.32812 1.95312.8125.75 1.92188 1.125 1.125.375 2.46875.375 1.78125 0 3.57812-.70312 1.8125-.71875 2.57813-1.40625h.15625v3.20312q-1.48438.625-3.03125 1.04688-1.54688.42187-3.25.42187-4.34375 0-6.78125-2.34375-2.4375-2.35937-2.4375-6.6875 0-4.28125 2.32812-6.79687 2.34375-2.51563 6.15625-2.51563 3.53125 0 5.4375 2.0625 1.92188 2.0625 1.92188 5.85938zm-2.85938-2.25q-.0156-2.3125-1.17187-3.57813-1.14063-1.26562-3.48438-1.26562-2.35937 0-3.76562 1.39062-1.39063 1.39063-1.57813 3.45313zm18.20313-3.57813h-.15625q-.65625-.15625-1.28125-.21875-.60938-.0781-1.45313-.0781-1.35937 0-2.625.60937-1.26562.59375-2.4375 1.54688v12.39062h-2.9375v-17.45312h2.9375v2.57812q1.75-1.40625 3.07813-1.98437 1.34375-.59375 2.73437-.59375.76563 0 1.10938.0469.34375.0312 1.03125.14063zm17.85937-3.20312l-10.1875 23.89062h-3.14062l3.25-7.28125-6.95313-16.60937h3.1875l5.35938 12.9375 5.40625-12.9375zm30.65625 17.45312h-15.32812v-23.26562h15.32812v2.75h-12.23437v6.375h12.23437v2.75h-12.23437v8.64062h12.23437zm19.26563 0h-2.9375v-9.9375q0-1.20312-.14063-2.25-.14062-1.0625-.51562-1.65625-.39063-.65625-1.125-.96875-.73438-.32812-1.90625-.32812-1.20313 0-2.51563.59375-1.3125.59375-2.51562 1.51562v13.03125h-2.9375v-17.45312h2.9375v1.9375q1.375-1.14063 2.84375-1.78125 1.46875-.64063 3.01562-.64063 2.82813 0 4.3125 1.70313 1.48438 1.70312 1.48438 4.90625zm19.8125-1.98437q0 4.4375-2.01563 6.51562-2.01562 2.07813-6.20312 2.07813-1.39063 0-2.71875-.20313-1.3125-.1875-2.59375-.54687v-3h.15625q.71875.28125 2.28125.6875 1.5625.42187 3.125.42187 1.5 0 2.48437-.35937.98438-.35938 1.53125-1 .54688-.60938.78125-1.46875.23438-.85938.23438-1.92188v-1.59375q-1.32813 1.0625-2.54688 1.59375-1.20312.51563-3.07812.51563-3.125 0-4.96875-2.25-1.82813-2.26563-1.82813-6.375 0-2.25.625-3.875.64063-1.64063 1.73438-2.82813 1.01562-1.10937 2.46875-1.71875 1.45312-.625 2.89062-.625 1.51563 0 2.53125.3125 1.03125.29688 2.17188.92188l.1875-.75h2.75zm-2.9375-2.8125v-9.51563q-1.17188-.53125-2.1875-.75-1-.23437-2-.23437-2.42188 0-3.8125 1.625-1.39063 1.625-1.39063 4.71875 0 2.9375 1.03125 4.45312 1.03125 1.51563 3.42188 1.51563 1.28125 0 2.5625-.48438 1.29687-.5 2.375-1.32812zm11.875-15.57813h-3.3125v-3.04687h3.3125zm-.1875 20.375h-2.9375v-17.45312h2.9375zm20.40625 0h-2.9375v-9.9375q0-1.20312-.14063-2.25-.14062-1.0625-.51562-1.65625-.39063-.65625-1.125-.96875-.73438-.32812-1.90625-.32812-1.20313 0-2.51563.59375-1.3125.59375-2.51562 1.51562v13.03125h-2.9375v-17.45312h2.9375v1.9375q1.375-1.14063 2.84375-1.78125 1.46875-.64063 3.01562-.64063 2.82813 0 4.3125 1.70313 1.48438 1.70312 1.48438 4.90625zm20.26562-8.42187h-12.85937q0 1.60937.48437 2.8125.48438 1.1875 1.32813 1.95312.8125.75 1.92187 1.125 1.125.375 2.46875.375 1.78125 0 3.57813-.70312 1.8125-.71875 2.57812-1.40625h.15625v3.20312q-1.48437.625-3.03125 1.04688-1.54687.42187-3.25.42187-4.34375 0-6.78125-2.34375-2.4375-2.35937-2.4375-6.6875 0-4.28125 2.32813-6.79687 2.34375-2.51563 6.15625-2.51563 3.53125 0 5.4375 2.0625 1.92187 2.0625 1.92187 5.85938zm-2.85937-2.25q-.0156-2.3125-1.17188-3.57813-1.14062-1.26562-3.48437-1.26562-2.35938 0-3.76563 1.39062-1.39062 1.39063-1.57812 3.45313z"/></svg>