<svg xmlns="http://www.w3.org/2000/svg" role="img" xmlns:xlink="http://www.w3.org/1999/xlink" viewBox="1.79 -7.96 28.48 36.92"><title>PowerBI logo</title><g transform="translate(1.796 -7.335) scale(.83926)"><defs><path id="a" d="M.9 0h32.2v33.9H.9z"/></defs><clipPath id="b"><use width="100%" height="100%" overflow="visible" xlink:href="#a"/></clipPath><path fill="#231f20" d="M11.1 27.3c0 1.1-.9 2.1-2.1 2.1-1.2 0-2.1-.9-2.1-2.1v-9c0-1.1.9-2.1 2.1-2.1 1.2 0 2.1.9 2.1 2.1zm6 2.4c0 1.1-.9 2.1-2.1 2.1-1.2 0-2-.9-2-2.1V16c0-1.1.9-2.1 2.1-2.1 1.2 0 2.1.9 2.1 2.1v13.7zM5 25.3c0 1.1-.9 2.1-2.1 2.1-1.2 0-2.1-.9-2.1-2.1v-4.9c0-1.1.9-2.1 2.1-2.1 1.2 0 2.1 1 2.1 2.1zm18.1 6.6c0 1.1-.9 2.1-2.1 2.1-1.1 0-2-1-2-2.1V13.7c0-1.1.9-2.1 2.1-2.1 1.1 0 2.1.9 2.1 2.1v18.2z" clip-path="url(#b)"/><path fill="#231f20" d="M29.7 31c-.4 0-.7-.1-1.1-.2l-2.5-.8c-.4-.1-.7-.6-.5-1 .1-.4.6-.7 1-.5l2.6.8c.5.2 1.1.1 1.6-.3.5-.3.7-.9.7-1.4V10.9c0-.8-.5-1.5-1.2-1.7L5.8 1.8c-.5-.2-1.1-.1-1.6.2-.4.4-.7.9-.7 1.5V15c0 .5-.4.8-.8.8-.5 0-.8-.4-.8-.8V3.5c0-1.1.5-2.1 1.4-2.7.9-.7 2-.8 3-.5l24.4 7.4c1.4.4 2.4 1.8 2.4 3.3v16.7c0 1.1-.5 2.1-1.4 2.8-.6.2-1.3.5-2 .5" clip-path="url(#b)"/></g><path d="M6.43807 25.23019q0 .28558-.10097.53078-.09808.24232-.27693.42117-.22213.22213-.52502.33463-.3029.10962-.76445.10962h-.57118v1.60102h-.57117v-4.29535h1.16542q.38656 0 .65484.06635.26828.06346.47598.20193.2452.16443.3779.40963.13558.2452.13558.62022zm-.59426.01442q0-.22213-.07788-.38656-.0779-.16442-.23655-.26827-.13847-.08943-.31732-.12693-.17597-.04039-.44713-.04039h-.5654v1.71641h.48174q.34617 0 .56252-.06058.21636-.06346.35194-.19904.13558-.13847.19039-.29136.0577-.15289.0577-.34328zm3.90592 1.37313q0 .78753-.40386 1.24331-.40387.45579-1.08178.45579-.68367 0-1.08754-.45579-.40097-.45578-.40097-1.24331 0-.78753.40097-1.24332.40387-.45867 1.08754-.45867.67791 0 1.08178.45867.40386.45579.40386 1.24332zm-.55964 0q0-.62599-.2452-.92888-.2452-.30578-.6808-.30578-.44136 0-.68656.30578-.24232.3029-.24232.92888 0 .60579.2452.92022.2452.31155.68368.31155.43271 0 .67791-.30866.2481-.31155.2481-.92311zm5.45212-1.61256l-.83945 3.22223h-.50194l-.82792-2.48374-.82214 2.48374h-.49906l-.8481-3.22223h.5654l.59137 2.49528.80483-2.49528h.44713l.82504 2.49528.55963-2.49528zm3.47898 1.66737h-2.37413q0 .29712.08943.51925.08943.21923.2452.36059.15001.13846.35483.2077.2077.06923.45578.06923.32886 0 .6606-.12982.33463-.1327.47598-.25962h.02885v.59137q-.27405.11538-.55963.19327-.2856.0779-.60003.0779-.80195 0-1.25197-.43272-.45001-.43559-.45001-1.23466 0-.79041.42982-1.25485.43271-.46444 1.13658-.46444.65195 0 1.00388.38078.35483.38079.35483 1.08177zm-.5279-.4154q-.0029-.42694-.21636-.6606-.21058-.23367-.6433-.23367-.43558 0-.69521.25674-.25674.25674-.29136.63753zm3.3607-.6606h-.02886q-.12115-.02886-.23654-.0404-.1125-.01441-.26828-.01441-.25097 0-.48463.1125-.23367.10962-.45002.28559v2.28758h-.54233v-3.22223h.54233v.47598q.32309-.25963.56829-.36636.24809-.10962.50483-.10962.14135 0 .20481.0087.06346.0058.1904.02596zm5.8704 1.30966q0 .3202-.12115.5654-.12116.2452-.32598.40387-.24231.19039-.53367.27116-.28847.08077-.7356.08077h-1.52314v-4.29535h1.27216q.47021 0 .70388.03462.23366.03462.44713.14424.23655.12404.34328.3202.10673.19328.10673.46444 0 .30578-.15577.52213-.15577.21347-.4154.34329v.02308q.4356.08943.68656.38366.25098.29136.25098.7385zm-.9606-1.93565q0-.15577-.05194-.2625-.05193-.10674-.16731-.1731-.13558-.07788-.32886-.0952-.19328-.02018-.47886-.02018h-.6808V25.66h.7385q.26827 0 .42693-.02596.15866-.02885.29424-.1154.13558-.08653.1904-.22211.05768-.13847.05768-.32598zm.36635 1.95873q0-.25963-.07789-.41252-.07789-.15289-.2827-.25962-.13847-.07212-.33751-.09231-.19616-.02308-.47887-.02308h-.89715v1.59813h.7558q.37502 0 .61445-.0375.23943-.04039.39232-.14424.16154-.1125.23655-.25674.075-.14423.075-.37212zm2.91934 1.29812h-1.69622v-.43848h.56252v-3.4184h-.56252v-.43847h1.69622v.43848h-.56252v3.4184h.56252z" stroke-width=".063"/></svg>