<svg xmlns="http://www.w3.org/2000/svg" role="img" xmlns:xlink="http://www.w3.org/1999/xlink" viewBox="1.63 -8.12 28.81 45.37"><title>PowerBI Semantics logo</title><path d="M6.88474 35.3382q0 .20077-.09462.39693-.09231.19616-.26078.33232-.18462.1477-.43155.23078-.24463.08308-.5908.08308-.37155 0-.66925-.06923-.2954-.06923-.60233-.2054v-.57232h.0323q.26079.21693.60234.33462.34155.1177.64156.1177.42463 0 .66003-.15924.2377-.15923.2377-.42463 0-.22847-.11308-.33693-.11078-.10847-.33925-.16847-.17308-.04616-.37617-.07616-.20077-.03-.42693-.07616-.45694-.09693-.6785-.33001-.21923-.2354-.21923-.61157 0-.43155.36463-.70618.36463-.27693.92542-.27693.36232 0 .66464.06923.30232.06923.5354.17078v.54002h-.0323q-.19617-.16616-.51695-.27462-.31847-.11077-.6531-.11077-.36694 0-.5908.1523-.22154.15232-.22154.39233 0 .21462.11078.33694.11077.1223.39001.18693.1477.0323.42002.07846.27231.04616.46155.09462.3831.10154.57695.30693.19385.2054.19385.57464zm2.85703-.2631h-1.8993q0 .2377.07154.4154.07154.1754.19616.28848.12.11077.28386.16616.16616.05539.36463.05539.26308 0 .52848-.10385.2677-.10616.38078-.2077H9.691v.4731q-.21924.0923-.44771.15461-.22847.06231-.48002.06231-.64156 0-1.00157-.34617-.36002-.34847-.36002-.98772 0-.63234.34386-1.00389.34617-.37155.90927-.37155.52155 0 .8031.30463.28386.30462.28386.86541zm-.42232-.33232q-.00231-.34155-.17309-.52848-.16847-.18693-.51463-.18693-.34848 0-.55618.2054-.20539.20539-.23308.51001zm4.84172 1.57622h-.43387v-1.46775q0-.16616-.01615-.32078-.01385-.15462-.0623-.24693-.05309-.09923-.15232-.15001-.09923-.05077-.28617-.05077-.18231 0-.36462.09231-.18232.09-.36463.23078.0069.05308.01154.12462.0046.06923.0046.13846V36.319h-.43387v-1.46775q0-.17078-.01615-.32309-.01385-.15462-.0623-.24693-.05309-.09923-.15232-.1477-.09923-.05077-.28616-.05077-.1777 0-.35771.0877-.1777.0877-.3554.22385v1.9247h-.43386v-2.5778h.43386v.28617q.20309-.16847.40386-.26309.20309-.09462.43156-.09462.26308 0 .4454.11077.18462.11078.27463.30694.26308-.22155.48001-.31847.21693-.09923.46387-.09923.42463 0 .6254.25847.20309.25616.20309.71772zm2.83856 0h-.43155v-.27463q-.0577.03923-.15693.11077-.09693.06923-.18924.11078-.10847.05308-.24924.0877-.14078.03692-.33001.03692-.34848 0-.5908-.23078-.24231-.23078-.24231-.58848 0-.2931.12462-.4731.12693-.18231.36001-.28616.2354-.10385.5654-.14078.33002-.03692.7085-.05539v-.06692q0-.1477-.05308-.24462-.05077-.09693-.1477-.15232-.09231-.05308-.22155-.07154-.12923-.01846-.27-.01846-.17078 0-.3808.04616-.21.04385-.43385.12924h-.02308v-.44078q.12692-.03463.36693-.07617.24001-.04154.4731-.04154.27232 0 .4731.04617.20308.04384.35077.1523.1454.10617.22155.27463.07616.16847.07616.41771zm-.43155-.63464v-.71772q-.19847.01154-.46848.03462-.2677.02308-.42463.06693-.18693.05308-.30232.16616-.1154.11077-.1154.30693 0 .22155.13386.33463.13385.11077.40848.11077.22847 0 .4177-.0877.18924-.09.35079-.21462zm3.42243.63464h-.43386v-1.46775q0-.1777-.02077-.33232-.02077-.15693-.07616-.24463-.05769-.09693-.16616-.14308-.10847-.04846-.28155-.04846-.1777 0-.37155.0877t-.37155.22386V36.319h-.43387v-2.57778h.43387v.28616q.20308-.16847.42001-.26309.21693-.09462.4454-.09462.41771 0 .63695.25155t.21924.72464zm2.17393-.02308q-.12231.0323-.2677.05308-.14309.02077-.25617.02077-.39463 0-.60002-.21232-.2054-.21231-.2054-.6808v-1.37081h-.29308v-.36463h.29309v-.7408h.43386v.7408h.89542v.36463h-.89542v1.17466q0 .20308.0092.31847.0092.11308.06462.21232.05077.0923.13847.13615.09.04154.27232.04154.10615 0 .22154-.03.1154-.0323.16616-.05308h.02308zm.99004-2.98627h-.48925v-.45001h.48925zm-.0277 3.00935h-.43385v-2.5778h.43386zm2.76472-.16155q-.21693.10385-.4131.16155-.19384.0577-.41308.0577-.27924 0-.51233-.08077-.23309-.08308-.39925-.24924-.16846-.16616-.26077-.42002t-.09231-.5931q0-.63233.34616-.99234.34848-.36002.9185-.36002.22154 0 .43386.06231.21462.06231.39232.15232v.48232h-.02308q-.19847-.15462-.41078-.2377-.21001-.08308-.41079-.08308-.36924 0-.58386.24924-.21232.24693-.21232.72695 0 .46617.2077.71772.21.24924.58848.24924.13155 0 .2677-.03462.13616-.03462.24463-.09.09462-.04846.1777-.10154.08308-.0554.13154-.09462h.02308zm2.39778-.58156q0 .3531-.29309.57925-.29077.22617-.79618.22617-.28616 0-.52617-.06693-.2377-.06923-.39925-.15001v-.48694h.02308q.2054.15462.45694.24693.25155.09.48233.09.28616 0 .4477-.0923.16155-.09232.16155-.29079 0-.15231-.0877-.23078-.0877-.07847-.33693-.13385-.09231-.02077-.24232-.04846-.1477-.02769-.27001-.06-.33924-.09-.48233-.26308-.14077-.1754-.14077-.42925 0-.15924.06462-.30001.06692-.14078.20078-.25155.12923-.10847.3277-.17078.20078-.06462.44771-.06462.23078 0 .46617.0577.2377.0554.39463.13616v.46387h-.02308q-.16616-.12232-.40386-.2054-.2377-.08539-.46617-.08539-.2377 0-.40156.09231-.16385.09-.16385.27001 0 .15924.09924.24001.09693.08077.31386.13155.12.02769.2677.05539.15.02769.24924.05077.30232.06923.46617.2377.16386.17077.16386.45232z" stroke-width=".063"/><g transform="translate(1.796 -7.335) scale(.83926)"><defs><path id="a" d="M.9 0h32.2v33.9H.9z"/></defs><clipPath id="b"><use width="100%" height="100%" overflow="visible" xlink:href="#a"/></clipPath><path fill="#231f20" d="M11.1 27.3c0 1.1-.9 2.1-2.1 2.1-1.2 0-2.1-.9-2.1-2.1v-9c0-1.1.9-2.1 2.1-2.1 1.2 0 2.1.9 2.1 2.1zm6 2.4c0 1.1-.9 2.1-2.1 2.1-1.2 0-2-.9-2-2.1V16c0-1.1.9-2.1 2.1-2.1 1.2 0 2.1.9 2.1 2.1v13.7zM5 25.3c0 1.1-.9 2.1-2.1 2.1-1.2 0-2.1-.9-2.1-2.1v-4.9c0-1.1.9-2.1 2.1-2.1 1.2 0 2.1 1 2.1 2.1zm18.1 6.6c0 1.1-.9 2.1-2.1 2.1-1.1 0-2-1-2-2.1V13.7c0-1.1.9-2.1 2.1-2.1 1.1 0 2.1.9 2.1 2.1v18.2z" clip-path="url(#b)"/><path fill="#231f20" d="M29.7 31c-.4 0-.7-.1-1.1-.2l-2.5-.8c-.4-.1-.7-.6-.5-1 .1-.4.6-.7 1-.5l2.6.8c.5.2 1.1.1 1.6-.3.5-.3.7-.9.7-1.4V10.9c0-.8-.5-1.5-1.2-1.7L5.8 1.8c-.5-.2-1.1-.1-1.6.2-.4.4-.7.9-.7 1.5V15c0 .5-.4.8-.8.8-.5 0-.8-.4-.8-.8V3.5c0-1.1.5-2.1 1.4-2.7.9-.7 2-.8 3-.5l24.4 7.4c1.4.4 2.4 1.8 2.4 3.3v16.7c0 1.1-.5 2.1-1.4 2.8-.6.2-1.3.5-2 .5" clip-path="url(#b)"/></g><path d="M6.43807 24.72419q0 .28558-.10097.53078-.09808.24232-.27693.42117-.22213.22213-.52502.33463-.3029.10962-.76445.10962h-.57118v1.60102h-.57117v-4.29535h1.16542q.38656 0 .65484.06635.26828.06346.47598.20193.2452.16443.3779.40963.13558.2452.13558.62022zm-.59426.01442q0-.22213-.07788-.38656-.0779-.16442-.23655-.26827-.13847-.08943-.31732-.12693-.17597-.04039-.44713-.04039h-.5654v1.71641h.48174q.34617 0 .56252-.06058.21636-.06346.35194-.19904.13558-.13847.19039-.29136.0577-.15289.0577-.34328zm3.90592 1.37313q0 .78753-.40386 1.24331-.40387.45579-1.08178.45579-.68367 0-1.08754-.45579-.40097-.45578-.40097-1.24331 0-.78753.40097-1.24332.40387-.45867 1.08754-.45867.67791 0 1.08178.45867.40386.45579.40386 1.24332zm-.55964 0q0-.62599-.2452-.92888-.2452-.30578-.6808-.30578-.44136 0-.68656.30578-.24232.3029-.24232.92888 0 .60579.2452.92022.2452.31155.68368.31155.43271 0 .67791-.30866.2481-.31155.2481-.92311zm5.45212-1.61256l-.83945 3.22223h-.50194l-.82792-2.48374-.82214 2.48374h-.49906l-.8481-3.22223h.5654l.59137 2.49528.80483-2.49528h.44713l.82504 2.49528.55963-2.49528zm3.47898 1.66737h-2.37413q0 .29712.08943.51925.08943.21923.2452.36059.15001.13846.35483.2077.2077.06923.45578.06923.32886 0 .6606-.12982.33463-.1327.47598-.25962h.02885v.59137q-.27405.11538-.55963.19327-.2856.0779-.60003.0779-.80195 0-1.25197-.43272-.45001-.43559-.45001-1.23466 0-.79041.42982-1.25485.43271-.46444 1.13658-.46444.65195 0 1.00388.38078.35483.38079.35483 1.08177zm-.5279-.4154q-.0029-.42694-.21636-.6606-.21058-.23367-.6433-.23367-.43558 0-.69521.25674-.25674.25674-.29136.63753zm3.3607-.6606h-.02886q-.12115-.02886-.23654-.0404-.1125-.01441-.26828-.01441-.25097 0-.48463.1125-.23367.10962-.45002.28559v2.28758h-.54233v-3.22223h.54233v.47598q.32309-.25963.56829-.36636.24809-.10962.50483-.10962.14135 0 .20481.0087.06346.0058.1904.02596zm5.8704 1.30966q0 .3202-.12115.5654-.12116.2452-.32598.40386-.24231.1904-.53367.27117-.28847.08077-.7356.08077h-1.52314v-4.29535h1.27216q.47021 0 .70388.03462.23366.03462.44713.14424.23655.12404.34328.3202.10673.19328.10673.46444 0 .30578-.15577.52213-.15577.21347-.4154.34329v.02308q.4356.08943.68656.38366.25098.29136.25098.7385zm-.9606-1.93565q0-.15577-.05194-.2625-.05193-.10674-.16731-.1731-.13558-.07788-.32886-.0952-.19328-.02018-.47886-.02018h-.6808V25.154h.7385q.26827 0 .42693-.02596.15866-.02885.29424-.1154.13558-.08653.1904-.22211.05768-.13847.05768-.32598zm.36635 1.95873q0-.25963-.07789-.41252-.07789-.15289-.2827-.25962-.13847-.07212-.33751-.09231-.19616-.02308-.47887-.02308h-.89715v1.59813h.7558q.37502 0 .61445-.0375.23943-.04039.39232-.14424.16154-.1125.23655-.25674.075-.14423.075-.37212zm2.91934 1.29812h-1.69622v-.43848h.56252v-3.4184h-.56252v-.43847h1.69622v.43848h-.56252v3.4184h.56252z" stroke-width=".063"/></svg>