<svg xmlns="http://www.w3.org/2000/svg" role="img" xmlns:xlink="http://www.w3.org/1999/xlink" viewBox="-0.81 -8.12 35.69 45.44"><title>PowerBI Semantics logo</title><g transform="translate(1.796 -7.335) scale(.83926)"><defs><path id="a" d="M.9 0h32.2v33.9H.9z"/></defs><clipPath id="b"><use width="100%" height="100%" overflow="visible" xlink:href="#a"/></clipPath><path fill="#231f20" d="M11.1 27.3c0 1.1-.9 2.1-2.1 2.1-1.2 0-2.1-.9-2.1-2.1v-9c0-1.1.9-2.1 2.1-2.1 1.2 0 2.1.9 2.1 2.1zm6 2.4c0 1.1-.9 2.1-2.1 2.1-1.2 0-2-.9-2-2.1V16c0-1.1.9-2.1 2.1-2.1 1.2 0 2.1.9 2.1 2.1v13.7zM5 25.3c0 1.1-.9 2.1-2.1 2.1-1.2 0-2.1-.9-2.1-2.1v-4.9c0-1.1.9-2.1 2.1-2.1 1.2 0 2.1 1 2.1 2.1zm18.1 6.6c0 1.1-.9 2.1-2.1 2.1-1.1 0-2-1-2-2.1V13.7c0-1.1.9-2.1 2.1-2.1 1.1 0 2.1.9 2.1 2.1v18.2z" clip-path="url(#b)"/><path fill="#231f20" d="M29.7 31c-.4 0-.7-.1-1.1-.2l-2.5-.8c-.4-.1-.7-.6-.5-1 .1-.4.6-.7 1-.5l2.6.8c.5.2 1.1.1 1.6-.3.5-.3.7-.9.7-1.4V10.9c0-.8-.5-1.5-1.2-1.7L5.8 1.8c-.5-.2-1.1-.1-1.6.2-.4.4-.7.9-.7 1.5V15c0 .5-.4.8-.8.8-.5 0-.8-.4-.8-.8V3.5c0-1.1.5-2.1 1.4-2.7.9-.7 2-.8 3-.5l24.4 7.4c1.4.4 2.4 1.8 2.4 3.3v16.7c0 1.1-.5 2.1-1.4 2.8-.6.2-1.3.5-2 .5" clip-path="url(#b)"/></g><path d="M6.43807 24.72419q0 .28558-.10097.53078-.09808.24232-.27693.42117-.22213.22213-.52502.33463-.3029.10962-.76445.10962h-.57118v1.60102h-.57117v-4.29535h1.16542q.38656 0 .65484.06635.26828.06346.47598.20193.2452.16443.3779.40963.13558.2452.13558.62022zm-.59426.01442q0-.22213-.07788-.38656-.0779-.16442-.23655-.26827-.13847-.08943-.31732-.12693-.17597-.04039-.44713-.04039h-.5654v1.71641h.48174q.34617 0 .56252-.06058.21636-.06346.35194-.19904.13558-.13847.19039-.29136.0577-.15289.0577-.34328zm3.90592 1.37313q0 .78753-.40386 1.24331-.40387.45579-1.08178.45579-.68367 0-1.08754-.45579-.40097-.45578-.40097-1.24331 0-.78753.40097-1.24332.40387-.45867 1.08754-.45867.67791 0 1.08178.45867.40386.45579.40386 1.24332zm-.55964 0q0-.62599-.2452-.92888-.2452-.30578-.6808-.30578-.44136 0-.68656.30578-.24232.3029-.24232.92888 0 .60579.2452.92022.2452.31155.68368.31155.43271 0 .67791-.30866.2481-.31155.2481-.92311zm5.45212-1.61256l-.83945 3.22223h-.50194l-.82792-2.48374-.82214 2.48374h-.49906l-.8481-3.22223h.5654l.59137 2.49528.80483-2.49528h.44713l.82504 2.49528.55963-2.49528zm3.47898 1.66737h-2.37413q0 .29712.08943.51925.08943.21923.2452.36059.15001.13846.35483.2077.2077.06923.45578.06923.32886 0 .6606-.12982.33463-.1327.47598-.25962h.02885v.59137q-.27405.11538-.55963.19327-.2856.0779-.60003.0779-.80195 0-1.25197-.43272-.45001-.43559-.45001-1.23466 0-.79041.42982-1.25485.43271-.46444 1.13658-.46444.65195 0 1.00388.38078.35483.38079.35483 1.08177zm-.5279-.4154q-.0029-.42694-.21636-.6606-.21058-.23367-.6433-.23367-.43558 0-.69521.25674-.25674.25674-.29136.63753zm3.3607-.6606h-.02886q-.12115-.02886-.23654-.0404-.1125-.01441-.26828-.01441-.25097 0-.48463.1125-.23367.10962-.45002.28559v2.28758h-.54233v-3.22223h.54233v.47598q.32309-.25963.56829-.36636.24809-.10962.50483-.10962.14135 0 .20481.0087.06346.0058.1904.02596zm5.8704 1.30966q0 .3202-.12115.5654-.12116.2452-.32598.40386-.24231.1904-.53367.27117-.28847.08077-.7356.08077h-1.52314v-4.29535h1.27216q.47021 0 .70388.03462.23366.03462.44713.14424.23655.12404.34328.3202.10673.19328.10673.46444 0 .30578-.15577.52213-.15577.21347-.4154.34329v.02308q.4356.08943.68656.38366.25098.29136.25098.7385zm-.9606-1.93565q0-.15577-.05194-.2625-.05193-.10674-.16731-.1731-.13558-.07788-.32886-.0952-.19328-.02018-.47886-.02018h-.6808V25.154h.7385q.26827 0 .42693-.02596.15866-.02885.29424-.1154.13558-.08653.1904-.22211.05768-.13847.05768-.32598zm.36635 1.95873q0-.25963-.07789-.41252-.07789-.15289-.2827-.25962-.13847-.07212-.33751-.09231-.19616-.02308-.47887-.02308h-.89715v1.59813h.7558q.37502 0 .61445-.0375.23943-.04039.39232-.14424.16154-.1125.23655-.25674.075-.14423.075-.37212zm2.91934 1.29812h-1.69622v-.43848h.56252v-3.4184h-.56252v-.43847h1.69622v.43848h-.56252v3.4184h.56252z" stroke-width=".063"/><path d="M2.64872 32.63135q0 .2611-.09232.4853-.08967.22154-.2532.38506-.20308.20309-.48001.30595-.27693.10022-.69893.10022H.60205v1.4638H.07983v-3.92719h1.06553q.35342 0 .5987.06066.24529.05802.43519.18462.22418.15034.3455.37452.12397.22419.12397.56706zm-.54332.01319q0-.20308-.07121-.35342t-.21627-.24529q-.1266-.08176-.29013-.11605-.16088-.03692-.4088-.03692H.60205v1.56929h.44045q.3165 0 .5143-.05539.19782-.05802.32178-.18198.12396-.1266.17407-.26639.05275-.13978.05275-.31386zm3.57112 1.25543q0 .72002-.36924 1.13674-.36925.41672-.98905.41672-.62508 0-.99432-.41672-.36661-.41672-.36661-1.13674 0-.72003.3666-1.13675.36925-.41935.99433-.41935.6198 0 .98905.41935.36924.41672.36924 1.13675zm-.51167 0q0-.57233-.22418-.84926-.22419-.27958-.62244-.27958-.40353 0-.62772.27958-.22154.27693-.22154.84926 0 .55386.22418.84135.22418.28484.62508.28484.39562 0 .6198-.2822.22682-.28485.22682-.844zm4.9848-1.47434l-.7675 2.94604h-.45892l-.75695-2.27085-.75167 2.27085h-.45628l-.77542-2.94604h.51695l.54067 2.2814.73586-2.2814h.4088l.75432 2.2814.51166-2.2814zm3.18078 1.52445H11.1598q0 .27166.08176.47474.08176.20045.22419.32969.13714.1266.3244.1899.1899.0633.41672.0633.30067 0 .60398-.1187.30595-.12132.43518-.23736h.02637v.54068q-.25056.1055-.51167.1767-.2611.07121-.54859.07121-.73321 0-1.14466-.39561-.41144-.39826-.41144-1.12884 0-.72266.39298-1.1473.39562-.42462 1.03916-.42462.59607 0 .91784.34814.3244.34814.3244.98905zm-.48265-.3798q-.0026-.39034-.19781-.60397-.19254-.21364-.58816-.21364-.39825 0-.63563.23474-.23473.23473-.26638.58288zm3.07264-.60397h-.02637q-.11078-.02637-.21627-.03692-.10287-.0132-.24529-.0132-.22946 0-.4431.10287-.21363.10022-.41143.2611v2.09151h-.49585v-2.94604h.49585v.43518q.29539-.23737.51958-.33496.22682-.10022.46155-.10022.12924 0 .18726.0079.05802.0053.17407.02374zm5.90791 3.36803q-.15825.03957-.31386.0554-.15297.01845-.31386.01845-.45891 0-.73848-.2532-.27694-.25055-.30067-.72002-.0633.01055-.12397.0132-.05802.0053-.1134.0053-.41409 0-.75432-.13716-.3376-.13714-.57497-.39825-.23737-.26111-.3666-.6409-.1266-.3798-.1266-.86773 0-.48002.1266-.85981.1266-.38243.36924-.6541.2321-.25846.57497-.39561.3455-.13715.75167-.13715.422 0 .75696.13979.3376.13714.57232.39298.24001.26374.36661.64617.12924.38244.12924.86773 0 .72003-.2954 1.21323-.29276.4932-.7886.69102.01055.30067.14242.46683.13188.16616.48002.16616.10814 0 .25583-.0343.15034-.03164.21364-.05801h.07121zm-.62244-2.92494q0-.76486-.34287-1.17894-.34287-.41672-.9363-.41672-.5987 0-.94157.41672-.34023.41408-.34023 1.17894 0 .77278.34814 1.18422.34814.4088.93366.4088t.93102-.4088q.34815-.41144.34815-1.18422zm3.7742 1.96227h-.49584v-.32704q-.25055.1978-.48001.3033-.22946.1055-.5064.1055-.46419 0-.72266-.2822-.25847-.28485-.25847-.83344v-1.91216h.49584v1.67742q0 .22419.0211.38507.0211.15825.08967.27166.07121.11605.18462.1688.11341.05275.32969.05275.19253 0 .41935-.10023.22946-.10022.42727-.25583v-2.19964h.49584zm3.4419-1.42159h-2.17064q0 .27166.08176.47474.08176.20045.22419.32969.13714.1266.3244.1899.1899.0633.41672.0633.30067 0 .60398-.1187.30595-.12132.43518-.23736h.02638v.54068q-.25056.1055-.51167.1767-.2611.07121-.54859.07121-.73321 0-1.14466-.39561-.41144-.39826-.41144-1.12884 0-.72266.39298-1.1473.39562-.42462 1.03916-.42462.59607 0 .91784.34814.3244.34814.3244.98905zm-.48266-.3798q-.0026-.39034-.19781-.60397-.19254-.21364-.58816-.21364-.39825 0-.63563.23474-.23473.23473-.26638.58288zm3.07264-.60397h-.02637q-.11078-.02637-.21627-.03692-.10286-.0132-.24529-.0132-.22946 0-.4431.10287-.21362.10022-.41143.2611v2.09151h-.49585v-2.94604h.49585v.43518q.2954-.23737.51958-.33496.22682-.10022.46155-.10022.12924 0 .18726.0079.05802.0053.17407.02374zm3.01462-.54068l-1.71963 4.03268h-.53013l.5486-1.22906-1.17368-2.80362h.53805l.90465 2.18382.91256-2.18382z" stroke-width=".063"/></svg>