<svg xmlns="http://www.w3.org/2000/svg" role="img" viewBox="66.46 61.46 1796.08 512.08"><title>Precisely Connect ETL logo</title><g fill="#8017E1"><path d="M101.914 214.594h55.266v325.031h-55.266zm1424.25-118.125h55.266v330.258h-55.266zM1016.75 214.594h55.266v211.969h-55.266zm-474.755-3.937v54.98s-33.46-7.54-55.4 6.43c-25.33 16.13-26.6 41.43-26.6 56.43v98.23h-55.27v-212.13h55.27v21.65s16.73-21.73 44.22-24.75c17.07-1.869 37.78-.84 37.78-.84z"/><path d="M267.655 210.167c-61.59 0-111.53 49.93-111.53 111.52 0 61.6 49.94 111.53 111.53 111.53s111.53-49.93 111.53-111.53c0-61.59-49.94-111.52-111.53-111.52zm0 167.38c-30.98 0-56.09-25.01-56.09-55.86 0-30.85 25.11-55.86 56.09-55.86 30.98 0 56.1 25.01 56.1 55.86 0 30.85-25.12 55.86-56.1 55.86zm676.36-24.839c-10.33 16.3-28.58 27.12-49.36 27.12-32.22 0-58.33-26-58.33-58.08 0-32.07 26.11-58.08 58.33-58.08 19.74 0 37.2 9.77 47.75 24.72l47.52-27.37c-20.17-30.61-55.17-50.85-94.96-50.85-62.48 0-113.15 49.93-113.15 111.52 0 61.6 50.67 111.53 113.15 111.53 40.54 0 76.1-21.01 96.07-52.59l-47.02-27.92zm-287.67-142.541c-65.69 0-111.53 49.93-111.53 111.52 0 61.6 47.53 111.53 111.53 111.53 42.4 0 73.28-16.99 91.65-43.38l-37.47-30.02c-11.67 14.72-29.93 24.18-50.45 24.18-32.73 0-54.69-18.78-61.52-44.53h162.26c.66-5.05 1.03-10.21 1.1-15.46.02-.77.03-1.54.03-2.32 0-61.59-45.57-111.52-105.6-111.52zm-55.44 88.521c8.78-21.83 29.11-38.25 52.79-38.25 29.45 0 46.94 16.42 53.91 38.25h-106.7zm794.284-88.521c-65.69 0-111.53 49.93-111.53 111.52 0 61.6 47.53 111.53 111.53 111.53 42.4 0 73.28-16.99 91.65-43.38l-37.47-30.02c-11.67 14.72-29.93 24.18-50.45 24.18-32.73 0-54.69-18.78-61.52-44.53h162.26c.66-5.05 1.03-10.21 1.1-15.46.02-.77.03-1.54.03-2.32 0-61.59-45.57-111.52-105.6-111.52zm-55.44 88.521c8.78-21.83 29.11-38.25 52.79-38.25 29.45 0 46.94 16.42 53.91 38.25h-106.7z"/><circle cx="1044.383" cy="144.562" r="35.496"/><path d="M1607.375 214.594h61.031l52.875 146.953 53.578-146.953h53.719L1710.5 539.625h-53.625l38.813-107.344zm-351.563 22.64l-28.828 39.656s-20.111-16.775-49.078-16.453c-25.312.281-26.982 20.733-5.625 29.391 29.719 12.047 91.125 16.922 91.125 75.516 0 56.812-50.625 67.874-83.812 67.874-49.781 0-82.031-30.28-82.031-30.28l29.719-42.281s17.016 17.766 48.375 21.703c41.264 5.181 46.688-24.609 17.156-33.047s-91.406-17.719-88.734-70.594c2.766-54.743 43.031-68.062 75.609-68.062 50.015-.001 76.124 26.577 76.124 26.577z"/></g></svg>