<svg xmlns="http://www.w3.org/2000/svg" role="img" viewBox="18.62 13.12 165.26 188.76"><title>Privacera logo</title><path fill="#fff" stroke="#9bbbe4" stroke-width="2.455" d="M179.17575 92.79272c0 41.23868-34.80932 74.67108-77.75283 74.67108-42.94341 0-77.75234-33.4324-77.75234-74.67108 0-41.23746 34.80893-74.6702 77.75234-74.6702 42.94351 0 77.75283 33.43274 77.75283 74.6702z"/><path fill="#00a0f0" fill-rule="evenodd" d="M116.82184 85.52089c-2.8019-5.36895-8.59118-9.04687-15.27135-9.04687-9.42624 0-17.07735 7.33636-17.07735 16.3954s7.65111 16.40026 17.07735 16.40026c6.68017 0 12.46945-3.68278 15.27135-9.04686l3.96469 1.01048 10.01383 2.54812 15.42596 3.93237c1.61444-4.56788 2.48639-9.46933 2.48639-14.57166 0-5.28008-.93386-10.3532-2.66571-15.0696l-15.44447 3.93237-9.816 2.50673z" clip-rule="evenodd"/><path fill="#172538" fill-rule="evenodd" d="M101.5578 47.57907c-26.04589 0-47.16218 20.27419-47.16218 45.294 0 25.01373 21.11629 45.29279 47.16218 45.29279 15.426 0 29.12006-7.10382 37.72376-18.09983l-12.11686-3.08867-5.19565-1.32458c-5.57905 4.60439-12.77859 7.27061-20.41125 7.27061-17.27524 0-31.29083-13.46013-31.29083-30.05032 0-16.5914 14.01559-30.05153 31.29083-30.05153 7.63266 0 14.8322 2.66743 20.41125 7.27061l17.31251-4.41326c-8.6037-10.996-22.29776-18.09982-37.72376-18.09982z" clip-rule="evenodd"/><path d="M58.78357 185.1735q0 1.22784-.43409 2.28204-.42168 1.04179-1.19062 1.81074-.95498.95498-2.25723 1.43867-1.30224.47129-3.28662.47129h-2.45566v6.8833h-2.45567v-18.46709h5.01055q1.66191 0 2.81533.28525 1.15342.27286 2.04639.86817 1.0542.70693 1.6247 1.76113.58292 1.0542.58292 2.6665zm-2.55489.062q0-.95498-.33486-1.66192-.33486-.70693-1.017-1.15342-.5953-.38447-1.36425-.5457-.75654-.17363-1.92236-.17363h-2.43086v7.37939h2.07119q1.48828 0 2.41845-.26045.93018-.27285 1.51309-.85576.58291-.59531.81856-1.25263.24804-.65733.24804-1.47588zm14.2503 1.5131h-.12403q-.5209-.12402-1.017-.17363-.48368-.062-1.1534-.062-1.07901 0-2.0836.48369-1.0046.47129-1.93477 1.22783v9.83506h-2.33164v-13.85342h2.33164v2.04639q1.38906-1.11621 2.44326-1.5751 1.0666-.47129 2.17041-.47129.60772 0 .88057.0372.27285.0248.81856.11162zm4.70048-4.86172h-2.6293v-2.41845h2.6293zm-.14882 16.17266h-2.33165v-13.85342h2.33165zm16.59433-13.85342l-5.60586 13.85342h-2.34404l-5.56865-13.85342h2.53007l4.29122 11.02569 4.254-11.02569zm13.32012 13.85342h-2.31924v-1.47588q-.31006.21084-.84336.59531-.5209.37207-1.01699.59532-.58291.28525-1.33946.47128-.75654.19844-1.77353.19844-1.87276 0-3.175-1.24023-1.30225-1.24024-1.30225-3.1626 0-1.5751.66973-2.54248.68213-.97979 1.93476-1.53789 1.26504-.55811 3.03858-.75654 1.77353-.19844 3.80752-.29766v-.35967q0-.79375-.28526-1.31465-.27285-.52089-.79375-.81855-.49609-.28525-1.19062-.38447-.69453-.0992-1.45108-.0992-.91777 0-2.04638.24804-1.12862.23565-2.33164.69454h-.12403v-2.36885q.68213-.18604 1.97198-.40928 1.28984-.22324 2.54248-.22324 1.46347 0 2.54248.24805 1.0914.23564 1.88515.81855.78135.57051 1.19063 1.47588.40928.90537.40928 2.24482zm-2.31924-3.41064v-3.85713q-1.0666.062-2.51768.18603-1.43867.12403-2.28203.35967-1.00459.28525-1.6247.89297-.62012.59531-.62012 1.64951 0 1.19062.71933 1.79834.71934.59531 2.19522.59531 1.22783 0 2.24482-.47129 1.01699-.48369 1.88516-1.15341zm17.05322 2.54248q-1.16582.5581-2.22002.86816-1.0418.31006-2.22002.31006-1.50068 0-2.75332-.43408-1.25264-.44649-2.1456-1.33946-.90538-.89297-1.40147-2.25722-.49609-1.36426-.49609-3.18741 0-3.39824 1.86035-5.333 1.87275-1.93477 4.93613-1.93477 1.19063 0 2.33164.33486 1.15342.33487 2.1084.81856v2.59209h-.12402q-1.0666-.83096-2.20762-1.27744-1.12861-.44649-2.20762-.44649-1.98437 0-3.13779 1.33946-1.14102 1.32705-1.14102 3.90673 0 2.50528 1.11621 3.85713 1.12862 1.33946 3.1626 1.33946.70694 0 1.43867-.18604.73174-.18603 1.31465-.48369.5085-.26045.95498-.5457.44649-.29766.70694-.5085h.12402zm14.58516-5.8167H124.0571q0 1.27744.38447 2.23242.38448.94258 1.0542 1.55029.64492.59531 1.52549.89297.89297.29766 1.95957.29766 1.41387 0 2.84014-.55811 1.43867-.57051 2.04638-1.11621h.12403v2.54248q-1.17823.49609-2.40606.83096-1.22783.33486-2.57969.33486-3.44785 0-5.38261-1.86035-1.93477-1.87275-1.93477-5.3082 0-3.39825 1.84795-5.39502 1.86035-1.99678 4.88652-1.99678 2.80293 0 4.31602 1.63711 1.52549 1.63711 1.52549 4.65088zm-2.26963-1.78594q-.0124-1.83555-.93018-2.84014-.90537-1.00459-2.76572-1.00459-1.87275 0-2.98896 1.10381-1.10381 1.10381-1.25264 2.74092zm14.44873-2.84014h-.12402q-.5209-.12402-1.017-.17363-.48369-.062-1.15341-.062-1.07901 0-2.0836.48369-1.00459.47129-1.93476 1.22783v9.83506h-2.33164v-13.85342h2.33164v2.04639q1.38906-1.11621 2.44326-1.5751 1.0666-.47129 2.17041-.47129.60771 0 .88057.0372.27285.0248.81855.11162zm12.51397 11.31094h-2.31924v-1.47588q-.31006.21084-.84336.59531-.5209.37207-1.01699.59532-.58291.28525-1.33946.47128-.75654.19844-1.77353.19844-1.87276 0-3.175-1.24023-1.30225-1.24024-1.30225-3.1626 0-1.5751.66973-2.54248.68213-.97979 1.93476-1.53789 1.26504-.55811 3.03858-.75654 1.77353-.19844 3.80752-.29766v-.35967q0-.79375-.28526-1.31465-.27285-.52089-.79375-.81855-.49609-.28525-1.19062-.38447-.69453-.0992-1.45107-.0992-.91778 0-2.04639.24804-1.12861.23565-2.33164.69454h-.12403v-2.36885q.68213-.18604 1.97198-.40928 1.28984-.22324 2.54248-.22324 1.46347 0 2.54248.24805 1.0914.23564 1.88515.81855.78135.57051 1.19063 1.47588.40928.90537.40928 2.24482zm-2.31924-3.41064v-3.85713q-1.0666.062-2.51768.18603-1.43867.12403-2.28203.35967-1.00459.28525-1.62471.89297-.62011.59531-.62011 1.64951 0 1.19062.71933 1.79834.71934.59531 2.19522.59531 1.22783 0 2.24482-.47129 1.01699-.48369 1.88516-1.15341z" stroke-width=".265"/></svg>