<svg xmlns="http://www.w3.org/2000/svg" role="img" viewBox="-19.64 -18.64 1073.28 468.28"><title>Qlik Attunity Replicate logo</title><path fill="#606163" d="M187.325 157.728c0 37.561-30.445 68.02-68.006 68.02-37.568 0-68.016-30.459-68.016-68.02 0-37.563 30.448-68.023 68.016-68.023 37.561 0 68.006 30.459 68.006 68.023m58.655 100.234s4.485-5.171-.674-9.675l-28.351-24.636c12.749-18.805 20.176-41.499 20.176-65.924 0-65.069-52.74-117.831-117.813-117.831-65.07 0-117.82 52.761-117.82 117.831s52.75 117.828 117.82 117.828c23.818 0 45.938-7.136 64.463-19.288l31.084 27.023s5.186 4.502 9.691-.681zm79.404 9.439V48.03c0-8.037-8.019-8.037-8.019-8.037h-35.321c-8.026 0-8.026 8.037-8.026 8.037v219.372c0 8.028 8.026 8.028 8.026 8.028h35.321c8.019 0 8.019-8.029 8.019-8.029m86.727-197.105v-22.67s0-7.729-7.731-7.729h-33.94s-7.705 0-7.705 7.729v22.67s0 7.718 7.705 7.718h33.94s7.731 0 7.731-7.718m1.31 197.105V109.043c0-8.012-8.021-8.012-8.021-8.012h-34.652c-8.012 0-8.012 8.012-8.012 8.012v158.358c0 8.028 8.012 8.028 8.012 8.028H405.4c8.021.001 8.021-8.028 8.021-8.028m148.547-97.141c-4.165-6.864 1.422-12.64 1.422-12.64l48.847-50.496c5.575-5.764-2.431-5.764-2.431-5.764h-45.633c-8.028 0-13.543 5.834-13.543 5.834l-45.333 48.019c-5.5 5.834-5.5-2.178-5.5-2.178V48.03c0-8.037-8.039-8.037-8.039-8.037h-34.602c-7.721 0-7.721 7.729-7.721 7.729v219.68c0 8.028 8.012 8.028 8.012 8.028h34.3c7.706 0 7.706-7.723 7.706-7.723v-38.603c0-8.016 5.846-13.516 5.846-13.516l16.156-15.188 40.583 68.14c4.103 6.89 12.142 6.89 12.142 6.89h43.288c8.028 0 3.878-6.866 3.878-6.866z"/><path fill="#61a730" d="M930.301 156.15c0 52.123-42.245 94.39-94.365 94.39-52.135 0-94.388-42.267-94.388-94.401 0-52.111 42.253-94.377 94.388-94.377 52.12-.001 94.365 42.265 94.365 94.388m78.515 117.984l-42.994-36.069c14.99-23.708 23.715-51.787 23.715-81.914 0-84.835-68.767-153.602-153.602-153.602-84.834 0-153.612 68.767-153.612 153.59 0 84.824 68.778 153.614 153.612 153.614 32.901 0 63.371-10.374 88.39-28.007l45.828 38.454s6.816 5.723 12.52-1.08l27.234-32.45s5.712-6.819-1.091-12.536"/><path fill="#606163" d="M775.434 156.139c0-33.413 27.066-60.491 60.491-60.491 33.413 0 60.49 27.078 60.49 60.514 0 33.415-27.077 60.493-60.49 60.481-33.425 0-60.491-27.067-60.491-60.504m239.95-105.122h4.076c2.351 0 4.009-.519 4.009-3.259 0-2.337-1.777-3.237-4.009-3.237h-4.076zm0 9.725h-1.971V42.789h6.526c3.08 0 5.499 1.578 5.499 4.969 0 2.833-1.544 4.72-4.256 5.002l5.052 7.981h-2.455l-4.768-7.981h-3.628v7.982zm3.392-21.699c-6.947 0-12.353 5.679-12.353 12.768 0 7.128 5.298 12.749 12.353 12.749s12.353-5.621 12.353-12.749c0-7.089-5.298-12.768-12.353-12.768m-14.713 12.768c0-8.144 6.651-14.723 14.714-14.723 8.156 0 14.725 6.651 14.725 14.723 0 8.063-6.568 14.714-14.725 14.714-8.063 0-14.714-6.651-14.714-14.714"/><g><path d="M381.97801 414.19864h-9.36979l-18.15626-21.58334h-10.17188v21.58334h-7.21876v-54.28649h15.20314q4.92187 0 8.20312.65626 3.28126.61979 5.90626 2.26041 2.95312 1.85938 4.59375 4.70313 1.67708 2.80729 1.67708 7.14584 0 5.86979-2.95312 9.84375-2.95313 3.9375-8.13021 5.94271zM365.0978 375.1882q0-2.33333-.83855-4.11979-.80208-1.82292-2.69791-3.0625-1.56771-1.05729-3.71876-1.45834-2.15104-.4375-5.06771-.4375h-8.49479v20.4896h7.29167q3.42708 0 5.97917-.58334 2.55208-.61979 4.33854-2.26041 1.64063-1.53125 2.40625-3.50001.80209-2.0052.80209-5.06771zm55.59898 19.35939h-30.00522q0 3.75521 1.13021 6.5625 1.1302 2.77084 3.09896 4.55729 1.89583 1.75001 4.48437 2.62501 2.625.875 5.76042.875 4.15625 0 8.34896-1.64063 4.22917-1.67708 6.01563-3.28125h.36459v7.47396q-3.46355 1.45834-7.07292 2.44271-3.60938.98438-7.58334.98438-10.13542 0-15.82293-5.46876-5.6875-5.50521-5.6875-15.60417 0-9.98959 5.4323-15.85938 5.46875-5.8698 14.36459-5.8698 8.23958 0 12.6875 4.8125 4.48438 4.81251 4.48438 13.67189zm-6.67188-5.25q-.0365-5.39584-2.73438-8.34897-2.66146-2.95312-8.13021-2.95312-5.50521 0-8.78646 3.24479-3.24479 3.24479-3.68229 8.0573zm52.90107 4.04687q0 4.95834-1.42188 9.07813-1.42187 4.08334-4.01042 6.92709-2.40625 2.69792-5.6875 4.19271-3.24479 1.45833-6.89063 1.45833-3.17187 0-5.76042-.69271-2.55208-.6927-5.21354-2.15104v17.06251h-6.85417v-55.74482h6.85417v4.26563q2.73437-2.29688 6.125-3.82813 3.42709-1.56771 7.29167-1.56771 7.36459 0 11.44792 5.57813 4.1198 5.54167 4.1198 15.42188zm-7.07292.18229q0-7.36458-2.51563-11.01042-2.51563-3.64583-7.72917-3.64583-2.95313 0-5.94271 1.27604-2.98959 1.27604-5.72396 3.35417v23.07813q2.91667 1.3125 4.99479 1.78646 2.11459.47396 4.77605.47396 5.72396 0 8.93229-3.86458 3.20834-3.86459 3.20834-11.44793zm24.6823 20.67189h-6.85417v-56.72919h6.85417zm20.92709-47.54169h-7.72917v-7.10938h7.72917zm-.4375 47.54169h-6.85417v-40.72398h6.85417zm43.6771-2.55209q-3.42708 1.64063-6.52604 2.55209-3.0625.91146-6.52605.91146-4.41146 0-8.09375-1.27604-3.68229-1.31251-6.30729-3.93751-2.66146-2.625-4.1198-6.63542-1.45833-4.01041-1.45833-9.36979 0-9.98959 5.46875-15.67709 5.50521-5.68751 14.51042-5.68751 3.50001 0 6.85417.98438 3.39063.98437 6.19792 2.40625v7.6198h-.36458q-3.13542-2.44271-6.48959-3.75521-3.31771-1.3125-6.48958-1.3125-5.83334 0-9.22397 3.9375-3.35416 3.90104-3.35416 11.48438 0 7.36458 3.28125 11.33854 3.31771 3.93751 9.29688 3.93751 2.07812 0 4.22917-.54688 2.15104-.54687 3.86458-1.42187 1.49479-.76563 2.80729-1.60417 1.31251-.875 2.07813-1.49479h.36458zm40.43232 2.55209h-6.81771v-4.33854q-.91146.61979-2.47917 1.75-1.53125 1.09375-2.98959 1.75-1.71354.83854-3.9375 1.38541-2.22396.58334-5.21354.58334-5.50521 0-9.33334-3.64584-3.82813-3.64583-3.82813-9.29688 0-4.63021 1.96875-7.47396 2.00521-2.88021 5.68751-4.52083 3.71875-1.64063 8.93229-2.22396 5.21355-.58334 11.19272-.875v-1.0573q0-2.33333-.83855-3.86458-.80208-1.53125-2.33333-2.40625-1.45834-.83854-3.5-1.13021-2.04167-.29167-4.26563-.29167-2.69792 0-6.01563.72917-3.31771.69271-6.85417 2.04167h-.36458v-6.96355q2.00521-.54687 5.79688-1.20312 3.79166-.65625 7.47396-.65625 4.30208 0 7.47396.72916 3.20833.69271 5.54167 2.40625 2.29688 1.67709 3.5 4.33855 1.20313 2.66146 1.20313 6.59896zm-6.81771-10.02605v-11.33854q-3.13542.18229-7.40105.54687-4.22917.36458-6.70834 1.05729-2.95312.83854-4.77604 2.625-1.82292 1.75-1.82292 4.84896 0 3.50001 2.11459 5.28647 2.11458 1.75 6.45312 1.75 3.60938 0 6.59897-1.38542 2.98958-1.42188 5.54167-3.39063zm41.16148 9.66147q-1.93229.51041-4.22917.83854-2.26041.32812-4.04687.32812-6.23438 0-9.47917-3.35417-3.2448-3.35416-3.2448-10.75521v-21.65626h-4.63021v-5.76042h4.63021v-11.70313h6.85417v11.70313h14.14584v5.76042h-14.14584v18.5573q0 3.20834.14584 5.03125.14583 1.78646 1.02083 3.35417.80208 1.45834 2.1875 2.15104 1.42188.65625 4.30209.65625 1.67708 0 3.5-.47395 1.82291-.51042 2.625-.83855h.36458zm42.36459-19.28647H635.8375q0 3.75521 1.13021 6.5625 1.13021 2.77084 3.09896 4.55729 1.89583 1.75001 4.48437 2.62501 2.62501.875 5.76042.875 4.15626 0 8.34897-1.64063 4.22917-1.67708 6.01562-3.28125h.36459v7.47396q-3.46355 1.45834-7.07292 2.44271-3.60938.98438-7.58334.98438-10.13542 0-15.82292-5.46876-5.68751-5.50521-5.68751-15.60417 0-9.98959 5.4323-15.85938 5.46875-5.8698 14.36459-5.8698 8.23959 0 12.6875 4.8125 4.48438 4.81251 4.48438 13.67189zm-6.67188-5.25q-.0364-5.39584-2.73437-8.34897-2.66146-2.95312-8.13021-2.95312-5.50522 0-8.78647 3.24479-3.24479 3.24479-3.68229 8.0573z"/></g></svg>