<svg xmlns="http://www.w3.org/2000/svg" role="img" viewBox="-19.64 -18.64 1073.28 465.28"><title>Qlik Compose logo</title><path fill="#606163" d="M187.325 157.728c0 37.561-30.445 68.02-68.006 68.02-37.568 0-68.016-30.459-68.016-68.02 0-37.563 30.448-68.023 68.016-68.023 37.561 0 68.006 30.459 68.006 68.023m58.655 100.234s4.485-5.171-.674-9.675l-28.351-24.636c12.749-18.805 20.176-41.499 20.176-65.924 0-65.069-52.74-117.831-117.813-117.831-65.07 0-117.82 52.761-117.82 117.831s52.75 117.828 117.82 117.828c23.818 0 45.938-7.136 64.463-19.288l31.084 27.023s5.186 4.502 9.691-.681zm79.404 9.439V48.03c0-8.037-8.019-8.037-8.019-8.037h-35.321c-8.026 0-8.026 8.037-8.026 8.037v219.372c0 8.028 8.026 8.028 8.026 8.028h35.321c8.019 0 8.019-8.029 8.019-8.029m86.727-197.105v-22.67s0-7.729-7.731-7.729h-33.94s-7.705 0-7.705 7.729v22.67s0 7.718 7.705 7.718h33.94s7.731 0 7.731-7.718m1.31 197.105V109.043c0-8.012-8.021-8.012-8.021-8.012h-34.652c-8.012 0-8.012 8.012-8.012 8.012v158.358c0 8.028 8.012 8.028 8.012 8.028H405.4c8.021.001 8.021-8.028 8.021-8.028m148.547-97.141c-4.165-6.864 1.422-12.64 1.422-12.64l48.847-50.496c5.575-5.764-2.431-5.764-2.431-5.764h-45.633c-8.028 0-13.543 5.834-13.543 5.834l-45.333 48.019c-5.5 5.834-5.5-2.178-5.5-2.178V48.03c0-8.037-8.039-8.037-8.039-8.037h-34.602c-7.721 0-7.721 7.729-7.721 7.729v219.68c0 8.028 8.012 8.028 8.012 8.028h34.3c7.706 0 7.706-7.723 7.706-7.723v-38.603c0-8.016 5.846-13.516 5.846-13.516l16.156-15.188 40.583 68.14c4.103 6.89 12.142 6.89 12.142 6.89h43.288c8.028 0 3.878-6.866 3.878-6.866z"/><path fill="#61a730" d="M930.301 156.15c0 52.123-42.245 94.39-94.365 94.39-52.135 0-94.388-42.267-94.388-94.401 0-52.111 42.253-94.377 94.388-94.377 52.12-.001 94.365 42.265 94.365 94.388m78.515 117.984l-42.994-36.069c14.99-23.708 23.715-51.787 23.715-81.914 0-84.835-68.767-153.602-153.602-153.602-84.834 0-153.612 68.767-153.612 153.59 0 84.824 68.778 153.614 153.612 153.614 32.901 0 63.371-10.374 88.39-28.007l45.828 38.454s6.816 5.723 12.52-1.08l27.234-32.45s5.712-6.819-1.091-12.536"/><path fill="#606163" d="M775.434 156.139c0-33.413 27.066-60.491 60.491-60.491 33.413 0 60.49 27.078 60.49 60.514 0 33.415-27.077 60.493-60.49 60.481-33.425 0-60.491-27.067-60.491-60.504m239.95-105.122h4.076c2.351 0 4.009-.519 4.009-3.259 0-2.337-1.777-3.237-4.009-3.237h-4.076zm0 9.725h-1.971V42.789h6.526c3.08 0 5.499 1.578 5.499 4.969 0 2.833-1.544 4.72-4.256 5.002l5.052 7.981h-2.455l-4.768-7.981h-3.628v7.982zm3.392-21.699c-6.947 0-12.353 5.679-12.353 12.768 0 7.128 5.298 12.749 12.353 12.749s12.353-5.621 12.353-12.749c0-7.089-5.298-12.768-12.353-12.768m-14.713 12.768c0-8.144 6.651-14.723 14.714-14.723 8.156 0 14.725 6.651 14.725 14.723 0 8.063-6.568 14.714-14.725 14.714-8.063 0-14.714-6.651-14.714-14.714"/><g><path d="M362.10265 407.28128q-2.00521.875-3.64583 1.64062-1.60417.76563-4.22917 1.60417-2.22396.69271-4.84896 1.16667-2.58854.51042-5.72396.51042-5.90625 0-10.75521-1.64063-4.81251-1.67708-8.38543-5.21354-3.5-3.46355-5.46875-8.78647-1.96875-5.35937-1.96875-12.43229 0-6.70834 1.89584-11.9948 1.89583-5.28646 5.46875-8.9323 3.46354-3.53646 8.34896-5.39583 4.92188-1.85938 10.90105-1.85938 4.375 0 8.71354 1.05729 4.375 1.0573 9.69792 3.71875v8.56772h-.54687q-4.48438-3.75521-8.89584-5.46876-4.41146-1.71354-9.44271-1.71354-4.1198 0-7.43751 1.34896-3.28125 1.3125-5.86979 4.11979-2.51563 2.73438-3.9375 6.92709-1.38542 4.15625-1.38542 9.62501 0 5.72396 1.53125 9.84375 1.56771 4.11979 4.01042 6.70834 2.55209 2.69792 5.94271 4.01042 3.42709 1.27604 7.21876 1.27604 5.21354 0 9.77083-1.78646 4.5573-1.78646 8.53126-5.35938h.51041zm44.36982-16.40626q0 9.95313-5.10417 15.71355t-13.67188 5.76042q-8.64063 0-13.7448-5.76042-5.06771-5.76042-5.06771-15.71355t5.06771-15.71355q5.10417-5.79688 13.7448-5.79688 8.56771 0 13.67188 5.79688 5.10417 5.76042 5.10417 15.71355zm-7.07292 0q0-7.91146-3.09896-11.73959-3.09896-3.86458-8.60417-3.86458-5.57813 0-8.67709 3.86458-3.0625 3.82813-3.0625 11.73959 0 7.65625 3.09896 11.63021 3.09896 3.93751 8.64063 3.93751 5.46875 0 8.56771-3.90105 3.13542-3.9375 3.13542-11.66667zm77.10941 20.34376h-6.85417v-23.18751q0-2.625-.25521-5.06771-.21875-2.44271-.98438-3.90104-.83854-1.56771-2.40625-2.3698-1.56771-.80208-4.52083-.80208-2.88021 0-5.76042 1.45833-2.88021 1.42188-5.76042 3.64584.10937.83854.18229 1.96875.0729 1.09375.0729 2.1875v26.06772h-6.85417v-23.18751q0-2.69792-.25521-5.10417-.21875-2.44271-.98438-3.90104-.83854-1.56771-2.40625-2.33334-1.56771-.80208-4.52083-.80208-2.8073 0-5.65105 1.38542-2.80729 1.38541-5.61458 3.53646v30.40626h-6.85417V370.4948h6.85417v4.52084q3.20833-2.66146 6.38021-4.15625 3.20833-1.4948 6.81771-1.4948 4.15625 0 7.03646 1.75 2.91667 1.75001 4.33854 4.84897 4.15626-3.50001 7.58334-5.03126 3.42709-1.56771 7.32813-1.56771 6.70834 0 9.88021 4.08334 3.20834 4.04688 3.20834 11.33855zm49.03649-20.85418q0 4.95834-1.42187 9.07813-1.42188 4.08334-4.01042 6.92709-2.40625 2.69792-5.68751 4.19271-3.24479 1.45833-6.89062 1.45833-3.17188 0-5.76042-.6927-2.55209-.69271-5.21355-2.15105v17.06251h-6.85417V370.4948h6.85417v4.26563q2.73438-2.29688 6.125-3.82813 3.42709-1.56771 7.29168-1.56771 7.36458 0 11.44792 5.57813 4.11979 5.54167 4.11979 15.42188zm-7.07292.1823q0-7.36459-2.51563-11.01043-2.51562-3.64583-7.72917-3.64583-2.95312 0-5.94271 1.27604-2.98958 1.27604-5.72396 3.35417v23.07814q2.91667 1.3125 4.9948 1.78645 2.11458.47396 4.77604.47396 5.72396 0 8.9323-3.86458 3.20833-3.86459 3.20833-11.44792zm52.46356.32812q0 9.95313-5.10417 15.71355t-13.67189 5.76042q-8.64062 0-13.74479-5.76042-5.06771-5.76042-5.06771-15.71355t5.06771-15.71355q5.10417-5.79688 13.74479-5.79688 8.56772 0 13.67189 5.79688 5.10417 5.76042 5.10417 15.71355zm-7.07292 0q0-7.91146-3.09896-11.73959-3.09896-3.86458-8.60418-3.86458-5.57812 0-8.67708 3.86458-3.0625 3.82813-3.0625 11.73959 0 7.65625 3.09896 11.63021 3.09896 3.93751 8.64062 3.93751 5.46876 0 8.56772-3.90105 3.13542-3.9375 3.13542-11.66667zm46.77608 8.60417q0 5.57813-4.63021 9.15105-4.59375 3.57292-12.57813 3.57292-4.52084 0-8.31251-1.0573-3.75521-1.09375-6.30729-2.36979v-7.69271h.36458q3.24479 2.44271 7.21876 3.90104 3.97396 1.42188 7.61979 1.42188 4.52084 0 7.07292-1.45834 2.55209-1.45833 2.55209-4.59375 0-2.40625-1.38542-3.64583-1.38542-1.23959-5.32292-2.11459-1.45834-.32812-3.82813-.76562-2.33333-.4375-4.26563-.94792-5.35937-1.42188-7.61979-4.15625-2.22396-2.77084-2.22396-6.78126 0-2.51562 1.02083-4.73958 1.0573-2.22396 3.17188-3.97396 2.04167-1.71354 5.17709-2.69792 3.17187-1.02083 7.07292-1.02083 3.64583 0 7.36458.91146 3.75521.875 6.23438 2.15104v7.32813h-.36458q-2.625-1.9323-6.38021-3.2448-3.75521-1.34895-7.36459-1.34895-3.75521 0-6.34375 1.45833-2.58855 1.42187-2.58855 4.26563 0 2.51562 1.56771 3.79166 1.53125 1.27605 4.95834 2.07813 1.89583.4375 4.22917.875 2.36979.4375 3.9375.80208 4.77604 1.09376 7.36459 3.75521 2.58854 2.69792 2.58854 7.14584zm43.89585-7.91146h-30.00522q0 3.75521 1.13021 6.5625 1.13021 2.77084 3.09896 4.5573 1.89583 1.75 4.48438 2.625 2.625.875 5.76042.875 4.15625 0 8.34896-1.64063 4.22917-1.67708 6.01563-3.28125h.36458v7.47396q-3.46354 1.45834-7.07292 2.44271-3.60938.98438-7.58334.98438-10.13542 0-15.82292-5.46875-5.6875-5.50522-5.6875-15.60418 0-9.98959 5.43229-15.85938 5.46875-5.8698 14.36459-5.8698 8.23959 0 12.68751 4.81251 4.48437 4.8125 4.48437 13.67188zm-6.67187-5.25q-.0365-5.39584-2.73438-8.34897-2.66146-2.95312-8.13021-2.95312-5.50521 0-8.78646 3.24479-3.2448 3.24479-3.6823 8.0573z"/></g></svg>