<svg xmlns="http://www.w3.org/2000/svg" role="img" viewBox="-19.64 -18.64 1073.28 361.28"><title>Qlik Sense logo</title><path fill="#606163" d="M187.325 157.728c0 37.561-30.445 68.02-68.006 68.02-37.568 0-68.016-30.459-68.016-68.02 0-37.563 30.448-68.023 68.016-68.023 37.561 0 68.006 30.459 68.006 68.023m58.655 100.234s4.485-5.171-.674-9.675l-28.351-24.636c12.749-18.805 20.176-41.499 20.176-65.924 0-65.069-52.74-117.831-117.813-117.831-65.07 0-117.82 52.761-117.82 117.831s52.75 117.828 117.82 117.828c23.818 0 45.938-7.136 64.463-19.288l31.084 27.023s5.186 4.502 9.691-.681l21.424-24.647zm79.404 9.439V48.03c0-8.037-8.019-8.037-8.019-8.037h-35.321c-8.026 0-8.026 8.037-8.026 8.037v219.372c0 8.028 8.026 8.028 8.026 8.028h35.321c8.019 0 8.019-8.029 8.019-8.029m86.727-197.105v-22.67s0-7.729-7.731-7.729h-33.94s-7.705 0-7.705 7.729v22.67s0 7.718 7.705 7.718h33.94s7.731 0 7.731-7.718m1.31 197.105V109.043c0-8.012-8.021-8.012-8.021-8.012h-34.652c-8.012 0-8.012 8.012-8.012 8.012v158.358c0 8.028 8.012 8.028 8.012 8.028H405.4c8.021.001 8.021-8.028 8.021-8.028m148.547-97.141c-4.165-6.864 1.422-12.64 1.422-12.64l48.847-50.496c5.575-5.764-2.431-5.764-2.431-5.764h-45.633c-8.028 0-13.543 5.834-13.543 5.834l-45.333 48.019c-5.5 5.834-5.5-2.178-5.5-2.178V48.03c0-8.037-8.039-8.037-8.039-8.037h-34.602c-7.721 0-7.721 7.729-7.721 7.729v219.68c0 8.028 8.012 8.028 8.012 8.028h34.3c7.706 0 7.706-7.723 7.706-7.723v-38.603c0-8.016 5.846-13.516 5.846-13.516l16.156-15.188 40.583 68.14c4.103 6.89 12.142 6.89 12.142 6.89h43.288c8.028 0 3.878-6.866 3.878-6.866l-59.378-98.304z"/><path fill="#61A730" d="M930.301 156.15c0 52.123-42.245 94.39-94.365 94.39-52.135 0-94.388-42.267-94.388-94.401 0-52.111 42.253-94.377 94.388-94.377 52.12-.001 94.365 42.265 94.365 94.388m78.515 117.984l-42.994-36.069c14.99-23.708 23.715-51.787 23.715-81.914 0-84.835-68.767-153.602-153.602-153.602-84.834 0-153.612 68.767-153.612 153.59 0 84.824 68.778 153.614 153.612 153.614 32.901 0 63.371-10.374 88.39-28.007l45.828 38.454s6.816 5.723 12.52-1.08l27.234-32.45s5.712-6.819-1.091-12.536"/><path fill="#606163" d="M775.434 156.139c0-33.413 27.066-60.491 60.491-60.491 33.413 0 60.49 27.078 60.49 60.514 0 33.415-27.077 60.493-60.49 60.481-33.425 0-60.491-27.067-60.491-60.504m239.95-105.122h4.076c2.351 0 4.009-.519 4.009-3.259 0-2.337-1.777-3.237-4.009-3.237h-4.076v6.496zm0 9.725h-1.971V42.789h6.526c3.08 0 5.499 1.578 5.499 4.969 0 2.833-1.544 4.72-4.256 5.002l5.052 7.981h-2.455l-4.768-7.981h-3.628v7.982zm3.392-21.699c-6.947 0-12.353 5.679-12.353 12.768 0 7.128 5.298 12.749 12.353 12.749s12.353-5.621 12.353-12.749c0-7.089-5.298-12.768-12.353-12.768m-14.713 12.768c0-8.144 6.651-14.723 14.714-14.723 8.156 0 14.725 6.651 14.725 14.723 0 8.063-6.568 14.714-14.725 14.714-8.063 0-14.714-6.651-14.714-14.714"/></svg>