<svg xmlns="http://www.w3.org/2000/svg" role="img" viewBox="-139.00 146.00 624.00 265.50"><title>Qubole logo</title><style>svg {enable-background:new -153 -46 652 652}</style><style>.st0{fill:#1474a2}</style><path d="M116.1 158h-233.6c-5.2 0-9.4 4.2-9.4 9.5v222.7c0 5.2 4.2 9.5 9.4 9.5h233.6c5.2 0 9.5-4.3 9.5-9.5V167.4c0-5.2-4.3-9.4-9.5-9.4M-5.3 359.3l-15.6-17.2h-62.5v-.3l-14.4-16.2V222.2l14.4-16.2v-.3h71.1v.3l14.4 16.2v103.5l-6.4 7.2L8 346.7l-13.3 12.6zm104.9-32.7l-13.9 14.8-1 1H26.8l-1-1L12 326.5v-86.8h22.6V318H77v-78.3h22.6v86.9z" class="st0"/><path d="M-75.2 230h54.5v88.9h-54.5z" class="st0"/><path d="M214.7 247.9h-50.2v-18.2L147.4 212v118.5l12.9 14.3h54.3l12.7-12.7v-70.9l-12.6-13.3zm-4.7 79.6h-45.5v-62.4H210v62.4zm104.7-79.7h-58.5l-11.8 12.6v72.2l11.8 12.5h58.7l11.9-13v-71.4l-12.1-12.9zm-4.2 79.9h-50v-62.3h50v62.3zm49.7 17.2H344V213.1l16.2 16.5v115.3zm33.2-17.2V305h57.8v-44.4l-12.1-12.9h-49.9l-12.1 12.9V332l12.1 12.9h50.2l12-17.2h-58zm.1-62.5h41.8V288h-41.8v-22.8zm66.8-42.6c-7.1 0-12.8 5.7-12.8 12.8 0 7 5.7 12.8 12.8 12.8 7 0 12.8-5.7 12.8-12.8 0-7.1-5.7-12.8-12.8-12.8m0 24c-6.2 0-11.2-5-11.2-11.2 0-6.2 5-11.2 11.2-11.2 6.2 0 11.2 5 11.2 11.2.1 6.2-5 11.2-11.2 11.2m-3.5-6.2v-10.6h4.7c.9 0 1.7.1 2.2.3.5.2.9.5 1.2 1 .3.5.4 1 .4 1.6 0 .8-.2 1.4-.7 1.9-.5.5-1.2.8-2.3 1 .4.2.7.4.8.5.4.4.8.8 1.2 1.4l1.8 2.9h-1.8l-1.4-2.2c-.4-.6-.7-1.1-1-1.5-.3-.3-.5-.6-.7-.7l-.6-.3c-.2 0-.4-.1-.8-.1h-1.6v4.7h-1.4zm1.4-5.9h3c.6 0 1.1-.1 1.5-.2.4-.1.6-.3.8-.6.2-.3.3-.6.3-1 0-.5-.2-.9-.5-1.2-.4-.3-.9-.5-1.7-.5h-3.3v3.5z"/></svg>