<svg xmlns="http://www.w3.org/2000/svg" role="img" viewBox="-3.53 3.47 521.56 110.06"><title>SentryOne Monitoring logo</title><path d="M77.6 21.244l-9.867 14.209s-5.859-4.43-14.953-4.148-16.804 6.367-6.75 10.688c9.755 4.192 22.172 6.492 21.023 19.688-1.086 12.481-11.131 26.18-34.289 26.18-22.312 0-26.039-5.578-26.039-5.578l9.07-14.414s7.453 4.641 19.266 4.359 14.109-7.992 9.234-10.898c-4.875-2.908-24.593-5.19-22.875-19.619 2.109-17.719 16.057-26.734 35.789-25.945 12.084.483 20.391 5.478 20.391 5.478zm47.275 26.706c.07-9.14-6.4-15.82-19.41-15.47-13 .36-24.46 6.12-32.97 21.38s-4.5 30.8 12.02 32.91c16.52 2.11 27.42-2.61 27.42-2.61l2.04-13.99s-9.42 4.22-18.77 2.88c-9.35-1.33-9-4.85-9.14-7.45h34.24s4.5-8.51 4.57-17.65zm-16.66 5.77l-18-.42s4.07-7.53 11.74-7.03c7.66.49 6.26 7.45 6.26 7.45z"/><path fill="#D2202F" d="M508.477 47.95c.07-9.14-6.4-15.82-19.41-15.47-13 .36-24.46 6.12-32.97 21.38s-4.5 30.8 12.02 32.91c16.52 2.11 27.42-2.61 27.42-2.61l2.04-13.99s-9.42 4.22-18.77 2.88c-9.35-1.33-9-4.85-9.14-7.45h34.24s4.5-8.51 4.57-17.65zm-16.66 5.77l-18-.42s4.07-7.53 11.74-7.03c7.66.49 6.26 7.45 6.26 7.45z"/><path d="M136.688 35.25l-17.062 51.188h17.062l13.406-39.188s5.062 0 8.812-.094 3.094 4.688 2.531 7.031-10.312 32.25-10.312 32.25H168s8.812-27.094 10.875-33.188 1.031-19.5-12.469-20.344-29.718 2.345-29.718 2.345z"/><path fill="#D2202F" d="M408.75 35.25l-17.062 51.188h17.062l13.406-39.188s5.062 0 8.812-.094 3.094 4.688 2.531 7.031-10.312 32.25-10.312 32.25h16.875s8.812-27.094 10.875-33.188 1.031-19.5-12.469-20.344-29.718 2.345-29.718 2.345z"/><path d="M194.531 21.094l18.188-2.25-4.594 15h18.188l-4.594 14.344H203.25s-4.969 16.312-6.094 19.594-.094 6 5.719 5.625 10.5-1.688 10.5-1.688l-1.594 13.219S204 88.126 195 87.75s-18.562-5.659-16.219-16.939 15.75-49.717 15.75-49.717zm39.094 15.187l-16.219 50.062h17.25l13.031-38.812s4.781-1.219 9.188-.562 6.938 1.969 6.938 1.969l7.781-13.406s-8.156-3-17.625-2.719-20.344 3.468-20.344 3.468z"/><path d="M270.281 33.562s-.744 10.734.75 22.688 3.375 27 3.375 27-4.594 6.844-10.594 6.938S255 88.219 255 88.219l-7.594 13.312s5.906 2.625 14.531 2.438 15.375-4.219 22.406-12 10.406-11.812 19.781-24.562 23.344-33.844 23.344-33.844h-18.562l-19.4 30.709-.729 1.153-.402-1.206L288 33.562h-17.719z"/><path fill="#D2202F" d="M373.645 13.92c-23.63 0-36.71 17.28-40.93 23.77-11.25 17.29-13.058 42.575 6.89 48.65 20.02 6.097 40.926-2.903 51.33-19.4 10.593-16.797 18.19-53.02-17.29-53.02zm1.96 46.55c-7.31 10.55-20.39 15.76-28.54 10.34-8.16-5.42-4.08-19.48.84-27.78 6.49-10.94 17.58-16.45 27.7-12.51 10.13 3.93 7.32 19.4 0 29.95z"/></svg>