<svg xmlns="http://www.w3.org/2000/svg" role="img" viewBox="5.77 59.77 168.22 58.97"><title>SnapLogic Platform logo</title><style>svg {enable-background:new 0 0 180 180}</style><style>.st0{fill:#74b366}.st1{fill:#652d7a}</style><path d="M81.85 77.64c-1.84-1.84-4.09-2.78-6.66-2.78-2.17 0-4.13.7-5.86 2.09v-1.94h-3.55v32.1h3.55V91.64c1.65 1.33 3.62 2 5.86 2 1.26 0 2.48-.24 3.62-.7 1.74-.7 3.16-1.86 4.22-3.44 1.06-1.58 1.6-3.33 1.6-5.21 0-2.57-.94-4.81-2.78-6.65zm-11.08 2.59c.11-.1.19-.17.23-.22 1.11-1.11 2.48-1.65 4.2-1.66l.03-.55v.55c1.54 0 2.89.59 4.1 1.81l.05.04c.04.03.1.09.18.17 1.02 1 1.51 2.28 1.51 3.91 0 1.62-.56 2.97-1.72 4.12-1.16 1.16-2.52 1.73-4.2 1.73-1.75 0-3.11-.5-4.16-1.52-.54-.53-.99-1.22-1.33-2.05-.32-.79-.48-1.56-.47-2.29.01-1.66.53-2.99 1.58-4.04z" class="st0"/><path d="M91.35 89.49v-26.5h-3.72v30.07h11.94v-3.57zm73.58-1.31l-.39.39c-1.16 1.16-2.53 1.73-4.2 1.73-1.69 0-3.04-.54-4.11-1.65-1.08-1.12-1.6-2.49-1.6-4.2 0-1.73.49-3.1 1.45-4.08.11-.09.18-.16.21-.19 1.09-1.08 2.41-1.61 4.05-1.61 1.65 0 3 .54 4.13 1.66l.39.39 2.44-2.54-.4-.38c-1.83-1.75-4.04-2.63-6.55-2.63-2.58 0-4.81.92-6.63 2.73-1.81 1.82-2.73 4.05-2.73 6.63 0 2.61.91 4.84 2.71 6.64 1.8 1.8 4.03 2.71 6.64 2.71 2.58 0 4.83-.91 6.7-2.7l.4-.39-2.51-2.51z" class="st1"/><path d="M16.27 82.29c-1.52-.78-2.13-1.3-2.37-1.59-.3-.36-.44-.7-.44-1.07 0-.41.16-.75.51-1.07.36-.34.77-.49 1.29-.49.9 0 1.86.5 2.87 1.47l.55.53 2.45-2.53-.55-.53c-1.71-1.65-3.46-2.49-5.21-2.49-1.53 0-2.82.5-3.84 1.48-1.02.99-1.54 2.25-1.54 3.73 0 1.14.32 2.17.96 3.06.61.86 1.75 1.72 3.37 2.55 1.64.84 2.26 1.34 2.49 1.6.29.35.43.72.43 1.17 0 .54-.21.99-.67 1.41-.46.42-1.04.64-1.7.64-1.01 0-2-.54-2.95-1.62l-.57-.64L9 90.57l.39.5c.65.83 1.48 1.5 2.46 1.97s2.03.71 3.11.71c1.66 0 3.06-.56 4.17-1.66 1.12-1.1 1.68-2.47 1.68-4.05 0-1.14-.34-2.18-1-3.1-.64-.88-1.84-1.76-3.54-2.65zm23.17-3.77c-.52-1.22-1.34-2.2-2.44-2.92-1.1-.72-2.36-1.08-3.77-1.08-1.36 0-2.64.32-3.8.95-.61.33-1.2.76-1.76 1.27v-1.79h-3.69V93.3h3.69v-6.93c0-2.67.16-3.86.29-4.39.29-1.12.89-2.07 1.8-2.82.89-.75 1.91-1.12 3.03-1.12.97 0 1.74.23 2.31.68.57.45.96 1.15 1.18 2.1.1.4.22 1.38.22 3.7v8.79h3.69v-9.42c0-2.39-.25-4.19-.75-5.37zm19.06-3.5v1.84c-.57-.53-1.18-.96-1.83-1.31-1.22-.64-2.61-.97-4.1-.97-2.59 0-4.84.95-6.68 2.81-1.84 1.86-2.77 4.13-2.77 6.75 0 2.67.92 4.97 2.75 6.83 1.83 1.87 4.06 2.82 6.65 2.82 1.45 0 2.81-.31 4.04-.91.69-.34 1.34-.78 1.96-1.31v1.79h3.65V75.02H58.5zm.14 9.26c0 1.14-.25 2.17-.76 3.07-.5.89-1.23 1.61-2.16 2.13-1.85 1.04-4.14 1.04-5.91 0-.9-.53-1.63-1.29-2.17-2.24-.54-.96-.81-1.98-.81-3.03 0-1.06.27-2.08.81-3.03.53-.95 1.26-1.69 2.15-2.21.9-.52 1.89-.79 2.96-.79 1.65 0 3.07.58 4.19 1.74 1.13 1.16 1.7 2.63 1.7 4.36z" class="st0"/><path d="M133.97 96.95v-3.3c1.83-.33 3.46-1.18 4.86-2.54 1.79-1.74 2.7-3.98 2.7-6.65.01-2.67-.9-4.94-2.7-6.73-1.8-1.79-4.03-2.7-6.62-2.7-2.6 0-4.85.93-6.68 2.76-1.38 1.38-2.24 2.99-2.59 4.82h-3.3c-.33-1.89-1.18-3.53-2.55-4.89-1.8-1.79-4.03-2.7-6.62-2.7-2.6 0-4.85.93-6.68 2.76-1.83 1.83-2.76 4.08-2.76 6.68 0 1.22.23 2.42.69 3.57.49 1.24 1.17 2.28 2.02 3.08 1.89 1.79 4.15 2.7 6.71 2.7 2.56 0 4.8-.91 6.64-2.7 1.37-1.34 2.22-2.97 2.55-4.85h3.3c.11.61.29 1.21.52 1.8.49 1.24 1.17 2.28 2.02 3.08 1.42 1.34 3.05 2.19 4.85 2.53v3.32c-1.82.34-3.43 1.21-4.8 2.58-1.83 1.83-2.76 4.08-2.76 6.68 0 1.21.23 2.41.69 3.57.49 1.24 1.17 2.28 2.02 3.08 1.89 1.79 4.15 2.7 6.71 2.7 2.56 0 4.8-.91 6.64-2.7 1.79-1.74 2.7-3.98 2.7-6.65.01-2.67-.9-4.94-2.7-6.73-1.38-1.4-3.01-2.25-4.86-2.57zm-19.6-8.16c-1.12 1.12-2.4 1.66-3.91 1.66-1.52 0-2.87-.62-4.13-1.89-1.12-1.12-1.66-2.46-1.66-4.12 0-1.71.54-3.09 1.66-4.21l.12-.12c1.12-1.13 2.43-1.67 4.01-1.67 1.56 0 2.91.59 4.12 1.79 1.07 1.07 1.59 2.45 1.59 4.21 0 1.72-.59 3.14-1.8 4.35zm12.04-4.33c0-1.71.54-3.09 1.66-4.21l.12-.12c1.12-1.13 2.43-1.67 4.01-1.67 1.56 0 2.91.59 4.12 1.79 1.07 1.07 1.59 2.45 1.59 4.21 0 1.72-.59 3.14-1.79 4.34-1.12 1.12-2.4 1.66-3.92 1.66s-2.87-.62-4.13-1.89c-1.12-1.11-1.66-2.46-1.66-4.11zm9.7 26.11c-1.12 1.12-2.4 1.66-3.92 1.66s-2.87-.62-4.13-1.89c-1.12-1.12-1.66-2.46-1.66-4.12 0-1.71.54-3.09 1.66-4.21l.12-.12c1.12-1.13 2.43-1.67 4.01-1.67 1.56 0 2.91.59 4.12 1.79 1.07 1.07 1.59 2.45 1.59 4.21 0 1.72-.58 3.14-1.79 4.35z" class="st1"/><path d="M144.35 75.52h3.83v17.54h-3.83zm1.9-1.41c.69 0 1.31-.26 1.8-.75.5-.5.75-1.1.75-1.79s-.26-1.32-.75-1.8c-.48-.48-1.12-.75-1.8-.75-.68 0-1.31.27-1.79.75-.49.49-.75 1.11-.75 1.81 0 .69.25 1.29.75 1.79.5.48 1.11.74 1.79.74z" class="st1"/><g><path d="M169.49 75.33c.7 0 1.28.55 1.28 1.27 0 .74-.59 1.29-1.28 1.29-.7 0-1.29-.55-1.29-1.29 0-.72.59-1.27 1.29-1.27zm0 2.37c.59 0 1.05-.47 1.05-1.1 0-.61-.46-1.09-1.05-1.09-.6 0-1.06.47-1.06 1.09 0 .63.46 1.1 1.06 1.1zm-.5-1.84h.58c.36 0 .52.14.52.43 0 .27-.17.38-.39.41l.43.66h-.25l-.41-.64h-.25v.64h-.23v-1.5zm.23.67h.24c.21 0 .39-.01.39-.25 0-.2-.17-.23-.33-.23h-.31v.48z" class="st1"/></g></svg>