<svg xmlns="http://www.w3.org/2000/svg" role="img" viewBox="-0.78 33.22 768.56 316.56"><title>Snowflake Snowsight logo</title><style>.st619{fill:#29b4e7}</style><style>.st619{fill:#29b4e7}</style><style>.st619{fill:#29b4e7}</style><style>.st619{fill:#29b4e7}</style><style id="style2" type="text/css">.st619{fill:#29b4e7}</style><g id="g36" transform="translate(0 36)"><path id="path4" d="M33.4 129.4c11.3-6.3 22.6-12.6 34-18.8 4.1-2.2 7-5.2 7-10.1 0-4.8-2.9-7.8-7-10.1C56.2 84.3 45 78.1 33.8 71.8c-9-5-14.3-3.6-19.3 5.2v5.7c2.2 3.9 5.5 6.3 9.4 8.3 5.6 2.9 11 6.1 17.1 9.5-6 3.4-11.3 6.5-16.8 9.3-4 2.1-7.6 4.5-9.8 8.5v5.7c4.9 8.7 10.4 10.2 19 5.4z" class="st619"/><path id="path6" d="M133.1 169.6c-.4-5.2 0-10.5-.1-15.8-.1-2.9.5-3.7 3.3-2.1 6.3 3.6 12.7 7.1 19.2 10.3 5.6 2.7 12.4.2 14.9-5 2.6-5.3.7-10.7-5.1-13.9-12.5-6.9-25.1-13.6-37.7-20.4-7.6-4.1-17.5.6-17.2 10.5.4 12.3.4 24.6 0 36.8-.2 6.8 2.1 11.4 8.5 13.9h5.7c6.6-2.5 9-7.3 8.5-14.3z" class="st619"/><path id="path8" d="M70.1 24.2c.2 3.1.1 6.2 0 9.3-.1 4.1.4 8.2-.4 12.6-7.3-4-14.2-8-21.3-11.6-5.7-2.9-12.2-.7-15 4.6-2.7 5.2-1 10.9 4.7 14.1 12.3 7 24.7 13.9 37.1 20.6 8.6 4.6 16.9-.7 16.9-10.5 0-12.3-.2-24.6.1-36.8.2-6.7-2.1-11.4-8.2-14.2h-5.7c-5.1 2.2-8.5 5.6-8.2 11.9z" class="st619"/><path id="path10" d="M110.1 23.6c.1 13.5-.1 27 0 40.5.1 8.6 8.2 14.1 15.8 10.2 13.3-6.9 26.3-14.3 39.3-21.8 4.3-2.5 5.7-7.2 4.3-11.6-1.5-4.7-5.3-7.5-10.3-7.7-2.9-.1-5.2 1-7.6 2.3-6.3 3.5-12.6 7-19.5 10.7 0-7.2-.3-13.7.1-20.1.4-6.8-2-11.5-8.4-14h-5.7c-4.6 2.5-8.1 5.6-8 11.5z" class="st619"/><path id="path12" d="M92.6 170.3c-.4-12.3-.6-24.6 0-36.8.6-11.1-10.3-14.6-17.8-10.1-11.2 6.8-22.7 12.9-34.1 19.4-6.1 3.5-8.1 9.6-5 15 3 5.3 9.5 6.8 15.5 3.4 5.4-3 10.9-5.9 16.2-9.2 3.5-2.2 3.8-.9 3.7 2.4-.2 5.3.3 10.5-.1 15.8-.5 6.7 2.1 11.2 8.2 13.7h5.7c5.8-2.7 7.9-7.1 7.7-13.6z" class="st619"/><path id="path14" d="M709.4 70.7c-17.9 5.9-27.2 25.8-20 42.8 6.1 14.4 21.9 22.8 37.9 20 10-1.8 17.6-7.1 23.4-15.3 1.7-2.4 1.3-4.7-1-6.3-2.1-1.5-4.4-1.1-6.2.9-.6.7-1.1 1.5-1.7 2.3-6.5 8.4-15.3 11.5-25.5 9.6-9.5-1.7-16-7.3-19-16.7-1.1-3.3-.4-4.2 3.1-4.1 15.4.2 30.8 0 46.2.1 2.7 0 5-.5 6.9-2.5v-4.9c-.8-.7-.7-1.7-.9-2.6-4.6-18.8-24.4-29.5-43.2-23.3zM739.7 95c-6.5-.1-12.9 0-19.4 0-6.7 0-13.5-.1-20.2 0-2.4 0-2.7-.7-1.8-2.9 3.2-8.2 12.2-14.3 21.6-14.4 9.9-.1 18.8 5.6 22.3 13.9 1.1 3 .2 3.5-2.5 3.4z" class="st619"/><path id="path16" d="M184.4 111.6c-6.3-3.6-12.7-7.1-19.9-11.1 7.1-4 13.6-7.5 20-11.2 6.2-3.5 8.2-9.1 5.4-14.5-2.8-5.5-9.4-7.6-15.3-4.5-12.7 6.8-25.4 13.7-37.8 21-7.7 4.4-7.6 14 .1 18.4 12.4 7.1 24.9 14 37.5 20.8 6 3.2 12.4 1.3 15.4-4.1 3-5.5 1-11.2-5.4-14.8z" class="st619"/><path id="path18" d="M617.5 69c-2.6.1-4.1 1.8-4.3 4.5-.1 1.4 0 2.9 0 4.5-18.7-12.3-33.1-11.9-45.3.9-10.9 11.3-11.9 29-2.4 42 5.7 7.7 13.4 12 22.9 12.8 9.5.8 17.5-3 24.8-9.5v2.4c.1 5.1 1.4 7.2 4.5 7.2 3 0 4.5-2.3 4.5-7.2V81.3c0-2.6.1-5.1 0-7.7-.2-2.9-1.8-4.7-4.7-4.6zm-27.6 55.8c-12-.2-22.1-11.2-21.9-24 .2-13 10.6-23.3 23.1-23.2 12.1.2 22.2 10.9 22.1 23.8-.1 13.3-10.4 23.6-23.3 23.4z" class="st619"/><path id="path20" d="M479.8 69.3c-3.9-1.1-5.2 1.6-6.3 4.6-3.1 8.5-6.2 16.9-9.3 25.4-2.2 5.9-4.4 11.8-6.9 18.5-4.2-10-8.1-19.2-12-28.3-1.1-2.5-1.9-5.2-5.4-5.2-3.5 0-4.3 2.8-5.4 5.2-3.9 9.2-7.8 18.3-12 28.2-.8-2.1-1.4-3.5-1.9-4.9-4.9-13.3-9.8-26.5-14.7-39.8-1-2.8-2.7-5-6-3.8-3.2 1.2-3.3 3.7-2.2 6.7 6.7 17.8 13.4 35.5 20 53.3.9 2.3 2 4.3 4.7 4.4 2.7.1 3.9-1.9 4.8-4.2 3.5-8.3 7-16.7 10.5-24.9.6-1.4.8-3 2.5-4.2 4.1 9.7 8.1 19.1 12.1 28.5 1 2.4 2 5 5.2 4.8 3.2-.2 4-2.7 5-5.2 6.5-17.3 12.9-34.5 19.4-51.8 1.4-3.8.8-6.5-2.1-7.3z" class="st619"/><path id="path22" d="M679.2 74.9c2.3-2.3 4.4-4.7 1.6-8-2-2.3-4.5-1.7-7.8 1.6-6.6 6.8-13.1 13.6-19.8 20.3-4 4-8.2 7.7-12.4 11.7V46.3c0-1.3.1-2.7-.1-4-.4-2.4-1.9-4-4.4-4-2.5 0-3.8 1.8-4.2 4.1-.2.9-.1 1.9-.1 2.8v81.4c0 1.1-.1 2.2.1 3.2.4 2.2 1.7 3.8 4 3.9 2.3.1 3.8-1.3 4.4-3.5.3-1.1.4-2.4.2-3.6-1.3-8.3 1.3-14.7 7.8-20.2 3-2.5 4.3-2.8 6.2.4.3.5.6.9 1 1.3 6.1 7.8 12.2 15.5 18.2 23.3 1.7 2.2 3.8 3.3 6.3 1.5 2.4-1.8 2.6-4.3.9-6.8-.5-.8-1.1-1.5-1.7-2.3-6.4-8.2-12.6-16.5-19.1-24.6-1.8-2.2-1.6-3.4.3-5.3 6.2-6.2 12.3-12.7 18.6-19z" class="st619"/><path id="path24" d="M365.6 68.9c-17.3-.1-31.7 14.5-31.9 32-.1 17.9 14.2 32.8 31.5 32.8s31.6-14.6 31.7-32.2c.1-17.7-14.1-32.5-31.3-32.6zm-.3 55.9c-12.2 0-22.5-10.6-22.6-23.3-.1-12.9 10.2-23.8 22.5-23.8 12.4 0 22.7 10.8 22.6 23.7 0 12.8-10.3 23.4-22.5 23.4z" class="st619"/><path id="path26" d="M294.9 69c-5.6.5-10.6 2.8-15.3 6.5-.2-1-.2-1.6-.4-2.2-.5-2.5-1.7-4.4-4.5-4.2-2.9.2-4.2 2.2-4.2 5v55.1c0 3.1 2.7 5.3 5.3 4.5 2.8-.8 3.5-3 3.5-5.7 0-10.5-.1-21.1 0-31.6.1-10.6 7.9-18.5 17.9-18.5 10.2 0 17.8 7.8 17.8 18.5.1 10.4.1 20.8 0 31.2 0 3.2.7 5.7 4.3 6.1 2.9.3 4.6-2.1 4.6-6.2 0-10.7.1-21.3 0-32-.1-15.7-13.4-27.8-29-26.5z" class="st619"/><path id="path28" d="M248.2 99.9c-6.9-2.8-14-4.9-20.9-7.5-2.7-1-5.3-2.5-5.3-5.9 0-3.3 2.1-5.4 4.9-6.9 6.6-3.4 13-2.9 19.1 1.1 1.5 1 2.8 2.1 4.3 3.1 1.6 1 3.4 1.1 4.8-.5 1.3-1.4 1-3 0-4.4-.6-.9-1.3-1.8-2-2.5-8.8-8.7-23.9-9.9-33.9-2.7-9.8 7-9.2 20 1.3 26 4.3 2.4 9 3.5 13.7 4.9 4.3 1.3 8.6 2.5 12.3 5.1 4 2.9 4.4 7.1 1 10.7-1.7 1.8-3.9 2.9-6.3 3.6-7.6 2.1-14.7.5-21.4-3.3-2.3-1.3-4.8-2.7-6.7.4-1.8 3 .5 4.8 2.6 6.3 5.8 4.3 12.5 6 19.7 6.4 2.9.2 5.7-.4 8.4-1.1 2.1-.5 4.1-1.4 5.9-2.5 6.2-3.6 9.8-8.8 9.6-16.2-.4-7.2-4.9-11.6-11.1-14.1z" class="st619"/><path id="path30" d="M526.2 38.3c-6.8-1.9-15.7 2.4-18.5 9.1-2 4.7-2.3 9.7-2.1 14.7.1 2.9-.5 4.1-3.7 3.9-5.3-.2-7.6 1.3-7.7 4.5-.1 3.3 2.4 5.1 7.7 4.9 3.3-.1 3.7 1.1 3.7 3.9-.2 8-.1 15.9-.1 23.9v25.1c0 3.1 1.3 5.5 4.6 5.4 3.1-.1 4.3-2.4 4.2-5.3v-2.8-42.9c0-6.7 0-6.7 6.7-7.2 3.2-.2 5.2-1.8 5.2-5 0-3.1-2.3-4.3-5.2-4.5-7-.6-7-.6-6.7-7.6 0-.9 0-1.9.2-2.8.9-6.2 2.3-7.4 8.6-7.8 1.1-.1 2.2-.1 3.2-.4 2.2-.6 3.4-2.3 3.3-4.5.1-2.4-1.2-4-3.4-4.6z" class="st619"/><path id="path32" d="M549.3 86V43.9c0-3.4-1.6-5.6-4.9-5.6-3.2 0-4.8 2.1-4.8 5.3v84.6c0 1.7.4 3.2 1.8 4.3 1.5 1.2 3.1 1.6 4.9.8 2.4-1.1 3.1-3.1 3.1-5.6-.2-13.9-.1-27.8-.1-41.7z" class="st619"/><path id="path34" d="M117.7 91c-4.1-4.1-8.2-8.2-12.4-12.2-2.7-2.6-7.1-2.7-9.8-.1-4.3 4.1-8.5 8.3-12.6 12.6-2.9 3-2.9 7.4.1 10.4l12 12c3.3 3.2 7.4 3.3 10.7.1l12-12c1.6-1.5 2.5-3.2 2-5.6.6-2-.5-3.7-2-5.2zm-17.5 12.2c-2-.1-6.7-5.1-6.5-7 .2-1.8 4.9-6.4 6.7-6.4 2 0 6.8 4.9 6.7 6.8-.1 2-5 6.7-6.9 6.6z" class="st619"/></g><g id="text47"><path id="path49" d="M246.74043 308.87155q0 2.71875-1.28125 5.375-1.25 2.65625-3.53125 4.5-2.5 2-5.84375 3.125-3.3125 1.125-8 1.125-5.03125 0-9.0625-.9375-4-.9375-8.15625-2.78125v-7.75h.4375q3.53125 2.9375 8.15625 4.53125t8.6875 1.59375q5.75 0 8.9375-2.15625 3.21875-2.15625 3.21875-5.75 0-3.09375-1.53125-4.5625-1.5-1.46875-4.59375-2.28125-2.34375-.625-5.09375-1.03125-2.71875-.40625-5.78125-1.03125-6.1875-1.3125-9.1875-4.46875-2.96875-3.1875-2.96875-8.28125 0-5.84375 4.9375-9.5625 4.9375-3.75 12.53125-3.75 4.90625 0 9 .9375t7.25 2.3125v7.3125h-.4375q-2.65625-2.25-7-3.71875-4.3125-1.5-8.84375-1.5-4.96875 0-8 2.0625-3 2.0625-3 5.3125 0 2.90625 1.5 4.5625t5.28125 2.53125q2 .4375 5.6875 1.0625t6.25 1.28125q5.1875 1.375 7.8125 4.15625t2.625 7.78125z"/><path id="path51" d="M285.39668 322.1528h-5.875v-19.875q0-2.40625-.28125-4.5-.28125-2.125-1.03125-3.3125-.78125-1.3125-2.25-1.9375-1.46875-.65625-3.8125-.65625-2.40625 0-5.03125 1.1875t-5.03125 3.03125v26.0625h-5.875v-34.90625h5.875v3.875q2.75-2.28125 5.6875-3.5625t6.03125-1.28125q5.65625 0 8.625 3.40625t2.96875 9.8125z"/><path id="path53" d="M326.45918 304.7153q0 8.53125-4.375 13.46875t-11.71875 4.9375q-7.40625 0-11.78125-4.9375-4.34375-4.9375-4.34375-13.46875t4.34375-13.46875q4.375-4.96875 11.78125-4.96875 7.34375 0 11.71875 4.96875 4.375 4.9375 4.375 13.46875zm-6.0625 0q0-6.78125-2.65625-10.0625-2.65625-3.3125-7.375-3.3125-4.78125 0-7.4375 3.3125-2.625 3.28125-2.625 10.0625 0 6.5625 2.65625 9.96875 2.65625 3.375 7.40625 3.375 4.6875 0 7.34375-3.34375 2.6875-3.375 2.6875-10z"/><path id="path55" d="M379.45918 287.24655l-9.09375 34.90625h-5.4375l-8.96875-26.90625-8.90625 26.90625h-5.40625l-9.1875-34.90625h6.125l6.40625 27.03125 8.71875-27.03125h4.84375l8.9375 27.03125 6.0625-27.03125z"/><path id="path57" d="M412.86543 312.0903q0 4.78125-3.96875 7.84375-3.9375 3.0625-10.78125 3.0625-3.875 0-7.125-.90625-3.21875-.9375-5.40625-2.03125v-6.59375h.3125q2.78125 2.09375 6.1875 3.34375 3.40625 1.21875 6.53125 1.21875 3.875 0 6.0625-1.25t2.1875-3.9375q0-2.0625-1.1875-3.125t-4.5625-1.8125q-1.25-.28125-3.28125-.65625-2-.375-3.65625-.8125-4.59375-1.21875-6.53125-3.5625-1.90625-2.375-1.90625-5.8125 0-2.15625.875-4.0625.90625-1.90625 2.71875-3.40625 1.75-1.46875 4.4375-2.3125 2.71875-.875 6.0625-.875 3.125 0 6.3125.78125 3.21875.75 5.34375 1.84375v6.28125h-.3125q-2.25-1.65625-5.46875-2.78125-3.21875-1.15625-6.3125-1.15625-3.21875 0-5.4375 1.25-2.21875 1.21875-2.21875 3.65625 0 2.15625 1.34375 3.25 1.3125 1.09375 4.25 1.78125 1.625.375 3.625.75 2.03125.375 3.375.6875 4.09375.9375 6.3125 3.21875 2.21875 2.3125 2.21875 6.125z"/><path id="path59" d="M427.58418 281.4028h-6.625v-6.09375h6.625zm-.375 40.75h-5.875v-34.90625h5.875z"/><path id="path61" d="M467.14668 318.18405q0 8.875-4.03125 13.03125t-12.40625 4.15625q-2.78125 0-5.4375-.40625-2.625-.375-5.1875-1.09375v-6h.3125q1.4375.5625 4.5625 1.375 3.125.84375 6.25.84375 3 0 4.96875-.71875t3.0625-2q1.09375-1.21875 1.5625-2.9375t.46875-3.84375v-3.1875q-2.65625 2.125-5.09375 3.1875-2.40625 1.03125-6.15625 1.03125-6.25 0-9.9375-4.5-3.65625-4.53125-3.65625-12.75 0-4.5 1.25-7.75 1.28125-3.28125 3.46875-5.65625 2.03125-2.21875 4.9375-3.4375 2.90625-1.25 5.78125-1.25 3.03125 0 5.0625.625 2.0625.59375 4.34375 1.84375l.375-1.5h5.5zm-5.875-5.625V293.5278q-2.34375-1.0625-4.375-1.5-2-.46875-4-.46875-4.84375 0-7.625 3.25t-2.78125 9.4375q0 5.875 2.0625 8.90625t6.84375 3.03125q2.5625 0 5.125-.96875 2.59375-1 4.75-2.65625z"/><path id="path63" d="M507.89668 322.1528h-5.875v-19.875q0-2.40625-.28125-4.5-.28125-2.125-1.03125-3.3125-.78125-1.3125-2.25-1.9375-1.46875-.65625-3.8125-.65625-2.40625 0-5.03125 1.1875t-5.03125 3.03125v26.0625h-5.875v-48.625h5.875v17.59375q2.75-2.28125 5.6875-3.5625t6.03125-1.28125q5.65625 0 8.625 3.40625t2.96875 9.8125z"/><path id="path65" d="M537.33418 321.8403q-1.65625.4375-3.625.71875-1.9375.28125-3.46875.28125-5.34375 0-8.125-2.875t-2.78125-9.21875v-18.5625h-3.96875v-4.9375h3.96875V277.2153h5.875v10.03125h12.125v4.9375h-12.125v15.90625q0 2.75.125 4.3125.125 1.53125.875 2.875.6875 1.25 1.875 1.84375 1.21875.5625 3.6875.5625 1.4375 0 3-.40625 1.5625-.4375 2.25-.71875h.3125z"/></g></svg>