<svg xmlns="http://www.w3.org/2000/svg" role="img" viewBox="-1.28 -1.28 66.43 66.43"><title>SqlDBM logo</title><path fill="#1C70FF" d="M56 0H8C3.58172 0 0 3.63857 0 8.12698V55.873C0 60.3614 3.58172 64 8 64h48c4.4183 0 8-3.6386 8-8.127V8.12698C64 3.63857 60.4183 0 56 0z"/><path d="M13.2015 54.1676c2.0109 0 3.3516-1.161 3.3516-2.5974 0-1.3026-.8835-1.8526-2.0777-2.2435l-2.2555-.7251c-.5506-.1676-.802-.419-.802-.79 0-.4908.5267-.9097 1.3526-.9097.9457 0 1.7237.4668 2.0708 1.1491l1.5202-.4429c-.4548-1.1611-1.7955-2.1546-3.6029-2.1546-1.7477 0-3.01648 1.1012-3.00451 2.406-.01197 1.0773.79001 1.7835 1.89131 2.1306l2.1426.6703c.802.2634 1.1012.5626 1.1012 1.0055 0 .5506-.6104 1.0534-1.592 1.0534-1.209 0-2.0588-.6943-2.394-1.5681l-1.56806.4788c.46683 1.3047 1.81946 2.5376 3.86636 2.5376zm9.145-6.2244v.7302c-.4309-.5506-1.1012-.8977-1.9511-.8977-1.6758 0-2.9925 1.3526-2.9925 3.1959 0 1.8315 1.3167 3.196 2.9925 3.196.8499 0 1.5202-.3591 1.9511-.9097v3.2559h1.592v-8.5706h-1.592zm-1.6758 4.812c-.9935 0-1.6997-.7422-1.6997-1.7955 0-1.0414.7062-1.7716 1.6997-1.7716.9576 0 1.7237.7302 1.7237 1.7716 0 1.0533-.7661 1.7955-1.7237 1.7955zm4.8239 1.2449h1.5801V45.262h-1.5801v8.7381zm6.7751-8.379h-3.6389v8.379h3.6389c2.4658 0 4.0099-1.7716 4.0099-4.1895 0-2.4659-1.5681-4.1895-4.0099-4.1895zm-.0359 6.8947h-1.9751v-5.4224h1.9751c1.4364 0 2.394 1.0892 2.394 2.6813 0 1.6159-.9576 2.7411-2.394 2.7411zm10.9764-2.9087c.6464-.3472 1.0414-.9457 1.0414-1.7476-.0119-1.3287-1.1251-2.2384-2.765-2.2384h-3.998v8.379h4.2254c1.7835 0 2.8489-.9337 2.8489-2.3701 0-.9456-.5267-1.6519-1.3527-2.0229zm-1.7356-2.5736c.6943-.012 1.1611.4309 1.1611 1.0175.012.5745-.4429 1.0533-1.1252 1.0533h-2.4179v-2.0708h2.382zm.2274 5.5421h-2.6094v-2.1785h2.6214c.778 0 1.2209.4788 1.2209 1.0773 0 .6105-.4548 1.1012-1.2329 1.1012zm11.1202-6.9545h1.568v8.379h-1.6399v-5.5182l-2.6693 3.6987-2.6693-3.6987v5.5182h-1.6399v-8.379h1.5681l2.7411 3.962 2.7412-3.962z"/><path fill="#fff" d="M13.2015 54.1676c2.0109 0 3.3516-1.161 3.3516-2.5974 0-1.3026-.8835-1.8526-2.0777-2.2435l-2.2555-.7251c-.5506-.1676-.802-.419-.802-.79 0-.4908.5267-.9097 1.3526-.9097.9457 0 1.7237.4668 2.0708 1.1491l1.5202-.4429c-.4548-1.1611-1.7955-2.1546-3.6029-2.1546-1.7477 0-3.01648 1.1012-3.00451 2.406-.01197 1.0773.79001 1.7835 1.89131 2.1306l2.1426.6703c.802.2634 1.1012.5626 1.1012 1.0055 0 .5506-.6104 1.0534-1.592 1.0534-1.209 0-2.0588-.6943-2.394-1.5681l-1.56806.4788c.46683 1.3047 1.81946 2.5376 3.86636 2.5376zm9.145-6.2244v.7302c-.4309-.5506-1.1012-.8977-1.9511-.8977-1.6758 0-2.9925 1.3526-2.9925 3.1959 0 1.8315 1.3167 3.196 2.9925 3.196.8499 0 1.5202-.3591 1.9511-.9097v3.2559h1.592v-8.5706h-1.592zm-1.6758 4.812c-.9935 0-1.6997-.7422-1.6997-1.7955 0-1.0414.7062-1.7716 1.6997-1.7716.9576 0 1.7237.7302 1.7237 1.7716 0 1.0533-.7661 1.7955-1.7237 1.7955zm4.8239 1.2449h1.5801V45.262h-1.5801v8.7381zm6.7751-8.379h-3.6389v8.379h3.6389c2.4658 0 4.0099-1.7716 4.0099-4.1895 0-2.4659-1.5681-4.1895-4.0099-4.1895zm-.0359 6.8947h-1.9751v-5.4224h1.9751c1.4364 0 2.394 1.0892 2.394 2.6813 0 1.6159-.9576 2.7411-2.394 2.7411zm10.9764-2.9087c.6464-.3472 1.0414-.9457 1.0414-1.7476-.0119-1.3287-1.1251-2.2384-2.765-2.2384h-3.998v8.379h4.2254c1.7835 0 2.8489-.9337 2.8489-2.3701 0-.9456-.5267-1.6519-1.3527-2.0229zm-1.7356-2.5736c.6943-.012 1.1611.4309 1.1611 1.0175.012.5745-.4429 1.0533-1.1252 1.0533h-2.4179v-2.0708h2.382zm.2274 5.5421h-2.6094v-2.1785h2.6214c.778 0 1.2209.4788 1.2209 1.0773 0 .6105-.4548 1.1012-1.2329 1.1012zm11.1202-6.9545h1.568v8.379h-1.6399v-5.5182l-2.6693 3.6987-2.6693-3.6987v5.5182h-1.6399v-8.379h1.5681l2.7411 3.962 2.7412-3.962z"/><path fill="#1359CE" d="M26 32.1007c.4331 3.2417 6.4863 5.849 13.9295 5.8986 7.4432.0496 13.5165-2.4982 13.9899-5.74L54 13.8993c-.4331-3.2517-6.4863-5.84902-13.9295-5.89859-7.4432-.04957-13.4964 2.49819-14 5.73999L26 32.1007z"/><path fill="#AEDAFF" d="M40 27.0549H22v1.89h18v-1.89zm0-6H30v1.89h10v-1.89zm-4-6H23v1.89h13v-1.89z"/></svg>