<svg xmlns="http://www.w3.org/2000/svg" role="img" viewBox="-7.33 -7.08 368.16 88.41"><title>StreamSets Inc. logo</title><defs><style>.cls-1{fill:#29b4e2}</style></defs><g id="Layer_2" data-name="Layer 2"><g id="Layer_2-2" data-name="Layer 2"><path d="M111.7 45.77a9.38 9.38 0 0 1-3.7 7.87q-3.66 2.82-9.93 2.82-6.8 0-10.46-1.75v-4.29A27.48 27.48 0 0 0 92.78 52a27.08 27.08 0 0 0 5.48.58c3 0 5.2-.57 6.7-1.69a5.54 5.54 0 0 0 2.24-4.69 6.06 6.06 0 0 0-.79-3.26 7.56 7.56 0 0 0-2.67-2.34 38.46 38.46 0 0 0-5.68-2.43q-5.34-1.9-7.62-4.52a9.94 9.94 0 0 1-2.29-6.82 8.45 8.45 0 0 1 3.32-7 13.8 13.8 0 0 1 8.78-2.62 25.94 25.94 0 0 1 10.48 2.09l-1.38 3.87a23.81 23.81 0 0 0-9.2-2 8.9 8.9 0 0 0-5.52 1.51 5 5 0 0 0-2 4.21 6.45 6.45 0 0 0 .74 3.26 6.8 6.8 0 0 0 2.47 2.32 30.21 30.21 0 0 0 5.31 2.34q6 2.15 8.28 4.6a9.05 9.05 0 0 1 2.27 6.36zm15.08 7.11a14.68 14.68 0 0 0 2.22-.17 14.5 14.5 0 0 0 1.7-.35v3.32a8.36 8.36 0 0 1-2.08.56 15.43 15.43 0 0 1-2.47.22q-8.31 0-8.31-8.76v-17h-4.11v-2.13l4.11-1.8 1.83-6.12h2.51v6.64h8.31v3.37h-8.31v16.86a5.77 5.77 0 0 0 1.22 4 4.27 4.27 0 0 0 3.38 1.36zm21.37-26.11a17.07 17.07 0 0 1 3.43.31l-.61 4a14.25 14.25 0 0 0-3.13-.4 7.63 7.63 0 0 0-6 2.83 10.26 10.26 0 0 0-2.47 7v15.43h-4.34V27.29h3.58l.5 5.31h.21a12.51 12.51 0 0 1 3.84-4.32 8.66 8.66 0 0 1 4.99-1.51zm19.55 29.69q-6.36 0-10-3.87T154 41.85q0-6.93 3.41-11a11.36 11.36 0 0 1 9.16-4.07 10.8 10.8 0 0 1 8.52 3.54 13.52 13.52 0 0 1 3.14 9.34v2.74H158.5q.12 5 2.54 7.66a8.85 8.85 0 0 0 6.81 2.61 22.87 22.87 0 0 0 9.15-1.94v3.87a22.49 22.49 0 0 1-4.35 1.4 24.3 24.3 0 0 1-4.95.46zm-1.18-26.06a7.08 7.08 0 0 0-5.5 2.25 10.32 10.32 0 0 0-2.42 6.22h15a9.55 9.55 0 0 0-1.83-6.29 6.45 6.45 0 0 0-5.25-2.18zm35.39 25.54l-.86-4.08h-.21a12.19 12.19 0 0 1-4.28 3.65 13.12 13.12 0 0 1-5.32 1 9.56 9.56 0 0 1-6.68-2.2 8 8 0 0 1-2.41-6.31q0-8.69 13.88-9.1l4.86-.16V37q0-3.37-1.45-5a6 6 0 0 0-4.64-1.61 18.86 18.86 0 0 0-8.11 2.2l-1.33-3.32a20.7 20.7 0 0 1 9.7-2.46c3.41 0 5.95.76 7.59 2.27s2.47 3.95 2.47 7.29v19.57zm-9.8-3.06a8.8 8.8 0 0 0 6.36-2.22 8.23 8.23 0 0 0 2.31-6.22v-2.59l-4.34.18q-5.16.18-7.46 1.61a4.86 4.86 0 0 0-2.29 4.43 4.47 4.47 0 0 0 1.43 3.58 5.92 5.92 0 0 0 3.99 1.23zm57.13 3.06V37.3a7.8 7.8 0 0 0-1.46-5.14 5.68 5.68 0 0 0-4.55-1.71q-4 0-6 2.33t-1.93 7.16v16H231V37.3a7.8 7.8 0 0 0-1.46-5.14 5.72 5.72 0 0 0-4.58-1.71q-4.08 0-6 2.45c-1.26 1.63-1.9 4.3-1.9 8v15h-4.34V27.29h3.53l.71 3.92h.21a8.6 8.6 0 0 1 3.46-3.27 10.64 10.64 0 0 1 5-1.17q6.72 0 8.78 4.86h.21a9.17 9.17 0 0 1 3.71-3.56 11.53 11.53 0 0 1 5.54-1.3q4.86 0 7.28 2.49t2.42 8v18.68z" class="cls-1"/><path fill="#039" d="M283.4 45.77a9.38 9.38 0 0 1-3.66 7.87q-3.66 2.82-9.94 2.82-6.8 0-10.45-1.75v-4.29a27.61 27.61 0 0 0 5.12 1.58 27.25 27.25 0 0 0 5.49.58c3 0 5.19-.57 6.69-1.69a5.53 5.53 0 0 0 2.25-4.69 6 6 0 0 0-.8-3.26 7.52 7.52 0 0 0-2.66-2.34 38.2 38.2 0 0 0-5.69-2.43q-5.33-1.9-7.62-4.52a10 10 0 0 1-2.28-6.82 8.47 8.47 0 0 1 3.31-7 13.85 13.85 0 0 1 8.84-2.66 25.94 25.94 0 0 1 10.48 2.09L281 23.13a23.73 23.73 0 0 0-9.2-2 8.89 8.89 0 0 0-5.51 1.51 5 5 0 0 0-2 4.21 6.45 6.45 0 0 0 .73 3.26 6.88 6.88 0 0 0 2.47 2.32 30.37 30.37 0 0 0 5.32 2.34q6 2.15 8.28 4.6a9.1 9.1 0 0 1 2.31 6.4zm17.92 10.69q-6.35 0-10-3.87t-3.67-10.74q0-6.93 3.41-11a11.35 11.35 0 0 1 9.16-4.07 10.8 10.8 0 0 1 8.52 3.54 13.56 13.56 0 0 1 3.14 9.34v2.74h-19.76q.13 5 2.55 7.66a8.82 8.82 0 0 0 6.81 2.61 22.87 22.87 0 0 0 9.15-1.94v3.87a22.71 22.71 0 0 1-4.35 1.4 24.33 24.33 0 0 1-4.96.46zm-1.17-26.06a7.1 7.1 0 0 0-5.51 2.25 10.38 10.38 0 0 0-2.41 6.22h15a9.61 9.61 0 0 0-1.83-6.29 6.47 6.47 0 0 0-5.25-2.18zm27.02 22.48a14.58 14.58 0 0 0 2.22-.17 14.07 14.07 0 0 0 1.7-.35v3.32a8.24 8.24 0 0 1-2.08.56 15.33 15.33 0 0 1-2.47.22q-8.31 0-8.31-8.76v-17h-4.1v-2.13l4.1-1.8 1.83-6.12h2.51v6.64h8.31v3.37h-8.31v16.86a5.77 5.77 0 0 0 1.23 4 4.25 4.25 0 0 0 3.37 1.36zM354 48.12a7.18 7.18 0 0 1-3 6.17q-3 2.18-8.37 2.17-5.7 0-8.89-1.8v-4a21.38 21.38 0 0 0 4.44 1.65 18.45 18.45 0 0 0 4.56.6 10.25 10.25 0 0 0 5.22-1.09 3.73 3.73 0 0 0 .38-6.16 22.63 22.63 0 0 0-5.66-2.82 29.86 29.86 0 0 1-5.68-2.6 7.72 7.72 0 0 1-2.51-2.52 6.55 6.55 0 0 1-.82-3.37 6.42 6.42 0 0 1 2.85-5.53c1.89-1.35 4.5-2 7.81-2a22.83 22.83 0 0 1 9.05 1.88l-1.55 3.53A20.64 20.64 0 0 0 344 30.4a9 9 0 0 0-4.66 1 3 3 0 0 0-1.56 2.6 3.19 3.19 0 0 0 .59 2 5.81 5.81 0 0 0 1.89 1.55 43 43 0 0 0 5 2.11q5.1 1.86 6.88 3.74a6.58 6.58 0 0 1 1.86 4.72zM20.48 4.78c2.17-1.14 9.59-4.06 18.11 5.66 5.6 6.38 9 6.74 10 4.57a2.17 2.17 0 0 0 .26-.64c.62-2.64-1.33-7.63-6.15-11.25C32.08-4.86 20.1 5 20.1 5l.38-.21zM13.7 70.76c-2.09-1.33-8.28-6.31-4.14-18.51 2.73-8 1.34-11.18-1-10.93a2.7 2.7 0 0 0-.68.09c-2.6.79-5.94 5-6.67 11C-.43 65.54 14.08 71 14.08 71l-.37-.23zM74.25 43.2v.43c-.1 2.46-1.28 10.35-14 12.87C52 58.14 50 60.9 51.32 62.83a3 3 0 0 0 .43.56c2 1.85 7.28 2.66 12.83.29 12.21-5.19 9.67-20.48 9.67-20.48z"/><path d="M30.57 24.16C48.39 37.67 50.5 38.51 54.24 37.27c4.82-1.59 8.08-8.85 4.82-18.91s-10-12.88-10-12.88.29.34.75.94a34.18 34.18 0 0 1 3.44 5c3.11 5.63 3.27 10.57-.75 12.91s-11.56-5.87-15.07-8.9C26.71 6.22 19.57 6.05 15 9.28c-6 4.24-7.63 14.34-7 17.46 1.14-4.59 5.21-15.74 22.57-2.58z" class="cls-1"/><path d="M25.45 52.34c2.79-22.19 2.47-24.44-.45-27.06-3.8-3.38-11.71-2.57-18.8 5.28S0 45.67 0 45.67s.15-.42.43-1.12a35.07 35.07 0 0 1 2.65-5.49c3.32-5.51 7.51-8.12 11.55-5.81s.69 13-.17 17.5c-2.65 13.9.78 20.17 5.86 22.52 6.69 3.09 16.23-.57 18.64-2.63-4.53 1.26-16.22 3.36-13.51-18.3z" class="cls-1"/><path d="M52.09 68.66c-6.43-.12-10.8-2.45-10.81-7.11S52.15 54.48 56.52 53c13.36-4.69 17.07-10.8 16.57-16.38-.66-7.33-8.61-13.77-11.6-14.82 3.37 3.32 11 12.43-9.07 20.88C31.81 51.36 30 52.77 29.22 56.62c-1 5 3.63 11.43 14 13.63S59.35 68 59.35 68l-1.19.19a35.54 35.54 0 0 1-6.07.47z" class="cls-1"/></g></g></svg>