<svg xmlns="http://www.w3.org/2000/svg" role="img" viewBox="3.30 3.80 270.40 108.65"><title>Striim Inc. logo</title><path fill="#0A0A0A" d="M132.597 71.964c-2.035.761-4.377.483-6.116-.722-.966-.669-2.116-1.896-2.116-3.933 0-4.334.051-14.524.1-23.256h9.904c1.602 0 2.9-1.298 2.9-2.9s-1.299-2.9-2.9-2.9h-9.87c.03-5.097.053-8.788.054-8.892.012-1.795-1.435-3.259-3.229-3.271h-.021c-1.786 0-3.238 1.441-3.25 3.229-.001.104-.024 3.814-.054 8.933h-2.614c-1.602 0-2.9 1.298-2.9 2.9s1.299 2.9 2.9 2.9h2.581c-.049 8.733-.1 18.917-.1 23.256 0 3.729 1.79 7.109 4.912 9.274 2.18 1.512 4.824 2.295 7.481 2.295 1.564 0 3.135-.271 4.616-.826 1.682-.629 2.534-2.502 1.905-4.183-.631-1.681-2.505-2.531-4.183-1.904zm43.947 5.837c-1.795 0-3.25-1.455-3.25-3.25V41.364c0-1.795 1.455-3.25 3.25-3.25s3.25 1.455 3.25 3.25v33.188c0 1.794-1.455 3.249-3.25 3.249zm-9.699-36.932c-.163-1.704-1.676-2.953-3.38-2.791-.813.078-1.749.169-2.352.414-.335.108-.675.217-.999.336l-.859.404c-.593.262-1.087.573-1.593.879-.522.297-.974.634-1.439.963-1.836 1.332-3.442 2.809-4.938 4.392-.284.305-.559.618-.834.932v-5.035c0-1.795-1.455-3.25-3.25-3.25s-3.25 1.455-3.25 3.25v33.188c0 1.795 1.455 3.25 3.25 3.25s3.25-1.455 3.25-3.25V55.507l.141-.292.338-.55c.215-.368.45-.734.728-1.094 1.044-1.447 2.293-2.839 3.65-4.102 1.361-1.257 2.823-2.415 4.319-3.348.374-.228.747-.472 1.119-.643.371-.19.744-.395 1.089-.506l.522-.209.447-.102c.345-.126.436-.018.618-.083l1.388-.497c1.301-.467 2.173-1.771 2.035-3.212z"/><circle cx="176.544" cy="26.973" r="3.867" fill="#DE5109"/><path fill="#0A0A0A" d="M194.122 77.801c-1.795 0-3.25-1.455-3.25-3.25V41.364c0-1.795 1.455-3.25 3.25-3.25s3.25 1.455 3.25 3.25v33.188c0 1.794-1.455 3.249-3.25 3.249z"/><circle cx="194.122" cy="26.973" r="3.867" fill="#56A8E9"/><path fill="#0A0A0A" d="M268.595 54.167c.001-.638 0-1.456-.045-2.234-.05-.785-.128-1.58-.268-2.378-.279-1.594-.755-3.223-1.532-4.792-.782-1.562-1.882-3.061-3.275-4.243-1.383-1.193-3-2.048-4.623-2.59-1.627-.537-3.259-.803-4.833-.886-1.508-.094-3.267-.031-4.938.374-1.669.406-3.275 1.097-4.674 2.031-1.952 1.301-3.506 2.96-4.73 4.77-.566-1.063-1.265-2.083-2.142-3.015-1.273-1.265-2.8-2.276-4.416-2.919-.397-.185-.812-.262-1.217-.392-.407-.102-.818-.261-1.22-.304l-1.211-.177-.604-.082-.589-.016c-1.523-.083-3.231.048-4.815.479-.79.241-1.592.44-2.307.832l-1.091.532c-.356.186-.671.428-1.005.642-1.773 1.179-3.204 2.645-4.391 4.226v-2.662c0-1.795-1.455-3.25-3.25-3.25s-3.25 1.455-3.25 3.25v33.188c0 1.795 1.455 3.25 3.25 3.25s3.25-1.455 3.25-3.25l.117-21.609c0-4.512 5.988-9.623 11.035-9.551s9.032 3.562 9.032 9.269v1.99l-.007 3.98c-.017 5.307.044 10.614.182 15.921.048 1.714 1.43 3.12 3.165 3.165 1.795.047 3.288-1.37 3.335-3.165.138-5.307.2-10.614.182-15.921l-.007-3.98-.003-1.614c0-6.012 5.727-9.81 10.758-9.539s9.363 2.719 9.363 10.671l-.002 4.077c-.017 5.436.034 10.871.139 16.307.036 1.735 1.437 3.154 3.187 3.187 1.795.035 3.278-1.392 3.313-3.187.105-5.436.156-10.871.139-16.307l-.002-4.078zM93.541 78.568c-5.64 0-11.654-1.996-15.172-4.964-1.224-1.033-1.379-2.862-.347-4.086 1.035-1.224 2.865-1.378 4.087-.346 3.812 3.216 12.801 4.923 17.122 2.331 1.653-.992 2.532-2.833 2.239-4.689-.42-2.663-3.007-4.733-7.096-5.678-11.035-2.552-15.536-5.978-15.536-11.826 0-5.888 4.137-11.83 13.377-11.83 8.69 0 12.688 3.667 13.114 4.085 1.145 1.12 1.164 2.957.044 4.101-1.109 1.133-2.922.866-4.067.076-.194-.133-2.875-2.463-9.091-2.463-6.838 0-7.576 4.217-7.576 6.03 0 1.083 0 3.621 11.042 6.174 6.416 1.484 10.722 5.381 11.519 10.425.664 4.204-1.293 8.352-4.984 10.567-2.428 1.457-5.491 2.093-8.675 2.093z"/><g fill="#56A8E9"><circle cx="38.708" cy="49.801" r="1.512"/><circle cx="40.489" cy="45.008" r="2.355"/><circle cx="43.126" cy="39.489" r="2.93"/><circle cx="50.228" cy="36.43" r="3.387"/><circle cx="58.736" cy="36.676" r="3.715"/><circle cx="67.243" cy="41.985" r="4.547"/></g><g fill="#B2D70C"><circle cx="37.295" cy="58.684" r="1.512"/><circle cx="30.368" cy="51.374" r="2.355"/><circle cx="33.48" cy="56.103" r="1.942"/><circle cx="27.868" cy="44.651" r="2.93"/><circle cx="28.845" cy="36.886" r="3.387"/><circle cx="34.15" cy="29.719" r="3.715"/><circle cx="42.359" cy="23.53" r="4.547"/><circle cx="54.734" cy="22.44" r="5.209"/></g><g fill="#DE5109"><circle cx="29.455" cy="59.212" r="1.512"/><circle cx="19.211" cy="53.735" r="2.355"/><circle cx="24.478" cy="57.646" r="1.942"/><circle cx="13.567" cy="48.569" r="2.93"/><circle cx="12.263" cy="39.207" r="3.387"/><circle cx="15.124" cy="29.54" r="3.715"/><circle cx="23.452" cy="21.332" r="4.547"/><circle cx="33.869" cy="14.209" r="5.209"/></g><g fill="#9B5CBD"><circle cx="42.466" cy="71.622" r="1.512"/><circle cx="40.66" cy="76.324" r="2.355"/><circle cx="37.867" cy="81.812" r="2.93"/><circle cx="31.491" cy="84.895" r="3.387"/><circle cx="22.629" cy="84.831" r="3.715"/><circle cx="13.172" cy="80.905" r="4.547"/></g><g fill="#E8C708"><circle cx="44.716" cy="63.08" r="1.512"/><circle cx="41.134" cy="60.582" r="1.359"/><circle cx="50.873" cy="70.576" r="2.355"/><circle cx="48.447" cy="65.893" r="1.942"/><circle cx="53.098" cy="76.57" r="2.93"/><circle cx="53.409" cy="84.351" r="3.387"/><circle cx="48.085" cy="91.403" r="3.715"/><circle cx="39.188" cy="96.643" r="4.547"/><circle cx="27.312" cy="98.68" r="5.209"/></g><g fill="#B84635"><circle cx="50.576" cy="60.996" r="1.679"/><circle cx="55.531" cy="62.48" r="2.355"/><circle cx="60.586" cy="66.362" r="2.93"/><circle cx="66.249" cy="71.761" r="3.387"/><circle cx="67.93" cy="82.029" r="3.715"/><circle cx="63.86" cy="92.62" r="4.547"/><circle cx="54.558" cy="102.299" r="5.209"/></g></svg>