<svg xmlns="http://www.w3.org/2000/svg" role="img" viewBox="9.58 0.01 40.66 51.28"><title>Tableau logo</title><path fill="#e8762d" d="M28.86177 26.85289h2.1179v-5.77612h5.32688v-2.05373h-5.32687V13.2469h-2.11791v5.77613h-5.2627v2.05373h5.2627z"/><path fill="#c72037" d="M19.04236 35.19618h1.79702v-5.13433h4.74925v-1.60448h-4.74925v-5.19851h-1.79702v5.1985h-4.74925v1.60449h4.74925z"/><path fill="#5b879b" d="M39.00207 16.6484h1.79701v-5.13432h4.81344v-1.5403h-4.81344v-5.1985h-1.79701v5.1985H34.2528v1.5403h4.74926z"/><path fill="#5c6692" d="M29.18266 39.23946h1.5403v-3.6582h3.27314v-1.34777h-3.27314v-3.65821h-1.5403v3.6582h-3.20895v1.34777h3.20895z"/><path fill="#eb9129" d="M19.10654 16.6484h1.66866v-5.1985h4.81343V9.97378H20.7752v-5.1985h-1.66866v5.1985h-4.81343v1.47612h4.81343z"/><path fill="#5c6692" d="M44.4573 24.3499h1.5403v-3.59403h3.27313v-1.41194h-3.27314V15.7499h-1.5403v3.59403h-3.20895v1.41194h3.20896z"/><path fill="#1f457e" fill-rule="evenodd" d="M39.00207 35.19618h1.79701v-5.13433h4.81344v-1.60448h-4.81344v-5.19851h-1.79701v5.1985H34.2528v1.60449h4.74926z" clip-rule="evenodd"/><path fill="#7199a6" d="M33.73938 5.67378V4.58273h-3.20895V1.05288H29.3752v3.52985h-3.20895v1.09105h3.20895v3.52985h1.15523V5.67378zm-19.9597 18.4194h1.15522v-3.52984h3.20895v-1.09105H14.9349v-3.46567h-1.15523v3.46567h-3.20895v1.15522l3.20895-.06417z"/><path d="M21.18464 46.12944h-1.67082v4.12364h-.62184v-4.12364h-1.67081v-.55275h3.96347zm2.55333 4.12364h-.5873v-.37373q-.07852.05339-.21356.15075-.13191.09422-.25754.15075-.1476.07223-.33918.11934-.19158.05025-.44911.05025-.47424 0-.804-.31406-.32977-.31406-.32977-.80086 0-.39886.1696-.64383.17273-.2481.48993-.38944.32035-.14132.76946-.19157.4491-.05025.96417-.07537v-.09108q0-.201-.07223-.33291-.0691-.1319-.201-.20728-.12563-.07223-.3015-.09736-.17588-.02513-.36745-.02513-.23241 0-.5182.0628-.2858.05968-.59044.17588h-.03141v-.59986q.17273-.0471.49936-.10364.32662-.05653.64382-.05653.3706 0 .64383.06281.27638.05967.47738.20728.19786.14447.3015.37374.10364.22926.10364.56845zm-.5873-.86367v-.97673q-.2701.0157-.63755.0471-.36431.03142-.57787.09109-.2544.07223-.41142.22612-.15704.15075-.15704.4177 0 .3015.18216.4554.18216.15075.5559.15075.31091 0 .56844-.11935.25753-.12248.47738-.29208zm4.81144-.91706q0 .43968-.12563.79143-.12248.35176-.3329.59044-.22299.24811-.48994.37374-.26695.12248-.5873.12248-.29836 0-.52134-.07223-.22299-.06909-.43969-.18844l-.03769.16332h-.55275v-4.88682h.59044v1.74619q.2481-.20414.52762-.3329.27952-.13191.62813-.13191.62184 0 .97987.47737.36117.47737.36117 1.34733zm-.60928.0157q0-.62813-.20729-.95161-.20728-.32663-.66895-.32663-.25753 0-.52134.11307-.26381.10992-.48994.2858v2.01q.25125.11306.43027.15702.18215.04397.41142.04397.48994 0 .76631-.32034.27952-.32348.27952-1.01128zm2.1262 1.76503h-.59044v-4.88681h.59044zm4.1048-1.6928h-2.58474q0 .32349.09736.56532.09736.23869.26695.39258.16332.15075.3863.22612.22613.07538.49622.07538.35803 0 .7192-.14133.36432-.14447.5182-.28265h.03142v.64383q-.29836.12562-.60929.21042-.31092.0848-.65325.0848-.87309 0-1.36303-.4711-.48994-.47423-.48994-1.34418 0-.86054.46796-1.36618.4711-.50564 1.2374-.50564.70979 0 1.09294.41457.3863.41456.3863 1.17773zm-.57474-.45224q-.0031-.46482-.23555-.7192-.22926-.2544-.70035-.2544-.47424 0-.7569.27952-.27951.27951-.3172.69408zm4.19588 2.14504h-.5873v-.37373q-.07852.05339-.21356.15075-.1319.09422-.25753.15075-.14761.07223-.3392.11934-.19157.05025-.4491.05025-.47424 0-.804-.31406-.32977-.31406-.32977-.80086 0-.39886.1696-.64383.17273-.2481.48993-.38944.32035-.14132.76946-.19157.4491-.05025.96417-.07537v-.09108q0-.201-.07223-.33291-.06909-.1319-.201-.20728-.12563-.07223-.3015-.09736-.17588-.02513-.36745-.02513-.2324 0-.5182.0628-.2858.05968-.59044.17588h-.03141v-.59986q.17273-.0471.49935-.10364.32663-.05653.64383-.05653.3706 0 .64383.06281.27638.05967.47738.20728.19786.14447.3015.37374.10364.22926.10364.56845zm-.5873-.86367v-.97673q-.2701.0157-.63755.0471-.36431.03142-.57787.09109-.2544.07223-.41142.22612-.15704.15075-.15704.4177 0 .3015.18216.4554.18216.15075.5559.15075.31091 0 .56844-.11935.25754-.12248.47738-.29208zm4.63242.86367h-.59044v-.38943q-.29836.23554-.57159.36117-.27324.12562-.603.12562-.55275 0-.86053-.33604-.30778-.3392-.30778-.99244V46.745h.59043v1.99744q0 .26696.02513.45853.02512.18844.10679.32349.0848.13819.21984.201.13505.0628.39258.0628.22926 0 .49936-.11934.27323-.11934.50878-.30464V46.745h.59044z" stroke-width=".024"/></svg>