<svg xmlns="http://www.w3.org/2000/svg" role="img" viewBox="-2.64 -2.14 150.41 64.53"><title>Talend Data Integration ETL logo</title><g fill="none" fill-rule="evenodd"><path fill="#f17176" d="M16.032 33.745c.774-.371 1.353-.893 1.732-1.562V18.677c-.121-.364-.388-.74-.798-1.129a5.51 5.51 0 0 0-1.402-.958c-.525-.25-1.016-.376-1.472-.376-2.22 0-3.802.826-4.746 2.475-.942 1.65-1.413 3.996-1.413 7.038 0 5.719 1.931 8.577 5.794 8.577.761 0 1.528-.186 2.305-.56M4.6 35.982c-1.52-1.087-2.626-2.522-3.317-4.301C.59 29.9.244 27.916.244 25.727c0-2.113.438-4.075 1.313-5.885.875-1.81 2.185-3.266 3.935-4.369 1.748-1.102 3.876-1.653 6.386-1.653 1.293 0 2.388.101 3.284.307.9.205 1.833.605 2.808 1.197l-.206-8.692c0-1.002-.391-1.702-1.175-2.097-.783-.395-1.92-.647-3.41-.753a.898.898 0 0 1-.41-.32c-.092-.137-.137-.333-.137-.592 0-.213.053-.429.158-.651.108-.22.238-.337.388-.353 2.373-.152 5.43-.229 9.171-.229h1.894c.166 0 .323.072.467.217.145.146.217.377.217.696v30.408c0 .609.125 1.069.376 1.38.252.312.548.514.89.606.344.09.773.166 1.288.227.335.031.558.095.662.194.108.099.161.316.161.65 0 .198-.072.402-.217.616-.144.214-.33.32-.558.32H19.68c-.578 0-.992-.088-1.243-.262a1.034 1.034 0 0 1-.445-.72c-.045-.303-.06-.798-.045-1.482-.73 1.004-1.803 1.776-3.217 2.315a11.86 11.86 0 0 1-4.265.809c-2.388 0-4.342-.544-5.864-1.63" mask="url(#b)" transform="translate(116.622 -.866)"/><path fill="#f17176" d="M75.486 16.66c-.533-1.178-1.385-1.767-2.555-1.767-1.232 0-2.293.613-3.182 1.836-.89 1.225-1.434 3.106-1.632 5.647h8.168c0-2.631-.267-4.537-.799-5.716M63.508 33.622c-2.143-2.084-3.216-5.08-3.216-8.988 0-2.45.575-4.556 1.723-6.32 1.15-1.763 2.687-3.097 4.62-4.004 1.93-.903 4.051-1.357 6.364-1.357 3.377 0 5.892.659 7.55 1.974 1.659 1.316 2.7 3.242 3.126 5.783.137.82.204 2.076.204 3.763l-15.83.024c0 2.205.345 3.993 1.038 5.36.69 1.37 1.57 2.35 2.636 2.944a6.835 6.835 0 0 0 3.375.89c1.4 0 2.573-.184 3.524-.548.951-.366 1.783-.967 2.498-1.803a2.26 2.26 0 0 0 .124-.147.545.545 0 0 1 .218-.171.48.48 0 0 1 .253-.024l1.002.479c.15.061.228.152.228.273 0 .093-.045.221-.137.389-.821 1.43-2.022 2.555-3.604 3.375-1.581.821-3.53 1.232-5.839 1.232-4.425 0-7.712-1.04-9.857-3.124m22.382 2.155a1.108 1.108 0 0 1-.206-.628c0-.258.053-.455.16-.592.107-.137.303-.22.593-.251 1.613-.199 2.417-.685 2.417-1.46V18.339c0-.7-.129-1.233-.387-1.598-.258-.364-.558-.607-.901-.73-.343-.121-.786-.22-1.335-.296-.441-.062-.698-.106-.775-.137a.903.903 0 0 1-.41-.32c-.093-.137-.137-.333-.137-.592 0-.213.05-.429.149-.651.097-.22.23-.337.398-.353 3.559-.212 6.775-.32 9.65-.32.153 0 .296.069.435.206.135.136.219.373.248.706v2.556c.35-.41 1.004-.924 1.964-1.54.956-.616 2.071-1.156 3.342-1.62 1.27-.463 2.519-.694 3.752-.694 2.25 0 4.037.48 5.361 1.447 1.32.966 1.985 2.749 1.985 5.35v12.34c0 .852.212 1.408.638 1.666.426.259.87.41 1.334.455l.924.093c.274.03.467.102.581.217.115.113.173.323.173.626 0 .214-.07.423-.207.628a.646.646 0 0 1-.57.308h-12.248a.65.65 0 0 1-.571-.308 1.108 1.108 0 0 1-.207-.628c0-.274.048-.475.138-.604.09-.128.283-.208.57-.24a3.822 3.822 0 0 0 1.516-.478c.45-.259.674-.585.674-.98V19.866a8.52 8.52 0 0 0-.137-1.598c-.09-.47-.34-.896-.743-1.276-.402-.382-1.014-.57-1.835-.57-.775 0-1.57.147-2.385.443-.813.298-1.558.666-2.234 1.107-.678.442-1.204.876-1.586 1.302v12.818c0 .61.11 1.07.33 1.38.221.312.491.519.811.617.318.099.73.17 1.232.217.335.03.556.094.66.193.108.1.161.317.161.65 0 .199-.072.404-.217.616-.144.214-.33.32-.56.32H86.461a.644.644 0 0 1-.57-.308m-52.773-4.163c-.942 1.156-2.165 1.734-3.67 1.734-.943 0-1.677-.297-2.204-.89-.523-.594-.787-1.3-.787-2.122 0-1.475.322-2.631.96-3.468.638-.836 1.426-1.428 2.36-1.779.936-.349 2.05-.622 3.341-.82zM59.306 34.5c-.108-.1-.329-.164-.662-.194a12.474 12.474 0 0 1-1.393-.217 1.967 1.967 0 0 1-.968-.547c-.282-.282-.423-.688-.423-1.222V1.684c0-.318-.072-.55-.215-.695-.146-.145-.303-.217-.467-.217-3.485 0-6.869.106-10.153.32-.152.015-.28.133-.388.354-.107.219-.16.436-.16.65 0 .258.045.455.139.592a.88.88 0 0 0 .409.32c.061.015.349.06.867.137.623.077 1.133.174 1.528.296.397.123.739.366 1.026.73.29.364.435.905.435 1.62l-.024 27.284c0 .38-2.496.937-4.149.937-1.65 0-3.688-.545-3.856-.95-.165-.403-.25-.9-.25-1.493V19.295c0-1.247-.35-2.345-1.05-3.295-.698-.95-1.787-1.697-3.262-2.237-1.476-.539-3.337-.81-5.589-.81-1.58 0-3.212.196-4.892.582-1.682.389-3.103.99-4.267 1.802-1.161.814-1.745 1.83-1.745 3.046 0 .943.346 1.715 1.039 2.315.467.405 1.028.662 1.671.794.676.097 1.384-.062 1.299-.951-.007-.064-.002-.095-.002-.14-.156-1.855.766-3.8 3.093-4.81.107-.046.198-.076.297-.112.399-.197 1.283-.358 2.527-.358 1.124 0 1.972.255 2.542.765.572.51.855 1.44.855 2.793v3.764c-2.6.274-4.93.665-6.991 1.175-2.06.51-3.808 1.328-5.245 2.453-1.439 1.124-2.157 2.623-2.157 4.492 0 1.37.354 2.512 1.06 3.424a6.282 6.282 0 0 0 2.635 2.008c1.049.424 2.085.638 3.103.638 1.629 0 3.129-.263 4.506-.787 1.375-.525 2.552-1.297 3.524-2.316v.068c0 .517.1 1.324.1 1.324s.09.66.868 1.066c.779.407 5.92.098 6.802.098h17.365a.65.65 0 0 0 .571-.308c.137-.207.206-.416.206-.628 0-.334-.053-.551-.16-.65z"/><path fill="#f17176" d="M16.83 27.7a2.792 2.792 0 0 0-.39-.74c-.166-.228-.294-.32-.387-.274-.578.29-1.21.532-1.893.729-.685.198-1.278.298-1.78.298-.564 0-.992-.125-1.288-.377-.297-.251-.51-.715-.64-1.392-.13-.676-.193-1.661-.193-2.953V9.874h4.903c.17 0 .325-.16.469-.48.145-.32.217-.715.217-1.187a.951.951 0 0 0-.149-.523.515.515 0 0 0-.398-.252h-5.042V1.07c0-.267-.174-.454-.486-.58-.57-.178-.904.443-.904.443a13.386 13.386 0 0 1-8.27 7.45s-.765.181-.566.977c.022.068.04.136.075.207.106.22.234.338.387.352h2.44v15.104c0 2.143.653 3.64 1.953 4.494 1.298.85 3.045 1.276 5.234 1.276.685 0 1.478-.13 2.385-.387.903-.26 1.755-.59 2.554-.994.8-.402 1.388-.809 1.77-1.22.09-.061.09-.224 0-.49" mask="url(#d)" transform="translate(.296 5.977)"/></g><path d="M35.37508 51.9382q0 1.32162-.57942 2.39583-.57292 1.07422-1.52995 1.66667-.66406.41015-1.48437.59244-.8138.1823-2.14843.1823H27.185v-9.694h2.42187q1.41926 0 2.2526.20834.83984.20182 1.41926.5599.98958.61848 1.54297 1.64713.55338 1.02864.55338 2.4414zm-1.34765-.01952q0-1.13933-.39714-1.92057-.39713-.78125-1.18489-1.23047-.57291-.32552-1.21744-.44922-.64453-.1302-1.54297-.1302h-1.21093v7.48045h1.21093q.93099 0 1.6211-.13672.6966-.13672 1.27603-.50781.72265-.46224 1.08073-1.21745.36458-.7552.36458-1.88802zm8.98435 4.85675h-1.21744v-.77474q-.16276.11068-.44271.3125-.27344.19532-.53385.3125-.306.14974-.70313.2474-.39713.10417-.93098.10417-.98308 0-1.66667-.65104-.68359-.65104-.68359-1.66016 0-.82682.35156-1.33463.35807-.51432 1.01562-.80729.66407-.29297 1.59505-.39713.93099-.10417 1.9987-.15625v-.1888q0-.41667-.14974-.6901-.14323-.27344-.41667-.4297-.26042-.14973-.625-.20182-.36458-.05208-.76171-.05208-.48177 0-1.07422.13021-.59245.1237-1.22396.36459h-.0651v-1.2435q.35808-.09765 1.03516-.21483.67708-.1172 1.33463-.1172.76823 0 1.33463.13022.57292.1237.98958.42968.41016.29948.625.77474.21484.47526.21484 1.17838zm-1.21744-1.79036v-2.02473q-.5599.03255-1.32162.09766-.7552.0651-1.1979.1888-.52735.14974-.85287.46875-.32552.3125-.32552.86588 0 .625.3776.94401.3776.3125 1.15234.3125.64453 0 1.17839-.2474.53385-.2539.98958-.60546zm7.35024 1.72526q-.34505.09114-.7552.14974-.40365.05859-.72266.05859-1.11328 0-1.6927-.59896-.57943-.59895-.57943-1.92057v-3.86717h-.82682V49.5033h.82682v-2.08984h1.22395v2.08984h2.52604v1.02865h-2.52604v3.31379q0 .57291.02604.89843.02604.31901.1823.59896.14322.26042.39062.38411.2539.1172.76823.1172.29947 0 .625-.08464.32551-.09115.46874-.14974h.0651zm7.12889.0651h-1.21745v-.77474q-.16276.11068-.4427.3125-.27344.19532-.53386.3125-.30599.14974-.70312.2474-.39714.10417-.93099.10417-.98307 0-1.66666-.65104-.6836-.65104-.6836-1.66016 0-.82682.35157-1.33463.35807-.51432 1.01562-.80729.66406-.29297 1.59505-.39713.93099-.10417 1.9987-.15625v-.1888q0-.41667-.14975-.6901-.14323-.27344-.41666-.4297-.26042-.14973-.625-.20182-.36458-.05208-.76172-.05208-.48177 0-1.07421.13021-.59245.1237-1.22396.36459h-.0651v-1.2435q.35807-.09765 1.03515-.21483.67709-.1172 1.33464-.1172.76822 0 1.33463.13022.57291.1237.98958.42968.41015.29948.625.77474.21484.47526.21484 1.17838zm-1.21745-1.79036v-2.02473q-.5599.03255-1.32161.09766-.7552.0651-1.19791.1888-.52735.14974-.85287.46875-.32552.3125-.32552.86588 0 .625.3776.94401.37761.3125 1.15235.3125.64453 0 1.17838-.2474.53385-.2539.98958-.60546zm11.77732 1.79036h-3.82812v-.98958h1.26953v-7.71482h-1.26953v-.98958h3.82812v.98958H65.5638v7.71482h1.26953zm8.17706 0h-1.22396v-4.14061q0-.5013-.05859-.9375-.05859-.4427-.21484-.6901-.16276-.27344-.46875-.40365-.30599-.13672-.79427-.13672-.5013 0-1.04817.2474-.54688.2474-1.04818.6315v5.42968H68.9297v-7.27211h1.22395v.80728q.57292-.47525 1.1849-.74218.61197-.26693 1.2565-.26693 1.17838 0 1.79687.70964.6185.70963.6185 2.04426zm6.1328-.0651q-.34505.09114-.75521.14974-.40364.05859-.72265.05859-1.11328 0-1.6927-.59896-.57943-.59895-.57943-1.92057v-3.86717h-.82682V49.5033h.82682v-2.08984h1.22395v2.08984h2.52604v1.02865h-2.52604v3.31379q0 .57291.02604.89843.02604.31901.1823.59896.14322.26042.39062.38411.2539.1172.76822.1172.29948 0 .625-.08464.32552-.09115.46875-.14974h.0651zm7.56508-3.444h-5.35806q0 .67057.20182 1.17187.20183.49479.55339.8138.33854.3125.80078.46875.46875.15625 1.02864.15625.74219 0 1.49088-.29297.7552-.29948 1.07422-.58594h.0651v1.33464q-.6185.26041-1.26302.4362-.64453.17577-1.35416.17577-1.8099 0-2.82552-.97656-1.01562-.98307-1.01562-2.78645 0-1.78385.97005-2.83202.97656-1.04818 2.5651-1.04818 1.47135 0 2.26562.85938.80078.85937.80078 2.4414zm-1.1914-.9375q-.0065-.96354-.48828-1.49088-.47526-.52735-1.45182-.52735-.98307 0-1.569.57943-.57943.57943-.65756 1.4388zm8.94529 3.61978q0 1.84895-.83985 2.71484-.83984.86588-2.58462.86588-.57943 0-1.13281-.08463-.54688-.07813-1.08073-.22786v-1.25h.0651q.29948.11719.95052.28646.65104.17578 1.30208.17578.625 0 1.03515-.14974.41016-.14974.63802-.41667.22786-.2539.32552-.61197.09766-.35807.09766-.80078v-.66406q-.55338.4427-1.0612.66406-.5013.21484-1.28254.21484-1.30208 0-2.07031-.9375-.76172-.944-.76172-2.65624 0-.9375.26042-1.61458.26692-.6836.72265-1.17838.42318-.46224 1.02865-.71615.60546-.26041 1.20442-.26041.6315 0 1.05468.1302.4297.1237.90495.38412l.07813-.3125h1.14583zm-1.22396-1.17187v-3.96483q-.48828-.22136-.91145-.3125-.41667-.09766-.83334-.09766-1.0091 0-1.58853.67708-.57943.67708-.57943 1.96614 0 1.22395.42969 1.85546.42968.63151 1.42578.63151.53385 0 1.0677-.20182.54036-.20833.98958-.55338zm8.17056-3.9388h-.0651q-.27343-.0651-.53385-.09114-.25391-.03255-.60547-.03255-.5664 0-1.09374.2539-.52735.2474-1.01563.64453v5.16275h-1.22395v-7.27212h1.22395v1.07422q.72917-.58594 1.28255-.82682.5599-.2474 1.13932-.2474.31901 0 .46224.01953.14323.01302.42969.0586zm6.56899 5.9375h-1.21745v-.77475q-.16276.11068-.44271.3125-.27343.19532-.53385.3125-.30599.14974-.70312.2474-.39714.10417-.93099.10417-.98307 0-1.66666-.65104t-.68359-1.66016q0-.82682.35156-1.33463.35807-.51432 1.01562-.80729.66406-.29297 1.59505-.39713.93099-.10417 1.99869-.15625v-.1888q0-.41667-.14974-.6901-.14323-.27344-.41666-.4297-.26042-.14973-.625-.20182-.36458-.05208-.76172-.05208-.48177 0-1.07421.13021-.59245.1237-1.22396.36459h-.0651v-1.2435q.35807-.09765 1.03515-.21483.67708-.1172 1.33463-.1172.76823 0 1.33463.13022.57292.1237.98958.42968.41016.29948.625.77474.21485.47526.21485 1.17838zm-1.21745-1.79037v-2.02473q-.55989.03255-1.32161.09766-.75521.0651-1.19791.1888-.52735.14974-.85287.46875-.32552.3125-.32552.86588 0 .625.37761.94401.3776.3125 1.15234.3125.64453 0 1.17838-.2474.53385-.2539.98958-.60546zm7.35025 1.72526q-.34505.09114-.75521.14974-.40364.05859-.72265.05859-1.11328 0-1.69271-.59896-.57942-.59895-.57942-1.92057v-3.86717h-.82682V49.5033h.82682v-2.08984h1.22395v2.08984h2.52604v1.02865h-2.52604v3.31379q0 .57291.026.89843.026.31901.1823.59896.14322.26042.39062.38411.25391.1172.76823.1172.29948 0 .625-.08464.32552-.09115.46874-.14974h.0651zm2.79296-8.42446h-1.38021v-1.26953h1.38021zm-.0781 8.48956h-1.22395v-7.27211h1.22395zm8.61974-3.6328q0 1.77734-.91145 2.80598-.91146 1.02864-2.4414 1.02864-1.54297 0-2.45442-1.02864-.90495-1.02864-.90495-2.80598t.90495-2.80598q.91145-1.03516 2.45442-1.03516 1.52994 0 2.4414 1.03516.91145 1.02864.91145 2.80598zm-1.26302 0q0-1.41276-.55338-2.09635-.55338-.6901-1.53645-.6901-.9961 0-1.54948.6901-.54687.6836-.54687 2.09635 0 1.36718.55338 2.07682.55339.70312 1.54297.70312.97656 0 1.52994-.69661.55989-.70313.55989-2.08333zm9.23827 3.6328h-1.22396v-4.14061q0-.5013-.0586-.9375-.0586-.4427-.21485-.6901-.16276-.27344-.46875-.40365-.30598-.13672-.79426-.13672-.50131 0-1.04818.2474-.54687.2474-1.04817.6315v5.42968h-1.22396v-7.27211h1.22396v.80728q.57291-.47525 1.18489-.74218.61198-.26693 1.25651-.26693 1.17838 0 1.79687.70964.61849.70963.61849 2.04426z"/></svg>