<svg xmlns="http://www.w3.org/2000/svg" role="img" viewBox="-2.73 -2.73 141.83 56.08"><title>Tamr MDM logo</title><path d="M76.528 17.282h-7.4v20.8h-5.1v-20.8h-7.3v-4.4h19.8v4.4z"/><path d="M91.428 20.082v18h-4.8v-2.9c-1.4 2.1-3.8 3.3-6.3 3.2-4.7 0-8.2-3.9-8.2-9.3s3.5-9.3 8.2-9.3c2.5 0 4.9 1.2 6.3 3.2v-2.9h4.8zm-4.8 9c0-3.1-2-5.2-4.8-5.2s-4.8 2.2-4.8 5.2c-.2 2.7 1.8 5 4.5 5.2h.3c2.8 0 4.8-2.2 4.8-5.2zm35.3-2.9v11.8h-4.8v-11.2c.1-1.7-1.2-3.3-2.9-3.4-1.7-.1-3.3 1.2-3.4 2.9v11.6h-4.8v-11.2c0-2.1-1.2-3.4-3.1-3.4-1.7-.1-3.1 1.2-3.2 2.9v11.7h-4.7v-18h4.7v2.9c.9-2 3-3.3 5.3-3.2 2.3-.1 4.4 1.3 5.2 3.5 1-2.2 3.2-3.5 5.6-3.5 3.6.2 6.1 2.8 6.1 6.6zm14.5-6.7v4.7c-3.9 0-6.5 2-6.5 5.2v8.6h-4.7v-18h4.7v4c1-2.6 3.6-4.5 6.5-4.5z"/><path fill="#0859C6" d="M31.038 25.38c0 3.1-2.5 5.7-5.7 5.7s-5.7-2.5-5.7-5.7 2.5-5.7 5.7-5.7c3.2.1 5.7 2.6 5.7 5.7"/><path d="M11.881 28.226c-1.6 0-2.8-1.3-2.8-2.8 0-1.6 1.3-2.8 2.8-2.8 1.6 0 2.8 1.3 2.8 2.8.1 1.5-1.2 2.8-2.8 2.8m27 0c1.6 0 2.8-1.3 2.8-2.8 0-1.6-1.3-2.8-2.8-2.8-1.6 0-2.8 1.3-2.8 2.8s1.2 2.8 2.8 2.8m-10.6 10.7c0 1.6-1.3 2.8-2.8 2.8s-2.8-1.3-2.8-2.8c0-1.6 1.3-2.8 2.8-2.8 1.5-.1 2.8 1.2 2.8 2.8m0-27c0-1.6-1.3-2.8-2.8-2.8-1.6 0-2.8 1.3-2.8 2.8 0 1.6 1.3 2.8 2.8 2.8 1.5 0 2.8-1.2 2.8-2.8m-10.4 25c-1.1 1.1-2.9 1.1-4 0s-1.1-2.9 0-4 2.9-1.1 4 0 1.1 2.9 0 4m19.1-19c1.1-1.1 1.1-2.9 0-4s-2.9-1.1-4 0-1.1 2.9 0 4 2.9 1.1 4 0m0 15c1.1 1.1 1.1 2.9 0 4s-2.9 1.1-4 0-1.1-2.9 0-4 2.9-1.1 4 0m-19.1-19.1c-1.1-1.1-2.9-1.1-4 0s-1.1 2.9 0 4 2.9 1.1 4 0 1.1-2.9 0-4" fill="#089FFF"/><g fill="#0CF"><path d="M2.8 28.245c-1.6 0-2.8-1.3-2.8-2.8s1.3-2.8 2.8-2.8c1.6 0 2.8 1.3 2.8 2.8.1 1.5-1.2 2.8-2.8 2.8m45.2 0c1.6 0 2.8-1.3 2.8-2.8s-1.3-2.8-2.8-2.8c-1.6 0-2.8 1.3-2.8 2.8-.1 1.5 1.2 2.8 2.8 2.8m-19.8 19.7c0 1.6-1.3 2.8-2.8 2.8s-2.8-1.3-2.8-2.8c0-1.6 1.3-2.8 2.8-2.8 1.6 0 2.8 1.3 2.8 2.8m0-45.1c0-1.6-1.3-2.8-2.8-2.8-1.6 0-2.8 1.3-2.8 2.8 0 1.6 1.3 2.8 2.8 2.8 1.6 0 2.8-1.2 2.8-2.8m-16.7 40.5c-1.1 1.1-2.9 1.1-4 0s-1.1-2.9 0-4 2.9-1.1 4 0 1.1 2.9 0 4m31.9-31.9c1.1-1.1 1.1-2.9 0-4s-2.9-1.1-4 0-1.1 2.9 0 4 2.9 1.1 4 0m0 27.9c1.1 1.1 1.1 2.9 0 4s-2.9 1.1-4 0-1.1-2.9 0-4 2.9-1.1 4 0m-31.9-31.9c-1.1-1.1-2.9-1.1-4 0s-1.1 2.9 0 4 2.9 1.1 4 0 1.1-2.9 0-4"/></g></svg>