<svg xmlns="http://www.w3.org/2000/svg" role="img" viewBox="-14.60 -19.60 1955.20 297.20"><title>TimeXtender logo</title><path d="M108.69 53.046v174.765s-22.902 0-22.902-13.632V53.046H42.71c-16.631 0-19.085-14.723-19.085-22.902 0 0 4.907 4.09 23.447 4.09h101.151c18.54 0 23.447-4.09 23.447-4.09 0 8.179-2.454 22.902-19.085 22.902H108.69zm87.487-21.538s22.902 0 22.902 13.632v182.672s-22.902 0-22.902-13.632V31.508zm211.24 56.164c0-11.451 1.908-24.538 1.908-24.538l-60.527 123.781s-12.814 0-21.266-13.632l-51.53-110.148s1.908 13.087 1.908 24.538v140.139s-22.902 0-22.902-13.632V34.234h16.631c1.09 0 13.359-.273 19.903 13.632l50.712 108.785 58.619-122.417c6.543 0 29.445 0 29.445 13.632v179.945s-22.902 0-22.902-13.632V87.672zm82.331 42.806v75.795h97.333c0 1.091-.272 18.812-13.632 18.812h-83.702s-22.902 0-22.902-13.632V34.234h120.236s0 18.812-13.632 18.812h-83.702v58.619h62.98c18.54 0 23.447-4.09 23.447-4.09 0 8.18-2.454 22.902-19.085 22.902h-67.341z" fill="#333"/><path d="M1015.44 53.046v174.765s-22.902 0-22.902-13.632V53.046H949.46c-16.631 0-19.085-14.723-19.085-22.902 0 0 4.907 4.09 23.447 4.09h101.151c18.539 0 23.447-4.09 23.447-4.09 0 8.179-2.454 22.902-19.086 22.902h-43.894zm110.389 77.432v75.795h97.334c0 1.091-.273 18.812-13.633 18.812h-83.701s-22.902 0-22.902-13.632V34.234h120.236s0 18.812-13.633 18.812h-83.701v58.619h62.98c18.54 0 23.447-4.09 23.447-4.09 0 8.18-2.453 22.902-19.085 22.902h-67.342zm243.275 46.622l12.542 20.721s-2.727-14.177-2.727-22.356V34.234s22.902 0 22.902 13.632v179.945c-29.174 0-37.08-17.722-37.08-17.722l-91.608-148.045s2.727 13.087 2.727 24.538v141.229s-22.902 0-22.902-13.632V34.234c15.54 0 28.354 0 36.808 13.632l79.338 129.234zm91.465 47.985c-2.182 0-22.357-.545-22.357-13.632V34.234h72.251c40.079 0 77.977 13.632 77.977 62.98v64.889c0 49.349-37.897 62.981-77.977 62.981h-49.894zm.545-172.039v153.226h49.349c30.81 0 55.074-11.451 55.074-46.895V99.669c0-35.444-24.265-46.623-55.074-46.623h-49.349zm183.891 77.432v75.795h97.334c0 1.091-.272 18.812-13.632 18.812h-83.702s-22.902 0-22.902-13.632V34.234h120.236s0 18.812-13.632 18.812h-83.702v58.619h62.98c18.541 0 23.447-4.09 23.447-4.09 0 8.18-2.453 22.902-19.084 22.902h-67.343zm192.291 5.725c37.625 14.723 53.165 70.069 66.525 90.245 0 0-3.272.818-7.907.818-7.634 0-19.357-2.454-26.446-15.541-21.539-40.079-31.627-69.252-74.432-74.705v90.791s-22.902-.273-22.902-13.632V34.234h56.165c37.352 0 64.344 11.724 64.344 46.077v8.179c0 30.809-23.175 47.713-55.347 47.713zm-42.26-83.157v65.98h35.443c29.173 0 39.261-11.996 39.261-34.626 0-23.174-13.359-31.354-41.441-31.354h-33.263z" fill="#333"/><path fill="#FF5C00" d="M926.91 240.143l-101.63-17.44-63.75-65.76-63 66.09-88.73 17.44 103.22-111.661-102.66-110.25 91.69 19.271 59.48 62.719 59.49-62.719 96.89-19.13-107.86 110.109z"/></svg>