<svg xmlns="http://www.w3.org/2000/svg" role="img" viewBox="-16.84 -16.34 875.68 188.18"><title>Trifacta logo</title><g fill="none" fill-rule="evenodd"><path fill="#0EA94B" d="M135.9 106.5c0-1.9 0-3.9-.1-5.9 0 3.3-.2 6.5-.7 9.6-2.2 12.9-8.7 22.5-18.3 27.2-4.8 2.3-10 3.3-15.5 2.8-14.6-1.1-29.3-11.2-39.5-26.6-.9-1.4-1.8-2.9-2.7-4.4-.9-1.5-1.7-3.1-2.5-4.7-6.5-13.3-8.6-27.7-6.7-40.4 2.6-17.7 11.2-24.2 11.2-24.2-3.1 1.7-5.9 3.8-8.3 6.4-15.5 13.1-19.8 39.4-10 64.6.7 2 1.6 3.9 2.5 5.8 0 0 0 .1.1.1 10.7 22 30.1 37.1 49.5 38.6 3.3.2 6.6.1 9.7-.5 3.1-.6 6.1-1.6 9-2.9 15.2-7.5 23.2-25.3 22.3-45.5z"/><path fill="#F36D24" d="M88.1 10.8c-1.7 1-3.3 2-4.9 3.1 2.8-1.7 5.7-3.2 8.6-4.3 12.1-4.8 23.8-4.2 32.8 1.6 4.4 2.9 7.9 6.9 10.5 11.8 6.6 13 5.6 30.9-2.4 47.6-.7 1.5-1.5 3.1-2.4 4.6-.8 1.5-1.8 3-2.7 4.5-8.1 12.4-19.2 21.7-31.1 26.7-16.5 6.9-26.5 2.9-26.5 2.9 3.1 1.8 6.3 3.1 9.8 3.8 19.3 6.5 44-3.4 60.5-24.8 1.3-1.6 2.5-3.4 3.7-5.2l.1-.1c13.3-20.5 16.2-44.9 7.4-62.3-1.5-3-3.3-5.7-5.4-8-2.1-2.4-4.5-4.4-7.2-6.2-14.6-9.2-34-6.9-50.8 4.3z"/><path fill="#09C0E0" d="M30.4 101.2c1.7.9 3.5 1.8 5.3 2.5-2.9-1.5-5.7-3.1-8.2-5C17 90.9 11.3 80.8 11.5 70c.1-5.3 1.6-10.4 4.5-15.1 7.5-12.5 23.3-21.1 41.7-23.2 1.7-.2 3.4-.3 5.1-.4 1.8-.1 3.5-.1 5.3-.1 14.8.3 28.6 4.8 39.1 12.3 14.6 10.3 16.5 21 16.5 21-.1-3.5-.8-7-1.9-10.3-4.7-19.8-26.1-35.5-53-38.2-2.1-.2-4.2-.4-6.3-.4h-.1c-24.4-.5-46.7 10-56.8 26.7-1.7 2.9-3 5.8-3.9 8.9-.9 3-1.4 6.2-1.4 9.3-.6 17.2 11.7 32.4 30.1 40.7z"/><g fill="#000"><path d="M278.1 34.3h-66.9c-1.5 0-2.7 1.2-2.7 2.7v4.6c0 1.5 1.2 2.7 2.7 2.7h28.1v75.1c0 1.5 1.2 2.7 2.7 2.7h5.4c1.5 0 2.7-1.2 2.7-2.7V44.3h28.1c1.5 0 2.7-1.2 2.7-2.7V37c-.1-1.5-1.3-2.7-2.8-2.7m480.4 0h-66.9c-1.5 0-2.7 1.2-2.7 2.7v4.6c0 1.5 1.2 2.7 2.7 2.7h28.1v75.1c0 1.5 1.2 2.7 2.7 2.7h5.4c1.5 0 2.7-1.2 2.7-2.7V44.3h28.1c1.5 0 2.7-1.2 2.7-2.7V37c-.1-1.5-1.3-2.7-2.8-2.7M344.2 87c14.3-3 23.6-12.6 23.6-26.2 0-7.1-2.3-13.2-6.8-17.7-5.6-5.7-14.4-8.8-24.8-8.8h-34.8c-1.5 0-2.7 1.2-2.7 2.7v82.4c0 1.5 1.2 2.7 2.7 2.7h5.3c1.5 0 2.7-1.2 2.7-2.7V88.1h22.9l22.5 32.9c.5.7 1.3 1.1 2.1 1.1h6.4c1 0 1.9-.6 2.4-1.5s.4-2-.3-2.8L344.2 87zm-34.9-8.4V44.2h26.1c13.7 0 21.6 6.1 21.6 16.7 0 11.4-11.2 17.7-23.3 17.7h-24.4zm93.8-44.3h-5.3c-1.5 0-2.7 1.2-2.7 2.7v82.4c0 1.5 1.2 2.7 2.7 2.7h5.3c1.5 0 2.7-1.2 2.7-2.7V37c0-1.5-1.2-2.7-2.7-2.7m97.1 0h-60.6c-1.5 0-2.7 1.2-2.7 2.7v82.4c0 1.5 1.2 2.7 2.7 2.7h5.3c1.5 0 2.7-1.2 2.7-2.7V84.2h37.2c1.5 0 2.7-1.2 2.7-2.7V77c0-1.5-1.2-2.7-2.7-2.7h-37.2V44.2h52.6c1.5 0 2.7-1.2 2.7-2.7V37c0-1.5-1.2-2.7-2.7-2.7m169.6 68.4c-1-1-2.6-1-3.7-.1-6.2 5.7-13.6 11-26 11-18.5 0-32.9-15.6-32.9-35.4 0-20.2 14.1-35.4 32.9-35.4 12.3 0 20.3 5.9 25.2 10.3 1.1 1 2.7.9 3.7-.2l3.6-3.9c.5-.5.7-1.2.7-2 0-.7-.4-1.4-.9-1.9-6.7-6.1-15.9-12.3-32.2-12.3-24.7 0-44 19.9-44 45.4 0 25.9 18.8 45.4 43.6 45.4 13.2 0 23.2-4.1 33.1-13.8.5-.5.8-1.2.8-1.9s-.3-1.4-.8-1.9l-3.1-3.3zM549.1 35.3c-.4-1-1.4-1.6-2.4-1.6h-6.2c-1 0-2 .6-2.4 1.6l-37.3 83c-.4.8-.3 1.8.2 2.6s1.3 1.2 2.3 1.2h5.1c1.1 0 2-.6 2.4-1.6l9.2-21.4h46.8l9.2 21.4c.4 1 1.4 1.6 2.4 1.6h5.6c.9 0 1.8-.5 2.2-1.2.5-.8.6-1.7.2-2.6l-37.3-83zm-24.7 54.1l19-42.8 18.9 42.8h-37.9zm280.4-54.1c-.4-1-1.4-1.6-2.4-1.6h-6.2c-1 0-2 .6-2.4 1.6l-37.3 83c-.4.8-.3 1.8.2 2.6s1.3 1.2 2.3 1.2h5.1c1.1 0 2-.6 2.4-1.6l9.2-21.4h46.8l9.2 21.4c.4 1 1.4 1.6 2.4 1.6h5.6c.9 0 1.8-.5 2.2-1.2.5-.8.6-1.7.2-2.6l-37.3-83zm-24.7 54.1l19-42.8L818 89.4h-37.9z"/></g><path fill="#000" d="M842.4 40.6c0 3.9-3.1 7-7.1 7-4 0-7.2-3.1-7.2-7s3.2-7 7.2-7c4 .1 7.1 3.2 7.1 7zm-12.5 0c0 3.1 2.3 5.6 5.4 5.6 3.1 0 5.3-2.5 5.3-5.5 0-3.1-2.2-5.6-5.3-5.6-3.1 0-5.4 2.5-5.4 5.5zm4.3 3.7h-1.6v-7c.6-.1 1.5-.2 2.7-.2 1.3 0 1.9.2 2.4.5.4.3.7.8.7 1.5 0 .8-.6 1.4-1.4 1.6v.1c.7.3 1.1.8 1.3 1.7.2 1.1.3 1.5.5 1.7h-1.7c-.2-.3-.3-.9-.6-1.7-.1-.8-.6-1.1-1.4-1.1h-.8v2.9h-.1zm0-4h.8c.9 0 1.6-.3 1.6-1 0-.6-.5-1.1-1.5-1.1-.4 0-.7 0-.9.1v2z"/></g></svg>