<svg xmlns="http://www.w3.org/2000/svg" role="img" viewBox="3.72 0.53 24.13 27.75"><title>Varigence logo</title><path fill="#c6093b" d="m 24.237995,19.557027 a 1.8344447,1.8344447 0 0 0 1.839396,-2.370832 l -0.295426,-1.244419 -1.183353,-4.938064"/><path fill="#d2d2d2" d="m 6.9242357,11.003712 v 0 7.138903 a 2.991391,2.991391 0 0 0 0.1930994,1.072774 c 0.051163,0.118006 0.1023262,0.236011 0.1650423,0.354016 a 2.9121707,2.9121707 0 0 0 0.3606173,0.524009 2.5903383,2.5903383 0 0 0 0.7715726,0.589201 2.1612284,2.1612284 0 0 0 0.9539443,0.223632 H 22.165889 a 2.1612284,2.1612284 0 0 0 0.952294,-0.222807 2.2751076,2.2751076 0 0 0 0.771573,-0.5892 2.0465241,2.0465241 0 0 0 0.347413,-0.52401 1.7824564,1.7824564 0 0 0 0.165043,-0.354015 2.9394027,2.9394027 0 0 0 0.193099,-1.072775 v -7.139728 z"/><path fill="#c6093b" d="m 24.598612,11.003712 v 0 l 2.572184,-3.5624375 c 0.540513,-0.7426897 -0.08995,-1.34922 -1.376453,-1.3756268"/><path fill="#d2d2d2" d="M 24.598612,11.003712 25.781965,6.0656477 26.077391,4.8212291 A 1.8344447,1.8344447 0 0 0 24.237995,2.450397"/><path fill="#c6093b" d="M 24.598612,11.003712 V 3.8648092 A 2.991391,2.991391 0 0 0 24.405513,2.7920345 C 24.353524,2.6740293 24.302361,2.556024 24.24047,2.4380188 A 3.7225282,3.7225282 0 0 0 23.893056,1.9140096 2.5903383,2.5903383 0 0 0 23.121484,1.3248088 2.1612284,2.1612284 0 0 0 22.165889,1.1011765 H 9.3553082 A 2.351027,2.351027 0 0 0 8.4030143,1.3107802 2.4558289,2.4558289 0 0 0 7.6314418,1.899981 2.506992,2.506992 0 0 0 7.2716496,2.4239902 1.7824564,1.7824564 0 0 0 7.1066074,2.7780059 2.9427035,2.9427035 0 0 0 6.9135079,3.8507806 v 7.1389024 q 8.8536931,0.02063 17.6851041,0.01403 z"/><path fill="#d2d2d2" d="M25.781965 15.941776c1.298883-.02641 1.916141-.628811 1.375627-1.362424l-2.55898-3.57564v0M24.598612 11.003712L23.414434 6.0656477 23.119008 4.8212291A3.2381292 3.2381292 0 0 0 20.108637 2.450397H7.3871792a1.8344447 1.8344447 0 0 0-1.839396 2.3708321l1.6817807 6.1956859"/><path fill="#c6093b" d="M24.598612 11.003712l-1.184178 4.938064-.295426 1.244419A3.2505074 3.2505074 0 0 1 20.108637 19.57023H7.3739758A1.8344447 1.8344447 0 0 1 5.5345798 17.199398L5.8308307 15.95498h.078395l1.3203381-4.938065M24.598612 11.003712v0L22.040457 7.4412745A4.6756473 4.6756473 0 0 0 18.61748 6.0656477H5.8308307C4.5319481 6.0920545 3.9138648 6.6944588 4.4543782 7.4412745l2.5598055 3.5624375v0"/><path fill="#d2d2d2" d="m 7.0141837,11.003712 -2.5581551,3.57564 c -0.5405134,0.746817 0.089948,1.349221 1.3764525,1.362424 H 18.61748 a 4.6525414,4.6525414 0 0 0 3.422152,-1.375627 l 2.55898,-3.562437"/><g><path d="M7.4735459 26.553174q0 .289063-.109375.510417-.1093749.221354-.2942706.364583-.2187499.171875-.4817706.244791-.2604165.07292-.6640621.07292H4.5490685V23.86828h1.1484368q.4244789 0 .6354163.03125.2109373.03125.4036456.130208.2135415.11198.3098956.289063.096354.174479.096354.41927 0 .276042-.1406249.471354-.1406249.192708-.3749998.309896v.02083q.393229.08073.6197913.346354.2265624.263021.2265624.666666zM6.6063589 24.80578q0-.140625-.046875-.236979-.046875-.09635-.1510415-.15625-.1223958-.07031-.2968749-.08594-.174479-.01823-.4322914-.01823H5.0646932v1.119791h.6666662q.2421874 0 .3854165-.02344.143229-.02604.2656248-.104167.1223958-.07813.1718749-.200521.052083-.125.052083-.29427zm.330729 1.768228q0-.234375-.070312-.372396-.070312-.138021-.2552082-.234375-.1249999-.0651-.3046873-.08333-.1770832-.02083-.4322914-.02083H5.0646932v1.442707h.6822912q.3385415 0 .5546872-.03385.2161457-.03646.3541664-.130208.1458333-.101563.2135416-.231771.067708-.130208.067708-.335937zM8.6922952 24.350051h-.552083v-.507812h.552083zm-.03125 3.395831H8.1714622V24.83703h.489583zM13.874584 27.745882h-.489583v-1.656249q0-.1875-.01823-.361979-.01563-.174479-.07031-.278646-.0599-.111979-.171875-.16927-.111979-.05729-.322916-.05729-.205729 0-.411458.104167-.205729.101562-.411458.260416.0078.0599.01302.140625.0052.07813.0052.15625v1.861978h-.489583v-1.656249q0-.192708-.01823-.364583-.01563-.174479-.07031-.278646-.0599-.111979-.171875-.166666-.111979-.05729-.322916-.05729-.200521 0-.403646.09896-.200521.09896-.401041.252604v2.171874H9.6297946V24.83703h.4895834v.322916q.229166-.190104.455729-.296875.229166-.106771.486978-.106771.296875 0 .502604.125.208334.125.309896.346354.296875-.249999.541666-.359374.244792-.11198.523437-.11198.479167 0 .705729.291667.229167.289062.229167.809895zM15.312083 27.745882H14.8225v-4.052081h.489583zM18.796456 24.326613h-1.960937v1.09375h1.684895v.458333h-1.684895v1.867186H16.319895V23.86828h2.476561zM19.840726 27.745882h-.489583v-4.052081h.489583zM23.244369 26.342237h-2.143228q0 .268229.08073.46875.08073.197916.221354.32552.135416.125.320312.1875.1875.0625.411458.0625.296875 0 .596354-.117187.302083-.119792.429687-.234375h.02604v.533854q-.247396.104166-.505208.174479-.257813.07031-.541667.07031-.723958 0-1.130207-.390624-.40625-.393229-.40625-1.114583 0-.713541.388021-1.132812.390624-.419271 1.026041-.419271.588541 0 .906249.34375.320312.34375.320312.976562zm-.476562-.375q-.0026-.385416-.195312-.596354-.190104-.210937-.580729-.210937-.393229 0-.627604.231771-.231771.23177-.263021.57552zM26.504785 27.745882h-.617187l-.825521-1.117187-.830728 1.117187h-.570313l1.135416-1.45052-1.124999-1.458332h.617187l.820312 1.098957.822916-1.098957h.572917l-1.143229 1.43229z"/></g></svg>