<svg xmlns="http://www.w3.org/2000/svg" role="img" viewBox="-29.92 -29.92 1555.84 318.84"><title>WhereScape RED logo</title><path fill="#C3002E" d="M186.711 201.542h-27.047L119.53 61.946 78.523 201.542H52.35L0 1.744h32.282L67.18 144.831 107.315 1.744h24.43l40.134 143.087L206.778 1.744h32.282l-52.349 199.798zm151.811 0v-87.248c0-21.812-13.088-31.409-28.792-31.409-15.705 0-28.792 9.597-28.792 31.409v87.248h-28.792V1.744h28.792V74.16c9.597-10.47 22.684-15.704 36.644-15.704 31.409 0 49.731 20.94 49.731 52.348v91.611h-28.791v-.873zM473.755 99.463c-4.362-10.47-14.832-18.322-27.919-18.322s-23.557 6.98-28.792 18.322c-2.618 6.108-3.49 10.47-3.49 19.195h63.691c0-8.725-.872-12.215-3.49-19.195zm-60.201 39.262c0 24.43 13.087 40.134 36.644 40.134 15.705 0 24.43-4.362 34.899-14.832l18.323 17.45c-14.833 14.832-28.792 21.812-53.222 21.812-35.772 0-63.691-19.195-63.691-73.289 0-46.241 23.557-72.416 60.201-72.416 38.389 0 60.201 27.92 60.201 68.926v13.088h-93.355v-.873zm190.204-46.241c-6.107-6.108-11.342-9.598-20.939-9.598-15.705 0-28.792 12.215-28.792 32.282v86.376h-28.792V59.329h27.919v15.705c6.98-10.47 21.812-17.45 38.389-17.45 13.96 0 24.43 3.49 34.027 13.088l-21.812 21.812zm109.06 6.979c-4.363-10.47-14.832-18.322-27.92-18.322-13.087 0-23.557 6.98-28.791 18.322-2.618 6.108-3.49 10.47-3.49 19.195h63.691c0-8.725-.873-12.215-3.49-19.195zm-60.201 39.262c0 24.43 13.087 40.134 36.644 40.134 15.705 0 24.429-4.362 34.899-14.832l18.322 17.45c-14.832 14.832-28.792 21.812-53.221 21.812-35.772 0-64.564-19.195-64.564-73.289 0-46.241 23.557-72.416 60.201-72.416 38.39 0 60.202 27.92 60.202 68.926v13.088h-92.483v-.873zm180.601 64.564c-30.537 0-51.476-6.98-70.671-26.175l20.067-20.067c14.833 14.833 30.537 19.195 51.477 19.195 26.174 0 41.006-11.342 41.006-30.537 0-8.725-2.617-15.705-7.852-20.939-5.235-4.363-10.47-6.98-21.812-8.725l-23.557-2.618c-16.577-2.617-29.664-7.852-38.389-15.704-9.597-9.598-14.832-21.812-14.832-38.39 0-34.899 25.302-58.456 67.181-58.456 26.174 0 45.369 6.98 61.946 22.685l-19.195 19.194c-12.214-12.214-27.047-15.704-43.624-15.704-23.557 0-36.644 13.087-36.644 31.409 0 6.98 2.618 13.96 7.852 18.322 5.235 4.362 13.96 6.98 22.685 8.725l22.684 3.49c18.322 2.617 28.792 6.98 37.517 14.832 11.342 9.597 16.577 23.557 16.577 41.007 0 36.644-29.664 58.456-72.416 58.456zm150.94 0c-32.281 0-63.691-20.067-63.691-73.289 0-53.221 31.41-72.416 63.691-72.416 20.072 0 33.152 5.235 47.112 20.067l-20.06 19.195c-8.73-9.597-15.709-13.087-27.052-13.087-11.342 0-20.067 4.362-26.174 13.087-6.107 7.852-8.725 18.322-8.725 34.899s2.618 27.047 8.725 34.9c6.107 7.852 15.705 13.087 26.174 13.087 11.343 0 18.322-3.49 27.052-13.087l20.06 19.194c-13.96 12.215-27.92 17.45-47.112 17.45zm141.342-64.564h-33.15c-16.58 0-25.31 7.852-25.31 20.939s7.86 20.067 26.18 20.067c11.34 0 19.19-.872 27.05-7.852 4.36-4.363 6.1-11.342 6.1-20.94v-12.214h-.87zm.87 62.818v-13.087c-10.47 10.47-20.06 14.832-38.39 14.832-17.45 0-29.66-4.362-38.39-13.087-6.98-7.852-11.34-18.322-11.34-30.537 0-23.557 16.58-41.006 48.86-41.006h37.52v-10.47c0-18.322-8.73-27.047-31.41-27.047-15.71 0-23.56 3.49-31.41 13.96l-19.2-17.45c13.09-15.705 27.92-20.94 51.48-20.94 39.26 0 58.46 16.578 58.46 48.859v95.101h-26.18v.872zm108.19-118.657c-26.17 0-29.66 21.812-29.66 47.114 0 25.302 4.36 47.114 29.66 47.114 26.18 0 29.67-21.812 29.67-47.114 0-24.429-4.37-47.114-29.67-47.114zm41.88 108.188c-7.85 7.852-20.07 13.087-34.9 13.087-14.83 0-27.04-4.362-37.51-16.577V260h-28.8V59.33h27.92v14.832c10.47-13.088 21.81-16.578 37.52-16.578 13.96 0 27.05 4.363 34.9 13.088 13.96 13.96 15.7 38.389 15.7 60.201 1.75 20.939 0 45.369-14.83 60.201zm123.02-91.611c-4.37-10.47-14.83-18.322-27.92-18.322-13.09 0-23.56 6.98-28.79 18.322-2.62 6.108-3.49 10.47-3.49 19.195h63.69c0-8.725-.88-12.215-3.49-19.195zm-60.2 39.262c0 24.43 13.08 40.134 36.64 40.134 15.71 0 24.43-4.362 34.9-14.832l18.32 17.45c-14.83 14.832-28.79 21.812-53.22 21.812-35.77 0-64.56-19.195-64.56-73.289 0-46.241 23.55-72.416 60.2-72.416 38.39 0 60.2 27.92 60.2 68.926v13.088h-92.48v-.873zM1463.15 20.94h-6.11v11.342h6.11c3.49 0 6.11-2.618 6.11-5.235 0-3.49-2.62-6.108-6.11-6.108zm6.11 31.409l-7.85-14.832h-4.37v14.832h-6.98V15.705h13.96c6.98 0 11.35 5.234 11.35 11.342 0 5.235-3.49 8.725-6.98 9.597l7.85 15.705h-6.98zm-6.98-46.242c-14.83 0-27.05 12.215-27.05 27.92 0 15.704 12.22 27.92 27.05 27.92s27.05-12.216 27.05-27.92c0-15.705-12.22-27.92-27.05-27.92zm0 61.947c-18.32 0-34.03-14.833-34.03-34.027 0-18.322 14.84-34.027 34.03-34.027s34.03 14.832 34.03 34.027c0 18.322-15.71 34.026-34.03 34.026z"/></svg>