<svg xmlns="http://www.w3.org/2000/svg" role="img" viewBox="-23.80 -26.30 3447.60 1027.60"><title>XPlenty Integration Platform logo</title><path fill="#262626" d="M1402.265 441.599l-149.874-202.035h88.701l106.441 147.415 107.053-147.415h86.254l-149.262 200.86 155.38 210.256h-88.701l-112.558-155.637-113.171 155.637h-86.254l155.991-209.081zm646.299-203.448h68.378v412.53h-68.378v-412.53zm130.01 264.471v-1.13c0-80.802 62.295-153.177 150.21-153.177 97.811 0 147.299 72.367 147.299 158.263 0 6.216-.583 12.433-1.164 19.214h-229.461c7.569 48.6 50.25 78.648 92.059 78.648 34.351 0 62.364-6.455 86.816-29.625l33.497 40.233c-30.497 29.517-65.002 42.415-121.477 42.415-89.078-.001-157.779-62.728-157.779-154.841zm236.759-22.039c-4.657-44.079-29.25-78.55-83.447-78.55-52.303 0-79.229 30.024-85.634 76.363l169.081 2.187zm127.688-128.28h64.92v46.339c18.723-28.255 62.33-49.671 107.486-49.671 65.531 0 93.656 37.969 93.656 111.833v189.877h-66.634V481.148c0-65.521-19.154-72.878-58.803-72.878-38.548 0-75.705 21.42-75.705 58.545v183.866h-64.92V352.303zm357.836 218.684V412.533h-46.774v-57.418h46.774v-81.94h65.089v81.94h64.199v57.418h-64.199V560.25c0 26.56 12.91 37.297 34.966 37.297 14.524 0 27.434-3.391 27.434-3.391l12.91 49.165c-16.138 9.607-34.427 15.258-58.634 15.258-47.876 0-81.765-22.039-81.765-87.592zm173.914 192.138l10.452-57.132c15.236 2.508 25.18 3.882 39.986 3.882 20.136 0 29.781-32.074 41.625-58.069L3044.41 353.428h76.397l81.591 221.523 88.377-221.523h69.612l-124.366 306.854c-24.874 61.032-51.099 109.03-101.438 109.03-19.5 0-50.657-4.255-59.812-6.187zM1851.099 347.846c-44.655 0-74.284 22.588-95.579 51.613v-45.397h-64.125v409.753h64.125V608.41c20.339 26.01 49.983 48.487 95.579 48.487 69.459 0 134.765-54.187 134.765-153.081v-1.13c0-98.894-65.858-154.84-134.765-154.84zm67.805 155.97c0 58.771-37.486 93.745-83.24 93.745-35.899 0-65.519-14.59-80.144-42.61V453.948c14.062-30.375 44.244-46.766 80.144-46.766 45.203 0 83.24 37.862 83.24 95.503v1.131z"/><path fill="#0D86EF" d="M295.589 452.18l85.374 68.301 117.393-192.099 149.412 239.057 81.108-64.034L818.52 635.74c21.344-46.957 38.421-102.451 38.421-155.814 0-202.768-160.08-362.852-362.855-362.852-202.768 0-369.253 164.351-369.253 362.855 0 64.031 17.077 117.393 42.691 170.752l128.065-198.505v.004z"/><path fill="#3F3F3F" d="M493.044 70.869c56.456 0 111.207 11.051 162.733 32.844 49.783 21.056 94.499 51.207 132.907 89.614 38.407 38.407 68.558 83.123 89.614 132.907 21.793 51.526 32.844 106.277 32.844 162.733s-11.05 111.208-32.844 162.733c-21.057 49.783-51.207 94.5-89.614 132.907-38.407 38.407-83.123 68.558-132.907 89.614-51.526 21.793-106.277 32.844-162.733 32.844s-111.207-11.051-162.733-32.844c-49.783-21.056-94.499-51.207-132.907-89.614-38.407-38.407-68.558-83.123-89.614-132.907-21.793-51.526-32.844-106.277-32.844-162.733s11.05-111.208 32.844-162.733c21.057-49.783 51.207-94.5 89.614-132.907 38.407-38.407 83.123-68.558 132.907-89.614 51.525-21.794 106.277-32.844 162.733-32.844m0-30c-247.478 0-448.098 200.62-448.098 448.098s200.62 448.098 448.098 448.098 448.098-200.62 448.098-448.098S740.521 40.869 493.044 40.869z"/></svg>