<svg id="Layer_1" data-name="Layer 1" xmlns="http://www.w3.org/2000/svg" xmlns:xlink="http://www.w3.org/1999/xlink" viewBox="0 0 370.67 75"><defs><style>.cls-1{fill:url(#linear-gradient);}.cls-2{fill:url(#linear-gradient-2);}.cls-3{fill:url(#linear-gradient-3);}.cls-4{fill:url(#linear-gradient-4);}.cls-5{fill:url(#linear-gradient-5);}.cls-6{fill:url(#linear-gradient-6);}</style><linearGradient id="linear-gradient" x1="-69.84" y1="381.71" x2="375.16" y2="389.71" gradientTransform="matrix(1, 0, 0, -1, -0.49, 430.67)" gradientUnits="userSpaceOnUse"><stop offset="0" stop-color="#14c7be"/><stop offset="1" stop-color="#6997f4"/></linearGradient><linearGradient id="linear-gradient-2" x1="-70.01" y1="390.79" x2="374.99" y2="398.79" xlink:href="#linear-gradient"/><linearGradient id="linear-gradient-3" x1="-69.82" y1="380.12" x2="375.18" y2="388.12" xlink:href="#linear-gradient"/><linearGradient id="linear-gradient-4" x1="-69.8" y1="379.01" x2="375.2" y2="387.01" xlink:href="#linear-gradient"/><linearGradient id="linear-gradient-5" x1="-69.77" y1="377.8" x2="375.23" y2="385.8" xlink:href="#linear-gradient"/><linearGradient id="linear-gradient-6" x1="-69.74" y1="376.09" x2="375.26" y2="384.09" xlink:href="#linear-gradient"/></defs><title>alooma-logo</title><path class="cls-1" d="M18.57,74.33a20.29,20.29,0,0,1-7.3-1.3,18.07,18.07,0,0,1-5.85-3.55,16.25,16.25,0,0,1-3.85-5.35,16.07,16.07,0,0,1-1.4-6.7,15.7,15.7,0,0,1,1.7-7.3,17.51,17.51,0,0,1,4.7-5.7,21.69,21.69,0,0,1,7.11-3.7,30.52,30.52,0,0,1,9.15-1.3,24.66,24.66,0,0,1,10.6,2v-1.6q0-3.7-2.15-5.5t-6.95-1.8A23.13,23.13,0,0,0,16,34a40.92,40.92,0,0,0-8,4.25L2.57,26.43a42.81,42.81,0,0,1,23.7-6.7q12.6,0,19.4,5.6t6.8,16.8v10.2q0,2.7,1,3.75a5.49,5.49,0,0,0,3.6,1.25v16q-2.6.5-4.9.75a38.69,38.69,0,0,1-4.1.25q-5.1,0-7.75-1.85A8.62,8.62,0,0,1,36.87,67l-.4-1.9A24.21,24.21,0,0,1,28.37,72,21.26,21.26,0,0,1,18.57,74.33Zm5.7-13.6a11.94,11.94,0,0,0,3.5-.55A12.78,12.78,0,0,0,31,58.73,8.19,8.19,0,0,0,32.77,57a3.26,3.26,0,0,0,.7-2v-3.9a27.3,27.3,0,0,0-3.7-1,18.64,18.64,0,0,0-3.6-.4,9.49,9.49,0,0,0-5.8,1.7,5.15,5.15,0,0,0-2.3,4.3,4.4,4.4,0,0,0,1.75,3.6A6.89,6.89,0,0,0,24.27,60.73Z"/><path class="cls-2" d="M63.17.33h19v50.8q0,6,4.9,6a9.49,9.49,0,0,0,2.6-.4,11.24,11.24,0,0,0,2.6-1.1l2.41,15.3A34.93,34.93,0,0,1,87,73.43a38.92,38.92,0,0,1-8.05.9q-7.6,0-11.7-3.9t-4.1-11.3Z"/><path class="cls-3" d="M125.07,74.33a31.92,31.92,0,0,1-12.45-2.25,26.94,26.94,0,0,1-9-6,24.74,24.74,0,0,1-5.5-8.7,29.87,29.87,0,0,1,0-20.7,24.74,24.74,0,0,1,5.5-8.7,26.94,26.94,0,0,1,9-6,31.92,31.92,0,0,1,12.45-2.25A32,32,0,0,1,137.47,22a26.85,26.85,0,0,1,9,6,24.78,24.78,0,0,1,5.5,8.7,29.87,29.87,0,0,1,0,20.7,24.78,24.78,0,0,1-5.5,8.7,26.85,26.85,0,0,1-9,6A32,32,0,0,1,125.07,74.33ZM115.77,47q0,5.3,2.6,8.3a9,9,0,0,0,13.4,0q2.6-3,2.6-8.3t-2.6-8.3a9,9,0,0,0-13.4,0Q115.77,41.73,115.77,47Z"/><path class="cls-4" d="M186.47,74.33A31.92,31.92,0,0,1,174,72.08a26.94,26.94,0,0,1-9-6,24.74,24.74,0,0,1-5.5-8.7,29.87,29.87,0,0,1,0-20.7A24.74,24.74,0,0,1,165,28a26.94,26.94,0,0,1,9-6,35.43,35.43,0,0,1,24.85,0,26.85,26.85,0,0,1,9,6,24.78,24.78,0,0,1,5.5,8.7,29.87,29.87,0,0,1,0,20.7,24.78,24.78,0,0,1-5.5,8.7,26.85,26.85,0,0,1-9,6A32,32,0,0,1,186.47,74.33ZM177.17,47q0,5.3,2.6,8.3a9,9,0,0,0,13.4,0q2.6-3,2.6-8.3t-2.6-8.3a9,9,0,0,0-13.4,0q-2.6,3-2.6,8.3Z"/><path class="cls-5" d="M306.77,73.33h-19V43.73q0-3.9-1.55-5.65a4.84,4.84,0,0,0-3.75-1.75,7.8,7.8,0,0,0-4.85,2.1,12.27,12.27,0,0,0-3.75,5.4v29.5h-19V43.73q0-3.9-1.55-5.65a4.84,4.84,0,0,0-3.75-1.75,7.8,7.8,0,0,0-4.89,2.1,12.27,12.27,0,0,0-3.75,5.4v29.5h-19V20.73H239v7.8a17.85,17.85,0,0,1,7.7-6.55,27.59,27.59,0,0,1,11.6-2.25,18.82,18.82,0,0,1,5.6.75,13.82,13.82,0,0,1,4.15,2,11.54,11.54,0,0,1,2.8,2.9,14.58,14.58,0,0,1,1.65,3.4,18.93,18.93,0,0,1,7.65-6.7,24.59,24.59,0,0,1,11-2.4,15.19,15.19,0,0,1,8.25,2,13.46,13.46,0,0,1,4.65,4.85,18.5,18.5,0,0,1,2.1,6.2,40.41,40.41,0,0,1,.5,6Z"/><path class="cls-6" d="M331.47,74.33a20.29,20.29,0,0,1-7.3-1.3,18.06,18.06,0,0,1-5.85-3.55,16.24,16.24,0,0,1-3.85-5.35,16.06,16.06,0,0,1-1.4-6.7,15.7,15.7,0,0,1,1.7-7.3,17.51,17.51,0,0,1,4.7-5.7,21.69,21.69,0,0,1,7.15-3.7,30.52,30.52,0,0,1,9.15-1.3,24.66,24.66,0,0,1,10.6,2v-1.6q0-3.7-2.15-5.5t-7-1.8a23.12,23.12,0,0,0-8.3,1.45,40.91,40.91,0,0,0-8,4.25l-5.5-11.8a42.81,42.81,0,0,1,23.7-6.7q12.6,0,19.4,5.6t6.8,16.8v10.2q0,2.7,1,3.75a5.49,5.49,0,0,0,3.6,1.25v16q-2.6.5-4.9.75a38.72,38.72,0,0,1-4.1.25q-5.1,0-7.75-1.85A8.62,8.62,0,0,1,349.72,67l-.4-1.9a24.21,24.21,0,0,1-8.1,6.85A21.25,21.25,0,0,1,331.47,74.33Zm5.7-13.6a11.94,11.94,0,0,0,3.5-.55,12.78,12.78,0,0,0,3.2-1.45,8.18,8.18,0,0,0,1.8-1.75,3.26,3.26,0,0,0,.7-2v-3.9a27.3,27.3,0,0,0-3.7-1,18.63,18.63,0,0,0-3.6-.4,9.5,9.5,0,0,0-5.8,1.7,5.15,5.15,0,0,0-2.3,4.3,4.4,4.4,0,0,0,1.71,3.6,6.89,6.89,0,0,0,4.49,1.4Z"/></svg>