<?xml version="1.0" encoding="utf-8"?>
<!-- Generator: Adobe Illustrator 25.0.1, SVG Export Plug-In . SVG Version: 6.00 Build 0)  -->
<svg version="1.1" id="Layer_1" xmlns="http://www.w3.org/2000/svg" xmlns:xlink="http://www.w3.org/1999/xlink" x="0px" y="0px"
	 width="420.895px" height="99.648px" viewBox="0 0 420.895 99.648" enable-background="new 0 0 420.895 99.648"
	 xml:space="preserve">
<g>
	<g>
		<path fill="#277DFF" d="M107.968,33.193L28.211,80.956c-12.768-2.147-22.33-13.106-22.33-26.521
			c0-14.524,11.219-27.214,25.771-27.078C31.992,13.066,43.516,1.392,57.887,1.392c11.873,0,22.084,8.031,25.41,18.812
			c1.859-0.393,3.74-0.421,5.726-0.283c5.044,0.36,9.435,2.377,12.817,5.18C104.644,27.426,106.752,30.29,107.968,33.193z"/>
		<path fill="#277DFF" d="M108.484,34.817L36.347,81.535l31.58-0.086l0.011-0.03l6.914-7.083h6.175L75.25,81.43l25.831-0.072h0.003
			l12.795-39.123v-0.003L108.484,34.817z M87.921,65.942h-4.634l5.166-5.338h3.726L87.921,65.942z M96.99,54.859h-2.914l3.881-3.972
			h2.224L96.99,54.859z M103.583,46.834h-1.598l2.609-2.803h1.219L103.583,46.834z M108.051,41.291h-0.643l2.454-2.46h0.243
			L108.051,41.291z"/>
		<path fill="#277DFF" d="M128.545,61.831c0,10.804-8.69,19.372-19.457,19.51l-0.216-0.006l-2.285,0.006l8.876-38.07
			C123.088,45.994,128.545,53.271,128.545,61.831z"/>
	</g>
	<g>
		<path fill="#277DFF" d="M193.814,32.178l-1.151,6.617c-5.946-0.191-11.508-0.383-18.606-0.479c-7.672,0-10.549,0.191-11.028,4.124
			c-0.48,3.549,1.726,4.508,5.562,6.234l12.659,5.754c7.289,3.357,10.261,6.33,9.303,13.522c-1.439,10.646-9.015,11.7-22.154,11.7
			c-10.07,0-11.317-0.671-18.126-1.342l1.055-6.905c4.316,0.383,10.358,0.479,14.674,0.479c11.797,0,14.866-0.959,15.441-4.795
			c0.575-3.452-1.727-4.028-5.851-5.946l-12.563-5.754c-6.713-3.165-9.879-6.809-9.015-13.618
			c1.055-8.919,7.48-11.413,19.756-11.221C180.387,30.643,188.443,31.314,193.814,32.178z"/>
		<path fill="#277DFF" d="M230.199,58.167l9.11,20.428h-9.974l-9.015-21.578c-3.74,2.014-7.48,3.74-11.125,5.37l-2.398,16.208
			h-9.207l9.399-67.133h9.303l-4.219,31.457c-0.48,4.124-1.535,7.576-3.069,11.508c10.741-5.179,21.578-12.947,24.359-22.633h9.495
			c-2.973,9.59-8.823,16.112-15.537,20.907C228.473,54.427,229.432,56.346,230.199,58.167z"/>
		<path fill="#277DFF" d="M293.745,31.794c-3.069,13.618-6.618,25.606-13.522,38.649c-10.454,19.852-19.66,25.607-32.32,27.813
			l-1.727-6.618c7.289-1.726,13.522-4.603,19.66-13.043h-4.411c-2.878,0-5.083-1.727-5.659-4.508l-9.015-42.293h9.782l7.097,37.882
			c0.191,1.055,0.959,1.63,1.918,1.63h4.796c0.576-1.151,1.247-2.398,1.822-3.644c5.37-11.125,9.11-21.003,11.892-35.868H293.745z"
			/>
		<path fill="#277DFF" d="M335.118,58.647c-2.589,6.042-5.658,11.605-7.768,14.481c-2.493,3.549-4.699,5.467-9.974,5.467h-7.96
			c-1.63,0-2.781-1.055-3.069-2.493l-9.015-44.308h9.687l6.809,39.512h1.439c2.397,0,3.74-0.479,5.466-2.877
			c1.631-2.11,4.028-6.713,6.713-13.522c3.357-8.056,4.891-14.002,6.426-23.113h9.59C341.735,40.809,338.187,51.55,335.118,58.647z"
			/>
		<path fill="#277DFF" d="M354.999,78.595h-9.207l6.521-46.801h9.207L354.999,78.595z M364.205,14.723l-0.672,5.37
			c-0.288,1.822-1.055,2.59-2.877,2.59h-4.411c-1.822,0-2.781-1.151-2.59-2.973l0.863-5.37c0.096-1.631,0.959-2.494,2.781-2.494
			h4.411C363.534,11.845,364.493,12.996,364.205,14.723z"/>
		<path fill="#277DFF" d="M415.014,33.041l-6.521,45.554h-7.289l0.48-8.727c-4.891,5.562-11.892,9.878-20.236,9.878
			c-11.029,0-15.249-6.042-12.564-25.127c2.973-21.291,10.549-24.072,23.208-24.072C398.998,30.547,408.396,31.602,415.014,33.041z
			 M401.587,61.716l3.261-23.209c-4.411-0.096-8.056-0.191-9.878-0.191c-12.372,0-14.578,2.014-16.783,16.975
			c-1.918,13.906-0.671,16.4,5.179,16.4C389.503,71.69,394.874,68.142,401.587,61.716z"/>
	</g>
</g>
</svg>