<svg width="78" height="45" viewBox="0 0 78 45" fill="none" xmlns="http://www.w3.org/2000/svg"><path d="M74.474 8.02a3.379 3.379 0 003.376-3.38 3.379 3.379 0 00-3.376-3.38 3.379 3.379 0 00-3.377 3.38 3.379 3.379 0 003.377 3.38zM47.719 8.02a3.378 3.378 0 003.377-3.38 3.378 3.378 0 00-3.377-3.381 3.378 3.378 0 00-3.377 3.38 3.378 3.378 0 003.377 3.38zM20.965 8.017a3.378 3.378 0 003.377-3.38 3.378 3.378 0 00-3.377-3.38 3.379 3.379 0 00-3.377 3.38 3.379 3.379 0 003.377 3.38zM47.504 35.134a3.4 3.4 0 003.398-3.401 3.4 3.4 0 00-3.397-3.402 3.4 3.4 0 00-3.398 3.401 3.4 3.4 0 003.397 3.402zM23.662 11.667h-5.078l-.002 19.185h5.079l.001-19.185zM77.17 18.537h-5.078v12.318h5.078V18.538z" fill="#6FF"></path><path d="M47.664 18.536c-3.08 0-5.916 1.059-8.167 2.831L39.5.994H34.42l-.002 29.95h5.237c.418-4.053 3.85-7.225 8.008-7.225 4.44 0 8.051 3.616 8.05 8.06 0 4.162-3.169 7.597-7.219 8.015v5.2c6.909-.43 12.398-6.193 12.398-13.215 0-7.302-5.934-13.243-13.228-13.243zM1.794 32.625v5.068H.849v-5.068h.945zM3.498 34.102v.58h.1c.143-.333.472-.638 1.124-.637.787 0 1.381.572 1.381 1.506v2.143H5.2v-2.056c0-.5-.286-.797-.801-.797-.58 0-.888.362-.888 1v1.853H2.61v-3.592h.888zM7.407 34.102v-.738c0-.42.301-.738.717-.738h.93v.782H8.51c-.13 0-.2.072-.2.217v.478h.93v.782h-.93v2.809h-.903v-2.81h-.901v-.781h.901zM11.38 34.002c1.046 0 1.862.767 1.862 1.896 0 1.13-.816 1.897-1.861 1.897s-1.86-.767-1.86-1.897.815-1.897 1.86-1.896zm0 2.982c.573 0 .96-.434.96-1.086 0-.651-.386-1.085-.96-1.085-.572 0-.958.434-.958 1.085 0 .652.386 1.086.959 1.086zM14.718 34.624h.1c.136-.398.437-.535.888-.535h.343v.825h-.53c-.457 0-.787.246-.787.753v2.027h-.901v-3.591h.887v.521zM17.396 34.103v.536h.1c.15-.348.444-.594.938-.594.458 0 .795.246.945.608h.1c.158-.333.444-.608 1.01-.608.65 0 1.173.5 1.173 1.246v2.403h-.902v-2.331c0-.333-.236-.522-.58-.522-.372 0-.644.218-.644.667v2.186h-.902v-2.331c0-.333-.236-.522-.58-.522-.371 0-.643.218-.643.667v2.186h-.902v-3.591h.887zM24.076 34.002c.967 0 1.597.557 1.596 1.397v2.296h-.888v-.507h-.1c-.114.238-.365.608-1.116.608-.802 0-1.332-.434-1.331-1.123 0-.572.493-.97 1.173-1.042l1.36-.152v-.087c0-.34-.257-.608-.744-.608-.472 0-.766.246-.988.623l-.73-.478c.422-.536.902-.927 1.768-.927zm-.287 3.04c.63 0 .981-.375.981-.868v-.058l-1.088.13c-.336.044-.501.167-.501.377 0 .246.208.42.608.42zM26.89 34.103v-1.115h.902v1.116h.974v.782h-.974v1.81c0 .145.072.217.2.217h.573v.782h-.973c-.401 0-.702-.29-.702-.695v-2.114h-.901v-.783h.901zM29.82 32.438c.357 0 .636.254.636.623 0 .37-.279.623-.637.623-.357 0-.636-.254-.636-.623 0-.37.279-.623.636-.623zm.45 5.257h-.902v-3.592h.903v3.592zM32.719 34.003c1.045 0 1.86.767 1.86 1.897s-.816 1.897-1.86 1.897c-1.046 0-1.862-.768-1.862-1.897 0-1.13.817-1.897 1.862-1.897zm0 2.983c.572 0 .959-.434.959-1.086 0-.652-.386-1.086-.96-1.086-.572 0-.959.434-.959 1.086 0 .651.387 1.086.96 1.086z" fill="#6FF"></path><path d="M36.056 34.104v.58h.1c.143-.333.472-.637 1.123-.637.788 0 1.382.572 1.382 1.506v2.143h-.902v-2.057c0-.5-.286-.796-.802-.796-.58 0-.887.362-.887 1v1.853h-.902v-3.592h.888zM15.226 39.308c.866 0 1.481.492 1.481 1.361 0 .608-.357.985-.845 1.122v.087c.487.138.845.514.845 1.13 0 .84-.623 1.368-1.482 1.368h-2.283v-5.068h2.284zM13.887 41.4h1.246c.4 0 .672-.203.672-.615 0-.413-.271-.608-.672-.609h-1.246V41.4zm0 2.107h1.245c.401 0 .673-.203.673-.615 0-.413-.272-.623-.672-.623h-1.246v1.238zM19.887 44.377v-.58h-.1c-.144.334-.473.637-1.125.637-.787 0-1.381-.572-1.381-1.506v-2.143h.902v2.056c0 .5.286.797.802.797.58 0 .887-.362.887-1v-1.853h.902v3.592h-.887zM22.028 39.12c.358 0 .638.254.637.623 0 .369-.279.622-.637.622-.357 0-.637-.253-.637-.623 0-.369.28-.622.637-.622zm.45 5.257h-.9v-3.592h.901v3.592zM24.183 44.377h-.901v-5.068h.901v5.068zM28.521 44.377h-.887v-.507h-.1c-.186.304-.502.608-1.131.608-.888 0-1.632-.796-1.632-1.897 0-1.1.744-1.897 1.632-1.897.63 0 .945.304 1.13.608h.087V39.31h.901v5.068zm-2.848-1.796c0 .695.43 1.086.973 1.086.558 0 .973-.405.973-1.086 0-.68-.415-1.086-.973-1.086-.544 0-.973.391-.973 1.086zM30.892 40.684c1.031 0 1.726.732 1.726 1.81v.355h-2.585c.036.478.372.847.888.847.501 0 .766-.282.887-.535l.738.434c-.243.377-.659.884-1.61.884-1.06 0-1.826-.811-1.826-1.926 0-1.086.738-1.869 1.782-1.869zm.81 1.528c-.065-.456-.352-.745-.817-.745-.508 0-.773.303-.844.745h1.66zM34.065 41.307h.1c.136-.398.436-.535.888-.535h.343v.825h-.53c-.458 0-.787.246-.787.753v2.027h-.902v-3.591h.888v.521zM37.093 40.685c.73 0 1.246.326 1.725.833l-.651.52c-.272-.325-.63-.615-1.102-.615-.337 0-.523.145-.523.362 0 .261.265.326.637.37l.122.014c1.138.137 1.56.434 1.56 1.094 0 .702-.651 1.216-1.596 1.216-.981 0-1.525-.507-1.854-1.014l.716-.456c.222.47.701.717 1.16.717.364 0 .7-.16.7-.442 0-.268-.364-.318-.75-.362l-.122-.014c-.995-.116-1.446-.442-1.446-1.108 0-.666.601-1.115 1.424-1.115z" fill="#6FF"></path></svg>