<?xml version="1.0" encoding="utf-8"?>
<!-- Generator: Adobe Illustrator 25.0.1, SVG Export Plug-In . SVG Version: 6.00 Build 0)  -->
<svg version="1.1" id="Layer_1" xmlns="http://www.w3.org/2000/svg" xmlns:xlink="http://www.w3.org/1999/xlink" x="0px" y="0px"
	 width="277.225px" height="116.509px" viewBox="0 0 277.225 116.509" enable-background="new 0 0 277.225 116.509"
	 xml:space="preserve">
<g>
	<path fill="#0A0A0A" d="M132.597,71.964c-2.035,0.761-4.377,0.483-6.116-0.722c-0.966-0.669-2.116-1.896-2.116-3.933
		c0-4.334,0.051-14.524,0.1-23.256h9.904c1.602,0,2.9-1.298,2.9-2.9s-1.299-2.9-2.9-2.9h-9.87c0.03-5.097,0.053-8.788,0.054-8.892
		c0.012-1.795-1.435-3.259-3.229-3.271c-0.007,0-0.014,0-0.021,0c-1.786,0-3.238,1.441-3.25,3.229
		c-0.001,0.104-0.024,3.814-0.054,8.933h-2.614c-1.602,0-2.9,1.298-2.9,2.9s1.299,2.9,2.9,2.9h2.581
		c-0.049,8.733-0.1,18.917-0.1,23.256c0,3.729,1.79,7.109,4.912,9.274c2.18,1.512,4.824,2.295,7.481,2.295
		c1.564,0,3.135-0.271,4.616-0.826c1.682-0.629,2.534-2.502,1.905-4.183C136.149,72.187,134.275,71.337,132.597,71.964z"/>
	<path fill="#0A0A0A" d="M176.544,77.801c-1.795,0-3.25-1.455-3.25-3.25V41.364c0-1.795,1.455-3.25,3.25-3.25s3.25,1.455,3.25,3.25
		v33.188C179.794,76.346,178.339,77.801,176.544,77.801z"/>
	<path fill="#0A0A0A" d="M166.845,40.869c-0.163-1.704-1.676-2.953-3.38-2.791c-0.813,0.078-1.749,0.169-2.352,0.414
		c-0.335,0.108-0.675,0.217-0.999,0.336l-0.859,0.404c-0.593,0.262-1.087,0.573-1.593,0.879c-0.522,0.297-0.974,0.634-1.439,0.963
		c-1.836,1.332-3.442,2.809-4.938,4.392c-0.284,0.305-0.559,0.618-0.834,0.932v-5.035c0-1.795-1.455-3.25-3.25-3.25
		s-3.25,1.455-3.25,3.25v33.188c0,1.795,1.455,3.25,3.25,3.25s3.25-1.455,3.25-3.25V55.507l0.141-0.292l0.338-0.55
		c0.215-0.368,0.45-0.734,0.728-1.094c1.044-1.447,2.293-2.839,3.65-4.102c1.361-1.257,2.823-2.415,4.319-3.348
		c0.374-0.228,0.747-0.472,1.119-0.643c0.371-0.19,0.744-0.395,1.089-0.506l0.522-0.209l0.447-0.102
		c0.345-0.126,0.436-0.018,0.618-0.083l1.388-0.497C166.111,43.614,166.983,42.31,166.845,40.869z"/>
	<circle fill="#DE5109" cx="176.544" cy="26.973" r="3.867"/>
	<path fill="#0A0A0A" d="M194.122,77.801c-1.795,0-3.25-1.455-3.25-3.25V41.364c0-1.795,1.455-3.25,3.25-3.25s3.25,1.455,3.25,3.25
		v33.188C197.372,76.346,195.917,77.801,194.122,77.801z"/>
	<circle fill="#56A8E9" cx="194.122" cy="26.973" r="3.867"/>
	<path fill="#0A0A0A" d="M268.595,54.167c0.001-0.638,0-1.456-0.045-2.234c-0.05-0.785-0.128-1.58-0.268-2.378
		c-0.279-1.594-0.755-3.223-1.532-4.792c-0.782-1.562-1.882-3.061-3.275-4.243c-1.383-1.193-3-2.048-4.623-2.59
		c-1.627-0.537-3.259-0.803-4.833-0.886c-1.508-0.094-3.267-0.031-4.938,0.374c-1.669,0.406-3.275,1.097-4.674,2.031
		c-1.952,1.301-3.506,2.96-4.73,4.77c-0.566-1.063-1.265-2.083-2.142-3.015c-1.273-1.265-2.8-2.276-4.416-2.919
		c-0.397-0.185-0.812-0.262-1.217-0.392c-0.407-0.102-0.818-0.261-1.22-0.304l-1.211-0.177l-0.604-0.082l-0.589-0.016
		c-1.523-0.083-3.231,0.048-4.815,0.479c-0.79,0.241-1.592,0.44-2.307,0.832l-1.091,0.532c-0.356,0.186-0.671,0.428-1.005,0.642
		c-1.773,1.179-3.204,2.645-4.391,4.226v-2.662c0-1.795-1.455-3.25-3.25-3.25s-3.25,1.455-3.25,3.25v33.188
		c0,1.795,1.455,3.25,3.25,3.25s3.25-1.455,3.25-3.25l0.117-21.609c0-4.512,5.988-9.623,11.035-9.551s9.032,3.562,9.032,9.269v1.99
		l-0.007,3.98c-0.017,5.307,0.044,10.614,0.182,15.921c0.048,1.714,1.43,3.12,3.165,3.165c1.795,0.047,3.288-1.37,3.335-3.165
		c0.138-5.307,0.2-10.614,0.182-15.921l-0.007-3.98l-0.003-1.614c0-6.012,5.727-9.81,10.758-9.539s9.363,2.719,9.363,10.671
		l-0.002,4.077c-0.017,5.436,0.034,10.871,0.139,16.307c0.036,1.735,1.437,3.154,3.187,3.187c1.795,0.035,3.278-1.392,3.313-3.187
		c0.105-5.436,0.156-10.871,0.139-16.307L268.595,54.167z"/>
	<path fill="#0A0A0A" d="M93.541,78.568c-5.64,0-11.654-1.996-15.172-4.964c-1.224-1.033-1.379-2.862-0.347-4.086
		c1.035-1.224,2.865-1.378,4.087-0.346c3.812,3.216,12.801,4.923,17.122,2.331c1.653-0.992,2.532-2.833,2.239-4.689
		c-0.42-2.663-3.007-4.733-7.096-5.678c-11.035-2.552-15.536-5.978-15.536-11.826c0-5.888,4.137-11.83,13.377-11.83
		c8.69,0,12.688,3.667,13.114,4.085c1.145,1.12,1.164,2.957,0.044,4.101c-1.109,1.133-2.922,0.866-4.067,0.076
		c-0.194-0.133-2.875-2.463-9.091-2.463c-6.838,0-7.576,4.217-7.576,6.03c0,1.083,0,3.621,11.042,6.174
		c6.416,1.484,10.722,5.381,11.519,10.425c0.664,4.204-1.293,8.352-4.984,10.567C99.788,77.932,96.725,78.568,93.541,78.568z"/>
	<g>
		<circle fill="#56A8E9" cx="38.708" cy="49.801" r="1.512"/>
		<circle fill="#56A8E9" cx="40.489" cy="45.008" r="2.355"/>
		<circle fill="#56A8E9" cx="43.126" cy="39.489" r="2.93"/>
		<circle fill="#56A8E9" cx="50.228" cy="36.43" r="3.387"/>
		<circle fill="#56A8E9" cx="58.736" cy="36.676" r="3.715"/>
		<circle fill="#56A8E9" cx="67.243" cy="41.985" r="4.547"/>
	</g>
	<g>
		<circle fill="#B2D70C" cx="37.295" cy="58.684" r="1.512"/>
		<circle fill="#B2D70C" cx="30.368" cy="51.374" r="2.355"/>
		<circle fill="#B2D70C" cx="33.48" cy="56.103" r="1.942"/>
		<circle fill="#B2D70C" cx="27.868" cy="44.651" r="2.93"/>
		<circle fill="#B2D70C" cx="28.845" cy="36.886" r="3.387"/>
		<circle fill="#B2D70C" cx="34.15" cy="29.719" r="3.715"/>
		<circle fill="#B2D70C" cx="42.359" cy="23.53" r="4.547"/>
		<circle fill="#B2D70C" cx="54.734" cy="22.44" r="5.209"/>
	</g>
	<g>
		<circle fill="#DE5109" cx="29.455" cy="59.212" r="1.512"/>
		<circle fill="#DE5109" cx="19.211" cy="53.735" r="2.355"/>
		<circle fill="#DE5109" cx="24.478" cy="57.646" r="1.942"/>
		<circle fill="#DE5109" cx="13.567" cy="48.569" r="2.93"/>
		<circle fill="#DE5109" cx="12.263" cy="39.207" r="3.387"/>
		<circle fill="#DE5109" cx="15.124" cy="29.54" r="3.715"/>
		<circle fill="#DE5109" cx="23.452" cy="21.332" r="4.547"/>
		<circle fill="#DE5109" cx="33.869" cy="14.209" r="5.209"/>
	</g>
	<g>
		<circle fill="#9B5CBD" cx="42.466" cy="71.622" r="1.512"/>
		<circle fill="#9B5CBD" cx="40.66" cy="76.324" r="2.355"/>
		<circle fill="#9B5CBD" cx="37.867" cy="81.812" r="2.93"/>
		<circle fill="#9B5CBD" cx="31.491" cy="84.895" r="3.387"/>
		<circle fill="#9B5CBD" cx="22.629" cy="84.831" r="3.715"/>
		<circle fill="#9B5CBD" cx="13.172" cy="80.905" r="4.547"/>
	</g>
	<g>
		<circle fill="#E8C708" cx="44.716" cy="63.08" r="1.512"/>
		<circle fill="#E8C708" cx="41.134" cy="60.582" r="1.359"/>
		<circle fill="#E8C708" cx="50.873" cy="70.576" r="2.355"/>
		<circle fill="#E8C708" cx="48.447" cy="65.893" r="1.942"/>
		<circle fill="#E8C708" cx="53.098" cy="76.57" r="2.93"/>
		<circle fill="#E8C708" cx="53.409" cy="84.351" r="3.387"/>
		<circle fill="#E8C708" cx="48.085" cy="91.403" r="3.715"/>
		<circle fill="#E8C708" cx="39.188" cy="96.643" r="4.547"/>
		<circle fill="#E8C708" cx="27.312" cy="98.68" r="5.209"/>
	</g>
	<g>
		<circle fill="#B84635" cx="50.576" cy="60.996" r="1.679"/>
		<circle fill="#B84635" cx="55.531" cy="62.48" r="2.355"/>
		<circle fill="#B84635" cx="60.586" cy="66.362" r="2.93"/>
		<circle fill="#B84635" cx="66.249" cy="71.761" r="3.387"/>
		<circle fill="#B84635" cx="67.93" cy="82.029" r="3.715"/>
		<circle fill="#B84635" cx="63.86" cy="92.62" r="4.547"/>
		<circle fill="#B84635" cx="54.558" cy="102.299" r="5.209"/>
	</g>
</g>
</svg>
