<?xml version="1.0" encoding="UTF-8"?>
<svg width="843px" height="156px" viewBox="0 0 843 156" version="1.1" xmlns="http://www.w3.org/2000/svg" xmlns:xlink="http://www.w3.org/1999/xlink">
    <!-- Generator: Sketch 41 (35326) - http://www.bohemiancoding.com/sketch -->
    <title>Artboard</title>
    <desc>Created with Sketch.</desc>
    <defs></defs>
    <g id="Page-1" stroke="none" stroke-width="1" fill="none" fill-rule="evenodd">
        <g id="Artboard">
            <g id="Trifacta-Logo-Horiz-RGB-2016-(1)-(1)">
                <g id="Group">
                    <g id="Shape">
                        <g>
                            <path d="M135.9,106.5 C135.9,104.6 135.9,102.6 135.8,100.6 C135.8,103.9 135.6,107.1 135.1,110.2 C132.9,123.1 126.4,132.7 116.8,137.4 C112,139.7 106.8,140.7 101.3,140.2 L101.3,140.2 C86.7,139.1 72,129 61.8,113.6 C60.9,112.2 60,110.7 59.1,109.2 C58.2,107.7 57.4,106.1 56.6,104.5 C50.1,91.2 48,76.8 49.9,64.1 C52.5,46.4 61.1,39.9 61.1,39.9 C58,41.6 55.2,43.7 52.8,46.3 C37.3,59.4 33,85.7 42.8,110.9 C43.5,112.9 44.4,114.8 45.3,116.7 C45.3,116.7 45.3,116.8 45.4,116.8 C56.1,138.8 75.5,153.9 94.9,155.4 C98.2,155.6 101.5,155.5 104.6,154.9 C107.7,154.3 110.7,153.3 113.6,152 C128.8,144.5 136.8,126.7 135.9,106.5 Z" fill="#0EA94B"></path>
                            <path d="M88.1,10.8 C86.4,11.8 84.8,12.8 83.2,13.9 C86,12.2 88.9,10.7 91.8,9.6 C103.9,4.8 115.6,5.4 124.6,11.2 C129,14.1 132.5,18.1 135.1,23 L135.1,23 C141.7,36 140.7,53.9 132.7,70.6 C132,72.1 131.2,73.7 130.3,75.2 C129.5,76.7 128.5,78.2 127.6,79.7 C119.5,92.1 108.4,101.4 96.5,106.4 C80,113.3 70,109.3 70,109.3 C73.1,111.1 76.3,112.4 79.8,113.1 C99.1,119.6 123.8,109.7 140.3,88.3 C141.6,86.7 142.8,84.9 144,83.1 L144.1,83 C157.4,62.5 160.3,38.1 151.5,20.7 C150,17.7 148.2,15 146.1,12.7 C144,10.3 141.6,8.3 138.9,6.5 C124.3,-2.7 104.9,-0.4 88.1,10.8 Z" fill="#F36D24"></path>
                            <path d="M30.4,101.2 C32.1,102.1 33.9,103 35.7,103.7 C32.8,102.2 30,100.6 27.5,98.7 C17,90.9 11.3,80.8 11.5,70 C11.6,64.7 13.1,59.6 16,54.9 L16,54.9 C23.5,42.4 39.3,33.8 57.7,31.7 C59.4,31.5 61.1,31.4 62.8,31.3 C64.6,31.2 66.3,31.2 68.1,31.2 C82.9,31.5 96.7,36 107.2,43.5 C121.8,53.8 123.7,64.5 123.7,64.5 C123.6,61 122.9,57.5 121.8,54.2 C117.1,34.4 95.7,18.7 68.8,16 C66.7,15.8 64.6,15.6 62.5,15.6 L62.4,15.6 C38,15.1 15.7,25.6 5.6,42.3 C3.9,45.2 2.6,48.1 1.7,51.2 C0.8,54.2 0.3,57.4 0.3,60.5 C-0.3,77.7 12,92.9 30.4,101.2 Z" fill="#09C0E0"></path>
                        </g>
                        <g transform="translate(208.000000, 32.000000)" fill="#000000">
                            <path d="M70.1,2.3 L3.2,2.3 C1.7,2.3 0.5,3.5 0.5,5 L0.5,9.6 C0.5,11.1 1.7,12.3 3.2,12.3 L31.3,12.3 L31.3,87.4 C31.3,88.9 32.5,90.1 34,90.1 L39.4,90.1 C40.9,90.1 42.1,88.9 42.1,87.4 L42.1,12.3 L70.2,12.3 C71.7,12.3 72.9,11.1 72.9,9.6 L72.9,5 C72.8,3.5 71.6,2.3 70.1,2.3"></path>
                            <path d="M550.5,2.3 L483.6,2.3 C482.1,2.3 480.9,3.5 480.9,5 L480.9,9.6 C480.9,11.1 482.1,12.3 483.6,12.3 L511.7,12.3 L511.7,87.4 C511.7,88.9 512.9,90.1 514.4,90.1 L519.8,90.1 C521.3,90.1 522.5,88.9 522.5,87.4 L522.5,12.3 L550.6,12.3 C552.1,12.3 553.3,11.1 553.3,9.6 L553.3,5 C553.2,3.5 552,2.3 550.5,2.3"></path>
                            <path d="M136.2,55 C150.5,52 159.8,42.4 159.8,28.8 C159.8,21.7 157.5,15.6 153,11.1 C147.4,5.4 138.6,2.3 128.2,2.3 L93.4,2.3 C91.9,2.3 90.7,3.5 90.7,5 L90.7,87.4 C90.7,88.9 91.9,90.1 93.4,90.1 L98.7,90.1 C100.2,90.1 101.4,88.9 101.4,87.4 L101.4,56.1 L124.3,56.1 L146.8,89 C147.3,89.7 148.1,90.1 148.9,90.1 L155.3,90.1 C156.3,90.1 157.2,89.5 157.7,88.6 C158.2,87.7 158.1,86.6 157.4,85.8 L136.2,55 Z M101.3,46.6 L101.3,12.2 L127.4,12.2 C141.1,12.2 149,18.3 149,28.9 C149,40.3 137.8,46.6 125.7,46.6 L101.3,46.6 L101.3,46.6 Z"></path>
                            <path d="M195.1,2.3 L189.8,2.3 C188.3,2.3 187.1,3.5 187.1,5 L187.1,87.4 C187.1,88.9 188.3,90.1 189.8,90.1 L195.1,90.1 C196.6,90.1 197.8,88.9 197.8,87.4 L197.8,5 C197.8,3.5 196.6,2.3 195.1,2.3"></path>
                            <path d="M292.2,2.3 L231.6,2.3 C230.1,2.3 228.9,3.5 228.9,5 L228.9,87.4 C228.9,88.9 230.1,90.1 231.6,90.1 L236.9,90.1 C238.4,90.1 239.6,88.9 239.6,87.4 L239.6,52.2 L276.8,52.2 C278.3,52.2 279.5,51 279.5,49.5 L279.5,45 C279.5,43.5 278.3,42.3 276.8,42.3 L239.6,42.3 L239.6,12.2 L292.2,12.2 C293.7,12.2 294.9,11 294.9,9.5 L294.9,5 C294.9,3.5 293.7,2.3 292.2,2.3"></path>
                            <path d="M461.8,70.7 C460.8,69.7 459.2,69.7 458.1,70.6 C451.9,76.3 444.5,81.6 432.1,81.6 C413.6,81.6 399.2,66 399.2,46.2 C399.2,26 413.3,10.8 432.1,10.8 C444.4,10.8 452.4,16.7 457.3,21.1 C458.4,22.1 460,22 461,20.9 L464.6,17 C465.1,16.5 465.3,15.8 465.3,15 C465.3,14.3 464.9,13.6 464.4,13.1 C457.7,7 448.5,0.8 432.2,0.8 C407.5,0.8 388.2,20.7 388.2,46.2 C388.2,72.1 407,91.6 431.8,91.6 C445,91.6 455,87.5 464.9,77.8 C465.4,77.3 465.7,76.6 465.7,75.9 C465.7,75.2 465.4,74.5 464.9,74 L461.8,70.7 Z"></path>
                            <path d="M341.1,3.3 C340.7,2.3 339.7,1.7 338.7,1.7 L332.5,1.7 C331.5,1.7 330.5,2.3 330.1,3.3 L292.8,86.3 C292.4,87.1 292.5,88.1 293,88.9 C293.5,89.7 294.3,90.1 295.3,90.1 L300.4,90.1 C301.5,90.1 302.4,89.5 302.8,88.5 L312,67.1 L358.8,67.1 L368,88.5 C368.4,89.5 369.4,90.1 370.4,90.1 L376,90.1 C376.9,90.1 377.8,89.6 378.2,88.9 C378.7,88.1 378.8,87.2 378.4,86.3 L341.1,3.3 Z M316.4,57.4 L335.4,14.6 L354.3,57.4 L316.4,57.4 Z"></path>
                            <path d="M596.8,3.3 C596.4,2.3 595.4,1.7 594.4,1.7 L588.2,1.7 C587.2,1.7 586.2,2.3 585.8,3.3 L548.5,86.3 C548.1,87.1 548.2,88.1 548.7,88.9 C549.2,89.7 550,90.1 551,90.1 L556.1,90.1 C557.2,90.1 558.1,89.5 558.5,88.5 L567.7,67.1 L614.5,67.1 L623.7,88.5 C624.1,89.5 625.1,90.1 626.1,90.1 L631.7,90.1 C632.6,90.1 633.5,89.6 633.9,88.9 C634.4,88.1 634.5,87.2 634.1,86.3 L596.8,3.3 Z M572.1,57.4 L591.1,14.6 L610,57.4 L572.1,57.4 Z"></path>
                        </g>
                    </g>
                    <path d="M842.4,40.6 C842.4,44.5 839.3,47.6 835.3,47.6 C831.3,47.6 828.1,44.5 828.1,40.6 C828.1,36.7 831.3,33.6 835.3,33.6 C839.3,33.7 842.4,36.8 842.4,40.6 Z M829.9,40.6 C829.9,43.7 832.2,46.2 835.3,46.2 C838.4,46.2 840.6,43.7 840.6,40.7 C840.6,37.6 838.4,35.1 835.3,35.1 C832.2,35.1 829.9,37.6 829.9,40.6 Z M834.2,44.3 L832.6,44.3 L832.6,37.3 C833.2,37.2 834.1,37.1 835.3,37.1 C836.6,37.1 837.2,37.3 837.7,37.6 C838.1,37.9 838.4,38.4 838.4,39.1 C838.4,39.9 837.8,40.5 837,40.7 L837,40.8 C837.7,41.1 838.1,41.6 838.3,42.5 C838.5,43.6 838.6,44 838.8,44.2 L837.1,44.2 C836.9,43.9 836.8,43.3 836.5,42.5 C836.4,41.7 835.9,41.4 835.1,41.4 L834.3,41.4 L834.3,44.3 L834.2,44.3 Z M834.2,40.3 L835,40.3 C835.9,40.3 836.6,40 836.6,39.3 C836.6,38.7 836.1,38.2 835.1,38.2 C834.7,38.2 834.4,38.2 834.2,38.3 L834.2,40.3 Z" id="Shape" fill="#000000"></path>
                </g>
            </g>
        </g>
    </g>
</svg>