<?xml version="1.0" encoding="UTF-8" standalone="no"?>
<svg
   xmlns:dc="http://purl.org/dc/elements/1.1/"
   xmlns:cc="http://creativecommons.org/ns#"
   xmlns:rdf="http://www.w3.org/1999/02/22-rdf-syntax-ns#"
   xmlns:svg="http://www.w3.org/2000/svg"
   xmlns="http://www.w3.org/2000/svg"
   xmlns:sodipodi="http://sodipodi.sourceforge.net/DTD/sodipodi-0.dtd"
   xmlns:inkscape="http://www.inkscape.org/namespaces/inkscape"
   version="1.1"
   id="图层_1"
   x="0px"
   y="0px"
   viewBox="0 0 981.2 283.2"
   style="enable-background:new 0 0 981.2 283.2;"
   xml:space="preserve"
   sodipodi:docname="left-logo.svg"
   inkscape:version="1.0.1 (3bc2e813f5, 2020-09-07)"><metadata
   id="metadata111"><rdf:RDF><cc:Work
       rdf:about=""><dc:format>image/svg+xml</dc:format><dc:type
         rdf:resource="http://purl.org/dc/dcmitype/StillImage" /><dc:title></dc:title></cc:Work></rdf:RDF></metadata><defs
   id="defs109" /><sodipodi:namedview
   pagecolor="#ffffff"
   bordercolor="#666666"
   borderopacity="1"
   objecttolerance="10"
   gridtolerance="10"
   guidetolerance="10"
   inkscape:pageopacity="0"
   inkscape:pageshadow="2"
   inkscape:window-width="1920"
   inkscape:window-height="1017"
   id="namedview107"
   showgrid="false"
   inkscape:zoom="1.0619649"
   inkscape:cx="490.60001"
   inkscape:cy="141.60001"
   inkscape:window-x="-8"
   inkscape:window-y="-8"
   inkscape:window-maximized="1"
   inkscape:current-layer="text115"
   inkscape:document-rotation="0" />
<style
   type="text/css"
   id="style2">
	.st0{fill:#666666;}
	.st1{fill:#999999;}
	.st2{fill:#231F20;}
	.st3{fill:#DAF0F5;}
	.st4{fill:#4F4F51;}
	.st5{fill:#FFCC00;}
	.st6{fill:#3BC0F0;}
	.st7{fill:#5F6060;}
	.st8{fill:#43AF5A;}
	.st9{fill:#FFFFFF;}
</style>
<g
   id="g40">
	<g
   id="g38">
		<path
   class="st0"
   d="M274.8,62.3h6.8l16,47.3h-6.4l-8.2-26.4c-1.7-5.3-3.2-10.5-4.7-15.9h-0.3c-1.5,5.5-3,10.6-4.7,15.9l-8.3,26.4    h-6.1L274.8,62.3z M267.2,90.4h21.8v4.8h-21.8V90.4z"
   id="path4" />
		<path
   class="st0"
   d="M301,106l24.9-38.6h-22.7v-5.1h30.1v3.6l-24.9,38.6h25.1v5.1H301V106z"
   id="path6" />
		<path
   class="st0"
   d="M342.8,90.1V62.3h6v27.9c0,11.4,4.8,14.9,11,14.9c6.3,0,11.2-3.6,11.2-14.9V62.3h5.8v27.7    c0,15.2-7.3,20.4-17,20.4S342.8,105.2,342.8,90.1z"
   id="path8" />
		<path
   class="st0"
   d="M389.5,62.3h14.8c9.6,0,16.5,3.5,16.5,13.3c0,9.4-6.9,14-16.5,14h-8.8v20h-6V62.3z M403.4,84.7    c7.4,0,11.4-3,11.4-9.1c0-6.2-4-8.4-11.4-8.4h-7.9v17.5H403.4z M403.1,88l4.7-3.1l14.4,24.7h-6.8L403.1,88z"
   id="path10" />
		<path
   class="st0"
   d="M430.4,62.3h27.2v5.1h-21.2v14.8h17.9v5.1h-17.9v17.2h21.9v5.1h-28V62.3z"
   id="path12" />
		<path
   class="st0"
   d="M482.8,62.3h11.8c14.5,0,22.3,8.4,22.3,23.5s-7.8,23.8-22.1,23.8h-12.1V62.3z M494.1,104.6    c11,0,16.6-6.9,16.6-18.9c0-11.9-5.5-18.5-16.6-18.5h-5.4v37.4H494.1z"
   id="path14" />
		<path
   class="st0"
   d="M536.8,62.3h6.8l16,47.3h-6.4l-8.2-26.4c-1.7-5.3-3.2-10.5-4.7-15.9h-0.3c-1.5,5.5-3,10.6-4.7,15.9l-8.3,26.4    h-6.1L536.8,62.3z M529.2,90.4h21.8v4.8h-21.8V90.4z"
   id="path16" />
		<path
   class="st0"
   d="M576.1,67.4h-14.3v-5.1h34.6v5.1h-14.3v42.2h-6V67.4z"
   id="path18" />
		<path
   class="st0"
   d="M614.5,62.3h6.8l16,47.3h-6.4l-8.2-26.4c-1.7-5.3-3.2-10.5-4.7-15.9h-0.3c-1.5,5.5-3,10.6-4.7,15.9l-8.3,26.4    h-6.1L614.5,62.3z M606.9,90.4h21.8v4.8h-21.8V90.4z"
   id="path20" />
		<path
   class="st0"
   d="M658.4,62.3h13.5c10.6,0,17.7,3.6,17.7,13.9c0,9.9-7.1,14.6-17.4,14.6h-7.8v18.7h-6V62.3z M671.4,86    c8.3,0,12.2-3,12.2-9.7c0-6.8-4.2-9-12.5-9h-6.7V86H671.4z"
   id="path22" />
		<path
   class="st0"
   d="M699.1,62.3h6v42.2h20.6v5.1h-26.6V62.3z"
   id="path24" />
		<path
   class="st0"
   d="M743.8,62.3h6.8l16,47.3h-6.4L752,83.2c-1.7-5.3-3.2-10.5-4.7-15.9H747c-1.5,5.5-3,10.6-4.7,15.9l-8.3,26.4    h-6.1L743.8,62.3z M736.3,90.4H758v4.8h-21.8V90.4z"
   id="path26" />
		<path
   class="st0"
   d="M783.1,67.4h-14.3v-5.1h34.6v5.1h-14.3v42.2h-6V67.4z"
   id="path28" />
		<path
   class="st0"
   d="M811.9,62.3h27.3v5.1h-21.2v15.9h18v5.1h-18v21.1h-6V62.3z"
   id="path30" />
		<path
   class="st0"
   d="M844.7,85.8c0-15.1,8.3-24.3,20.2-24.3s20.2,9.2,20.2,24.3c0,15.1-8.3,24.7-20.2,24.7S844.7,100.9,844.7,85.8    z M878.9,85.8c0-11.8-5.5-19-14-19c-8.4,0-14,7.3-14,19c0,11.8,5.5,19.4,14,19.4C873.3,105.2,878.9,97.6,878.9,85.8z"
   id="path32" />
		<path
   class="st0"
   d="M895.3,62.3h14.8c9.6,0,16.5,3.5,16.5,13.3c0,9.4-6.9,14-16.5,14h-8.8v20h-6V62.3z M909.2,84.7    c7.4,0,11.4-3,11.4-9.1c0-6.2-4-8.4-11.4-8.4h-7.9v17.5H909.2z M908.9,88l4.7-3.1l14.4,24.7h-6.8L908.9,88z"
   id="path34" />
		<path
   class="st0"
   d="M936.2,62.3h7.2l9.1,25.3c1.1,3.2,2.2,6.6,3.4,9.8h0.3c1.1-3.3,2.1-6.6,3.3-9.8l9-25.3h7.2v47.3H970v-26    c0-4.1,0.5-9.8,0.8-14h-0.3l-3.8,10.8l-8.9,24.4h-4l-8.9-24.4l-3.7-10.8h-0.3c0.3,4.2,0.8,9.9,0.8,14v26h-5.4V62.3z"
   id="path36" />
	</g>
</g>
<g
   id="g62">
	<g
   id="g60">
		<path
   class="st1"
   d="M263.3,148.3h7.5V201h25.8v6.4h-33.3V148.3z"
   id="path42" />
		<path
   class="st1"
   d="M319.2,148.3h8.5l20,59.1h-8l-10.3-33c-2.1-6.6-4-13.1-5.9-19.9h-0.4c-1.8,6.8-3.7,13.3-5.8,19.9l-10.4,33    h-7.6L319.2,148.3z M309.7,183.4h27.2v6h-27.2V183.4z"
   id="path44" />
		<path
   class="st1"
   d="M356,148.3h7.8l21.4,37.1l6.4,12.2h0.4c-0.4-6-1-12.6-1-18.8v-30.6h7.1v59.1h-7.8l-21.4-37.2l-6.4-12.2h-0.4    c0.4,6,1,12.3,1,18.5v30.9H356V148.3z"
   id="path46" />
		<path
   class="st1"
   d="M414.2,148.3H429c18.2,0,27.9,10.6,27.9,29.3c0,18.8-9.7,29.7-27.6,29.7h-15.1V148.3z M428.4,201.2    c13.8,0,20.7-8.7,20.7-23.6c0-14.9-6.9-23.2-20.7-23.2h-6.7v46.7H428.4z"
   id="path48" />
		<path
   class="st1"
   d="M465.3,199.7l4.5-5.2c4.3,4.4,10.2,7.3,16.3,7.3c7.8,0,12.3-3.9,12.3-9.6c0-6-4.3-8-9.9-10.4l-8.5-3.7    c-5.5-2.3-12-6.5-12-15.2c0-9,7.9-15.7,18.6-15.7c7,0,13.2,3,17.4,7.3l-4,4.8c-3.6-3.4-7.9-5.5-13.4-5.5c-6.6,0-11,3.3-11,8.6    c0,5.7,5.2,7.8,9.8,9.8l8.4,3.6c6.8,2.9,12.2,7,12.2,15.8c0,9.3-7.7,16.8-20.1,16.8C477.6,208.5,470.4,205.1,465.3,199.7z"
   id="path50" />
		<path
   class="st1"
   d="M514.2,177.9c0-19.1,11.2-30.7,26.2-30.7c7.2,0,12.8,3.5,16.2,7.3l-4.1,4.9c-3.1-3.3-7-5.6-12-5.6    c-11.2,0-18.6,9.1-18.6,23.9c0,14.8,7.1,24.2,18.3,24.2c5.6,0,9.9-2.5,13.7-6.6l4.1,4.7c-4.7,5.4-10.4,8.5-18.1,8.5    C525.2,208.5,514.2,197.1,514.2,177.9z"
   id="path52" />
		<path
   class="st1"
   d="M581.2,148.3h8.5l20,59.1h-8l-10.3-33c-2.1-6.6-4-13.1-5.9-19.9h-0.4c-1.8,6.8-3.7,13.3-5.8,19.9l-10.4,33    h-7.6L581.2,148.3z M571.7,183.4h27.2v6h-27.2V183.4z"
   id="path54" />
		<path
   class="st1"
   d="M618,148.3h16.9c13.2,0,22.2,4.5,22.2,17.4c0,12.4-8.9,18.2-21.8,18.2h-9.7v23.4H618V148.3z M634.3,177.9    c10.3,0,15.3-3.7,15.3-12.1c0-8.5-5.2-11.3-15.6-11.3h-8.4v23.4H634.3z"
   id="path56" />
		<path
   class="st1"
   d="M668.9,148.3h34v6.4h-26.5v18.5h22.4v6.4h-22.4V201h27.4v6.4h-34.9V148.3z"
   id="path58" />
	</g>
</g>
<rect
   x="19.9"
   y="36"
   class="st2"
   width="213"
   height="211.2"
   id="rect64" />
<rect
   x="36.2"
   y="52.2"
   class="st3"
   width="180.3"
   height="178.8"
   id="rect66" />
<path
   class="st4"
   d="M201.7,230.1h14.8v-28.2c-1.3-2.1-3-5.2-4.6-9.1c-3.8-8.9-3.7-13.6-6.1-14.1c-3.8-0.8-6.9,10.8-12.6,10.6  c-4.3-0.2-5-7-10.6-8.1c-4.5-0.9-7.1,2.8-12.6,5.1c-4.5,1.8-11.5,2.9-22.3-1.1c0,15,0,29.9,0,44.9h44.2  C195.2,230.1,198.4,230.1,201.7,230.1z"
   id="path68" />
<path
   class="st5"
   d="M65.6,109.1C78.7,109,89.3,98.2,89.1,85S78.2,61.3,65.1,61.5C52,61.6,41.5,72.2,41.5,85.3  c0,13.2,10.7,23.8,23.8,23.8C65.4,109.1,65.5,109.1,65.6,109.1z"
   id="path70" />
<g
   transform="translate(0.000000,717.000000) scale(0.100000,-0.100000)"
   id="g74">
	<path
   class="st6"
   d="M1499.7,6428.3c-2-0.2-8.7-1-14.9-1.6c-55.7-6-112.6-29.2-158.6-64.9c-12.9-10-34-30.4-45.4-44.1   c-21.9-26-41.7-61-51.8-91.8c-1.6-4.9-3.4-8.8-3.9-8.8s-3.3,1.2-6.1,2.6c-33.2,16.6-78,12.3-108.8-10.5   c-7.5-5.5-19.5-18.3-24.9-26.6c-10.4-15.8-16.1-32.1-17.3-50.2c-0.3-5.4-1-9.9-1.3-9.9s-7.1,1-15,2.1   c-76.3,11.3-154.3-10.3-203.8-56.6c-34.5-32.1-51-74.7-45.1-116.4c4.5-32,23.5-65,51.3-88.3c45.1-38,105.8-56.8,172.8-53.5   c34.7,1.7,67.3,9.7,96.9,23.8l11.8,5.5l3.5-8.6c19.4-48.3,61.7-83.6,113.9-94.9c13.8-3.1,50-2.9,63.4,0.3   c29.7,7.2,53.6,20,74.1,39.6l10.4,10l8.6-3.9c49.6-22.7,110.2-24.7,160.9-5.3c12.7,4.9,32.3,15.1,41.4,21.8   c3.9,2.9,7.6,5.2,7.9,5.2c0.4,0,4.6-3.7,9.4-8.3c39.8-38,97.6-62.1,156.6-64.9c58-2.9,110.1,11,156.5,41.8   c14,9.3,32.5,25,42.1,35.8c5.9,6.6,19.5,23.9,22,28.1c0.5,0.9,3.8,1.1,10.3,0.6c23.9-1.5,46.4,2.8,66.8,12.8   c50.8,24.9,78,79.3,67.1,134c-2.2,11.2-5.1,19.2-11.1,30.9c-18.2,35.6-53.2,60.4-94.1,66.7c-13.3,2-34.6,1.3-46.6-1.7l-8.3-2   l-10.3,10.6c-36.5,37.7-87,63.3-139.9,71.1l-9.3,1.4l-0.6,4.9c-4.6,36.3-12.5,63.3-27.7,94.3c-14.8,30.2-32.7,55.2-56.3,78.8   c-48.5,48.3-110.7,78.7-180.6,88.3C1554.2,6427.8,1508.2,6429.2,1499.7,6428.3z"
   id="path72" />
</g>
<rect
   x="35.6"
   y="142.1"
   class="st2"
   width="181.9"
   height="2.5"
   id="rect76" />
<g
   id="g94">
	<g
   id="g92">
		<path
   class="st7"
   d="M105.4,122h3.5v-11.3h-2.8v-1.3c1.4-0.2,2.4-0.6,3.3-1.1h1.5V122h3.2v1.6h-8.6V122z"
   id="path78" />
		<path
   class="st7"
   d="M117.4,122h3.5v-11.3h-2.8v-1.3c1.4-0.2,2.4-0.6,3.3-1.1h1.5V122h3.2v1.6h-8.6V122z"
   id="path80" />
		<path
   class="st7"
   d="M128.5,116c0-5.1,1.8-7.9,4.9-7.9c3.1,0,4.9,2.8,4.9,7.9c0,5.1-1.8,8-4.9,8C130.3,124,128.5,121.1,128.5,116z     M136.4,116c0-4.5-1.2-6.3-3-6.3s-3,1.8-3,6.3s1.2,6.4,3,6.4S136.4,120.4,136.4,116z"
   id="path82" />
		<path
   class="st7"
   d="M141.2,122h3.5v-11.3h-2.8v-1.3c1.4-0.2,2.4-0.6,3.3-1.1h1.5V122h3.2v1.6h-8.6V122z"
   id="path84" />
		<path
   class="st7"
   d="M152.3,116c0-5.1,1.8-7.9,4.9-7.9c3.1,0,4.9,2.8,4.9,7.9c0,5.1-1.8,8-4.9,8C154.2,124,152.3,121.1,152.3,116z     M160.2,116c0-4.5-1.2-6.3-3-6.3s-3,1.8-3,6.3s1.2,6.4,3,6.4S160.2,120.4,160.2,116z"
   id="path86" />
		<path
   class="st7"
   d="M165.1,122h3.5v-11.3h-2.8v-1.3c1.4-0.2,2.4-0.6,3.3-1.1h1.5V122h3.2v1.6h-8.6V122z"
   id="path88" />
		<path
   class="st7"
   d="M177,122h3.5v-11.3h-2.8v-1.3c1.4-0.2,2.4-0.6,3.3-1.1h1.5V122h3.2v1.6H177V122z"
   id="path90" />
	</g>
</g>
<path
   class="st8"
   d="M177.8,231.7h38.7v-28.2c-4.7-1.9-12-4.6-21.1-7.1c-16.8-4.6-20-3.1-34.1-6.8c-14.3-3.8-13.6-6-36.1-13.6  c-12.6-4.2-18.9-6.4-26.7-7.3c-17.6-2.1-31,1.9-33.8,2.7c-13,4-22.3,10.6-27.9,15.4c0,15,0,29.9,0,44.9h115.5  C160.8,231.7,169.3,231.7,177.8,231.7z"
   id="path96" />
<rect
   x="35.4"
   y="140.9"
   transform="matrix(-1.836970e-16 1 -1 -1.836970e-16 268.472 15.7386)"
   class="st2"
   width="181.9"
   height="2.5"
   id="rect98" />
<path
   class="st8"
   d="M-53.6,249.9"
   id="path100" />
<path
   class="st9"
   d="M206.7,183.6c0.8,1.3,1.2,1.6,1.4,1.5c0.5-0.2,0.4-2.3-0.6-4c-0.4-0.6-1-1.7-2.1-1.8c-1.2-0.2-2.2,0.9-2.8,1.5  c-1,1-1.8,2.6-1.4,3c0.3,0.3,1.3-0.5,3-0.6C205.3,183.2,206.2,183.4,206.7,183.6z"
   id="path102" />
<path
   class="st9"
   d="M183.7,184.3c2.4,1,3,1.1,3.2,0.9c0.2-0.3-1.2-1.5-1.9-2c-1.2-0.9-2-1.6-3.3-1.6c-1.2-0.1-2.2,0.4-3.2,0.9  c-0.4,0.2-1.8,0.9-1.7,1.2c0.1,0.3,1.5,0,3.6,0.2C181.8,183.8,183,184.1,183.7,184.3z"
   id="path104" />
<g
   aria-label="Beta"
   id="text115"
   style="font-size:13.3333px;line-height:1.25;font-family:sans-serif"
   transform="matrix(1.4009269,0,0,1.4009269,-379.17908,-100.26554)"><path
     d="m 868.11304,255.94125 q 0,3.46875 -1.3125,6.125 -1.3125,2.65625 -3.53125,4.375 -2.625,2.0625 -5.78125,2.9375 -3.125,0.875 -7.96875,0.875 h -16.5 V 223.7225 h 13.78125 q 5.09375,0 7.625,0.375 2.53125,0.375 4.84375,1.5625 2.5625,1.34375 3.71875,3.46875 1.15625,2.09375 1.15625,5.03125 0,3.3125 -1.6875,5.65625 -1.6875,2.3125 -4.5,3.71875 v 0.25 q 4.71875,0.96875 7.4375,4.15625 2.71875,3.15625 2.71875,8 z M 857.70679,234.9725 q 0,-1.6875 -0.5625,-2.84375 -0.5625,-1.15625 -1.8125,-1.875 -1.46875,-0.84375 -3.5625,-1.03125 -2.09375,-0.21875 -5.1875,-0.21875 h -7.375 v 13.4375 h 8 q 2.90625,0 4.625,-0.28125 1.71875,-0.3125 3.1875,-1.25 1.46875,-0.9375 2.0625,-2.40625 0.625,-1.5 0.625,-3.53125 z m 3.96875,21.21875 q 0,-2.8125 -0.84375,-4.46875 -0.84375,-1.65625 -3.0625,-2.8125 -1.5,-0.78125 -3.65625,-1 -2.125,-0.25 -5.1875,-0.25 h -9.71875 v 17.3125 h 8.1875 q 4.0625,0 6.65625,-0.40625 2.59375,-0.4375 4.25,-1.5625 1.75,-1.21875 2.5625,-2.78125 0.8125,-1.5625 0.8125,-4.03125 z"
     style="font-size:64px;fill:#ff0000"
     id="path117" /><path
     d="m 905.64429,253.41 h -25.71875 q 0,3.21875 0.96875,5.625 0.96875,2.375 2.65625,3.90625 1.625,1.5 3.84375,2.25 2.25,0.75 4.9375,0.75 3.5625,0 7.15625,-1.40625 3.625,-1.4375 5.15625,-2.8125 h 0.3125 v 6.40625 q -2.96875,1.25 -6.0625,2.09375 -3.09375,0.84375 -6.5,0.84375 -8.6875,0 -13.5625,-4.6875 -4.875,-4.71875 -4.875,-13.375 0,-8.5625 4.65625,-13.59375 4.6875,-5.03125 12.3125,-5.03125 7.0625,0 10.875,4.125 3.84375,4.125 3.84375,11.71875 z m -5.71875,-4.5 q -0.0312,-4.625 -2.34375,-7.15625 -2.28125,-2.53125 -6.96875,-2.53125 -4.71875,0 -7.53125,2.78125 -2.78125,2.78125 -3.15625,6.90625 z"
     style="font-size:64px;fill:#ff0000"
     id="path119" /><path
     d="m 932.67554,269.94125 q -1.65625,0.4375 -3.625,0.71875 -1.9375,0.28125 -3.46875,0.28125 -5.34375,0 -8.125,-2.875 -2.78125,-2.875 -2.78125,-9.21875 V 240.285 h -3.96875 v -4.9375 h 3.96875 v -10.03125 h 5.875 v 10.03125 h 12.125 v 4.9375 h -12.125 v 15.90625 q 0,2.75 0.125,4.3125 0.125,1.53125 0.875,2.875 0.6875,1.25 1.875,1.84375 1.21875,0.5625 3.6875,0.5625 1.4375,0 3,-0.40625 1.5625,-0.4375 2.25,-0.71875 h 0.3125 z"
     style="font-size:64px;fill:#ff0000"
     id="path121" /><path
     d="m 966.89429,270.25375 h -5.84375 V 266.535 q -0.78125,0.53125 -2.125,1.5 -1.3125,0.9375 -2.5625,1.5 -1.46875,0.71875 -3.375,1.1875 -1.90625,0.5 -4.46875,0.5 -4.71875,0 -8,-3.125 -3.28125,-3.125 -3.28125,-7.96875 0,-3.96875 1.6875,-6.40625 1.71875,-2.46875 4.875,-3.875 3.1875,-1.40625 7.65625,-1.90625 4.46875,-0.5 9.59375,-0.75 V 246.285 q 0,-2 -0.71875,-3.3125 -0.6875,-1.3125 -2,-2.0625 -1.25,-0.71875 -3,-0.96875 -1.75,-0.25 -3.65625,-0.25 -2.3125,0 -5.15625,0.625 -2.84375,0.59375 -5.875,1.75 h -0.3125 v -5.96875 q 1.71875,-0.46875 4.96875,-1.03125 3.25,-0.5625 6.40625,-0.5625 3.6875,0 6.40625,0.625 2.75,0.59375 4.75,2.0625 1.96875,1.4375 3,3.71875 1.03125,2.28125 1.03125,5.65625 z M 961.05054,261.66 v -9.71875 q -2.6875,0.15625 -6.34375,0.46875 -3.625,0.3125 -5.75,0.90625 -2.53125,0.71875 -4.09375,2.25 -1.5625,1.5 -1.5625,4.15625 0,3 1.8125,4.53125 1.8125,1.5 5.53125,1.5 3.09375,0 5.65625,-1.1875 2.5625,-1.21875 4.75,-2.90625 z"
     style="font-size:64px;fill:#ff0000"
     id="path123" /></g></svg>
